%TF.GenerationSoftware,KiCad,Pcbnew,8.0.8*%
%TF.CreationDate,2025-02-17T12:20:49-05:00*%
%TF.ProjectId,2024-12-19-3-Clocks,32303234-2d31-4322-9d31-392d332d436c,rev?*%
%TF.SameCoordinates,Original*%
%TF.FileFunction,Legend,Bot*%
%TF.FilePolarity,Positive*%
%FSLAX46Y46*%
G04 Gerber Fmt 4.6, Leading zero omitted, Abs format (unit mm)*
G04 Created by KiCad (PCBNEW 8.0.8) date 2025-02-17 12:20:49*
%MOMM*%
%LPD*%
G01*
G04 APERTURE LIST*
%ADD10C,0.150000*%
G04 APERTURE END LIST*
D10*
X73142856Y-64712256D02*
X73285713Y-64759875D01*
X73285713Y-64759875D02*
X73523808Y-64759875D01*
X73523808Y-64759875D02*
X73619046Y-64712256D01*
X73619046Y-64712256D02*
X73666665Y-64664636D01*
X73666665Y-64664636D02*
X73714284Y-64569398D01*
X73714284Y-64569398D02*
X73714284Y-64474160D01*
X73714284Y-64474160D02*
X73666665Y-64378922D01*
X73666665Y-64378922D02*
X73619046Y-64331303D01*
X73619046Y-64331303D02*
X73523808Y-64283684D01*
X73523808Y-64283684D02*
X73333332Y-64236065D01*
X73333332Y-64236065D02*
X73238094Y-64188446D01*
X73238094Y-64188446D02*
X73190475Y-64140827D01*
X73190475Y-64140827D02*
X73142856Y-64045589D01*
X73142856Y-64045589D02*
X73142856Y-63950351D01*
X73142856Y-63950351D02*
X73190475Y-63855113D01*
X73190475Y-63855113D02*
X73238094Y-63807494D01*
X73238094Y-63807494D02*
X73333332Y-63759875D01*
X73333332Y-63759875D02*
X73571427Y-63759875D01*
X73571427Y-63759875D02*
X73714284Y-63807494D01*
X73999999Y-63759875D02*
X74571427Y-63759875D01*
X74285713Y-64759875D02*
X74285713Y-63759875D01*
X74904761Y-63759875D02*
X74904761Y-64569398D01*
X74904761Y-64569398D02*
X74952380Y-64664636D01*
X74952380Y-64664636D02*
X74999999Y-64712256D01*
X74999999Y-64712256D02*
X75095237Y-64759875D01*
X75095237Y-64759875D02*
X75285713Y-64759875D01*
X75285713Y-64759875D02*
X75380951Y-64712256D01*
X75380951Y-64712256D02*
X75428570Y-64664636D01*
X75428570Y-64664636D02*
X75476189Y-64569398D01*
X75476189Y-64569398D02*
X75476189Y-63759875D01*
X75904761Y-64474160D02*
X76380951Y-64474160D01*
X75809523Y-64759875D02*
X76142856Y-63759875D01*
X76142856Y-63759875D02*
X76476189Y-64759875D01*
X76761904Y-64474160D02*
X77238094Y-64474160D01*
X76666666Y-64759875D02*
X76999999Y-63759875D01*
X76999999Y-63759875D02*
X77333332Y-64759875D01*
X78238094Y-64759875D02*
X77904761Y-64283684D01*
X77666666Y-64759875D02*
X77666666Y-63759875D01*
X77666666Y-63759875D02*
X78047618Y-63759875D01*
X78047618Y-63759875D02*
X78142856Y-63807494D01*
X78142856Y-63807494D02*
X78190475Y-63855113D01*
X78190475Y-63855113D02*
X78238094Y-63950351D01*
X78238094Y-63950351D02*
X78238094Y-64093208D01*
X78238094Y-64093208D02*
X78190475Y-64188446D01*
X78190475Y-64188446D02*
X78142856Y-64236065D01*
X78142856Y-64236065D02*
X78047618Y-64283684D01*
X78047618Y-64283684D02*
X77666666Y-64283684D01*
X78523809Y-63759875D02*
X79095237Y-63759875D01*
X78809523Y-64759875D02*
X78809523Y-63759875D01*
X80047619Y-63759875D02*
X80380952Y-64759875D01*
X80380952Y-64759875D02*
X80714285Y-63759875D01*
X81428571Y-64712256D02*
X81333333Y-64759875D01*
X81333333Y-64759875D02*
X81142857Y-64759875D01*
X81142857Y-64759875D02*
X81047619Y-64712256D01*
X81047619Y-64712256D02*
X81000000Y-64617017D01*
X81000000Y-64617017D02*
X81000000Y-64236065D01*
X81000000Y-64236065D02*
X81047619Y-64140827D01*
X81047619Y-64140827D02*
X81142857Y-64093208D01*
X81142857Y-64093208D02*
X81333333Y-64093208D01*
X81333333Y-64093208D02*
X81428571Y-64140827D01*
X81428571Y-64140827D02*
X81476190Y-64236065D01*
X81476190Y-64236065D02*
X81476190Y-64331303D01*
X81476190Y-64331303D02*
X81000000Y-64426541D01*
X81904762Y-64759875D02*
X81904762Y-64093208D01*
X81904762Y-64283684D02*
X81952381Y-64188446D01*
X81952381Y-64188446D02*
X82000000Y-64140827D01*
X82000000Y-64140827D02*
X82095238Y-64093208D01*
X82095238Y-64093208D02*
X82190476Y-64093208D01*
X82476191Y-64712256D02*
X82571429Y-64759875D01*
X82571429Y-64759875D02*
X82761905Y-64759875D01*
X82761905Y-64759875D02*
X82857143Y-64712256D01*
X82857143Y-64712256D02*
X82904762Y-64617017D01*
X82904762Y-64617017D02*
X82904762Y-64569398D01*
X82904762Y-64569398D02*
X82857143Y-64474160D01*
X82857143Y-64474160D02*
X82761905Y-64426541D01*
X82761905Y-64426541D02*
X82619048Y-64426541D01*
X82619048Y-64426541D02*
X82523810Y-64378922D01*
X82523810Y-64378922D02*
X82476191Y-64283684D01*
X82476191Y-64283684D02*
X82476191Y-64236065D01*
X82476191Y-64236065D02*
X82523810Y-64140827D01*
X82523810Y-64140827D02*
X82619048Y-64093208D01*
X82619048Y-64093208D02*
X82761905Y-64093208D01*
X82761905Y-64093208D02*
X82857143Y-64140827D01*
X83333334Y-64759875D02*
X83333334Y-64093208D01*
X83333334Y-63759875D02*
X83285715Y-63807494D01*
X83285715Y-63807494D02*
X83333334Y-63855113D01*
X83333334Y-63855113D02*
X83380953Y-63807494D01*
X83380953Y-63807494D02*
X83333334Y-63759875D01*
X83333334Y-63759875D02*
X83333334Y-63855113D01*
X83952381Y-64759875D02*
X83857143Y-64712256D01*
X83857143Y-64712256D02*
X83809524Y-64664636D01*
X83809524Y-64664636D02*
X83761905Y-64569398D01*
X83761905Y-64569398D02*
X83761905Y-64283684D01*
X83761905Y-64283684D02*
X83809524Y-64188446D01*
X83809524Y-64188446D02*
X83857143Y-64140827D01*
X83857143Y-64140827D02*
X83952381Y-64093208D01*
X83952381Y-64093208D02*
X84095238Y-64093208D01*
X84095238Y-64093208D02*
X84190476Y-64140827D01*
X84190476Y-64140827D02*
X84238095Y-64188446D01*
X84238095Y-64188446D02*
X84285714Y-64283684D01*
X84285714Y-64283684D02*
X84285714Y-64569398D01*
X84285714Y-64569398D02*
X84238095Y-64664636D01*
X84238095Y-64664636D02*
X84190476Y-64712256D01*
X84190476Y-64712256D02*
X84095238Y-64759875D01*
X84095238Y-64759875D02*
X83952381Y-64759875D01*
X84714286Y-64093208D02*
X84714286Y-64759875D01*
X84714286Y-64188446D02*
X84761905Y-64140827D01*
X84761905Y-64140827D02*
X84857143Y-64093208D01*
X84857143Y-64093208D02*
X85000000Y-64093208D01*
X85000000Y-64093208D02*
X85095238Y-64140827D01*
X85095238Y-64140827D02*
X85142857Y-64236065D01*
X85142857Y-64236065D02*
X85142857Y-64759875D01*
X86285715Y-63759875D02*
X86904762Y-63759875D01*
X86904762Y-63759875D02*
X86571429Y-64140827D01*
X86571429Y-64140827D02*
X86714286Y-64140827D01*
X86714286Y-64140827D02*
X86809524Y-64188446D01*
X86809524Y-64188446D02*
X86857143Y-64236065D01*
X86857143Y-64236065D02*
X86904762Y-64331303D01*
X86904762Y-64331303D02*
X86904762Y-64569398D01*
X86904762Y-64569398D02*
X86857143Y-64664636D01*
X86857143Y-64664636D02*
X86809524Y-64712256D01*
X86809524Y-64712256D02*
X86714286Y-64759875D01*
X86714286Y-64759875D02*
X86428572Y-64759875D01*
X86428572Y-64759875D02*
X86333334Y-64712256D01*
X86333334Y-64712256D02*
X86285715Y-64664636D01*
X88095239Y-64378922D02*
X88857144Y-64378922D01*
X90047620Y-63855113D02*
X90095239Y-63807494D01*
X90095239Y-63807494D02*
X90190477Y-63759875D01*
X90190477Y-63759875D02*
X90428572Y-63759875D01*
X90428572Y-63759875D02*
X90523810Y-63807494D01*
X90523810Y-63807494D02*
X90571429Y-63855113D01*
X90571429Y-63855113D02*
X90619048Y-63950351D01*
X90619048Y-63950351D02*
X90619048Y-64045589D01*
X90619048Y-64045589D02*
X90571429Y-64188446D01*
X90571429Y-64188446D02*
X90000001Y-64759875D01*
X90000001Y-64759875D02*
X90619048Y-64759875D01*
X91238096Y-63759875D02*
X91333334Y-63759875D01*
X91333334Y-63759875D02*
X91428572Y-63807494D01*
X91428572Y-63807494D02*
X91476191Y-63855113D01*
X91476191Y-63855113D02*
X91523810Y-63950351D01*
X91523810Y-63950351D02*
X91571429Y-64140827D01*
X91571429Y-64140827D02*
X91571429Y-64378922D01*
X91571429Y-64378922D02*
X91523810Y-64569398D01*
X91523810Y-64569398D02*
X91476191Y-64664636D01*
X91476191Y-64664636D02*
X91428572Y-64712256D01*
X91428572Y-64712256D02*
X91333334Y-64759875D01*
X91333334Y-64759875D02*
X91238096Y-64759875D01*
X91238096Y-64759875D02*
X91142858Y-64712256D01*
X91142858Y-64712256D02*
X91095239Y-64664636D01*
X91095239Y-64664636D02*
X91047620Y-64569398D01*
X91047620Y-64569398D02*
X91000001Y-64378922D01*
X91000001Y-64378922D02*
X91000001Y-64140827D01*
X91000001Y-64140827D02*
X91047620Y-63950351D01*
X91047620Y-63950351D02*
X91095239Y-63855113D01*
X91095239Y-63855113D02*
X91142858Y-63807494D01*
X91142858Y-63807494D02*
X91238096Y-63759875D01*
X91952382Y-63855113D02*
X92000001Y-63807494D01*
X92000001Y-63807494D02*
X92095239Y-63759875D01*
X92095239Y-63759875D02*
X92333334Y-63759875D01*
X92333334Y-63759875D02*
X92428572Y-63807494D01*
X92428572Y-63807494D02*
X92476191Y-63855113D01*
X92476191Y-63855113D02*
X92523810Y-63950351D01*
X92523810Y-63950351D02*
X92523810Y-64045589D01*
X92523810Y-64045589D02*
X92476191Y-64188446D01*
X92476191Y-64188446D02*
X91904763Y-64759875D01*
X91904763Y-64759875D02*
X92523810Y-64759875D01*
X93428572Y-63759875D02*
X92952382Y-63759875D01*
X92952382Y-63759875D02*
X92904763Y-64236065D01*
X92904763Y-64236065D02*
X92952382Y-64188446D01*
X92952382Y-64188446D02*
X93047620Y-64140827D01*
X93047620Y-64140827D02*
X93285715Y-64140827D01*
X93285715Y-64140827D02*
X93380953Y-64188446D01*
X93380953Y-64188446D02*
X93428572Y-64236065D01*
X93428572Y-64236065D02*
X93476191Y-64331303D01*
X93476191Y-64331303D02*
X93476191Y-64569398D01*
X93476191Y-64569398D02*
X93428572Y-64664636D01*
X93428572Y-64664636D02*
X93380953Y-64712256D01*
X93380953Y-64712256D02*
X93285715Y-64759875D01*
X93285715Y-64759875D02*
X93047620Y-64759875D01*
X93047620Y-64759875D02*
X92952382Y-64712256D01*
X92952382Y-64712256D02*
X92904763Y-64664636D01*
X93904763Y-64664636D02*
X93952382Y-64712256D01*
X93952382Y-64712256D02*
X93904763Y-64759875D01*
X93904763Y-64759875D02*
X93857144Y-64712256D01*
X93857144Y-64712256D02*
X93904763Y-64664636D01*
X93904763Y-64664636D02*
X93904763Y-64759875D01*
X94571429Y-63759875D02*
X94666667Y-63759875D01*
X94666667Y-63759875D02*
X94761905Y-63807494D01*
X94761905Y-63807494D02*
X94809524Y-63855113D01*
X94809524Y-63855113D02*
X94857143Y-63950351D01*
X94857143Y-63950351D02*
X94904762Y-64140827D01*
X94904762Y-64140827D02*
X94904762Y-64378922D01*
X94904762Y-64378922D02*
X94857143Y-64569398D01*
X94857143Y-64569398D02*
X94809524Y-64664636D01*
X94809524Y-64664636D02*
X94761905Y-64712256D01*
X94761905Y-64712256D02*
X94666667Y-64759875D01*
X94666667Y-64759875D02*
X94571429Y-64759875D01*
X94571429Y-64759875D02*
X94476191Y-64712256D01*
X94476191Y-64712256D02*
X94428572Y-64664636D01*
X94428572Y-64664636D02*
X94380953Y-64569398D01*
X94380953Y-64569398D02*
X94333334Y-64378922D01*
X94333334Y-64378922D02*
X94333334Y-64140827D01*
X94333334Y-64140827D02*
X94380953Y-63950351D01*
X94380953Y-63950351D02*
X94428572Y-63855113D01*
X94428572Y-63855113D02*
X94476191Y-63807494D01*
X94476191Y-63807494D02*
X94571429Y-63759875D01*
X95285715Y-63855113D02*
X95333334Y-63807494D01*
X95333334Y-63807494D02*
X95428572Y-63759875D01*
X95428572Y-63759875D02*
X95666667Y-63759875D01*
X95666667Y-63759875D02*
X95761905Y-63807494D01*
X95761905Y-63807494D02*
X95809524Y-63855113D01*
X95809524Y-63855113D02*
X95857143Y-63950351D01*
X95857143Y-63950351D02*
X95857143Y-64045589D01*
X95857143Y-64045589D02*
X95809524Y-64188446D01*
X95809524Y-64188446D02*
X95238096Y-64759875D01*
X95238096Y-64759875D02*
X95857143Y-64759875D01*
X70880950Y-66369819D02*
X70404760Y-66369819D01*
X70404760Y-66369819D02*
X70404760Y-65369819D01*
X71642855Y-65703152D02*
X71642855Y-66369819D01*
X71214284Y-65703152D02*
X71214284Y-66226961D01*
X71214284Y-66226961D02*
X71261903Y-66322200D01*
X71261903Y-66322200D02*
X71357141Y-66369819D01*
X71357141Y-66369819D02*
X71499998Y-66369819D01*
X71499998Y-66369819D02*
X71595236Y-66322200D01*
X71595236Y-66322200D02*
X71642855Y-66274580D01*
X72547617Y-66369819D02*
X72547617Y-65369819D01*
X72547617Y-66322200D02*
X72452379Y-66369819D01*
X72452379Y-66369819D02*
X72261903Y-66369819D01*
X72261903Y-66369819D02*
X72166665Y-66322200D01*
X72166665Y-66322200D02*
X72119046Y-66274580D01*
X72119046Y-66274580D02*
X72071427Y-66179342D01*
X72071427Y-66179342D02*
X72071427Y-65893628D01*
X72071427Y-65893628D02*
X72119046Y-65798390D01*
X72119046Y-65798390D02*
X72166665Y-65750771D01*
X72166665Y-65750771D02*
X72261903Y-65703152D01*
X72261903Y-65703152D02*
X72452379Y-65703152D01*
X72452379Y-65703152D02*
X72547617Y-65750771D01*
X73166665Y-66369819D02*
X73071427Y-66322200D01*
X73071427Y-66322200D02*
X73023808Y-66274580D01*
X73023808Y-66274580D02*
X72976189Y-66179342D01*
X72976189Y-66179342D02*
X72976189Y-65893628D01*
X72976189Y-65893628D02*
X73023808Y-65798390D01*
X73023808Y-65798390D02*
X73071427Y-65750771D01*
X73071427Y-65750771D02*
X73166665Y-65703152D01*
X73166665Y-65703152D02*
X73309522Y-65703152D01*
X73309522Y-65703152D02*
X73404760Y-65750771D01*
X73404760Y-65750771D02*
X73452379Y-65798390D01*
X73452379Y-65798390D02*
X73499998Y-65893628D01*
X73499998Y-65893628D02*
X73499998Y-66179342D01*
X73499998Y-66179342D02*
X73452379Y-66274580D01*
X73452379Y-66274580D02*
X73404760Y-66322200D01*
X73404760Y-66322200D02*
X73309522Y-66369819D01*
X73309522Y-66369819D02*
X73166665Y-66369819D01*
X73833332Y-65703152D02*
X74071427Y-66369819D01*
X74071427Y-66369819D02*
X74309522Y-65703152D01*
X74690475Y-66369819D02*
X74690475Y-65703152D01*
X74690475Y-65369819D02*
X74642856Y-65417438D01*
X74642856Y-65417438D02*
X74690475Y-65465057D01*
X74690475Y-65465057D02*
X74738094Y-65417438D01*
X74738094Y-65417438D02*
X74690475Y-65369819D01*
X74690475Y-65369819D02*
X74690475Y-65465057D01*
X75595236Y-66322200D02*
X75499998Y-66369819D01*
X75499998Y-66369819D02*
X75309522Y-66369819D01*
X75309522Y-66369819D02*
X75214284Y-66322200D01*
X75214284Y-66322200D02*
X75166665Y-66274580D01*
X75166665Y-66274580D02*
X75119046Y-66179342D01*
X75119046Y-66179342D02*
X75119046Y-65893628D01*
X75119046Y-65893628D02*
X75166665Y-65798390D01*
X75166665Y-65798390D02*
X75214284Y-65750771D01*
X75214284Y-65750771D02*
X75309522Y-65703152D01*
X75309522Y-65703152D02*
X75499998Y-65703152D01*
X75499998Y-65703152D02*
X75595236Y-65750771D01*
X77309522Y-65417438D02*
X77214284Y-65369819D01*
X77214284Y-65369819D02*
X77071427Y-65369819D01*
X77071427Y-65369819D02*
X76928570Y-65417438D01*
X76928570Y-65417438D02*
X76833332Y-65512676D01*
X76833332Y-65512676D02*
X76785713Y-65607914D01*
X76785713Y-65607914D02*
X76738094Y-65798390D01*
X76738094Y-65798390D02*
X76738094Y-65941247D01*
X76738094Y-65941247D02*
X76785713Y-66131723D01*
X76785713Y-66131723D02*
X76833332Y-66226961D01*
X76833332Y-66226961D02*
X76928570Y-66322200D01*
X76928570Y-66322200D02*
X77071427Y-66369819D01*
X77071427Y-66369819D02*
X77166665Y-66369819D01*
X77166665Y-66369819D02*
X77309522Y-66322200D01*
X77309522Y-66322200D02*
X77357141Y-66274580D01*
X77357141Y-66274580D02*
X77357141Y-65941247D01*
X77357141Y-65941247D02*
X77166665Y-65941247D01*
X78214284Y-66369819D02*
X78214284Y-65846009D01*
X78214284Y-65846009D02*
X78166665Y-65750771D01*
X78166665Y-65750771D02*
X78071427Y-65703152D01*
X78071427Y-65703152D02*
X77880951Y-65703152D01*
X77880951Y-65703152D02*
X77785713Y-65750771D01*
X78214284Y-66322200D02*
X78119046Y-66369819D01*
X78119046Y-66369819D02*
X77880951Y-66369819D01*
X77880951Y-66369819D02*
X77785713Y-66322200D01*
X77785713Y-66322200D02*
X77738094Y-66226961D01*
X77738094Y-66226961D02*
X77738094Y-66131723D01*
X77738094Y-66131723D02*
X77785713Y-66036485D01*
X77785713Y-66036485D02*
X77880951Y-65988866D01*
X77880951Y-65988866D02*
X78119046Y-65988866D01*
X78119046Y-65988866D02*
X78214284Y-65941247D01*
X78690475Y-66369819D02*
X78690475Y-65703152D01*
X78690475Y-65893628D02*
X78738094Y-65798390D01*
X78738094Y-65798390D02*
X78785713Y-65750771D01*
X78785713Y-65750771D02*
X78880951Y-65703152D01*
X78880951Y-65703152D02*
X78976189Y-65703152D01*
X79452380Y-66369819D02*
X79357142Y-66322200D01*
X79357142Y-66322200D02*
X79309523Y-66274580D01*
X79309523Y-66274580D02*
X79261904Y-66179342D01*
X79261904Y-66179342D02*
X79261904Y-65893628D01*
X79261904Y-65893628D02*
X79309523Y-65798390D01*
X79309523Y-65798390D02*
X79357142Y-65750771D01*
X79357142Y-65750771D02*
X79452380Y-65703152D01*
X79452380Y-65703152D02*
X79595237Y-65703152D01*
X79595237Y-65703152D02*
X79690475Y-65750771D01*
X79690475Y-65750771D02*
X79738094Y-65798390D01*
X79738094Y-65798390D02*
X79785713Y-65893628D01*
X79785713Y-65893628D02*
X79785713Y-66179342D01*
X79785713Y-66179342D02*
X79738094Y-66274580D01*
X79738094Y-66274580D02*
X79690475Y-66322200D01*
X79690475Y-66322200D02*
X79595237Y-66369819D01*
X79595237Y-66369819D02*
X79452380Y-66369819D01*
X80214285Y-65703152D02*
X80214285Y-66369819D01*
X80214285Y-65798390D02*
X80261904Y-65750771D01*
X80261904Y-65750771D02*
X80357142Y-65703152D01*
X80357142Y-65703152D02*
X80499999Y-65703152D01*
X80499999Y-65703152D02*
X80595237Y-65750771D01*
X80595237Y-65750771D02*
X80642856Y-65846009D01*
X80642856Y-65846009D02*
X80642856Y-66369819D01*
X82261904Y-66322200D02*
X82166666Y-66369819D01*
X82166666Y-66369819D02*
X81976190Y-66369819D01*
X81976190Y-66369819D02*
X81880952Y-66322200D01*
X81880952Y-66322200D02*
X81833333Y-66226961D01*
X81833333Y-66226961D02*
X81833333Y-65846009D01*
X81833333Y-65846009D02*
X81880952Y-65750771D01*
X81880952Y-65750771D02*
X81976190Y-65703152D01*
X81976190Y-65703152D02*
X82166666Y-65703152D01*
X82166666Y-65703152D02*
X82261904Y-65750771D01*
X82261904Y-65750771D02*
X82309523Y-65846009D01*
X82309523Y-65846009D02*
X82309523Y-65941247D01*
X82309523Y-65941247D02*
X81833333Y-66036485D01*
X82595238Y-65703152D02*
X82976190Y-65703152D01*
X82738095Y-65369819D02*
X82738095Y-66226961D01*
X82738095Y-66226961D02*
X82785714Y-66322200D01*
X82785714Y-66322200D02*
X82880952Y-66369819D01*
X82880952Y-66369819D02*
X82976190Y-66369819D01*
X83928572Y-65369819D02*
X84261905Y-66369819D01*
X84261905Y-66369819D02*
X84595238Y-65369819D01*
X85357143Y-66369819D02*
X85357143Y-65846009D01*
X85357143Y-65846009D02*
X85309524Y-65750771D01*
X85309524Y-65750771D02*
X85214286Y-65703152D01*
X85214286Y-65703152D02*
X85023810Y-65703152D01*
X85023810Y-65703152D02*
X84928572Y-65750771D01*
X85357143Y-66322200D02*
X85261905Y-66369819D01*
X85261905Y-66369819D02*
X85023810Y-66369819D01*
X85023810Y-66369819D02*
X84928572Y-66322200D01*
X84928572Y-66322200D02*
X84880953Y-66226961D01*
X84880953Y-66226961D02*
X84880953Y-66131723D01*
X84880953Y-66131723D02*
X84928572Y-66036485D01*
X84928572Y-66036485D02*
X85023810Y-65988866D01*
X85023810Y-65988866D02*
X85261905Y-65988866D01*
X85261905Y-65988866D02*
X85357143Y-65941247D01*
X85976191Y-66369819D02*
X85880953Y-66322200D01*
X85880953Y-66322200D02*
X85833334Y-66226961D01*
X85833334Y-66226961D02*
X85833334Y-65369819D01*
X86738096Y-66322200D02*
X86642858Y-66369819D01*
X86642858Y-66369819D02*
X86452382Y-66369819D01*
X86452382Y-66369819D02*
X86357144Y-66322200D01*
X86357144Y-66322200D02*
X86309525Y-66226961D01*
X86309525Y-66226961D02*
X86309525Y-65846009D01*
X86309525Y-65846009D02*
X86357144Y-65750771D01*
X86357144Y-65750771D02*
X86452382Y-65703152D01*
X86452382Y-65703152D02*
X86642858Y-65703152D01*
X86642858Y-65703152D02*
X86738096Y-65750771D01*
X86738096Y-65750771D02*
X86785715Y-65846009D01*
X86785715Y-65846009D02*
X86785715Y-65941247D01*
X86785715Y-65941247D02*
X86309525Y-66036485D01*
X86642858Y-65322200D02*
X86500001Y-65465057D01*
X87214287Y-66369819D02*
X87214287Y-65703152D01*
X87214287Y-65893628D02*
X87261906Y-65798390D01*
X87261906Y-65798390D02*
X87309525Y-65750771D01*
X87309525Y-65750771D02*
X87404763Y-65703152D01*
X87404763Y-65703152D02*
X87500001Y-65703152D01*
X87833335Y-66369819D02*
X87833335Y-65703152D01*
X87833335Y-65369819D02*
X87785716Y-65417438D01*
X87785716Y-65417438D02*
X87833335Y-65465057D01*
X87833335Y-65465057D02*
X87880954Y-65417438D01*
X87880954Y-65417438D02*
X87833335Y-65369819D01*
X87833335Y-65369819D02*
X87833335Y-65465057D01*
X88690477Y-66322200D02*
X88595239Y-66369819D01*
X88595239Y-66369819D02*
X88404763Y-66369819D01*
X88404763Y-66369819D02*
X88309525Y-66322200D01*
X88309525Y-66322200D02*
X88261906Y-66226961D01*
X88261906Y-66226961D02*
X88261906Y-65846009D01*
X88261906Y-65846009D02*
X88309525Y-65750771D01*
X88309525Y-65750771D02*
X88404763Y-65703152D01*
X88404763Y-65703152D02*
X88595239Y-65703152D01*
X88595239Y-65703152D02*
X88690477Y-65750771D01*
X88690477Y-65750771D02*
X88738096Y-65846009D01*
X88738096Y-65846009D02*
X88738096Y-65941247D01*
X88738096Y-65941247D02*
X88261906Y-66036485D01*
X89928573Y-66369819D02*
X89928573Y-65369819D01*
X89928573Y-65369819D02*
X90309525Y-65369819D01*
X90309525Y-65369819D02*
X90404763Y-65417438D01*
X90404763Y-65417438D02*
X90452382Y-65465057D01*
X90452382Y-65465057D02*
X90500001Y-65560295D01*
X90500001Y-65560295D02*
X90500001Y-65703152D01*
X90500001Y-65703152D02*
X90452382Y-65798390D01*
X90452382Y-65798390D02*
X90404763Y-65846009D01*
X90404763Y-65846009D02*
X90309525Y-65893628D01*
X90309525Y-65893628D02*
X89928573Y-65893628D01*
X90928573Y-66369819D02*
X90928573Y-65703152D01*
X90928573Y-65369819D02*
X90880954Y-65417438D01*
X90880954Y-65417438D02*
X90928573Y-65465057D01*
X90928573Y-65465057D02*
X90976192Y-65417438D01*
X90976192Y-65417438D02*
X90928573Y-65369819D01*
X90928573Y-65369819D02*
X90928573Y-65465057D01*
X91404763Y-65703152D02*
X91404763Y-66369819D01*
X91404763Y-65798390D02*
X91452382Y-65750771D01*
X91452382Y-65750771D02*
X91547620Y-65703152D01*
X91547620Y-65703152D02*
X91690477Y-65703152D01*
X91690477Y-65703152D02*
X91785715Y-65750771D01*
X91785715Y-65750771D02*
X91833334Y-65846009D01*
X91833334Y-65846009D02*
X91833334Y-66369819D01*
X92690477Y-66322200D02*
X92595239Y-66369819D01*
X92595239Y-66369819D02*
X92404763Y-66369819D01*
X92404763Y-66369819D02*
X92309525Y-66322200D01*
X92309525Y-66322200D02*
X92261906Y-66226961D01*
X92261906Y-66226961D02*
X92261906Y-65846009D01*
X92261906Y-65846009D02*
X92309525Y-65750771D01*
X92309525Y-65750771D02*
X92404763Y-65703152D01*
X92404763Y-65703152D02*
X92595239Y-65703152D01*
X92595239Y-65703152D02*
X92690477Y-65750771D01*
X92690477Y-65750771D02*
X92738096Y-65846009D01*
X92738096Y-65846009D02*
X92738096Y-65941247D01*
X92738096Y-65941247D02*
X92261906Y-66036485D01*
X93595239Y-66369819D02*
X93595239Y-65846009D01*
X93595239Y-65846009D02*
X93547620Y-65750771D01*
X93547620Y-65750771D02*
X93452382Y-65703152D01*
X93452382Y-65703152D02*
X93261906Y-65703152D01*
X93261906Y-65703152D02*
X93166668Y-65750771D01*
X93595239Y-66322200D02*
X93500001Y-66369819D01*
X93500001Y-66369819D02*
X93261906Y-66369819D01*
X93261906Y-66369819D02*
X93166668Y-66322200D01*
X93166668Y-66322200D02*
X93119049Y-66226961D01*
X93119049Y-66226961D02*
X93119049Y-66131723D01*
X93119049Y-66131723D02*
X93166668Y-66036485D01*
X93166668Y-66036485D02*
X93261906Y-65988866D01*
X93261906Y-65988866D02*
X93500001Y-65988866D01*
X93500001Y-65988866D02*
X93595239Y-65941247D01*
X94500001Y-65703152D02*
X94500001Y-66369819D01*
X94071430Y-65703152D02*
X94071430Y-66226961D01*
X94071430Y-66226961D02*
X94119049Y-66322200D01*
X94119049Y-66322200D02*
X94214287Y-66369819D01*
X94214287Y-66369819D02*
X94357144Y-66369819D01*
X94357144Y-66369819D02*
X94452382Y-66322200D01*
X94452382Y-66322200D02*
X94500001Y-66274580D01*
X95738097Y-66369819D02*
X95738097Y-65369819D01*
X95738097Y-65369819D02*
X96309525Y-66369819D01*
X96309525Y-66369819D02*
X96309525Y-65369819D01*
X96928573Y-66369819D02*
X96833335Y-66322200D01*
X96833335Y-66322200D02*
X96785716Y-66274580D01*
X96785716Y-66274580D02*
X96738097Y-66179342D01*
X96738097Y-66179342D02*
X96738097Y-65893628D01*
X96738097Y-65893628D02*
X96785716Y-65798390D01*
X96785716Y-65798390D02*
X96833335Y-65750771D01*
X96833335Y-65750771D02*
X96928573Y-65703152D01*
X96928573Y-65703152D02*
X97071430Y-65703152D01*
X97071430Y-65703152D02*
X97166668Y-65750771D01*
X97166668Y-65750771D02*
X97214287Y-65798390D01*
X97214287Y-65798390D02*
X97261906Y-65893628D01*
X97261906Y-65893628D02*
X97261906Y-66179342D01*
X97261906Y-66179342D02*
X97214287Y-66274580D01*
X97214287Y-66274580D02*
X97166668Y-66322200D01*
X97166668Y-66322200D02*
X97071430Y-66369819D01*
X97071430Y-66369819D02*
X96928573Y-66369819D01*
X98071430Y-66322200D02*
X97976192Y-66369819D01*
X97976192Y-66369819D02*
X97785716Y-66369819D01*
X97785716Y-66369819D02*
X97690478Y-66322200D01*
X97690478Y-66322200D02*
X97642859Y-66226961D01*
X97642859Y-66226961D02*
X97642859Y-65846009D01*
X97642859Y-65846009D02*
X97690478Y-65750771D01*
X97690478Y-65750771D02*
X97785716Y-65703152D01*
X97785716Y-65703152D02*
X97976192Y-65703152D01*
X97976192Y-65703152D02*
X98071430Y-65750771D01*
X98071430Y-65750771D02*
X98119049Y-65846009D01*
X98119049Y-65846009D02*
X98119049Y-65941247D01*
X98119049Y-65941247D02*
X97642859Y-66036485D01*
X97690478Y-65369819D02*
X97738097Y-65417438D01*
X97738097Y-65417438D02*
X97690478Y-65465057D01*
X97690478Y-65465057D02*
X97642859Y-65417438D01*
X97642859Y-65417438D02*
X97690478Y-65369819D01*
X97690478Y-65369819D02*
X97690478Y-65465057D01*
X98071430Y-65369819D02*
X98119049Y-65417438D01*
X98119049Y-65417438D02*
X98071430Y-65465057D01*
X98071430Y-65465057D02*
X98023811Y-65417438D01*
X98023811Y-65417438D02*
X98071430Y-65369819D01*
X98071430Y-65369819D02*
X98071430Y-65465057D01*
X98690478Y-66369819D02*
X98595240Y-66322200D01*
X98595240Y-66322200D02*
X98547621Y-66226961D01*
X98547621Y-66226961D02*
X98547621Y-65369819D01*
M02*
