M48
; DRILL file {KiCad 8.0.8} date 2025-02-17T12:22:32-0500
; FORMAT={-:-/ absolute / metric / decimal}
; #@! TF.CreationDate,2025-02-17T12:22:32-05:00
; #@! TF.GenerationSoftware,Kicad,Pcbnew,8.0.8
; #@! TF.FileFunction,Plated,1,2,PTH
FMAT,2
METRIC
; #@! TA.AperFunction,Plated,PTH,ComponentDrill
T1C0.750
; #@! TA.AperFunction,Plated,PTH,ComponentDrill
T2C0.762
; #@! TA.AperFunction,Plated,PTH,ComponentDrill
T3C1.000
%
G90
G05
T1
X77.5Y-138.4
X79.5Y-138.4
X81.5Y-138.4
X83.5Y-138.4
X101.0Y-138.5
X103.0Y-138.5
X105.0Y-138.5
X107.0Y-138.5
X123.5Y-138.5
X125.5Y-138.5
X127.5Y-138.5
X129.5Y-138.5
T2
X149.5Y-112.588
X149.5Y-120.208
T3
X76.23Y-86.484
X76.412Y-127.934
X78.77Y-86.484
X78.977Y-102.483
X78.977Y-127.934
X81.31Y-86.484
X81.492Y-127.934
X81.517Y-102.483
X83.85Y-86.484
X84.032Y-127.934
X84.057Y-102.483
X86.39Y-86.484
X86.572Y-127.934
X86.597Y-102.483
X88.93Y-86.484
X89.137Y-127.934
X99.912Y-127.934
X102.477Y-102.483
X102.477Y-127.934
X103.82Y-67.0
X103.82Y-92.4
X104.992Y-127.934
X105.017Y-102.483
X106.36Y-67.0
X106.36Y-92.4
X107.532Y-127.934
X107.557Y-102.483
X108.9Y-67.0
X108.9Y-92.4
X110.072Y-127.934
X110.097Y-102.483
X111.44Y-67.0
X111.44Y-92.4
X112.637Y-127.934
X113.98Y-67.0
X113.98Y-92.4
X116.52Y-67.0
X116.52Y-92.4
X119.06Y-67.0
X119.06Y-92.4
X121.6Y-67.0
X121.6Y-92.4
X122.412Y-127.934
X124.14Y-67.0
X124.14Y-92.4
X124.977Y-102.483
X124.977Y-127.934
X126.68Y-67.0
X126.68Y-92.4
X127.492Y-127.934
X127.517Y-102.483
X129.22Y-67.0
X129.22Y-92.4
X130.032Y-127.934
X130.057Y-102.483
X131.76Y-67.0
X131.76Y-92.4
X132.572Y-127.934
X132.597Y-102.483
X134.3Y-67.0
X134.3Y-92.4
X135.137Y-127.934
X136.84Y-67.0
X136.84Y-92.4
X139.38Y-67.0
X139.38Y-92.4
X141.92Y-67.0
X141.92Y-92.4
X144.46Y-67.0
X144.46Y-92.4
X147.0Y-67.0
X147.0Y-92.4
M30
