ISO-10303-21;
HEADER;
/* Generated by software containing ST-Developer
 * from STEP Tools, Inc. (www.steptools.com) 
 */

FILE_DESCRIPTION(
/* description */ (''),
/* implementation_level */ '2;1');

FILE_NAME(
/* name */ 'BottomRight.step',
/* time_stamp */ '2026-10-08T11:42:07-04:00',
/* author */ (''),
/* organization */ (''),
/* preprocessor_version */ 'ST-DEVELOPER v20.2',
/* originating_system */ 'Autodesk Translation Framework v15.15.0.0',
/* authorisation */ '');

FILE_SCHEMA (('AUTOMOTIVE_DESIGN { 1 0 10303 214 3 1 1 }'));
ENDSEC;

DATA;
#10=MECHANICAL_DESIGN_GEOMETRIC_PRESENTATION_REPRESENTATION('',(#13),#1615);
#11=SHAPE_REPRESENTATION_RELATIONSHIP('SRR','None',#1622,#12);
#12=ADVANCED_BREP_SHAPE_REPRESENTATION('',(#14),#1614);
#13=STYLED_ITEM('',(#1631),#14);
#14=MANIFOLD_SOLID_BREP('Body1',#957);
#15=B_SPLINE_CURVE_WITH_KNOTS('',3,(#1389,#1390,#1391,#1392),
 .UNSPECIFIED.,.F.,.F.,(4,4),(7.5468786102212,7.70768555557997),
 .UNSPECIFIED.);
#16=B_SPLINE_CURVE_WITH_KNOTS('',3,(#1396,#1397,#1398,#1399),
 .UNSPECIFIED.,.F.,.F.,(4,4),(8.33669675460293,8.6508432737491),
 .UNSPECIFIED.);
#17=B_SPLINE_CURVE_WITH_KNOTS('',3,(#1490,#1491,#1492,#1493),
 .UNSPECIFIED.,.F.,.F.,(4,4),(-0.708667221248781,-0.449474262591576),
 .UNSPECIFIED.);
#18=B_SPLINE_CURVE_WITH_KNOTS('',3,(#1497,#1498,#1499,#1500),
 .UNSPECIFIED.,.F.,.F.,(4,4),(0.,0.160818647930045),.UNSPECIFIED.);
#19=(
BOUNDED_SURFACE()
B_SPLINE_SURFACE(2,2,((#1364,#1365,#1366),(#1367,#1368,#1369),(#1370,#1371,
#1372)),.UNSPECIFIED.,.F.,.F.,.F.)
B_SPLINE_SURFACE_WITH_KNOTS((3,3),(3,3),(0.622826585412003,1.5707963267949),
(-3.14159265358979,-1.94339976629375),.UNSPECIFIED.)
GEOMETRIC_REPRESENTATION_ITEM()
RATIONAL_B_SPLINE_SURFACE(((1.,0.825845464225906,1.),(0.889756521002608,
0.734801387135426,0.889756521002608),(1.,0.825845464225906,1.)))
REPRESENTATION_ITEM('')
SURFACE()
);
#20=(
BOUNDED_SURFACE()
B_SPLINE_SURFACE(2,2,((#1378,#1379,#1380),(#1381,#1382,#1383),(#1384,#1385,
#1386)),.UNSPECIFIED.,.F.,.F.,.F.)
B_SPLINE_SURFACE_WITH_KNOTS((3,3),(3,3),(0.622826585412003,1.5707963267949),
(-3.14159265358979,-2.76898921409093),.UNSPECIFIED.)
GEOMETRIC_REPRESENTATION_ITEM()
RATIONAL_B_SPLINE_SURFACE(((1.,0.982695971082328,1.),(0.889756521002609,
0.874360148433493,0.889756521002609),(1.,0.982695971082328,1.)))
REPRESENTATION_ITEM('')
SURFACE()
);
#21=(
BOUNDED_SURFACE()
B_SPLINE_SURFACE(2,2,((#1479,#1480,#1481),(#1482,#1483,#1484),(#1485,#1486,
#1487)),.UNSPECIFIED.,.F.,.F.,.F.)
B_SPLINE_SURFACE_WITH_KNOTS((3,3),(3,3),(-1.5707963267949,-0.787134277997099),
(2.81133961688262,3.14159265358979),.UNSPECIFIED.)
GEOMETRIC_REPRESENTATION_ITEM()
RATIONAL_B_SPLINE_SURFACE(((1.,0.986397566517167,1.),(0.924211375534119,
0.911639851774339,0.924211375534119),(1.,0.986397566517167,1.)))
REPRESENTATION_ITEM('')
SURFACE()
);
#22=(
BOUNDED_SURFACE()
B_SPLINE_SURFACE(2,2,((#1501,#1502,#1503),(#1504,#1505,#1506),(#1507,#1508,
#1509)),.UNSPECIFIED.,.F.,.F.,.F.)
B_SPLINE_SURFACE_WITH_KNOTS((3,3),(3,3),(-1.5707963267949,-0.787134277997099),
(1.90104936350206,3.14159265358979),.UNSPECIFIED.)
GEOMETRIC_REPRESENTATION_ITEM()
RATIONAL_B_SPLINE_SURFACE(((1.,0.813720591314338,1.),(0.924211375534118,
0.752049826999061,0.924211375534118),(1.,0.813720591314338,1.)))
REPRESENTATION_ITEM('')
SURFACE()
);
#23=CYLINDRICAL_SURFACE('',#978,2.);
#24=CYLINDRICAL_SURFACE('',#981,2.);
#25=CYLINDRICAL_SURFACE('',#988,24.);
#26=CYLINDRICAL_SURFACE('',#996,24.);
#27=CYLINDRICAL_SURFACE('',#998,24.);
#28=CYLINDRICAL_SURFACE('',#1006,24.);
#29=CYLINDRICAL_SURFACE('',#1011,24.);
#30=CYLINDRICAL_SURFACE('',#1018,24.);
#31=CYLINDRICAL_SURFACE('',#1022,2.1);
#32=CYLINDRICAL_SURFACE('',#1024,2.1);
#33=FACE_BOUND('',#128,.T.);
#34=FACE_BOUND('',#129,.T.);
#35=FACE_BOUND('',#133,.T.);
#36=FACE_BOUND('',#140,.T.);
#37=FACE_BOUND('',#141,.T.);
#38=FACE_BOUND('',#143,.T.);
#39=FACE_BOUND('',#144,.T.);
#40=FACE_BOUND('',#145,.T.);
#41=FACE_BOUND('',#160,.T.);
#42=FACE_BOUND('',#161,.T.);
#43=FACE_BOUND('',#177,.T.);
#44=FACE_BOUND('',#179,.T.);
#45=CIRCLE('',#976,2.1);
#46=CIRCLE('',#977,2.1);
#47=CIRCLE('',#979,2.);
#48=CIRCLE('',#980,2.);
#49=CIRCLE('',#982,2.);
#50=CIRCLE('',#983,2.);
#51=CIRCLE('',#984,2.);
#52=CIRCLE('',#985,2.);
#53=CIRCLE('',#987,24.);
#54=CIRCLE('',#989,24.);
#55=CIRCLE('',#990,24.);
#56=CIRCLE('',#991,24.);
#57=CIRCLE('',#992,24.);
#58=CIRCLE('',#993,4.50641131038206);
#59=CIRCLE('',#994,24.);
#60=CIRCLE('',#995,24.);
#61=CIRCLE('',#997,24.);
#62=CIRCLE('',#999,24.);
#63=CIRCLE('',#1000,24.);
#64=CIRCLE('',#1001,24.);
#65=CIRCLE('',#1002,24.);
#66=CIRCLE('',#1007,24.);
#67=CIRCLE('',#1008,24.);
#68=CIRCLE('',#1009,24.);
#69=CIRCLE('',#1010,24.);
#70=CIRCLE('',#1012,24.);
#71=CIRCLE('',#1013,24.);
#72=CIRCLE('',#1014,22.);
#73=CIRCLE('',#1015,24.);
#74=CIRCLE('',#1016,22.);
#75=CIRCLE('',#1017,5.05892565390256);
#76=CIRCLE('',#1023,2.1);
#77=CIRCLE('',#1025,2.1);
#78=FACE_OUTER_BOUND('',#123,.T.);
#79=FACE_OUTER_BOUND('',#124,.T.);
#80=FACE_OUTER_BOUND('',#125,.T.);
#81=FACE_OUTER_BOUND('',#126,.T.);
#82=FACE_OUTER_BOUND('',#127,.T.);
#83=FACE_OUTER_BOUND('',#130,.T.);
#84=FACE_OUTER_BOUND('',#131,.T.);
#85=FACE_OUTER_BOUND('',#132,.T.);
#86=FACE_OUTER_BOUND('',#134,.T.);
#87=FACE_OUTER_BOUND('',#135,.T.);
#88=FACE_OUTER_BOUND('',#136,.T.);
#89=FACE_OUTER_BOUND('',#137,.T.);
#90=FACE_OUTER_BOUND('',#138,.T.);
#91=FACE_OUTER_BOUND('',#139,.T.);
#92=FACE_OUTER_BOUND('',#142,.T.);
#93=FACE_OUTER_BOUND('',#146,.T.);
#94=FACE_OUTER_BOUND('',#147,.T.);
#95=FACE_OUTER_BOUND('',#148,.T.);
#96=FACE_OUTER_BOUND('',#149,.T.);
#97=FACE_OUTER_BOUND('',#150,.T.);
#98=FACE_OUTER_BOUND('',#151,.T.);
#99=FACE_OUTER_BOUND('',#152,.T.);
#100=FACE_OUTER_BOUND('',#153,.T.);
#101=FACE_OUTER_BOUND('',#154,.T.);
#102=FACE_OUTER_BOUND('',#155,.T.);
#103=FACE_OUTER_BOUND('',#156,.T.);
#104=FACE_OUTER_BOUND('',#157,.T.);
#105=FACE_OUTER_BOUND('',#158,.T.);
#106=FACE_OUTER_BOUND('',#159,.T.);
#107=FACE_OUTER_BOUND('',#162,.T.);
#108=FACE_OUTER_BOUND('',#163,.T.);
#109=FACE_OUTER_BOUND('',#164,.T.);
#110=FACE_OUTER_BOUND('',#165,.T.);
#111=FACE_OUTER_BOUND('',#166,.T.);
#112=FACE_OUTER_BOUND('',#167,.T.);
#113=FACE_OUTER_BOUND('',#168,.T.);
#114=FACE_OUTER_BOUND('',#169,.T.);
#115=FACE_OUTER_BOUND('',#170,.T.);
#116=FACE_OUTER_BOUND('',#171,.T.);
#117=FACE_OUTER_BOUND('',#172,.T.);
#118=FACE_OUTER_BOUND('',#173,.T.);
#119=FACE_OUTER_BOUND('',#174,.T.);
#120=FACE_OUTER_BOUND('',#175,.T.);
#121=FACE_OUTER_BOUND('',#176,.T.);
#122=FACE_OUTER_BOUND('',#178,.T.);
#123=EDGE_LOOP('',(#607,#608,#609,#610));
#124=EDGE_LOOP('',(#611,#612,#613,#614));
#125=EDGE_LOOP('',(#615,#616,#617,#618));
#126=EDGE_LOOP('',(#619,#620,#621,#622));
#127=EDGE_LOOP('',(#623,#624,#625,#626));
#128=EDGE_LOOP('',(#627));
#129=EDGE_LOOP('',(#628));
#130=EDGE_LOOP('',(#629,#630,#631,#632));
#131=EDGE_LOOP('',(#633,#634,#635,#636,#637,#638,#639,#640));
#132=EDGE_LOOP('',(#641,#642,#643,#644,#645,#646,#647));
#133=EDGE_LOOP('',(#648));
#134=EDGE_LOOP('',(#649,#650,#651,#652));
#135=EDGE_LOOP('',(#653,#654,#655,#656));
#136=EDGE_LOOP('',(#657,#658,#659,#660,#661));
#137=EDGE_LOOP('',(#662,#663,#664,#665));
#138=EDGE_LOOP('',(#666,#667,#668,#669,#670,#671,#672,#673,#674));
#139=EDGE_LOOP('',(#675,#676,#677,#678));
#140=EDGE_LOOP('',(#679));
#141=EDGE_LOOP('',(#680));
#142=EDGE_LOOP('',(#681,#682,#683,#684,#685,#686,#687,#688,#689,#690,#691,
#692));
#143=EDGE_LOOP('',(#693,#694,#695,#696));
#144=EDGE_LOOP('',(#697,#698,#699,#700));
#145=EDGE_LOOP('',(#701,#702,#703,#704));
#146=EDGE_LOOP('',(#705,#706,#707,#708));
#147=EDGE_LOOP('',(#709,#710,#711,#712,#713,#714,#715));
#148=EDGE_LOOP('',(#716,#717,#718,#719));
#149=EDGE_LOOP('',(#720,#721,#722,#723,#724));
#150=EDGE_LOOP('',(#725,#726,#727,#728));
#151=EDGE_LOOP('',(#729,#730,#731,#732));
#152=EDGE_LOOP('',(#733,#734,#735,#736,#737,#738,#739,#740,#741,#742,#743,
#744));
#153=EDGE_LOOP('',(#745,#746,#747,#748));
#154=EDGE_LOOP('',(#749,#750,#751,#752));
#155=EDGE_LOOP('',(#753,#754,#755,#756));
#156=EDGE_LOOP('',(#757,#758,#759,#760));
#157=EDGE_LOOP('',(#761,#762,#763,#764));
#158=EDGE_LOOP('',(#765,#766,#767,#768));
#159=EDGE_LOOP('',(#769,#770,#771,#772));
#160=EDGE_LOOP('',(#773));
#161=EDGE_LOOP('',(#774));
#162=EDGE_LOOP('',(#775,#776,#777,#778));
#163=EDGE_LOOP('',(#779,#780,#781,#782,#783,#784));
#164=EDGE_LOOP('',(#785,#786,#787,#788,#789,#790));
#165=EDGE_LOOP('',(#791,#792,#793,#794,#795,#796));
#166=EDGE_LOOP('',(#797,#798,#799,#800));
#167=EDGE_LOOP('',(#801,#802,#803,#804));
#168=EDGE_LOOP('',(#805,#806,#807,#808));
#169=EDGE_LOOP('',(#809,#810,#811,#812,#813,#814));
#170=EDGE_LOOP('',(#815,#816,#817,#818));
#171=EDGE_LOOP('',(#819,#820,#821,#822));
#172=EDGE_LOOP('',(#823,#824,#825,#826));
#173=EDGE_LOOP('',(#827,#828,#829,#830));
#174=EDGE_LOOP('',(#831,#832,#833,#834,#835,#836));
#175=EDGE_LOOP('',(#837,#838,#839,#840));
#176=EDGE_LOOP('',(#841,#842,#843,#844,#845,#846,#847,#848,#849,#850,#851,
#852,#853,#854,#855,#856,#857,#858,#859,#860,#861,#862));
#177=EDGE_LOOP('',(#863,#864,#865,#866));
#178=EDGE_LOOP('',(#867,#868,#869,#870,#871,#872,#873));
#179=EDGE_LOOP('',(#874,#875,#876,#877,#878,#879,#880));
#180=LINE('',#1299,#280);
#181=LINE('',#1301,#281);
#182=LINE('',#1303,#282);
#183=LINE('',#1304,#283);
#184=LINE('',#1307,#284);
#185=LINE('',#1309,#285);
#186=LINE('',#1310,#286);
#187=LINE('',#1313,#287);
#188=LINE('',#1315,#288);
#189=LINE('',#1316,#289);
#190=LINE('',#1318,#290);
#191=LINE('',#1319,#291);
#192=LINE('',#1329,#292);
#193=LINE('',#1335,#293);
#194=LINE('',#1339,#294);
#195=LINE('',#1343,#295);
#196=LINE('',#1347,#296);
#197=LINE('',#1349,#297);
#198=LINE('',#1351,#298);
#199=LINE('',#1354,#299);
#200=LINE('',#1360,#300);
#201=LINE('',#1363,#301);
#202=LINE('',#1402,#302);
#203=LINE('',#1405,#303);
#204=LINE('',#1410,#304);
#205=LINE('',#1414,#305);
#206=LINE('',#1418,#306);
#207=LINE('',#1421,#307);
#208=LINE('',#1424,#308);
#209=LINE('',#1426,#309);
#210=LINE('',#1427,#310);
#211=LINE('',#1429,#311);
#212=LINE('',#1431,#312);
#213=LINE('',#1433,#313);
#214=LINE('',#1434,#314);
#215=LINE('',#1436,#315);
#216=LINE('',#1438,#316);
#217=LINE('',#1439,#317);
#218=LINE('',#1442,#318);
#219=LINE('',#1444,#319);
#220=LINE('',#1446,#320);
#221=LINE('',#1447,#321);
#222=LINE('',#1450,#322);
#223=LINE('',#1452,#323);
#224=LINE('',#1454,#324);
#225=LINE('',#1455,#325);
#226=LINE('',#1457,#326);
#227=LINE('',#1463,#327);
#228=LINE('',#1469,#328);
#229=LINE('',#1472,#329);
#230=LINE('',#1475,#330);
#231=LINE('',#1478,#331);
#232=LINE('',#1516,#332);
#233=LINE('',#1517,#333);
#234=LINE('',#1519,#334);
#235=LINE('',#1520,#335);
#236=LINE('',#1522,#336);
#237=LINE('',#1523,#337);
#238=LINE('',#1525,#338);
#239=LINE('',#1527,#339);
#240=LINE('',#1528,#340);
#241=LINE('',#1532,#341);
#242=LINE('',#1534,#342);
#243=LINE('',#1536,#343);
#244=LINE('',#1537,#344);
#245=LINE('',#1540,#345);
#246=LINE('',#1542,#346);
#247=LINE('',#1543,#347);
#248=LINE('',#1547,#348);
#249=LINE('',#1551,#349);
#250=LINE('',#1554,#350);
#251=LINE('',#1556,#351);
#252=LINE('',#1557,#352);
#253=LINE('',#1559,#353);
#254=LINE('',#1560,#354);
#255=LINE('',#1564,#355);
#256=LINE('',#1566,#356);
#257=LINE('',#1567,#357);
#258=LINE('',#1569,#358);
#259=LINE('',#1570,#359);
#260=LINE('',#1572,#360);
#261=LINE('',#1574,#361);
#262=LINE('',#1577,#362);
#263=LINE('',#1579,#363);
#264=LINE('',#1580,#364);
#265=LINE('',#1583,#365);
#266=LINE('',#1584,#366);
#267=LINE('',#1587,#367);
#268=LINE('',#1588,#368);
#269=LINE('',#1590,#369);
#270=LINE('',#1591,#370);
#271=LINE('',#1594,#371);
#272=LINE('',#1595,#372);
#273=LINE('',#1598,#373);
#274=LINE('',#1599,#374);
#275=LINE('',#1601,#375);
#276=LINE('',#1604,#376);
#277=LINE('',#1605,#377);
#278=LINE('',#1607,#378);
#279=LINE('',#1608,#379);
#280=VECTOR('',#1049,10.);
#281=VECTOR('',#1050,10.);
#282=VECTOR('',#1051,10.);
#283=VECTOR('',#1052,10.);
#284=VECTOR('',#1055,10.);
#285=VECTOR('',#1056,10.);
#286=VECTOR('',#1057,10.);
#287=VECTOR('',#1060,10.);
#288=VECTOR('',#1061,10.);
#289=VECTOR('',#1062,10.);
#290=VECTOR('',#1065,10.);
#291=VECTOR('',#1066,10.);
#292=VECTOR('',#1077,2.);
#293=VECTOR('',#1084,2.);
#294=VECTOR('',#1087,10.);
#295=VECTOR('',#1090,10.);
#296=VECTOR('',#1095,10.);
#297=VECTOR('',#1096,10.);
#298=VECTOR('',#1097,10.);
#299=VECTOR('',#1100,10.);
#300=VECTOR('',#1105,24.);
#301=VECTOR('',#1108,10.);
#302=VECTOR('',#1121,10.);
#303=VECTOR('',#1124,10.);
#304=VECTOR('',#1129,10.);
#305=VECTOR('',#1132,24.);
#306=VECTOR('',#1135,10.);
#307=VECTOR('',#1138,24.);
#308=VECTOR('',#1141,10.);
#309=VECTOR('',#1142,10.);
#310=VECTOR('',#1143,10.);
#311=VECTOR('',#1146,10.);
#312=VECTOR('',#1147,10.);
#313=VECTOR('',#1148,10.);
#314=VECTOR('',#1149,10.);
#315=VECTOR('',#1150,10.);
#316=VECTOR('',#1151,10.);
#317=VECTOR('',#1152,10.);
#318=VECTOR('',#1153,10.);
#319=VECTOR('',#1154,10.);
#320=VECTOR('',#1155,10.);
#321=VECTOR('',#1156,10.);
#322=VECTOR('',#1157,10.);
#323=VECTOR('',#1158,10.);
#324=VECTOR('',#1159,10.);
#325=VECTOR('',#1160,10.);
#326=VECTOR('',#1163,10.);
#327=VECTOR('',#1168,24.);
#328=VECTOR('',#1173,10.);
#329=VECTOR('',#1176,10.);
#330=VECTOR('',#1179,10.);
#331=VECTOR('',#1182,10.);
#332=VECTOR('',#1195,10.);
#333=VECTOR('',#1196,24.);
#334=VECTOR('',#1199,10.);
#335=VECTOR('',#1200,10.);
#336=VECTOR('',#1201,10.);
#337=VECTOR('',#1202,10.);
#338=VECTOR('',#1203,10.);
#339=VECTOR('',#1204,10.);
#340=VECTOR('',#1205,10.);
#341=VECTOR('',#1208,10.);
#342=VECTOR('',#1209,10.);
#343=VECTOR('',#1210,10.);
#344=VECTOR('',#1211,10.);
#345=VECTOR('',#1214,10.);
#346=VECTOR('',#1215,10.);
#347=VECTOR('',#1216,10.);
#348=VECTOR('',#1221,2.1);
#349=VECTOR('',#1226,2.1);
#350=VECTOR('',#1229,10.);
#351=VECTOR('',#1230,10.);
#352=VECTOR('',#1231,10.);
#353=VECTOR('',#1234,10.);
#354=VECTOR('',#1235,10.);
#355=VECTOR('',#1240,10.);
#356=VECTOR('',#1241,10.);
#357=VECTOR('',#1242,10.);
#358=VECTOR('',#1245,10.);
#359=VECTOR('',#1246,10.);
#360=VECTOR('',#1249,10.);
#361=VECTOR('',#1252,10.);
#362=VECTOR('',#1255,10.);
#363=VECTOR('',#1256,10.);
#364=VECTOR('',#1257,10.);
#365=VECTOR('',#1260,10.);
#366=VECTOR('',#1261,10.);
#367=VECTOR('',#1264,10.);
#368=VECTOR('',#1265,10.);
#369=VECTOR('',#1268,10.);
#370=VECTOR('',#1269,10.);
#371=VECTOR('',#1272,10.);
#372=VECTOR('',#1273,10.);
#373=VECTOR('',#1276,10.);
#374=VECTOR('',#1277,10.);
#375=VECTOR('',#1280,10.);
#376=VECTOR('',#1283,10.);
#377=VECTOR('',#1284,10.);
#378=VECTOR('',#1287,10.);
#379=VECTOR('',#1288,10.);
#380=VERTEX_POINT('',#1297);
#381=VERTEX_POINT('',#1298);
#382=VERTEX_POINT('',#1300);
#383=VERTEX_POINT('',#1302);
#384=VERTEX_POINT('',#1306);
#385=VERTEX_POINT('',#1308);
#386=VERTEX_POINT('',#1312);
#387=VERTEX_POINT('',#1314);
#388=VERTEX_POINT('',#1321);
#389=VERTEX_POINT('',#1323);
#390=VERTEX_POINT('',#1326);
#391=VERTEX_POINT('',#1328);
#392=VERTEX_POINT('',#1332);
#393=VERTEX_POINT('',#1334);
#394=VERTEX_POINT('',#1336);
#395=VERTEX_POINT('',#1338);
#396=VERTEX_POINT('',#1340);
#397=VERTEX_POINT('',#1342);
#398=VERTEX_POINT('',#1346);
#399=VERTEX_POINT('',#1348);
#400=VERTEX_POINT('',#1350);
#401=VERTEX_POINT('',#1352);
#402=VERTEX_POINT('',#1356);
#403=VERTEX_POINT('',#1357);
#404=VERTEX_POINT('',#1359);
#405=VERTEX_POINT('',#1361);
#406=VERTEX_POINT('',#1373);
#407=VERTEX_POINT('',#1374);
#408=VERTEX_POINT('',#1387);
#409=VERTEX_POINT('',#1388);
#410=VERTEX_POINT('',#1393);
#411=VERTEX_POINT('',#1401);
#412=VERTEX_POINT('',#1403);
#413=VERTEX_POINT('',#1407);
#414=VERTEX_POINT('',#1408);
#415=VERTEX_POINT('',#1411);
#416=VERTEX_POINT('',#1413);
#417=VERTEX_POINT('',#1415);
#418=VERTEX_POINT('',#1417);
#419=VERTEX_POINT('',#1419);
#420=VERTEX_POINT('',#1423);
#421=VERTEX_POINT('',#1425);
#422=VERTEX_POINT('',#1430);
#423=VERTEX_POINT('',#1432);
#424=VERTEX_POINT('',#1435);
#425=VERTEX_POINT('',#1437);
#426=VERTEX_POINT('',#1440);
#427=VERTEX_POINT('',#1441);
#428=VERTEX_POINT('',#1443);
#429=VERTEX_POINT('',#1445);
#430=VERTEX_POINT('',#1448);
#431=VERTEX_POINT('',#1449);
#432=VERTEX_POINT('',#1451);
#433=VERTEX_POINT('',#1453);
#434=VERTEX_POINT('',#1459);
#435=VERTEX_POINT('',#1460);
#436=VERTEX_POINT('',#1462);
#437=VERTEX_POINT('',#1464);
#438=VERTEX_POINT('',#1466);
#439=VERTEX_POINT('',#1468);
#440=VERTEX_POINT('',#1470);
#441=VERTEX_POINT('',#1474);
#442=VERTEX_POINT('',#1476);
#443=VERTEX_POINT('',#1488);
#444=VERTEX_POINT('',#1489);
#445=VERTEX_POINT('',#1494);
#446=VERTEX_POINT('',#1510);
#447=VERTEX_POINT('',#1511);
#448=VERTEX_POINT('',#1521);
#449=VERTEX_POINT('',#1524);
#450=VERTEX_POINT('',#1526);
#451=VERTEX_POINT('',#1530);
#452=VERTEX_POINT('',#1531);
#453=VERTEX_POINT('',#1533);
#454=VERTEX_POINT('',#1535);
#455=VERTEX_POINT('',#1539);
#456=VERTEX_POINT('',#1541);
#457=VERTEX_POINT('',#1545);
#458=VERTEX_POINT('',#1549);
#459=VERTEX_POINT('',#1553);
#460=VERTEX_POINT('',#1555);
#461=VERTEX_POINT('',#1563);
#462=VERTEX_POINT('',#1565);
#463=VERTEX_POINT('',#1576);
#464=VERTEX_POINT('',#1578);
#465=VERTEX_POINT('',#1582);
#466=VERTEX_POINT('',#1586);
#467=VERTEX_POINT('',#1593);
#468=VERTEX_POINT('',#1597);
#469=VERTEX_POINT('',#1603);
#470=EDGE_CURVE('',#380,#381,#180,.T.);
#471=EDGE_CURVE('',#380,#382,#181,.T.);
#472=EDGE_CURVE('',#382,#383,#182,.T.);
#473=EDGE_CURVE('',#381,#383,#183,.T.);
#474=EDGE_CURVE('',#384,#380,#184,.T.);
#475=EDGE_CURVE('',#384,#385,#185,.T.);
#476=EDGE_CURVE('',#385,#382,#186,.T.);
#477=EDGE_CURVE('',#386,#384,#187,.T.);
#478=EDGE_CURVE('',#386,#387,#188,.T.);
#479=EDGE_CURVE('',#387,#385,#189,.T.);
#480=EDGE_CURVE('',#381,#386,#190,.T.);
#481=EDGE_CURVE('',#383,#387,#191,.T.);
#482=EDGE_CURVE('',#388,#388,#45,.T.);
#483=EDGE_CURVE('',#389,#389,#46,.T.);
#484=EDGE_CURVE('',#390,#390,#47,.T.);
#485=EDGE_CURVE('',#390,#391,#192,.T.);
#486=EDGE_CURVE('',#391,#391,#48,.T.);
#487=EDGE_CURVE('',#392,#392,#49,.T.);
#488=EDGE_CURVE('',#392,#393,#193,.T.);
#489=EDGE_CURVE('',#394,#393,#50,.T.);
#490=EDGE_CURVE('',#395,#394,#194,.T.);
#491=EDGE_CURVE('',#396,#395,#51,.T.);
#492=EDGE_CURVE('',#397,#396,#195,.T.);
#493=EDGE_CURVE('',#393,#397,#52,.T.);
#494=EDGE_CURVE('',#397,#398,#196,.T.);
#495=EDGE_CURVE('',#398,#399,#197,.T.);
#496=EDGE_CURVE('',#400,#399,#198,.T.);
#497=EDGE_CURVE('',#400,#401,#53,.T.);
#498=EDGE_CURVE('',#401,#394,#199,.T.);
#499=EDGE_CURVE('',#402,#403,#54,.T.);
#500=EDGE_CURVE('',#403,#404,#200,.T.);
#501=EDGE_CURVE('',#404,#405,#55,.T.);
#502=EDGE_CURVE('',#402,#405,#201,.T.);
#503=EDGE_CURVE('',#406,#407,#56,.T.);
#504=EDGE_CURVE('',#405,#407,#57,.T.);
#505=EDGE_CURVE('',#404,#406,#58,.T.);
#506=EDGE_CURVE('',#408,#409,#15,.T.);
#507=EDGE_CURVE('',#409,#410,#59,.T.);
#508=EDGE_CURVE('',#407,#410,#60,.T.);
#509=EDGE_CURVE('',#406,#408,#16,.T.);
#510=EDGE_CURVE('',#409,#411,#202,.T.);
#511=EDGE_CURVE('',#411,#412,#61,.T.);
#512=EDGE_CURVE('',#410,#412,#203,.T.);
#513=EDGE_CURVE('',#413,#414,#62,.T.);
#514=EDGE_CURVE('',#412,#414,#204,.T.);
#515=EDGE_CURVE('',#411,#415,#63,.T.);
#516=EDGE_CURVE('',#415,#416,#205,.T.);
#517=EDGE_CURVE('',#416,#417,#64,.T.);
#518=EDGE_CURVE('',#417,#418,#206,.T.);
#519=EDGE_CURVE('',#418,#419,#65,.T.);
#520=EDGE_CURVE('',#419,#413,#207,.T.);
#521=EDGE_CURVE('',#420,#402,#208,.T.);
#522=EDGE_CURVE('',#421,#420,#209,.T.);
#523=EDGE_CURVE('',#403,#421,#210,.T.);
#524=EDGE_CURVE('',#421,#413,#211,.T.);
#525=EDGE_CURVE('',#422,#419,#212,.T.);
#526=EDGE_CURVE('',#423,#422,#213,.T.);
#527=EDGE_CURVE('',#416,#423,#214,.T.);
#528=EDGE_CURVE('',#424,#415,#215,.T.);
#529=EDGE_CURVE('',#425,#424,#216,.T.);
#530=EDGE_CURVE('',#406,#425,#217,.T.);
#531=EDGE_CURVE('',#426,#427,#218,.T.);
#532=EDGE_CURVE('',#427,#428,#219,.T.);
#533=EDGE_CURVE('',#428,#429,#220,.T.);
#534=EDGE_CURVE('',#426,#429,#221,.T.);
#535=EDGE_CURVE('',#430,#431,#222,.T.);
#536=EDGE_CURVE('',#432,#430,#223,.T.);
#537=EDGE_CURVE('',#433,#432,#224,.T.);
#538=EDGE_CURVE('',#431,#433,#225,.T.);
#539=EDGE_CURVE('',#414,#420,#226,.T.);
#540=EDGE_CURVE('',#434,#435,#66,.T.);
#541=EDGE_CURVE('',#435,#436,#227,.T.);
#542=EDGE_CURVE('',#436,#437,#67,.T.);
#543=EDGE_CURVE('',#437,#438,#68,.T.);
#544=EDGE_CURVE('',#439,#438,#228,.T.);
#545=EDGE_CURVE('',#440,#439,#69,.T.);
#546=EDGE_CURVE('',#434,#440,#229,.F.);
#547=EDGE_CURVE('',#441,#437,#230,.F.);
#548=EDGE_CURVE('',#441,#442,#70,.T.);
#549=EDGE_CURVE('',#438,#442,#231,.T.);
#550=EDGE_CURVE('',#443,#444,#17,.F.);
#551=EDGE_CURVE('',#443,#445,#71,.T.);
#552=EDGE_CURVE('',#442,#445,#72,.T.);
#553=EDGE_CURVE('',#444,#441,#18,.F.);
#554=EDGE_CURVE('',#446,#447,#73,.T.);
#555=EDGE_CURVE('',#445,#447,#74,.T.);
#556=EDGE_CURVE('',#443,#446,#75,.T.);
#557=EDGE_CURVE('',#447,#400,#232,.T.);
#558=EDGE_CURVE('',#446,#401,#233,.T.);
#559=EDGE_CURVE('',#418,#440,#234,.T.);
#560=EDGE_CURVE('',#399,#439,#235,.T.);
#561=EDGE_CURVE('',#398,#448,#236,.T.);
#562=EDGE_CURVE('',#448,#426,#237,.T.);
#563=EDGE_CURVE('',#429,#449,#238,.T.);
#564=EDGE_CURVE('',#449,#450,#239,.T.);
#565=EDGE_CURVE('',#450,#422,#240,.T.);
#566=EDGE_CURVE('',#451,#452,#241,.T.);
#567=EDGE_CURVE('',#451,#453,#242,.T.);
#568=EDGE_CURVE('',#454,#453,#243,.T.);
#569=EDGE_CURVE('',#452,#454,#244,.T.);
#570=EDGE_CURVE('',#455,#451,#245,.T.);
#571=EDGE_CURVE('',#455,#456,#246,.T.);
#572=EDGE_CURVE('',#453,#456,#247,.T.);
#573=EDGE_CURVE('',#457,#457,#76,.T.);
#574=EDGE_CURVE('',#457,#388,#248,.T.);
#575=EDGE_CURVE('',#458,#458,#77,.T.);
#576=EDGE_CURVE('',#458,#389,#249,.T.);
#577=EDGE_CURVE('',#452,#459,#250,.T.);
#578=EDGE_CURVE('',#460,#454,#251,.T.);
#579=EDGE_CURVE('',#459,#460,#252,.T.);
#580=EDGE_CURVE('',#459,#455,#253,.T.);
#581=EDGE_CURVE('',#456,#460,#254,.T.);
#582=EDGE_CURVE('',#424,#461,#255,.T.);
#583=EDGE_CURVE('',#462,#461,#256,.T.);
#584=EDGE_CURVE('',#425,#462,#257,.T.);
#585=EDGE_CURVE('',#443,#462,#258,.T.);
#586=EDGE_CURVE('',#408,#444,#259,.T.);
#587=EDGE_CURVE('',#411,#437,#260,.T.);
#588=EDGE_CURVE('',#461,#436,#261,.T.);
#589=EDGE_CURVE('',#430,#463,#262,.T.);
#590=EDGE_CURVE('',#464,#463,#263,.T.);
#591=EDGE_CURVE('',#432,#464,#264,.T.);
#592=EDGE_CURVE('',#465,#464,#265,.T.);
#593=EDGE_CURVE('',#433,#465,#266,.T.);
#594=EDGE_CURVE('',#466,#465,#267,.T.);
#595=EDGE_CURVE('',#431,#466,#268,.T.);
#596=EDGE_CURVE('',#463,#395,#269,.T.);
#597=EDGE_CURVE('',#396,#466,#270,.T.);
#598=EDGE_CURVE('',#467,#448,#271,.T.);
#599=EDGE_CURVE('',#427,#467,#272,.T.);
#600=EDGE_CURVE('',#468,#467,#273,.T.);
#601=EDGE_CURVE('',#428,#468,#274,.T.);
#602=EDGE_CURVE('',#449,#468,#275,.T.);
#603=EDGE_CURVE('',#469,#450,#276,.T.);
#604=EDGE_CURVE('',#423,#469,#277,.T.);
#605=EDGE_CURVE('',#435,#469,#278,.T.);
#606=EDGE_CURVE('',#417,#434,#279,.T.);
#607=ORIENTED_EDGE('',*,*,#470,.F.);
#608=ORIENTED_EDGE('',*,*,#471,.T.);
#609=ORIENTED_EDGE('',*,*,#472,.T.);
#610=ORIENTED_EDGE('',*,*,#473,.F.);
#611=ORIENTED_EDGE('',*,*,#474,.F.);
#612=ORIENTED_EDGE('',*,*,#475,.T.);
#613=ORIENTED_EDGE('',*,*,#476,.T.);
#614=ORIENTED_EDGE('',*,*,#471,.F.);
#615=ORIENTED_EDGE('',*,*,#477,.F.);
#616=ORIENTED_EDGE('',*,*,#478,.T.);
#617=ORIENTED_EDGE('',*,*,#479,.T.);
#618=ORIENTED_EDGE('',*,*,#475,.F.);
#619=ORIENTED_EDGE('',*,*,#480,.F.);
#620=ORIENTED_EDGE('',*,*,#473,.T.);
#621=ORIENTED_EDGE('',*,*,#481,.T.);
#622=ORIENTED_EDGE('',*,*,#478,.F.);
#623=ORIENTED_EDGE('',*,*,#481,.F.);
#624=ORIENTED_EDGE('',*,*,#472,.F.);
#625=ORIENTED_EDGE('',*,*,#476,.F.);
#626=ORIENTED_EDGE('',*,*,#479,.F.);
#627=ORIENTED_EDGE('',*,*,#482,.F.);
#628=ORIENTED_EDGE('',*,*,#483,.F.);
#629=ORIENTED_EDGE('',*,*,#484,.F.);
#630=ORIENTED_EDGE('',*,*,#485,.T.);
#631=ORIENTED_EDGE('',*,*,#486,.F.);
#632=ORIENTED_EDGE('',*,*,#485,.F.);
#633=ORIENTED_EDGE('',*,*,#487,.F.);
#634=ORIENTED_EDGE('',*,*,#488,.T.);
#635=ORIENTED_EDGE('',*,*,#489,.F.);
#636=ORIENTED_EDGE('',*,*,#490,.F.);
#637=ORIENTED_EDGE('',*,*,#491,.F.);
#638=ORIENTED_EDGE('',*,*,#492,.F.);
#639=ORIENTED_EDGE('',*,*,#493,.F.);
#640=ORIENTED_EDGE('',*,*,#488,.F.);
#641=ORIENTED_EDGE('',*,*,#489,.T.);
#642=ORIENTED_EDGE('',*,*,#493,.T.);
#643=ORIENTED_EDGE('',*,*,#494,.T.);
#644=ORIENTED_EDGE('',*,*,#495,.T.);
#645=ORIENTED_EDGE('',*,*,#496,.F.);
#646=ORIENTED_EDGE('',*,*,#497,.T.);
#647=ORIENTED_EDGE('',*,*,#498,.T.);
#648=ORIENTED_EDGE('',*,*,#486,.T.);
#649=ORIENTED_EDGE('',*,*,#499,.T.);
#650=ORIENTED_EDGE('',*,*,#500,.T.);
#651=ORIENTED_EDGE('',*,*,#501,.T.);
#652=ORIENTED_EDGE('',*,*,#502,.F.);
#653=ORIENTED_EDGE('',*,*,#503,.T.);
#654=ORIENTED_EDGE('',*,*,#504,.F.);
#655=ORIENTED_EDGE('',*,*,#501,.F.);
#656=ORIENTED_EDGE('',*,*,#505,.T.);
#657=ORIENTED_EDGE('',*,*,#506,.T.);
#658=ORIENTED_EDGE('',*,*,#507,.T.);
#659=ORIENTED_EDGE('',*,*,#508,.F.);
#660=ORIENTED_EDGE('',*,*,#503,.F.);
#661=ORIENTED_EDGE('',*,*,#509,.T.);
#662=ORIENTED_EDGE('',*,*,#510,.T.);
#663=ORIENTED_EDGE('',*,*,#511,.T.);
#664=ORIENTED_EDGE('',*,*,#512,.F.);
#665=ORIENTED_EDGE('',*,*,#507,.F.);
#666=ORIENTED_EDGE('',*,*,#513,.T.);
#667=ORIENTED_EDGE('',*,*,#514,.F.);
#668=ORIENTED_EDGE('',*,*,#511,.F.);
#669=ORIENTED_EDGE('',*,*,#515,.T.);
#670=ORIENTED_EDGE('',*,*,#516,.T.);
#671=ORIENTED_EDGE('',*,*,#517,.T.);
#672=ORIENTED_EDGE('',*,*,#518,.T.);
#673=ORIENTED_EDGE('',*,*,#519,.T.);
#674=ORIENTED_EDGE('',*,*,#520,.T.);
#675=ORIENTED_EDGE('',*,*,#499,.F.);
#676=ORIENTED_EDGE('',*,*,#521,.F.);
#677=ORIENTED_EDGE('',*,*,#522,.F.);
#678=ORIENTED_EDGE('',*,*,#523,.F.);
#679=ORIENTED_EDGE('',*,*,#484,.T.);
#680=ORIENTED_EDGE('',*,*,#487,.T.);
#681=ORIENTED_EDGE('',*,*,#505,.F.);
#682=ORIENTED_EDGE('',*,*,#500,.F.);
#683=ORIENTED_EDGE('',*,*,#523,.T.);
#684=ORIENTED_EDGE('',*,*,#524,.T.);
#685=ORIENTED_EDGE('',*,*,#520,.F.);
#686=ORIENTED_EDGE('',*,*,#525,.F.);
#687=ORIENTED_EDGE('',*,*,#526,.F.);
#688=ORIENTED_EDGE('',*,*,#527,.F.);
#689=ORIENTED_EDGE('',*,*,#516,.F.);
#690=ORIENTED_EDGE('',*,*,#528,.F.);
#691=ORIENTED_EDGE('',*,*,#529,.F.);
#692=ORIENTED_EDGE('',*,*,#530,.F.);
#693=ORIENTED_EDGE('',*,*,#470,.T.);
#694=ORIENTED_EDGE('',*,*,#480,.T.);
#695=ORIENTED_EDGE('',*,*,#477,.T.);
#696=ORIENTED_EDGE('',*,*,#474,.T.);
#697=ORIENTED_EDGE('',*,*,#531,.T.);
#698=ORIENTED_EDGE('',*,*,#532,.T.);
#699=ORIENTED_EDGE('',*,*,#533,.T.);
#700=ORIENTED_EDGE('',*,*,#534,.F.);
#701=ORIENTED_EDGE('',*,*,#535,.F.);
#702=ORIENTED_EDGE('',*,*,#536,.F.);
#703=ORIENTED_EDGE('',*,*,#537,.F.);
#704=ORIENTED_EDGE('',*,*,#538,.F.);
#705=ORIENTED_EDGE('',*,*,#513,.F.);
#706=ORIENTED_EDGE('',*,*,#524,.F.);
#707=ORIENTED_EDGE('',*,*,#522,.T.);
#708=ORIENTED_EDGE('',*,*,#539,.F.);
#709=ORIENTED_EDGE('',*,*,#540,.T.);
#710=ORIENTED_EDGE('',*,*,#541,.T.);
#711=ORIENTED_EDGE('',*,*,#542,.T.);
#712=ORIENTED_EDGE('',*,*,#543,.T.);
#713=ORIENTED_EDGE('',*,*,#544,.F.);
#714=ORIENTED_EDGE('',*,*,#545,.F.);
#715=ORIENTED_EDGE('',*,*,#546,.F.);
#716=ORIENTED_EDGE('',*,*,#547,.F.);
#717=ORIENTED_EDGE('',*,*,#548,.T.);
#718=ORIENTED_EDGE('',*,*,#549,.F.);
#719=ORIENTED_EDGE('',*,*,#543,.F.);
#720=ORIENTED_EDGE('',*,*,#550,.F.);
#721=ORIENTED_EDGE('',*,*,#551,.T.);
#722=ORIENTED_EDGE('',*,*,#552,.F.);
#723=ORIENTED_EDGE('',*,*,#548,.F.);
#724=ORIENTED_EDGE('',*,*,#553,.F.);
#725=ORIENTED_EDGE('',*,*,#554,.T.);
#726=ORIENTED_EDGE('',*,*,#555,.F.);
#727=ORIENTED_EDGE('',*,*,#551,.F.);
#728=ORIENTED_EDGE('',*,*,#556,.T.);
#729=ORIENTED_EDGE('',*,*,#497,.F.);
#730=ORIENTED_EDGE('',*,*,#557,.F.);
#731=ORIENTED_EDGE('',*,*,#554,.F.);
#732=ORIENTED_EDGE('',*,*,#558,.T.);
#733=ORIENTED_EDGE('',*,*,#519,.F.);
#734=ORIENTED_EDGE('',*,*,#559,.T.);
#735=ORIENTED_EDGE('',*,*,#545,.T.);
#736=ORIENTED_EDGE('',*,*,#560,.F.);
#737=ORIENTED_EDGE('',*,*,#495,.F.);
#738=ORIENTED_EDGE('',*,*,#561,.T.);
#739=ORIENTED_EDGE('',*,*,#562,.T.);
#740=ORIENTED_EDGE('',*,*,#534,.T.);
#741=ORIENTED_EDGE('',*,*,#563,.T.);
#742=ORIENTED_EDGE('',*,*,#564,.T.);
#743=ORIENTED_EDGE('',*,*,#565,.T.);
#744=ORIENTED_EDGE('',*,*,#525,.T.);
#745=ORIENTED_EDGE('',*,*,#566,.F.);
#746=ORIENTED_EDGE('',*,*,#567,.T.);
#747=ORIENTED_EDGE('',*,*,#568,.F.);
#748=ORIENTED_EDGE('',*,*,#569,.F.);
#749=ORIENTED_EDGE('',*,*,#570,.F.);
#750=ORIENTED_EDGE('',*,*,#571,.T.);
#751=ORIENTED_EDGE('',*,*,#572,.F.);
#752=ORIENTED_EDGE('',*,*,#567,.F.);
#753=ORIENTED_EDGE('',*,*,#573,.F.);
#754=ORIENTED_EDGE('',*,*,#574,.T.);
#755=ORIENTED_EDGE('',*,*,#482,.T.);
#756=ORIENTED_EDGE('',*,*,#574,.F.);
#757=ORIENTED_EDGE('',*,*,#575,.F.);
#758=ORIENTED_EDGE('',*,*,#576,.T.);
#759=ORIENTED_EDGE('',*,*,#483,.T.);
#760=ORIENTED_EDGE('',*,*,#576,.F.);
#761=ORIENTED_EDGE('',*,*,#577,.F.);
#762=ORIENTED_EDGE('',*,*,#569,.T.);
#763=ORIENTED_EDGE('',*,*,#578,.F.);
#764=ORIENTED_EDGE('',*,*,#579,.F.);
#765=ORIENTED_EDGE('',*,*,#580,.F.);
#766=ORIENTED_EDGE('',*,*,#579,.T.);
#767=ORIENTED_EDGE('',*,*,#581,.F.);
#768=ORIENTED_EDGE('',*,*,#571,.F.);
#769=ORIENTED_EDGE('',*,*,#572,.T.);
#770=ORIENTED_EDGE('',*,*,#581,.T.);
#771=ORIENTED_EDGE('',*,*,#578,.T.);
#772=ORIENTED_EDGE('',*,*,#568,.T.);
#773=ORIENTED_EDGE('',*,*,#575,.T.);
#774=ORIENTED_EDGE('',*,*,#573,.T.);
#775=ORIENTED_EDGE('',*,*,#529,.T.);
#776=ORIENTED_EDGE('',*,*,#582,.T.);
#777=ORIENTED_EDGE('',*,*,#583,.F.);
#778=ORIENTED_EDGE('',*,*,#584,.F.);
#779=ORIENTED_EDGE('',*,*,#509,.F.);
#780=ORIENTED_EDGE('',*,*,#530,.T.);
#781=ORIENTED_EDGE('',*,*,#584,.T.);
#782=ORIENTED_EDGE('',*,*,#585,.F.);
#783=ORIENTED_EDGE('',*,*,#550,.T.);
#784=ORIENTED_EDGE('',*,*,#586,.F.);
#785=ORIENTED_EDGE('',*,*,#506,.F.);
#786=ORIENTED_EDGE('',*,*,#586,.T.);
#787=ORIENTED_EDGE('',*,*,#553,.T.);
#788=ORIENTED_EDGE('',*,*,#547,.T.);
#789=ORIENTED_EDGE('',*,*,#587,.F.);
#790=ORIENTED_EDGE('',*,*,#510,.F.);
#791=ORIENTED_EDGE('',*,*,#515,.F.);
#792=ORIENTED_EDGE('',*,*,#587,.T.);
#793=ORIENTED_EDGE('',*,*,#542,.F.);
#794=ORIENTED_EDGE('',*,*,#588,.F.);
#795=ORIENTED_EDGE('',*,*,#582,.F.);
#796=ORIENTED_EDGE('',*,*,#528,.T.);
#797=ORIENTED_EDGE('',*,*,#536,.T.);
#798=ORIENTED_EDGE('',*,*,#589,.T.);
#799=ORIENTED_EDGE('',*,*,#590,.F.);
#800=ORIENTED_EDGE('',*,*,#591,.F.);
#801=ORIENTED_EDGE('',*,*,#537,.T.);
#802=ORIENTED_EDGE('',*,*,#591,.T.);
#803=ORIENTED_EDGE('',*,*,#592,.F.);
#804=ORIENTED_EDGE('',*,*,#593,.F.);
#805=ORIENTED_EDGE('',*,*,#538,.T.);
#806=ORIENTED_EDGE('',*,*,#593,.T.);
#807=ORIENTED_EDGE('',*,*,#594,.F.);
#808=ORIENTED_EDGE('',*,*,#595,.F.);
#809=ORIENTED_EDGE('',*,*,#491,.T.);
#810=ORIENTED_EDGE('',*,*,#596,.F.);
#811=ORIENTED_EDGE('',*,*,#589,.F.);
#812=ORIENTED_EDGE('',*,*,#535,.T.);
#813=ORIENTED_EDGE('',*,*,#595,.T.);
#814=ORIENTED_EDGE('',*,*,#597,.F.);
#815=ORIENTED_EDGE('',*,*,#531,.F.);
#816=ORIENTED_EDGE('',*,*,#562,.F.);
#817=ORIENTED_EDGE('',*,*,#598,.F.);
#818=ORIENTED_EDGE('',*,*,#599,.F.);
#819=ORIENTED_EDGE('',*,*,#532,.F.);
#820=ORIENTED_EDGE('',*,*,#599,.T.);
#821=ORIENTED_EDGE('',*,*,#600,.F.);
#822=ORIENTED_EDGE('',*,*,#601,.F.);
#823=ORIENTED_EDGE('',*,*,#533,.F.);
#824=ORIENTED_EDGE('',*,*,#601,.T.);
#825=ORIENTED_EDGE('',*,*,#602,.F.);
#826=ORIENTED_EDGE('',*,*,#563,.F.);
#827=ORIENTED_EDGE('',*,*,#526,.T.);
#828=ORIENTED_EDGE('',*,*,#565,.F.);
#829=ORIENTED_EDGE('',*,*,#603,.F.);
#830=ORIENTED_EDGE('',*,*,#604,.F.);
#831=ORIENTED_EDGE('',*,*,#517,.F.);
#832=ORIENTED_EDGE('',*,*,#527,.T.);
#833=ORIENTED_EDGE('',*,*,#604,.T.);
#834=ORIENTED_EDGE('',*,*,#605,.F.);
#835=ORIENTED_EDGE('',*,*,#540,.F.);
#836=ORIENTED_EDGE('',*,*,#606,.F.);
#837=ORIENTED_EDGE('',*,*,#518,.F.);
#838=ORIENTED_EDGE('',*,*,#606,.T.);
#839=ORIENTED_EDGE('',*,*,#546,.T.);
#840=ORIENTED_EDGE('',*,*,#559,.F.);
#841=ORIENTED_EDGE('',*,*,#490,.T.);
#842=ORIENTED_EDGE('',*,*,#498,.F.);
#843=ORIENTED_EDGE('',*,*,#558,.F.);
#844=ORIENTED_EDGE('',*,*,#556,.F.);
#845=ORIENTED_EDGE('',*,*,#585,.T.);
#846=ORIENTED_EDGE('',*,*,#583,.T.);
#847=ORIENTED_EDGE('',*,*,#588,.T.);
#848=ORIENTED_EDGE('',*,*,#541,.F.);
#849=ORIENTED_EDGE('',*,*,#605,.T.);
#850=ORIENTED_EDGE('',*,*,#603,.T.);
#851=ORIENTED_EDGE('',*,*,#564,.F.);
#852=ORIENTED_EDGE('',*,*,#602,.T.);
#853=ORIENTED_EDGE('',*,*,#600,.T.);
#854=ORIENTED_EDGE('',*,*,#598,.T.);
#855=ORIENTED_EDGE('',*,*,#561,.F.);
#856=ORIENTED_EDGE('',*,*,#494,.F.);
#857=ORIENTED_EDGE('',*,*,#492,.T.);
#858=ORIENTED_EDGE('',*,*,#597,.T.);
#859=ORIENTED_EDGE('',*,*,#594,.T.);
#860=ORIENTED_EDGE('',*,*,#592,.T.);
#861=ORIENTED_EDGE('',*,*,#590,.T.);
#862=ORIENTED_EDGE('',*,*,#596,.T.);
#863=ORIENTED_EDGE('',*,*,#570,.T.);
#864=ORIENTED_EDGE('',*,*,#566,.T.);
#865=ORIENTED_EDGE('',*,*,#577,.T.);
#866=ORIENTED_EDGE('',*,*,#580,.T.);
#867=ORIENTED_EDGE('',*,*,#502,.T.);
#868=ORIENTED_EDGE('',*,*,#504,.T.);
#869=ORIENTED_EDGE('',*,*,#508,.T.);
#870=ORIENTED_EDGE('',*,*,#512,.T.);
#871=ORIENTED_EDGE('',*,*,#514,.T.);
#872=ORIENTED_EDGE('',*,*,#539,.T.);
#873=ORIENTED_EDGE('',*,*,#521,.T.);
#874=ORIENTED_EDGE('',*,*,#560,.T.);
#875=ORIENTED_EDGE('',*,*,#544,.T.);
#876=ORIENTED_EDGE('',*,*,#549,.T.);
#877=ORIENTED_EDGE('',*,*,#552,.T.);
#878=ORIENTED_EDGE('',*,*,#555,.T.);
#879=ORIENTED_EDGE('',*,*,#557,.T.);
#880=ORIENTED_EDGE('',*,*,#496,.T.);
#881=PLANE('',#971);
#882=PLANE('',#972);
#883=PLANE('',#973);
#884=PLANE('',#974);
#885=PLANE('',#975);
#886=PLANE('',#986);
#887=PLANE('',#1003);
#888=PLANE('',#1004);
#889=PLANE('',#1005);
#890=PLANE('',#1019);
#891=PLANE('',#1020);
#892=PLANE('',#1021);
#893=PLANE('',#1026);
#894=PLANE('',#1027);
#895=PLANE('',#1028);
#896=PLANE('',#1029);
#897=PLANE('',#1030);
#898=PLANE('',#1031);
#899=PLANE('',#1032);
#900=PLANE('',#1033);
#901=PLANE('',#1034);
#902=PLANE('',#1035);
#903=PLANE('',#1036);
#904=PLANE('',#1037);
#905=PLANE('',#1038);
#906=PLANE('',#1039);
#907=PLANE('',#1040);
#908=PLANE('',#1041);
#909=PLANE('',#1042);
#910=PLANE('',#1043);
#911=PLANE('',#1044);
#912=ADVANCED_FACE('',(#78),#881,.F.);
#913=ADVANCED_FACE('',(#79),#882,.F.);
#914=ADVANCED_FACE('',(#80),#883,.F.);
#915=ADVANCED_FACE('',(#81),#884,.F.);
#916=ADVANCED_FACE('',(#82,#33,#34),#885,.F.);
#917=ADVANCED_FACE('',(#83),#23,.F.);
#918=ADVANCED_FACE('',(#84),#24,.F.);
#919=ADVANCED_FACE('',(#85,#35),#886,.T.);
#920=ADVANCED_FACE('',(#86),#25,.T.);
#921=ADVANCED_FACE('',(#87),#19,.T.);
#922=ADVANCED_FACE('',(#88),#20,.T.);
#923=ADVANCED_FACE('',(#89),#26,.T.);
#924=ADVANCED_FACE('',(#90),#27,.T.);
#925=ADVANCED_FACE('',(#91,#36,#37),#887,.T.);
#926=ADVANCED_FACE('',(#92,#38,#39,#40),#888,.F.);
#927=ADVANCED_FACE('',(#93),#889,.T.);
#928=ADVANCED_FACE('',(#94),#28,.F.);
#929=ADVANCED_FACE('',(#95),#29,.F.);
#930=ADVANCED_FACE('',(#96),#21,.T.);
#931=ADVANCED_FACE('',(#97),#22,.T.);
#932=ADVANCED_FACE('',(#98),#30,.F.);
#933=ADVANCED_FACE('',(#99),#890,.T.);
#934=ADVANCED_FACE('',(#100),#891,.T.);
#935=ADVANCED_FACE('',(#101),#892,.T.);
#936=ADVANCED_FACE('',(#102),#31,.F.);
#937=ADVANCED_FACE('',(#103),#32,.F.);
#938=ADVANCED_FACE('',(#104),#893,.T.);
#939=ADVANCED_FACE('',(#105),#894,.T.);
#940=ADVANCED_FACE('',(#106,#41,#42),#895,.T.);
#941=ADVANCED_FACE('',(#107),#896,.T.);
#942=ADVANCED_FACE('',(#108),#897,.T.);
#943=ADVANCED_FACE('',(#109),#898,.T.);
#944=ADVANCED_FACE('',(#110),#899,.T.);
#945=ADVANCED_FACE('',(#111),#900,.T.);
#946=ADVANCED_FACE('',(#112),#901,.T.);
#947=ADVANCED_FACE('',(#113),#902,.T.);
#948=ADVANCED_FACE('',(#114),#903,.T.);
#949=ADVANCED_FACE('',(#115),#904,.T.);
#950=ADVANCED_FACE('',(#116),#905,.T.);
#951=ADVANCED_FACE('',(#117),#906,.T.);
#952=ADVANCED_FACE('',(#118),#907,.T.);
#953=ADVANCED_FACE('',(#119),#908,.T.);
#954=ADVANCED_FACE('',(#120),#909,.T.);
#955=ADVANCED_FACE('',(#121,#43),#910,.T.);
#956=ADVANCED_FACE('',(#122,#44),#911,.T.);
#957=CLOSED_SHELL('',(#912,#913,#914,#915,#916,#917,#918,#919,#920,#921,
#922,#923,#924,#925,#926,#927,#928,#929,#930,#931,#932,#933,#934,#935,#936,
#937,#938,#939,#940,#941,#942,#943,#944,#945,#946,#947,#948,#949,#950,#951,
#952,#953,#954,#955,#956));
#958=DERIVED_UNIT_ELEMENT(#960,1.);
#959=DERIVED_UNIT_ELEMENT(#1617,-3.);
#960=(
MASS_UNIT()
NAMED_UNIT(*)
SI_UNIT(.KILO.,.GRAM.)
);
#961=DERIVED_UNIT((#958,#959));
#962=MEASURE_REPRESENTATION_ITEM('density measure',
POSITIVE_RATIO_MEASURE(7850.),#961);
#963=PROPERTY_DEFINITION_REPRESENTATION(#968,#965);
#964=PROPERTY_DEFINITION_REPRESENTATION(#969,#966);
#965=REPRESENTATION('material name',(#967),#1614);
#966=REPRESENTATION('density',(#962),#1614);
#967=DESCRIPTIVE_REPRESENTATION_ITEM('Steel','Steel');
#968=PROPERTY_DEFINITION('material property','material name',#1624);
#969=PROPERTY_DEFINITION('material property','density of part',#1624);
#970=AXIS2_PLACEMENT_3D('',#1295,#1045,#1046);
#971=AXIS2_PLACEMENT_3D('',#1296,#1047,#1048);
#972=AXIS2_PLACEMENT_3D('',#1305,#1053,#1054);
#973=AXIS2_PLACEMENT_3D('',#1311,#1058,#1059);
#974=AXIS2_PLACEMENT_3D('',#1317,#1063,#1064);
#975=AXIS2_PLACEMENT_3D('',#1320,#1067,#1068);
#976=AXIS2_PLACEMENT_3D('',#1322,#1069,#1070);
#977=AXIS2_PLACEMENT_3D('',#1324,#1071,#1072);
#978=AXIS2_PLACEMENT_3D('',#1325,#1073,#1074);
#979=AXIS2_PLACEMENT_3D('',#1327,#1075,#1076);
#980=AXIS2_PLACEMENT_3D('',#1330,#1078,#1079);
#981=AXIS2_PLACEMENT_3D('',#1331,#1080,#1081);
#982=AXIS2_PLACEMENT_3D('',#1333,#1082,#1083);
#983=AXIS2_PLACEMENT_3D('',#1337,#1085,#1086);
#984=AXIS2_PLACEMENT_3D('',#1341,#1088,#1089);
#985=AXIS2_PLACEMENT_3D('',#1344,#1091,#1092);
#986=AXIS2_PLACEMENT_3D('',#1345,#1093,#1094);
#987=AXIS2_PLACEMENT_3D('',#1353,#1098,#1099);
#988=AXIS2_PLACEMENT_3D('',#1355,#1101,#1102);
#989=AXIS2_PLACEMENT_3D('',#1358,#1103,#1104);
#990=AXIS2_PLACEMENT_3D('',#1362,#1106,#1107);
#991=AXIS2_PLACEMENT_3D('',#1375,#1109,#1110);
#992=AXIS2_PLACEMENT_3D('',#1376,#1111,#1112);
#993=AXIS2_PLACEMENT_3D('',#1377,#1113,#1114);
#994=AXIS2_PLACEMENT_3D('',#1394,#1115,#1116);
#995=AXIS2_PLACEMENT_3D('',#1395,#1117,#1118);
#996=AXIS2_PLACEMENT_3D('',#1400,#1119,#1120);
#997=AXIS2_PLACEMENT_3D('',#1404,#1122,#1123);
#998=AXIS2_PLACEMENT_3D('',#1406,#1125,#1126);
#999=AXIS2_PLACEMENT_3D('',#1409,#1127,#1128);
#1000=AXIS2_PLACEMENT_3D('',#1412,#1130,#1131);
#1001=AXIS2_PLACEMENT_3D('',#1416,#1133,#1134);
#1002=AXIS2_PLACEMENT_3D('',#1420,#1136,#1137);
#1003=AXIS2_PLACEMENT_3D('',#1422,#1139,#1140);
#1004=AXIS2_PLACEMENT_3D('',#1428,#1144,#1145);
#1005=AXIS2_PLACEMENT_3D('',#1456,#1161,#1162);
#1006=AXIS2_PLACEMENT_3D('',#1458,#1164,#1165);
#1007=AXIS2_PLACEMENT_3D('',#1461,#1166,#1167);
#1008=AXIS2_PLACEMENT_3D('',#1465,#1169,#1170);
#1009=AXIS2_PLACEMENT_3D('',#1467,#1171,#1172);
#1010=AXIS2_PLACEMENT_3D('',#1471,#1174,#1175);
#1011=AXIS2_PLACEMENT_3D('',#1473,#1177,#1178);
#1012=AXIS2_PLACEMENT_3D('',#1477,#1180,#1181);
#1013=AXIS2_PLACEMENT_3D('',#1495,#1183,#1184);
#1014=AXIS2_PLACEMENT_3D('',#1496,#1185,#1186);
#1015=AXIS2_PLACEMENT_3D('',#1512,#1187,#1188);
#1016=AXIS2_PLACEMENT_3D('',#1513,#1189,#1190);
#1017=AXIS2_PLACEMENT_3D('',#1514,#1191,#1192);
#1018=AXIS2_PLACEMENT_3D('',#1515,#1193,#1194);
#1019=AXIS2_PLACEMENT_3D('',#1518,#1197,#1198);
#1020=AXIS2_PLACEMENT_3D('',#1529,#1206,#1207);
#1021=AXIS2_PLACEMENT_3D('',#1538,#1212,#1213);
#1022=AXIS2_PLACEMENT_3D('',#1544,#1217,#1218);
#1023=AXIS2_PLACEMENT_3D('',#1546,#1219,#1220);
#1024=AXIS2_PLACEMENT_3D('',#1548,#1222,#1223);
#1025=AXIS2_PLACEMENT_3D('',#1550,#1224,#1225);
#1026=AXIS2_PLACEMENT_3D('',#1552,#1227,#1228);
#1027=AXIS2_PLACEMENT_3D('',#1558,#1232,#1233);
#1028=AXIS2_PLACEMENT_3D('',#1561,#1236,#1237);
#1029=AXIS2_PLACEMENT_3D('',#1562,#1238,#1239);
#1030=AXIS2_PLACEMENT_3D('',#1568,#1243,#1244);
#1031=AXIS2_PLACEMENT_3D('',#1571,#1247,#1248);
#1032=AXIS2_PLACEMENT_3D('',#1573,#1250,#1251);
#1033=AXIS2_PLACEMENT_3D('',#1575,#1253,#1254);
#1034=AXIS2_PLACEMENT_3D('',#1581,#1258,#1259);
#1035=AXIS2_PLACEMENT_3D('',#1585,#1262,#1263);
#1036=AXIS2_PLACEMENT_3D('',#1589,#1266,#1267);
#1037=AXIS2_PLACEMENT_3D('',#1592,#1270,#1271);
#1038=AXIS2_PLACEMENT_3D('',#1596,#1274,#1275);
#1039=AXIS2_PLACEMENT_3D('',#1600,#1278,#1279);
#1040=AXIS2_PLACEMENT_3D('',#1602,#1281,#1282);
#1041=AXIS2_PLACEMENT_3D('',#1606,#1285,#1286);
#1042=AXIS2_PLACEMENT_3D('',#1609,#1289,#1290);
#1043=AXIS2_PLACEMENT_3D('',#1610,#1291,#1292);
#1044=AXIS2_PLACEMENT_3D('',#1611,#1293,#1294);
#1045=DIRECTION('axis',(0.,0.,1.));
#1046=DIRECTION('refdir',(1.,0.,0.));
#1047=DIRECTION('center_axis',(-1.,0.,0.));
#1048=DIRECTION('ref_axis',(0.,-1.,0.));
#1049=DIRECTION('',(0.,-1.,0.));
#1050=DIRECTION('',(0.,0.,1.));
#1051=DIRECTION('',(0.,-1.,0.));
#1052=DIRECTION('',(0.,0.,1.));
#1053=DIRECTION('center_axis',(0.,1.,0.));
#1054=DIRECTION('ref_axis',(-1.,0.,0.));
#1055=DIRECTION('',(-1.,0.,0.));
#1056=DIRECTION('',(0.,0.,1.));
#1057=DIRECTION('',(-1.,0.,0.));
#1058=DIRECTION('center_axis',(1.,0.,0.));
#1059=DIRECTION('ref_axis',(0.,1.,0.));
#1060=DIRECTION('',(0.,1.,0.));
#1061=DIRECTION('',(0.,0.,1.));
#1062=DIRECTION('',(0.,1.,0.));
#1063=DIRECTION('center_axis',(0.,-1.,0.));
#1064=DIRECTION('ref_axis',(1.,0.,0.));
#1065=DIRECTION('',(1.,0.,0.));
#1066=DIRECTION('',(1.,0.,0.));
#1067=DIRECTION('center_axis',(0.,0.,1.));
#1068=DIRECTION('ref_axis',(1.,0.,0.));
#1069=DIRECTION('center_axis',(0.,0.,-1.));
#1070=DIRECTION('ref_axis',(1.,0.,0.));
#1071=DIRECTION('center_axis',(0.,0.,-1.));
#1072=DIRECTION('ref_axis',(1.,0.,0.));
#1073=DIRECTION('center_axis',(0.,1.,0.));
#1074=DIRECTION('ref_axis',(1.,0.,0.));
#1075=DIRECTION('center_axis',(0.,1.,0.));
#1076=DIRECTION('ref_axis',(1.,0.,0.));
#1077=DIRECTION('',(0.,1.,0.));
#1078=DIRECTION('center_axis',(0.,-1.,0.));
#1079=DIRECTION('ref_axis',(1.,0.,0.));
#1080=DIRECTION('center_axis',(0.,1.,0.));
#1081=DIRECTION('ref_axis',(1.,0.,0.));
#1082=DIRECTION('center_axis',(0.,1.,0.));
#1083=DIRECTION('ref_axis',(1.,0.,0.));
#1084=DIRECTION('',(0.,1.,0.));
#1085=DIRECTION('center_axis',(0.,-1.,0.));
#1086=DIRECTION('ref_axis',(1.,0.,0.));
#1087=DIRECTION('',(0.,-1.,0.));
#1088=DIRECTION('center_axis',(0.,-1.,0.));
#1089=DIRECTION('ref_axis',(1.,0.,0.));
#1090=DIRECTION('',(0.,1.,0.));
#1091=DIRECTION('center_axis',(0.,-1.,0.));
#1092=DIRECTION('ref_axis',(1.,0.,0.));
#1093=DIRECTION('center_axis',(0.,1.,0.));
#1094=DIRECTION('ref_axis',(-1.,0.,0.));
#1095=DIRECTION('',(-1.,0.,0.));
#1096=DIRECTION('',(0.,0.,1.));
#1097=DIRECTION('',(-1.,0.,0.));
#1098=DIRECTION('center_axis',(0.,1.,0.));
#1099=DIRECTION('ref_axis',(0.705878097754059,0.,-0.708333333333333));
#1100=DIRECTION('',(-1.,0.,0.));
#1101=DIRECTION('center_axis',(6.48305415839507E-17,1.,0.));
#1102=DIRECTION('ref_axis',(0.812232862067414,0.,-0.583333333333333));
#1103=DIRECTION('center_axis',(0.,1.,0.));
#1104=DIRECTION('ref_axis',(0.812232862067414,0.,-0.583333333333333));
#1105=DIRECTION('',(6.48305415839507E-17,1.,0.));
#1106=DIRECTION('center_axis',(0.,-1.,0.));
#1107=DIRECTION('ref_axis',(0.,0.,-1.));
#1108=DIRECTION('',(6.48305415839507E-17,1.,0.));
#1109=DIRECTION('center_axis',(0.93138274316288,-0.36404146156501,-1.34722404182556E-16));
#1110=DIRECTION('ref_axis',(0.,3.70074341541719E-16,-1.));
#1111=DIRECTION('center_axis',(0.,0.,1.));
#1112=DIRECTION('ref_axis',(1.,-7.40148683083438E-16,0.));
#1113=DIRECTION('center_axis',(0.,0.,1.));
#1114=DIRECTION('ref_axis',(-1.,5.91276533715799E-15,0.));
#1115=DIRECTION('center_axis',(1.,9.11251831401531E-16,0.));
#1116=DIRECTION('ref_axis',(0.,0.,-1.));
#1117=DIRECTION('center_axis',(0.,0.,1.));
#1118=DIRECTION('ref_axis',(1.,-7.40148683083438E-16,0.));
#1119=DIRECTION('center_axis',(-1.,0.,0.));
#1120=DIRECTION('ref_axis',(0.,0.812232862067414,-0.583333333333333));
#1121=DIRECTION('',(-1.,0.,0.));
#1122=DIRECTION('center_axis',(1.,4.12910986103818E-16,-6.93889390390723E-16));
#1123=DIRECTION('ref_axis',(-6.93889390390723E-16,0.,-1.));
#1124=DIRECTION('',(-1.,0.,0.));
#1125=DIRECTION('center_axis',(-1.,0.,0.));
#1126=DIRECTION('ref_axis',(0.,0.812232862067414,-0.583333333333333));
#1127=DIRECTION('center_axis',(1.,0.,0.));
#1128=DIRECTION('ref_axis',(0.,0.812232862067414,-0.583333333333333));
#1129=DIRECTION('',(-1.,0.,0.));
#1130=DIRECTION('center_axis',(-1.,-3.10209374527617E-16,0.));
#1131=DIRECTION('ref_axis',(0.,0.812232862067414,-0.583333333333333));
#1132=DIRECTION('',(-1.,0.,0.));
#1133=DIRECTION('center_axis',(1.,0.,0.));
#1134=DIRECTION('ref_axis',(0.,0.812232862067414,-0.583333333333333));
#1135=DIRECTION('',(-1.,0.,0.));
#1136=DIRECTION('center_axis',(-1.,0.,0.));
#1137=DIRECTION('ref_axis',(0.,0.812232862067414,-0.583333333333333));
#1138=DIRECTION('',(-1.,0.,0.));
#1139=DIRECTION('center_axis',(0.,-1.,0.));
#1140=DIRECTION('ref_axis',(1.,0.,0.));
#1141=DIRECTION('',(1.,0.,0.));
#1142=DIRECTION('',(0.,0.,1.));
#1143=DIRECTION('',(-1.,0.,0.));
#1144=DIRECTION('center_axis',(0.,0.,1.));
#1145=DIRECTION('ref_axis',(1.,0.,0.));
#1146=DIRECTION('',(0.,1.,0.));
#1147=DIRECTION('',(0.,1.,0.));
#1148=DIRECTION('',(-1.,0.,0.));
#1149=DIRECTION('',(0.,-1.,0.));
#1150=DIRECTION('',(-3.10209374527617E-16,1.,0.));
#1151=DIRECTION('',(-1.,-7.40148683083438E-17,0.));
#1152=DIRECTION('',(2.61228946970625E-16,-1.,0.));
#1153=DIRECTION('',(1.,0.,0.));
#1154=DIRECTION('',(0.,1.,0.));
#1155=DIRECTION('',(-1.,0.,0.));
#1156=DIRECTION('',(0.,1.,0.));
#1157=DIRECTION('',(-1.,0.,0.));
#1158=DIRECTION('',(3.1720657846433E-16,-1.,0.));
#1159=DIRECTION('',(1.,2.77555756156289E-16,0.));
#1160=DIRECTION('',(-2.24687993078901E-16,1.,0.));
#1161=DIRECTION('center_axis',(-1.,0.,0.));
#1162=DIRECTION('ref_axis',(0.,-1.,0.));
#1163=DIRECTION('',(0.,-1.,0.));
#1164=DIRECTION('center_axis',(-1.,1.34981522750779E-16,0.));
#1165=DIRECTION('ref_axis',(0.,0.705878097754059,-0.708333333333333));
#1166=DIRECTION('center_axis',(-1.,0.,0.));
#1167=DIRECTION('ref_axis',(0.,0.705878097754059,-0.708333333333333));
#1168=DIRECTION('',(1.,-1.34981522750779E-16,0.));
#1169=DIRECTION('center_axis',(1.,2.32100975330797E-17,2.31296463463574E-17));
#1170=DIRECTION('ref_axis',(2.31296463463574E-17,0.,-1.));
#1171=DIRECTION('center_axis',(1.,2.32100975330797E-17,2.31296463463574E-17));
#1172=DIRECTION('ref_axis',(2.31296463463574E-17,0.,-1.));
#1173=DIRECTION('',(1.,-1.34981522750779E-16,0.));
#1174=DIRECTION('center_axis',(1.,0.,0.));
#1175=DIRECTION('ref_axis',(0.,0.705878097754059,-0.708333333333333));
#1176=DIRECTION('',(1.,-1.34981522750779E-16,0.));
#1177=DIRECTION('center_axis',(-1.,1.34981522750779E-16,0.));
#1178=DIRECTION('ref_axis',(0.,0.705878097754059,-0.708333333333333));
#1179=DIRECTION('',(1.,-1.34981522750779E-16,0.));
#1180=DIRECTION('center_axis',(1.,0.,0.));
#1181=DIRECTION('ref_axis',(0.,0.,-1.));
#1182=DIRECTION('',(1.,-1.34981522750779E-16,0.));
#1183=DIRECTION('center_axis',(0.945960318461978,-0.324282401457915,1.20008596193105E-16));
#1184=DIRECTION('ref_axis',(0.,-3.70074341541719E-16,-1.));
#1185=DIRECTION('center_axis',(0.,0.,-1.));
#1186=DIRECTION('ref_axis',(1.,-8.07434927000114E-16,0.));
#1187=DIRECTION('center_axis',(-1.04855028855325E-15,-1.,0.));
#1188=DIRECTION('ref_axis',(0.,0.,-1.));
#1189=DIRECTION('center_axis',(0.,0.,-1.));
#1190=DIRECTION('ref_axis',(1.,-8.07434927000114E-16,0.));
#1191=DIRECTION('center_axis',(0.,0.,-1.));
#1192=DIRECTION('ref_axis',(-0.324282401457915,-0.945960318461978,0.));
#1193=DIRECTION('center_axis',(6.57909940518611E-17,1.,0.));
#1194=DIRECTION('ref_axis',(0.705878097754059,0.,-0.708333333333333));
#1195=DIRECTION('',(-6.57909940518611E-17,-1.,0.));
#1196=DIRECTION('',(-6.57909940518611E-17,-1.,0.));
#1197=DIRECTION('center_axis',(1.,0.,0.));
#1198=DIRECTION('ref_axis',(0.,1.,0.));
#1199=DIRECTION('',(0.,0.,1.));
#1200=DIRECTION('',(0.,1.,0.));
#1201=DIRECTION('',(0.,1.,0.));
#1202=DIRECTION('',(0.,0.,-1.));
#1203=DIRECTION('',(0.,0.,1.));
#1204=DIRECTION('',(0.,1.,0.));
#1205=DIRECTION('',(0.,0.,-1.));
#1206=DIRECTION('center_axis',(-1.,0.,0.));
#1207=DIRECTION('ref_axis',(0.,-1.,0.));
#1208=DIRECTION('',(0.,1.,0.));
#1209=DIRECTION('',(0.,0.,1.));
#1210=DIRECTION('',(0.,-1.,0.));
#1211=DIRECTION('',(0.,0.,1.));
#1212=DIRECTION('center_axis',(0.,-1.,0.));
#1213=DIRECTION('ref_axis',(1.,0.,0.));
#1214=DIRECTION('',(-1.,0.,0.));
#1215=DIRECTION('',(0.,0.,1.));
#1216=DIRECTION('',(1.,0.,0.));
#1217=DIRECTION('center_axis',(0.,0.,1.));
#1218=DIRECTION('ref_axis',(1.,0.,0.));
#1219=DIRECTION('center_axis',(0.,0.,-1.));
#1220=DIRECTION('ref_axis',(1.,0.,0.));
#1221=DIRECTION('',(0.,0.,-1.));
#1222=DIRECTION('center_axis',(0.,0.,1.));
#1223=DIRECTION('ref_axis',(1.,0.,0.));
#1224=DIRECTION('center_axis',(0.,0.,-1.));
#1225=DIRECTION('ref_axis',(1.,0.,0.));
#1226=DIRECTION('',(0.,0.,-1.));
#1227=DIRECTION('center_axis',(0.,1.,0.));
#1228=DIRECTION('ref_axis',(-1.,0.,0.));
#1229=DIRECTION('',(1.,0.,0.));
#1230=DIRECTION('',(-1.,0.,0.));
#1231=DIRECTION('',(0.,0.,1.));
#1232=DIRECTION('center_axis',(1.,0.,0.));
#1233=DIRECTION('ref_axis',(0.,1.,0.));
#1234=DIRECTION('',(0.,-1.,0.));
#1235=DIRECTION('',(0.,1.,0.));
#1236=DIRECTION('center_axis',(0.,0.,1.));
#1237=DIRECTION('ref_axis',(1.,0.,0.));
#1238=DIRECTION('center_axis',(-7.40148683083438E-17,1.,0.));
#1239=DIRECTION('ref_axis',(-1.,-7.40148683083438E-17,0.));
#1240=DIRECTION('',(0.,0.,1.));
#1241=DIRECTION('',(-1.,-7.40148683083438E-17,0.));
#1242=DIRECTION('',(0.,0.,1.));
#1243=DIRECTION('center_axis',(-1.,-2.61228946970625E-16,0.));
#1244=DIRECTION('ref_axis',(2.61228946970625E-16,-1.,0.));
#1245=DIRECTION('',(2.61228946970625E-16,-1.,0.));
#1246=DIRECTION('',(0.,0.,1.));
#1247=DIRECTION('center_axis',(1.48029736616688E-16,-1.,0.));
#1248=DIRECTION('ref_axis',(1.,1.48029736616688E-16,0.));
#1249=DIRECTION('',(0.,0.,1.));
#1250=DIRECTION('center_axis',(1.,3.10209374527617E-16,0.));
#1251=DIRECTION('ref_axis',(-3.10209374527617E-16,1.,0.));
#1252=DIRECTION('',(-3.10209374527617E-16,1.,0.));
#1253=DIRECTION('center_axis',(-1.,-3.1720657846433E-16,0.));
#1254=DIRECTION('ref_axis',(3.1720657846433E-16,-1.,0.));
#1255=DIRECTION('',(0.,0.,1.));
#1256=DIRECTION('',(3.1720657846433E-16,-1.,0.));
#1257=DIRECTION('',(0.,0.,1.));
#1258=DIRECTION('center_axis',(2.77555756156289E-16,-1.,0.));
#1259=DIRECTION('ref_axis',(1.,2.77555756156289E-16,0.));
#1260=DIRECTION('',(1.,2.77555756156289E-16,0.));
#1261=DIRECTION('',(0.,0.,1.));
#1262=DIRECTION('center_axis',(1.,2.24687993078901E-16,0.));
#1263=DIRECTION('ref_axis',(-2.24687993078901E-16,1.,0.));
#1264=DIRECTION('',(-2.24687993078901E-16,1.,0.));
#1265=DIRECTION('',(0.,0.,1.));
#1266=DIRECTION('center_axis',(0.,1.,0.));
#1267=DIRECTION('ref_axis',(-1.,0.,0.));
#1268=DIRECTION('',(-1.,0.,0.));
#1269=DIRECTION('',(-1.,0.,0.));
#1270=DIRECTION('center_axis',(0.,1.,0.));
#1271=DIRECTION('ref_axis',(-1.,0.,0.));
#1272=DIRECTION('',(-1.,0.,0.));
#1273=DIRECTION('',(0.,0.,1.));
#1274=DIRECTION('center_axis',(-1.,0.,0.));
#1275=DIRECTION('ref_axis',(0.,-1.,0.));
#1276=DIRECTION('',(0.,-1.,0.));
#1277=DIRECTION('',(0.,0.,1.));
#1278=DIRECTION('center_axis',(0.,-1.,0.));
#1279=DIRECTION('ref_axis',(1.,0.,0.));
#1280=DIRECTION('',(1.,0.,0.));
#1281=DIRECTION('center_axis',(0.,1.,0.));
#1282=DIRECTION('ref_axis',(-1.,0.,0.));
#1283=DIRECTION('',(-1.,0.,0.));
#1284=DIRECTION('',(0.,0.,1.));
#1285=DIRECTION('center_axis',(-1.,0.,0.));
#1286=DIRECTION('ref_axis',(0.,-1.,0.));
#1287=DIRECTION('',(0.,-1.,0.));
#1288=DIRECTION('',(0.,0.,1.));
#1289=DIRECTION('center_axis',(0.,-1.,0.));
#1290=DIRECTION('ref_axis',(1.,0.,0.));
#1291=DIRECTION('center_axis',(0.,0.,1.));
#1292=DIRECTION('ref_axis',(1.,0.,0.));
#1293=DIRECTION('center_axis',(0.,0.,1.));
#1294=DIRECTION('ref_axis',(1.,0.,0.));
#1295=CARTESIAN_POINT('',(0.,0.,0.));
#1296=CARTESIAN_POINT('Origin',(-14.0260207825631,20.6971733949236,0.));
#1297=CARTESIAN_POINT('',(-14.0260207825631,20.6971733949236,0.));
#1298=CARTESIAN_POINT('',(-14.0260207825631,14.6971733949236,0.));
#1299=CARTESIAN_POINT('',(-14.0260207825631,10.3485866974618,0.));
#1300=CARTESIAN_POINT('',(-14.0260207825631,20.6971733949236,2.));
#1301=CARTESIAN_POINT('',(-14.0260207825631,20.6971733949236,0.));
#1302=CARTESIAN_POINT('',(-14.0260207825631,14.6971733949236,2.));
#1303=CARTESIAN_POINT('',(-14.0260207825631,14.6971733949236,2.));
#1304=CARTESIAN_POINT('',(-14.0260207825631,14.6971733949236,0.));
#1305=CARTESIAN_POINT('Origin',(-2.02602078256313,20.6971733949236,0.));
#1306=CARTESIAN_POINT('',(-2.02602078256313,20.6971733949236,0.));
#1307=CARTESIAN_POINT('',(-1.01301039128156,20.6971733949236,0.));
#1308=CARTESIAN_POINT('',(-2.02602078256313,20.6971733949236,2.));
#1309=CARTESIAN_POINT('',(-2.02602078256313,20.6971733949236,0.));
#1310=CARTESIAN_POINT('',(-14.0260207825631,20.6971733949236,2.));
#1311=CARTESIAN_POINT('Origin',(-2.02602078256313,14.6971733949236,0.));
#1312=CARTESIAN_POINT('',(-2.02602078256313,14.6971733949236,0.));
#1313=CARTESIAN_POINT('',(-2.02602078256313,7.34858669746182,0.));
#1314=CARTESIAN_POINT('',(-2.02602078256313,14.6971733949236,2.));
#1315=CARTESIAN_POINT('',(-2.02602078256313,14.6971733949236,0.));
#1316=CARTESIAN_POINT('',(-2.02602078256313,20.6971733949236,2.));
#1317=CARTESIAN_POINT('Origin',(-14.0260207825631,14.6971733949236,0.));
#1318=CARTESIAN_POINT('',(-7.01301039128156,14.6971733949236,0.));
#1319=CARTESIAN_POINT('',(-2.02602078256313,14.6971733949236,2.));
#1320=CARTESIAN_POINT('Origin',(-8.02602078256313,17.6971733949236,2.));
#1321=CARTESIAN_POINT('',(-7.178,17.5,2.));
#1322=CARTESIAN_POINT('Origin',(-5.078,17.5,2.));
#1323=CARTESIAN_POINT('',(-13.178,17.5,2.));
#1324=CARTESIAN_POINT('Origin',(-11.078,17.5,2.));
#1325=CARTESIAN_POINT('Origin',(-41.2,-80.5,5.44149146173407));
#1326=CARTESIAN_POINT('',(-43.2,-80.5,5.44149146173407));
#1327=CARTESIAN_POINT('Origin',(-41.2,-80.5,5.44149146173407));
#1328=CARTESIAN_POINT('',(-43.2,-78.5,5.44149146173407));
#1329=CARTESIAN_POINT('',(-43.2,-80.5,5.44149146173407));
#1330=CARTESIAN_POINT('Origin',(-41.2,-78.5,5.44149146173407));
#1331=CARTESIAN_POINT('Origin',(33.8,-80.5,4.5));
#1332=CARTESIAN_POINT('',(31.8,-80.5,4.5));
#1333=CARTESIAN_POINT('Origin',(33.8,-80.5,4.5));
#1334=CARTESIAN_POINT('',(31.8,-78.5,4.5));
#1335=CARTESIAN_POINT('',(31.8,-80.5,4.5));
#1336=CARTESIAN_POINT('',(35.1228756555323,-78.5,3.));
#1337=CARTESIAN_POINT('Origin',(33.8,-78.5,4.5));
#1338=CARTESIAN_POINT('',(35.1228756555323,-78.4568527918782,3.));
#1339=CARTESIAN_POINT('',(35.1228756555323,-80.5,3.));
#1340=CARTESIAN_POINT('',(32.4771243444677,-78.4568527918782,3.));
#1341=CARTESIAN_POINT('Origin',(33.8,-78.4568527918782,4.5));
#1342=CARTESIAN_POINT('',(32.4771243444677,-78.5,3.));
#1343=CARTESIAN_POINT('',(32.4771243444677,-80.5,3.));
#1344=CARTESIAN_POINT('Origin',(33.8,-78.5,4.5));
#1345=CARTESIAN_POINT('Origin',(76.8,-78.5,0.));
#1346=CARTESIAN_POINT('',(-76.8,-78.5,3.));
#1347=CARTESIAN_POINT('',(38.4,-78.5,3.));
#1348=CARTESIAN_POINT('',(-76.8,-78.5,10.));
#1349=CARTESIAN_POINT('',(-76.8,-78.5,0.));
#1350=CARTESIAN_POINT('',(76.8,-78.5,10.));
#1351=CARTESIAN_POINT('',(76.8,-78.5,10.));
#1352=CARTESIAN_POINT('',(59.8589256539026,-78.5,3.));
#1353=CARTESIAN_POINT('Origin',(59.8589256539026,-78.5,27.));
#1354=CARTESIAN_POINT('',(38.4,-78.5,3.));
#1355=CARTESIAN_POINT('Origin',(59.3064113103821,56.5,24.));
#1356=CARTESIAN_POINT('',(78.8,-80.5,10.));
#1357=CARTESIAN_POINT('',(59.3064113103821,-80.5,0.));
#1358=CARTESIAN_POINT('Origin',(59.3064113103821,-80.5,24.));
#1359=CARTESIAN_POINT('',(59.3064113103821,56.5,0.));
#1360=CARTESIAN_POINT('',(59.3064113103821,56.5,0.));
#1361=CARTESIAN_POINT('',(78.8,56.5,10.));
#1362=CARTESIAN_POINT('Origin',(59.3064113103821,56.5,24.));
#1363=CARTESIAN_POINT('',(78.8,56.5,10.));
#1364=CARTESIAN_POINT('Ctrl Pts',(78.8,56.4999999999999,10.));
#1365=CARTESIAN_POINT('Ctrl Pts',(78.8000000000001,72.8874680248081,10.));
#1366=CARTESIAN_POINT('Ctrl Pts',(63.5369950775603,78.8531858359091,10.));
#1367=CARTESIAN_POINT('Ctrl Pts',(71.6181515354039,56.4999999999999,6.58285660612371E-15));
#1368=CARTESIAN_POINT('Ctrl Pts',(71.618151535404,67.9836216884504,6.58285660612371E-15));
#1369=CARTESIAN_POINT('Ctrl Pts',(60.9225044657703,72.1641361119735,5.2206559884761E-15));
#1370=CARTESIAN_POINT('Ctrl Pts',(59.3064113103821,56.5,0.));
#1371=CARTESIAN_POINT('Ctrl Pts',(59.3064113103821,59.57702796898,0.));
#1372=CARTESIAN_POINT('Ctrl Pts',(56.4405205598446,60.6971937280839,0.));
#1373=CARTESIAN_POINT('',(56.4405205598446,60.6971937280839,0.));
#1374=CARTESIAN_POINT('',(63.5369950775603,78.8531858359091,10.));
#1375=CARTESIAN_POINT('Origin',(56.4405205598446,60.6971937280839,24.));
#1376=CARTESIAN_POINT('Origin',(54.8,56.5,10.));
#1377=CARTESIAN_POINT('Origin',(54.8,56.5,0.));
#1378=CARTESIAN_POINT('Ctrl Pts',(63.5369950775603,78.8531858359091,10.));
#1379=CARTESIAN_POINT('Ctrl Pts',(59.323699462724,80.5,10.));
#1380=CARTESIAN_POINT('Ctrl Pts',(54.8,80.5,10.));
#1381=CARTESIAN_POINT('Ctrl Pts',(60.9225044657703,72.1641361119735,2.10016244026478E-15));
#1382=CARTESIAN_POINT('Ctrl Pts',(57.9700109610299,73.3181515354039,2.10016244026478E-15));
#1383=CARTESIAN_POINT('Ctrl Pts',(54.8,73.3181515354039,1.95605505470146E-15));
#1384=CARTESIAN_POINT('Ctrl Pts',(56.4405205598446,60.6971937280839,0.));
#1385=CARTESIAN_POINT('Ctrl Pts',(55.6494021009829,61.0064113103821,0.));
#1386=CARTESIAN_POINT('Ctrl Pts',(54.8,61.0064113103821,0.));
#1387=CARTESIAN_POINT('',(56.4405205598446,63.9828452854762,0.208167280656775));
#1388=CARTESIAN_POINT('',(54.8,63.9828452854762,0.185281005396991));
#1389=CARTESIAN_POINT('Ctrl Pts',(56.4405205598446,63.9828452854762,0.208167280656775));
#1390=CARTESIAN_POINT('Ctrl Pts',(55.8840578417443,63.9828452854762,0.192368919610063));
#1391=CARTESIAN_POINT('Ctrl Pts',(55.3360231511959,63.9828452854762,0.18528100539699));
#1392=CARTESIAN_POINT('Ctrl Pts',(54.8,63.9828452854762,0.18528100539699));
#1393=CARTESIAN_POINT('',(54.8,80.5,10.));
#1394=CARTESIAN_POINT('Origin',(54.8,61.0064113103821,24.));
#1395=CARTESIAN_POINT('Origin',(54.8,56.5,10.));
#1396=CARTESIAN_POINT('Ctrl Pts',(56.4405205598446,60.6971937280839,1.36609473733174E-16));
#1397=CARTESIAN_POINT('Ctrl Pts',(56.4405205598446,61.7443487919045,8.57467885116427E-17));
#1398=CARTESIAN_POINT('Ctrl Pts',(56.4405205598446,62.8590884283448,0.062643688965976));
#1399=CARTESIAN_POINT('Ctrl Pts',(56.4405205598446,63.9828452854762,0.208167280656775));
#1400=CARTESIAN_POINT('Origin',(-78.8,61.0064113103821,24.));
#1401=CARTESIAN_POINT('',(-3.55947944015541,63.9828452854762,0.185281005396987));
#1402=CARTESIAN_POINT('',(-78.8,63.9828452854762,0.185281005396982));
#1403=CARTESIAN_POINT('',(-3.55947944015541,80.5,10.));
#1404=CARTESIAN_POINT('Origin',(-3.55947944015539,61.0064113103821,24.));
#1405=CARTESIAN_POINT('',(-78.8,80.5,10.));
#1406=CARTESIAN_POINT('Origin',(-78.8,61.0064113103821,24.));
#1407=CARTESIAN_POINT('',(-78.8,61.0064113103821,0.));
#1408=CARTESIAN_POINT('',(-78.8,80.5,10.));
#1409=CARTESIAN_POINT('Origin',(-78.8,61.0064113103821,24.));
#1410=CARTESIAN_POINT('',(-78.8,80.5,10.));
#1411=CARTESIAN_POINT('',(-3.55947944015541,61.0064113103821,0.));
#1412=CARTESIAN_POINT('Origin',(-3.5594794401554,61.0064113103821,24.));
#1413=CARTESIAN_POINT('',(-16.8,61.0064113103821,0.));
#1414=CARTESIAN_POINT('',(-78.8,61.0064113103821,0.));
#1415=CARTESIAN_POINT('',(-16.8,63.9828452854762,0.185281005396987));
#1416=CARTESIAN_POINT('Origin',(-16.8,61.0064113103821,24.));
#1417=CARTESIAN_POINT('',(-76.8,63.9828452854762,0.185281005396987));
#1418=CARTESIAN_POINT('',(-78.8,63.9828452854762,0.185281005396987));
#1419=CARTESIAN_POINT('',(-76.8,61.0064113103821,0.));
#1420=CARTESIAN_POINT('Origin',(-76.8,61.0064113103821,24.));
#1421=CARTESIAN_POINT('',(-78.8,61.0064113103821,0.));
#1422=CARTESIAN_POINT('Origin',(-78.8,-80.5,0.));
#1423=CARTESIAN_POINT('',(-78.8,-80.5,10.));
#1424=CARTESIAN_POINT('',(78.8,-80.5,10.));
#1425=CARTESIAN_POINT('',(-78.8,-80.5,0.));
#1426=CARTESIAN_POINT('',(-78.8,-80.5,0.));
#1427=CARTESIAN_POINT('',(78.8,-80.5,0.));
#1428=CARTESIAN_POINT('Origin',(8.88178419700125E-15,0.,0.));
#1429=CARTESIAN_POINT('',(-78.8,-80.5,0.));
#1430=CARTESIAN_POINT('',(-76.8,29.9828452854762,0.));
#1431=CARTESIAN_POINT('',(-76.8,-78.5,0.));
#1432=CARTESIAN_POINT('',(-16.8,29.9828452854762,0.));
#1433=CARTESIAN_POINT('',(-16.8,29.9828452854762,0.));
#1434=CARTESIAN_POINT('',(-16.8,63.9828452854762,0.));
#1435=CARTESIAN_POINT('',(-3.5594794401554,29.9828452854762,0.));
#1436=CARTESIAN_POINT('',(-3.55947944015541,63.9828452854762,0.));
#1437=CARTESIAN_POINT('',(56.4405205598446,29.9828452854762,0.));
#1438=CARTESIAN_POINT('',(-3.5594794401554,29.9828452854762,0.));
#1439=CARTESIAN_POINT('',(56.4405205598446,29.9828452854762,0.));
#1440=CARTESIAN_POINT('',(-76.8,-78.4568527918782,0.));
#1441=CARTESIAN_POINT('',(-16.8,-78.4568527918782,0.));
#1442=CARTESIAN_POINT('',(-76.8,-78.4568527918782,0.));
#1443=CARTESIAN_POINT('',(-16.8,5.54314720812182,0.));
#1444=CARTESIAN_POINT('',(-16.8,-78.4568527918782,0.));
#1445=CARTESIAN_POINT('',(-76.8,5.54314720812182,0.));
#1446=CARTESIAN_POINT('',(-16.8,5.54314720812182,0.));
#1447=CARTESIAN_POINT('',(-76.8,-78.5,0.));
#1448=CARTESIAN_POINT('',(56.4405205598446,-78.4568527918782,0.));
#1449=CARTESIAN_POINT('',(-3.55947944015537,-78.4568527918782,0.));
#1450=CARTESIAN_POINT('',(56.4405205598446,-78.4568527918782,0.));
#1451=CARTESIAN_POINT('',(56.4405205598446,5.54314720812184,0.));
#1452=CARTESIAN_POINT('',(56.4405205598446,5.54314720812184,0.));
#1453=CARTESIAN_POINT('',(-3.55947944015539,5.54314720812183,0.));
#1454=CARTESIAN_POINT('',(-3.55947944015539,5.54314720812182,0.));
#1455=CARTESIAN_POINT('',(-3.55947944015537,-78.4568527918782,0.));
#1456=CARTESIAN_POINT('Origin',(-78.8,80.5,0.));
#1457=CARTESIAN_POINT('',(-78.8,-80.5,10.));
#1458=CARTESIAN_POINT('Origin',(-76.8,61.5589256539026,27.));
#1459=CARTESIAN_POINT('',(-16.8,63.9828452854762,3.12271762491233));
#1460=CARTESIAN_POINT('',(-16.8,61.5589256539026,3.));
#1461=CARTESIAN_POINT('Origin',(-16.8,61.5589256539026,27.));
#1462=CARTESIAN_POINT('',(-3.55947944015541,61.5589256539026,3.));
#1463=CARTESIAN_POINT('',(-76.8,61.5589256539026,3.));
#1464=CARTESIAN_POINT('',(-3.55947944015541,63.9828452854762,3.12271762491233));
#1465=CARTESIAN_POINT('Origin',(-3.55947944015541,61.5589256539026,27.));
#1466=CARTESIAN_POINT('',(-3.55947944015541,78.5,10.));
#1467=CARTESIAN_POINT('Origin',(-3.55947944015541,61.5589256539026,27.));
#1468=CARTESIAN_POINT('',(-76.8,78.5,10.));
#1469=CARTESIAN_POINT('',(-76.8,78.5,10.));
#1470=CARTESIAN_POINT('',(-76.8,63.9828452854762,3.12271762491233));
#1471=CARTESIAN_POINT('Origin',(-76.8,61.5589256539026,27.));
#1472=CARTESIAN_POINT('',(-76.8,63.9828452854762,3.12271762491233));
#1473=CARTESIAN_POINT('Origin',(-76.8,61.5589256539026,27.));
#1474=CARTESIAN_POINT('',(54.8,63.9828452854762,3.12271762491233));
#1475=CARTESIAN_POINT('',(-76.8,63.9828452854762,3.12271762491233));
#1476=CARTESIAN_POINT('',(54.8,78.5,10.));
#1477=CARTESIAN_POINT('Origin',(54.8,61.5589256539026,27.));
#1478=CARTESIAN_POINT('',(-76.8,78.5,10.));
#1479=CARTESIAN_POINT('Ctrl Pts',(56.4405205598446,61.2855429226412,3.));
#1480=CARTESIAN_POINT('Ctrl Pts',(55.6430390611157,61.5589256539026,3.));
#1481=CARTESIAN_POINT('Ctrl Pts',(54.8,61.5589256539026,3.));
#1482=CARTESIAN_POINT('Ctrl Pts',(59.6563404265156,70.6663726300689,3.));
#1483=CARTESIAN_POINT('Ctrl Pts',(57.2956009536483,71.4756521003986,3.));
#1484=CARTESIAN_POINT('Ctrl Pts',(54.8,71.4756521003986,3.));
#1485=CARTESIAN_POINT('Ctrl Pts',(61.9342128320742,77.3111270061635,10.));
#1486=CARTESIAN_POINT('Ctrl Pts',(58.4661656275256,78.5,10.));
#1487=CARTESIAN_POINT('Ctrl Pts',(54.8,78.5,10.));
#1488=CARTESIAN_POINT('',(56.4405205598446,61.2855429226412,3.));
#1489=CARTESIAN_POINT('',(56.4405205598446,63.9828452854762,3.14142786816385));
#1490=CARTESIAN_POINT('Ctrl Pts',(56.4405205598446,63.9828452854762,3.14142786816385));
#1491=CARTESIAN_POINT('Ctrl Pts',(56.4405205598446,63.0596998223104,3.04309947824106));
#1492=CARTESIAN_POINT('Ctrl Pts',(56.4405205598446,62.1495194514985,3.));
#1493=CARTESIAN_POINT('Ctrl Pts',(56.4405205598446,61.2855429226412,3.));
#1494=CARTESIAN_POINT('',(61.9342128320741,77.3111270061635,10.));
#1495=CARTESIAN_POINT('Origin',(56.4405205598446,61.2855429226412,27.));
#1496=CARTESIAN_POINT('Origin',(54.8,56.5,10.));
#1497=CARTESIAN_POINT('Ctrl Pts',(54.8,63.9828452854762,3.12271762491233));
#1498=CARTESIAN_POINT('Ctrl Pts',(55.3360621597668,63.9828452854762,3.12271762491233));
#1499=CARTESIAN_POINT('Ctrl Pts',(55.8840497369559,63.9828452854762,3.12843317294121));
#1500=CARTESIAN_POINT('Ctrl Pts',(56.4405205598446,63.9828452854762,3.14142786816385));
#1501=CARTESIAN_POINT('Ctrl Pts',(59.8589256539026,56.5,3.));
#1502=CARTESIAN_POINT('Ctrl Pts',(59.8589256539026,60.1136876223476,3.));
#1503=CARTESIAN_POINT('Ctrl Pts',(56.4405205598446,61.2855429226412,3.));
#1504=CARTESIAN_POINT('Ctrl Pts',(69.7756521003986,56.5,3.));
#1505=CARTESIAN_POINT('Ctrl Pts',(69.7756521003986,67.1973955211313,3.));
#1506=CARTESIAN_POINT('Ctrl Pts',(59.6563404265155,70.6663726300689,3.));
#1507=CARTESIAN_POINT('Ctrl Pts',(76.8,56.5,10.));
#1508=CARTESIAN_POINT('Ctrl Pts',(76.8,72.2150219494364,10.));
#1509=CARTESIAN_POINT('Ctrl Pts',(61.9342128320741,77.3111270061635,10.));
#1510=CARTESIAN_POINT('',(59.8589256539026,56.5,3.));
#1511=CARTESIAN_POINT('',(76.8,56.5,10.));
#1512=CARTESIAN_POINT('Origin',(59.8589256539026,56.5,27.));
#1513=CARTESIAN_POINT('Origin',(54.8,56.5,10.));
#1514=CARTESIAN_POINT('Origin',(54.8,56.5,3.));
#1515=CARTESIAN_POINT('Origin',(59.8589256539026,56.5,27.));
#1516=CARTESIAN_POINT('',(76.8,56.5,10.));
#1517=CARTESIAN_POINT('',(59.8589256539026,56.5,3.));
#1518=CARTESIAN_POINT('Origin',(-76.8,-78.5,0.));
#1519=CARTESIAN_POINT('',(-76.8,63.9828452854762,0.));
#1520=CARTESIAN_POINT('',(-76.8,-78.5,10.));
#1521=CARTESIAN_POINT('',(-76.8,-78.4568527918782,3.));
#1522=CARTESIAN_POINT('',(-76.8,-39.25,3.));
#1523=CARTESIAN_POINT('',(-76.8,-78.4568527918782,0.));
#1524=CARTESIAN_POINT('',(-76.8,5.54314720812182,3.));
#1525=CARTESIAN_POINT('',(-76.8,5.54314720812182,0.));
#1526=CARTESIAN_POINT('',(-76.8,29.9828452854762,3.));
#1527=CARTESIAN_POINT('',(-76.8,-39.25,3.));
#1528=CARTESIAN_POINT('',(-76.8,29.9828452854762,0.));
#1529=CARTESIAN_POINT('Origin',(-16.078,23.5,0.));
#1530=CARTESIAN_POINT('',(-16.078,11.5,3.));
#1531=CARTESIAN_POINT('',(-16.078,23.5,3.));
#1532=CARTESIAN_POINT('',(-16.078,11.5,3.));
#1533=CARTESIAN_POINT('',(-16.078,11.5,8.));
#1534=CARTESIAN_POINT('',(-16.078,11.5,0.));
#1535=CARTESIAN_POINT('',(-16.078,23.5,8.));
#1536=CARTESIAN_POINT('',(-16.078,11.5,8.));
#1537=CARTESIAN_POINT('',(-16.078,23.5,0.));
#1538=CARTESIAN_POINT('Origin',(-16.078,11.5,0.));
#1539=CARTESIAN_POINT('',(-0.0780000000000006,11.5,3.));
#1540=CARTESIAN_POINT('',(-0.0780000000000006,11.5,3.));
#1541=CARTESIAN_POINT('',(-0.0780000000000003,11.5,8.));
#1542=CARTESIAN_POINT('',(-0.0780000000000006,11.5,0.));
#1543=CARTESIAN_POINT('',(-0.0780000000000006,11.5,8.));
#1544=CARTESIAN_POINT('Origin',(-5.078,17.5,0.));
#1545=CARTESIAN_POINT('',(-7.178,17.5,8.));
#1546=CARTESIAN_POINT('Origin',(-5.078,17.5,8.));
#1547=CARTESIAN_POINT('',(-7.178,17.5,0.));
#1548=CARTESIAN_POINT('Origin',(-11.078,17.5,0.));
#1549=CARTESIAN_POINT('',(-13.178,17.5,8.));
#1550=CARTESIAN_POINT('Origin',(-11.078,17.5,8.));
#1551=CARTESIAN_POINT('',(-13.178,17.5,0.));
#1552=CARTESIAN_POINT('Origin',(-0.0780000000000003,23.5,0.));
#1553=CARTESIAN_POINT('',(-0.0780000000000006,23.5,3.));
#1554=CARTESIAN_POINT('',(-16.078,23.5,3.));
#1555=CARTESIAN_POINT('',(-0.0780000000000003,23.5,8.));
#1556=CARTESIAN_POINT('',(-16.078,23.5,8.));
#1557=CARTESIAN_POINT('',(-0.0780000000000006,23.5,0.));
#1558=CARTESIAN_POINT('Origin',(-0.0780000000000006,11.5,0.));
#1559=CARTESIAN_POINT('',(-0.0780000000000006,23.5,3.));
#1560=CARTESIAN_POINT('',(-0.0780000000000006,23.5,8.));
#1561=CARTESIAN_POINT('Origin',(-8.078,17.5,8.));
#1562=CARTESIAN_POINT('Origin',(56.4405205598446,29.9828452854762,0.));
#1563=CARTESIAN_POINT('',(-3.5594794401554,29.9828452854762,3.));
#1564=CARTESIAN_POINT('',(-3.5594794401554,29.9828452854762,0.));
#1565=CARTESIAN_POINT('',(56.4405205598446,29.9828452854762,3.));
#1566=CARTESIAN_POINT('',(-3.5594794401554,29.9828452854762,3.));
#1567=CARTESIAN_POINT('',(56.4405205598446,29.9828452854762,0.));
#1568=CARTESIAN_POINT('Origin',(56.4405205598446,63.9828452854762,0.));
#1569=CARTESIAN_POINT('',(56.4405205598446,29.9828452854762,3.));
#1570=CARTESIAN_POINT('',(56.4405205598446,63.9828452854762,0.));
#1571=CARTESIAN_POINT('Origin',(-3.55947944015541,63.9828452854762,0.));
#1572=CARTESIAN_POINT('',(-3.55947944015541,63.9828452854762,0.));
#1573=CARTESIAN_POINT('Origin',(-3.5594794401554,29.9828452854762,0.));
#1574=CARTESIAN_POINT('',(-3.55947944015541,63.9828452854762,3.));
#1575=CARTESIAN_POINT('Origin',(56.4405205598446,5.54314720812184,0.));
#1576=CARTESIAN_POINT('',(56.4405205598446,-78.4568527918782,3.));
#1577=CARTESIAN_POINT('',(56.4405205598446,-78.4568527918782,0.));
#1578=CARTESIAN_POINT('',(56.4405205598446,5.54314720812184,3.));
#1579=CARTESIAN_POINT('',(56.4405205598446,5.54314720812184,3.));
#1580=CARTESIAN_POINT('',(56.4405205598446,5.54314720812184,0.));
#1581=CARTESIAN_POINT('Origin',(-3.55947944015539,5.54314720812182,0.));
#1582=CARTESIAN_POINT('',(-3.55947944015539,5.54314720812183,3.));
#1583=CARTESIAN_POINT('',(-3.55947944015539,5.54314720812182,3.));
#1584=CARTESIAN_POINT('',(-3.55947944015539,5.54314720812183,0.));
#1585=CARTESIAN_POINT('Origin',(-3.55947944015537,-78.4568527918782,0.));
#1586=CARTESIAN_POINT('',(-3.55947944015537,-78.4568527918782,3.));
#1587=CARTESIAN_POINT('',(-3.55947944015537,-78.4568527918782,3.));
#1588=CARTESIAN_POINT('',(-3.55947944015537,-78.4568527918782,0.));
#1589=CARTESIAN_POINT('Origin',(56.4405205598446,-78.4568527918782,0.));
#1590=CARTESIAN_POINT('',(56.4405205598446,-78.4568527918782,3.));
#1591=CARTESIAN_POINT('',(56.4405205598446,-78.4568527918782,3.));
#1592=CARTESIAN_POINT('Origin',(-16.8,-78.4568527918782,0.));
#1593=CARTESIAN_POINT('',(-16.8,-78.4568527918782,3.));
#1594=CARTESIAN_POINT('',(-76.8,-78.4568527918782,3.));
#1595=CARTESIAN_POINT('',(-16.8,-78.4568527918782,0.));
#1596=CARTESIAN_POINT('Origin',(-16.8,5.54314720812181,0.));
#1597=CARTESIAN_POINT('',(-16.8,5.54314720812182,3.));
#1598=CARTESIAN_POINT('',(-16.8,-78.4568527918782,3.));
#1599=CARTESIAN_POINT('',(-16.8,5.54314720812182,0.));
#1600=CARTESIAN_POINT('Origin',(-76.8,5.54314720812182,0.));
#1601=CARTESIAN_POINT('',(-16.8,5.54314720812182,3.));
#1602=CARTESIAN_POINT('Origin',(-16.8,29.9828452854762,0.));
#1603=CARTESIAN_POINT('',(-16.8,29.9828452854762,3.));
#1604=CARTESIAN_POINT('',(-16.8,29.9828452854762,3.));
#1605=CARTESIAN_POINT('',(-16.8,29.9828452854762,0.));
#1606=CARTESIAN_POINT('Origin',(-16.8,63.9828452854762,0.));
#1607=CARTESIAN_POINT('',(-16.8,63.9828452854762,3.));
#1608=CARTESIAN_POINT('',(-16.8,63.9828452854762,0.));
#1609=CARTESIAN_POINT('Origin',(-76.8,63.9828452854762,0.));
#1610=CARTESIAN_POINT('Origin',(0.,8.88178419700125E-15,3.));
#1611=CARTESIAN_POINT('Origin',(8.88178419700125E-15,0.,10.));
#1612=UNCERTAINTY_MEASURE_WITH_UNIT(LENGTH_MEASURE(0.01),#1616,
'DISTANCE_ACCURACY_VALUE',
'Maximum model space distance between geometric entities at asserted c
onnectivities');
#1613=UNCERTAINTY_MEASURE_WITH_UNIT(LENGTH_MEASURE(0.01),#1616,
'DISTANCE_ACCURACY_VALUE',
'Maximum model space distance between geometric entities at asserted c
onnectivities');
#1614=(
GEOMETRIC_REPRESENTATION_CONTEXT(3)
GLOBAL_UNCERTAINTY_ASSIGNED_CONTEXT((#1612))
GLOBAL_UNIT_ASSIGNED_CONTEXT((#1616,#1618,#1619))
REPRESENTATION_CONTEXT('','3D')
);
#1615=(
GEOMETRIC_REPRESENTATION_CONTEXT(3)
GLOBAL_UNCERTAINTY_ASSIGNED_CONTEXT((#1613))
GLOBAL_UNIT_ASSIGNED_CONTEXT((#1616,#1618,#1619))
REPRESENTATION_CONTEXT('','3D')
);
#1616=(
LENGTH_UNIT()
NAMED_UNIT(*)
SI_UNIT(.MILLI.,.METRE.)
);
#1617=(
LENGTH_UNIT()
NAMED_UNIT(*)
SI_UNIT($,.METRE.)
);
#1618=(
NAMED_UNIT(*)
PLANE_ANGLE_UNIT()
SI_UNIT($,.RADIAN.)
);
#1619=(
NAMED_UNIT(*)
SI_UNIT($,.STERADIAN.)
SOLID_ANGLE_UNIT()
);
#1620=SHAPE_DEFINITION_REPRESENTATION(#1621,#1622);
#1621=PRODUCT_DEFINITION_SHAPE('',$,#1624);
#1622=SHAPE_REPRESENTATION('',(#970),#1614);
#1623=PRODUCT_DEFINITION_CONTEXT('part definition',#1628,'design');
#1624=PRODUCT_DEFINITION('BottomRight','BottomRight v3',#1625,#1623);
#1625=PRODUCT_DEFINITION_FORMATION('',$,#1630);
#1626=PRODUCT_RELATED_PRODUCT_CATEGORY('BottomRight v3',
'BottomRight v3',(#1630));
#1627=APPLICATION_PROTOCOL_DEFINITION('international standard',
'automotive_design',2009,#1628);
#1628=APPLICATION_CONTEXT(
'Core Data for Automotive Mechanical Design Process');
#1629=PRODUCT_CONTEXT('part definition',#1628,'mechanical');
#1630=PRODUCT('BottomRight','BottomRight v3',$,(#1629));
#1631=PRESENTATION_STYLE_ASSIGNMENT((#1632));
#1632=SURFACE_STYLE_USAGE(.BOTH.,#1633);
#1633=SURFACE_SIDE_STYLE('',(#1634));
#1634=SURFACE_STYLE_FILL_AREA(#1635);
#1635=FILL_AREA_STYLE('Steel - Satin',(#1636));
#1636=FILL_AREA_STYLE_COLOUR('Steel - Satin',#1637);
#1637=COLOUR_RGB('Steel - Satin',0.627450980392157,0.627450980392157,0.627450980392157);
ENDSEC;
END-ISO-10303-21;
