ISO-10303-21;
HEADER;
/* Generated by software containing ST-Developer
 * from STEP Tools, Inc. (www.steptools.com) 
 */

FILE_DESCRIPTION(
/* description */ (''),
/* implementation_level */ '2;1');

FILE_NAME(
/* name */ 'BottomMiddle.step',
/* time_stamp */ '2026-10-08T11:42:18-04:00',
/* author */ (''),
/* organization */ (''),
/* preprocessor_version */ 'ST-DEVELOPER v20.2',
/* originating_system */ 'Autodesk Translation Framework v15.15.0.0',
/* authorisation */ '');

FILE_SCHEMA (('AUTOMOTIVE_DESIGN { 1 0 10303 214 3 1 1 }'));
ENDSEC;

DATA;
#10=MECHANICAL_DESIGN_GEOMETRIC_PRESENTATION_REPRESENTATION('',(#13),#1421);
#11=SHAPE_REPRESENTATION_RELATIONSHIP('SRR','None',#1428,#12);
#12=ADVANCED_BREP_SHAPE_REPRESENTATION('',(#14),#1420);
#13=STYLED_ITEM('',(#1437),#14);
#14=MANIFOLD_SOLID_BREP('Body1',#877);
#15=FACE_BOUND('',#116,.T.);
#16=FACE_BOUND('',#120,.T.);
#17=FACE_BOUND('',#121,.T.);
#18=FACE_BOUND('',#124,.T.);
#19=FACE_BOUND('',#125,.T.);
#20=FACE_BOUND('',#131,.T.);
#21=FACE_BOUND('',#132,.T.);
#22=FACE_BOUND('',#140,.T.);
#23=FACE_BOUND('',#141,.T.);
#24=FACE_BOUND('',#151,.T.);
#25=FACE_BOUND('',#152,.T.);
#26=FACE_BOUND('',#156,.T.);
#27=FACE_BOUND('',#157,.T.);
#28=FACE_BOUND('',#159,.T.);
#29=FACE_BOUND('',#161,.T.);
#30=FACE_BOUND('',#162,.T.);
#31=FACE_BOUND('',#163,.T.);
#32=FACE_BOUND('',#164,.T.);
#33=FACE_BOUND('',#165,.T.);
#34=PLANE('',#909);
#35=PLANE('',#910);
#36=PLANE('',#911);
#37=PLANE('',#912);
#38=PLANE('',#913);
#39=PLANE('',#917);
#40=PLANE('',#921);
#41=PLANE('',#922);
#42=PLANE('',#923);
#43=PLANE('',#924);
#44=PLANE('',#925);
#45=PLANE('',#926);
#46=PLANE('',#929);
#47=PLANE('',#930);
#48=PLANE('',#935);
#49=PLANE('',#936);
#50=PLANE('',#937);
#51=PLANE('',#938);
#52=PLANE('',#939);
#53=PLANE('',#940);
#54=PLANE('',#941);
#55=PLANE('',#942);
#56=PLANE('',#943);
#57=PLANE('',#944);
#58=PLANE('',#945);
#59=PLANE('',#946);
#60=PLANE('',#947);
#61=PLANE('',#948);
#62=PLANE('',#949);
#63=PLANE('',#950);
#64=PLANE('',#951);
#65=FACE_OUTER_BOUND('',#106,.T.);
#66=FACE_OUTER_BOUND('',#107,.T.);
#67=FACE_OUTER_BOUND('',#108,.T.);
#68=FACE_OUTER_BOUND('',#109,.T.);
#69=FACE_OUTER_BOUND('',#110,.T.);
#70=FACE_OUTER_BOUND('',#111,.T.);
#71=FACE_OUTER_BOUND('',#112,.T.);
#72=FACE_OUTER_BOUND('',#113,.T.);
#73=FACE_OUTER_BOUND('',#114,.T.);
#74=FACE_OUTER_BOUND('',#115,.T.);
#75=FACE_OUTER_BOUND('',#117,.T.);
#76=FACE_OUTER_BOUND('',#118,.T.);
#77=FACE_OUTER_BOUND('',#119,.T.);
#78=FACE_OUTER_BOUND('',#122,.T.);
#79=FACE_OUTER_BOUND('',#123,.T.);
#80=FACE_OUTER_BOUND('',#126,.T.);
#81=FACE_OUTER_BOUND('',#127,.T.);
#82=FACE_OUTER_BOUND('',#128,.T.);
#83=FACE_OUTER_BOUND('',#129,.T.);
#84=FACE_OUTER_BOUND('',#130,.T.);
#85=FACE_OUTER_BOUND('',#133,.T.);
#86=FACE_OUTER_BOUND('',#134,.T.);
#87=FACE_OUTER_BOUND('',#135,.T.);
#88=FACE_OUTER_BOUND('',#136,.T.);
#89=FACE_OUTER_BOUND('',#137,.T.);
#90=FACE_OUTER_BOUND('',#138,.T.);
#91=FACE_OUTER_BOUND('',#139,.T.);
#92=FACE_OUTER_BOUND('',#142,.T.);
#93=FACE_OUTER_BOUND('',#143,.T.);
#94=FACE_OUTER_BOUND('',#144,.T.);
#95=FACE_OUTER_BOUND('',#145,.T.);
#96=FACE_OUTER_BOUND('',#146,.T.);
#97=FACE_OUTER_BOUND('',#147,.T.);
#98=FACE_OUTER_BOUND('',#148,.T.);
#99=FACE_OUTER_BOUND('',#149,.T.);
#100=FACE_OUTER_BOUND('',#150,.T.);
#101=FACE_OUTER_BOUND('',#153,.T.);
#102=FACE_OUTER_BOUND('',#154,.T.);
#103=FACE_OUTER_BOUND('',#155,.T.);
#104=FACE_OUTER_BOUND('',#158,.T.);
#105=FACE_OUTER_BOUND('',#160,.T.);
#106=EDGE_LOOP('',(#586,#587,#588,#589));
#107=EDGE_LOOP('',(#590,#591,#592,#593));
#108=EDGE_LOOP('',(#594,#595,#596,#597));
#109=EDGE_LOOP('',(#598,#599,#600,#601));
#110=EDGE_LOOP('',(#602,#603,#604,#605));
#111=EDGE_LOOP('',(#606,#607,#608,#609));
#112=EDGE_LOOP('',(#610,#611,#612,#613,#614,#615));
#113=EDGE_LOOP('',(#616,#617,#618,#619,#620,#621));
#114=EDGE_LOOP('',(#622,#623,#624,#625));
#115=EDGE_LOOP('',(#626,#627,#628,#629,#630,#631,#632,#633,#634,#635,#636,
#637));
#116=EDGE_LOOP('',(#638,#639,#640,#641));
#117=EDGE_LOOP('',(#642,#643,#644,#645,#646,#647,#648,#649));
#118=EDGE_LOOP('',(#650,#651,#652,#653));
#119=EDGE_LOOP('',(#654,#655,#656,#657));
#120=EDGE_LOOP('',(#658));
#121=EDGE_LOOP('',(#659));
#122=EDGE_LOOP('',(#660,#661,#662,#663));
#123=EDGE_LOOP('',(#664,#665,#666,#667,#668,#669,#670,#671,#672,#673));
#124=EDGE_LOOP('',(#674));
#125=EDGE_LOOP('',(#675));
#126=EDGE_LOOP('',(#676,#677,#678,#679));
#127=EDGE_LOOP('',(#680,#681,#682,#683));
#128=EDGE_LOOP('',(#684,#685,#686,#687));
#129=EDGE_LOOP('',(#688,#689,#690,#691));
#130=EDGE_LOOP('',(#692,#693,#694,#695));
#131=EDGE_LOOP('',(#696));
#132=EDGE_LOOP('',(#697));
#133=EDGE_LOOP('',(#698,#699,#700,#701));
#134=EDGE_LOOP('',(#702,#703,#704,#705));
#135=EDGE_LOOP('',(#706,#707,#708,#709));
#136=EDGE_LOOP('',(#710,#711,#712,#713));
#137=EDGE_LOOP('',(#714,#715,#716,#717));
#138=EDGE_LOOP('',(#718,#719,#720,#721));
#139=EDGE_LOOP('',(#722,#723,#724,#725));
#140=EDGE_LOOP('',(#726));
#141=EDGE_LOOP('',(#727));
#142=EDGE_LOOP('',(#728,#729,#730,#731));
#143=EDGE_LOOP('',(#732,#733,#734,#735,#736,#737));
#144=EDGE_LOOP('',(#738,#739,#740,#741));
#145=EDGE_LOOP('',(#742,#743,#744,#745));
#146=EDGE_LOOP('',(#746,#747,#748,#749));
#147=EDGE_LOOP('',(#750,#751,#752,#753));
#148=EDGE_LOOP('',(#754,#755,#756,#757,#758,#759));
#149=EDGE_LOOP('',(#760,#761,#762,#763));
#150=EDGE_LOOP('',(#764,#765,#766,#767,#768,#769,#770,#771,#772,#773));
#151=EDGE_LOOP('',(#774));
#152=EDGE_LOOP('',(#775));
#153=EDGE_LOOP('',(#776,#777,#778,#779,#780,#781,#782,#783));
#154=EDGE_LOOP('',(#784,#785,#786,#787));
#155=EDGE_LOOP('',(#788,#789,#790,#791));
#156=EDGE_LOOP('',(#792));
#157=EDGE_LOOP('',(#793));
#158=EDGE_LOOP('',(#794,#795,#796,#797));
#159=EDGE_LOOP('',(#798,#799,#800,#801));
#160=EDGE_LOOP('',(#802,#803,#804,#805));
#161=EDGE_LOOP('',(#806,#807,#808,#809));
#162=EDGE_LOOP('',(#810,#811,#812,#813));
#163=EDGE_LOOP('',(#814,#815,#816,#817));
#164=EDGE_LOOP('',(#818,#819,#820,#821));
#165=EDGE_LOOP('',(#822,#823,#824,#825));
#166=LINE('',#1181,#266);
#167=LINE('',#1186,#267);
#168=LINE('',#1190,#268);
#169=LINE('',#1196,#269);
#170=LINE('',#1202,#270);
#171=LINE('',#1207,#271);
#172=LINE('',#1211,#272);
#173=LINE('',#1217,#273);
#174=LINE('',#1221,#274);
#175=LINE('',#1223,#275);
#176=LINE('',#1225,#276);
#177=LINE('',#1227,#277);
#178=LINE('',#1228,#278);
#179=LINE('',#1231,#279);
#180=LINE('',#1233,#280);
#181=LINE('',#1235,#281);
#182=LINE('',#1237,#282);
#183=LINE('',#1238,#283);
#184=LINE('',#1241,#284);
#185=LINE('',#1242,#285);
#186=LINE('',#1245,#286);
#187=LINE('',#1247,#287);
#188=LINE('',#1249,#288);
#189=LINE('',#1251,#289);
#190=LINE('',#1252,#290);
#191=LINE('',#1254,#291);
#192=LINE('',#1256,#292);
#193=LINE('',#1257,#293);
#194=LINE('',#1260,#294);
#195=LINE('',#1262,#295);
#196=LINE('',#1264,#296);
#197=LINE('',#1265,#297);
#198=LINE('',#1268,#298);
#199=LINE('',#1270,#299);
#200=LINE('',#1272,#300);
#201=LINE('',#1274,#301);
#202=LINE('',#1276,#302);
#203=LINE('',#1277,#303);
#204=LINE('',#1283,#304);
#205=LINE('',#1286,#305);
#206=LINE('',#1289,#306);
#207=LINE('',#1291,#307);
#208=LINE('',#1292,#308);
#209=LINE('',#1298,#309);
#210=LINE('',#1301,#310);
#211=LINE('',#1303,#311);
#212=LINE('',#1304,#312);
#213=LINE('',#1306,#313);
#214=LINE('',#1308,#314);
#215=LINE('',#1310,#315);
#216=LINE('',#1311,#316);
#217=LINE('',#1315,#317);
#218=LINE('',#1317,#318);
#219=LINE('',#1319,#319);
#220=LINE('',#1320,#320);
#221=LINE('',#1323,#321);
#222=LINE('',#1325,#322);
#223=LINE('',#1326,#323);
#224=LINE('',#1329,#324);
#225=LINE('',#1331,#325);
#226=LINE('',#1332,#326);
#227=LINE('',#1334,#327);
#228=LINE('',#1335,#328);
#229=LINE('',#1343,#329);
#230=LINE('',#1345,#330);
#231=LINE('',#1346,#331);
#232=LINE('',#1349,#332);
#233=LINE('',#1350,#333);
#234=LINE('',#1354,#334);
#235=LINE('',#1358,#335);
#236=LINE('',#1361,#336);
#237=LINE('',#1362,#337);
#238=LINE('',#1364,#338);
#239=LINE('',#1369,#339);
#240=LINE('',#1370,#340);
#241=LINE('',#1371,#341);
#242=LINE('',#1374,#342);
#243=LINE('',#1375,#343);
#244=LINE('',#1378,#344);
#245=LINE('',#1379,#345);
#246=LINE('',#1381,#346);
#247=LINE('',#1383,#347);
#248=LINE('',#1385,#348);
#249=LINE('',#1388,#349);
#250=LINE('',#1390,#350);
#251=LINE('',#1391,#351);
#252=LINE('',#1394,#352);
#253=LINE('',#1395,#353);
#254=LINE('',#1398,#354);
#255=LINE('',#1400,#355);
#256=LINE('',#1401,#356);
#257=LINE('',#1402,#357);
#258=LINE('',#1404,#358);
#259=LINE('',#1405,#359);
#260=LINE('',#1406,#360);
#261=LINE('',#1409,#361);
#262=LINE('',#1411,#362);
#263=LINE('',#1412,#363);
#264=LINE('',#1414,#364);
#265=LINE('',#1415,#365);
#266=VECTOR('',#958,2.);
#267=VECTOR('',#963,10.);
#268=VECTOR('',#966,10.);
#269=VECTOR('',#973,2.);
#270=VECTOR('',#980,2.);
#271=VECTOR('',#985,10.);
#272=VECTOR('',#988,10.);
#273=VECTOR('',#995,2.);
#274=VECTOR('',#1000,10.);
#275=VECTOR('',#1001,10.);
#276=VECTOR('',#1002,10.);
#277=VECTOR('',#1003,10.);
#278=VECTOR('',#1004,10.);
#279=VECTOR('',#1007,10.);
#280=VECTOR('',#1008,10.);
#281=VECTOR('',#1009,10.);
#282=VECTOR('',#1010,10.);
#283=VECTOR('',#1011,10.);
#284=VECTOR('',#1014,10.);
#285=VECTOR('',#1015,10.);
#286=VECTOR('',#1018,10.);
#287=VECTOR('',#1019,10.);
#288=VECTOR('',#1020,10.);
#289=VECTOR('',#1021,10.);
#290=VECTOR('',#1022,10.);
#291=VECTOR('',#1023,10.);
#292=VECTOR('',#1024,10.);
#293=VECTOR('',#1025,10.);
#294=VECTOR('',#1026,10.);
#295=VECTOR('',#1027,10.);
#296=VECTOR('',#1028,10.);
#297=VECTOR('',#1029,10.);
#298=VECTOR('',#1032,10.);
#299=VECTOR('',#1033,10.);
#300=VECTOR('',#1034,24.);
#301=VECTOR('',#1035,10.);
#302=VECTOR('',#1036,10.);
#303=VECTOR('',#1037,10.);
#304=VECTOR('',#1042,24.);
#305=VECTOR('',#1045,10.);
#306=VECTOR('',#1048,10.);
#307=VECTOR('',#1049,10.);
#308=VECTOR('',#1050,10.);
#309=VECTOR('',#1057,10.);
#310=VECTOR('',#1060,10.);
#311=VECTOR('',#1061,10.);
#312=VECTOR('',#1062,10.);
#313=VECTOR('',#1063,10.);
#314=VECTOR('',#1064,10.);
#315=VECTOR('',#1065,10.);
#316=VECTOR('',#1066,10.);
#317=VECTOR('',#1069,10.);
#318=VECTOR('',#1070,10.);
#319=VECTOR('',#1071,10.);
#320=VECTOR('',#1072,10.);
#321=VECTOR('',#1075,10.);
#322=VECTOR('',#1076,10.);
#323=VECTOR('',#1077,10.);
#324=VECTOR('',#1080,10.);
#325=VECTOR('',#1081,10.);
#326=VECTOR('',#1082,10.);
#327=VECTOR('',#1085,10.);
#328=VECTOR('',#1086,10.);
#329=VECTOR('',#1095,10.);
#330=VECTOR('',#1096,10.);
#331=VECTOR('',#1097,10.);
#332=VECTOR('',#1100,10.);
#333=VECTOR('',#1101,10.);
#334=VECTOR('',#1106,2.1);
#335=VECTOR('',#1111,2.1);
#336=VECTOR('',#1114,10.);
#337=VECTOR('',#1115,10.);
#338=VECTOR('',#1118,10.);
#339=VECTOR('',#1123,10.);
#340=VECTOR('',#1124,10.);
#341=VECTOR('',#1125,10.);
#342=VECTOR('',#1128,10.);
#343=VECTOR('',#1129,10.);
#344=VECTOR('',#1132,10.);
#345=VECTOR('',#1133,10.);
#346=VECTOR('',#1136,10.);
#347=VECTOR('',#1139,10.);
#348=VECTOR('',#1142,10.);
#349=VECTOR('',#1145,10.);
#350=VECTOR('',#1146,10.);
#351=VECTOR('',#1147,10.);
#352=VECTOR('',#1150,10.);
#353=VECTOR('',#1151,10.);
#354=VECTOR('',#1154,10.);
#355=VECTOR('',#1155,10.);
#356=VECTOR('',#1156,10.);
#357=VECTOR('',#1157,10.);
#358=VECTOR('',#1160,10.);
#359=VECTOR('',#1161,10.);
#360=VECTOR('',#1162,10.);
#361=VECTOR('',#1165,10.);
#362=VECTOR('',#1166,10.);
#363=VECTOR('',#1167,10.);
#364=VECTOR('',#1170,10.);
#365=VECTOR('',#1171,10.);
#366=CIRCLE('',#892,2.);
#367=CIRCLE('',#893,2.);
#368=CIRCLE('',#895,2.);
#369=CIRCLE('',#896,2.);
#370=CIRCLE('',#898,2.);
#371=CIRCLE('',#899,2.);
#372=CIRCLE('',#901,2.);
#373=CIRCLE('',#902,2.);
#374=CIRCLE('',#904,2.);
#375=CIRCLE('',#905,2.);
#376=CIRCLE('',#907,2.);
#377=CIRCLE('',#908,2.);
#378=CIRCLE('',#915,24.);
#379=CIRCLE('',#916,24.);
#380=CIRCLE('',#919,24.);
#381=CIRCLE('',#920,24.);
#382=CIRCLE('',#927,2.1);
#383=CIRCLE('',#928,2.1);
#384=CIRCLE('',#932,2.1);
#385=CIRCLE('',#934,2.1);
#386=VERTEX_POINT('',#1178);
#387=VERTEX_POINT('',#1180);
#388=VERTEX_POINT('',#1184);
#389=VERTEX_POINT('',#1185);
#390=VERTEX_POINT('',#1187);
#391=VERTEX_POINT('',#1189);
#392=VERTEX_POINT('',#1193);
#393=VERTEX_POINT('',#1195);
#394=VERTEX_POINT('',#1199);
#395=VERTEX_POINT('',#1201);
#396=VERTEX_POINT('',#1205);
#397=VERTEX_POINT('',#1206);
#398=VERTEX_POINT('',#1208);
#399=VERTEX_POINT('',#1210);
#400=VERTEX_POINT('',#1214);
#401=VERTEX_POINT('',#1216);
#402=VERTEX_POINT('',#1220);
#403=VERTEX_POINT('',#1222);
#404=VERTEX_POINT('',#1224);
#405=VERTEX_POINT('',#1226);
#406=VERTEX_POINT('',#1230);
#407=VERTEX_POINT('',#1232);
#408=VERTEX_POINT('',#1234);
#409=VERTEX_POINT('',#1236);
#410=VERTEX_POINT('',#1240);
#411=VERTEX_POINT('',#1244);
#412=VERTEX_POINT('',#1246);
#413=VERTEX_POINT('',#1248);
#414=VERTEX_POINT('',#1250);
#415=VERTEX_POINT('',#1253);
#416=VERTEX_POINT('',#1255);
#417=VERTEX_POINT('',#1258);
#418=VERTEX_POINT('',#1259);
#419=VERTEX_POINT('',#1261);
#420=VERTEX_POINT('',#1263);
#421=VERTEX_POINT('',#1267);
#422=VERTEX_POINT('',#1269);
#423=VERTEX_POINT('',#1271);
#424=VERTEX_POINT('',#1273);
#425=VERTEX_POINT('',#1275);
#426=VERTEX_POINT('',#1279);
#427=VERTEX_POINT('',#1280);
#428=VERTEX_POINT('',#1282);
#429=VERTEX_POINT('',#1284);
#430=VERTEX_POINT('',#1288);
#431=VERTEX_POINT('',#1290);
#432=VERTEX_POINT('',#1294);
#433=VERTEX_POINT('',#1296);
#434=VERTEX_POINT('',#1300);
#435=VERTEX_POINT('',#1302);
#436=VERTEX_POINT('',#1305);
#437=VERTEX_POINT('',#1307);
#438=VERTEX_POINT('',#1309);
#439=VERTEX_POINT('',#1313);
#440=VERTEX_POINT('',#1314);
#441=VERTEX_POINT('',#1316);
#442=VERTEX_POINT('',#1318);
#443=VERTEX_POINT('',#1322);
#444=VERTEX_POINT('',#1324);
#445=VERTEX_POINT('',#1328);
#446=VERTEX_POINT('',#1330);
#447=VERTEX_POINT('',#1337);
#448=VERTEX_POINT('',#1339);
#449=VERTEX_POINT('',#1342);
#450=VERTEX_POINT('',#1344);
#451=VERTEX_POINT('',#1348);
#452=VERTEX_POINT('',#1352);
#453=VERTEX_POINT('',#1356);
#454=VERTEX_POINT('',#1360);
#455=VERTEX_POINT('',#1367);
#456=VERTEX_POINT('',#1368);
#457=VERTEX_POINT('',#1373);
#458=VERTEX_POINT('',#1377);
#459=VERTEX_POINT('',#1387);
#460=VERTEX_POINT('',#1389);
#461=VERTEX_POINT('',#1393);
#462=VERTEX_POINT('',#1397);
#463=VERTEX_POINT('',#1399);
#464=VERTEX_POINT('',#1408);
#465=VERTEX_POINT('',#1410);
#466=EDGE_CURVE('',#386,#386,#366,.T.);
#467=EDGE_CURVE('',#386,#387,#166,.T.);
#468=EDGE_CURVE('',#387,#387,#367,.T.);
#469=EDGE_CURVE('',#388,#389,#167,.T.);
#470=EDGE_CURVE('',#390,#388,#368,.T.);
#471=EDGE_CURVE('',#391,#390,#168,.T.);
#472=EDGE_CURVE('',#389,#391,#369,.T.);
#473=EDGE_CURVE('',#392,#392,#370,.T.);
#474=EDGE_CURVE('',#392,#393,#169,.T.);
#475=EDGE_CURVE('',#393,#393,#371,.T.);
#476=EDGE_CURVE('',#394,#394,#372,.T.);
#477=EDGE_CURVE('',#394,#395,#170,.T.);
#478=EDGE_CURVE('',#395,#395,#373,.T.);
#479=EDGE_CURVE('',#396,#397,#171,.T.);
#480=EDGE_CURVE('',#398,#396,#374,.T.);
#481=EDGE_CURVE('',#399,#398,#172,.T.);
#482=EDGE_CURVE('',#397,#399,#375,.T.);
#483=EDGE_CURVE('',#400,#400,#376,.T.);
#484=EDGE_CURVE('',#400,#401,#173,.T.);
#485=EDGE_CURVE('',#401,#401,#377,.T.);
#486=EDGE_CURVE('',#402,#388,#174,.T.);
#487=EDGE_CURVE('',#403,#402,#175,.T.);
#488=EDGE_CURVE('',#403,#404,#176,.T.);
#489=EDGE_CURVE('',#404,#405,#177,.T.);
#490=EDGE_CURVE('',#390,#405,#178,.T.);
#491=EDGE_CURVE('',#406,#396,#179,.T.);
#492=EDGE_CURVE('',#407,#406,#180,.T.);
#493=EDGE_CURVE('',#408,#407,#181,.T.);
#494=EDGE_CURVE('',#408,#409,#182,.T.);
#495=EDGE_CURVE('',#398,#409,#183,.T.);
#496=EDGE_CURVE('',#397,#410,#184,.T.);
#497=EDGE_CURVE('',#406,#410,#185,.T.);
#498=EDGE_CURVE('',#389,#411,#186,.T.);
#499=EDGE_CURVE('',#411,#412,#187,.T.);
#500=EDGE_CURVE('',#413,#412,#188,.T.);
#501=EDGE_CURVE('',#413,#414,#189,.T.);
#502=EDGE_CURVE('',#414,#399,#190,.T.);
#503=EDGE_CURVE('',#409,#415,#191,.T.);
#504=EDGE_CURVE('',#416,#415,#192,.T.);
#505=EDGE_CURVE('',#416,#402,#193,.T.);
#506=EDGE_CURVE('',#417,#418,#194,.T.);
#507=EDGE_CURVE('',#418,#419,#195,.T.);
#508=EDGE_CURVE('',#419,#420,#196,.T.);
#509=EDGE_CURVE('',#420,#417,#197,.T.);
#510=EDGE_CURVE('',#405,#421,#198,.T.);
#511=EDGE_CURVE('',#422,#421,#199,.T.);
#512=EDGE_CURVE('',#423,#422,#200,.T.);
#513=EDGE_CURVE('',#424,#423,#201,.T.);
#514=EDGE_CURVE('',#424,#425,#202,.T.);
#515=EDGE_CURVE('',#425,#391,#203,.T.);
#516=EDGE_CURVE('',#426,#427,#378,.T.);
#517=EDGE_CURVE('',#427,#428,#204,.T.);
#518=EDGE_CURVE('',#428,#429,#379,.T.);
#519=EDGE_CURVE('',#426,#429,#205,.T.);
#520=EDGE_CURVE('',#430,#428,#206,.T.);
#521=EDGE_CURVE('',#430,#431,#207,.T.);
#522=EDGE_CURVE('',#429,#431,#208,.T.);
#523=EDGE_CURVE('',#423,#432,#380,.T.);
#524=EDGE_CURVE('',#433,#422,#381,.T.);
#525=EDGE_CURVE('',#432,#433,#209,.T.);
#526=EDGE_CURVE('',#421,#434,#210,.T.);
#527=EDGE_CURVE('',#434,#435,#211,.T.);
#528=EDGE_CURVE('',#435,#416,#212,.T.);
#529=EDGE_CURVE('',#415,#436,#213,.T.);
#530=EDGE_CURVE('',#436,#437,#214,.T.);
#531=EDGE_CURVE('',#437,#438,#215,.T.);
#532=EDGE_CURVE('',#433,#438,#216,.T.);
#533=EDGE_CURVE('',#439,#440,#217,.T.);
#534=EDGE_CURVE('',#439,#441,#218,.T.);
#535=EDGE_CURVE('',#441,#442,#219,.T.);
#536=EDGE_CURVE('',#440,#442,#220,.T.);
#537=EDGE_CURVE('',#443,#439,#221,.T.);
#538=EDGE_CURVE('',#443,#444,#222,.T.);
#539=EDGE_CURVE('',#444,#441,#223,.T.);
#540=EDGE_CURVE('',#445,#443,#224,.T.);
#541=EDGE_CURVE('',#445,#446,#225,.T.);
#542=EDGE_CURVE('',#446,#444,#226,.T.);
#543=EDGE_CURVE('',#440,#445,#227,.T.);
#544=EDGE_CURVE('',#442,#446,#228,.T.);
#545=EDGE_CURVE('',#447,#447,#382,.T.);
#546=EDGE_CURVE('',#448,#448,#383,.T.);
#547=EDGE_CURVE('',#418,#449,#229,.T.);
#548=EDGE_CURVE('',#450,#449,#230,.T.);
#549=EDGE_CURVE('',#419,#450,#231,.T.);
#550=EDGE_CURVE('',#417,#451,#232,.T.);
#551=EDGE_CURVE('',#449,#451,#233,.T.);
#552=EDGE_CURVE('',#452,#452,#384,.T.);
#553=EDGE_CURVE('',#452,#448,#234,.T.);
#554=EDGE_CURVE('',#453,#453,#385,.T.);
#555=EDGE_CURVE('',#453,#447,#235,.T.);
#556=EDGE_CURVE('',#454,#450,#236,.T.);
#557=EDGE_CURVE('',#420,#454,#237,.T.);
#558=EDGE_CURVE('',#451,#454,#238,.T.);
#559=EDGE_CURVE('',#455,#456,#239,.T.);
#560=EDGE_CURVE('',#412,#455,#240,.T.);
#561=EDGE_CURVE('',#456,#411,#241,.T.);
#562=EDGE_CURVE('',#457,#425,#242,.T.);
#563=EDGE_CURVE('',#456,#457,#243,.T.);
#564=EDGE_CURVE('',#457,#458,#244,.T.);
#565=EDGE_CURVE('',#458,#424,#245,.T.);
#566=EDGE_CURVE('',#404,#434,#246,.T.);
#567=EDGE_CURVE('',#435,#403,#247,.T.);
#568=EDGE_CURVE('',#436,#408,#248,.T.);
#569=EDGE_CURVE('',#459,#414,#249,.T.);
#570=EDGE_CURVE('',#459,#460,#250,.T.);
#571=EDGE_CURVE('',#410,#460,#251,.T.);
#572=EDGE_CURVE('',#461,#459,#252,.T.);
#573=EDGE_CURVE('',#461,#413,#253,.T.);
#574=EDGE_CURVE('',#462,#432,#254,.T.);
#575=EDGE_CURVE('',#463,#462,#255,.T.);
#576=EDGE_CURVE('',#463,#461,#256,.T.);
#577=EDGE_CURVE('',#455,#458,#257,.T.);
#578=EDGE_CURVE('',#460,#463,#258,.T.);
#579=EDGE_CURVE('',#438,#462,#259,.T.);
#580=EDGE_CURVE('',#437,#407,#260,.T.);
#581=EDGE_CURVE('',#464,#430,#261,.T.);
#582=EDGE_CURVE('',#464,#465,#262,.T.);
#583=EDGE_CURVE('',#431,#465,#263,.T.);
#584=EDGE_CURVE('',#465,#426,#264,.T.);
#585=EDGE_CURVE('',#427,#464,#265,.T.);
#586=ORIENTED_EDGE('',*,*,#466,.F.);
#587=ORIENTED_EDGE('',*,*,#467,.T.);
#588=ORIENTED_EDGE('',*,*,#468,.F.);
#589=ORIENTED_EDGE('',*,*,#467,.F.);
#590=ORIENTED_EDGE('',*,*,#469,.F.);
#591=ORIENTED_EDGE('',*,*,#470,.F.);
#592=ORIENTED_EDGE('',*,*,#471,.F.);
#593=ORIENTED_EDGE('',*,*,#472,.F.);
#594=ORIENTED_EDGE('',*,*,#473,.F.);
#595=ORIENTED_EDGE('',*,*,#474,.T.);
#596=ORIENTED_EDGE('',*,*,#475,.F.);
#597=ORIENTED_EDGE('',*,*,#474,.F.);
#598=ORIENTED_EDGE('',*,*,#476,.F.);
#599=ORIENTED_EDGE('',*,*,#477,.T.);
#600=ORIENTED_EDGE('',*,*,#478,.F.);
#601=ORIENTED_EDGE('',*,*,#477,.F.);
#602=ORIENTED_EDGE('',*,*,#479,.F.);
#603=ORIENTED_EDGE('',*,*,#480,.F.);
#604=ORIENTED_EDGE('',*,*,#481,.F.);
#605=ORIENTED_EDGE('',*,*,#482,.F.);
#606=ORIENTED_EDGE('',*,*,#483,.F.);
#607=ORIENTED_EDGE('',*,*,#484,.T.);
#608=ORIENTED_EDGE('',*,*,#485,.F.);
#609=ORIENTED_EDGE('',*,*,#484,.F.);
#610=ORIENTED_EDGE('',*,*,#470,.T.);
#611=ORIENTED_EDGE('',*,*,#486,.F.);
#612=ORIENTED_EDGE('',*,*,#487,.F.);
#613=ORIENTED_EDGE('',*,*,#488,.T.);
#614=ORIENTED_EDGE('',*,*,#489,.T.);
#615=ORIENTED_EDGE('',*,*,#490,.F.);
#616=ORIENTED_EDGE('',*,*,#480,.T.);
#617=ORIENTED_EDGE('',*,*,#491,.F.);
#618=ORIENTED_EDGE('',*,*,#492,.F.);
#619=ORIENTED_EDGE('',*,*,#493,.F.);
#620=ORIENTED_EDGE('',*,*,#494,.T.);
#621=ORIENTED_EDGE('',*,*,#495,.F.);
#622=ORIENTED_EDGE('',*,*,#479,.T.);
#623=ORIENTED_EDGE('',*,*,#496,.T.);
#624=ORIENTED_EDGE('',*,*,#497,.F.);
#625=ORIENTED_EDGE('',*,*,#491,.T.);
#626=ORIENTED_EDGE('',*,*,#469,.T.);
#627=ORIENTED_EDGE('',*,*,#498,.T.);
#628=ORIENTED_EDGE('',*,*,#499,.T.);
#629=ORIENTED_EDGE('',*,*,#500,.F.);
#630=ORIENTED_EDGE('',*,*,#501,.T.);
#631=ORIENTED_EDGE('',*,*,#502,.T.);
#632=ORIENTED_EDGE('',*,*,#481,.T.);
#633=ORIENTED_EDGE('',*,*,#495,.T.);
#634=ORIENTED_EDGE('',*,*,#503,.T.);
#635=ORIENTED_EDGE('',*,*,#504,.F.);
#636=ORIENTED_EDGE('',*,*,#505,.T.);
#637=ORIENTED_EDGE('',*,*,#486,.T.);
#638=ORIENTED_EDGE('',*,*,#506,.T.);
#639=ORIENTED_EDGE('',*,*,#507,.T.);
#640=ORIENTED_EDGE('',*,*,#508,.T.);
#641=ORIENTED_EDGE('',*,*,#509,.T.);
#642=ORIENTED_EDGE('',*,*,#471,.T.);
#643=ORIENTED_EDGE('',*,*,#490,.T.);
#644=ORIENTED_EDGE('',*,*,#510,.T.);
#645=ORIENTED_EDGE('',*,*,#511,.F.);
#646=ORIENTED_EDGE('',*,*,#512,.F.);
#647=ORIENTED_EDGE('',*,*,#513,.F.);
#648=ORIENTED_EDGE('',*,*,#514,.T.);
#649=ORIENTED_EDGE('',*,*,#515,.T.);
#650=ORIENTED_EDGE('',*,*,#516,.T.);
#651=ORIENTED_EDGE('',*,*,#517,.T.);
#652=ORIENTED_EDGE('',*,*,#518,.T.);
#653=ORIENTED_EDGE('',*,*,#519,.F.);
#654=ORIENTED_EDGE('',*,*,#518,.F.);
#655=ORIENTED_EDGE('',*,*,#520,.F.);
#656=ORIENTED_EDGE('',*,*,#521,.T.);
#657=ORIENTED_EDGE('',*,*,#522,.F.);
#658=ORIENTED_EDGE('',*,*,#466,.T.);
#659=ORIENTED_EDGE('',*,*,#476,.T.);
#660=ORIENTED_EDGE('',*,*,#523,.F.);
#661=ORIENTED_EDGE('',*,*,#512,.T.);
#662=ORIENTED_EDGE('',*,*,#524,.F.);
#663=ORIENTED_EDGE('',*,*,#525,.F.);
#664=ORIENTED_EDGE('',*,*,#524,.T.);
#665=ORIENTED_EDGE('',*,*,#511,.T.);
#666=ORIENTED_EDGE('',*,*,#526,.T.);
#667=ORIENTED_EDGE('',*,*,#527,.T.);
#668=ORIENTED_EDGE('',*,*,#528,.T.);
#669=ORIENTED_EDGE('',*,*,#504,.T.);
#670=ORIENTED_EDGE('',*,*,#529,.T.);
#671=ORIENTED_EDGE('',*,*,#530,.T.);
#672=ORIENTED_EDGE('',*,*,#531,.T.);
#673=ORIENTED_EDGE('',*,*,#532,.F.);
#674=ORIENTED_EDGE('',*,*,#473,.T.);
#675=ORIENTED_EDGE('',*,*,#483,.T.);
#676=ORIENTED_EDGE('',*,*,#533,.F.);
#677=ORIENTED_EDGE('',*,*,#534,.T.);
#678=ORIENTED_EDGE('',*,*,#535,.T.);
#679=ORIENTED_EDGE('',*,*,#536,.F.);
#680=ORIENTED_EDGE('',*,*,#537,.F.);
#681=ORIENTED_EDGE('',*,*,#538,.T.);
#682=ORIENTED_EDGE('',*,*,#539,.T.);
#683=ORIENTED_EDGE('',*,*,#534,.F.);
#684=ORIENTED_EDGE('',*,*,#540,.F.);
#685=ORIENTED_EDGE('',*,*,#541,.T.);
#686=ORIENTED_EDGE('',*,*,#542,.T.);
#687=ORIENTED_EDGE('',*,*,#538,.F.);
#688=ORIENTED_EDGE('',*,*,#543,.F.);
#689=ORIENTED_EDGE('',*,*,#536,.T.);
#690=ORIENTED_EDGE('',*,*,#544,.T.);
#691=ORIENTED_EDGE('',*,*,#541,.F.);
#692=ORIENTED_EDGE('',*,*,#544,.F.);
#693=ORIENTED_EDGE('',*,*,#535,.F.);
#694=ORIENTED_EDGE('',*,*,#539,.F.);
#695=ORIENTED_EDGE('',*,*,#542,.F.);
#696=ORIENTED_EDGE('',*,*,#545,.F.);
#697=ORIENTED_EDGE('',*,*,#546,.F.);
#698=ORIENTED_EDGE('',*,*,#507,.F.);
#699=ORIENTED_EDGE('',*,*,#547,.T.);
#700=ORIENTED_EDGE('',*,*,#548,.F.);
#701=ORIENTED_EDGE('',*,*,#549,.F.);
#702=ORIENTED_EDGE('',*,*,#506,.F.);
#703=ORIENTED_EDGE('',*,*,#550,.T.);
#704=ORIENTED_EDGE('',*,*,#551,.F.);
#705=ORIENTED_EDGE('',*,*,#547,.F.);
#706=ORIENTED_EDGE('',*,*,#552,.F.);
#707=ORIENTED_EDGE('',*,*,#553,.T.);
#708=ORIENTED_EDGE('',*,*,#546,.T.);
#709=ORIENTED_EDGE('',*,*,#553,.F.);
#710=ORIENTED_EDGE('',*,*,#554,.F.);
#711=ORIENTED_EDGE('',*,*,#555,.T.);
#712=ORIENTED_EDGE('',*,*,#545,.T.);
#713=ORIENTED_EDGE('',*,*,#555,.F.);
#714=ORIENTED_EDGE('',*,*,#508,.F.);
#715=ORIENTED_EDGE('',*,*,#549,.T.);
#716=ORIENTED_EDGE('',*,*,#556,.F.);
#717=ORIENTED_EDGE('',*,*,#557,.F.);
#718=ORIENTED_EDGE('',*,*,#509,.F.);
#719=ORIENTED_EDGE('',*,*,#557,.T.);
#720=ORIENTED_EDGE('',*,*,#558,.F.);
#721=ORIENTED_EDGE('',*,*,#550,.F.);
#722=ORIENTED_EDGE('',*,*,#551,.T.);
#723=ORIENTED_EDGE('',*,*,#558,.T.);
#724=ORIENTED_EDGE('',*,*,#556,.T.);
#725=ORIENTED_EDGE('',*,*,#548,.T.);
#726=ORIENTED_EDGE('',*,*,#554,.T.);
#727=ORIENTED_EDGE('',*,*,#552,.T.);
#728=ORIENTED_EDGE('',*,*,#559,.F.);
#729=ORIENTED_EDGE('',*,*,#560,.F.);
#730=ORIENTED_EDGE('',*,*,#499,.F.);
#731=ORIENTED_EDGE('',*,*,#561,.F.);
#732=ORIENTED_EDGE('',*,*,#472,.T.);
#733=ORIENTED_EDGE('',*,*,#515,.F.);
#734=ORIENTED_EDGE('',*,*,#562,.F.);
#735=ORIENTED_EDGE('',*,*,#563,.F.);
#736=ORIENTED_EDGE('',*,*,#561,.T.);
#737=ORIENTED_EDGE('',*,*,#498,.F.);
#738=ORIENTED_EDGE('',*,*,#564,.F.);
#739=ORIENTED_EDGE('',*,*,#562,.T.);
#740=ORIENTED_EDGE('',*,*,#514,.F.);
#741=ORIENTED_EDGE('',*,*,#565,.F.);
#742=ORIENTED_EDGE('',*,*,#566,.T.);
#743=ORIENTED_EDGE('',*,*,#526,.F.);
#744=ORIENTED_EDGE('',*,*,#510,.F.);
#745=ORIENTED_EDGE('',*,*,#489,.F.);
#746=ORIENTED_EDGE('',*,*,#567,.T.);
#747=ORIENTED_EDGE('',*,*,#487,.T.);
#748=ORIENTED_EDGE('',*,*,#505,.F.);
#749=ORIENTED_EDGE('',*,*,#528,.F.);
#750=ORIENTED_EDGE('',*,*,#568,.F.);
#751=ORIENTED_EDGE('',*,*,#529,.F.);
#752=ORIENTED_EDGE('',*,*,#503,.F.);
#753=ORIENTED_EDGE('',*,*,#494,.F.);
#754=ORIENTED_EDGE('',*,*,#482,.T.);
#755=ORIENTED_EDGE('',*,*,#502,.F.);
#756=ORIENTED_EDGE('',*,*,#569,.F.);
#757=ORIENTED_EDGE('',*,*,#570,.T.);
#758=ORIENTED_EDGE('',*,*,#571,.F.);
#759=ORIENTED_EDGE('',*,*,#496,.F.);
#760=ORIENTED_EDGE('',*,*,#572,.T.);
#761=ORIENTED_EDGE('',*,*,#569,.T.);
#762=ORIENTED_EDGE('',*,*,#501,.F.);
#763=ORIENTED_EDGE('',*,*,#573,.F.);
#764=ORIENTED_EDGE('',*,*,#523,.T.);
#765=ORIENTED_EDGE('',*,*,#574,.F.);
#766=ORIENTED_EDGE('',*,*,#575,.F.);
#767=ORIENTED_EDGE('',*,*,#576,.T.);
#768=ORIENTED_EDGE('',*,*,#573,.T.);
#769=ORIENTED_EDGE('',*,*,#500,.T.);
#770=ORIENTED_EDGE('',*,*,#560,.T.);
#771=ORIENTED_EDGE('',*,*,#577,.T.);
#772=ORIENTED_EDGE('',*,*,#565,.T.);
#773=ORIENTED_EDGE('',*,*,#513,.T.);
#774=ORIENTED_EDGE('',*,*,#468,.T.);
#775=ORIENTED_EDGE('',*,*,#478,.T.);
#776=ORIENTED_EDGE('',*,*,#571,.T.);
#777=ORIENTED_EDGE('',*,*,#578,.T.);
#778=ORIENTED_EDGE('',*,*,#575,.T.);
#779=ORIENTED_EDGE('',*,*,#579,.F.);
#780=ORIENTED_EDGE('',*,*,#531,.F.);
#781=ORIENTED_EDGE('',*,*,#580,.T.);
#782=ORIENTED_EDGE('',*,*,#492,.T.);
#783=ORIENTED_EDGE('',*,*,#497,.T.);
#784=ORIENTED_EDGE('',*,*,#581,.F.);
#785=ORIENTED_EDGE('',*,*,#582,.T.);
#786=ORIENTED_EDGE('',*,*,#583,.F.);
#787=ORIENTED_EDGE('',*,*,#521,.F.);
#788=ORIENTED_EDGE('',*,*,#516,.F.);
#789=ORIENTED_EDGE('',*,*,#584,.F.);
#790=ORIENTED_EDGE('',*,*,#582,.F.);
#791=ORIENTED_EDGE('',*,*,#585,.F.);
#792=ORIENTED_EDGE('',*,*,#475,.T.);
#793=ORIENTED_EDGE('',*,*,#485,.T.);
#794=ORIENTED_EDGE('',*,*,#584,.T.);
#795=ORIENTED_EDGE('',*,*,#519,.T.);
#796=ORIENTED_EDGE('',*,*,#522,.T.);
#797=ORIENTED_EDGE('',*,*,#583,.T.);
#798=ORIENTED_EDGE('',*,*,#579,.T.);
#799=ORIENTED_EDGE('',*,*,#574,.T.);
#800=ORIENTED_EDGE('',*,*,#525,.T.);
#801=ORIENTED_EDGE('',*,*,#532,.T.);
#802=ORIENTED_EDGE('',*,*,#517,.F.);
#803=ORIENTED_EDGE('',*,*,#585,.T.);
#804=ORIENTED_EDGE('',*,*,#581,.T.);
#805=ORIENTED_EDGE('',*,*,#520,.T.);
#806=ORIENTED_EDGE('',*,*,#533,.T.);
#807=ORIENTED_EDGE('',*,*,#543,.T.);
#808=ORIENTED_EDGE('',*,*,#540,.T.);
#809=ORIENTED_EDGE('',*,*,#537,.T.);
#810=ORIENTED_EDGE('',*,*,#576,.F.);
#811=ORIENTED_EDGE('',*,*,#578,.F.);
#812=ORIENTED_EDGE('',*,*,#570,.F.);
#813=ORIENTED_EDGE('',*,*,#572,.F.);
#814=ORIENTED_EDGE('',*,*,#559,.T.);
#815=ORIENTED_EDGE('',*,*,#563,.T.);
#816=ORIENTED_EDGE('',*,*,#564,.T.);
#817=ORIENTED_EDGE('',*,*,#577,.F.);
#818=ORIENTED_EDGE('',*,*,#566,.F.);
#819=ORIENTED_EDGE('',*,*,#488,.F.);
#820=ORIENTED_EDGE('',*,*,#567,.F.);
#821=ORIENTED_EDGE('',*,*,#527,.F.);
#822=ORIENTED_EDGE('',*,*,#568,.T.);
#823=ORIENTED_EDGE('',*,*,#493,.T.);
#824=ORIENTED_EDGE('',*,*,#580,.F.);
#825=ORIENTED_EDGE('',*,*,#530,.F.);
#826=CYLINDRICAL_SURFACE('',#891,2.);
#827=CYLINDRICAL_SURFACE('',#894,2.);
#828=CYLINDRICAL_SURFACE('',#897,2.);
#829=CYLINDRICAL_SURFACE('',#900,2.);
#830=CYLINDRICAL_SURFACE('',#903,2.);
#831=CYLINDRICAL_SURFACE('',#906,2.);
#832=CYLINDRICAL_SURFACE('',#914,24.);
#833=CYLINDRICAL_SURFACE('',#918,24.);
#834=CYLINDRICAL_SURFACE('',#931,2.1);
#835=CYLINDRICAL_SURFACE('',#933,2.1);
#836=ADVANCED_FACE('',(#65),#826,.F.);
#837=ADVANCED_FACE('',(#66),#827,.F.);
#838=ADVANCED_FACE('',(#67),#828,.F.);
#839=ADVANCED_FACE('',(#68),#829,.F.);
#840=ADVANCED_FACE('',(#69),#830,.F.);
#841=ADVANCED_FACE('',(#70),#831,.F.);
#842=ADVANCED_FACE('',(#71),#34,.T.);
#843=ADVANCED_FACE('',(#72),#35,.T.);
#844=ADVANCED_FACE('',(#73),#36,.T.);
#845=ADVANCED_FACE('',(#74,#15),#37,.T.);
#846=ADVANCED_FACE('',(#75),#38,.T.);
#847=ADVANCED_FACE('',(#76),#832,.T.);
#848=ADVANCED_FACE('',(#77,#16,#17),#39,.T.);
#849=ADVANCED_FACE('',(#78),#833,.F.);
#850=ADVANCED_FACE('',(#79,#18,#19),#40,.T.);
#851=ADVANCED_FACE('',(#80),#41,.F.);
#852=ADVANCED_FACE('',(#81),#42,.F.);
#853=ADVANCED_FACE('',(#82),#43,.F.);
#854=ADVANCED_FACE('',(#83),#44,.F.);
#855=ADVANCED_FACE('',(#84,#20,#21),#45,.F.);
#856=ADVANCED_FACE('',(#85),#46,.T.);
#857=ADVANCED_FACE('',(#86),#47,.T.);
#858=ADVANCED_FACE('',(#87),#834,.F.);
#859=ADVANCED_FACE('',(#88),#835,.F.);
#860=ADVANCED_FACE('',(#89),#48,.T.);
#861=ADVANCED_FACE('',(#90),#49,.T.);
#862=ADVANCED_FACE('',(#91,#22,#23),#50,.T.);
#863=ADVANCED_FACE('',(#92),#51,.T.);
#864=ADVANCED_FACE('',(#93),#52,.T.);
#865=ADVANCED_FACE('',(#94),#53,.T.);
#866=ADVANCED_FACE('',(#95),#54,.T.);
#867=ADVANCED_FACE('',(#96),#55,.T.);
#868=ADVANCED_FACE('',(#97),#56,.T.);
#869=ADVANCED_FACE('',(#98),#57,.T.);
#870=ADVANCED_FACE('',(#99),#58,.T.);
#871=ADVANCED_FACE('',(#100,#24,#25),#59,.T.);
#872=ADVANCED_FACE('',(#101),#60,.T.);
#873=ADVANCED_FACE('',(#102),#61,.T.);
#874=ADVANCED_FACE('',(#103,#26,#27),#62,.T.);
#875=ADVANCED_FACE('',(#104,#28),#63,.T.);
#876=ADVANCED_FACE('',(#105,#29,#30,#31,#32,#33),#64,.F.);
#877=CLOSED_SHELL('',(#836,#837,#838,#839,#840,#841,#842,#843,#844,#845,
#846,#847,#848,#849,#850,#851,#852,#853,#854,#855,#856,#857,#858,#859,#860,
#861,#862,#863,#864,#865,#866,#867,#868,#869,#870,#871,#872,#873,#874,#875,
#876));
#878=DERIVED_UNIT_ELEMENT(#880,1.);
#879=DERIVED_UNIT_ELEMENT(#1423,-3.);
#880=(
MASS_UNIT()
NAMED_UNIT(*)
SI_UNIT(.KILO.,.GRAM.)
);
#881=DERIVED_UNIT((#878,#879));
#882=MEASURE_REPRESENTATION_ITEM('density measure',
POSITIVE_RATIO_MEASURE(7850.),#881);
#883=PROPERTY_DEFINITION_REPRESENTATION(#888,#885);
#884=PROPERTY_DEFINITION_REPRESENTATION(#889,#886);
#885=REPRESENTATION('material name',(#887),#1420);
#886=REPRESENTATION('density',(#882),#1420);
#887=DESCRIPTIVE_REPRESENTATION_ITEM('Steel','Steel');
#888=PROPERTY_DEFINITION('material property','material name',#1430);
#889=PROPERTY_DEFINITION('material property','density of part',#1430);
#890=AXIS2_PLACEMENT_3D('',#1176,#952,#953);
#891=AXIS2_PLACEMENT_3D('',#1177,#954,#955);
#892=AXIS2_PLACEMENT_3D('',#1179,#956,#957);
#893=AXIS2_PLACEMENT_3D('',#1182,#959,#960);
#894=AXIS2_PLACEMENT_3D('',#1183,#961,#962);
#895=AXIS2_PLACEMENT_3D('',#1188,#964,#965);
#896=AXIS2_PLACEMENT_3D('',#1191,#967,#968);
#897=AXIS2_PLACEMENT_3D('',#1192,#969,#970);
#898=AXIS2_PLACEMENT_3D('',#1194,#971,#972);
#899=AXIS2_PLACEMENT_3D('',#1197,#974,#975);
#900=AXIS2_PLACEMENT_3D('',#1198,#976,#977);
#901=AXIS2_PLACEMENT_3D('',#1200,#978,#979);
#902=AXIS2_PLACEMENT_3D('',#1203,#981,#982);
#903=AXIS2_PLACEMENT_3D('',#1204,#983,#984);
#904=AXIS2_PLACEMENT_3D('',#1209,#986,#987);
#905=AXIS2_PLACEMENT_3D('',#1212,#989,#990);
#906=AXIS2_PLACEMENT_3D('',#1213,#991,#992);
#907=AXIS2_PLACEMENT_3D('',#1215,#993,#994);
#908=AXIS2_PLACEMENT_3D('',#1218,#996,#997);
#909=AXIS2_PLACEMENT_3D('',#1219,#998,#999);
#910=AXIS2_PLACEMENT_3D('',#1229,#1005,#1006);
#911=AXIS2_PLACEMENT_3D('',#1239,#1012,#1013);
#912=AXIS2_PLACEMENT_3D('',#1243,#1016,#1017);
#913=AXIS2_PLACEMENT_3D('',#1266,#1030,#1031);
#914=AXIS2_PLACEMENT_3D('',#1278,#1038,#1039);
#915=AXIS2_PLACEMENT_3D('',#1281,#1040,#1041);
#916=AXIS2_PLACEMENT_3D('',#1285,#1043,#1044);
#917=AXIS2_PLACEMENT_3D('',#1287,#1046,#1047);
#918=AXIS2_PLACEMENT_3D('',#1293,#1051,#1052);
#919=AXIS2_PLACEMENT_3D('',#1295,#1053,#1054);
#920=AXIS2_PLACEMENT_3D('',#1297,#1055,#1056);
#921=AXIS2_PLACEMENT_3D('',#1299,#1058,#1059);
#922=AXIS2_PLACEMENT_3D('',#1312,#1067,#1068);
#923=AXIS2_PLACEMENT_3D('',#1321,#1073,#1074);
#924=AXIS2_PLACEMENT_3D('',#1327,#1078,#1079);
#925=AXIS2_PLACEMENT_3D('',#1333,#1083,#1084);
#926=AXIS2_PLACEMENT_3D('',#1336,#1087,#1088);
#927=AXIS2_PLACEMENT_3D('',#1338,#1089,#1090);
#928=AXIS2_PLACEMENT_3D('',#1340,#1091,#1092);
#929=AXIS2_PLACEMENT_3D('',#1341,#1093,#1094);
#930=AXIS2_PLACEMENT_3D('',#1347,#1098,#1099);
#931=AXIS2_PLACEMENT_3D('',#1351,#1102,#1103);
#932=AXIS2_PLACEMENT_3D('',#1353,#1104,#1105);
#933=AXIS2_PLACEMENT_3D('',#1355,#1107,#1108);
#934=AXIS2_PLACEMENT_3D('',#1357,#1109,#1110);
#935=AXIS2_PLACEMENT_3D('',#1359,#1112,#1113);
#936=AXIS2_PLACEMENT_3D('',#1363,#1116,#1117);
#937=AXIS2_PLACEMENT_3D('',#1365,#1119,#1120);
#938=AXIS2_PLACEMENT_3D('',#1366,#1121,#1122);
#939=AXIS2_PLACEMENT_3D('',#1372,#1126,#1127);
#940=AXIS2_PLACEMENT_3D('',#1376,#1130,#1131);
#941=AXIS2_PLACEMENT_3D('',#1380,#1134,#1135);
#942=AXIS2_PLACEMENT_3D('',#1382,#1137,#1138);
#943=AXIS2_PLACEMENT_3D('',#1384,#1140,#1141);
#944=AXIS2_PLACEMENT_3D('',#1386,#1143,#1144);
#945=AXIS2_PLACEMENT_3D('',#1392,#1148,#1149);
#946=AXIS2_PLACEMENT_3D('',#1396,#1152,#1153);
#947=AXIS2_PLACEMENT_3D('',#1403,#1158,#1159);
#948=AXIS2_PLACEMENT_3D('',#1407,#1163,#1164);
#949=AXIS2_PLACEMENT_3D('',#1413,#1168,#1169);
#950=AXIS2_PLACEMENT_3D('',#1416,#1172,#1173);
#951=AXIS2_PLACEMENT_3D('',#1417,#1174,#1175);
#952=DIRECTION('axis',(0.,0.,1.));
#953=DIRECTION('refdir',(1.,0.,0.));
#954=DIRECTION('center_axis',(0.,1.,0.));
#955=DIRECTION('ref_axis',(1.,0.,0.));
#956=DIRECTION('center_axis',(0.,1.,0.));
#957=DIRECTION('ref_axis',(1.,0.,0.));
#958=DIRECTION('',(0.,1.,0.));
#959=DIRECTION('center_axis',(0.,-1.,0.));
#960=DIRECTION('ref_axis',(1.,0.,0.));
#961=DIRECTION('center_axis',(0.,1.,0.));
#962=DIRECTION('ref_axis',(1.,0.,0.));
#963=DIRECTION('',(0.,-1.,0.));
#964=DIRECTION('center_axis',(0.,-1.,0.));
#965=DIRECTION('ref_axis',(1.,0.,0.));
#966=DIRECTION('',(0.,1.,0.));
#967=DIRECTION('center_axis',(0.,1.,0.));
#968=DIRECTION('ref_axis',(1.,0.,0.));
#969=DIRECTION('center_axis',(0.,1.,0.));
#970=DIRECTION('ref_axis',(1.,0.,0.));
#971=DIRECTION('center_axis',(0.,1.,0.));
#972=DIRECTION('ref_axis',(1.,0.,0.));
#973=DIRECTION('',(0.,1.,0.));
#974=DIRECTION('center_axis',(0.,-1.,0.));
#975=DIRECTION('ref_axis',(1.,0.,0.));
#976=DIRECTION('center_axis',(0.,1.,0.));
#977=DIRECTION('ref_axis',(1.,0.,0.));
#978=DIRECTION('center_axis',(0.,1.,0.));
#979=DIRECTION('ref_axis',(1.,0.,0.));
#980=DIRECTION('',(0.,1.,0.));
#981=DIRECTION('center_axis',(0.,-1.,0.));
#982=DIRECTION('ref_axis',(1.,0.,0.));
#983=DIRECTION('center_axis',(0.,1.,0.));
#984=DIRECTION('ref_axis',(1.,0.,0.));
#985=DIRECTION('',(0.,-1.,0.));
#986=DIRECTION('center_axis',(0.,-1.,0.));
#987=DIRECTION('ref_axis',(1.,0.,0.));
#988=DIRECTION('',(0.,1.,0.));
#989=DIRECTION('center_axis',(0.,1.,0.));
#990=DIRECTION('ref_axis',(1.,0.,0.));
#991=DIRECTION('center_axis',(0.,1.,0.));
#992=DIRECTION('ref_axis',(1.,0.,0.));
#993=DIRECTION('center_axis',(0.,1.,0.));
#994=DIRECTION('ref_axis',(1.,0.,0.));
#995=DIRECTION('',(0.,1.,0.));
#996=DIRECTION('center_axis',(0.,-1.,0.));
#997=DIRECTION('ref_axis',(1.,0.,0.));
#998=DIRECTION('center_axis',(0.,1.,0.));
#999=DIRECTION('ref_axis',(-1.,0.,0.));
#1000=DIRECTION('',(-1.,0.,0.));
#1001=DIRECTION('',(0.,0.,1.));
#1002=DIRECTION('',(-1.,0.,0.));
#1003=DIRECTION('',(0.,0.,1.));
#1004=DIRECTION('',(-1.,0.,0.));
#1005=DIRECTION('center_axis',(0.,1.,0.));
#1006=DIRECTION('ref_axis',(-1.,0.,0.));
#1007=DIRECTION('',(-1.,0.,0.));
#1008=DIRECTION('',(0.,0.,1.));
#1009=DIRECTION('',(1.,0.,0.));
#1010=DIRECTION('',(0.,0.,1.));
#1011=DIRECTION('',(-1.,0.,0.));
#1012=DIRECTION('center_axis',(0.,0.,1.));
#1013=DIRECTION('ref_axis',(1.,0.,0.));
#1014=DIRECTION('',(1.,0.,0.));
#1015=DIRECTION('',(0.,-1.,0.));
#1016=DIRECTION('center_axis',(0.,0.,1.));
#1017=DIRECTION('ref_axis',(1.,0.,0.));
#1018=DIRECTION('',(1.,0.,0.));
#1019=DIRECTION('',(0.,-1.,0.));
#1020=DIRECTION('',(-1.,0.,0.));
#1021=DIRECTION('',(0.,1.,0.));
#1022=DIRECTION('',(1.,0.,0.));
#1023=DIRECTION('',(0.,1.,0.));
#1024=DIRECTION('',(1.,0.,0.));
#1025=DIRECTION('',(0.,-1.,0.));
#1026=DIRECTION('',(-1.,0.,0.));
#1027=DIRECTION('',(0.,1.,0.));
#1028=DIRECTION('',(1.,0.,0.));
#1029=DIRECTION('',(0.,-1.,0.));
#1030=DIRECTION('center_axis',(0.,0.,1.));
#1031=DIRECTION('ref_axis',(1.,0.,0.));
#1032=DIRECTION('',(0.,1.,0.));
#1033=DIRECTION('',(1.,0.,0.));
#1034=DIRECTION('',(0.,1.,0.));
#1035=DIRECTION('',(-1.,0.,0.));
#1036=DIRECTION('',(0.,1.,0.));
#1037=DIRECTION('',(1.,0.,0.));
#1038=DIRECTION('center_axis',(0.,-1.,0.));
#1039=DIRECTION('ref_axis',(-0.812232862067414,0.,-0.583333333333334));
#1040=DIRECTION('center_axis',(0.,-1.,0.));
#1041=DIRECTION('ref_axis',(-0.812232862067414,0.,-0.583333333333334));
#1042=DIRECTION('',(0.,-1.,0.));
#1043=DIRECTION('center_axis',(0.,1.,0.));
#1044=DIRECTION('ref_axis',(-0.812232862067414,0.,-0.583333333333334));
#1045=DIRECTION('',(0.,-1.,0.));
#1046=DIRECTION('center_axis',(0.,-1.,0.));
#1047=DIRECTION('ref_axis',(1.,0.,0.));
#1048=DIRECTION('',(-1.,0.,0.));
#1049=DIRECTION('',(0.,0.,1.));
#1050=DIRECTION('',(1.,0.,0.));
#1051=DIRECTION('center_axis',(0.,-1.,0.));
#1052=DIRECTION('ref_axis',(-0.705878097754059,0.,-0.708333333333333));
#1053=DIRECTION('center_axis',(0.,1.,0.));
#1054=DIRECTION('ref_axis',(-0.705878097754059,0.,-0.708333333333333));
#1055=DIRECTION('center_axis',(0.,-1.,0.));
#1056=DIRECTION('ref_axis',(-0.705878097754059,0.,-0.708333333333333));
#1057=DIRECTION('',(0.,1.,0.));
#1058=DIRECTION('center_axis',(0.,-1.,0.));
#1059=DIRECTION('ref_axis',(1.,0.,0.));
#1060=DIRECTION('',(0.,0.,-1.));
#1061=DIRECTION('',(1.,0.,0.));
#1062=DIRECTION('',(0.,0.,1.));
#1063=DIRECTION('',(0.,0.,-1.));
#1064=DIRECTION('',(1.,0.,0.));
#1065=DIRECTION('',(0.,0.,1.));
#1066=DIRECTION('',(1.,0.,0.));
#1067=DIRECTION('center_axis',(1.,-7.40148683083438E-16,0.));
#1068=DIRECTION('ref_axis',(7.40148683083438E-16,1.,0.));
#1069=DIRECTION('',(7.40148683083438E-16,1.,0.));
#1070=DIRECTION('',(0.,0.,1.));
#1071=DIRECTION('',(7.40148683083438E-16,1.,0.));
#1072=DIRECTION('',(0.,0.,1.));
#1073=DIRECTION('center_axis',(0.,-1.,0.));
#1074=DIRECTION('ref_axis',(1.,0.,0.));
#1075=DIRECTION('',(1.,0.,0.));
#1076=DIRECTION('',(0.,0.,1.));
#1077=DIRECTION('',(1.,0.,0.));
#1078=DIRECTION('center_axis',(-1.,-3.70074341541719E-16,0.));
#1079=DIRECTION('ref_axis',(3.70074341541719E-16,-1.,0.));
#1080=DIRECTION('',(3.70074341541719E-16,-1.,0.));
#1081=DIRECTION('',(0.,0.,1.));
#1082=DIRECTION('',(3.70074341541719E-16,-1.,0.));
#1083=DIRECTION('center_axis',(0.,1.,0.));
#1084=DIRECTION('ref_axis',(-1.,0.,0.));
#1085=DIRECTION('',(-1.,0.,0.));
#1086=DIRECTION('',(-1.,0.,0.));
#1087=DIRECTION('center_axis',(0.,0.,1.));
#1088=DIRECTION('ref_axis',(1.,0.,0.));
#1089=DIRECTION('center_axis',(0.,0.,-1.));
#1090=DIRECTION('ref_axis',(1.,0.,0.));
#1091=DIRECTION('center_axis',(0.,0.,-1.));
#1092=DIRECTION('ref_axis',(1.,0.,0.));
#1093=DIRECTION('center_axis',(-1.,0.,0.));
#1094=DIRECTION('ref_axis',(0.,-1.,0.));
#1095=DIRECTION('',(0.,0.,1.));
#1096=DIRECTION('',(0.,-1.,0.));
#1097=DIRECTION('',(0.,0.,1.));
#1098=DIRECTION('center_axis',(0.,-1.,0.));
#1099=DIRECTION('ref_axis',(1.,0.,0.));
#1100=DIRECTION('',(0.,0.,1.));
#1101=DIRECTION('',(1.,0.,0.));
#1102=DIRECTION('center_axis',(0.,0.,1.));
#1103=DIRECTION('ref_axis',(1.,0.,0.));
#1104=DIRECTION('center_axis',(0.,0.,-1.));
#1105=DIRECTION('ref_axis',(1.,0.,0.));
#1106=DIRECTION('',(0.,0.,-1.));
#1107=DIRECTION('center_axis',(0.,0.,1.));
#1108=DIRECTION('ref_axis',(1.,0.,0.));
#1109=DIRECTION('center_axis',(0.,0.,-1.));
#1110=DIRECTION('ref_axis',(1.,0.,0.));
#1111=DIRECTION('',(0.,0.,-1.));
#1112=DIRECTION('center_axis',(0.,1.,0.));
#1113=DIRECTION('ref_axis',(-1.,0.,0.));
#1114=DIRECTION('',(-1.,0.,0.));
#1115=DIRECTION('',(0.,0.,1.));
#1116=DIRECTION('center_axis',(1.,0.,0.));
#1117=DIRECTION('ref_axis',(0.,1.,0.));
#1118=DIRECTION('',(0.,1.,0.));
#1119=DIRECTION('center_axis',(0.,0.,1.));
#1120=DIRECTION('ref_axis',(1.,0.,0.));
#1121=DIRECTION('center_axis',(-1.,0.,0.));
#1122=DIRECTION('ref_axis',(0.,-1.,0.));
#1123=DIRECTION('',(0.,1.,0.));
#1124=DIRECTION('',(0.,0.,-1.));
#1125=DIRECTION('',(0.,0.,1.));
#1126=DIRECTION('center_axis',(0.,-1.,0.));
#1127=DIRECTION('ref_axis',(1.,0.,0.));
#1128=DIRECTION('',(0.,0.,1.));
#1129=DIRECTION('',(-1.,0.,0.));
#1130=DIRECTION('center_axis',(1.,0.,0.));
#1131=DIRECTION('ref_axis',(0.,1.,0.));
#1132=DIRECTION('',(0.,-1.,0.));
#1133=DIRECTION('',(0.,0.,1.));
#1134=DIRECTION('center_axis',(1.,0.,0.));
#1135=DIRECTION('ref_axis',(0.,1.,0.));
#1136=DIRECTION('',(0.,1.,0.));
#1137=DIRECTION('center_axis',(-1.,0.,0.));
#1138=DIRECTION('ref_axis',(0.,-1.,0.));
#1139=DIRECTION('',(0.,-1.,0.));
#1140=DIRECTION('center_axis',(1.,0.,0.));
#1141=DIRECTION('ref_axis',(0.,1.,0.));
#1142=DIRECTION('',(0.,-1.,0.));
#1143=DIRECTION('center_axis',(0.,-1.,0.));
#1144=DIRECTION('ref_axis',(1.,0.,0.));
#1145=DIRECTION('',(0.,0.,1.));
#1146=DIRECTION('',(1.,0.,0.));
#1147=DIRECTION('',(0.,0.,-1.));
#1148=DIRECTION('center_axis',(1.,0.,0.));
#1149=DIRECTION('ref_axis',(0.,1.,0.));
#1150=DIRECTION('',(0.,1.,0.));
#1151=DIRECTION('',(0.,0.,1.));
#1152=DIRECTION('center_axis',(0.,1.,0.));
#1153=DIRECTION('ref_axis',(-1.,0.,0.));
#1154=DIRECTION('',(-1.,0.,0.));
#1155=DIRECTION('',(0.,0.,1.));
#1156=DIRECTION('',(-1.,0.,0.));
#1157=DIRECTION('',(-1.,0.,0.));
#1158=DIRECTION('center_axis',(-1.,0.,0.));
#1159=DIRECTION('ref_axis',(0.,-1.,0.));
#1160=DIRECTION('',(0.,-1.,0.));
#1161=DIRECTION('',(0.,-1.,0.));
#1162=DIRECTION('',(0.,-1.,0.));
#1163=DIRECTION('center_axis',(1.,0.,0.));
#1164=DIRECTION('ref_axis',(0.,1.,0.));
#1165=DIRECTION('',(0.,-1.,0.));
#1166=DIRECTION('',(0.,0.,1.));
#1167=DIRECTION('',(0.,1.,0.));
#1168=DIRECTION('center_axis',(0.,1.,0.));
#1169=DIRECTION('ref_axis',(-1.,0.,0.));
#1170=DIRECTION('',(-1.,0.,0.));
#1171=DIRECTION('',(1.,0.,0.));
#1172=DIRECTION('center_axis',(0.,0.,1.));
#1173=DIRECTION('ref_axis',(1.,0.,0.));
#1174=DIRECTION('center_axis',(0.,0.,1.));
#1175=DIRECTION('ref_axis',(1.,0.,0.));
#1176=CARTESIAN_POINT('',(0.,0.,0.));
#1177=CARTESIAN_POINT('Origin',(-41.2,-58.25,4.5));
#1178=CARTESIAN_POINT('',(-43.2,-58.25,4.5));
#1179=CARTESIAN_POINT('Origin',(-41.2,-58.25,4.5));
#1180=CARTESIAN_POINT('',(-43.2,-56.25,4.5));
#1181=CARTESIAN_POINT('',(-43.2,-58.25,4.5));
#1182=CARTESIAN_POINT('Origin',(-41.2,-56.25,4.5));
#1183=CARTESIAN_POINT('Origin',(-41.2,-58.25,4.5));
#1184=CARTESIAN_POINT('',(-39.8771243444677,11.7231584595208,3.));
#1185=CARTESIAN_POINT('',(-39.8771243444677,-11.7231584595208,3.));
#1186=CARTESIAN_POINT('',(-39.8771243444677,-58.25,3.));
#1187=CARTESIAN_POINT('',(-42.5228756555323,11.7231584595208,3.));
#1188=CARTESIAN_POINT('Origin',(-41.2,11.7231584595208,4.5));
#1189=CARTESIAN_POINT('',(-42.5228756555323,-11.7231584595208,3.));
#1190=CARTESIAN_POINT('',(-42.5228756555323,-58.25,3.));
#1191=CARTESIAN_POINT('Origin',(-41.2,-11.7231584595208,4.5));
#1192=CARTESIAN_POINT('Origin',(-41.2,-58.25,4.5));
#1193=CARTESIAN_POINT('',(-43.2,56.25,4.5));
#1194=CARTESIAN_POINT('Origin',(-41.2,56.25,4.5));
#1195=CARTESIAN_POINT('',(-43.2,58.25,4.5));
#1196=CARTESIAN_POINT('',(-43.2,-58.25,4.5));
#1197=CARTESIAN_POINT('Origin',(-41.2,58.25,4.5));
#1198=CARTESIAN_POINT('Origin',(33.8,-58.25,4.5));
#1199=CARTESIAN_POINT('',(31.8,-58.25,4.5));
#1200=CARTESIAN_POINT('Origin',(33.8,-58.25,4.5));
#1201=CARTESIAN_POINT('',(31.8,-56.25,4.5));
#1202=CARTESIAN_POINT('',(31.8,-58.25,4.5));
#1203=CARTESIAN_POINT('Origin',(33.8,-56.25,4.5));
#1204=CARTESIAN_POINT('Origin',(33.8,-58.25,4.5));
#1205=CARTESIAN_POINT('',(35.1228756555323,11.25,3.));
#1206=CARTESIAN_POINT('',(35.1228756555323,-11.25,3.));
#1207=CARTESIAN_POINT('',(35.1228756555323,-58.25,3.));
#1208=CARTESIAN_POINT('',(32.4771243444677,11.25,3.));
#1209=CARTESIAN_POINT('Origin',(33.8,11.25,4.5));
#1210=CARTESIAN_POINT('',(32.4771243444677,-11.25,3.));
#1211=CARTESIAN_POINT('',(32.4771243444677,-58.25,3.));
#1212=CARTESIAN_POINT('Origin',(33.8,-11.25,4.5));
#1213=CARTESIAN_POINT('Origin',(33.8,-58.25,4.5));
#1214=CARTESIAN_POINT('',(31.8,56.25,4.5));
#1215=CARTESIAN_POINT('Origin',(33.8,56.25,4.5));
#1216=CARTESIAN_POINT('',(31.8,58.25,4.5));
#1217=CARTESIAN_POINT('',(31.8,-58.25,4.5));
#1218=CARTESIAN_POINT('Origin',(33.8,58.25,4.5));
#1219=CARTESIAN_POINT('Origin',(-36.4364882546592,11.7231584595208,0.));
#1220=CARTESIAN_POINT('',(-36.4364882546592,11.7231584595208,3.));
#1221=CARTESIAN_POINT('',(-36.4364882546592,11.7231584595208,3.));
#1222=CARTESIAN_POINT('',(-36.4364882546592,11.7231584595208,0.));
#1223=CARTESIAN_POINT('',(-36.4364882546592,11.7231584595208,0.));
#1224=CARTESIAN_POINT('',(-51.6190292598024,11.7231584595208,0.));
#1225=CARTESIAN_POINT('',(-36.4364882546592,11.7231584595208,0.));
#1226=CARTESIAN_POINT('',(-51.6190292598024,11.7231584595208,3.));
#1227=CARTESIAN_POINT('',(-51.6190292598024,11.7231584595208,0.));
#1228=CARTESIAN_POINT('',(-36.4364882546592,11.7231584595208,3.));
#1229=CARTESIAN_POINT('Origin',(76.8,11.25,0.));
#1230=CARTESIAN_POINT('',(76.8,11.25,3.));
#1231=CARTESIAN_POINT('',(-20.0000002980232,11.25,3.));
#1232=CARTESIAN_POINT('',(76.8,11.25,0.));
#1233=CARTESIAN_POINT('',(76.8,11.25,0.));
#1234=CARTESIAN_POINT('',(-20.0000002980232,11.25,0.));
#1235=CARTESIAN_POINT('',(-20.0000002980232,11.25,0.));
#1236=CARTESIAN_POINT('',(-20.0000002980232,11.25,3.));
#1237=CARTESIAN_POINT('',(-20.0000002980232,11.25,0.));
#1238=CARTESIAN_POINT('',(-20.0000002980232,11.25,3.));
#1239=CARTESIAN_POINT('Origin',(0.,0.,3.));
#1240=CARTESIAN_POINT('',(76.8,-11.25,3.));
#1241=CARTESIAN_POINT('',(-20.0000002980232,-11.25,3.));
#1242=CARTESIAN_POINT('',(76.8,28.125,3.));
#1243=CARTESIAN_POINT('Origin',(0.,0.,3.));
#1244=CARTESIAN_POINT('',(-36.4364882546592,-11.7231584595208,3.));
#1245=CARTESIAN_POINT('',(-36.4364882546592,-11.7231584595208,3.));
#1246=CARTESIAN_POINT('',(-36.4364882546592,-56.25,3.));
#1247=CARTESIAN_POINT('',(-36.4364882546592,-56.25,3.));
#1248=CARTESIAN_POINT('',(-20.0000002980232,-56.25,3.));
#1249=CARTESIAN_POINT('',(38.4,-56.25,3.));
#1250=CARTESIAN_POINT('',(-20.0000002980232,-11.25,3.));
#1251=CARTESIAN_POINT('',(-20.0000002980232,-56.25,3.));
#1252=CARTESIAN_POINT('',(-20.0000002980232,-11.25,3.));
#1253=CARTESIAN_POINT('',(-20.0000002980232,56.25,3.));
#1254=CARTESIAN_POINT('',(-20.0000002980232,56.25,3.));
#1255=CARTESIAN_POINT('',(-36.4364882546592,56.25,3.));
#1256=CARTESIAN_POINT('',(-38.4,56.25,3.));
#1257=CARTESIAN_POINT('',(-36.4364882546592,56.25,3.));
#1258=CARTESIAN_POINT('',(-23.5,-8.25,3.));
#1259=CARTESIAN_POINT('',(-32.5,-8.25,3.));
#1260=CARTESIAN_POINT('',(-23.5,-8.25,3.));
#1261=CARTESIAN_POINT('',(-32.5,7.75,3.));
#1262=CARTESIAN_POINT('',(-32.5,-8.25,3.));
#1263=CARTESIAN_POINT('',(-23.5,7.75,3.));
#1264=CARTESIAN_POINT('',(-32.5,7.75,3.));
#1265=CARTESIAN_POINT('',(-23.5,7.75,3.));
#1266=CARTESIAN_POINT('Origin',(0.,0.,3.));
#1267=CARTESIAN_POINT('',(-51.6190292598024,56.25,3.));
#1268=CARTESIAN_POINT('',(-51.6190292598024,11.7231584595208,3.));
#1269=CARTESIAN_POINT('',(-59.8589256539026,56.25,3.));
#1270=CARTESIAN_POINT('',(-38.4,56.25,3.));
#1271=CARTESIAN_POINT('',(-59.8589256539026,-56.25,3.));
#1272=CARTESIAN_POINT('',(-59.8589256539026,-56.25,3.));
#1273=CARTESIAN_POINT('',(-51.6190292598024,-56.25,3.));
#1274=CARTESIAN_POINT('',(38.4,-56.25,3.));
#1275=CARTESIAN_POINT('',(-51.6190292598024,-11.7231584595208,3.));
#1276=CARTESIAN_POINT('',(-51.6190292598024,-11.7231584595208,3.));
#1277=CARTESIAN_POINT('',(-36.4364882546592,-11.7231584595208,3.));
#1278=CARTESIAN_POINT('Origin',(-59.3064113103821,-58.25,24.));
#1279=CARTESIAN_POINT('',(-78.8,58.25,10.));
#1280=CARTESIAN_POINT('',(-59.3064113103821,58.25,0.));
#1281=CARTESIAN_POINT('Origin',(-59.3064113103821,58.25,24.));
#1282=CARTESIAN_POINT('',(-59.3064113103821,-58.25,0.));
#1283=CARTESIAN_POINT('',(-59.3064113103821,-58.25,0.));
#1284=CARTESIAN_POINT('',(-78.8,-58.25,10.));
#1285=CARTESIAN_POINT('Origin',(-59.3064113103821,-58.25,24.));
#1286=CARTESIAN_POINT('',(-78.8,-58.25,10.));
#1287=CARTESIAN_POINT('Origin',(-78.8,-58.25,0.));
#1288=CARTESIAN_POINT('',(78.8,-58.25,0.));
#1289=CARTESIAN_POINT('',(78.8,-58.25,0.));
#1290=CARTESIAN_POINT('',(78.8,-58.25,10.));
#1291=CARTESIAN_POINT('',(78.8,-58.25,0.));
#1292=CARTESIAN_POINT('',(78.8,-58.25,10.));
#1293=CARTESIAN_POINT('Origin',(-59.8589256539026,-56.25,27.));
#1294=CARTESIAN_POINT('',(-76.8,-56.25,10.));
#1295=CARTESIAN_POINT('Origin',(-59.8589256539026,-56.25,27.));
#1296=CARTESIAN_POINT('',(-76.8,56.25,10.));
#1297=CARTESIAN_POINT('Origin',(-59.8589256539026,56.25,27.));
#1298=CARTESIAN_POINT('',(-76.8,-56.25,10.));
#1299=CARTESIAN_POINT('Origin',(-76.8,56.25,0.));
#1300=CARTESIAN_POINT('',(-51.6190292598024,56.25,0.));
#1301=CARTESIAN_POINT('',(-51.6190292598024,56.25,0.));
#1302=CARTESIAN_POINT('',(-36.4364882546592,56.25,0.));
#1303=CARTESIAN_POINT('',(76.8,56.25,0.));
#1304=CARTESIAN_POINT('',(-36.4364882546592,56.25,0.));
#1305=CARTESIAN_POINT('',(-20.0000002980232,56.25,0.));
#1306=CARTESIAN_POINT('',(-20.0000002980232,56.25,0.));
#1307=CARTESIAN_POINT('',(76.8,56.25,0.));
#1308=CARTESIAN_POINT('',(76.8,56.25,0.));
#1309=CARTESIAN_POINT('',(76.8,56.25,10.));
#1310=CARTESIAN_POINT('',(76.8,56.25,0.));
#1311=CARTESIAN_POINT('',(76.8,56.25,10.));
#1312=CARTESIAN_POINT('Origin',(-25.,-6.25,0.));
#1313=CARTESIAN_POINT('',(-25.,-6.25,0.));
#1314=CARTESIAN_POINT('',(-25.,5.75,0.));
#1315=CARTESIAN_POINT('',(-25.,-3.12499999999999,0.));
#1316=CARTESIAN_POINT('',(-25.,-6.25,3.));
#1317=CARTESIAN_POINT('',(-25.,-6.25,0.));
#1318=CARTESIAN_POINT('',(-25.,5.75,3.));
#1319=CARTESIAN_POINT('',(-25.,5.75,3.));
#1320=CARTESIAN_POINT('',(-25.,5.75,0.));
#1321=CARTESIAN_POINT('Origin',(-31.,-6.25,0.));
#1322=CARTESIAN_POINT('',(-31.,-6.25,0.));
#1323=CARTESIAN_POINT('',(-15.5,-6.25,0.));
#1324=CARTESIAN_POINT('',(-31.,-6.25,3.));
#1325=CARTESIAN_POINT('',(-31.,-6.25,0.));
#1326=CARTESIAN_POINT('',(-25.,-6.25,3.));
#1327=CARTESIAN_POINT('Origin',(-31.,5.75,0.));
#1328=CARTESIAN_POINT('',(-31.,5.75,0.));
#1329=CARTESIAN_POINT('',(-31.,2.875,0.));
#1330=CARTESIAN_POINT('',(-31.,5.75,3.));
#1331=CARTESIAN_POINT('',(-31.,5.75,0.));
#1332=CARTESIAN_POINT('',(-31.,-6.25,3.));
#1333=CARTESIAN_POINT('Origin',(-25.,5.75,0.));
#1334=CARTESIAN_POINT('',(-12.5,5.75,0.));
#1335=CARTESIAN_POINT('',(-31.,5.75,3.));
#1336=CARTESIAN_POINT('Origin',(-28.,-0.249999999999997,3.));
#1337=CARTESIAN_POINT('',(-30.1,-3.25,3.));
#1338=CARTESIAN_POINT('Origin',(-28.,-3.25,3.));
#1339=CARTESIAN_POINT('',(-30.1,2.75,3.));
#1340=CARTESIAN_POINT('Origin',(-28.,2.75,3.));
#1341=CARTESIAN_POINT('Origin',(-32.5,7.75,0.));
#1342=CARTESIAN_POINT('',(-32.5,-8.25,8.));
#1343=CARTESIAN_POINT('',(-32.5,-8.25,0.));
#1344=CARTESIAN_POINT('',(-32.5,7.75,8.));
#1345=CARTESIAN_POINT('',(-32.5,-8.25,8.));
#1346=CARTESIAN_POINT('',(-32.5,7.75,0.));
#1347=CARTESIAN_POINT('Origin',(-32.5,-8.25,0.));
#1348=CARTESIAN_POINT('',(-23.5,-8.25,8.));
#1349=CARTESIAN_POINT('',(-23.5,-8.25,0.));
#1350=CARTESIAN_POINT('',(-23.5,-8.25,8.));
#1351=CARTESIAN_POINT('Origin',(-28.,2.75,0.));
#1352=CARTESIAN_POINT('',(-30.1,2.75,8.));
#1353=CARTESIAN_POINT('Origin',(-28.,2.75,8.));
#1354=CARTESIAN_POINT('',(-30.1,2.75,0.));
#1355=CARTESIAN_POINT('Origin',(-28.,-3.25,0.));
#1356=CARTESIAN_POINT('',(-30.1,-3.25,8.));
#1357=CARTESIAN_POINT('Origin',(-28.,-3.25,8.));
#1358=CARTESIAN_POINT('',(-30.1,-3.25,0.));
#1359=CARTESIAN_POINT('Origin',(-23.5,7.75,0.));
#1360=CARTESIAN_POINT('',(-23.5,7.75,8.));
#1361=CARTESIAN_POINT('',(-32.5,7.75,8.));
#1362=CARTESIAN_POINT('',(-23.5,7.75,0.));
#1363=CARTESIAN_POINT('Origin',(-23.5,-8.25,0.));
#1364=CARTESIAN_POINT('',(-23.5,7.75,8.));
#1365=CARTESIAN_POINT('Origin',(-28.,-0.250000000000001,8.));
#1366=CARTESIAN_POINT('Origin',(-36.4364882546592,-11.7231584595208,0.));
#1367=CARTESIAN_POINT('',(-36.4364882546592,-56.25,0.));
#1368=CARTESIAN_POINT('',(-36.4364882546592,-11.7231584595208,0.));
#1369=CARTESIAN_POINT('',(-36.4364882546592,-56.25,0.));
#1370=CARTESIAN_POINT('',(-36.4364882546592,-56.25,0.));
#1371=CARTESIAN_POINT('',(-36.4364882546592,-11.7231584595208,0.));
#1372=CARTESIAN_POINT('Origin',(-51.6190292598024,-11.7231584595208,0.));
#1373=CARTESIAN_POINT('',(-51.6190292598024,-11.7231584595208,0.));
#1374=CARTESIAN_POINT('',(-51.6190292598024,-11.7231584595208,0.));
#1375=CARTESIAN_POINT('',(-36.4364882546592,-11.7231584595208,0.));
#1376=CARTESIAN_POINT('Origin',(-51.6190292598024,-56.25,0.));
#1377=CARTESIAN_POINT('',(-51.6190292598024,-56.25,0.));
#1378=CARTESIAN_POINT('',(-51.6190292598024,-11.7231584595208,0.));
#1379=CARTESIAN_POINT('',(-51.6190292598024,-56.25,0.));
#1380=CARTESIAN_POINT('Origin',(-51.6190292598024,11.7231584595208,0.));
#1381=CARTESIAN_POINT('',(-51.6190292598024,11.7231584595208,0.));
#1382=CARTESIAN_POINT('Origin',(-36.4364882546592,56.25,0.));
#1383=CARTESIAN_POINT('',(-36.4364882546592,56.25,0.));
#1384=CARTESIAN_POINT('Origin',(-20.0000002980232,11.25,0.));
#1385=CARTESIAN_POINT('',(-20.0000002980232,56.25,0.));
#1386=CARTESIAN_POINT('Origin',(-20.0000002980232,-11.25,0.));
#1387=CARTESIAN_POINT('',(-20.0000002980232,-11.25,0.));
#1388=CARTESIAN_POINT('',(-20.0000002980232,-11.25,0.));
#1389=CARTESIAN_POINT('',(76.8,-11.25,0.));
#1390=CARTESIAN_POINT('',(-20.0000002980232,-11.25,0.));
#1391=CARTESIAN_POINT('',(76.8,-11.25,0.));
#1392=CARTESIAN_POINT('Origin',(-20.0000002980232,-56.25,0.));
#1393=CARTESIAN_POINT('',(-20.0000002980232,-56.25,0.));
#1394=CARTESIAN_POINT('',(-20.0000002980232,-56.25,0.));
#1395=CARTESIAN_POINT('',(-20.0000002980232,-56.25,0.));
#1396=CARTESIAN_POINT('Origin',(76.8,-56.25,0.));
#1397=CARTESIAN_POINT('',(76.8,-56.25,10.));
#1398=CARTESIAN_POINT('',(76.8,-56.25,10.));
#1399=CARTESIAN_POINT('',(76.8,-56.25,0.));
#1400=CARTESIAN_POINT('',(76.8,-56.25,0.));
#1401=CARTESIAN_POINT('',(76.8,-56.25,0.));
#1402=CARTESIAN_POINT('',(76.8,-56.25,0.));
#1403=CARTESIAN_POINT('Origin',(76.8,56.25,0.));
#1404=CARTESIAN_POINT('',(76.8,11.25,0.));
#1405=CARTESIAN_POINT('',(76.8,11.25,10.));
#1406=CARTESIAN_POINT('',(76.8,11.25,0.));
#1407=CARTESIAN_POINT('Origin',(78.8,-58.25,0.));
#1408=CARTESIAN_POINT('',(78.8,58.25,0.));
#1409=CARTESIAN_POINT('',(78.8,58.25,0.));
#1410=CARTESIAN_POINT('',(78.8,58.25,10.));
#1411=CARTESIAN_POINT('',(78.8,58.25,0.));
#1412=CARTESIAN_POINT('',(78.8,58.25,10.));
#1413=CARTESIAN_POINT('Origin',(78.8,58.25,0.));
#1414=CARTESIAN_POINT('',(-78.8,58.25,10.));
#1415=CARTESIAN_POINT('',(-78.8,58.25,0.));
#1416=CARTESIAN_POINT('Origin',(0.,0.,10.));
#1417=CARTESIAN_POINT('Origin',(0.,0.,0.));
#1418=UNCERTAINTY_MEASURE_WITH_UNIT(LENGTH_MEASURE(0.01),#1422,
'DISTANCE_ACCURACY_VALUE',
'Maximum model space distance between geometric entities at asserted c
onnectivities');
#1419=UNCERTAINTY_MEASURE_WITH_UNIT(LENGTH_MEASURE(0.01),#1422,
'DISTANCE_ACCURACY_VALUE',
'Maximum model space distance between geometric entities at asserted c
onnectivities');
#1420=(
GEOMETRIC_REPRESENTATION_CONTEXT(3)
GLOBAL_UNCERTAINTY_ASSIGNED_CONTEXT((#1418))
GLOBAL_UNIT_ASSIGNED_CONTEXT((#1422,#1424,#1425))
REPRESENTATION_CONTEXT('','3D')
);
#1421=(
GEOMETRIC_REPRESENTATION_CONTEXT(3)
GLOBAL_UNCERTAINTY_ASSIGNED_CONTEXT((#1419))
GLOBAL_UNIT_ASSIGNED_CONTEXT((#1422,#1424,#1425))
REPRESENTATION_CONTEXT('','3D')
);
#1422=(
LENGTH_UNIT()
NAMED_UNIT(*)
SI_UNIT(.MILLI.,.METRE.)
);
#1423=(
LENGTH_UNIT()
NAMED_UNIT(*)
SI_UNIT($,.METRE.)
);
#1424=(
NAMED_UNIT(*)
PLANE_ANGLE_UNIT()
SI_UNIT($,.RADIAN.)
);
#1425=(
NAMED_UNIT(*)
SI_UNIT($,.STERADIAN.)
SOLID_ANGLE_UNIT()
);
#1426=SHAPE_DEFINITION_REPRESENTATION(#1427,#1428);
#1427=PRODUCT_DEFINITION_SHAPE('',$,#1430);
#1428=SHAPE_REPRESENTATION('',(#890),#1420);
#1429=PRODUCT_DEFINITION_CONTEXT('part definition',#1434,'design');
#1430=PRODUCT_DEFINITION('BottomMiddle','BottomMiddle v3',#1431,#1429);
#1431=PRODUCT_DEFINITION_FORMATION('',$,#1436);
#1432=PRODUCT_RELATED_PRODUCT_CATEGORY('BottomMiddle v3',
'BottomMiddle v3',(#1436));
#1433=APPLICATION_PROTOCOL_DEFINITION('international standard',
'automotive_design',2009,#1434);
#1434=APPLICATION_CONTEXT(
'Core Data for Automotive Mechanical Design Process');
#1435=PRODUCT_CONTEXT('part definition',#1434,'mechanical');
#1436=PRODUCT('BottomMiddle','BottomMiddle v3',$,(#1435));
#1437=PRESENTATION_STYLE_ASSIGNMENT((#1438));
#1438=SURFACE_STYLE_USAGE(.BOTH.,#1439);
#1439=SURFACE_SIDE_STYLE('',(#1440));
#1440=SURFACE_STYLE_FILL_AREA(#1441);
#1441=FILL_AREA_STYLE('Steel - Satin',(#1442));
#1442=FILL_AREA_STYLE_COLOUR('Steel - Satin',#1443);
#1443=COLOUR_RGB('Steel - Satin',0.627450980392157,0.627450980392157,0.627450980392157);
ENDSEC;
END-ISO-10303-21;
