ISO-10303-21;
HEADER;
/* Generated by software containing ST-Developer
 * from STEP Tools, Inc. (www.steptools.com) 
 */

FILE_DESCRIPTION(
/* description */ (''),
/* implementation_level */ '2;1');

FILE_NAME(
/* name */ 'BottomLeft.step',
/* time_stamp */ '2026-10-08T11:42:26-04:00',
/* author */ (''),
/* organization */ (''),
/* preprocessor_version */ 'ST-DEVELOPER v20.2',
/* originating_system */ 'Autodesk Translation Framework v15.15.0.0',
/* authorisation */ '');

FILE_SCHEMA (('AUTOMOTIVE_DESIGN { 1 0 10303 214 3 1 1 }'));
ENDSEC;

DATA;
#10=MECHANICAL_DESIGN_GEOMETRIC_PRESENTATION_REPRESENTATION('',(#13),#1567);
#11=SHAPE_REPRESENTATION_RELATIONSHIP('SRR','None',#1574,#12);
#12=ADVANCED_BREP_SHAPE_REPRESENTATION('',(#14),#1566);
#13=STYLED_ITEM('',(#1583),#14);
#14=MANIFOLD_SOLID_BREP('Body1',#929);
#15=B_SPLINE_CURVE_WITH_KNOTS('',3,(#1333,#1334,#1335,#1336),
 .UNSPECIFIED.,.F.,.F.,(4,4),(7.38952345698098,7.6789790254602),
 .UNSPECIFIED.);
#16=B_SPLINE_CURVE_WITH_KNOTS('',3,(#1340,#1341,#1342,#1343),
 .UNSPECIFIED.,.F.,.F.,(4,4),(8.23113828965917,8.65906698528946),
 .UNSPECIFIED.);
#17=B_SPLINE_CURVE_WITH_KNOTS('',3,(#1434,#1435,#1436,#1437),
 .UNSPECIFIED.,.F.,.F.,(4,4),(-0.744978207660302,-0.38277294636519),
 .UNSPECIFIED.);
#18=B_SPLINE_CURVE_WITH_KNOTS('',3,(#1441,#1442,#1443,#1444),
 .UNSPECIFIED.,.F.,.F.,(4,4),(0.,0.289455422183241),.UNSPECIFIED.);
#19=(
BOUNDED_SURFACE()
B_SPLINE_SURFACE(2,2,((#1308,#1309,#1310),(#1311,#1312,#1313),(#1314,#1315,
#1316)),.UNSPECIFIED.,.F.,.F.,.F.)
B_SPLINE_SURFACE_WITH_KNOTS((3,3),(3,3),(0.622826585412003,1.5707963267949),
(-3.14159265358979,-2.29603177516455),.UNSPECIFIED.)
GEOMETRIC_REPRESENTATION_ITEM()
RATIONAL_B_SPLINE_SURFACE(((1.,0.911951659149087,1.),(0.88975652100261,
0.811414935567049,0.88975652100261),(1.,0.911951659149087,1.)))
REPRESENTATION_ITEM('')
SURFACE()
);
#20=(
BOUNDED_SURFACE()
B_SPLINE_SURFACE(2,2,((#1322,#1323,#1324),(#1325,#1326,#1327),(#1328,#1329,
#1330)),.UNSPECIFIED.,.F.,.F.,.F.)
B_SPLINE_SURFACE_WITH_KNOTS((3,3),(3,3),(0.622826585412003,1.5707963267949),
(-3.14159265358979,-2.41635720522013),.UNSPECIFIED.)
GEOMETRIC_REPRESENTATION_ITEM()
RATIONAL_B_SPLINE_SURFACE(((1.,0.934971461345715,1.),(0.88975652100261,
0.83189695468369,0.88975652100261),(1.,0.934971461345715,1.)))
REPRESENTATION_ITEM('')
SURFACE()
);
#21=(
BOUNDED_SURFACE()
B_SPLINE_SURFACE(2,2,((#1423,#1424,#1425),(#1426,#1427,#1428),(#1429,#1430,
#1431)),.UNSPECIFIED.,.F.,.F.,.F.)
B_SPLINE_SURFACE_WITH_KNOTS((3,3),(3,3),(-1.5707963267949,-0.787134277997099),
(2.50945886016028,3.14159265358979),.UNSPECIFIED.)
GEOMETRIC_REPRESENTATION_ITEM()
RATIONAL_B_SPLINE_SURFACE(((1.,0.950465295670651,1.),(0.924211375534119,
0.878430838309215,0.924211375534119),(1.,0.950465295670651,1.)))
REPRESENTATION_ITEM('')
SURFACE()
);
#22=(
BOUNDED_SURFACE()
B_SPLINE_SURFACE(2,2,((#1445,#1446,#1447),(#1448,#1449,#1450),(#1451,#1452,
#1453)),.UNSPECIFIED.,.F.,.F.,.F.)
B_SPLINE_SURFACE_WITH_KNOTS((3,3),(3,3),(-1.5707963267949,-0.787134277997099),
(2.2029301202244,3.14159265358979),.UNSPECIFIED.)
GEOMETRIC_REPRESENTATION_ITEM()
RATIONAL_B_SPLINE_SURFACE(((1.,0.891870948964182,1.),(0.924211375534116,
0.824277276541104,0.924211375534116),(1.,0.891870948964182,1.)))
REPRESENTATION_ITEM('')
SURFACE()
);
#23=FACE_BOUND('',#120,.T.);
#24=FACE_BOUND('',#121,.T.);
#25=FACE_BOUND('',#129,.T.);
#26=FACE_BOUND('',#130,.T.);
#27=FACE_BOUND('',#131,.T.);
#28=FACE_BOUND('',#133,.T.);
#29=FACE_BOUND('',#134,.T.);
#30=FACE_BOUND('',#141,.T.);
#31=FACE_BOUND('',#142,.T.);
#32=FACE_BOUND('',#150,.T.);
#33=FACE_BOUND('',#151,.T.);
#34=FACE_BOUND('',#167,.T.);
#35=FACE_BOUND('',#168,.T.);
#36=FACE_BOUND('',#171,.T.);
#37=PLANE('',#949);
#38=PLANE('',#950);
#39=PLANE('',#951);
#40=PLANE('',#952);
#41=PLANE('',#953);
#42=PLANE('',#971);
#43=PLANE('',#972);
#44=PLANE('',#973);
#45=PLANE('',#988);
#46=PLANE('',#989);
#47=PLANE('',#990);
#48=PLANE('',#995);
#49=PLANE('',#996);
#50=PLANE('',#997);
#51=PLANE('',#998);
#52=PLANE('',#999);
#53=PLANE('',#1000);
#54=PLANE('',#1001);
#55=PLANE('',#1002);
#56=PLANE('',#1003);
#57=PLANE('',#1004);
#58=PLANE('',#1005);
#59=PLANE('',#1006);
#60=PLANE('',#1007);
#61=PLANE('',#1008);
#62=PLANE('',#1009);
#63=PLANE('',#1010);
#64=PLANE('',#1011);
#65=PLANE('',#1012);
#66=PLANE('',#1013);
#67=PLANE('',#1014);
#68=FACE_OUTER_BOUND('',#113,.T.);
#69=FACE_OUTER_BOUND('',#114,.T.);
#70=FACE_OUTER_BOUND('',#115,.T.);
#71=FACE_OUTER_BOUND('',#116,.T.);
#72=FACE_OUTER_BOUND('',#117,.T.);
#73=FACE_OUTER_BOUND('',#118,.T.);
#74=FACE_OUTER_BOUND('',#119,.T.);
#75=FACE_OUTER_BOUND('',#122,.T.);
#76=FACE_OUTER_BOUND('',#123,.T.);
#77=FACE_OUTER_BOUND('',#124,.T.);
#78=FACE_OUTER_BOUND('',#125,.T.);
#79=FACE_OUTER_BOUND('',#126,.T.);
#80=FACE_OUTER_BOUND('',#127,.T.);
#81=FACE_OUTER_BOUND('',#128,.T.);
#82=FACE_OUTER_BOUND('',#132,.T.);
#83=FACE_OUTER_BOUND('',#135,.T.);
#84=FACE_OUTER_BOUND('',#136,.T.);
#85=FACE_OUTER_BOUND('',#137,.T.);
#86=FACE_OUTER_BOUND('',#138,.T.);
#87=FACE_OUTER_BOUND('',#139,.T.);
#88=FACE_OUTER_BOUND('',#140,.T.);
#89=FACE_OUTER_BOUND('',#143,.T.);
#90=FACE_OUTER_BOUND('',#144,.T.);
#91=FACE_OUTER_BOUND('',#145,.T.);
#92=FACE_OUTER_BOUND('',#146,.T.);
#93=FACE_OUTER_BOUND('',#147,.T.);
#94=FACE_OUTER_BOUND('',#148,.T.);
#95=FACE_OUTER_BOUND('',#149,.T.);
#96=FACE_OUTER_BOUND('',#152,.T.);
#97=FACE_OUTER_BOUND('',#153,.T.);
#98=FACE_OUTER_BOUND('',#154,.T.);
#99=FACE_OUTER_BOUND('',#155,.T.);
#100=FACE_OUTER_BOUND('',#156,.T.);
#101=FACE_OUTER_BOUND('',#157,.T.);
#102=FACE_OUTER_BOUND('',#158,.T.);
#103=FACE_OUTER_BOUND('',#159,.T.);
#104=FACE_OUTER_BOUND('',#160,.T.);
#105=FACE_OUTER_BOUND('',#161,.T.);
#106=FACE_OUTER_BOUND('',#162,.T.);
#107=FACE_OUTER_BOUND('',#163,.T.);
#108=FACE_OUTER_BOUND('',#164,.T.);
#109=FACE_OUTER_BOUND('',#165,.T.);
#110=FACE_OUTER_BOUND('',#166,.T.);
#111=FACE_OUTER_BOUND('',#169,.T.);
#112=FACE_OUTER_BOUND('',#170,.T.);
#113=EDGE_LOOP('',(#612,#613,#614,#615));
#114=EDGE_LOOP('',(#616,#617,#618,#619));
#115=EDGE_LOOP('',(#620,#621,#622,#623));
#116=EDGE_LOOP('',(#624,#625,#626,#627));
#117=EDGE_LOOP('',(#628,#629,#630,#631));
#118=EDGE_LOOP('',(#632,#633,#634,#635));
#119=EDGE_LOOP('',(#636,#637,#638,#639));
#120=EDGE_LOOP('',(#640));
#121=EDGE_LOOP('',(#641));
#122=EDGE_LOOP('',(#642,#643,#644,#645));
#123=EDGE_LOOP('',(#646,#647,#648,#649));
#124=EDGE_LOOP('',(#650,#651,#652,#653,#654));
#125=EDGE_LOOP('',(#655,#656,#657,#658));
#126=EDGE_LOOP('',(#659,#660,#661,#662,#663,#664,#665,#666,#667));
#127=EDGE_LOOP('',(#668,#669,#670,#671));
#128=EDGE_LOOP('',(#672,#673,#674,#675,#676,#677,#678,#679,#680,#681,#682,
#683));
#129=EDGE_LOOP('',(#684,#685,#686,#687));
#130=EDGE_LOOP('',(#688,#689,#690,#691));
#131=EDGE_LOOP('',(#692,#693,#694,#695));
#132=EDGE_LOOP('',(#696,#697,#698,#699));
#133=EDGE_LOOP('',(#700));
#134=EDGE_LOOP('',(#701));
#135=EDGE_LOOP('',(#702,#703,#704,#705,#706,#707,#708));
#136=EDGE_LOOP('',(#709,#710,#711,#712));
#137=EDGE_LOOP('',(#713,#714,#715,#716,#717));
#138=EDGE_LOOP('',(#718,#719,#720,#721));
#139=EDGE_LOOP('',(#722,#723,#724,#725));
#140=EDGE_LOOP('',(#726,#727,#728,#729,#730,#731,#732,#733,#734,#735,#736,
#737));
#141=EDGE_LOOP('',(#738));
#142=EDGE_LOOP('',(#739));
#143=EDGE_LOOP('',(#740,#741,#742,#743));
#144=EDGE_LOOP('',(#744,#745,#746,#747));
#145=EDGE_LOOP('',(#748,#749,#750,#751));
#146=EDGE_LOOP('',(#752,#753,#754,#755));
#147=EDGE_LOOP('',(#756,#757,#758,#759));
#148=EDGE_LOOP('',(#760,#761,#762,#763));
#149=EDGE_LOOP('',(#764,#765,#766,#767));
#150=EDGE_LOOP('',(#768));
#151=EDGE_LOOP('',(#769));
#152=EDGE_LOOP('',(#770,#771,#772,#773));
#153=EDGE_LOOP('',(#774,#775,#776,#777,#778,#779));
#154=EDGE_LOOP('',(#780,#781,#782,#783,#784,#785));
#155=EDGE_LOOP('',(#786,#787,#788,#789,#790,#791));
#156=EDGE_LOOP('',(#792,#793,#794,#795));
#157=EDGE_LOOP('',(#796,#797,#798,#799));
#158=EDGE_LOOP('',(#800,#801,#802,#803));
#159=EDGE_LOOP('',(#804,#805,#806,#807));
#160=EDGE_LOOP('',(#808,#809,#810,#811));
#161=EDGE_LOOP('',(#812,#813,#814,#815));
#162=EDGE_LOOP('',(#816,#817,#818,#819));
#163=EDGE_LOOP('',(#820,#821,#822,#823));
#164=EDGE_LOOP('',(#824,#825,#826,#827,#828,#829));
#165=EDGE_LOOP('',(#830,#831,#832,#833));
#166=EDGE_LOOP('',(#834,#835,#836,#837,#838,#839,#840,#841,#842,#843,#844,
#845,#846,#847));
#167=EDGE_LOOP('',(#848,#849,#850,#851));
#168=EDGE_LOOP('',(#852,#853,#854,#855));
#169=EDGE_LOOP('',(#856,#857,#858,#859));
#170=EDGE_LOOP('',(#860,#861,#862,#863,#864,#865,#866));
#171=EDGE_LOOP('',(#867,#868,#869,#870,#871,#872,#873));
#172=LINE('',#1262,#268);
#173=LINE('',#1268,#269);
#174=LINE('',#1273,#270);
#175=LINE('',#1275,#271);
#176=LINE('',#1277,#272);
#177=LINE('',#1278,#273);
#178=LINE('',#1281,#274);
#179=LINE('',#1283,#275);
#180=LINE('',#1284,#276);
#181=LINE('',#1287,#277);
#182=LINE('',#1289,#278);
#183=LINE('',#1290,#279);
#184=LINE('',#1292,#280);
#185=LINE('',#1293,#281);
#186=LINE('',#1304,#282);
#187=LINE('',#1307,#283);
#188=LINE('',#1346,#284);
#189=LINE('',#1349,#285);
#190=LINE('',#1354,#286);
#191=LINE('',#1358,#287);
#192=LINE('',#1362,#288);
#193=LINE('',#1365,#289);
#194=LINE('',#1368,#290);
#195=LINE('',#1370,#291);
#196=LINE('',#1371,#292);
#197=LINE('',#1373,#293);
#198=LINE('',#1375,#294);
#199=LINE('',#1377,#295);
#200=LINE('',#1378,#296);
#201=LINE('',#1380,#297);
#202=LINE('',#1382,#298);
#203=LINE('',#1383,#299);
#204=LINE('',#1386,#300);
#205=LINE('',#1388,#301);
#206=LINE('',#1390,#302);
#207=LINE('',#1391,#303);
#208=LINE('',#1394,#304);
#209=LINE('',#1396,#305);
#210=LINE('',#1398,#306);
#211=LINE('',#1399,#307);
#212=LINE('',#1401,#308);
#213=LINE('',#1407,#309);
#214=LINE('',#1413,#310);
#215=LINE('',#1416,#311);
#216=LINE('',#1419,#312);
#217=LINE('',#1422,#313);
#218=LINE('',#1463,#314);
#219=LINE('',#1464,#315);
#220=LINE('',#1466,#316);
#221=LINE('',#1468,#317);
#222=LINE('',#1470,#318);
#223=LINE('',#1472,#319);
#224=LINE('',#1473,#320);
#225=LINE('',#1475,#321);
#226=LINE('',#1477,#322);
#227=LINE('',#1478,#323);
#228=LINE('',#1482,#324);
#229=LINE('',#1484,#325);
#230=LINE('',#1486,#326);
#231=LINE('',#1487,#327);
#232=LINE('',#1490,#328);
#233=LINE('',#1492,#329);
#234=LINE('',#1493,#330);
#235=LINE('',#1497,#331);
#236=LINE('',#1501,#332);
#237=LINE('',#1504,#333);
#238=LINE('',#1506,#334);
#239=LINE('',#1507,#335);
#240=LINE('',#1509,#336);
#241=LINE('',#1510,#337);
#242=LINE('',#1514,#338);
#243=LINE('',#1516,#339);
#244=LINE('',#1517,#340);
#245=LINE('',#1519,#341);
#246=LINE('',#1520,#342);
#247=LINE('',#1522,#343);
#248=LINE('',#1524,#344);
#249=LINE('',#1527,#345);
#250=LINE('',#1529,#346);
#251=LINE('',#1530,#347);
#252=LINE('',#1533,#348);
#253=LINE('',#1534,#349);
#254=LINE('',#1537,#350);
#255=LINE('',#1538,#351);
#256=LINE('',#1540,#352);
#257=LINE('',#1543,#353);
#258=LINE('',#1544,#354);
#259=LINE('',#1547,#355);
#260=LINE('',#1548,#356);
#261=LINE('',#1550,#357);
#262=LINE('',#1553,#358);
#263=LINE('',#1554,#359);
#264=LINE('',#1556,#360);
#265=LINE('',#1557,#361);
#266=LINE('',#1560,#362);
#267=LINE('',#1562,#363);
#268=VECTOR('',#1021,2.00000000000001);
#269=VECTOR('',#1028,2.00000000000001);
#270=VECTOR('',#1033,10.);
#271=VECTOR('',#1034,10.);
#272=VECTOR('',#1035,10.);
#273=VECTOR('',#1036,10.);
#274=VECTOR('',#1039,10.);
#275=VECTOR('',#1040,10.);
#276=VECTOR('',#1041,10.);
#277=VECTOR('',#1044,10.);
#278=VECTOR('',#1045,10.);
#279=VECTOR('',#1046,10.);
#280=VECTOR('',#1049,10.);
#281=VECTOR('',#1050,10.);
#282=VECTOR('',#1061,24.);
#283=VECTOR('',#1064,10.);
#284=VECTOR('',#1077,10.);
#285=VECTOR('',#1080,10.);
#286=VECTOR('',#1085,10.);
#287=VECTOR('',#1088,24.);
#288=VECTOR('',#1091,10.);
#289=VECTOR('',#1094,24.);
#290=VECTOR('',#1097,10.);
#291=VECTOR('',#1098,10.);
#292=VECTOR('',#1099,10.);
#293=VECTOR('',#1102,10.);
#294=VECTOR('',#1103,10.);
#295=VECTOR('',#1104,10.);
#296=VECTOR('',#1105,10.);
#297=VECTOR('',#1106,10.);
#298=VECTOR('',#1107,10.);
#299=VECTOR('',#1108,10.);
#300=VECTOR('',#1109,10.);
#301=VECTOR('',#1110,10.);
#302=VECTOR('',#1111,10.);
#303=VECTOR('',#1112,10.);
#304=VECTOR('',#1113,10.);
#305=VECTOR('',#1114,10.);
#306=VECTOR('',#1115,10.);
#307=VECTOR('',#1116,10.);
#308=VECTOR('',#1119,10.);
#309=VECTOR('',#1124,24.);
#310=VECTOR('',#1129,10.);
#311=VECTOR('',#1132,10.);
#312=VECTOR('',#1135,10.);
#313=VECTOR('',#1138,10.);
#314=VECTOR('',#1153,10.);
#315=VECTOR('',#1154,24.);
#316=VECTOR('',#1157,10.);
#317=VECTOR('',#1158,10.);
#318=VECTOR('',#1159,10.);
#319=VECTOR('',#1160,10.);
#320=VECTOR('',#1161,10.);
#321=VECTOR('',#1162,10.);
#322=VECTOR('',#1163,10.);
#323=VECTOR('',#1164,10.);
#324=VECTOR('',#1167,10.);
#325=VECTOR('',#1168,10.);
#326=VECTOR('',#1169,10.);
#327=VECTOR('',#1170,10.);
#328=VECTOR('',#1173,10.);
#329=VECTOR('',#1174,10.);
#330=VECTOR('',#1175,10.);
#331=VECTOR('',#1180,2.10000000000001);
#332=VECTOR('',#1185,2.10000000000001);
#333=VECTOR('',#1188,10.);
#334=VECTOR('',#1189,10.);
#335=VECTOR('',#1190,10.);
#336=VECTOR('',#1193,10.);
#337=VECTOR('',#1194,10.);
#338=VECTOR('',#1199,10.);
#339=VECTOR('',#1200,10.);
#340=VECTOR('',#1201,10.);
#341=VECTOR('',#1204,10.);
#342=VECTOR('',#1205,10.);
#343=VECTOR('',#1208,10.);
#344=VECTOR('',#1211,10.);
#345=VECTOR('',#1214,10.);
#346=VECTOR('',#1215,10.);
#347=VECTOR('',#1216,10.);
#348=VECTOR('',#1219,10.);
#349=VECTOR('',#1220,10.);
#350=VECTOR('',#1223,10.);
#351=VECTOR('',#1224,10.);
#352=VECTOR('',#1227,10.);
#353=VECTOR('',#1230,10.);
#354=VECTOR('',#1231,10.);
#355=VECTOR('',#1234,10.);
#356=VECTOR('',#1235,10.);
#357=VECTOR('',#1238,10.);
#358=VECTOR('',#1241,10.);
#359=VECTOR('',#1242,10.);
#360=VECTOR('',#1245,10.);
#361=VECTOR('',#1246,10.);
#362=VECTOR('',#1251,10.);
#363=VECTOR('',#1254,10.);
#364=CIRCLE('',#944,2.00000000000001);
#365=CIRCLE('',#945,2.00000000000001);
#366=CIRCLE('',#947,2.00000000000001);
#367=CIRCLE('',#948,2.00000000000001);
#368=CIRCLE('',#954,2.10000000000001);
#369=CIRCLE('',#955,2.10000000000001);
#370=CIRCLE('',#957,24.);
#371=CIRCLE('',#958,24.);
#372=CIRCLE('',#959,24.);
#373=CIRCLE('',#960,24.);
#374=CIRCLE('',#961,4.50641131038204);
#375=CIRCLE('',#962,24.);
#376=CIRCLE('',#963,24.);
#377=CIRCLE('',#965,24.);
#378=CIRCLE('',#967,24.);
#379=CIRCLE('',#968,24.);
#380=CIRCLE('',#969,24.);
#381=CIRCLE('',#970,24.);
#382=CIRCLE('',#975,24.);
#383=CIRCLE('',#976,24.);
#384=CIRCLE('',#977,24.);
#385=CIRCLE('',#978,24.);
#386=CIRCLE('',#980,24.);
#387=CIRCLE('',#981,24.);
#388=CIRCLE('',#982,22.);
#389=CIRCLE('',#983,24.);
#390=CIRCLE('',#984,22.);
#391=CIRCLE('',#985,5.05892565390255);
#392=CIRCLE('',#987,24.);
#393=CIRCLE('',#992,2.10000000000001);
#394=CIRCLE('',#994,2.10000000000001);
#395=VERTEX_POINT('',#1259);
#396=VERTEX_POINT('',#1261);
#397=VERTEX_POINT('',#1265);
#398=VERTEX_POINT('',#1267);
#399=VERTEX_POINT('',#1271);
#400=VERTEX_POINT('',#1272);
#401=VERTEX_POINT('',#1274);
#402=VERTEX_POINT('',#1276);
#403=VERTEX_POINT('',#1280);
#404=VERTEX_POINT('',#1282);
#405=VERTEX_POINT('',#1286);
#406=VERTEX_POINT('',#1288);
#407=VERTEX_POINT('',#1295);
#408=VERTEX_POINT('',#1297);
#409=VERTEX_POINT('',#1300);
#410=VERTEX_POINT('',#1301);
#411=VERTEX_POINT('',#1303);
#412=VERTEX_POINT('',#1305);
#413=VERTEX_POINT('',#1317);
#414=VERTEX_POINT('',#1318);
#415=VERTEX_POINT('',#1331);
#416=VERTEX_POINT('',#1332);
#417=VERTEX_POINT('',#1337);
#418=VERTEX_POINT('',#1345);
#419=VERTEX_POINT('',#1347);
#420=VERTEX_POINT('',#1351);
#421=VERTEX_POINT('',#1352);
#422=VERTEX_POINT('',#1355);
#423=VERTEX_POINT('',#1357);
#424=VERTEX_POINT('',#1359);
#425=VERTEX_POINT('',#1361);
#426=VERTEX_POINT('',#1363);
#427=VERTEX_POINT('',#1367);
#428=VERTEX_POINT('',#1369);
#429=VERTEX_POINT('',#1374);
#430=VERTEX_POINT('',#1376);
#431=VERTEX_POINT('',#1379);
#432=VERTEX_POINT('',#1381);
#433=VERTEX_POINT('',#1384);
#434=VERTEX_POINT('',#1385);
#435=VERTEX_POINT('',#1387);
#436=VERTEX_POINT('',#1389);
#437=VERTEX_POINT('',#1392);
#438=VERTEX_POINT('',#1393);
#439=VERTEX_POINT('',#1395);
#440=VERTEX_POINT('',#1397);
#441=VERTEX_POINT('',#1403);
#442=VERTEX_POINT('',#1404);
#443=VERTEX_POINT('',#1406);
#444=VERTEX_POINT('',#1408);
#445=VERTEX_POINT('',#1410);
#446=VERTEX_POINT('',#1412);
#447=VERTEX_POINT('',#1414);
#448=VERTEX_POINT('',#1418);
#449=VERTEX_POINT('',#1420);
#450=VERTEX_POINT('',#1432);
#451=VERTEX_POINT('',#1433);
#452=VERTEX_POINT('',#1438);
#453=VERTEX_POINT('',#1454);
#454=VERTEX_POINT('',#1455);
#455=VERTEX_POINT('',#1460);
#456=VERTEX_POINT('',#1461);
#457=VERTEX_POINT('',#1467);
#458=VERTEX_POINT('',#1469);
#459=VERTEX_POINT('',#1471);
#460=VERTEX_POINT('',#1474);
#461=VERTEX_POINT('',#1476);
#462=VERTEX_POINT('',#1480);
#463=VERTEX_POINT('',#1481);
#464=VERTEX_POINT('',#1483);
#465=VERTEX_POINT('',#1485);
#466=VERTEX_POINT('',#1489);
#467=VERTEX_POINT('',#1491);
#468=VERTEX_POINT('',#1495);
#469=VERTEX_POINT('',#1499);
#470=VERTEX_POINT('',#1503);
#471=VERTEX_POINT('',#1505);
#472=VERTEX_POINT('',#1513);
#473=VERTEX_POINT('',#1515);
#474=VERTEX_POINT('',#1526);
#475=VERTEX_POINT('',#1528);
#476=VERTEX_POINT('',#1532);
#477=VERTEX_POINT('',#1536);
#478=VERTEX_POINT('',#1542);
#479=VERTEX_POINT('',#1546);
#480=VERTEX_POINT('',#1552);
#481=EDGE_CURVE('',#395,#395,#364,.T.);
#482=EDGE_CURVE('',#395,#396,#172,.T.);
#483=EDGE_CURVE('',#396,#396,#365,.T.);
#484=EDGE_CURVE('',#397,#397,#366,.T.);
#485=EDGE_CURVE('',#397,#398,#173,.T.);
#486=EDGE_CURVE('',#398,#398,#367,.T.);
#487=EDGE_CURVE('',#399,#400,#174,.T.);
#488=EDGE_CURVE('',#399,#401,#175,.T.);
#489=EDGE_CURVE('',#401,#402,#176,.T.);
#490=EDGE_CURVE('',#400,#402,#177,.T.);
#491=EDGE_CURVE('',#403,#399,#178,.T.);
#492=EDGE_CURVE('',#403,#404,#179,.T.);
#493=EDGE_CURVE('',#404,#401,#180,.T.);
#494=EDGE_CURVE('',#405,#403,#181,.T.);
#495=EDGE_CURVE('',#405,#406,#182,.T.);
#496=EDGE_CURVE('',#406,#404,#183,.T.);
#497=EDGE_CURVE('',#400,#405,#184,.T.);
#498=EDGE_CURVE('',#402,#406,#185,.T.);
#499=EDGE_CURVE('',#407,#407,#368,.T.);
#500=EDGE_CURVE('',#408,#408,#369,.T.);
#501=EDGE_CURVE('',#409,#410,#370,.T.);
#502=EDGE_CURVE('',#410,#411,#186,.T.);
#503=EDGE_CURVE('',#411,#412,#371,.T.);
#504=EDGE_CURVE('',#409,#412,#187,.T.);
#505=EDGE_CURVE('',#413,#414,#372,.T.);
#506=EDGE_CURVE('',#412,#414,#373,.T.);
#507=EDGE_CURVE('',#411,#413,#374,.T.);
#508=EDGE_CURVE('',#415,#416,#15,.T.);
#509=EDGE_CURVE('',#416,#417,#375,.T.);
#510=EDGE_CURVE('',#414,#417,#376,.T.);
#511=EDGE_CURVE('',#413,#415,#16,.T.);
#512=EDGE_CURVE('',#416,#418,#188,.T.);
#513=EDGE_CURVE('',#418,#419,#377,.T.);
#514=EDGE_CURVE('',#417,#419,#189,.T.);
#515=EDGE_CURVE('',#420,#421,#378,.T.);
#516=EDGE_CURVE('',#419,#421,#190,.T.);
#517=EDGE_CURVE('',#418,#422,#379,.T.);
#518=EDGE_CURVE('',#422,#423,#191,.T.);
#519=EDGE_CURVE('',#423,#424,#380,.T.);
#520=EDGE_CURVE('',#424,#425,#192,.T.);
#521=EDGE_CURVE('',#425,#426,#381,.T.);
#522=EDGE_CURVE('',#426,#420,#193,.T.);
#523=EDGE_CURVE('',#427,#409,#194,.T.);
#524=EDGE_CURVE('',#428,#427,#195,.T.);
#525=EDGE_CURVE('',#428,#410,#196,.T.);
#526=EDGE_CURVE('',#420,#428,#197,.T.);
#527=EDGE_CURVE('',#429,#426,#198,.T.);
#528=EDGE_CURVE('',#430,#429,#199,.T.);
#529=EDGE_CURVE('',#423,#430,#200,.T.);
#530=EDGE_CURVE('',#431,#422,#201,.T.);
#531=EDGE_CURVE('',#432,#431,#202,.T.);
#532=EDGE_CURVE('',#413,#432,#203,.T.);
#533=EDGE_CURVE('',#433,#434,#204,.T.);
#534=EDGE_CURVE('',#435,#433,#205,.T.);
#535=EDGE_CURVE('',#436,#435,#206,.T.);
#536=EDGE_CURVE('',#434,#436,#207,.T.);
#537=EDGE_CURVE('',#437,#438,#208,.T.);
#538=EDGE_CURVE('',#437,#439,#209,.T.);
#539=EDGE_CURVE('',#439,#440,#210,.T.);
#540=EDGE_CURVE('',#440,#438,#211,.T.);
#541=EDGE_CURVE('',#421,#427,#212,.T.);
#542=EDGE_CURVE('',#441,#442,#382,.T.);
#543=EDGE_CURVE('',#442,#443,#213,.T.);
#544=EDGE_CURVE('',#443,#444,#383,.T.);
#545=EDGE_CURVE('',#444,#445,#384,.T.);
#546=EDGE_CURVE('',#446,#445,#214,.T.);
#547=EDGE_CURVE('',#447,#446,#385,.T.);
#548=EDGE_CURVE('',#441,#447,#215,.F.);
#549=EDGE_CURVE('',#448,#444,#216,.F.);
#550=EDGE_CURVE('',#448,#449,#386,.T.);
#551=EDGE_CURVE('',#445,#449,#217,.T.);
#552=EDGE_CURVE('',#450,#451,#17,.F.);
#553=EDGE_CURVE('',#450,#452,#387,.T.);
#554=EDGE_CURVE('',#449,#452,#388,.T.);
#555=EDGE_CURVE('',#451,#448,#18,.F.);
#556=EDGE_CURVE('',#453,#454,#389,.T.);
#557=EDGE_CURVE('',#452,#454,#390,.T.);
#558=EDGE_CURVE('',#450,#453,#391,.T.);
#559=EDGE_CURVE('',#455,#456,#392,.T.);
#560=EDGE_CURVE('',#454,#455,#218,.T.);
#561=EDGE_CURVE('',#453,#456,#219,.T.);
#562=EDGE_CURVE('',#425,#447,#220,.T.);
#563=EDGE_CURVE('',#457,#446,#221,.T.);
#564=EDGE_CURVE('',#458,#457,#222,.T.);
#565=EDGE_CURVE('',#458,#459,#223,.T.);
#566=EDGE_CURVE('',#459,#437,#224,.T.);
#567=EDGE_CURVE('',#438,#460,#225,.T.);
#568=EDGE_CURVE('',#460,#461,#226,.T.);
#569=EDGE_CURVE('',#461,#429,#227,.T.);
#570=EDGE_CURVE('',#462,#463,#228,.T.);
#571=EDGE_CURVE('',#462,#464,#229,.T.);
#572=EDGE_CURVE('',#465,#464,#230,.T.);
#573=EDGE_CURVE('',#463,#465,#231,.T.);
#574=EDGE_CURVE('',#466,#462,#232,.T.);
#575=EDGE_CURVE('',#466,#467,#233,.T.);
#576=EDGE_CURVE('',#464,#467,#234,.T.);
#577=EDGE_CURVE('',#468,#468,#393,.T.);
#578=EDGE_CURVE('',#468,#408,#235,.T.);
#579=EDGE_CURVE('',#469,#469,#394,.T.);
#580=EDGE_CURVE('',#469,#407,#236,.T.);
#581=EDGE_CURVE('',#463,#470,#237,.T.);
#582=EDGE_CURVE('',#471,#465,#238,.T.);
#583=EDGE_CURVE('',#470,#471,#239,.T.);
#584=EDGE_CURVE('',#470,#466,#240,.T.);
#585=EDGE_CURVE('',#467,#471,#241,.T.);
#586=EDGE_CURVE('',#431,#472,#242,.T.);
#587=EDGE_CURVE('',#473,#472,#243,.T.);
#588=EDGE_CURVE('',#432,#473,#244,.T.);
#589=EDGE_CURVE('',#450,#473,#245,.T.);
#590=EDGE_CURVE('',#415,#451,#246,.T.);
#591=EDGE_CURVE('',#418,#444,#247,.T.);
#592=EDGE_CURVE('',#472,#443,#248,.T.);
#593=EDGE_CURVE('',#433,#474,#249,.T.);
#594=EDGE_CURVE('',#475,#474,#250,.T.);
#595=EDGE_CURVE('',#435,#475,#251,.T.);
#596=EDGE_CURVE('',#476,#475,#252,.T.);
#597=EDGE_CURVE('',#436,#476,#253,.T.);
#598=EDGE_CURVE('',#477,#476,#254,.T.);
#599=EDGE_CURVE('',#434,#477,#255,.T.);
#600=EDGE_CURVE('',#474,#477,#256,.T.);
#601=EDGE_CURVE('',#478,#459,#257,.T.);
#602=EDGE_CURVE('',#439,#478,#258,.T.);
#603=EDGE_CURVE('',#479,#478,#259,.T.);
#604=EDGE_CURVE('',#440,#479,#260,.T.);
#605=EDGE_CURVE('',#460,#479,#261,.T.);
#606=EDGE_CURVE('',#480,#461,#262,.T.);
#607=EDGE_CURVE('',#430,#480,#263,.T.);
#608=EDGE_CURVE('',#442,#480,#264,.T.);
#609=EDGE_CURVE('',#424,#441,#265,.T.);
#610=EDGE_CURVE('',#456,#458,#266,.T.);
#611=EDGE_CURVE('',#455,#457,#267,.T.);
#612=ORIENTED_EDGE('',*,*,#481,.F.);
#613=ORIENTED_EDGE('',*,*,#482,.T.);
#614=ORIENTED_EDGE('',*,*,#483,.F.);
#615=ORIENTED_EDGE('',*,*,#482,.F.);
#616=ORIENTED_EDGE('',*,*,#484,.F.);
#617=ORIENTED_EDGE('',*,*,#485,.T.);
#618=ORIENTED_EDGE('',*,*,#486,.F.);
#619=ORIENTED_EDGE('',*,*,#485,.F.);
#620=ORIENTED_EDGE('',*,*,#487,.F.);
#621=ORIENTED_EDGE('',*,*,#488,.T.);
#622=ORIENTED_EDGE('',*,*,#489,.T.);
#623=ORIENTED_EDGE('',*,*,#490,.F.);
#624=ORIENTED_EDGE('',*,*,#491,.F.);
#625=ORIENTED_EDGE('',*,*,#492,.T.);
#626=ORIENTED_EDGE('',*,*,#493,.T.);
#627=ORIENTED_EDGE('',*,*,#488,.F.);
#628=ORIENTED_EDGE('',*,*,#494,.F.);
#629=ORIENTED_EDGE('',*,*,#495,.T.);
#630=ORIENTED_EDGE('',*,*,#496,.T.);
#631=ORIENTED_EDGE('',*,*,#492,.F.);
#632=ORIENTED_EDGE('',*,*,#497,.F.);
#633=ORIENTED_EDGE('',*,*,#490,.T.);
#634=ORIENTED_EDGE('',*,*,#498,.T.);
#635=ORIENTED_EDGE('',*,*,#495,.F.);
#636=ORIENTED_EDGE('',*,*,#498,.F.);
#637=ORIENTED_EDGE('',*,*,#489,.F.);
#638=ORIENTED_EDGE('',*,*,#493,.F.);
#639=ORIENTED_EDGE('',*,*,#496,.F.);
#640=ORIENTED_EDGE('',*,*,#499,.F.);
#641=ORIENTED_EDGE('',*,*,#500,.F.);
#642=ORIENTED_EDGE('',*,*,#501,.T.);
#643=ORIENTED_EDGE('',*,*,#502,.T.);
#644=ORIENTED_EDGE('',*,*,#503,.T.);
#645=ORIENTED_EDGE('',*,*,#504,.F.);
#646=ORIENTED_EDGE('',*,*,#505,.T.);
#647=ORIENTED_EDGE('',*,*,#506,.F.);
#648=ORIENTED_EDGE('',*,*,#503,.F.);
#649=ORIENTED_EDGE('',*,*,#507,.T.);
#650=ORIENTED_EDGE('',*,*,#508,.T.);
#651=ORIENTED_EDGE('',*,*,#509,.T.);
#652=ORIENTED_EDGE('',*,*,#510,.F.);
#653=ORIENTED_EDGE('',*,*,#505,.F.);
#654=ORIENTED_EDGE('',*,*,#511,.T.);
#655=ORIENTED_EDGE('',*,*,#512,.T.);
#656=ORIENTED_EDGE('',*,*,#513,.T.);
#657=ORIENTED_EDGE('',*,*,#514,.F.);
#658=ORIENTED_EDGE('',*,*,#509,.F.);
#659=ORIENTED_EDGE('',*,*,#515,.T.);
#660=ORIENTED_EDGE('',*,*,#516,.F.);
#661=ORIENTED_EDGE('',*,*,#513,.F.);
#662=ORIENTED_EDGE('',*,*,#517,.T.);
#663=ORIENTED_EDGE('',*,*,#518,.T.);
#664=ORIENTED_EDGE('',*,*,#519,.T.);
#665=ORIENTED_EDGE('',*,*,#520,.T.);
#666=ORIENTED_EDGE('',*,*,#521,.T.);
#667=ORIENTED_EDGE('',*,*,#522,.T.);
#668=ORIENTED_EDGE('',*,*,#501,.F.);
#669=ORIENTED_EDGE('',*,*,#523,.F.);
#670=ORIENTED_EDGE('',*,*,#524,.F.);
#671=ORIENTED_EDGE('',*,*,#525,.T.);
#672=ORIENTED_EDGE('',*,*,#507,.F.);
#673=ORIENTED_EDGE('',*,*,#502,.F.);
#674=ORIENTED_EDGE('',*,*,#525,.F.);
#675=ORIENTED_EDGE('',*,*,#526,.F.);
#676=ORIENTED_EDGE('',*,*,#522,.F.);
#677=ORIENTED_EDGE('',*,*,#527,.F.);
#678=ORIENTED_EDGE('',*,*,#528,.F.);
#679=ORIENTED_EDGE('',*,*,#529,.F.);
#680=ORIENTED_EDGE('',*,*,#518,.F.);
#681=ORIENTED_EDGE('',*,*,#530,.F.);
#682=ORIENTED_EDGE('',*,*,#531,.F.);
#683=ORIENTED_EDGE('',*,*,#532,.F.);
#684=ORIENTED_EDGE('',*,*,#487,.T.);
#685=ORIENTED_EDGE('',*,*,#497,.T.);
#686=ORIENTED_EDGE('',*,*,#494,.T.);
#687=ORIENTED_EDGE('',*,*,#491,.T.);
#688=ORIENTED_EDGE('',*,*,#533,.F.);
#689=ORIENTED_EDGE('',*,*,#534,.F.);
#690=ORIENTED_EDGE('',*,*,#535,.F.);
#691=ORIENTED_EDGE('',*,*,#536,.F.);
#692=ORIENTED_EDGE('',*,*,#537,.F.);
#693=ORIENTED_EDGE('',*,*,#538,.T.);
#694=ORIENTED_EDGE('',*,*,#539,.T.);
#695=ORIENTED_EDGE('',*,*,#540,.T.);
#696=ORIENTED_EDGE('',*,*,#515,.F.);
#697=ORIENTED_EDGE('',*,*,#526,.T.);
#698=ORIENTED_EDGE('',*,*,#524,.T.);
#699=ORIENTED_EDGE('',*,*,#541,.F.);
#700=ORIENTED_EDGE('',*,*,#481,.T.);
#701=ORIENTED_EDGE('',*,*,#484,.T.);
#702=ORIENTED_EDGE('',*,*,#542,.T.);
#703=ORIENTED_EDGE('',*,*,#543,.T.);
#704=ORIENTED_EDGE('',*,*,#544,.T.);
#705=ORIENTED_EDGE('',*,*,#545,.T.);
#706=ORIENTED_EDGE('',*,*,#546,.F.);
#707=ORIENTED_EDGE('',*,*,#547,.F.);
#708=ORIENTED_EDGE('',*,*,#548,.F.);
#709=ORIENTED_EDGE('',*,*,#549,.F.);
#710=ORIENTED_EDGE('',*,*,#550,.T.);
#711=ORIENTED_EDGE('',*,*,#551,.F.);
#712=ORIENTED_EDGE('',*,*,#545,.F.);
#713=ORIENTED_EDGE('',*,*,#552,.F.);
#714=ORIENTED_EDGE('',*,*,#553,.T.);
#715=ORIENTED_EDGE('',*,*,#554,.F.);
#716=ORIENTED_EDGE('',*,*,#550,.F.);
#717=ORIENTED_EDGE('',*,*,#555,.F.);
#718=ORIENTED_EDGE('',*,*,#556,.T.);
#719=ORIENTED_EDGE('',*,*,#557,.F.);
#720=ORIENTED_EDGE('',*,*,#553,.F.);
#721=ORIENTED_EDGE('',*,*,#558,.T.);
#722=ORIENTED_EDGE('',*,*,#559,.F.);
#723=ORIENTED_EDGE('',*,*,#560,.F.);
#724=ORIENTED_EDGE('',*,*,#556,.F.);
#725=ORIENTED_EDGE('',*,*,#561,.T.);
#726=ORIENTED_EDGE('',*,*,#521,.F.);
#727=ORIENTED_EDGE('',*,*,#562,.T.);
#728=ORIENTED_EDGE('',*,*,#547,.T.);
#729=ORIENTED_EDGE('',*,*,#563,.F.);
#730=ORIENTED_EDGE('',*,*,#564,.F.);
#731=ORIENTED_EDGE('',*,*,#565,.T.);
#732=ORIENTED_EDGE('',*,*,#566,.T.);
#733=ORIENTED_EDGE('',*,*,#537,.T.);
#734=ORIENTED_EDGE('',*,*,#567,.T.);
#735=ORIENTED_EDGE('',*,*,#568,.T.);
#736=ORIENTED_EDGE('',*,*,#569,.T.);
#737=ORIENTED_EDGE('',*,*,#527,.T.);
#738=ORIENTED_EDGE('',*,*,#483,.T.);
#739=ORIENTED_EDGE('',*,*,#486,.T.);
#740=ORIENTED_EDGE('',*,*,#570,.F.);
#741=ORIENTED_EDGE('',*,*,#571,.T.);
#742=ORIENTED_EDGE('',*,*,#572,.F.);
#743=ORIENTED_EDGE('',*,*,#573,.F.);
#744=ORIENTED_EDGE('',*,*,#574,.F.);
#745=ORIENTED_EDGE('',*,*,#575,.T.);
#746=ORIENTED_EDGE('',*,*,#576,.F.);
#747=ORIENTED_EDGE('',*,*,#571,.F.);
#748=ORIENTED_EDGE('',*,*,#577,.F.);
#749=ORIENTED_EDGE('',*,*,#578,.T.);
#750=ORIENTED_EDGE('',*,*,#500,.T.);
#751=ORIENTED_EDGE('',*,*,#578,.F.);
#752=ORIENTED_EDGE('',*,*,#579,.F.);
#753=ORIENTED_EDGE('',*,*,#580,.T.);
#754=ORIENTED_EDGE('',*,*,#499,.T.);
#755=ORIENTED_EDGE('',*,*,#580,.F.);
#756=ORIENTED_EDGE('',*,*,#581,.F.);
#757=ORIENTED_EDGE('',*,*,#573,.T.);
#758=ORIENTED_EDGE('',*,*,#582,.F.);
#759=ORIENTED_EDGE('',*,*,#583,.F.);
#760=ORIENTED_EDGE('',*,*,#584,.F.);
#761=ORIENTED_EDGE('',*,*,#583,.T.);
#762=ORIENTED_EDGE('',*,*,#585,.F.);
#763=ORIENTED_EDGE('',*,*,#575,.F.);
#764=ORIENTED_EDGE('',*,*,#576,.T.);
#765=ORIENTED_EDGE('',*,*,#585,.T.);
#766=ORIENTED_EDGE('',*,*,#582,.T.);
#767=ORIENTED_EDGE('',*,*,#572,.T.);
#768=ORIENTED_EDGE('',*,*,#579,.T.);
#769=ORIENTED_EDGE('',*,*,#577,.T.);
#770=ORIENTED_EDGE('',*,*,#531,.T.);
#771=ORIENTED_EDGE('',*,*,#586,.T.);
#772=ORIENTED_EDGE('',*,*,#587,.F.);
#773=ORIENTED_EDGE('',*,*,#588,.F.);
#774=ORIENTED_EDGE('',*,*,#511,.F.);
#775=ORIENTED_EDGE('',*,*,#532,.T.);
#776=ORIENTED_EDGE('',*,*,#588,.T.);
#777=ORIENTED_EDGE('',*,*,#589,.F.);
#778=ORIENTED_EDGE('',*,*,#552,.T.);
#779=ORIENTED_EDGE('',*,*,#590,.F.);
#780=ORIENTED_EDGE('',*,*,#508,.F.);
#781=ORIENTED_EDGE('',*,*,#590,.T.);
#782=ORIENTED_EDGE('',*,*,#555,.T.);
#783=ORIENTED_EDGE('',*,*,#549,.T.);
#784=ORIENTED_EDGE('',*,*,#591,.F.);
#785=ORIENTED_EDGE('',*,*,#512,.F.);
#786=ORIENTED_EDGE('',*,*,#517,.F.);
#787=ORIENTED_EDGE('',*,*,#591,.T.);
#788=ORIENTED_EDGE('',*,*,#544,.F.);
#789=ORIENTED_EDGE('',*,*,#592,.F.);
#790=ORIENTED_EDGE('',*,*,#586,.F.);
#791=ORIENTED_EDGE('',*,*,#530,.T.);
#792=ORIENTED_EDGE('',*,*,#534,.T.);
#793=ORIENTED_EDGE('',*,*,#593,.T.);
#794=ORIENTED_EDGE('',*,*,#594,.F.);
#795=ORIENTED_EDGE('',*,*,#595,.F.);
#796=ORIENTED_EDGE('',*,*,#535,.T.);
#797=ORIENTED_EDGE('',*,*,#595,.T.);
#798=ORIENTED_EDGE('',*,*,#596,.F.);
#799=ORIENTED_EDGE('',*,*,#597,.F.);
#800=ORIENTED_EDGE('',*,*,#536,.T.);
#801=ORIENTED_EDGE('',*,*,#597,.T.);
#802=ORIENTED_EDGE('',*,*,#598,.F.);
#803=ORIENTED_EDGE('',*,*,#599,.F.);
#804=ORIENTED_EDGE('',*,*,#533,.T.);
#805=ORIENTED_EDGE('',*,*,#599,.T.);
#806=ORIENTED_EDGE('',*,*,#600,.F.);
#807=ORIENTED_EDGE('',*,*,#593,.F.);
#808=ORIENTED_EDGE('',*,*,#538,.F.);
#809=ORIENTED_EDGE('',*,*,#566,.F.);
#810=ORIENTED_EDGE('',*,*,#601,.F.);
#811=ORIENTED_EDGE('',*,*,#602,.F.);
#812=ORIENTED_EDGE('',*,*,#539,.F.);
#813=ORIENTED_EDGE('',*,*,#602,.T.);
#814=ORIENTED_EDGE('',*,*,#603,.F.);
#815=ORIENTED_EDGE('',*,*,#604,.F.);
#816=ORIENTED_EDGE('',*,*,#540,.F.);
#817=ORIENTED_EDGE('',*,*,#604,.T.);
#818=ORIENTED_EDGE('',*,*,#605,.F.);
#819=ORIENTED_EDGE('',*,*,#567,.F.);
#820=ORIENTED_EDGE('',*,*,#528,.T.);
#821=ORIENTED_EDGE('',*,*,#569,.F.);
#822=ORIENTED_EDGE('',*,*,#606,.F.);
#823=ORIENTED_EDGE('',*,*,#607,.F.);
#824=ORIENTED_EDGE('',*,*,#519,.F.);
#825=ORIENTED_EDGE('',*,*,#529,.T.);
#826=ORIENTED_EDGE('',*,*,#607,.T.);
#827=ORIENTED_EDGE('',*,*,#608,.F.);
#828=ORIENTED_EDGE('',*,*,#542,.F.);
#829=ORIENTED_EDGE('',*,*,#609,.F.);
#830=ORIENTED_EDGE('',*,*,#520,.F.);
#831=ORIENTED_EDGE('',*,*,#609,.T.);
#832=ORIENTED_EDGE('',*,*,#548,.T.);
#833=ORIENTED_EDGE('',*,*,#562,.F.);
#834=ORIENTED_EDGE('',*,*,#558,.F.);
#835=ORIENTED_EDGE('',*,*,#589,.T.);
#836=ORIENTED_EDGE('',*,*,#587,.T.);
#837=ORIENTED_EDGE('',*,*,#592,.T.);
#838=ORIENTED_EDGE('',*,*,#543,.F.);
#839=ORIENTED_EDGE('',*,*,#608,.T.);
#840=ORIENTED_EDGE('',*,*,#606,.T.);
#841=ORIENTED_EDGE('',*,*,#568,.F.);
#842=ORIENTED_EDGE('',*,*,#605,.T.);
#843=ORIENTED_EDGE('',*,*,#603,.T.);
#844=ORIENTED_EDGE('',*,*,#601,.T.);
#845=ORIENTED_EDGE('',*,*,#565,.F.);
#846=ORIENTED_EDGE('',*,*,#610,.F.);
#847=ORIENTED_EDGE('',*,*,#561,.F.);
#848=ORIENTED_EDGE('',*,*,#600,.T.);
#849=ORIENTED_EDGE('',*,*,#598,.T.);
#850=ORIENTED_EDGE('',*,*,#596,.T.);
#851=ORIENTED_EDGE('',*,*,#594,.T.);
#852=ORIENTED_EDGE('',*,*,#574,.T.);
#853=ORIENTED_EDGE('',*,*,#570,.T.);
#854=ORIENTED_EDGE('',*,*,#581,.T.);
#855=ORIENTED_EDGE('',*,*,#584,.T.);
#856=ORIENTED_EDGE('',*,*,#559,.T.);
#857=ORIENTED_EDGE('',*,*,#610,.T.);
#858=ORIENTED_EDGE('',*,*,#564,.T.);
#859=ORIENTED_EDGE('',*,*,#611,.F.);
#860=ORIENTED_EDGE('',*,*,#506,.T.);
#861=ORIENTED_EDGE('',*,*,#510,.T.);
#862=ORIENTED_EDGE('',*,*,#514,.T.);
#863=ORIENTED_EDGE('',*,*,#516,.T.);
#864=ORIENTED_EDGE('',*,*,#541,.T.);
#865=ORIENTED_EDGE('',*,*,#523,.T.);
#866=ORIENTED_EDGE('',*,*,#504,.T.);
#867=ORIENTED_EDGE('',*,*,#563,.T.);
#868=ORIENTED_EDGE('',*,*,#546,.T.);
#869=ORIENTED_EDGE('',*,*,#551,.T.);
#870=ORIENTED_EDGE('',*,*,#554,.T.);
#871=ORIENTED_EDGE('',*,*,#557,.T.);
#872=ORIENTED_EDGE('',*,*,#560,.T.);
#873=ORIENTED_EDGE('',*,*,#611,.T.);
#874=CYLINDRICAL_SURFACE('',#943,2.00000000000001);
#875=CYLINDRICAL_SURFACE('',#946,2.00000000000001);
#876=CYLINDRICAL_SURFACE('',#956,24.);
#877=CYLINDRICAL_SURFACE('',#964,24.);
#878=CYLINDRICAL_SURFACE('',#966,24.);
#879=CYLINDRICAL_SURFACE('',#974,24.);
#880=CYLINDRICAL_SURFACE('',#979,24.);
#881=CYLINDRICAL_SURFACE('',#986,24.);
#882=CYLINDRICAL_SURFACE('',#991,2.10000000000001);
#883=CYLINDRICAL_SURFACE('',#993,2.10000000000001);
#884=ADVANCED_FACE('',(#68),#874,.F.);
#885=ADVANCED_FACE('',(#69),#875,.F.);
#886=ADVANCED_FACE('',(#70),#37,.F.);
#887=ADVANCED_FACE('',(#71),#38,.F.);
#888=ADVANCED_FACE('',(#72),#39,.F.);
#889=ADVANCED_FACE('',(#73),#40,.F.);
#890=ADVANCED_FACE('',(#74,#23,#24),#41,.F.);
#891=ADVANCED_FACE('',(#75),#876,.T.);
#892=ADVANCED_FACE('',(#76),#19,.T.);
#893=ADVANCED_FACE('',(#77),#20,.T.);
#894=ADVANCED_FACE('',(#78),#877,.T.);
#895=ADVANCED_FACE('',(#79),#878,.T.);
#896=ADVANCED_FACE('',(#80),#42,.T.);
#897=ADVANCED_FACE('',(#81,#25,#26,#27),#43,.F.);
#898=ADVANCED_FACE('',(#82,#28,#29),#44,.T.);
#899=ADVANCED_FACE('',(#83),#879,.F.);
#900=ADVANCED_FACE('',(#84),#880,.F.);
#901=ADVANCED_FACE('',(#85),#21,.T.);
#902=ADVANCED_FACE('',(#86),#22,.T.);
#903=ADVANCED_FACE('',(#87),#881,.F.);
#904=ADVANCED_FACE('',(#88,#30,#31),#45,.T.);
#905=ADVANCED_FACE('',(#89),#46,.T.);
#906=ADVANCED_FACE('',(#90),#47,.T.);
#907=ADVANCED_FACE('',(#91),#882,.F.);
#908=ADVANCED_FACE('',(#92),#883,.F.);
#909=ADVANCED_FACE('',(#93),#48,.T.);
#910=ADVANCED_FACE('',(#94),#49,.T.);
#911=ADVANCED_FACE('',(#95,#32,#33),#50,.T.);
#912=ADVANCED_FACE('',(#96),#51,.T.);
#913=ADVANCED_FACE('',(#97),#52,.T.);
#914=ADVANCED_FACE('',(#98),#53,.T.);
#915=ADVANCED_FACE('',(#99),#54,.T.);
#916=ADVANCED_FACE('',(#100),#55,.T.);
#917=ADVANCED_FACE('',(#101),#56,.T.);
#918=ADVANCED_FACE('',(#102),#57,.T.);
#919=ADVANCED_FACE('',(#103),#58,.T.);
#920=ADVANCED_FACE('',(#104),#59,.T.);
#921=ADVANCED_FACE('',(#105),#60,.T.);
#922=ADVANCED_FACE('',(#106),#61,.T.);
#923=ADVANCED_FACE('',(#107),#62,.T.);
#924=ADVANCED_FACE('',(#108),#63,.T.);
#925=ADVANCED_FACE('',(#109),#64,.T.);
#926=ADVANCED_FACE('',(#110,#34,#35),#65,.T.);
#927=ADVANCED_FACE('',(#111),#66,.T.);
#928=ADVANCED_FACE('',(#112,#36),#67,.T.);
#929=CLOSED_SHELL('',(#884,#885,#886,#887,#888,#889,#890,#891,#892,#893,
#894,#895,#896,#897,#898,#899,#900,#901,#902,#903,#904,#905,#906,#907,#908,
#909,#910,#911,#912,#913,#914,#915,#916,#917,#918,#919,#920,#921,#922,#923,
#924,#925,#926,#927,#928));
#930=DERIVED_UNIT_ELEMENT(#932,1.);
#931=DERIVED_UNIT_ELEMENT(#1569,-3.);
#932=(
MASS_UNIT()
NAMED_UNIT(*)
SI_UNIT(.KILO.,.GRAM.)
);
#933=DERIVED_UNIT((#930,#931));
#934=MEASURE_REPRESENTATION_ITEM('density measure',
POSITIVE_RATIO_MEASURE(7850.),#933);
#935=PROPERTY_DEFINITION_REPRESENTATION(#940,#937);
#936=PROPERTY_DEFINITION_REPRESENTATION(#941,#938);
#937=REPRESENTATION('material name',(#939),#1566);
#938=REPRESENTATION('density',(#934),#1566);
#939=DESCRIPTIVE_REPRESENTATION_ITEM('Steel','Steel');
#940=PROPERTY_DEFINITION('material property','material name',#1576);
#941=PROPERTY_DEFINITION('material property','density of part',#1576);
#942=AXIS2_PLACEMENT_3D('',#1257,#1015,#1016);
#943=AXIS2_PLACEMENT_3D('',#1258,#1017,#1018);
#944=AXIS2_PLACEMENT_3D('',#1260,#1019,#1020);
#945=AXIS2_PLACEMENT_3D('',#1263,#1022,#1023);
#946=AXIS2_PLACEMENT_3D('',#1264,#1024,#1025);
#947=AXIS2_PLACEMENT_3D('',#1266,#1026,#1027);
#948=AXIS2_PLACEMENT_3D('',#1269,#1029,#1030);
#949=AXIS2_PLACEMENT_3D('',#1270,#1031,#1032);
#950=AXIS2_PLACEMENT_3D('',#1279,#1037,#1038);
#951=AXIS2_PLACEMENT_3D('',#1285,#1042,#1043);
#952=AXIS2_PLACEMENT_3D('',#1291,#1047,#1048);
#953=AXIS2_PLACEMENT_3D('',#1294,#1051,#1052);
#954=AXIS2_PLACEMENT_3D('',#1296,#1053,#1054);
#955=AXIS2_PLACEMENT_3D('',#1298,#1055,#1056);
#956=AXIS2_PLACEMENT_3D('',#1299,#1057,#1058);
#957=AXIS2_PLACEMENT_3D('',#1302,#1059,#1060);
#958=AXIS2_PLACEMENT_3D('',#1306,#1062,#1063);
#959=AXIS2_PLACEMENT_3D('',#1319,#1065,#1066);
#960=AXIS2_PLACEMENT_3D('',#1320,#1067,#1068);
#961=AXIS2_PLACEMENT_3D('',#1321,#1069,#1070);
#962=AXIS2_PLACEMENT_3D('',#1338,#1071,#1072);
#963=AXIS2_PLACEMENT_3D('',#1339,#1073,#1074);
#964=AXIS2_PLACEMENT_3D('',#1344,#1075,#1076);
#965=AXIS2_PLACEMENT_3D('',#1348,#1078,#1079);
#966=AXIS2_PLACEMENT_3D('',#1350,#1081,#1082);
#967=AXIS2_PLACEMENT_3D('',#1353,#1083,#1084);
#968=AXIS2_PLACEMENT_3D('',#1356,#1086,#1087);
#969=AXIS2_PLACEMENT_3D('',#1360,#1089,#1090);
#970=AXIS2_PLACEMENT_3D('',#1364,#1092,#1093);
#971=AXIS2_PLACEMENT_3D('',#1366,#1095,#1096);
#972=AXIS2_PLACEMENT_3D('',#1372,#1100,#1101);
#973=AXIS2_PLACEMENT_3D('',#1400,#1117,#1118);
#974=AXIS2_PLACEMENT_3D('',#1402,#1120,#1121);
#975=AXIS2_PLACEMENT_3D('',#1405,#1122,#1123);
#976=AXIS2_PLACEMENT_3D('',#1409,#1125,#1126);
#977=AXIS2_PLACEMENT_3D('',#1411,#1127,#1128);
#978=AXIS2_PLACEMENT_3D('',#1415,#1130,#1131);
#979=AXIS2_PLACEMENT_3D('',#1417,#1133,#1134);
#980=AXIS2_PLACEMENT_3D('',#1421,#1136,#1137);
#981=AXIS2_PLACEMENT_3D('',#1439,#1139,#1140);
#982=AXIS2_PLACEMENT_3D('',#1440,#1141,#1142);
#983=AXIS2_PLACEMENT_3D('',#1456,#1143,#1144);
#984=AXIS2_PLACEMENT_3D('',#1457,#1145,#1146);
#985=AXIS2_PLACEMENT_3D('',#1458,#1147,#1148);
#986=AXIS2_PLACEMENT_3D('',#1459,#1149,#1150);
#987=AXIS2_PLACEMENT_3D('',#1462,#1151,#1152);
#988=AXIS2_PLACEMENT_3D('',#1465,#1155,#1156);
#989=AXIS2_PLACEMENT_3D('',#1479,#1165,#1166);
#990=AXIS2_PLACEMENT_3D('',#1488,#1171,#1172);
#991=AXIS2_PLACEMENT_3D('',#1494,#1176,#1177);
#992=AXIS2_PLACEMENT_3D('',#1496,#1178,#1179);
#993=AXIS2_PLACEMENT_3D('',#1498,#1181,#1182);
#994=AXIS2_PLACEMENT_3D('',#1500,#1183,#1184);
#995=AXIS2_PLACEMENT_3D('',#1502,#1186,#1187);
#996=AXIS2_PLACEMENT_3D('',#1508,#1191,#1192);
#997=AXIS2_PLACEMENT_3D('',#1511,#1195,#1196);
#998=AXIS2_PLACEMENT_3D('',#1512,#1197,#1198);
#999=AXIS2_PLACEMENT_3D('',#1518,#1202,#1203);
#1000=AXIS2_PLACEMENT_3D('',#1521,#1206,#1207);
#1001=AXIS2_PLACEMENT_3D('',#1523,#1209,#1210);
#1002=AXIS2_PLACEMENT_3D('',#1525,#1212,#1213);
#1003=AXIS2_PLACEMENT_3D('',#1531,#1217,#1218);
#1004=AXIS2_PLACEMENT_3D('',#1535,#1221,#1222);
#1005=AXIS2_PLACEMENT_3D('',#1539,#1225,#1226);
#1006=AXIS2_PLACEMENT_3D('',#1541,#1228,#1229);
#1007=AXIS2_PLACEMENT_3D('',#1545,#1232,#1233);
#1008=AXIS2_PLACEMENT_3D('',#1549,#1236,#1237);
#1009=AXIS2_PLACEMENT_3D('',#1551,#1239,#1240);
#1010=AXIS2_PLACEMENT_3D('',#1555,#1243,#1244);
#1011=AXIS2_PLACEMENT_3D('',#1558,#1247,#1248);
#1012=AXIS2_PLACEMENT_3D('',#1559,#1249,#1250);
#1013=AXIS2_PLACEMENT_3D('',#1561,#1252,#1253);
#1014=AXIS2_PLACEMENT_3D('',#1563,#1255,#1256);
#1015=DIRECTION('axis',(0.,0.,1.));
#1016=DIRECTION('refdir',(1.,0.,0.));
#1017=DIRECTION('center_axis',(-1.,0.,0.));
#1018=DIRECTION('ref_axis',(0.,1.,0.));
#1019=DIRECTION('center_axis',(-1.,0.,0.));
#1020=DIRECTION('ref_axis',(0.,1.,0.));
#1021=DIRECTION('',(-1.,0.,0.));
#1022=DIRECTION('center_axis',(1.,0.,0.));
#1023=DIRECTION('ref_axis',(0.,1.,0.));
#1024=DIRECTION('center_axis',(-1.,0.,0.));
#1025=DIRECTION('ref_axis',(0.,1.,0.));
#1026=DIRECTION('center_axis',(-1.,0.,0.));
#1027=DIRECTION('ref_axis',(0.,1.,0.));
#1028=DIRECTION('',(-1.,0.,0.));
#1029=DIRECTION('center_axis',(1.,0.,0.));
#1030=DIRECTION('ref_axis',(0.,1.,0.));
#1031=DIRECTION('center_axis',(1.,-7.40148683083438E-16,0.));
#1032=DIRECTION('ref_axis',(7.40148683083438E-16,1.,0.));
#1033=DIRECTION('',(7.40148683083438E-16,1.,0.));
#1034=DIRECTION('',(0.,0.,1.));
#1035=DIRECTION('',(7.40148683083438E-16,1.,0.));
#1036=DIRECTION('',(0.,0.,1.));
#1037=DIRECTION('center_axis',(0.,-1.,0.));
#1038=DIRECTION('ref_axis',(1.,0.,0.));
#1039=DIRECTION('',(1.,0.,0.));
#1040=DIRECTION('',(0.,0.,1.));
#1041=DIRECTION('',(1.,0.,0.));
#1042=DIRECTION('center_axis',(-1.,0.,0.));
#1043=DIRECTION('ref_axis',(0.,-1.,0.));
#1044=DIRECTION('',(0.,-1.,0.));
#1045=DIRECTION('',(0.,0.,1.));
#1046=DIRECTION('',(0.,-1.,0.));
#1047=DIRECTION('center_axis',(0.,1.,0.));
#1048=DIRECTION('ref_axis',(-1.,0.,0.));
#1049=DIRECTION('',(-1.,0.,0.));
#1050=DIRECTION('',(-1.,0.,0.));
#1051=DIRECTION('center_axis',(0.,0.,1.));
#1052=DIRECTION('ref_axis',(1.,0.,0.));
#1053=DIRECTION('center_axis',(0.,0.,-1.));
#1054=DIRECTION('ref_axis',(1.,0.,0.));
#1055=DIRECTION('center_axis',(0.,0.,-1.));
#1056=DIRECTION('ref_axis',(1.,0.,0.));
#1057=DIRECTION('center_axis',(0.,-1.,0.));
#1058=DIRECTION('ref_axis',(-0.812232862067414,0.,-0.583333333333333));
#1059=DIRECTION('center_axis',(0.,-1.,0.));
#1060=DIRECTION('ref_axis',(-0.812232862067414,0.,-0.583333333333333));
#1061=DIRECTION('',(0.,-1.,0.));
#1062=DIRECTION('center_axis',(0.,1.,0.));
#1063=DIRECTION('ref_axis',(0.,0.,-1.));
#1064=DIRECTION('',(0.,-1.,0.));
#1065=DIRECTION('center_axis',(-0.748343267061884,0.663311657249551,0.));
#1066=DIRECTION('ref_axis',(0.,0.,-1.));
#1067=DIRECTION('center_axis',(0.,0.,1.));
#1068=DIRECTION('ref_axis',(-1.,1.48029736616688E-15,0.));
#1069=DIRECTION('center_axis',(0.,0.,1.));
#1070=DIRECTION('ref_axis',(1.,-7.88368711621069E-15,0.));
#1071=DIRECTION('center_axis',(-1.,-1.46179981287329E-15,-1.8503717077086E-16));
#1072=DIRECTION('ref_axis',(1.85037170770859E-16,2.77555756156289E-16,-1.));
#1073=DIRECTION('center_axis',(0.,0.,1.));
#1074=DIRECTION('ref_axis',(-1.,1.48029736616688E-15,0.));
#1075=DIRECTION('center_axis',(1.,0.,0.));
#1076=DIRECTION('ref_axis',(0.,-0.812232862067414,-0.583333333333333));
#1077=DIRECTION('',(1.,0.,0.));
#1078=DIRECTION('center_axis',(-1.,0.,0.));
#1079=DIRECTION('ref_axis',(0.,0.,-1.));
#1080=DIRECTION('',(1.,0.,0.));
#1081=DIRECTION('center_axis',(1.,0.,0.));
#1082=DIRECTION('ref_axis',(0.,-0.812232862067414,-0.583333333333333));
#1083=DIRECTION('center_axis',(-1.,0.,0.));
#1084=DIRECTION('ref_axis',(0.,-0.812232862067414,-0.583333333333333));
#1085=DIRECTION('',(1.,0.,0.));
#1086=DIRECTION('center_axis',(1.,0.,0.));
#1087=DIRECTION('ref_axis',(0.,-0.812232862067414,-0.583333333333333));
#1088=DIRECTION('',(1.,0.,0.));
#1089=DIRECTION('center_axis',(-1.,0.,0.));
#1090=DIRECTION('ref_axis',(0.,-0.812232862067414,-0.583333333333333));
#1091=DIRECTION('',(1.,0.,0.));
#1092=DIRECTION('center_axis',(1.,0.,0.));
#1093=DIRECTION('ref_axis',(0.,-0.812232862067414,-0.583333333333333));
#1094=DIRECTION('',(1.,0.,0.));
#1095=DIRECTION('center_axis',(0.,1.,0.));
#1096=DIRECTION('ref_axis',(-1.,0.,0.));
#1097=DIRECTION('',(-1.,0.,0.));
#1098=DIRECTION('',(0.,0.,1.));
#1099=DIRECTION('',(-1.,0.,0.));
#1100=DIRECTION('center_axis',(0.,0.,1.));
#1101=DIRECTION('ref_axis',(1.,0.,0.));
#1102=DIRECTION('',(0.,1.,0.));
#1103=DIRECTION('',(0.,-1.,0.));
#1104=DIRECTION('',(1.,0.,0.));
#1105=DIRECTION('',(0.,1.,0.));
#1106=DIRECTION('',(0.,-1.,0.));
#1107=DIRECTION('',(1.,0.,0.));
#1108=DIRECTION('',(0.,1.,0.));
#1109=DIRECTION('',(0.,-1.,0.));
#1110=DIRECTION('',(1.,0.,0.));
#1111=DIRECTION('',(0.,1.,0.));
#1112=DIRECTION('',(-1.,0.,0.));
#1113=DIRECTION('',(0.,-1.,0.));
#1114=DIRECTION('',(-1.,0.,0.));
#1115=DIRECTION('',(0.,-1.,0.));
#1116=DIRECTION('',(1.,0.,0.));
#1117=DIRECTION('center_axis',(1.,0.,0.));
#1118=DIRECTION('ref_axis',(0.,1.,0.));
#1119=DIRECTION('',(0.,1.,0.));
#1120=DIRECTION('center_axis',(1.,-1.2335811384724E-17,0.));
#1121=DIRECTION('ref_axis',(0.,-0.705878097754059,-0.708333333333333));
#1122=DIRECTION('center_axis',(1.,0.,0.));
#1123=DIRECTION('ref_axis',(0.,-0.705878097754059,-0.708333333333333));
#1124=DIRECTION('',(-1.,1.2335811384724E-17,0.));
#1125=DIRECTION('center_axis',(-1.,0.,0.));
#1126=DIRECTION('ref_axis',(0.,0.,-1.));
#1127=DIRECTION('center_axis',(-1.,0.,0.));
#1128=DIRECTION('ref_axis',(0.,0.,-1.));
#1129=DIRECTION('',(-1.,1.2335811384724E-17,0.));
#1130=DIRECTION('center_axis',(-1.,0.,0.));
#1131=DIRECTION('ref_axis',(0.,-0.705878097754059,-0.708333333333333));
#1132=DIRECTION('',(-1.,1.2335811384724E-17,0.));
#1133=DIRECTION('center_axis',(1.,-1.2335811384724E-17,0.));
#1134=DIRECTION('ref_axis',(0.,-0.705878097754059,-0.708333333333333));
#1135=DIRECTION('',(-1.,1.2335811384724E-17,0.));
#1136=DIRECTION('center_axis',(-1.,0.,0.));
#1137=DIRECTION('ref_axis',(0.,0.,-1.));
#1138=DIRECTION('',(-1.,1.2335811384724E-17,0.));
#1139=DIRECTION('center_axis',(-0.806768556548599,0.590867579212543,0.));
#1140=DIRECTION('ref_axis',(0.,0.,-1.));
#1141=DIRECTION('center_axis',(0.,0.,-1.));
#1142=DIRECTION('ref_axis',(-1.,1.61486985400023E-15,0.));
#1143=DIRECTION('center_axis',(1.57282543282987E-15,1.,0.));
#1144=DIRECTION('ref_axis',(0.,0.,-1.));
#1145=DIRECTION('center_axis',(0.,0.,-1.));
#1146=DIRECTION('ref_axis',(-1.,1.61486985400023E-15,0.));
#1147=DIRECTION('center_axis',(0.,0.,-1.));
#1148=DIRECTION('ref_axis',(0.590867579212543,0.806768556548599,0.));
#1149=DIRECTION('center_axis',(5.48362436175039E-17,-1.,0.));
#1150=DIRECTION('ref_axis',(-0.705878097754059,0.,-0.708333333333333));
#1151=DIRECTION('center_axis',(0.,-1.,0.));
#1152=DIRECTION('ref_axis',(-0.705878097754059,0.,-0.708333333333333));
#1153=DIRECTION('',(-5.48362436175039E-17,1.,0.));
#1154=DIRECTION('',(-5.48362436175039E-17,1.,0.));
#1155=DIRECTION('center_axis',(-1.,0.,0.));
#1156=DIRECTION('ref_axis',(0.,-1.,0.));
#1157=DIRECTION('',(0.,0.,1.));
#1158=DIRECTION('',(0.,-1.,0.));
#1159=DIRECTION('',(0.,0.,1.));
#1160=DIRECTION('',(0.,-1.,0.));
#1161=DIRECTION('',(0.,0.,-1.));
#1162=DIRECTION('',(0.,0.,1.));
#1163=DIRECTION('',(0.,-1.,0.));
#1164=DIRECTION('',(0.,0.,-1.));
#1165=DIRECTION('center_axis',(1.,0.,0.));
#1166=DIRECTION('ref_axis',(0.,1.,0.));
#1167=DIRECTION('',(0.,-1.,0.));
#1168=DIRECTION('',(0.,0.,1.));
#1169=DIRECTION('',(0.,1.,0.));
#1170=DIRECTION('',(0.,0.,1.));
#1171=DIRECTION('center_axis',(0.,1.,0.));
#1172=DIRECTION('ref_axis',(-1.,0.,0.));
#1173=DIRECTION('',(1.,0.,0.));
#1174=DIRECTION('',(0.,0.,1.));
#1175=DIRECTION('',(-1.,0.,0.));
#1176=DIRECTION('center_axis',(0.,0.,1.));
#1177=DIRECTION('ref_axis',(1.,0.,0.));
#1178=DIRECTION('center_axis',(0.,0.,-1.));
#1179=DIRECTION('ref_axis',(1.,0.,0.));
#1180=DIRECTION('',(0.,0.,-1.));
#1181=DIRECTION('center_axis',(0.,0.,1.));
#1182=DIRECTION('ref_axis',(1.,0.,0.));
#1183=DIRECTION('center_axis',(0.,0.,-1.));
#1184=DIRECTION('ref_axis',(1.,0.,0.));
#1185=DIRECTION('',(0.,0.,-1.));
#1186=DIRECTION('center_axis',(0.,-1.,0.));
#1187=DIRECTION('ref_axis',(1.,0.,0.));
#1188=DIRECTION('',(-1.,0.,0.));
#1189=DIRECTION('',(1.,0.,0.));
#1190=DIRECTION('',(0.,0.,1.));
#1191=DIRECTION('center_axis',(-1.,0.,0.));
#1192=DIRECTION('ref_axis',(0.,-1.,0.));
#1193=DIRECTION('',(0.,1.,0.));
#1194=DIRECTION('',(0.,-1.,0.));
#1195=DIRECTION('center_axis',(0.,0.,1.));
#1196=DIRECTION('ref_axis',(1.,0.,0.));
#1197=DIRECTION('center_axis',(0.,-1.,0.));
#1198=DIRECTION('ref_axis',(1.,0.,0.));
#1199=DIRECTION('',(0.,0.,1.));
#1200=DIRECTION('',(1.,0.,0.));
#1201=DIRECTION('',(0.,0.,1.));
#1202=DIRECTION('center_axis',(1.,0.,0.));
#1203=DIRECTION('ref_axis',(0.,1.,0.));
#1204=DIRECTION('',(0.,1.,0.));
#1205=DIRECTION('',(0.,0.,1.));
#1206=DIRECTION('center_axis',(6.53072367426563E-17,1.,0.));
#1207=DIRECTION('ref_axis',(-1.,6.53072367426563E-17,0.));
#1208=DIRECTION('',(0.,0.,1.));
#1209=DIRECTION('center_axis',(-1.,0.,0.));
#1210=DIRECTION('ref_axis',(0.,-1.,0.));
#1211=DIRECTION('',(0.,-1.,0.));
#1212=DIRECTION('center_axis',(0.,-1.,0.));
#1213=DIRECTION('ref_axis',(1.,0.,0.));
#1214=DIRECTION('',(0.,0.,1.));
#1215=DIRECTION('',(1.,0.,0.));
#1216=DIRECTION('',(0.,0.,1.));
#1217=DIRECTION('center_axis',(1.,0.,0.));
#1218=DIRECTION('ref_axis',(0.,1.,0.));
#1219=DIRECTION('',(0.,1.,0.));
#1220=DIRECTION('',(0.,0.,1.));
#1221=DIRECTION('center_axis',(0.,1.,0.));
#1222=DIRECTION('ref_axis',(-1.,0.,0.));
#1223=DIRECTION('',(-1.,0.,0.));
#1224=DIRECTION('',(0.,0.,1.));
#1225=DIRECTION('center_axis',(-1.,0.,0.));
#1226=DIRECTION('ref_axis',(0.,-1.,0.));
#1227=DIRECTION('',(0.,-1.,0.));
#1228=DIRECTION('center_axis',(0.,-1.,0.));
#1229=DIRECTION('ref_axis',(1.,0.,0.));
#1230=DIRECTION('',(1.,0.,0.));
#1231=DIRECTION('',(0.,0.,1.));
#1232=DIRECTION('center_axis',(1.,0.,0.));
#1233=DIRECTION('ref_axis',(0.,1.,0.));
#1234=DIRECTION('',(0.,1.,0.));
#1235=DIRECTION('',(0.,0.,1.));
#1236=DIRECTION('center_axis',(0.,1.,0.));
#1237=DIRECTION('ref_axis',(-1.,0.,0.));
#1238=DIRECTION('',(-1.,0.,0.));
#1239=DIRECTION('center_axis',(0.,-1.,0.));
#1240=DIRECTION('ref_axis',(1.,0.,0.));
#1241=DIRECTION('',(1.,0.,0.));
#1242=DIRECTION('',(0.,0.,1.));
#1243=DIRECTION('center_axis',(1.,0.,0.));
#1244=DIRECTION('ref_axis',(0.,1.,0.));
#1245=DIRECTION('',(0.,1.,0.));
#1246=DIRECTION('',(0.,0.,1.));
#1247=DIRECTION('center_axis',(0.,1.,0.));
#1248=DIRECTION('ref_axis',(-1.,0.,0.));
#1249=DIRECTION('center_axis',(0.,0.,1.));
#1250=DIRECTION('ref_axis',(1.,0.,0.));
#1251=DIRECTION('',(1.,0.,0.));
#1252=DIRECTION('center_axis',(0.,-1.,0.));
#1253=DIRECTION('ref_axis',(1.,0.,0.));
#1254=DIRECTION('',(1.,0.,0.));
#1255=DIRECTION('center_axis',(0.,0.,1.));
#1256=DIRECTION('ref_axis',(1.,0.,0.));
#1257=CARTESIAN_POINT('',(0.,0.,0.));
#1258=CARTESIAN_POINT('Origin',(161.,37.6,4.5));
#1259=CARTESIAN_POINT('',(161.,35.6,4.5));
#1260=CARTESIAN_POINT('Origin',(161.,37.6,4.5));
#1261=CARTESIAN_POINT('',(159.,35.6,4.5));
#1262=CARTESIAN_POINT('',(161.,35.6,4.5));
#1263=CARTESIAN_POINT('Origin',(159.,37.6,4.5));
#1264=CARTESIAN_POINT('Origin',(161.,112.6,4.5));
#1265=CARTESIAN_POINT('',(161.,110.6,4.5));
#1266=CARTESIAN_POINT('Origin',(161.,112.6,4.5));
#1267=CARTESIAN_POINT('',(159.,110.6,4.5));
#1268=CARTESIAN_POINT('',(161.,110.6,4.5));
#1269=CARTESIAN_POINT('Origin',(159.,112.6,4.5));
#1270=CARTESIAN_POINT('Origin',(68.,69.,0.));
#1271=CARTESIAN_POINT('',(68.,69.,0.));
#1272=CARTESIAN_POINT('',(68.,81.,0.));
#1273=CARTESIAN_POINT('',(68.,73.9,0.));
#1274=CARTESIAN_POINT('',(68.,69.,2.));
#1275=CARTESIAN_POINT('',(68.,69.,0.));
#1276=CARTESIAN_POINT('',(68.,81.,2.));
#1277=CARTESIAN_POINT('',(68.,81.,2.));
#1278=CARTESIAN_POINT('',(68.,81.,0.));
#1279=CARTESIAN_POINT('Origin',(62.,69.,0.));
#1280=CARTESIAN_POINT('',(62.,69.,0.));
#1281=CARTESIAN_POINT('',(71.25,69.,0.));
#1282=CARTESIAN_POINT('',(62.,69.,2.));
#1283=CARTESIAN_POINT('',(62.,69.,0.));
#1284=CARTESIAN_POINT('',(68.,69.,2.));
#1285=CARTESIAN_POINT('Origin',(62.,81.,0.));
#1286=CARTESIAN_POINT('',(62.,81.,0.));
#1287=CARTESIAN_POINT('',(62.,79.9,0.));
#1288=CARTESIAN_POINT('',(62.,81.,2.));
#1289=CARTESIAN_POINT('',(62.,81.,0.));
#1290=CARTESIAN_POINT('',(62.,69.,2.));
#1291=CARTESIAN_POINT('Origin',(68.,81.,0.));
#1292=CARTESIAN_POINT('',(74.25,81.,0.));
#1293=CARTESIAN_POINT('',(62.,81.,2.));
#1294=CARTESIAN_POINT('Origin',(65.,75.,2.));
#1295=CARTESIAN_POINT('',(62.9,78.,2.));
#1296=CARTESIAN_POINT('Origin',(65.,78.,2.));
#1297=CARTESIAN_POINT('',(62.9,72.,2.));
#1298=CARTESIAN_POINT('Origin',(65.,72.,2.));
#1299=CARTESIAN_POINT('Origin',(19.4935886896179,157.6,24.));
#1300=CARTESIAN_POINT('',(0.,157.6,10.));
#1301=CARTESIAN_POINT('',(19.4935886896179,157.6,0.));
#1302=CARTESIAN_POINT('Origin',(19.4935886896179,157.6,24.));
#1303=CARTESIAN_POINT('',(19.4935886896179,24.,0.));
#1304=CARTESIAN_POINT('',(19.4935886896179,157.6,0.));
#1305=CARTESIAN_POINT('',(0.,24.,10.));
#1306=CARTESIAN_POINT('Origin',(19.4935886896179,24.,24.));
#1307=CARTESIAN_POINT('',(0.,157.6,10.));
#1308=CARTESIAN_POINT('Ctrl Pts',(0.,24.0000000000002,10.));
#1309=CARTESIAN_POINT('Ctrl Pts',(-8.43769498715119E-14,13.2021207623927,
10.));
#1310=CARTESIAN_POINT('Ctrl Pts',(8.08052022601077,6.03976159051477,10.));
#1311=CARTESIAN_POINT('Ctrl Pts',(7.18184846459608,24.0000000000001,-3.76938331462668E-16));
#1312=CARTESIAN_POINT('Ctrl Pts',(7.18184846459602,16.4333179467054,-3.76938331462668E-16));
#1313=CARTESIAN_POINT('Ctrl Pts',(12.8443240331771,11.414249534054,-2.50027589323381E-16));
#1314=CARTESIAN_POINT('Ctrl Pts',(19.4935886896179,24.,0.));
#1315=CARTESIAN_POINT('Ctrl Pts',(19.4935886896179,21.9725131198128,0.));
#1316=CARTESIAN_POINT('Ctrl Pts',(21.0108448454623,20.627657437264,0.));
#1317=CARTESIAN_POINT('',(21.0108448454623,20.627657437264,0.));
#1318=CARTESIAN_POINT('',(8.08052022601077,6.03976159051477,10.));
#1319=CARTESIAN_POINT('Origin',(21.0108448454623,20.627657437264,24.));
#1320=CARTESIAN_POINT('Origin',(24.,24.,10.));
#1321=CARTESIAN_POINT('Origin',(24.,24.,0.));
#1322=CARTESIAN_POINT('Ctrl Pts',(8.08052022601077,6.03976159051477,10.));
#1323=CARTESIAN_POINT('Ctrl Pts',(14.894534229115,-1.77635683940025E-14,
10.));
#1324=CARTESIAN_POINT('Ctrl Pts',(24.,0.,10.));
#1325=CARTESIAN_POINT('Ctrl Pts',(12.8443240331771,11.414249534054,9.89939415639629E-16));
#1326=CARTESIAN_POINT('Ctrl Pts',(17.6192873693676,7.18184846459607,9.89939415639629E-16));
#1327=CARTESIAN_POINT('Ctrl Pts',(24.,7.18184846459608,7.40814496493092E-16));
#1328=CARTESIAN_POINT('Ctrl Pts',(21.0108448454623,20.6276574372641,0.));
#1329=CARTESIAN_POINT('Ctrl Pts',(22.2902927526578,19.4935886896179,0.));
#1330=CARTESIAN_POINT('Ctrl Pts',(24.,19.4935886896179,0.));
#1331=CARTESIAN_POINT('',(21.0108448454623,16.1181070960265,0.32283662544013));
#1332=CARTESIAN_POINT('',(24.,16.1181070960265,0.238558040149885));
#1333=CARTESIAN_POINT('Ctrl Pts',(21.0108448454623,16.1181070960265,0.322836625440129));
#1334=CARTESIAN_POINT('Ctrl Pts',(22.0318645731118,16.1181070960265,0.262845209851378));
#1335=CARTESIAN_POINT('Ctrl Pts',(23.0351481050692,16.1181070960265,0.238558040149887));
#1336=CARTESIAN_POINT('Ctrl Pts',(24.,16.1181070960265,0.238558040149888));
#1337=CARTESIAN_POINT('',(24.,0.,10.));
#1338=CARTESIAN_POINT('Origin',(24.,19.4935886896179,24.));
#1339=CARTESIAN_POINT('Origin',(24.,24.,10.));
#1340=CARTESIAN_POINT('Ctrl Pts',(21.0108448454623,20.627657437264,5.55111512312578E-16));
#1341=CARTESIAN_POINT('Ctrl Pts',(21.0108448454623,19.2012284518297,3.86848242659004E-16));
#1342=CARTESIAN_POINT('Ctrl Pts',(21.0108448454623,17.6536857782435,0.0849285836332034));
#1343=CARTESIAN_POINT('Ctrl Pts',(21.0108448454623,16.1181070960265,0.322836625440128));
#1344=CARTESIAN_POINT('Origin',(24.,19.4935886896179,24.));
#1345=CARTESIAN_POINT('',(55.0108448454623,16.1181070960265,0.23855804014989));
#1346=CARTESIAN_POINT('',(24.,16.1181070960265,0.238558040149885));
#1347=CARTESIAN_POINT('',(55.0108448454623,0.,10.));
#1348=CARTESIAN_POINT('Origin',(55.0108448454623,19.4935886896179,24.));
#1349=CARTESIAN_POINT('',(24.,0.,10.));
#1350=CARTESIAN_POINT('Origin',(24.,19.4935886896179,24.));
#1351=CARTESIAN_POINT('',(161.,19.4935886896179,0.));
#1352=CARTESIAN_POINT('',(161.,0.,10.));
#1353=CARTESIAN_POINT('Origin',(161.,19.4935886896179,24.));
#1354=CARTESIAN_POINT('',(24.,0.,10.));
#1355=CARTESIAN_POINT('',(55.0108448454623,19.4935886896179,0.));
#1356=CARTESIAN_POINT('Origin',(55.0108448454623,19.4935886896179,24.));
#1357=CARTESIAN_POINT('',(75.,19.4935886896179,0.));
#1358=CARTESIAN_POINT('',(24.,19.4935886896179,0.));
#1359=CARTESIAN_POINT('',(75.,16.063989359806,0.246308740809282));
#1360=CARTESIAN_POINT('Origin',(75.,19.4935886896179,24.));
#1361=CARTESIAN_POINT('',(159.,16.063989359806,0.246308740809282));
#1362=CARTESIAN_POINT('',(24.,16.063989359806,0.246308740809282));
#1363=CARTESIAN_POINT('',(159.,19.4935886896179,0.));
#1364=CARTESIAN_POINT('Origin',(159.,19.4935886896179,24.));
#1365=CARTESIAN_POINT('',(24.,19.4935886896179,0.));
#1366=CARTESIAN_POINT('Origin',(161.,157.6,0.));
#1367=CARTESIAN_POINT('',(161.,157.6,10.));
#1368=CARTESIAN_POINT('',(161.,157.6,10.));
#1369=CARTESIAN_POINT('',(161.,157.6,0.));
#1370=CARTESIAN_POINT('',(161.,157.6,0.));
#1371=CARTESIAN_POINT('',(161.,157.6,0.));
#1372=CARTESIAN_POINT('Origin',(80.5,78.8,0.));
#1373=CARTESIAN_POINT('',(161.,0.,0.));
#1374=CARTESIAN_POINT('',(159.,76.063989359806,0.));
#1375=CARTESIAN_POINT('',(159.,2.,0.));
#1376=CARTESIAN_POINT('',(75.,76.063989359806,0.));
#1377=CARTESIAN_POINT('',(75.,76.063989359806,0.));
#1378=CARTESIAN_POINT('',(75.,16.063989359806,0.));
#1379=CARTESIAN_POINT('',(55.0108448454623,76.1181070960265,0.));
#1380=CARTESIAN_POINT('',(55.0108448454623,16.1181070960265,0.));
#1381=CARTESIAN_POINT('',(21.0108448454623,76.1181070960265,0.));
#1382=CARTESIAN_POINT('',(55.0108448454623,76.1181070960265,0.));
#1383=CARTESIAN_POINT('',(21.0108448454623,76.1181070960265,0.));
#1384=CARTESIAN_POINT('',(55.0108448454623,142.585771386601,0.));
#1385=CARTESIAN_POINT('',(55.0108448454623,82.5857713866007,0.));
#1386=CARTESIAN_POINT('',(55.0108448454623,82.5857713866007,0.));
#1387=CARTESIAN_POINT('',(21.0108448454623,142.585771386601,0.));
#1388=CARTESIAN_POINT('',(55.0108448454623,142.585771386601,0.));
#1389=CARTESIAN_POINT('',(21.0108448454623,82.5857713866007,0.));
#1390=CARTESIAN_POINT('',(21.0108448454623,142.585771386601,0.));
#1391=CARTESIAN_POINT('',(21.0108448454623,82.5857713866007,0.));
#1392=CARTESIAN_POINT('',(159.,142.585771386601,0.));
#1393=CARTESIAN_POINT('',(159.,82.5857713866007,0.));
#1394=CARTESIAN_POINT('',(159.,2.,0.));
#1395=CARTESIAN_POINT('',(75.,142.585771386601,0.));
#1396=CARTESIAN_POINT('',(159.,142.585771386601,0.));
#1397=CARTESIAN_POINT('',(75.,82.5857713866007,0.));
#1398=CARTESIAN_POINT('',(75.,142.585771386601,0.));
#1399=CARTESIAN_POINT('',(75.,82.5857713866007,0.));
#1400=CARTESIAN_POINT('Origin',(161.,0.,0.));
#1401=CARTESIAN_POINT('',(161.,0.,10.));
#1402=CARTESIAN_POINT('Origin',(24.,18.9410743460974,27.));
#1403=CARTESIAN_POINT('',(75.,16.063989359806,3.17307443286783));
#1404=CARTESIAN_POINT('',(75.,18.9410743460974,3.));
#1405=CARTESIAN_POINT('Origin',(75.,18.9410743460974,27.));
#1406=CARTESIAN_POINT('',(55.0108448454623,18.9410743460974,3.));
#1407=CARTESIAN_POINT('',(24.,18.9410743460974,3.));
#1408=CARTESIAN_POINT('',(55.0108448454623,16.1181070960265,3.16660209065801));
#1409=CARTESIAN_POINT('Origin',(55.0108448454623,18.9410743460974,27.));
#1410=CARTESIAN_POINT('',(55.0108448454623,2.,10.));
#1411=CARTESIAN_POINT('Origin',(55.0108448454623,18.9410743460974,27.));
#1412=CARTESIAN_POINT('',(159.,1.99999999999999,10.));
#1413=CARTESIAN_POINT('',(24.,2.,10.));
#1414=CARTESIAN_POINT('',(159.,16.063989359806,3.17307443286783));
#1415=CARTESIAN_POINT('Origin',(159.,18.9410743460974,27.));
#1416=CARTESIAN_POINT('',(24.,16.063989359806,3.17307443286783));
#1417=CARTESIAN_POINT('Origin',(24.,18.9410743460974,27.));
#1418=CARTESIAN_POINT('',(24.,16.1181070960265,3.16660209065801));
#1419=CARTESIAN_POINT('',(24.,16.1181070960265,3.16660209065801));
#1420=CARTESIAN_POINT('',(24.,2.00000000000001,10.));
#1421=CARTESIAN_POINT('Origin',(24.,18.9410743460974,27.));
#1422=CARTESIAN_POINT('',(24.,2.,10.));
#1423=CARTESIAN_POINT('Ctrl Pts',(21.0108448454623,19.9186178525143,3.));
#1424=CARTESIAN_POINT('Ctrl Pts',(22.3455793805446,18.9410743460974,3.));
#1425=CARTESIAN_POINT('Ctrl Pts',(24.,18.9410743460974,3.));
#1426=CARTESIAN_POINT('Ctrl Pts',(15.1513726963082,11.9181147715874,3.));
#1427=CARTESIAN_POINT('Ctrl Pts',(19.1025120115025,9.02434789960133,3.));
#1428=CARTESIAN_POINT('Ctrl Pts',(24.0000000000001,9.02434789960137,3.));
#1429=CARTESIAN_POINT('Ctrl Pts',(11.0009132573241,6.25109175593082,10.));
#1430=CARTESIAN_POINT('Ctrl Pts',(16.8053392917643,1.99999999999995,10.));
#1431=CARTESIAN_POINT('Ctrl Pts',(24.0000000000001,2.,10.));
#1432=CARTESIAN_POINT('',(21.0108448454623,19.9186178525143,3.));
#1433=CARTESIAN_POINT('',(21.0108448454554,16.1181070960265,3.23788512453496));
#1434=CARTESIAN_POINT('Ctrl Pts',(21.0108448454623,16.118107096034,3.23788512453328));
#1435=CARTESIAN_POINT('Ctrl Pts',(21.0108448454623,17.4171331591406,3.0655878904067));
#1436=CARTESIAN_POINT('Ctrl Pts',(21.0108448454623,18.7112669815306,3.));
#1437=CARTESIAN_POINT('Ctrl Pts',(21.0108448454623,19.9186178525143,3.));
#1438=CARTESIAN_POINT('',(11.0009132573241,6.25109175593082,10.));
#1439=CARTESIAN_POINT('Origin',(21.0108448454623,19.9186178525143,27.));
#1440=CARTESIAN_POINT('Origin',(24.,24.,10.));
#1441=CARTESIAN_POINT('Ctrl Pts',(24.,16.1181070960265,3.16660209065801));
#1442=CARTESIAN_POINT('Ctrl Pts',(23.0351485927225,16.1181070960265,3.166602090658));
#1443=CARTESIAN_POINT('Ctrl Pts',(22.0321456720974,16.1181070960265,3.18651246457795));
#1444=CARTESIAN_POINT('Ctrl Pts',(21.0108448454554,16.1181070960265,3.23788512453462));
#1445=CARTESIAN_POINT('Ctrl Pts',(18.9410743460974,24.,3.));
#1446=CARTESIAN_POINT('Ctrl Pts',(18.9410743460974,21.4344928510606,3.));
#1447=CARTESIAN_POINT('Ctrl Pts',(21.0108448454623,19.9186178525143,3.));
#1448=CARTESIAN_POINT('Ctrl Pts',(9.02434789960136,24.,3.));
#1449=CARTESIAN_POINT('Ctrl Pts',(9.02434789960135,16.4054739776689,3.));
#1450=CARTESIAN_POINT('Ctrl Pts',(15.1513726963082,11.9181147715874,3.));
#1451=CARTESIAN_POINT('Ctrl Pts',(2.,24.,10.));
#1452=CARTESIAN_POINT('Ctrl Pts',(1.99999999999998,12.843252275683,10.));
#1453=CARTESIAN_POINT('Ctrl Pts',(11.000913257324,6.25109175593082,10.));
#1454=CARTESIAN_POINT('',(18.9410743460974,24.,3.));
#1455=CARTESIAN_POINT('',(1.99999999999999,24.,10.));
#1456=CARTESIAN_POINT('Origin',(18.9410743460974,24.,27.));
#1457=CARTESIAN_POINT('Origin',(24.,24.,10.));
#1458=CARTESIAN_POINT('Origin',(24.,24.,3.));
#1459=CARTESIAN_POINT('Origin',(18.9410743460974,155.6,27.));
#1460=CARTESIAN_POINT('',(1.99999999999999,155.6,10.));
#1461=CARTESIAN_POINT('',(18.9410743460974,155.6,3.));
#1462=CARTESIAN_POINT('Origin',(18.9410743460974,155.6,27.));
#1463=CARTESIAN_POINT('',(1.99999999999999,155.6,10.));
#1464=CARTESIAN_POINT('',(18.9410743460974,155.6,3.));
#1465=CARTESIAN_POINT('Origin',(159.,155.6,0.));
#1466=CARTESIAN_POINT('',(159.,16.063989359806,0.));
#1467=CARTESIAN_POINT('',(159.,155.6,10.));
#1468=CARTESIAN_POINT('',(159.,2.,10.));
#1469=CARTESIAN_POINT('',(159.,155.6,3.));
#1470=CARTESIAN_POINT('',(159.,155.6,0.));
#1471=CARTESIAN_POINT('',(159.,142.585771386601,3.));
#1472=CARTESIAN_POINT('',(159.,117.2,3.));
#1473=CARTESIAN_POINT('',(159.,142.585771386601,0.));
#1474=CARTESIAN_POINT('',(159.,82.5857713866007,3.));
#1475=CARTESIAN_POINT('',(159.,82.5857713866007,0.));
#1476=CARTESIAN_POINT('',(159.,76.063989359806,3.));
#1477=CARTESIAN_POINT('',(159.,117.2,3.));
#1478=CARTESIAN_POINT('',(159.,76.063989359806,0.));
#1479=CARTESIAN_POINT('Origin',(69.5,67.,0.));
#1480=CARTESIAN_POINT('',(69.5,83.,3.));
#1481=CARTESIAN_POINT('',(69.5,67.,3.));
#1482=CARTESIAN_POINT('',(69.5,83.,3.));
#1483=CARTESIAN_POINT('',(69.5,83.,8.));
#1484=CARTESIAN_POINT('',(69.5,83.,0.));
#1485=CARTESIAN_POINT('',(69.5,67.,8.));
#1486=CARTESIAN_POINT('',(69.5,83.,8.));
#1487=CARTESIAN_POINT('',(69.5,67.,0.));
#1488=CARTESIAN_POINT('Origin',(69.5,83.,0.));
#1489=CARTESIAN_POINT('',(60.5,83.,3.));
#1490=CARTESIAN_POINT('',(60.5,83.,3.));
#1491=CARTESIAN_POINT('',(60.5,83.,8.));
#1492=CARTESIAN_POINT('',(60.5,83.,0.));
#1493=CARTESIAN_POINT('',(60.5,83.,8.));
#1494=CARTESIAN_POINT('Origin',(65.,72.,0.));
#1495=CARTESIAN_POINT('',(62.9,72.,8.));
#1496=CARTESIAN_POINT('Origin',(65.,72.,8.));
#1497=CARTESIAN_POINT('',(62.9,72.,0.));
#1498=CARTESIAN_POINT('Origin',(65.,78.,0.));
#1499=CARTESIAN_POINT('',(62.9,78.,8.));
#1500=CARTESIAN_POINT('Origin',(65.,78.,8.));
#1501=CARTESIAN_POINT('',(62.9,78.,0.));
#1502=CARTESIAN_POINT('Origin',(60.5,67.,0.));
#1503=CARTESIAN_POINT('',(60.5,67.,3.));
#1504=CARTESIAN_POINT('',(69.5,67.,3.));
#1505=CARTESIAN_POINT('',(60.5,67.,8.));
#1506=CARTESIAN_POINT('',(69.5,67.,8.));
#1507=CARTESIAN_POINT('',(60.5,67.,0.));
#1508=CARTESIAN_POINT('Origin',(60.5,83.,0.));
#1509=CARTESIAN_POINT('',(60.5,67.,3.));
#1510=CARTESIAN_POINT('',(60.5,67.,8.));
#1511=CARTESIAN_POINT('Origin',(65.,75.,8.));
#1512=CARTESIAN_POINT('Origin',(21.0108448454623,76.1181070960265,0.));
#1513=CARTESIAN_POINT('',(55.0108448454623,76.1181070960265,3.));
#1514=CARTESIAN_POINT('',(55.0108448454623,76.1181070960265,0.));
#1515=CARTESIAN_POINT('',(21.0108448454623,76.1181070960265,3.));
#1516=CARTESIAN_POINT('',(55.0108448454623,76.1181070960265,3.));
#1517=CARTESIAN_POINT('',(21.0108448454623,76.1181070960265,0.));
#1518=CARTESIAN_POINT('Origin',(21.0108448454623,16.1181070960265,0.));
#1519=CARTESIAN_POINT('',(21.0108448454623,76.1181070960265,3.));
#1520=CARTESIAN_POINT('',(21.0108448454623,16.1181070960265,0.));
#1521=CARTESIAN_POINT('Origin',(55.0108448454623,16.1181070960265,0.));
#1522=CARTESIAN_POINT('',(55.0108448454623,16.1181070960265,0.));
#1523=CARTESIAN_POINT('Origin',(55.0108448454623,76.1181070960265,0.));
#1524=CARTESIAN_POINT('',(55.0108448454623,16.1181070960265,3.));
#1525=CARTESIAN_POINT('Origin',(21.0108448454623,142.585771386601,0.));
#1526=CARTESIAN_POINT('',(55.0108448454623,142.585771386601,3.));
#1527=CARTESIAN_POINT('',(55.0108448454623,142.585771386601,0.));
#1528=CARTESIAN_POINT('',(21.0108448454623,142.585771386601,3.));
#1529=CARTESIAN_POINT('',(55.0108448454623,142.585771386601,3.));
#1530=CARTESIAN_POINT('',(21.0108448454623,142.585771386601,0.));
#1531=CARTESIAN_POINT('Origin',(21.0108448454623,82.5857713866007,0.));
#1532=CARTESIAN_POINT('',(21.0108448454623,82.5857713866007,3.));
#1533=CARTESIAN_POINT('',(21.0108448454623,142.585771386601,3.));
#1534=CARTESIAN_POINT('',(21.0108448454623,82.5857713866007,0.));
#1535=CARTESIAN_POINT('Origin',(55.0108448454623,82.5857713866007,0.));
#1536=CARTESIAN_POINT('',(55.0108448454623,82.5857713866007,3.));
#1537=CARTESIAN_POINT('',(21.0108448454623,82.5857713866007,3.));
#1538=CARTESIAN_POINT('',(55.0108448454623,82.5857713866007,0.));
#1539=CARTESIAN_POINT('Origin',(55.0108448454623,142.585771386601,0.));
#1540=CARTESIAN_POINT('',(55.0108448454623,82.5857713866007,3.));
#1541=CARTESIAN_POINT('Origin',(75.,142.585771386601,0.));
#1542=CARTESIAN_POINT('',(75.,142.585771386601,3.));
#1543=CARTESIAN_POINT('',(159.,142.585771386601,3.));
#1544=CARTESIAN_POINT('',(75.,142.585771386601,0.));
#1545=CARTESIAN_POINT('Origin',(75.,82.5857713866007,0.));
#1546=CARTESIAN_POINT('',(75.,82.5857713866007,3.));
#1547=CARTESIAN_POINT('',(75.,142.585771386601,3.));
#1548=CARTESIAN_POINT('',(75.,82.5857713866007,0.));
#1549=CARTESIAN_POINT('Origin',(159.,82.5857713866007,0.));
#1550=CARTESIAN_POINT('',(75.,82.5857713866007,3.));
#1551=CARTESIAN_POINT('Origin',(75.,76.063989359806,0.));
#1552=CARTESIAN_POINT('',(75.,76.063989359806,3.));
#1553=CARTESIAN_POINT('',(75.,76.063989359806,3.));
#1554=CARTESIAN_POINT('',(75.,76.063989359806,0.));
#1555=CARTESIAN_POINT('Origin',(75.,16.063989359806,0.));
#1556=CARTESIAN_POINT('',(75.,16.063989359806,3.));
#1557=CARTESIAN_POINT('',(75.,16.063989359806,0.));
#1558=CARTESIAN_POINT('Origin',(159.,16.063989359806,0.));
#1559=CARTESIAN_POINT('Origin',(80.5,78.8,3.));
#1560=CARTESIAN_POINT('',(41.25,155.6,3.));
#1561=CARTESIAN_POINT('Origin',(1.99999999999999,155.6,0.));
#1562=CARTESIAN_POINT('',(159.,155.6,10.));
#1563=CARTESIAN_POINT('Origin',(80.5,78.8,10.));
#1564=UNCERTAINTY_MEASURE_WITH_UNIT(LENGTH_MEASURE(0.01),#1568,
'DISTANCE_ACCURACY_VALUE',
'Maximum model space distance between geometric entities at asserted c
onnectivities');
#1565=UNCERTAINTY_MEASURE_WITH_UNIT(LENGTH_MEASURE(0.01),#1568,
'DISTANCE_ACCURACY_VALUE',
'Maximum model space distance between geometric entities at asserted c
onnectivities');
#1566=(
GEOMETRIC_REPRESENTATION_CONTEXT(3)
GLOBAL_UNCERTAINTY_ASSIGNED_CONTEXT((#1564))
GLOBAL_UNIT_ASSIGNED_CONTEXT((#1568,#1570,#1571))
REPRESENTATION_CONTEXT('','3D')
);
#1567=(
GEOMETRIC_REPRESENTATION_CONTEXT(3)
GLOBAL_UNCERTAINTY_ASSIGNED_CONTEXT((#1565))
GLOBAL_UNIT_ASSIGNED_CONTEXT((#1568,#1570,#1571))
REPRESENTATION_CONTEXT('','3D')
);
#1568=(
LENGTH_UNIT()
NAMED_UNIT(*)
SI_UNIT(.MILLI.,.METRE.)
);
#1569=(
LENGTH_UNIT()
NAMED_UNIT(*)
SI_UNIT($,.METRE.)
);
#1570=(
NAMED_UNIT(*)
PLANE_ANGLE_UNIT()
SI_UNIT($,.RADIAN.)
);
#1571=(
NAMED_UNIT(*)
SI_UNIT($,.STERADIAN.)
SOLID_ANGLE_UNIT()
);
#1572=SHAPE_DEFINITION_REPRESENTATION(#1573,#1574);
#1573=PRODUCT_DEFINITION_SHAPE('',$,#1576);
#1574=SHAPE_REPRESENTATION('',(#942),#1566);
#1575=PRODUCT_DEFINITION_CONTEXT('part definition',#1580,'design');
#1576=PRODUCT_DEFINITION('BottomLeft','BottomLeft v1',#1577,#1575);
#1577=PRODUCT_DEFINITION_FORMATION('',$,#1582);
#1578=PRODUCT_RELATED_PRODUCT_CATEGORY('BottomLeft v1','BottomLeft v1',
(#1582));
#1579=APPLICATION_PROTOCOL_DEFINITION('international standard',
'automotive_design',2009,#1580);
#1580=APPLICATION_CONTEXT(
'Core Data for Automotive Mechanical Design Process');
#1581=PRODUCT_CONTEXT('part definition',#1580,'mechanical');
#1582=PRODUCT('BottomLeft','BottomLeft v1',$,(#1581));
#1583=PRESENTATION_STYLE_ASSIGNMENT((#1584));
#1584=SURFACE_STYLE_USAGE(.BOTH.,#1585);
#1585=SURFACE_SIDE_STYLE('',(#1586));
#1586=SURFACE_STYLE_FILL_AREA(#1587);
#1587=FILL_AREA_STYLE('Steel - Satin',(#1588));
#1588=FILL_AREA_STYLE_COLOUR('Steel - Satin',#1589);
#1589=COLOUR_RGB('Steel - Satin',0.627450980392157,0.627450980392157,0.627450980392157);
ENDSEC;
END-ISO-10303-21;
