ISO-10303-21;
HEADER;
/* Generated by software containing ST-Developer
 * from STEP Tools, Inc. (www.steptools.com) 
 */

FILE_DESCRIPTION(
/* description */ (''),
/* implementation_level */ '2;1');

FILE_NAME(
/* name */ 'TopMiddle.step',
/* time_stamp */ '2026-10-08T11:41:52-04:00',
/* author */ (''),
/* organization */ (''),
/* preprocessor_version */ 'ST-DEVELOPER v20.2',
/* originating_system */ 'Autodesk Translation Framework v15.15.0.0',
/* authorisation */ '');

FILE_SCHEMA (('AUTOMOTIVE_DESIGN { 1 0 10303 214 3 1 1 }'));
ENDSEC;

DATA;
#10=MECHANICAL_DESIGN_GEOMETRIC_PRESENTATION_REPRESENTATION('',(#13),#545);
#11=SHAPE_REPRESENTATION_RELATIONSHIP('SRR','None',#552,#12);
#12=ADVANCED_BREP_SHAPE_REPRESENTATION('',(#14),#544);
#13=STYLED_ITEM('',(#561),#14);
#14=MANIFOLD_SOLID_BREP('Body1',#333);
#15=CYLINDRICAL_SURFACE('',#361,2.1);
#16=CYLINDRICAL_SURFACE('',#362,2.1);
#17=FACE_BOUND('',#50,.T.);
#18=FACE_BOUND('',#51,.T.);
#19=FACE_BOUND('',#57,.T.);
#20=FACE_BOUND('',#58,.T.);
#21=FACE_BOUND('',#66,.T.);
#22=FACE_BOUND('',#68,.T.);
#23=CIRCLE('',#352,2.1);
#24=CIRCLE('',#353,2.1);
#25=CIRCLE('',#359,2.1);
#26=CIRCLE('',#360,2.1);
#27=FACE_OUTER_BOUND('',#45,.T.);
#28=FACE_OUTER_BOUND('',#46,.T.);
#29=FACE_OUTER_BOUND('',#47,.T.);
#30=FACE_OUTER_BOUND('',#48,.T.);
#31=FACE_OUTER_BOUND('',#49,.T.);
#32=FACE_OUTER_BOUND('',#52,.T.);
#33=FACE_OUTER_BOUND('',#53,.T.);
#34=FACE_OUTER_BOUND('',#54,.T.);
#35=FACE_OUTER_BOUND('',#55,.T.);
#36=FACE_OUTER_BOUND('',#56,.T.);
#37=FACE_OUTER_BOUND('',#59,.T.);
#38=FACE_OUTER_BOUND('',#60,.T.);
#39=FACE_OUTER_BOUND('',#61,.T.);
#40=FACE_OUTER_BOUND('',#62,.T.);
#41=FACE_OUTER_BOUND('',#63,.T.);
#42=FACE_OUTER_BOUND('',#64,.T.);
#43=FACE_OUTER_BOUND('',#65,.T.);
#44=FACE_OUTER_BOUND('',#67,.T.);
#45=EDGE_LOOP('',(#215,#216,#217,#218));
#46=EDGE_LOOP('',(#219,#220,#221,#222));
#47=EDGE_LOOP('',(#223,#224,#225,#226));
#48=EDGE_LOOP('',(#227,#228,#229,#230));
#49=EDGE_LOOP('',(#231,#232,#233,#234));
#50=EDGE_LOOP('',(#235));
#51=EDGE_LOOP('',(#236));
#52=EDGE_LOOP('',(#237,#238,#239,#240));
#53=EDGE_LOOP('',(#241,#242,#243,#244));
#54=EDGE_LOOP('',(#245,#246,#247,#248));
#55=EDGE_LOOP('',(#249,#250,#251,#252));
#56=EDGE_LOOP('',(#253,#254,#255,#256));
#57=EDGE_LOOP('',(#257));
#58=EDGE_LOOP('',(#258));
#59=EDGE_LOOP('',(#259,#260,#261,#262));
#60=EDGE_LOOP('',(#263,#264,#265,#266));
#61=EDGE_LOOP('',(#267,#268,#269,#270));
#62=EDGE_LOOP('',(#271,#272,#273,#274));
#63=EDGE_LOOP('',(#275,#276,#277,#278));
#64=EDGE_LOOP('',(#279,#280,#281,#282));
#65=EDGE_LOOP('',(#283,#284,#285,#286));
#66=EDGE_LOOP('',(#287,#288,#289,#290));
#67=EDGE_LOOP('',(#291,#292,#293,#294));
#68=EDGE_LOOP('',(#295,#296,#297,#298));
#69=LINE('',#457,#107);
#70=LINE('',#459,#108);
#71=LINE('',#461,#109);
#72=LINE('',#462,#110);
#73=LINE('',#465,#111);
#74=LINE('',#467,#112);
#75=LINE('',#468,#113);
#76=LINE('',#471,#114);
#77=LINE('',#473,#115);
#78=LINE('',#474,#116);
#79=LINE('',#476,#117);
#80=LINE('',#477,#118);
#81=LINE('',#486,#119);
#82=LINE('',#488,#120);
#83=LINE('',#490,#121);
#84=LINE('',#491,#122);
#85=LINE('',#494,#123);
#86=LINE('',#496,#124);
#87=LINE('',#497,#125);
#88=LINE('',#500,#126);
#89=LINE('',#502,#127);
#90=LINE('',#503,#128);
#91=LINE('',#505,#129);
#92=LINE('',#506,#130);
#93=LINE('',#513,#131);
#94=LINE('',#515,#132);
#95=LINE('',#519,#133);
#96=LINE('',#521,#134);
#97=LINE('',#523,#135);
#98=LINE('',#524,#136);
#99=LINE('',#527,#137);
#100=LINE('',#529,#138);
#101=LINE('',#530,#139);
#102=LINE('',#533,#140);
#103=LINE('',#535,#141);
#104=LINE('',#536,#142);
#105=LINE('',#538,#143);
#106=LINE('',#539,#144);
#107=VECTOR('',#373,10.);
#108=VECTOR('',#374,10.);
#109=VECTOR('',#375,10.);
#110=VECTOR('',#376,10.);
#111=VECTOR('',#379,10.);
#112=VECTOR('',#380,10.);
#113=VECTOR('',#381,10.);
#114=VECTOR('',#384,10.);
#115=VECTOR('',#385,10.);
#116=VECTOR('',#386,10.);
#117=VECTOR('',#389,10.);
#118=VECTOR('',#390,10.);
#119=VECTOR('',#399,10.);
#120=VECTOR('',#400,10.);
#121=VECTOR('',#401,10.);
#122=VECTOR('',#402,10.);
#123=VECTOR('',#405,10.);
#124=VECTOR('',#406,10.);
#125=VECTOR('',#407,10.);
#126=VECTOR('',#410,10.);
#127=VECTOR('',#411,10.);
#128=VECTOR('',#412,10.);
#129=VECTOR('',#415,10.);
#130=VECTOR('',#416,10.);
#131=VECTOR('',#425,2.1);
#132=VECTOR('',#428,2.1);
#133=VECTOR('',#431,10.);
#134=VECTOR('',#432,10.);
#135=VECTOR('',#433,10.);
#136=VECTOR('',#434,10.);
#137=VECTOR('',#437,10.);
#138=VECTOR('',#438,10.);
#139=VECTOR('',#439,10.);
#140=VECTOR('',#442,10.);
#141=VECTOR('',#443,10.);
#142=VECTOR('',#444,10.);
#143=VECTOR('',#447,10.);
#144=VECTOR('',#448,10.);
#145=VERTEX_POINT('',#455);
#146=VERTEX_POINT('',#456);
#147=VERTEX_POINT('',#458);
#148=VERTEX_POINT('',#460);
#149=VERTEX_POINT('',#464);
#150=VERTEX_POINT('',#466);
#151=VERTEX_POINT('',#470);
#152=VERTEX_POINT('',#472);
#153=VERTEX_POINT('',#479);
#154=VERTEX_POINT('',#481);
#155=VERTEX_POINT('',#484);
#156=VERTEX_POINT('',#485);
#157=VERTEX_POINT('',#487);
#158=VERTEX_POINT('',#489);
#159=VERTEX_POINT('',#493);
#160=VERTEX_POINT('',#495);
#161=VERTEX_POINT('',#499);
#162=VERTEX_POINT('',#501);
#163=VERTEX_POINT('',#508);
#164=VERTEX_POINT('',#510);
#165=VERTEX_POINT('',#517);
#166=VERTEX_POINT('',#518);
#167=VERTEX_POINT('',#520);
#168=VERTEX_POINT('',#522);
#169=VERTEX_POINT('',#526);
#170=VERTEX_POINT('',#528);
#171=VERTEX_POINT('',#532);
#172=VERTEX_POINT('',#534);
#173=EDGE_CURVE('',#145,#146,#69,.T.);
#174=EDGE_CURVE('',#145,#147,#70,.T.);
#175=EDGE_CURVE('',#147,#148,#71,.T.);
#176=EDGE_CURVE('',#146,#148,#72,.T.);
#177=EDGE_CURVE('',#149,#145,#73,.T.);
#178=EDGE_CURVE('',#149,#150,#74,.T.);
#179=EDGE_CURVE('',#150,#147,#75,.T.);
#180=EDGE_CURVE('',#151,#149,#76,.T.);
#181=EDGE_CURVE('',#151,#152,#77,.T.);
#182=EDGE_CURVE('',#152,#150,#78,.T.);
#183=EDGE_CURVE('',#146,#151,#79,.T.);
#184=EDGE_CURVE('',#148,#152,#80,.T.);
#185=EDGE_CURVE('',#153,#153,#23,.T.);
#186=EDGE_CURVE('',#154,#154,#24,.T.);
#187=EDGE_CURVE('',#155,#156,#81,.T.);
#188=EDGE_CURVE('',#155,#157,#82,.T.);
#189=EDGE_CURVE('',#158,#157,#83,.T.);
#190=EDGE_CURVE('',#156,#158,#84,.T.);
#191=EDGE_CURVE('',#159,#155,#85,.T.);
#192=EDGE_CURVE('',#159,#160,#86,.T.);
#193=EDGE_CURVE('',#157,#160,#87,.T.);
#194=EDGE_CURVE('',#156,#161,#88,.T.);
#195=EDGE_CURVE('',#162,#158,#89,.T.);
#196=EDGE_CURVE('',#161,#162,#90,.T.);
#197=EDGE_CURVE('',#161,#159,#91,.T.);
#198=EDGE_CURVE('',#160,#162,#92,.T.);
#199=EDGE_CURVE('',#163,#163,#25,.T.);
#200=EDGE_CURVE('',#164,#164,#26,.T.);
#201=EDGE_CURVE('',#163,#154,#93,.T.);
#202=EDGE_CURVE('',#164,#153,#94,.T.);
#203=EDGE_CURVE('',#165,#166,#95,.T.);
#204=EDGE_CURVE('',#165,#167,#96,.T.);
#205=EDGE_CURVE('',#168,#167,#97,.T.);
#206=EDGE_CURVE('',#166,#168,#98,.T.);
#207=EDGE_CURVE('',#166,#169,#99,.T.);
#208=EDGE_CURVE('',#170,#168,#100,.T.);
#209=EDGE_CURVE('',#169,#170,#101,.T.);
#210=EDGE_CURVE('',#169,#171,#102,.T.);
#211=EDGE_CURVE('',#172,#170,#103,.T.);
#212=EDGE_CURVE('',#171,#172,#104,.T.);
#213=EDGE_CURVE('',#171,#165,#105,.T.);
#214=EDGE_CURVE('',#167,#172,#106,.T.);
#215=ORIENTED_EDGE('',*,*,#173,.F.);
#216=ORIENTED_EDGE('',*,*,#174,.T.);
#217=ORIENTED_EDGE('',*,*,#175,.T.);
#218=ORIENTED_EDGE('',*,*,#176,.F.);
#219=ORIENTED_EDGE('',*,*,#177,.F.);
#220=ORIENTED_EDGE('',*,*,#178,.T.);
#221=ORIENTED_EDGE('',*,*,#179,.T.);
#222=ORIENTED_EDGE('',*,*,#174,.F.);
#223=ORIENTED_EDGE('',*,*,#180,.F.);
#224=ORIENTED_EDGE('',*,*,#181,.T.);
#225=ORIENTED_EDGE('',*,*,#182,.T.);
#226=ORIENTED_EDGE('',*,*,#178,.F.);
#227=ORIENTED_EDGE('',*,*,#183,.F.);
#228=ORIENTED_EDGE('',*,*,#176,.T.);
#229=ORIENTED_EDGE('',*,*,#184,.T.);
#230=ORIENTED_EDGE('',*,*,#181,.F.);
#231=ORIENTED_EDGE('',*,*,#184,.F.);
#232=ORIENTED_EDGE('',*,*,#175,.F.);
#233=ORIENTED_EDGE('',*,*,#179,.F.);
#234=ORIENTED_EDGE('',*,*,#182,.F.);
#235=ORIENTED_EDGE('',*,*,#185,.F.);
#236=ORIENTED_EDGE('',*,*,#186,.F.);
#237=ORIENTED_EDGE('',*,*,#187,.F.);
#238=ORIENTED_EDGE('',*,*,#188,.T.);
#239=ORIENTED_EDGE('',*,*,#189,.F.);
#240=ORIENTED_EDGE('',*,*,#190,.F.);
#241=ORIENTED_EDGE('',*,*,#191,.F.);
#242=ORIENTED_EDGE('',*,*,#192,.T.);
#243=ORIENTED_EDGE('',*,*,#193,.F.);
#244=ORIENTED_EDGE('',*,*,#188,.F.);
#245=ORIENTED_EDGE('',*,*,#194,.F.);
#246=ORIENTED_EDGE('',*,*,#190,.T.);
#247=ORIENTED_EDGE('',*,*,#195,.F.);
#248=ORIENTED_EDGE('',*,*,#196,.F.);
#249=ORIENTED_EDGE('',*,*,#197,.F.);
#250=ORIENTED_EDGE('',*,*,#196,.T.);
#251=ORIENTED_EDGE('',*,*,#198,.F.);
#252=ORIENTED_EDGE('',*,*,#192,.F.);
#253=ORIENTED_EDGE('',*,*,#198,.T.);
#254=ORIENTED_EDGE('',*,*,#195,.T.);
#255=ORIENTED_EDGE('',*,*,#189,.T.);
#256=ORIENTED_EDGE('',*,*,#193,.T.);
#257=ORIENTED_EDGE('',*,*,#199,.T.);
#258=ORIENTED_EDGE('',*,*,#200,.T.);
#259=ORIENTED_EDGE('',*,*,#199,.F.);
#260=ORIENTED_EDGE('',*,*,#201,.T.);
#261=ORIENTED_EDGE('',*,*,#186,.T.);
#262=ORIENTED_EDGE('',*,*,#201,.F.);
#263=ORIENTED_EDGE('',*,*,#200,.F.);
#264=ORIENTED_EDGE('',*,*,#202,.T.);
#265=ORIENTED_EDGE('',*,*,#185,.T.);
#266=ORIENTED_EDGE('',*,*,#202,.F.);
#267=ORIENTED_EDGE('',*,*,#203,.F.);
#268=ORIENTED_EDGE('',*,*,#204,.T.);
#269=ORIENTED_EDGE('',*,*,#205,.F.);
#270=ORIENTED_EDGE('',*,*,#206,.F.);
#271=ORIENTED_EDGE('',*,*,#207,.F.);
#272=ORIENTED_EDGE('',*,*,#206,.T.);
#273=ORIENTED_EDGE('',*,*,#208,.F.);
#274=ORIENTED_EDGE('',*,*,#209,.F.);
#275=ORIENTED_EDGE('',*,*,#210,.F.);
#276=ORIENTED_EDGE('',*,*,#209,.T.);
#277=ORIENTED_EDGE('',*,*,#211,.F.);
#278=ORIENTED_EDGE('',*,*,#212,.F.);
#279=ORIENTED_EDGE('',*,*,#213,.F.);
#280=ORIENTED_EDGE('',*,*,#212,.T.);
#281=ORIENTED_EDGE('',*,*,#214,.F.);
#282=ORIENTED_EDGE('',*,*,#204,.F.);
#283=ORIENTED_EDGE('',*,*,#214,.T.);
#284=ORIENTED_EDGE('',*,*,#211,.T.);
#285=ORIENTED_EDGE('',*,*,#208,.T.);
#286=ORIENTED_EDGE('',*,*,#205,.T.);
#287=ORIENTED_EDGE('',*,*,#191,.T.);
#288=ORIENTED_EDGE('',*,*,#187,.T.);
#289=ORIENTED_EDGE('',*,*,#194,.T.);
#290=ORIENTED_EDGE('',*,*,#197,.T.);
#291=ORIENTED_EDGE('',*,*,#213,.T.);
#292=ORIENTED_EDGE('',*,*,#203,.T.);
#293=ORIENTED_EDGE('',*,*,#207,.T.);
#294=ORIENTED_EDGE('',*,*,#210,.T.);
#295=ORIENTED_EDGE('',*,*,#173,.T.);
#296=ORIENTED_EDGE('',*,*,#183,.T.);
#297=ORIENTED_EDGE('',*,*,#180,.T.);
#298=ORIENTED_EDGE('',*,*,#177,.T.);
#299=PLANE('',#347);
#300=PLANE('',#348);
#301=PLANE('',#349);
#302=PLANE('',#350);
#303=PLANE('',#351);
#304=PLANE('',#354);
#305=PLANE('',#355);
#306=PLANE('',#356);
#307=PLANE('',#357);
#308=PLANE('',#358);
#309=PLANE('',#363);
#310=PLANE('',#364);
#311=PLANE('',#365);
#312=PLANE('',#366);
#313=PLANE('',#367);
#314=PLANE('',#368);
#315=ADVANCED_FACE('',(#27),#299,.F.);
#316=ADVANCED_FACE('',(#28),#300,.F.);
#317=ADVANCED_FACE('',(#29),#301,.F.);
#318=ADVANCED_FACE('',(#30),#302,.F.);
#319=ADVANCED_FACE('',(#31,#17,#18),#303,.F.);
#320=ADVANCED_FACE('',(#32),#304,.T.);
#321=ADVANCED_FACE('',(#33),#305,.T.);
#322=ADVANCED_FACE('',(#34),#306,.T.);
#323=ADVANCED_FACE('',(#35),#307,.T.);
#324=ADVANCED_FACE('',(#36,#19,#20),#308,.T.);
#325=ADVANCED_FACE('',(#37),#15,.F.);
#326=ADVANCED_FACE('',(#38),#16,.F.);
#327=ADVANCED_FACE('',(#39),#309,.T.);
#328=ADVANCED_FACE('',(#40),#310,.T.);
#329=ADVANCED_FACE('',(#41),#311,.T.);
#330=ADVANCED_FACE('',(#42),#312,.T.);
#331=ADVANCED_FACE('',(#43,#21),#313,.T.);
#332=ADVANCED_FACE('',(#44,#22),#314,.F.);
#333=CLOSED_SHELL('',(#315,#316,#317,#318,#319,#320,#321,#322,#323,#324,
#325,#326,#327,#328,#329,#330,#331,#332));
#334=DERIVED_UNIT_ELEMENT(#336,1.);
#335=DERIVED_UNIT_ELEMENT(#547,-3.);
#336=(
MASS_UNIT()
NAMED_UNIT(*)
SI_UNIT(.KILO.,.GRAM.)
);
#337=DERIVED_UNIT((#334,#335));
#338=MEASURE_REPRESENTATION_ITEM('density measure',
POSITIVE_RATIO_MEASURE(7850.),#337);
#339=PROPERTY_DEFINITION_REPRESENTATION(#344,#341);
#340=PROPERTY_DEFINITION_REPRESENTATION(#345,#342);
#341=REPRESENTATION('material name',(#343),#544);
#342=REPRESENTATION('density',(#338),#544);
#343=DESCRIPTIVE_REPRESENTATION_ITEM('Steel','Steel');
#344=PROPERTY_DEFINITION('material property','material name',#554);
#345=PROPERTY_DEFINITION('material property','density of part',#554);
#346=AXIS2_PLACEMENT_3D('',#453,#369,#370);
#347=AXIS2_PLACEMENT_3D('',#454,#371,#372);
#348=AXIS2_PLACEMENT_3D('',#463,#377,#378);
#349=AXIS2_PLACEMENT_3D('',#469,#382,#383);
#350=AXIS2_PLACEMENT_3D('',#475,#387,#388);
#351=AXIS2_PLACEMENT_3D('',#478,#391,#392);
#352=AXIS2_PLACEMENT_3D('',#480,#393,#394);
#353=AXIS2_PLACEMENT_3D('',#482,#395,#396);
#354=AXIS2_PLACEMENT_3D('',#483,#397,#398);
#355=AXIS2_PLACEMENT_3D('',#492,#403,#404);
#356=AXIS2_PLACEMENT_3D('',#498,#408,#409);
#357=AXIS2_PLACEMENT_3D('',#504,#413,#414);
#358=AXIS2_PLACEMENT_3D('',#507,#417,#418);
#359=AXIS2_PLACEMENT_3D('',#509,#419,#420);
#360=AXIS2_PLACEMENT_3D('',#511,#421,#422);
#361=AXIS2_PLACEMENT_3D('',#512,#423,#424);
#362=AXIS2_PLACEMENT_3D('',#514,#426,#427);
#363=AXIS2_PLACEMENT_3D('',#516,#429,#430);
#364=AXIS2_PLACEMENT_3D('',#525,#435,#436);
#365=AXIS2_PLACEMENT_3D('',#531,#440,#441);
#366=AXIS2_PLACEMENT_3D('',#537,#445,#446);
#367=AXIS2_PLACEMENT_3D('',#540,#449,#450);
#368=AXIS2_PLACEMENT_3D('',#541,#451,#452);
#369=DIRECTION('axis',(0.,0.,1.));
#370=DIRECTION('refdir',(1.,0.,0.));
#371=DIRECTION('center_axis',(0.,-1.,0.));
#372=DIRECTION('ref_axis',(1.,0.,0.));
#373=DIRECTION('',(1.,0.,0.));
#374=DIRECTION('',(0.,0.,1.));
#375=DIRECTION('',(1.,0.,0.));
#376=DIRECTION('',(0.,0.,1.));
#377=DIRECTION('center_axis',(-1.,0.,0.));
#378=DIRECTION('ref_axis',(0.,-1.,0.));
#379=DIRECTION('',(0.,-1.,0.));
#380=DIRECTION('',(0.,0.,1.));
#381=DIRECTION('',(0.,-1.,0.));
#382=DIRECTION('center_axis',(0.,1.,0.));
#383=DIRECTION('ref_axis',(-1.,0.,0.));
#384=DIRECTION('',(-1.,0.,0.));
#385=DIRECTION('',(0.,0.,1.));
#386=DIRECTION('',(-1.,0.,0.));
#387=DIRECTION('center_axis',(1.,0.,0.));
#388=DIRECTION('ref_axis',(0.,1.,0.));
#389=DIRECTION('',(0.,1.,0.));
#390=DIRECTION('',(0.,1.,0.));
#391=DIRECTION('center_axis',(0.,0.,1.));
#392=DIRECTION('ref_axis',(1.,0.,0.));
#393=DIRECTION('center_axis',(0.,0.,-1.));
#394=DIRECTION('ref_axis',(1.,0.,0.));
#395=DIRECTION('center_axis',(0.,0.,-1.));
#396=DIRECTION('ref_axis',(1.,0.,0.));
#397=DIRECTION('center_axis',(0.,1.,0.));
#398=DIRECTION('ref_axis',(-1.,0.,0.));
#399=DIRECTION('',(1.,0.,0.));
#400=DIRECTION('',(0.,0.,1.));
#401=DIRECTION('',(-1.,0.,0.));
#402=DIRECTION('',(0.,0.,1.));
#403=DIRECTION('center_axis',(-1.,0.,0.));
#404=DIRECTION('ref_axis',(0.,-1.,0.));
#405=DIRECTION('',(0.,1.,0.));
#406=DIRECTION('',(0.,0.,1.));
#407=DIRECTION('',(0.,-1.,0.));
#408=DIRECTION('center_axis',(1.,0.,0.));
#409=DIRECTION('ref_axis',(0.,1.,0.));
#410=DIRECTION('',(0.,-1.,0.));
#411=DIRECTION('',(0.,1.,0.));
#412=DIRECTION('',(0.,0.,1.));
#413=DIRECTION('center_axis',(0.,-1.,0.));
#414=DIRECTION('ref_axis',(1.,0.,0.));
#415=DIRECTION('',(-1.,0.,0.));
#416=DIRECTION('',(1.,0.,0.));
#417=DIRECTION('center_axis',(0.,0.,1.));
#418=DIRECTION('ref_axis',(1.,0.,0.));
#419=DIRECTION('center_axis',(0.,0.,-1.));
#420=DIRECTION('ref_axis',(1.,0.,0.));
#421=DIRECTION('center_axis',(0.,0.,-1.));
#422=DIRECTION('ref_axis',(1.,0.,0.));
#423=DIRECTION('center_axis',(0.,0.,1.));
#424=DIRECTION('ref_axis',(1.,0.,0.));
#425=DIRECTION('',(0.,0.,-1.));
#426=DIRECTION('center_axis',(0.,0.,1.));
#427=DIRECTION('ref_axis',(1.,0.,0.));
#428=DIRECTION('',(0.,0.,-1.));
#429=DIRECTION('center_axis',(1.,0.,0.));
#430=DIRECTION('ref_axis',(0.,1.,0.));
#431=DIRECTION('',(0.,-1.,0.));
#432=DIRECTION('',(0.,0.,1.));
#433=DIRECTION('',(0.,1.,0.));
#434=DIRECTION('',(0.,0.,1.));
#435=DIRECTION('center_axis',(0.,-1.,0.));
#436=DIRECTION('ref_axis',(1.,0.,0.));
#437=DIRECTION('',(-1.,0.,0.));
#438=DIRECTION('',(1.,0.,0.));
#439=DIRECTION('',(0.,0.,1.));
#440=DIRECTION('center_axis',(-1.,0.,0.));
#441=DIRECTION('ref_axis',(0.,-1.,0.));
#442=DIRECTION('',(0.,1.,0.));
#443=DIRECTION('',(0.,-1.,0.));
#444=DIRECTION('',(0.,0.,1.));
#445=DIRECTION('center_axis',(0.,1.,0.));
#446=DIRECTION('ref_axis',(-1.,0.,0.));
#447=DIRECTION('',(1.,0.,0.));
#448=DIRECTION('',(-1.,0.,0.));
#449=DIRECTION('center_axis',(0.,0.,1.));
#450=DIRECTION('ref_axis',(1.,0.,0.));
#451=DIRECTION('center_axis',(0.,0.,1.));
#452=DIRECTION('ref_axis',(1.,0.,0.));
#453=CARTESIAN_POINT('',(0.,0.,0.));
#454=CARTESIAN_POINT('Origin',(-16.4810590938118,-5.72352289981017,0.));
#455=CARTESIAN_POINT('',(-16.4810590938118,-5.72352289981017,0.));
#456=CARTESIAN_POINT('',(-10.4810590938118,-5.72352289981017,0.));
#457=CARTESIAN_POINT('',(-8.24052954690589,-5.72352289981017,0.));
#458=CARTESIAN_POINT('',(-16.4810590938118,-5.72352289981017,3.));
#459=CARTESIAN_POINT('',(-16.4810590938118,-5.72352289981017,0.));
#460=CARTESIAN_POINT('',(-10.4810590938118,-5.72352289981017,3.));
#461=CARTESIAN_POINT('',(-16.4810590938118,-5.72352289981017,3.));
#462=CARTESIAN_POINT('',(-10.4810590938118,-5.72352289981017,0.));
#463=CARTESIAN_POINT('Origin',(-16.4810590938118,6.27647710018983,0.));
#464=CARTESIAN_POINT('',(-16.4810590938118,6.27647710018983,0.));
#465=CARTESIAN_POINT('',(-16.4810590938118,3.13823855009491,0.));
#466=CARTESIAN_POINT('',(-16.4810590938118,6.27647710018983,3.));
#467=CARTESIAN_POINT('',(-16.4810590938118,6.27647710018983,0.));
#468=CARTESIAN_POINT('',(-16.4810590938118,6.27647710018983,3.));
#469=CARTESIAN_POINT('Origin',(-10.4810590938118,6.27647710018983,0.));
#470=CARTESIAN_POINT('',(-10.4810590938118,6.27647710018983,0.));
#471=CARTESIAN_POINT('',(-5.24052954690589,6.27647710018983,0.));
#472=CARTESIAN_POINT('',(-10.4810590938118,6.27647710018983,3.));
#473=CARTESIAN_POINT('',(-10.4810590938118,6.27647710018983,0.));
#474=CARTESIAN_POINT('',(-10.4810590938118,6.27647710018983,3.));
#475=CARTESIAN_POINT('Origin',(-10.4810590938118,-5.72352289981017,0.));
#476=CARTESIAN_POINT('',(-10.4810590938118,-2.86176144990509,0.));
#477=CARTESIAN_POINT('',(-10.4810590938118,-5.72352289981017,3.));
#478=CARTESIAN_POINT('Origin',(-13.4810590938118,0.276477100189827,3.));
#479=CARTESIAN_POINT('',(-15.6,-2.75,3.));
#480=CARTESIAN_POINT('Origin',(-13.5,-2.75,3.));
#481=CARTESIAN_POINT('',(-15.6,3.25,3.));
#482=CARTESIAN_POINT('Origin',(-13.5,3.25,3.));
#483=CARTESIAN_POINT('Origin',(-9.00000000000001,8.25,0.));
#484=CARTESIAN_POINT('',(-18.,8.25,3.));
#485=CARTESIAN_POINT('',(-9.00000000000001,8.25,3.));
#486=CARTESIAN_POINT('',(-4.5,8.25,3.));
#487=CARTESIAN_POINT('',(-18.,8.25,8.));
#488=CARTESIAN_POINT('',(-18.,8.25,0.));
#489=CARTESIAN_POINT('',(-9.00000000000001,8.25,8.));
#490=CARTESIAN_POINT('',(-18.,8.25,8.));
#491=CARTESIAN_POINT('',(-9.00000000000001,8.25,0.));
#492=CARTESIAN_POINT('Origin',(-18.,8.25,0.));
#493=CARTESIAN_POINT('',(-18.,-7.75,3.));
#494=CARTESIAN_POINT('',(-18.,4.125,3.));
#495=CARTESIAN_POINT('',(-18.,-7.75,8.));
#496=CARTESIAN_POINT('',(-18.,-7.75,0.));
#497=CARTESIAN_POINT('',(-18.,-7.75,8.));
#498=CARTESIAN_POINT('Origin',(-9.00000000000001,-7.75,0.));
#499=CARTESIAN_POINT('',(-9.00000000000001,-7.75,3.));
#500=CARTESIAN_POINT('',(-9.00000000000001,-3.875,3.));
#501=CARTESIAN_POINT('',(-9.00000000000001,-7.75,8.));
#502=CARTESIAN_POINT('',(-9.00000000000001,8.25,8.));
#503=CARTESIAN_POINT('',(-9.00000000000001,-7.75,0.));
#504=CARTESIAN_POINT('Origin',(-18.,-7.75,0.));
#505=CARTESIAN_POINT('',(-9.,-7.75,3.));
#506=CARTESIAN_POINT('',(-9.00000000000001,-7.75,8.));
#507=CARTESIAN_POINT('Origin',(-13.5,0.250000000000001,8.));
#508=CARTESIAN_POINT('',(-15.6,3.25,8.));
#509=CARTESIAN_POINT('Origin',(-13.5,3.25,8.));
#510=CARTESIAN_POINT('',(-15.6,-2.75,8.));
#511=CARTESIAN_POINT('Origin',(-13.5,-2.75,8.));
#512=CARTESIAN_POINT('Origin',(-13.5,3.25,0.));
#513=CARTESIAN_POINT('',(-15.6,3.25,0.));
#514=CARTESIAN_POINT('Origin',(-13.5,-2.75,0.));
#515=CARTESIAN_POINT('',(-15.6,-2.75,0.));
#516=CARTESIAN_POINT('Origin',(75.,-57.,0.));
#517=CARTESIAN_POINT('',(75.,57.,0.));
#518=CARTESIAN_POINT('',(75.,-57.,0.));
#519=CARTESIAN_POINT('',(75.,57.,0.));
#520=CARTESIAN_POINT('',(75.,57.,3.));
#521=CARTESIAN_POINT('',(75.,57.,0.));
#522=CARTESIAN_POINT('',(75.,-57.,3.));
#523=CARTESIAN_POINT('',(75.,57.,3.));
#524=CARTESIAN_POINT('',(75.,-57.,0.));
#525=CARTESIAN_POINT('Origin',(-75.,-57.,0.));
#526=CARTESIAN_POINT('',(-75.,-57.,0.));
#527=CARTESIAN_POINT('',(75.,-57.,0.));
#528=CARTESIAN_POINT('',(-75.,-57.,3.));
#529=CARTESIAN_POINT('',(75.,-57.,3.));
#530=CARTESIAN_POINT('',(-75.,-57.,0.));
#531=CARTESIAN_POINT('Origin',(-75.,57.,0.));
#532=CARTESIAN_POINT('',(-75.,57.,0.));
#533=CARTESIAN_POINT('',(-75.,-57.,0.));
#534=CARTESIAN_POINT('',(-75.,57.,3.));
#535=CARTESIAN_POINT('',(-75.,-57.,3.));
#536=CARTESIAN_POINT('',(-75.,57.,0.));
#537=CARTESIAN_POINT('Origin',(75.,57.,0.));
#538=CARTESIAN_POINT('',(-75.,57.,0.));
#539=CARTESIAN_POINT('',(-75.,57.,3.));
#540=CARTESIAN_POINT('Origin',(0.,0.,3.));
#541=CARTESIAN_POINT('Origin',(0.,0.,0.));
#542=UNCERTAINTY_MEASURE_WITH_UNIT(LENGTH_MEASURE(0.01),#546,
'DISTANCE_ACCURACY_VALUE',
'Maximum model space distance between geometric entities at asserted c
onnectivities');
#543=UNCERTAINTY_MEASURE_WITH_UNIT(LENGTH_MEASURE(0.01),#546,
'DISTANCE_ACCURACY_VALUE',
'Maximum model space distance between geometric entities at asserted c
onnectivities');
#544=(
GEOMETRIC_REPRESENTATION_CONTEXT(3)
GLOBAL_UNCERTAINTY_ASSIGNED_CONTEXT((#542))
GLOBAL_UNIT_ASSIGNED_CONTEXT((#546,#548,#549))
REPRESENTATION_CONTEXT('','3D')
);
#545=(
GEOMETRIC_REPRESENTATION_CONTEXT(3)
GLOBAL_UNCERTAINTY_ASSIGNED_CONTEXT((#543))
GLOBAL_UNIT_ASSIGNED_CONTEXT((#546,#548,#549))
REPRESENTATION_CONTEXT('','3D')
);
#546=(
LENGTH_UNIT()
NAMED_UNIT(*)
SI_UNIT(.MILLI.,.METRE.)
);
#547=(
LENGTH_UNIT()
NAMED_UNIT(*)
SI_UNIT($,.METRE.)
);
#548=(
NAMED_UNIT(*)
PLANE_ANGLE_UNIT()
SI_UNIT($,.RADIAN.)
);
#549=(
NAMED_UNIT(*)
SI_UNIT($,.STERADIAN.)
SOLID_ANGLE_UNIT()
);
#550=SHAPE_DEFINITION_REPRESENTATION(#551,#552);
#551=PRODUCT_DEFINITION_SHAPE('',$,#554);
#552=SHAPE_REPRESENTATION('',(#346),#544);
#553=PRODUCT_DEFINITION_CONTEXT('part definition',#558,'design');
#554=PRODUCT_DEFINITION('TopMiddle','TopMiddle v6',#555,#553);
#555=PRODUCT_DEFINITION_FORMATION('',$,#560);
#556=PRODUCT_RELATED_PRODUCT_CATEGORY('TopMiddle v6','TopMiddle v6',(#560));
#557=APPLICATION_PROTOCOL_DEFINITION('international standard',
'automotive_design',2009,#558);
#558=APPLICATION_CONTEXT(
'Core Data for Automotive Mechanical Design Process');
#559=PRODUCT_CONTEXT('part definition',#558,'mechanical');
#560=PRODUCT('TopMiddle','TopMiddle v6',$,(#559));
#561=PRESENTATION_STYLE_ASSIGNMENT((#562));
#562=SURFACE_STYLE_USAGE(.BOTH.,#563);
#563=SURFACE_SIDE_STYLE('',(#564));
#564=SURFACE_STYLE_FILL_AREA(#565);
#565=FILL_AREA_STYLE('Steel - Satin',(#566));
#566=FILL_AREA_STYLE_COLOUR('Steel - Satin',#567);
#567=COLOUR_RGB('Steel - Satin',0.627450980392157,0.627450980392157,0.627450980392157);
ENDSEC;
END-ISO-10303-21;
