ISO-10303-21;
HEADER;
/* Generated by software containing ST-Developer
 * from STEP Tools, Inc. (www.steptools.com) 
 */

FILE_DESCRIPTION(
/* description */ (''),
/* implementation_level */ '2;1');

FILE_NAME(
/* name */ 'TopRight.step',
/* time_stamp */ '2026-10-08T11:42:33-04:00',
/* author */ (''),
/* organization */ (''),
/* preprocessor_version */ 'ST-DEVELOPER v20.2',
/* originating_system */ 'Autodesk Translation Framework v15.15.0.0',
/* authorisation */ '');

FILE_SCHEMA (('AUTOMOTIVE_DESIGN { 1 0 10303 214 3 1 1 }'));
ENDSEC;

DATA;
#10=MECHANICAL_DESIGN_GEOMETRIC_PRESENTATION_REPRESENTATION('',(#13),#580);
#11=SHAPE_REPRESENTATION_RELATIONSHIP('SRR','None',#587,#12);
#12=ADVANCED_BREP_SHAPE_REPRESENTATION('',(#14),#579);
#13=STYLED_ITEM('',(#596),#14);
#14=MANIFOLD_SOLID_BREP('Body1',#352);
#15=FACE_BOUND('',#58,.T.);
#16=FACE_BOUND('',#65,.T.);
#17=FACE_BOUND('',#66,.T.);
#18=FACE_BOUND('',#74,.T.);
#19=FACE_BOUND('',#75,.T.);
#20=FACE_BOUND('',#80,.T.);
#21=PLANE('',#369);
#22=PLANE('',#370);
#23=PLANE('',#371);
#24=PLANE('',#372);
#25=PLANE('',#373);
#26=PLANE('',#374);
#27=PLANE('',#375);
#28=PLANE('',#378);
#29=PLANE('',#379);
#30=PLANE('',#384);
#31=PLANE('',#385);
#32=PLANE('',#386);
#33=PLANE('',#387);
#34=PLANE('',#388);
#35=PLANE('',#389);
#36=PLANE('',#390);
#37=FACE_OUTER_BOUND('',#56,.T.);
#38=FACE_OUTER_BOUND('',#57,.T.);
#39=FACE_OUTER_BOUND('',#59,.T.);
#40=FACE_OUTER_BOUND('',#60,.T.);
#41=FACE_OUTER_BOUND('',#61,.T.);
#42=FACE_OUTER_BOUND('',#62,.T.);
#43=FACE_OUTER_BOUND('',#63,.T.);
#44=FACE_OUTER_BOUND('',#64,.T.);
#45=FACE_OUTER_BOUND('',#67,.T.);
#46=FACE_OUTER_BOUND('',#68,.T.);
#47=FACE_OUTER_BOUND('',#69,.T.);
#48=FACE_OUTER_BOUND('',#70,.T.);
#49=FACE_OUTER_BOUND('',#71,.T.);
#50=FACE_OUTER_BOUND('',#72,.T.);
#51=FACE_OUTER_BOUND('',#73,.T.);
#52=FACE_OUTER_BOUND('',#76,.T.);
#53=FACE_OUTER_BOUND('',#77,.T.);
#54=FACE_OUTER_BOUND('',#78,.T.);
#55=FACE_OUTER_BOUND('',#79,.T.);
#56=EDGE_LOOP('',(#240,#241,#242,#243));
#57=EDGE_LOOP('',(#244,#245,#246,#247,#248));
#58=EDGE_LOOP('',(#249,#250,#251,#252));
#59=EDGE_LOOP('',(#253,#254,#255,#256));
#60=EDGE_LOOP('',(#257,#258,#259,#260));
#61=EDGE_LOOP('',(#261,#262,#263,#264));
#62=EDGE_LOOP('',(#265,#266,#267,#268));
#63=EDGE_LOOP('',(#269,#270,#271,#272));
#64=EDGE_LOOP('',(#273,#274,#275,#276));
#65=EDGE_LOOP('',(#277));
#66=EDGE_LOOP('',(#278));
#67=EDGE_LOOP('',(#279,#280,#281,#282));
#68=EDGE_LOOP('',(#283,#284,#285,#286));
#69=EDGE_LOOP('',(#287,#288,#289,#290));
#70=EDGE_LOOP('',(#291,#292,#293,#294));
#71=EDGE_LOOP('',(#295,#296,#297,#298));
#72=EDGE_LOOP('',(#299,#300,#301,#302));
#73=EDGE_LOOP('',(#303,#304,#305,#306));
#74=EDGE_LOOP('',(#307));
#75=EDGE_LOOP('',(#308));
#76=EDGE_LOOP('',(#309,#310,#311,#312));
#77=EDGE_LOOP('',(#313,#314,#315,#316));
#78=EDGE_LOOP('',(#317,#318,#319,#320));
#79=EDGE_LOOP('',(#321,#322,#323,#324,#325));
#80=EDGE_LOOP('',(#326,#327,#328,#329));
#81=LINE('',#488,#120);
#82=LINE('',#491,#121);
#83=LINE('',#494,#122);
#84=LINE('',#496,#123);
#85=LINE('',#498,#124);
#86=LINE('',#499,#125);
#87=LINE('',#502,#126);
#88=LINE('',#504,#127);
#89=LINE('',#506,#128);
#90=LINE('',#507,#129);
#91=LINE('',#510,#130);
#92=LINE('',#511,#131);
#93=LINE('',#514,#132);
#94=LINE('',#516,#133);
#95=LINE('',#517,#134);
#96=LINE('',#520,#135);
#97=LINE('',#521,#136);
#98=LINE('',#524,#137);
#99=LINE('',#525,#138);
#100=LINE('',#527,#139);
#101=LINE('',#536,#140);
#102=LINE('',#538,#141);
#103=LINE('',#540,#142);
#104=LINE('',#541,#143);
#105=LINE('',#544,#144);
#106=LINE('',#546,#145);
#107=LINE('',#547,#146);
#108=LINE('',#551,#147);
#109=LINE('',#555,#148);
#110=LINE('',#558,#149);
#111=LINE('',#560,#150);
#112=LINE('',#561,#151);
#113=LINE('',#563,#152);
#114=LINE('',#564,#153);
#115=LINE('',#568,#154);
#116=LINE('',#570,#155);
#117=LINE('',#571,#156);
#118=LINE('',#573,#157);
#119=LINE('',#575,#158);
#120=VECTOR('',#397,10.);
#121=VECTOR('',#400,10.);
#122=VECTOR('',#403,10.);
#123=VECTOR('',#404,10.);
#124=VECTOR('',#405,10.);
#125=VECTOR('',#406,10.);
#126=VECTOR('',#407,10.);
#127=VECTOR('',#408,10.);
#128=VECTOR('',#409,10.);
#129=VECTOR('',#410,10.);
#130=VECTOR('',#413,10.);
#131=VECTOR('',#414,10.);
#132=VECTOR('',#417,10.);
#133=VECTOR('',#418,10.);
#134=VECTOR('',#419,10.);
#135=VECTOR('',#422,10.);
#136=VECTOR('',#423,10.);
#137=VECTOR('',#426,10.);
#138=VECTOR('',#427,10.);
#139=VECTOR('',#430,10.);
#140=VECTOR('',#439,10.);
#141=VECTOR('',#440,10.);
#142=VECTOR('',#441,10.);
#143=VECTOR('',#442,10.);
#144=VECTOR('',#445,10.);
#145=VECTOR('',#446,10.);
#146=VECTOR('',#447,10.);
#147=VECTOR('',#452,2.1);
#148=VECTOR('',#457,2.1);
#149=VECTOR('',#460,10.);
#150=VECTOR('',#461,10.);
#151=VECTOR('',#462,10.);
#152=VECTOR('',#465,10.);
#153=VECTOR('',#466,10.);
#154=VECTOR('',#471,10.);
#155=VECTOR('',#472,10.);
#156=VECTOR('',#473,10.);
#157=VECTOR('',#476,10.);
#158=VECTOR('',#479,10.);
#159=CIRCLE('',#367,24.);
#160=CIRCLE('',#368,24.);
#161=CIRCLE('',#376,2.1);
#162=CIRCLE('',#377,2.1);
#163=CIRCLE('',#381,2.1);
#164=CIRCLE('',#383,2.1);
#165=VERTEX_POINT('',#484);
#166=VERTEX_POINT('',#485);
#167=VERTEX_POINT('',#487);
#168=VERTEX_POINT('',#489);
#169=VERTEX_POINT('',#493);
#170=VERTEX_POINT('',#495);
#171=VERTEX_POINT('',#497);
#172=VERTEX_POINT('',#500);
#173=VERTEX_POINT('',#501);
#174=VERTEX_POINT('',#503);
#175=VERTEX_POINT('',#505);
#176=VERTEX_POINT('',#509);
#177=VERTEX_POINT('',#513);
#178=VERTEX_POINT('',#515);
#179=VERTEX_POINT('',#519);
#180=VERTEX_POINT('',#523);
#181=VERTEX_POINT('',#529);
#182=VERTEX_POINT('',#531);
#183=VERTEX_POINT('',#534);
#184=VERTEX_POINT('',#535);
#185=VERTEX_POINT('',#537);
#186=VERTEX_POINT('',#539);
#187=VERTEX_POINT('',#543);
#188=VERTEX_POINT('',#545);
#189=VERTEX_POINT('',#549);
#190=VERTEX_POINT('',#553);
#191=VERTEX_POINT('',#557);
#192=VERTEX_POINT('',#559);
#193=VERTEX_POINT('',#567);
#194=VERTEX_POINT('',#569);
#195=EDGE_CURVE('',#165,#166,#159,.T.);
#196=EDGE_CURVE('',#166,#167,#81,.T.);
#197=EDGE_CURVE('',#167,#168,#160,.T.);
#198=EDGE_CURVE('',#168,#165,#82,.T.);
#199=EDGE_CURVE('',#167,#169,#83,.T.);
#200=EDGE_CURVE('',#169,#170,#84,.T.);
#201=EDGE_CURVE('',#170,#171,#85,.T.);
#202=EDGE_CURVE('',#171,#168,#86,.T.);
#203=EDGE_CURVE('',#172,#173,#87,.T.);
#204=EDGE_CURVE('',#173,#174,#88,.T.);
#205=EDGE_CURVE('',#174,#175,#89,.T.);
#206=EDGE_CURVE('',#175,#172,#90,.T.);
#207=EDGE_CURVE('',#176,#166,#91,.T.);
#208=EDGE_CURVE('',#169,#176,#92,.T.);
#209=EDGE_CURVE('',#172,#177,#93,.T.);
#210=EDGE_CURVE('',#177,#178,#94,.T.);
#211=EDGE_CURVE('',#173,#178,#95,.T.);
#212=EDGE_CURVE('',#175,#179,#96,.T.);
#213=EDGE_CURVE('',#179,#177,#97,.T.);
#214=EDGE_CURVE('',#174,#180,#98,.T.);
#215=EDGE_CURVE('',#180,#179,#99,.T.);
#216=EDGE_CURVE('',#178,#180,#100,.T.);
#217=EDGE_CURVE('',#181,#181,#161,.T.);
#218=EDGE_CURVE('',#182,#182,#162,.T.);
#219=EDGE_CURVE('',#183,#184,#101,.T.);
#220=EDGE_CURVE('',#183,#185,#102,.T.);
#221=EDGE_CURVE('',#186,#185,#103,.T.);
#222=EDGE_CURVE('',#184,#186,#104,.T.);
#223=EDGE_CURVE('',#187,#183,#105,.T.);
#224=EDGE_CURVE('',#187,#188,#106,.T.);
#225=EDGE_CURVE('',#185,#188,#107,.T.);
#226=EDGE_CURVE('',#189,#189,#163,.T.);
#227=EDGE_CURVE('',#189,#182,#108,.T.);
#228=EDGE_CURVE('',#190,#190,#164,.T.);
#229=EDGE_CURVE('',#190,#181,#109,.T.);
#230=EDGE_CURVE('',#184,#191,#110,.T.);
#231=EDGE_CURVE('',#192,#186,#111,.T.);
#232=EDGE_CURVE('',#191,#192,#112,.T.);
#233=EDGE_CURVE('',#191,#187,#113,.T.);
#234=EDGE_CURVE('',#188,#192,#114,.T.);
#235=EDGE_CURVE('',#170,#193,#115,.T.);
#236=EDGE_CURVE('',#194,#193,#116,.T.);
#237=EDGE_CURVE('',#171,#194,#117,.T.);
#238=EDGE_CURVE('',#165,#194,#118,.T.);
#239=EDGE_CURVE('',#193,#176,#119,.T.);
#240=ORIENTED_EDGE('',*,*,#195,.T.);
#241=ORIENTED_EDGE('',*,*,#196,.T.);
#242=ORIENTED_EDGE('',*,*,#197,.T.);
#243=ORIENTED_EDGE('',*,*,#198,.T.);
#244=ORIENTED_EDGE('',*,*,#197,.F.);
#245=ORIENTED_EDGE('',*,*,#199,.T.);
#246=ORIENTED_EDGE('',*,*,#200,.T.);
#247=ORIENTED_EDGE('',*,*,#201,.T.);
#248=ORIENTED_EDGE('',*,*,#202,.T.);
#249=ORIENTED_EDGE('',*,*,#203,.T.);
#250=ORIENTED_EDGE('',*,*,#204,.T.);
#251=ORIENTED_EDGE('',*,*,#205,.T.);
#252=ORIENTED_EDGE('',*,*,#206,.T.);
#253=ORIENTED_EDGE('',*,*,#196,.F.);
#254=ORIENTED_EDGE('',*,*,#207,.F.);
#255=ORIENTED_EDGE('',*,*,#208,.F.);
#256=ORIENTED_EDGE('',*,*,#199,.F.);
#257=ORIENTED_EDGE('',*,*,#203,.F.);
#258=ORIENTED_EDGE('',*,*,#209,.T.);
#259=ORIENTED_EDGE('',*,*,#210,.T.);
#260=ORIENTED_EDGE('',*,*,#211,.F.);
#261=ORIENTED_EDGE('',*,*,#206,.F.);
#262=ORIENTED_EDGE('',*,*,#212,.T.);
#263=ORIENTED_EDGE('',*,*,#213,.T.);
#264=ORIENTED_EDGE('',*,*,#209,.F.);
#265=ORIENTED_EDGE('',*,*,#205,.F.);
#266=ORIENTED_EDGE('',*,*,#214,.T.);
#267=ORIENTED_EDGE('',*,*,#215,.T.);
#268=ORIENTED_EDGE('',*,*,#212,.F.);
#269=ORIENTED_EDGE('',*,*,#204,.F.);
#270=ORIENTED_EDGE('',*,*,#211,.T.);
#271=ORIENTED_EDGE('',*,*,#216,.T.);
#272=ORIENTED_EDGE('',*,*,#214,.F.);
#273=ORIENTED_EDGE('',*,*,#216,.F.);
#274=ORIENTED_EDGE('',*,*,#210,.F.);
#275=ORIENTED_EDGE('',*,*,#213,.F.);
#276=ORIENTED_EDGE('',*,*,#215,.F.);
#277=ORIENTED_EDGE('',*,*,#217,.F.);
#278=ORIENTED_EDGE('',*,*,#218,.F.);
#279=ORIENTED_EDGE('',*,*,#219,.F.);
#280=ORIENTED_EDGE('',*,*,#220,.T.);
#281=ORIENTED_EDGE('',*,*,#221,.F.);
#282=ORIENTED_EDGE('',*,*,#222,.F.);
#283=ORIENTED_EDGE('',*,*,#223,.F.);
#284=ORIENTED_EDGE('',*,*,#224,.T.);
#285=ORIENTED_EDGE('',*,*,#225,.F.);
#286=ORIENTED_EDGE('',*,*,#220,.F.);
#287=ORIENTED_EDGE('',*,*,#226,.F.);
#288=ORIENTED_EDGE('',*,*,#227,.T.);
#289=ORIENTED_EDGE('',*,*,#218,.T.);
#290=ORIENTED_EDGE('',*,*,#227,.F.);
#291=ORIENTED_EDGE('',*,*,#228,.F.);
#292=ORIENTED_EDGE('',*,*,#229,.T.);
#293=ORIENTED_EDGE('',*,*,#217,.T.);
#294=ORIENTED_EDGE('',*,*,#229,.F.);
#295=ORIENTED_EDGE('',*,*,#230,.F.);
#296=ORIENTED_EDGE('',*,*,#222,.T.);
#297=ORIENTED_EDGE('',*,*,#231,.F.);
#298=ORIENTED_EDGE('',*,*,#232,.F.);
#299=ORIENTED_EDGE('',*,*,#233,.F.);
#300=ORIENTED_EDGE('',*,*,#232,.T.);
#301=ORIENTED_EDGE('',*,*,#234,.F.);
#302=ORIENTED_EDGE('',*,*,#224,.F.);
#303=ORIENTED_EDGE('',*,*,#225,.T.);
#304=ORIENTED_EDGE('',*,*,#234,.T.);
#305=ORIENTED_EDGE('',*,*,#231,.T.);
#306=ORIENTED_EDGE('',*,*,#221,.T.);
#307=ORIENTED_EDGE('',*,*,#228,.T.);
#308=ORIENTED_EDGE('',*,*,#226,.T.);
#309=ORIENTED_EDGE('',*,*,#201,.F.);
#310=ORIENTED_EDGE('',*,*,#235,.T.);
#311=ORIENTED_EDGE('',*,*,#236,.F.);
#312=ORIENTED_EDGE('',*,*,#237,.F.);
#313=ORIENTED_EDGE('',*,*,#198,.F.);
#314=ORIENTED_EDGE('',*,*,#202,.F.);
#315=ORIENTED_EDGE('',*,*,#237,.T.);
#316=ORIENTED_EDGE('',*,*,#238,.F.);
#317=ORIENTED_EDGE('',*,*,#200,.F.);
#318=ORIENTED_EDGE('',*,*,#208,.T.);
#319=ORIENTED_EDGE('',*,*,#239,.F.);
#320=ORIENTED_EDGE('',*,*,#235,.F.);
#321=ORIENTED_EDGE('',*,*,#195,.F.);
#322=ORIENTED_EDGE('',*,*,#238,.T.);
#323=ORIENTED_EDGE('',*,*,#236,.T.);
#324=ORIENTED_EDGE('',*,*,#239,.T.);
#325=ORIENTED_EDGE('',*,*,#207,.T.);
#326=ORIENTED_EDGE('',*,*,#223,.T.);
#327=ORIENTED_EDGE('',*,*,#219,.T.);
#328=ORIENTED_EDGE('',*,*,#230,.T.);
#329=ORIENTED_EDGE('',*,*,#233,.T.);
#330=CYLINDRICAL_SURFACE('',#366,24.);
#331=CYLINDRICAL_SURFACE('',#380,2.1);
#332=CYLINDRICAL_SURFACE('',#382,2.1);
#333=ADVANCED_FACE('',(#37),#330,.T.);
#334=ADVANCED_FACE('',(#38,#15),#21,.F.);
#335=ADVANCED_FACE('',(#39),#22,.T.);
#336=ADVANCED_FACE('',(#40),#23,.F.);
#337=ADVANCED_FACE('',(#41),#24,.F.);
#338=ADVANCED_FACE('',(#42),#25,.F.);
#339=ADVANCED_FACE('',(#43),#26,.F.);
#340=ADVANCED_FACE('',(#44,#16,#17),#27,.F.);
#341=ADVANCED_FACE('',(#45),#28,.T.);
#342=ADVANCED_FACE('',(#46),#29,.T.);
#343=ADVANCED_FACE('',(#47),#331,.F.);
#344=ADVANCED_FACE('',(#48),#332,.F.);
#345=ADVANCED_FACE('',(#49),#30,.T.);
#346=ADVANCED_FACE('',(#50),#31,.T.);
#347=ADVANCED_FACE('',(#51,#18,#19),#32,.T.);
#348=ADVANCED_FACE('',(#52),#33,.T.);
#349=ADVANCED_FACE('',(#53),#34,.T.);
#350=ADVANCED_FACE('',(#54),#35,.T.);
#351=ADVANCED_FACE('',(#55,#20),#36,.T.);
#352=CLOSED_SHELL('',(#333,#334,#335,#336,#337,#338,#339,#340,#341,#342,
#343,#344,#345,#346,#347,#348,#349,#350,#351));
#353=DERIVED_UNIT_ELEMENT(#355,1.);
#354=DERIVED_UNIT_ELEMENT(#582,-3.);
#355=(
MASS_UNIT()
NAMED_UNIT(*)
SI_UNIT(.KILO.,.GRAM.)
);
#356=DERIVED_UNIT((#353,#354));
#357=MEASURE_REPRESENTATION_ITEM('density measure',
POSITIVE_RATIO_MEASURE(7850.),#356);
#358=PROPERTY_DEFINITION_REPRESENTATION(#363,#360);
#359=PROPERTY_DEFINITION_REPRESENTATION(#364,#361);
#360=REPRESENTATION('material name',(#362),#579);
#361=REPRESENTATION('density',(#357),#579);
#362=DESCRIPTIVE_REPRESENTATION_ITEM('Steel','Steel');
#363=PROPERTY_DEFINITION('material property','material name',#589);
#364=PROPERTY_DEFINITION('material property','density of part',#589);
#365=AXIS2_PLACEMENT_3D('',#482,#391,#392);
#366=AXIS2_PLACEMENT_3D('',#483,#393,#394);
#367=AXIS2_PLACEMENT_3D('',#486,#395,#396);
#368=AXIS2_PLACEMENT_3D('',#490,#398,#399);
#369=AXIS2_PLACEMENT_3D('',#492,#401,#402);
#370=AXIS2_PLACEMENT_3D('',#508,#411,#412);
#371=AXIS2_PLACEMENT_3D('',#512,#415,#416);
#372=AXIS2_PLACEMENT_3D('',#518,#420,#421);
#373=AXIS2_PLACEMENT_3D('',#522,#424,#425);
#374=AXIS2_PLACEMENT_3D('',#526,#428,#429);
#375=AXIS2_PLACEMENT_3D('',#528,#431,#432);
#376=AXIS2_PLACEMENT_3D('',#530,#433,#434);
#377=AXIS2_PLACEMENT_3D('',#532,#435,#436);
#378=AXIS2_PLACEMENT_3D('',#533,#437,#438);
#379=AXIS2_PLACEMENT_3D('',#542,#443,#444);
#380=AXIS2_PLACEMENT_3D('',#548,#448,#449);
#381=AXIS2_PLACEMENT_3D('',#550,#450,#451);
#382=AXIS2_PLACEMENT_3D('',#552,#453,#454);
#383=AXIS2_PLACEMENT_3D('',#554,#455,#456);
#384=AXIS2_PLACEMENT_3D('',#556,#458,#459);
#385=AXIS2_PLACEMENT_3D('',#562,#463,#464);
#386=AXIS2_PLACEMENT_3D('',#565,#467,#468);
#387=AXIS2_PLACEMENT_3D('',#566,#469,#470);
#388=AXIS2_PLACEMENT_3D('',#572,#474,#475);
#389=AXIS2_PLACEMENT_3D('',#574,#477,#478);
#390=AXIS2_PLACEMENT_3D('',#576,#480,#481);
#391=DIRECTION('axis',(0.,0.,1.));
#392=DIRECTION('refdir',(1.,0.,0.));
#393=DIRECTION('center_axis',(0.,0.,1.));
#394=DIRECTION('ref_axis',(-0.707106781186548,-0.707106781186548,0.));
#395=DIRECTION('center_axis',(0.,0.,-1.));
#396=DIRECTION('ref_axis',(-0.707106781186548,-0.707106781186548,0.));
#397=DIRECTION('',(0.,0.,-1.));
#398=DIRECTION('center_axis',(0.,0.,1.));
#399=DIRECTION('ref_axis',(-0.707106781186548,-0.707106781186548,0.));
#400=DIRECTION('',(0.,0.,1.));
#401=DIRECTION('center_axis',(0.,0.,1.));
#402=DIRECTION('ref_axis',(1.,0.,0.));
#403=DIRECTION('',(0.,1.,0.));
#404=DIRECTION('',(1.,0.,0.));
#405=DIRECTION('',(0.,-1.,0.));
#406=DIRECTION('',(-1.,0.,0.));
#407=DIRECTION('',(1.11022302462516E-15,1.,0.));
#408=DIRECTION('',(-1.,0.,0.));
#409=DIRECTION('',(7.40148683083438E-16,-1.,0.));
#410=DIRECTION('',(1.,0.,0.));
#411=DIRECTION('center_axis',(-1.,0.,0.));
#412=DIRECTION('ref_axis',(0.,-1.,0.));
#413=DIRECTION('',(0.,-1.,0.));
#414=DIRECTION('',(0.,0.,1.));
#415=DIRECTION('center_axis',(1.,-1.11022302462516E-15,0.));
#416=DIRECTION('ref_axis',(1.11022302462516E-15,1.,0.));
#417=DIRECTION('',(0.,0.,1.));
#418=DIRECTION('',(1.11022302462516E-15,1.,0.));
#419=DIRECTION('',(0.,0.,1.));
#420=DIRECTION('center_axis',(0.,-1.,0.));
#421=DIRECTION('ref_axis',(1.,0.,0.));
#422=DIRECTION('',(0.,0.,1.));
#423=DIRECTION('',(1.,0.,0.));
#424=DIRECTION('center_axis',(-1.,-7.40148683083438E-16,0.));
#425=DIRECTION('ref_axis',(7.40148683083438E-16,-1.,0.));
#426=DIRECTION('',(0.,0.,1.));
#427=DIRECTION('',(7.40148683083438E-16,-1.,0.));
#428=DIRECTION('center_axis',(0.,1.,0.));
#429=DIRECTION('ref_axis',(-1.,0.,0.));
#430=DIRECTION('',(-1.,0.,0.));
#431=DIRECTION('center_axis',(0.,0.,1.));
#432=DIRECTION('ref_axis',(1.,0.,0.));
#433=DIRECTION('center_axis',(0.,0.,-1.));
#434=DIRECTION('ref_axis',(1.,0.,0.));
#435=DIRECTION('center_axis',(0.,0.,-1.));
#436=DIRECTION('ref_axis',(1.,0.,0.));
#437=DIRECTION('center_axis',(-1.,0.,0.));
#438=DIRECTION('ref_axis',(0.,-1.,0.));
#439=DIRECTION('',(0.,1.,0.));
#440=DIRECTION('',(0.,0.,1.));
#441=DIRECTION('',(0.,-1.,0.));
#442=DIRECTION('',(0.,0.,1.));
#443=DIRECTION('center_axis',(0.,-1.,0.));
#444=DIRECTION('ref_axis',(1.,0.,0.));
#445=DIRECTION('',(-1.,0.,0.));
#446=DIRECTION('',(0.,0.,1.));
#447=DIRECTION('',(1.,0.,0.));
#448=DIRECTION('center_axis',(0.,0.,1.));
#449=DIRECTION('ref_axis',(1.,0.,0.));
#450=DIRECTION('center_axis',(0.,0.,-1.));
#451=DIRECTION('ref_axis',(1.,0.,0.));
#452=DIRECTION('',(0.,0.,-1.));
#453=DIRECTION('center_axis',(0.,0.,1.));
#454=DIRECTION('ref_axis',(1.,0.,0.));
#455=DIRECTION('center_axis',(0.,0.,-1.));
#456=DIRECTION('ref_axis',(1.,0.,0.));
#457=DIRECTION('',(0.,0.,-1.));
#458=DIRECTION('center_axis',(0.,1.,0.));
#459=DIRECTION('ref_axis',(-1.,0.,0.));
#460=DIRECTION('',(1.,0.,0.));
#461=DIRECTION('',(-1.,0.,0.));
#462=DIRECTION('',(0.,0.,1.));
#463=DIRECTION('center_axis',(1.,0.,0.));
#464=DIRECTION('ref_axis',(0.,1.,0.));
#465=DIRECTION('',(0.,-1.,0.));
#466=DIRECTION('',(0.,1.,0.));
#467=DIRECTION('center_axis',(0.,0.,1.));
#468=DIRECTION('ref_axis',(1.,0.,0.));
#469=DIRECTION('center_axis',(1.,0.,0.));
#470=DIRECTION('ref_axis',(0.,1.,0.));
#471=DIRECTION('',(0.,0.,1.));
#472=DIRECTION('',(0.,1.,0.));
#473=DIRECTION('',(0.,0.,1.));
#474=DIRECTION('center_axis',(0.,-1.,0.));
#475=DIRECTION('ref_axis',(1.,0.,0.));
#476=DIRECTION('',(1.,0.,0.));
#477=DIRECTION('center_axis',(0.,1.,0.));
#478=DIRECTION('ref_axis',(-1.,0.,0.));
#479=DIRECTION('',(-1.,0.,0.));
#480=DIRECTION('center_axis',(0.,0.,1.));
#481=DIRECTION('ref_axis',(1.,0.,0.));
#482=CARTESIAN_POINT('',(0.,0.,0.));
#483=CARTESIAN_POINT('Origin',(-55.,-49.5,0.));
#484=CARTESIAN_POINT('',(-55.,-73.5,3.));
#485=CARTESIAN_POINT('',(-79.,-49.5,3.));
#486=CARTESIAN_POINT('Origin',(-55.,-49.5,3.));
#487=CARTESIAN_POINT('',(-79.,-49.5,0.));
#488=CARTESIAN_POINT('',(-79.,-49.5,0.));
#489=CARTESIAN_POINT('',(-55.,-73.5,0.));
#490=CARTESIAN_POINT('Origin',(-55.,-49.5,0.));
#491=CARTESIAN_POINT('',(-55.,-73.5,0.));
#492=CARTESIAN_POINT('Origin',(0.,0.,0.));
#493=CARTESIAN_POINT('',(-79.,73.5,0.));
#494=CARTESIAN_POINT('',(-79.,-73.5,0.));
#495=CARTESIAN_POINT('',(79.,73.5,0.));
#496=CARTESIAN_POINT('',(-79.,73.5,0.));
#497=CARTESIAN_POINT('',(79.,-73.5,0.));
#498=CARTESIAN_POINT('',(79.,73.5,0.));
#499=CARTESIAN_POINT('',(79.,-73.5,0.));
#500=CARTESIAN_POINT('',(25.5,2.50000000000002,0.));
#501=CARTESIAN_POINT('',(25.5,14.5,0.));
#502=CARTESIAN_POINT('',(25.5,1.24999999999999,0.));
#503=CARTESIAN_POINT('',(19.5,14.5,0.));
#504=CARTESIAN_POINT('',(12.75,14.5,0.));
#505=CARTESIAN_POINT('',(19.5,2.50000000000002,0.));
#506=CARTESIAN_POINT('',(19.5,7.25000000000002,0.));
#507=CARTESIAN_POINT('',(9.75,2.50000000000002,0.));
#508=CARTESIAN_POINT('Origin',(-79.,73.5,0.));
#509=CARTESIAN_POINT('',(-79.,73.5,3.));
#510=CARTESIAN_POINT('',(-79.,-73.5,3.));
#511=CARTESIAN_POINT('',(-79.,73.5,0.));
#512=CARTESIAN_POINT('Origin',(25.5,2.50000000000002,0.));
#513=CARTESIAN_POINT('',(25.5,2.50000000000002,3.));
#514=CARTESIAN_POINT('',(25.5,2.50000000000002,0.));
#515=CARTESIAN_POINT('',(25.5,14.5,3.));
#516=CARTESIAN_POINT('',(25.5,14.5,3.));
#517=CARTESIAN_POINT('',(25.5,14.5,0.));
#518=CARTESIAN_POINT('Origin',(19.5,2.50000000000002,0.));
#519=CARTESIAN_POINT('',(19.5,2.50000000000002,3.));
#520=CARTESIAN_POINT('',(19.5,2.50000000000002,0.));
#521=CARTESIAN_POINT('',(25.5,2.50000000000002,3.));
#522=CARTESIAN_POINT('Origin',(19.5,14.5,0.));
#523=CARTESIAN_POINT('',(19.5,14.5,3.));
#524=CARTESIAN_POINT('',(19.5,14.5,0.));
#525=CARTESIAN_POINT('',(19.5,2.50000000000002,3.));
#526=CARTESIAN_POINT('Origin',(25.5,14.5,0.));
#527=CARTESIAN_POINT('',(19.5,14.5,3.));
#528=CARTESIAN_POINT('Origin',(22.5,8.50000000000002,3.));
#529=CARTESIAN_POINT('',(20.4,11.5,3.));
#530=CARTESIAN_POINT('Origin',(22.5,11.5,3.));
#531=CARTESIAN_POINT('',(20.4,5.50000000000001,3.));
#532=CARTESIAN_POINT('Origin',(22.5,5.50000000000001,3.));
#533=CARTESIAN_POINT('Origin',(18.,16.5,0.));
#534=CARTESIAN_POINT('',(18.,0.500000000000007,3.));
#535=CARTESIAN_POINT('',(18.,16.5,3.));
#536=CARTESIAN_POINT('',(18.,0.500000000000007,3.));
#537=CARTESIAN_POINT('',(18.,0.500000000000007,8.));
#538=CARTESIAN_POINT('',(18.,0.500000000000007,0.));
#539=CARTESIAN_POINT('',(18.,16.5,8.));
#540=CARTESIAN_POINT('',(18.,0.500000000000007,8.));
#541=CARTESIAN_POINT('',(18.,16.5,0.));
#542=CARTESIAN_POINT('Origin',(18.,0.500000000000007,0.));
#543=CARTESIAN_POINT('',(27.,0.500000000000007,3.));
#544=CARTESIAN_POINT('',(27.,0.500000000000007,3.));
#545=CARTESIAN_POINT('',(27.,0.500000000000007,8.));
#546=CARTESIAN_POINT('',(27.,0.500000000000007,0.));
#547=CARTESIAN_POINT('',(27.,0.500000000000007,8.));
#548=CARTESIAN_POINT('Origin',(22.5,5.50000000000001,0.));
#549=CARTESIAN_POINT('',(20.4,5.50000000000001,8.));
#550=CARTESIAN_POINT('Origin',(22.5,5.50000000000001,8.));
#551=CARTESIAN_POINT('',(20.4,5.50000000000001,0.));
#552=CARTESIAN_POINT('Origin',(22.5,11.5,0.));
#553=CARTESIAN_POINT('',(20.4,11.5,8.));
#554=CARTESIAN_POINT('Origin',(22.5,11.5,8.));
#555=CARTESIAN_POINT('',(20.4,11.5,0.));
#556=CARTESIAN_POINT('Origin',(27.,16.5,0.));
#557=CARTESIAN_POINT('',(27.,16.5,3.));
#558=CARTESIAN_POINT('',(18.,16.5,3.));
#559=CARTESIAN_POINT('',(27.,16.5,8.));
#560=CARTESIAN_POINT('',(18.,16.5,8.));
#561=CARTESIAN_POINT('',(27.,16.5,0.));
#562=CARTESIAN_POINT('Origin',(27.,0.500000000000007,0.));
#563=CARTESIAN_POINT('',(27.,16.5,3.));
#564=CARTESIAN_POINT('',(27.,16.5,8.));
#565=CARTESIAN_POINT('Origin',(22.5,8.50000000000001,8.));
#566=CARTESIAN_POINT('Origin',(79.,-73.5,0.));
#567=CARTESIAN_POINT('',(79.,73.5,3.));
#568=CARTESIAN_POINT('',(79.,73.5,0.));
#569=CARTESIAN_POINT('',(79.,-73.5,3.));
#570=CARTESIAN_POINT('',(79.,73.5,3.));
#571=CARTESIAN_POINT('',(79.,-73.5,0.));
#572=CARTESIAN_POINT('Origin',(-79.,-73.5,0.));
#573=CARTESIAN_POINT('',(79.,-73.5,3.));
#574=CARTESIAN_POINT('Origin',(79.,73.5,0.));
#575=CARTESIAN_POINT('',(-79.,73.5,3.));
#576=CARTESIAN_POINT('Origin',(0.,0.,3.));
#577=UNCERTAINTY_MEASURE_WITH_UNIT(LENGTH_MEASURE(0.01),#581,
'DISTANCE_ACCURACY_VALUE',
'Maximum model space distance between geometric entities at asserted c
onnectivities');
#578=UNCERTAINTY_MEASURE_WITH_UNIT(LENGTH_MEASURE(0.01),#581,
'DISTANCE_ACCURACY_VALUE',
'Maximum model space distance between geometric entities at asserted c
onnectivities');
#579=(
GEOMETRIC_REPRESENTATION_CONTEXT(3)
GLOBAL_UNCERTAINTY_ASSIGNED_CONTEXT((#577))
GLOBAL_UNIT_ASSIGNED_CONTEXT((#581,#583,#584))
REPRESENTATION_CONTEXT('','3D')
);
#580=(
GEOMETRIC_REPRESENTATION_CONTEXT(3)
GLOBAL_UNCERTAINTY_ASSIGNED_CONTEXT((#578))
GLOBAL_UNIT_ASSIGNED_CONTEXT((#581,#583,#584))
REPRESENTATION_CONTEXT('','3D')
);
#581=(
LENGTH_UNIT()
NAMED_UNIT(*)
SI_UNIT(.MILLI.,.METRE.)
);
#582=(
LENGTH_UNIT()
NAMED_UNIT(*)
SI_UNIT($,.METRE.)
);
#583=(
NAMED_UNIT(*)
PLANE_ANGLE_UNIT()
SI_UNIT($,.RADIAN.)
);
#584=(
NAMED_UNIT(*)
SI_UNIT($,.STERADIAN.)
SOLID_ANGLE_UNIT()
);
#585=SHAPE_DEFINITION_REPRESENTATION(#586,#587);
#586=PRODUCT_DEFINITION_SHAPE('',$,#589);
#587=SHAPE_REPRESENTATION('',(#365),#579);
#588=PRODUCT_DEFINITION_CONTEXT('part definition',#593,'design');
#589=PRODUCT_DEFINITION('TopRight','TopRight v2',#590,#588);
#590=PRODUCT_DEFINITION_FORMATION('',$,#595);
#591=PRODUCT_RELATED_PRODUCT_CATEGORY('TopRight v2','TopRight v2',(#595));
#592=APPLICATION_PROTOCOL_DEFINITION('international standard',
'automotive_design',2009,#593);
#593=APPLICATION_CONTEXT(
'Core Data for Automotive Mechanical Design Process');
#594=PRODUCT_CONTEXT('part definition',#593,'mechanical');
#595=PRODUCT('TopRight','TopRight v2',$,(#594));
#596=PRESENTATION_STYLE_ASSIGNMENT((#597));
#597=SURFACE_STYLE_USAGE(.BOTH.,#598);
#598=SURFACE_SIDE_STYLE('',(#599));
#599=SURFACE_STYLE_FILL_AREA(#600);
#600=FILL_AREA_STYLE('Steel - Satin',(#601));
#601=FILL_AREA_STYLE_COLOUR('Steel - Satin',#602);
#602=COLOUR_RGB('Steel - Satin',0.627450980392157,0.627450980392157,0.627450980392157);
ENDSEC;
END-ISO-10303-21;
