ISO-10303-21;
HEADER;
/* Generated by software containing ST-Developer
 * from STEP Tools, Inc. (www.steptools.com) 
 */

FILE_DESCRIPTION(
/* description */ ('',
'CAx-IF Rec.Pracs.---Representation and Presentation of Product Manufa
cturing Information (PMI)---4.0---2014-10-13'),
/* implementation_level */ '2;1');

FILE_NAME(
/* name */ '20250217-TestRight v2.step',
/* time_stamp */ '2025-02-17T18:11:44-05:00',
/* author */ (''),
/* organization */ (''),
/* preprocessor_version */ 'ST-DEVELOPER v20',
/* originating_system */ 'Autodesk Translation Framework v13.20.0.188',

/* authorisation */ '');

FILE_SCHEMA (('AP242_MANAGED_MODEL_BASED_3D_ENGINEERING_MIM_LF { 1 0 10303 442 1 1 4 }'));
ENDSEC;

DATA;
#10=MECHANICAL_DESIGN_GEOMETRIC_PRESENTATION_REPRESENTATION('',(#13),#842);
#11=SHAPE_REPRESENTATION_RELATIONSHIP('SRR','None',#849,#12);
#12=ADVANCED_BREP_SHAPE_REPRESENTATION('',(#14),#841);
#13=STYLED_ITEM('',(#858),#14);
#14=MANIFOLD_SOLID_BREP('Body4',#483);
#15=FACE_BOUND('',#83,.T.);
#16=FACE_BOUND('',#91,.T.);
#17=B_SPLINE_CURVE_WITH_KNOTS('',3,(#746,#747,#748,#749,#750,#751,#752,
#753),.UNSPECIFIED.,.F.,.F.,(4,2,2,4),(8.80658280266814,9.28996577323444,
9.77334874380075,10.1278740182669),.UNSPECIFIED.);
#18=B_SPLINE_CURVE_WITH_KNOTS('',3,(#754,#755,#756,#757,#758,#759,#760,
#761),.UNSPECIFIED.,.F.,.F.,(4,2,2,4),(7.4852915870694,7.83981686153552,
8.32319983210183,8.80658280266814),.UNSPECIFIED.);
#19=(
BOUNDED_SURFACE()
B_SPLINE_SURFACE(2,2,((#734,#735,#736),(#737,#738,#739),(#740,#741,#742)),
 .UNSPECIFIED.,.F.,.F.,.F.)
B_SPLINE_SURFACE_WITH_KNOTS((3,3),(3,3),(1.1182855284948,1.50328881193384),
(-3.14159265358979,-1.57079632679489),.UNSPECIFIED.)
GEOMETRIC_REPRESENTATION_ITEM()
RATIONAL_B_SPLINE_SURFACE(((1.,0.707106781186547,1.),(0.981528705525871,
0.694045603606597,0.981528705525871),(1.,0.707106781186547,1.)))
REPRESENTATION_ITEM('')
SURFACE()
);
#20=PLANE('',#510);
#21=PLANE('',#526);
#22=PLANE('',#527);
#23=PLANE('',#528);
#24=PLANE('',#529);
#25=PLANE('',#530);
#26=PLANE('',#533);
#27=PLANE('',#534);
#28=PLANE('',#535);
#29=PLANE('',#536);
#30=PLANE('',#537);
#31=PLANE('',#538);
#32=PLANE('',#539);
#33=PLANE('',#540);
#34=PLANE('',#541);
#35=TOROIDAL_SURFACE('',#502,22.,2.);
#36=FACE_OUTER_BOUND('',#63,.T.);
#37=FACE_OUTER_BOUND('',#64,.T.);
#38=FACE_OUTER_BOUND('',#65,.T.);
#39=FACE_OUTER_BOUND('',#66,.T.);
#40=FACE_OUTER_BOUND('',#67,.T.);
#41=FACE_OUTER_BOUND('',#68,.T.);
#42=FACE_OUTER_BOUND('',#69,.T.);
#43=FACE_OUTER_BOUND('',#70,.T.);
#44=FACE_OUTER_BOUND('',#71,.T.);
#45=FACE_OUTER_BOUND('',#72,.T.);
#46=FACE_OUTER_BOUND('',#73,.T.);
#47=FACE_OUTER_BOUND('',#74,.T.);
#48=FACE_OUTER_BOUND('',#75,.T.);
#49=FACE_OUTER_BOUND('',#76,.T.);
#50=FACE_OUTER_BOUND('',#77,.T.);
#51=FACE_OUTER_BOUND('',#78,.T.);
#52=FACE_OUTER_BOUND('',#79,.T.);
#53=FACE_OUTER_BOUND('',#80,.T.);
#54=FACE_OUTER_BOUND('',#81,.T.);
#55=FACE_OUTER_BOUND('',#82,.T.);
#56=FACE_OUTER_BOUND('',#84,.T.);
#57=FACE_OUTER_BOUND('',#85,.T.);
#58=FACE_OUTER_BOUND('',#86,.T.);
#59=FACE_OUTER_BOUND('',#87,.T.);
#60=FACE_OUTER_BOUND('',#88,.T.);
#61=FACE_OUTER_BOUND('',#89,.T.);
#62=FACE_OUTER_BOUND('',#90,.T.);
#63=EDGE_LOOP('',(#312,#313,#314,#315));
#64=EDGE_LOOP('',(#316,#317,#318,#319));
#65=EDGE_LOOP('',(#320,#321,#322,#323));
#66=EDGE_LOOP('',(#324,#325,#326,#327));
#67=EDGE_LOOP('',(#328,#329,#330,#331));
#68=EDGE_LOOP('',(#332,#333,#334,#335,#336,#337));
#69=EDGE_LOOP('',(#338,#339,#340,#341,#342));
#70=EDGE_LOOP('',(#343,#344,#345,#346));
#71=EDGE_LOOP('',(#347,#348,#349,#350,#351));
#72=EDGE_LOOP('',(#352,#353,#354,#355));
#73=EDGE_LOOP('',(#356,#357,#358,#359,#360));
#74=EDGE_LOOP('',(#361,#362,#363,#364));
#75=EDGE_LOOP('',(#365,#366,#367,#368));
#76=EDGE_LOOP('',(#369,#370,#371,#372));
#77=EDGE_LOOP('',(#373,#374,#375,#376));
#78=EDGE_LOOP('',(#377,#378,#379,#380));
#79=EDGE_LOOP('',(#381,#382,#383,#384,#385));
#80=EDGE_LOOP('',(#386,#387,#388,#389));
#81=EDGE_LOOP('',(#390,#391,#392,#393,#394));
#82=EDGE_LOOP('',(#395,#396,#397,#398,#399));
#83=EDGE_LOOP('',(#400,#401,#402,#403,#404));
#84=EDGE_LOOP('',(#405,#406,#407,#408,#409,#410));
#85=EDGE_LOOP('',(#411,#412,#413,#414,#415,#416));
#86=EDGE_LOOP('',(#417,#418,#419,#420,#421));
#87=EDGE_LOOP('',(#422,#423,#424,#425,#426));
#88=EDGE_LOOP('',(#427,#428,#429,#430,#431));
#89=EDGE_LOOP('',(#432,#433,#434,#435,#436));
#90=EDGE_LOOP('',(#437,#438,#439,#440,#441));
#91=EDGE_LOOP('',(#442,#443,#444,#445));
#92=LINE('',#686,#138);
#93=LINE('',#689,#139);
#94=LINE('',#694,#140);
#95=LINE('',#695,#141);
#96=LINE('',#706,#142);
#97=LINE('',#707,#143);
#98=LINE('',#712,#144);
#99=LINE('',#713,#145);
#100=LINE('',#718,#146);
#101=LINE('',#720,#147);
#102=LINE('',#722,#148);
#103=LINE('',#723,#149);
#104=LINE('',#729,#150);
#105=LINE('',#733,#151);
#106=LINE('',#765,#152);
#107=LINE('',#770,#153);
#108=LINE('',#777,#154);
#109=LINE('',#780,#155);
#110=LINE('',#783,#156);
#111=LINE('',#785,#157);
#112=LINE('',#786,#158);
#113=LINE('',#789,#159);
#114=LINE('',#791,#160);
#115=LINE('',#792,#161);
#116=LINE('',#795,#162);
#117=LINE('',#797,#163);
#118=LINE('',#798,#164);
#119=LINE('',#800,#165);
#120=LINE('',#801,#166);
#121=LINE('',#804,#167);
#122=LINE('',#805,#168);
#123=LINE('',#809,#169);
#124=LINE('',#812,#170);
#125=LINE('',#813,#171);
#126=LINE('',#815,#172);
#127=LINE('',#817,#173);
#128=LINE('',#820,#174);
#129=LINE('',#821,#175);
#130=LINE('',#824,#176);
#131=LINE('',#826,#177);
#132=LINE('',#827,#178);
#133=LINE('',#830,#179);
#134=LINE('',#831,#180);
#135=LINE('',#834,#181);
#136=LINE('',#835,#182);
#137=LINE('',#837,#183);
#138=VECTOR('',#548,10.);
#139=VECTOR('',#551,10.);
#140=VECTOR('',#556,10.);
#141=VECTOR('',#557,10.);
#142=VECTOR('',#570,10.);
#143=VECTOR('',#571,10.);
#144=VECTOR('',#576,10.);
#145=VECTOR('',#577,10.);
#146=VECTOR('',#582,10.);
#147=VECTOR('',#583,10.);
#148=VECTOR('',#584,10.);
#149=VECTOR('',#585,10.);
#150=VECTOR('',#592,24.);
#151=VECTOR('',#597,10.);
#152=VECTOR('',#604,10.);
#153=VECTOR('',#609,24.);
#154=VECTOR('',#616,10.);
#155=VECTOR('',#619,10.);
#156=VECTOR('',#622,10.);
#157=VECTOR('',#623,10.);
#158=VECTOR('',#624,10.);
#159=VECTOR('',#627,10.);
#160=VECTOR('',#628,10.);
#161=VECTOR('',#629,10.);
#162=VECTOR('',#632,10.);
#163=VECTOR('',#633,10.);
#164=VECTOR('',#634,10.);
#165=VECTOR('',#637,10.);
#166=VECTOR('',#638,10.);
#167=VECTOR('',#641,10.);
#168=VECTOR('',#642,10.);
#169=VECTOR('',#647,10.);
#170=VECTOR('',#650,10.);
#171=VECTOR('',#651,10.);
#172=VECTOR('',#654,10.);
#173=VECTOR('',#657,10.);
#174=VECTOR('',#660,10.);
#175=VECTOR('',#661,10.);
#176=VECTOR('',#664,10.);
#177=VECTOR('',#665,10.);
#178=VECTOR('',#666,10.);
#179=VECTOR('',#669,10.);
#180=VECTOR('',#670,10.);
#181=VECTOR('',#673,10.);
#182=VECTOR('',#674,10.);
#183=VECTOR('',#677,10.);
#184=CIRCLE('',#498,2.);
#185=CIRCLE('',#499,2.);
#186=CIRCLE('',#501,2.);
#187=CIRCLE('',#503,22.8744500035111);
#188=CIRCLE('',#504,2.);
#189=CIRCLE('',#505,24.);
#190=CIRCLE('',#507,2.);
#191=CIRCLE('',#509,2.);
#192=CIRCLE('',#511,24.);
#193=CIRCLE('',#513,24.);
#194=CIRCLE('',#514,24.);
#195=CIRCLE('',#516,24.);
#196=CIRCLE('',#517,24.);
#197=CIRCLE('',#519,24.);
#198=CIRCLE('',#521,24.);
#199=CIRCLE('',#522,24.);
#200=CIRCLE('',#524,22.);
#201=CIRCLE('',#525,22.);
#202=CIRCLE('',#532,24.);
#203=VERTEX_POINT('',#682);
#204=VERTEX_POINT('',#683);
#205=VERTEX_POINT('',#685);
#206=VERTEX_POINT('',#687);
#207=VERTEX_POINT('',#691);
#208=VERTEX_POINT('',#692);
#209=VERTEX_POINT('',#697);
#210=VERTEX_POINT('',#699);
#211=VERTEX_POINT('',#703);
#212=VERTEX_POINT('',#704);
#213=VERTEX_POINT('',#709);
#214=VERTEX_POINT('',#710);
#215=VERTEX_POINT('',#715);
#216=VERTEX_POINT('',#717);
#217=VERTEX_POINT('',#719);
#218=VERTEX_POINT('',#721);
#219=VERTEX_POINT('',#725);
#220=VERTEX_POINT('',#727);
#221=VERTEX_POINT('',#731);
#222=VERTEX_POINT('',#743);
#223=VERTEX_POINT('',#745);
#224=VERTEX_POINT('',#763);
#225=VERTEX_POINT('',#767);
#226=VERTEX_POINT('',#769);
#227=VERTEX_POINT('',#773);
#228=VERTEX_POINT('',#774);
#229=VERTEX_POINT('',#776);
#230=VERTEX_POINT('',#778);
#231=VERTEX_POINT('',#782);
#232=VERTEX_POINT('',#784);
#233=VERTEX_POINT('',#788);
#234=VERTEX_POINT('',#790);
#235=VERTEX_POINT('',#794);
#236=VERTEX_POINT('',#796);
#237=VERTEX_POINT('',#803);
#238=VERTEX_POINT('',#807);
#239=VERTEX_POINT('',#811);
#240=VERTEX_POINT('',#819);
#241=VERTEX_POINT('',#823);
#242=VERTEX_POINT('',#825);
#243=VERTEX_POINT('',#829);
#244=VERTEX_POINT('',#833);
#245=EDGE_CURVE('',#203,#204,#184,.T.);
#246=EDGE_CURVE('',#204,#205,#92,.T.);
#247=EDGE_CURVE('',#205,#206,#185,.T.);
#248=EDGE_CURVE('',#206,#203,#93,.T.);
#249=EDGE_CURVE('',#207,#208,#186,.T.);
#250=EDGE_CURVE('',#208,#206,#94,.T.);
#251=EDGE_CURVE('',#205,#207,#95,.T.);
#252=EDGE_CURVE('',#207,#209,#187,.T.);
#253=EDGE_CURVE('',#209,#210,#188,.T.);
#254=EDGE_CURVE('',#210,#208,#189,.T.);
#255=EDGE_CURVE('',#211,#212,#190,.T.);
#256=EDGE_CURVE('',#212,#210,#96,.T.);
#257=EDGE_CURVE('',#209,#211,#97,.T.);
#258=EDGE_CURVE('',#213,#214,#191,.T.);
#259=EDGE_CURVE('',#214,#212,#98,.T.);
#260=EDGE_CURVE('',#211,#213,#99,.T.);
#261=EDGE_CURVE('',#215,#213,#192,.T.);
#262=EDGE_CURVE('',#216,#215,#100,.T.);
#263=EDGE_CURVE('',#216,#217,#101,.T.);
#264=EDGE_CURVE('',#218,#217,#102,.T.);
#265=EDGE_CURVE('',#214,#218,#103,.T.);
#266=EDGE_CURVE('',#219,#211,#193,.T.);
#267=EDGE_CURVE('',#219,#220,#194,.T.);
#268=EDGE_CURVE('',#220,#215,#104,.T.);
#269=EDGE_CURVE('',#221,#209,#195,.T.);
#270=EDGE_CURVE('',#221,#219,#105,.T.);
#271=EDGE_CURVE('',#222,#207,#196,.T.);
#272=EDGE_CURVE('',#222,#223,#17,.T.);
#273=EDGE_CURVE('',#223,#221,#18,.T.);
#274=EDGE_CURVE('',#224,#205,#197,.T.);
#275=EDGE_CURVE('',#224,#222,#106,.T.);
#276=EDGE_CURVE('',#204,#225,#198,.T.);
#277=EDGE_CURVE('',#225,#226,#107,.T.);
#278=EDGE_CURVE('',#226,#224,#199,.T.);
#279=EDGE_CURVE('',#227,#228,#200,.T.);
#280=EDGE_CURVE('',#227,#229,#108,.T.);
#281=EDGE_CURVE('',#230,#229,#201,.T.);
#282=EDGE_CURVE('',#228,#230,#109,.T.);
#283=EDGE_CURVE('',#228,#231,#110,.T.);
#284=EDGE_CURVE('',#232,#230,#111,.T.);
#285=EDGE_CURVE('',#231,#232,#112,.T.);
#286=EDGE_CURVE('',#231,#233,#113,.T.);
#287=EDGE_CURVE('',#234,#232,#114,.T.);
#288=EDGE_CURVE('',#233,#234,#115,.T.);
#289=EDGE_CURVE('',#233,#235,#116,.T.);
#290=EDGE_CURVE('',#236,#234,#117,.T.);
#291=EDGE_CURVE('',#235,#236,#118,.T.);
#292=EDGE_CURVE('',#235,#227,#119,.T.);
#293=EDGE_CURVE('',#229,#236,#120,.T.);
#294=EDGE_CURVE('',#237,#218,#121,.T.);
#295=EDGE_CURVE('',#210,#237,#122,.T.);
#296=EDGE_CURVE('',#238,#237,#202,.T.);
#297=EDGE_CURVE('',#208,#238,#123,.T.);
#298=EDGE_CURVE('',#239,#238,#124,.T.);
#299=EDGE_CURVE('',#203,#239,#125,.T.);
#300=EDGE_CURVE('',#217,#239,#126,.T.);
#301=EDGE_CURVE('',#225,#216,#127,.T.);
#302=EDGE_CURVE('',#240,#220,#128,.T.);
#303=EDGE_CURVE('',#226,#240,#129,.T.);
#304=EDGE_CURVE('',#224,#241,#130,.T.);
#305=EDGE_CURVE('',#242,#241,#131,.T.);
#306=EDGE_CURVE('',#223,#242,#132,.T.);
#307=EDGE_CURVE('',#243,#242,#133,.T.);
#308=EDGE_CURVE('',#219,#243,#134,.T.);
#309=EDGE_CURVE('',#244,#243,#135,.T.);
#310=EDGE_CURVE('',#240,#244,#136,.T.);
#311=EDGE_CURVE('',#241,#244,#137,.T.);
#312=ORIENTED_EDGE('',*,*,#245,.T.);
#313=ORIENTED_EDGE('',*,*,#246,.T.);
#314=ORIENTED_EDGE('',*,*,#247,.T.);
#315=ORIENTED_EDGE('',*,*,#248,.T.);
#316=ORIENTED_EDGE('',*,*,#249,.T.);
#317=ORIENTED_EDGE('',*,*,#250,.T.);
#318=ORIENTED_EDGE('',*,*,#247,.F.);
#319=ORIENTED_EDGE('',*,*,#251,.T.);
#320=ORIENTED_EDGE('',*,*,#249,.F.);
#321=ORIENTED_EDGE('',*,*,#252,.T.);
#322=ORIENTED_EDGE('',*,*,#253,.T.);
#323=ORIENTED_EDGE('',*,*,#254,.T.);
#324=ORIENTED_EDGE('',*,*,#255,.T.);
#325=ORIENTED_EDGE('',*,*,#256,.T.);
#326=ORIENTED_EDGE('',*,*,#253,.F.);
#327=ORIENTED_EDGE('',*,*,#257,.T.);
#328=ORIENTED_EDGE('',*,*,#258,.T.);
#329=ORIENTED_EDGE('',*,*,#259,.T.);
#330=ORIENTED_EDGE('',*,*,#255,.F.);
#331=ORIENTED_EDGE('',*,*,#260,.T.);
#332=ORIENTED_EDGE('',*,*,#258,.F.);
#333=ORIENTED_EDGE('',*,*,#261,.F.);
#334=ORIENTED_EDGE('',*,*,#262,.F.);
#335=ORIENTED_EDGE('',*,*,#263,.T.);
#336=ORIENTED_EDGE('',*,*,#264,.F.);
#337=ORIENTED_EDGE('',*,*,#265,.F.);
#338=ORIENTED_EDGE('',*,*,#260,.F.);
#339=ORIENTED_EDGE('',*,*,#266,.F.);
#340=ORIENTED_EDGE('',*,*,#267,.T.);
#341=ORIENTED_EDGE('',*,*,#268,.T.);
#342=ORIENTED_EDGE('',*,*,#261,.T.);
#343=ORIENTED_EDGE('',*,*,#257,.F.);
#344=ORIENTED_EDGE('',*,*,#269,.F.);
#345=ORIENTED_EDGE('',*,*,#270,.T.);
#346=ORIENTED_EDGE('',*,*,#266,.T.);
#347=ORIENTED_EDGE('',*,*,#252,.F.);
#348=ORIENTED_EDGE('',*,*,#271,.F.);
#349=ORIENTED_EDGE('',*,*,#272,.T.);
#350=ORIENTED_EDGE('',*,*,#273,.T.);
#351=ORIENTED_EDGE('',*,*,#269,.T.);
#352=ORIENTED_EDGE('',*,*,#251,.F.);
#353=ORIENTED_EDGE('',*,*,#274,.F.);
#354=ORIENTED_EDGE('',*,*,#275,.T.);
#355=ORIENTED_EDGE('',*,*,#271,.T.);
#356=ORIENTED_EDGE('',*,*,#246,.F.);
#357=ORIENTED_EDGE('',*,*,#276,.T.);
#358=ORIENTED_EDGE('',*,*,#277,.T.);
#359=ORIENTED_EDGE('',*,*,#278,.T.);
#360=ORIENTED_EDGE('',*,*,#274,.T.);
#361=ORIENTED_EDGE('',*,*,#279,.F.);
#362=ORIENTED_EDGE('',*,*,#280,.T.);
#363=ORIENTED_EDGE('',*,*,#281,.F.);
#364=ORIENTED_EDGE('',*,*,#282,.F.);
#365=ORIENTED_EDGE('',*,*,#283,.F.);
#366=ORIENTED_EDGE('',*,*,#282,.T.);
#367=ORIENTED_EDGE('',*,*,#284,.F.);
#368=ORIENTED_EDGE('',*,*,#285,.F.);
#369=ORIENTED_EDGE('',*,*,#286,.F.);
#370=ORIENTED_EDGE('',*,*,#285,.T.);
#371=ORIENTED_EDGE('',*,*,#287,.F.);
#372=ORIENTED_EDGE('',*,*,#288,.F.);
#373=ORIENTED_EDGE('',*,*,#289,.F.);
#374=ORIENTED_EDGE('',*,*,#288,.T.);
#375=ORIENTED_EDGE('',*,*,#290,.F.);
#376=ORIENTED_EDGE('',*,*,#291,.F.);
#377=ORIENTED_EDGE('',*,*,#292,.F.);
#378=ORIENTED_EDGE('',*,*,#291,.T.);
#379=ORIENTED_EDGE('',*,*,#293,.F.);
#380=ORIENTED_EDGE('',*,*,#280,.F.);
#381=ORIENTED_EDGE('',*,*,#259,.F.);
#382=ORIENTED_EDGE('',*,*,#265,.T.);
#383=ORIENTED_EDGE('',*,*,#294,.F.);
#384=ORIENTED_EDGE('',*,*,#295,.F.);
#385=ORIENTED_EDGE('',*,*,#256,.F.);
#386=ORIENTED_EDGE('',*,*,#254,.F.);
#387=ORIENTED_EDGE('',*,*,#295,.T.);
#388=ORIENTED_EDGE('',*,*,#296,.F.);
#389=ORIENTED_EDGE('',*,*,#297,.F.);
#390=ORIENTED_EDGE('',*,*,#250,.F.);
#391=ORIENTED_EDGE('',*,*,#297,.T.);
#392=ORIENTED_EDGE('',*,*,#298,.F.);
#393=ORIENTED_EDGE('',*,*,#299,.F.);
#394=ORIENTED_EDGE('',*,*,#248,.F.);
#395=ORIENTED_EDGE('',*,*,#300,.T.);
#396=ORIENTED_EDGE('',*,*,#298,.T.);
#397=ORIENTED_EDGE('',*,*,#296,.T.);
#398=ORIENTED_EDGE('',*,*,#294,.T.);
#399=ORIENTED_EDGE('',*,*,#264,.T.);
#400=ORIENTED_EDGE('',*,*,#293,.T.);
#401=ORIENTED_EDGE('',*,*,#290,.T.);
#402=ORIENTED_EDGE('',*,*,#287,.T.);
#403=ORIENTED_EDGE('',*,*,#284,.T.);
#404=ORIENTED_EDGE('',*,*,#281,.T.);
#405=ORIENTED_EDGE('',*,*,#245,.F.);
#406=ORIENTED_EDGE('',*,*,#299,.T.);
#407=ORIENTED_EDGE('',*,*,#300,.F.);
#408=ORIENTED_EDGE('',*,*,#263,.F.);
#409=ORIENTED_EDGE('',*,*,#301,.F.);
#410=ORIENTED_EDGE('',*,*,#276,.F.);
#411=ORIENTED_EDGE('',*,*,#277,.F.);
#412=ORIENTED_EDGE('',*,*,#301,.T.);
#413=ORIENTED_EDGE('',*,*,#262,.T.);
#414=ORIENTED_EDGE('',*,*,#268,.F.);
#415=ORIENTED_EDGE('',*,*,#302,.F.);
#416=ORIENTED_EDGE('',*,*,#303,.F.);
#417=ORIENTED_EDGE('',*,*,#275,.F.);
#418=ORIENTED_EDGE('',*,*,#304,.T.);
#419=ORIENTED_EDGE('',*,*,#305,.F.);
#420=ORIENTED_EDGE('',*,*,#306,.F.);
#421=ORIENTED_EDGE('',*,*,#272,.F.);
#422=ORIENTED_EDGE('',*,*,#273,.F.);
#423=ORIENTED_EDGE('',*,*,#306,.T.);
#424=ORIENTED_EDGE('',*,*,#307,.F.);
#425=ORIENTED_EDGE('',*,*,#308,.F.);
#426=ORIENTED_EDGE('',*,*,#270,.F.);
#427=ORIENTED_EDGE('',*,*,#267,.F.);
#428=ORIENTED_EDGE('',*,*,#308,.T.);
#429=ORIENTED_EDGE('',*,*,#309,.F.);
#430=ORIENTED_EDGE('',*,*,#310,.F.);
#431=ORIENTED_EDGE('',*,*,#302,.T.);
#432=ORIENTED_EDGE('',*,*,#278,.F.);
#433=ORIENTED_EDGE('',*,*,#303,.T.);
#434=ORIENTED_EDGE('',*,*,#310,.T.);
#435=ORIENTED_EDGE('',*,*,#311,.F.);
#436=ORIENTED_EDGE('',*,*,#304,.F.);
#437=ORIENTED_EDGE('',*,*,#279,.T.);
#438=ORIENTED_EDGE('',*,*,#283,.T.);
#439=ORIENTED_EDGE('',*,*,#286,.T.);
#440=ORIENTED_EDGE('',*,*,#289,.T.);
#441=ORIENTED_EDGE('',*,*,#292,.T.);
#442=ORIENTED_EDGE('',*,*,#311,.T.);
#443=ORIENTED_EDGE('',*,*,#309,.T.);
#444=ORIENTED_EDGE('',*,*,#307,.T.);
#445=ORIENTED_EDGE('',*,*,#305,.T.);
#446=CYLINDRICAL_SURFACE('',#497,2.);
#447=CYLINDRICAL_SURFACE('',#500,2.);
#448=CYLINDRICAL_SURFACE('',#506,2.);
#449=CYLINDRICAL_SURFACE('',#508,2.);
#450=CYLINDRICAL_SURFACE('',#512,24.);
#451=CYLINDRICAL_SURFACE('',#515,24.);
#452=CYLINDRICAL_SURFACE('',#518,24.);
#453=CYLINDRICAL_SURFACE('',#520,24.);
#454=CYLINDRICAL_SURFACE('',#523,22.);
#455=CYLINDRICAL_SURFACE('',#531,24.);
#456=ADVANCED_FACE('',(#36),#446,.T.);
#457=ADVANCED_FACE('',(#37),#447,.T.);
#458=ADVANCED_FACE('',(#38),#35,.T.);
#459=ADVANCED_FACE('',(#39),#448,.T.);
#460=ADVANCED_FACE('',(#40),#449,.T.);
#461=ADVANCED_FACE('',(#41),#20,.T.);
#462=ADVANCED_FACE('',(#42),#450,.T.);
#463=ADVANCED_FACE('',(#43),#451,.T.);
#464=ADVANCED_FACE('',(#44),#19,.T.);
#465=ADVANCED_FACE('',(#45),#452,.T.);
#466=ADVANCED_FACE('',(#46),#453,.T.);
#467=ADVANCED_FACE('',(#47),#454,.F.);
#468=ADVANCED_FACE('',(#48),#21,.T.);
#469=ADVANCED_FACE('',(#49),#22,.T.);
#470=ADVANCED_FACE('',(#50),#23,.T.);
#471=ADVANCED_FACE('',(#51),#24,.T.);
#472=ADVANCED_FACE('',(#52),#25,.T.);
#473=ADVANCED_FACE('',(#53),#455,.T.);
#474=ADVANCED_FACE('',(#54),#26,.T.);
#475=ADVANCED_FACE('',(#55,#15),#27,.T.);
#476=ADVANCED_FACE('',(#56),#28,.T.);
#477=ADVANCED_FACE('',(#57),#29,.F.);
#478=ADVANCED_FACE('',(#58),#30,.T.);
#479=ADVANCED_FACE('',(#59),#31,.T.);
#480=ADVANCED_FACE('',(#60),#32,.T.);
#481=ADVANCED_FACE('',(#61),#33,.T.);
#482=ADVANCED_FACE('',(#62,#16),#34,.T.);
#483=CLOSED_SHELL('',(#456,#457,#458,#459,#460,#461,#462,#463,#464,#465,
#466,#467,#468,#469,#470,#471,#472,#473,#474,#475,#476,#477,#478,#479,#480,
#481,#482));
#484=DERIVED_UNIT_ELEMENT(#486,1.);
#485=DERIVED_UNIT_ELEMENT(#844,-3.);
#486=(
MASS_UNIT()
NAMED_UNIT(*)
SI_UNIT(.KILO.,.GRAM.)
);
#487=DERIVED_UNIT((#484,#485));
#488=MEASURE_REPRESENTATION_ITEM('density measure',
POSITIVE_RATIO_MEASURE(7850.),#487);
#489=PROPERTY_DEFINITION_REPRESENTATION(#494,#491);
#490=PROPERTY_DEFINITION_REPRESENTATION(#495,#492);
#491=REPRESENTATION('material name',(#493),#841);
#492=REPRESENTATION('density',(#488),#841);
#493=DESCRIPTIVE_REPRESENTATION_ITEM('Steel','Steel');
#494=PROPERTY_DEFINITION('material property','material name',#851);
#495=PROPERTY_DEFINITION('material property','density of part',#851);
#496=AXIS2_PLACEMENT_3D('',#680,#542,#543);
#497=AXIS2_PLACEMENT_3D('',#681,#544,#545);
#498=AXIS2_PLACEMENT_3D('',#684,#546,#547);
#499=AXIS2_PLACEMENT_3D('',#688,#549,#550);
#500=AXIS2_PLACEMENT_3D('',#690,#552,#553);
#501=AXIS2_PLACEMENT_3D('',#693,#554,#555);
#502=AXIS2_PLACEMENT_3D('',#696,#558,#559);
#503=AXIS2_PLACEMENT_3D('',#698,#560,#561);
#504=AXIS2_PLACEMENT_3D('',#700,#562,#563);
#505=AXIS2_PLACEMENT_3D('',#701,#564,#565);
#506=AXIS2_PLACEMENT_3D('',#702,#566,#567);
#507=AXIS2_PLACEMENT_3D('',#705,#568,#569);
#508=AXIS2_PLACEMENT_3D('',#708,#572,#573);
#509=AXIS2_PLACEMENT_3D('',#711,#574,#575);
#510=AXIS2_PLACEMENT_3D('',#714,#578,#579);
#511=AXIS2_PLACEMENT_3D('',#716,#580,#581);
#512=AXIS2_PLACEMENT_3D('',#724,#586,#587);
#513=AXIS2_PLACEMENT_3D('',#726,#588,#589);
#514=AXIS2_PLACEMENT_3D('',#728,#590,#591);
#515=AXIS2_PLACEMENT_3D('',#730,#593,#594);
#516=AXIS2_PLACEMENT_3D('',#732,#595,#596);
#517=AXIS2_PLACEMENT_3D('',#744,#598,#599);
#518=AXIS2_PLACEMENT_3D('',#762,#600,#601);
#519=AXIS2_PLACEMENT_3D('',#764,#602,#603);
#520=AXIS2_PLACEMENT_3D('',#766,#605,#606);
#521=AXIS2_PLACEMENT_3D('',#768,#607,#608);
#522=AXIS2_PLACEMENT_3D('',#771,#610,#611);
#523=AXIS2_PLACEMENT_3D('',#772,#612,#613);
#524=AXIS2_PLACEMENT_3D('',#775,#614,#615);
#525=AXIS2_PLACEMENT_3D('',#779,#617,#618);
#526=AXIS2_PLACEMENT_3D('',#781,#620,#621);
#527=AXIS2_PLACEMENT_3D('',#787,#625,#626);
#528=AXIS2_PLACEMENT_3D('',#793,#630,#631);
#529=AXIS2_PLACEMENT_3D('',#799,#635,#636);
#530=AXIS2_PLACEMENT_3D('',#802,#639,#640);
#531=AXIS2_PLACEMENT_3D('',#806,#643,#644);
#532=AXIS2_PLACEMENT_3D('',#808,#645,#646);
#533=AXIS2_PLACEMENT_3D('',#810,#648,#649);
#534=AXIS2_PLACEMENT_3D('',#814,#652,#653);
#535=AXIS2_PLACEMENT_3D('',#816,#655,#656);
#536=AXIS2_PLACEMENT_3D('',#818,#658,#659);
#537=AXIS2_PLACEMENT_3D('',#822,#662,#663);
#538=AXIS2_PLACEMENT_3D('',#828,#667,#668);
#539=AXIS2_PLACEMENT_3D('',#832,#671,#672);
#540=AXIS2_PLACEMENT_3D('',#836,#675,#676);
#541=AXIS2_PLACEMENT_3D('',#838,#678,#679);
#542=DIRECTION('axis',(0.,0.,1.));
#543=DIRECTION('refdir',(1.,0.,0.));
#544=DIRECTION('center_axis',(-6.83214169000096E-16,1.,0.));
#545=DIRECTION('ref_axis',(0.847710151453774,1.30967291440499E-15,-0.530459705465194));
#546=DIRECTION('center_axis',(0.,1.,0.));
#547=DIRECTION('ref_axis',(0.847710151453774,1.30967291440499E-15,-0.530459705465194));
#548=DIRECTION('',(-6.83214169000096E-16,1.,0.));
#549=DIRECTION('center_axis',(1.11022302462516E-15,-1.,1.7742107810566E-15));
#550=DIRECTION('ref_axis',(0.437225001755558,-1.11022302462515E-15,-0.899352154520048));
#551=DIRECTION('',(6.83214169000096E-16,-1.,0.));
#552=DIRECTION('center_axis',(-6.83214169000096E-16,1.,0.));
#553=DIRECTION('ref_axis',(0.847710151453774,1.30967291440499E-15,-0.530459705465194));
#554=DIRECTION('center_axis',(0.,-1.,0.));
#555=DIRECTION('ref_axis',(0.437225001755556,0.,-0.899352154520049));
#556=DIRECTION('',(6.83214169000096E-16,-1.,0.));
#557=DIRECTION('',(-6.83214169000096E-16,1.,0.));
#558=DIRECTION('center_axis',(0.,0.,1.));
#559=DIRECTION('ref_axis',(1.,0.,0.));
#560=DIRECTION('center_axis',(0.,0.,1.));
#561=DIRECTION('ref_axis',(0.707106781186548,0.707106781186547,0.));
#562=DIRECTION('center_axis',(1.,4.16333634234433E-16,5.88174683849735E-16));
#563=DIRECTION('ref_axis',(3.46944695195362E-16,0.437225001755555,-0.89935215452005));
#564=DIRECTION('center_axis',(0.,0.,-1.));
#565=DIRECTION('ref_axis',(0.707106781186548,0.707106781186547,0.));
#566=DIRECTION('center_axis',(-1.,0.,0.));
#567=DIRECTION('ref_axis',(0.,0.847710151453773,-0.530459705465195));
#568=DIRECTION('center_axis',(1.,0.,0.));
#569=DIRECTION('ref_axis',(0.,0.437225001755554,-0.89935215452005));
#570=DIRECTION('',(1.,0.,0.));
#571=DIRECTION('',(-1.,0.,0.));
#572=DIRECTION('center_axis',(-1.,0.,0.));
#573=DIRECTION('ref_axis',(0.,0.847710151453773,-0.530459705465195));
#574=DIRECTION('center_axis',(1.,0.,0.));
#575=DIRECTION('ref_axis',(0.,0.847710151453773,-0.530459705465195));
#576=DIRECTION('',(1.,0.,0.));
#577=DIRECTION('',(-1.,0.,0.));
#578=DIRECTION('center_axis',(-1.,0.,0.));
#579=DIRECTION('ref_axis',(0.,-1.,0.));
#580=DIRECTION('center_axis',(1.,0.,0.));
#581=DIRECTION('ref_axis',(0.,0.484122918275927,-0.875));
#582=DIRECTION('',(0.,1.,0.));
#583=DIRECTION('',(0.,0.,1.));
#584=DIRECTION('',(0.,-1.,0.));
#585=DIRECTION('',(0.,0.,1.));
#586=DIRECTION('center_axis',(-1.,0.,0.));
#587=DIRECTION('ref_axis',(0.,0.484122918275927,-0.875));
#588=DIRECTION('center_axis',(1.,0.,0.));
#589=DIRECTION('ref_axis',(0.,0.,-1.));
#590=DIRECTION('center_axis',(-1.,0.,0.));
#591=DIRECTION('ref_axis',(0.,0.484122918275927,-0.875));
#592=DIRECTION('',(-1.,0.,0.));
#593=DIRECTION('center_axis',(-1.,0.,0.));
#594=DIRECTION('ref_axis',(0.,0.484122918275927,-0.875));
#595=DIRECTION('center_axis',(1.,5.37484410618657E-16,9.94545946743192E-32));
#596=DIRECTION('ref_axis',(0.,1.85037170770859E-16,-1.));
#597=DIRECTION('',(-1.,0.,0.));
#598=DIRECTION('center_axis',(7.64422272879868E-16,-1.,0.));
#599=DIRECTION('ref_axis',(0.,0.,-1.));
#600=DIRECTION('center_axis',(-6.83214169000096E-16,1.,0.));
#601=DIRECTION('ref_axis',(0.484122918275927,3.70074341541719E-16,-0.875));
#602=DIRECTION('center_axis',(7.64422272879868E-16,-1.,7.07232673239603E-32));
#603=DIRECTION('ref_axis',(9.25185853854297E-17,0.,-1.));
#604=DIRECTION('',(-6.83214169000096E-16,1.,0.));
#605=DIRECTION('center_axis',(-6.83214169000096E-16,1.,0.));
#606=DIRECTION('ref_axis',(0.484122918275927,3.70074341541719E-16,-0.875));
#607=DIRECTION('center_axis',(0.,1.,0.));
#608=DIRECTION('ref_axis',(0.484122918275927,3.70074341541719E-16,-0.875));
#609=DIRECTION('',(-6.83214169000096E-16,1.,0.));
#610=DIRECTION('center_axis',(0.,-1.,0.));
#611=DIRECTION('ref_axis',(0.484122918275927,3.70074341541719E-16,-0.875));
#612=DIRECTION('center_axis',(0.,0.,1.));
#613=DIRECTION('ref_axis',(1.,-3.02788097625043E-16,0.));
#614=DIRECTION('center_axis',(0.,0.,1.));
#615=DIRECTION('ref_axis',(1.,-3.02788097625043E-16,0.));
#616=DIRECTION('',(0.,0.,1.));
#617=DIRECTION('center_axis',(0.,0.,-1.));
#618=DIRECTION('ref_axis',(1.,-3.02788097625043E-16,0.));
#619=DIRECTION('',(0.,0.,1.));
#620=DIRECTION('center_axis',(0.,-1.,0.));
#621=DIRECTION('ref_axis',(1.,0.,0.));
#622=DIRECTION('',(-1.,0.,0.));
#623=DIRECTION('',(1.,0.,0.));
#624=DIRECTION('',(0.,0.,1.));
#625=DIRECTION('center_axis',(1.,0.,0.));
#626=DIRECTION('ref_axis',(0.,1.,0.));
#627=DIRECTION('',(0.,-1.,0.));
#628=DIRECTION('',(0.,1.,0.));
#629=DIRECTION('',(0.,0.,1.));
#630=DIRECTION('center_axis',(0.,1.,0.));
#631=DIRECTION('ref_axis',(-1.,0.,0.));
#632=DIRECTION('',(1.,0.,0.));
#633=DIRECTION('',(-1.,0.,0.));
#634=DIRECTION('',(0.,0.,1.));
#635=DIRECTION('center_axis',(-1.,0.,0.));
#636=DIRECTION('ref_axis',(0.,-1.,0.));
#637=DIRECTION('',(0.,1.,0.));
#638=DIRECTION('',(0.,-1.,0.));
#639=DIRECTION('center_axis',(0.,1.,0.));
#640=DIRECTION('ref_axis',(-1.,0.,0.));
#641=DIRECTION('',(-1.,0.,0.));
#642=DIRECTION('',(0.,0.,1.));
#643=DIRECTION('center_axis',(0.,0.,1.));
#644=DIRECTION('ref_axis',(1.,-7.40148683083438E-16,0.));
#645=DIRECTION('center_axis',(0.,0.,1.));
#646=DIRECTION('ref_axis',(1.,-7.40148683083438E-16,0.));
#647=DIRECTION('',(0.,0.,1.));
#648=DIRECTION('center_axis',(1.,6.83214169000096E-16,0.));
#649=DIRECTION('ref_axis',(-6.83214169000096E-16,1.,0.));
#650=DIRECTION('',(-6.83214169000096E-16,1.,0.));
#651=DIRECTION('',(0.,0.,1.));
#652=DIRECTION('center_axis',(0.,0.,1.));
#653=DIRECTION('ref_axis',(-1.,0.,0.));
#654=DIRECTION('',(1.,0.,0.));
#655=DIRECTION('center_axis',(0.,-1.,0.));
#656=DIRECTION('ref_axis',(1.,0.,0.));
#657=DIRECTION('',(-1.,0.,0.));
#658=DIRECTION('center_axis',(0.,0.,1.));
#659=DIRECTION('ref_axis',(1.,0.,0.));
#660=DIRECTION('',(0.,1.,0.));
#661=DIRECTION('',(-1.,0.,0.));
#662=DIRECTION('center_axis',(-1.,0.,0.));
#663=DIRECTION('ref_axis',(0.,-1.,0.));
#664=DIRECTION('',(0.,0.,1.));
#665=DIRECTION('',(0.,-1.,0.));
#666=DIRECTION('',(0.,0.,1.));
#667=DIRECTION('center_axis',(0.,-1.,0.));
#668=DIRECTION('ref_axis',(1.,0.,0.));
#669=DIRECTION('',(1.,0.,0.));
#670=DIRECTION('',(0.,0.,1.));
#671=DIRECTION('center_axis',(1.,0.,0.));
#672=DIRECTION('ref_axis',(0.,1.,0.));
#673=DIRECTION('',(0.,1.,0.));
#674=DIRECTION('',(0.,0.,1.));
#675=DIRECTION('center_axis',(0.,1.,0.));
#676=DIRECTION('ref_axis',(-1.,0.,0.));
#677=DIRECTION('',(-1.,0.,0.));
#678=DIRECTION('center_axis',(0.,0.,1.));
#679=DIRECTION('ref_axis',(1.,0.,0.));
#680=CARTESIAN_POINT('',(0.,0.,0.));
#681=CARTESIAN_POINT('Origin',(23.,11.,4.21425260055893));
#682=CARTESIAN_POINT('',(25.,-15.,4.21425260055893));
#683=CARTESIAN_POINT('',(23.8744500035111,-15.,2.41554829151883));
#684=CARTESIAN_POINT('Origin',(23.,-15.,4.21425260055893));
#685=CARTESIAN_POINT('',(23.8744500035111,-9.99999999999999,2.41554829151883));
#686=CARTESIAN_POINT('',(23.8744500035111,11.,2.41554829151883));
#687=CARTESIAN_POINT('',(25.,-9.99999999999999,4.21425260055893));
#688=CARTESIAN_POINT('Origin',(23.,-9.99999999999999,4.21425260055893));
#689=CARTESIAN_POINT('',(25.,11.,4.21425260055893));
#690=CARTESIAN_POINT('Origin',(23.,11.,4.21425260055893));
#691=CARTESIAN_POINT('',(23.8744500035111,11.,2.41554829151883));
#692=CARTESIAN_POINT('',(25.,11.,4.21425260055893));
#693=CARTESIAN_POINT('Origin',(23.,11.,4.21425260055893));
#694=CARTESIAN_POINT('',(25.,11.,4.21425260055893));
#695=CARTESIAN_POINT('',(23.8744500035111,11.,2.41554829151883));
#696=CARTESIAN_POINT('Origin',(1.00000000000001,11.,4.21425260055893));
#697=CARTESIAN_POINT('',(1.,33.8744500035111,2.41554829151883));
#698=CARTESIAN_POINT('Origin',(1.00000000000001,11.,2.41554829151883));
#699=CARTESIAN_POINT('',(1.,35.,4.21425260055893));
#700=CARTESIAN_POINT('Origin',(1.,33.,4.21425260055893));
#701=CARTESIAN_POINT('Origin',(1.00000000000001,11.,4.21425260055893));
#702=CARTESIAN_POINT('Origin',(-25.,33.,4.21425260055893));
#703=CARTESIAN_POINT('',(-20.,33.8744500035111,2.41554829151883));
#704=CARTESIAN_POINT('',(-20.,35.,4.21425260055893));
#705=CARTESIAN_POINT('Origin',(-20.,33.,4.21425260055893));
#706=CARTESIAN_POINT('',(-25.,35.,4.21425260055893));
#707=CARTESIAN_POINT('',(-25.,33.8744500035111,2.41554829151883));
#708=CARTESIAN_POINT('Origin',(-25.,33.,4.21425260055893));
#709=CARTESIAN_POINT('',(-25.,33.8744500035111,2.41554829151883));
#710=CARTESIAN_POINT('',(-25.,35.,4.21425260055893));
#711=CARTESIAN_POINT('Origin',(-25.,33.,4.21425260055893));
#712=CARTESIAN_POINT('',(-25.,35.,4.21425260055893));
#713=CARTESIAN_POINT('',(-25.,33.8744500035111,2.41554829151883));
#714=CARTESIAN_POINT('Origin',(-25.,35.,0.));
#715=CARTESIAN_POINT('',(-25.,23.3810499613778,0.));
#716=CARTESIAN_POINT('Origin',(-25.,23.3810499613778,24.));
#717=CARTESIAN_POINT('',(-25.,-15.,0.));
#718=CARTESIAN_POINT('',(-25.,-15.,0.));
#719=CARTESIAN_POINT('',(-25.,-15.,6.));
#720=CARTESIAN_POINT('',(-25.,-15.,0.));
#721=CARTESIAN_POINT('',(-25.,35.,6.));
#722=CARTESIAN_POINT('',(-25.,35.,6.));
#723=CARTESIAN_POINT('',(-25.,35.,3.));
#724=CARTESIAN_POINT('Origin',(-25.,23.3810499613778,24.));
#725=CARTESIAN_POINT('',(-20.,25.,0.0546664092469795));
#726=CARTESIAN_POINT('Origin',(-20.,23.3810499613778,24.));
#727=CARTESIAN_POINT('',(-20.,23.3810499613778,0.));
#728=CARTESIAN_POINT('Origin',(-20.,23.3810499613778,24.));
#729=CARTESIAN_POINT('',(-25.,23.3810499613778,0.));
#730=CARTESIAN_POINT('Origin',(-25.,23.3810499613778,24.));
#731=CARTESIAN_POINT('',(1.00000000000001,25.,0.0546664092469795));
#732=CARTESIAN_POINT('Origin',(1.00000000000001,23.3810499613777,24.));
#733=CARTESIAN_POINT('',(-25.,25.,0.0546664092469795));
#734=CARTESIAN_POINT('Ctrl Pts',(23.8744500035111,11.,2.41554829151883));
#735=CARTESIAN_POINT('Ctrl Pts',(23.8744500035112,33.8744500035111,2.41554829151883));
#736=CARTESIAN_POINT('Ctrl Pts',(1.00000000000006,33.8744500035111,2.41554829151883));
#737=CARTESIAN_POINT('Ctrl Pts',(19.6673109563754,11.,0.370224479233692));
#738=CARTESIAN_POINT('Ctrl Pts',(19.6673109563754,29.6673109563753,0.370224479233692));
#739=CARTESIAN_POINT('Ctrl Pts',(1.00000000000005,29.6673109563754,0.37022447923369));
#740=CARTESIAN_POINT('Ctrl Pts',(15.,11.,0.0546664092469751));
#741=CARTESIAN_POINT('Ctrl Pts',(15.,25.,0.0546664092469751));
#742=CARTESIAN_POINT('Ctrl Pts',(1.00000000000005,25.,0.0546664092469751));
#743=CARTESIAN_POINT('',(15.,11.,0.0546664092469795));
#744=CARTESIAN_POINT('Origin',(13.3810499613777,11.,24.));
#745=CARTESIAN_POINT('',(15.,25.,1.17514145795754));
#746=CARTESIAN_POINT('Ctrl Pts',(15.,11.,0.0546664092469784));
#747=CARTESIAN_POINT('Ctrl Pts',(15.,12.6112765685544,0.0546664092469784));
#748=CARTESIAN_POINT('Ctrl Pts',(15.,14.3044275011049,0.0690973649759222));
#749=CARTESIAN_POINT('Ctrl Pts',(15.,17.7522211148267,0.190893229025262));
#750=CARTESIAN_POINT('Ctrl Pts',(15.,19.5067060314217,0.302683876174943));
#751=CARTESIAN_POINT('Ctrl Pts',(15.,22.511047077286,0.67765013777792));
#752=CARTESIAN_POINT('Ctrl Pts',(15.,23.7713521077653,0.892791544787922));
#753=CARTESIAN_POINT('Ctrl Pts',(15.,25.,1.17514145795754));
#754=CARTESIAN_POINT('Ctrl Pts',(15.,25.,1.17514145795754));
#755=CARTESIAN_POINT('Ctrl Pts',(13.7713521077653,25.,0.892791544787922));
#756=CARTESIAN_POINT('Ctrl Pts',(12.511047077286,25.,0.67765013777792));
#757=CARTESIAN_POINT('Ctrl Pts',(9.50670603142165,25.,0.302683876174943));
#758=CARTESIAN_POINT('Ctrl Pts',(7.75222111482666,25.,0.190893229025262));
#759=CARTESIAN_POINT('Ctrl Pts',(4.30442750110494,25.,0.0690973649759223));
#760=CARTESIAN_POINT('Ctrl Pts',(2.61127656855438,25.,0.0546664092469785));
#761=CARTESIAN_POINT('Ctrl Pts',(1.00000000000001,25.,0.0546664092469784));
#762=CARTESIAN_POINT('Origin',(13.3810499613777,11.,24.));
#763=CARTESIAN_POINT('',(15.,-10.,0.0546664092469795));
#764=CARTESIAN_POINT('Origin',(13.3810499613778,-10.,24.));
#765=CARTESIAN_POINT('',(15.,11.,0.0546664092469795));
#766=CARTESIAN_POINT('Origin',(13.3810499613777,11.,24.));
#767=CARTESIAN_POINT('',(13.3810499613778,-15.,0.));
#768=CARTESIAN_POINT('Origin',(13.3810499613778,-15.,24.));
#769=CARTESIAN_POINT('',(13.3810499613778,-10.,0.));
#770=CARTESIAN_POINT('',(13.3810499613777,11.,0.));
#771=CARTESIAN_POINT('Origin',(13.3810499613778,-10.,24.));
#772=CARTESIAN_POINT('Origin',(1.00000034272672,11.0000004917383,3.));
#773=CARTESIAN_POINT('',(23.0000003427267,11.0000004917383,3.));
#774=CARTESIAN_POINT('',(1.00000034272671,33.0000004917383,3.));
#775=CARTESIAN_POINT('Origin',(1.00000034272672,11.0000004917383,3.));
#776=CARTESIAN_POINT('',(23.0000003427267,11.0000004917383,6.));
#777=CARTESIAN_POINT('',(23.0000003427267,11.0000004917383,3.));
#778=CARTESIAN_POINT('',(1.00000034272671,33.0000004917383,6.));
#779=CARTESIAN_POINT('Origin',(1.00000034272672,11.0000004917383,6.));
#780=CARTESIAN_POINT('',(1.00000034272671,33.0000004917383,3.));
#781=CARTESIAN_POINT('Origin',(-23.0000003427267,33.0000004917383,3.));
#782=CARTESIAN_POINT('',(-23.0000003427267,33.0000004917383,3.));
#783=CARTESIAN_POINT('',(-11.5000001713634,33.0000004917383,3.));
#784=CARTESIAN_POINT('',(-23.0000003427267,33.0000004917383,6.));
#785=CARTESIAN_POINT('',(-23.0000003427267,33.0000004917383,6.));
#786=CARTESIAN_POINT('',(-23.0000003427267,33.0000004917383,3.));
#787=CARTESIAN_POINT('Origin',(-23.0000003427267,-13.0000001937151,3.));
#788=CARTESIAN_POINT('',(-23.0000003427267,-13.0000001937151,3.));
#789=CARTESIAN_POINT('',(-23.0000003427267,-1.50000009685755,3.));
#790=CARTESIAN_POINT('',(-23.0000003427267,-13.0000001937151,6.));
#791=CARTESIAN_POINT('',(-23.0000003427267,-13.0000001937151,6.));
#792=CARTESIAN_POINT('',(-23.0000003427267,-13.0000001937151,3.));
#793=CARTESIAN_POINT('Origin',(23.0000003427267,-13.0000001937151,3.));
#794=CARTESIAN_POINT('',(23.0000003427267,-13.0000001937151,3.));
#795=CARTESIAN_POINT('',(11.5000001713634,-13.0000001937151,3.));
#796=CARTESIAN_POINT('',(23.0000003427267,-13.0000001937151,6.));
#797=CARTESIAN_POINT('',(23.0000003427267,-13.0000001937151,6.));
#798=CARTESIAN_POINT('',(23.0000003427267,-13.0000001937151,3.));
#799=CARTESIAN_POINT('Origin',(23.0000003427267,11.0000004917383,3.));
#800=CARTESIAN_POINT('',(23.0000003427267,10.5000002458692,3.));
#801=CARTESIAN_POINT('',(23.0000003427267,11.0000004917383,6.));
#802=CARTESIAN_POINT('Origin',(1.,35.,3.));
#803=CARTESIAN_POINT('',(1.,35.,6.));
#804=CARTESIAN_POINT('',(1.,35.,6.));
#805=CARTESIAN_POINT('',(1.,35.,3.));
#806=CARTESIAN_POINT('Origin',(1.00000000000001,11.,3.));
#807=CARTESIAN_POINT('',(25.,11.,6.));
#808=CARTESIAN_POINT('Origin',(1.00000000000001,11.,6.));
#809=CARTESIAN_POINT('',(25.,11.,3.));
#810=CARTESIAN_POINT('Origin',(25.,-15.,3.));
#811=CARTESIAN_POINT('',(25.,-15.,6.));
#812=CARTESIAN_POINT('',(25.,-15.,6.));
#813=CARTESIAN_POINT('',(25.,-15.,3.));
#814=CARTESIAN_POINT('Origin',(4.44089209850063E-15,10.,6.));
#815=CARTESIAN_POINT('',(-25.,-15.,6.));
#816=CARTESIAN_POINT('Origin',(-25.,-15.,0.));
#817=CARTESIAN_POINT('',(25.,-15.,0.));
#818=CARTESIAN_POINT('Origin',(4.44089209850063E-15,10.,0.));
#819=CARTESIAN_POINT('',(-20.,-10.,0.));
#820=CARTESIAN_POINT('',(-20.,-10.,0.));
#821=CARTESIAN_POINT('',(15.,-10.,0.));
#822=CARTESIAN_POINT('Origin',(15.,25.,0.));
#823=CARTESIAN_POINT('',(15.,-10.,3.));
#824=CARTESIAN_POINT('',(15.,-10.,0.));
#825=CARTESIAN_POINT('',(15.,25.,3.));
#826=CARTESIAN_POINT('',(15.,25.,3.));
#827=CARTESIAN_POINT('',(15.,25.,0.));
#828=CARTESIAN_POINT('Origin',(-20.,25.,0.));
#829=CARTESIAN_POINT('',(-20.,25.,3.));
#830=CARTESIAN_POINT('',(-20.,25.,3.));
#831=CARTESIAN_POINT('',(-20.,25.,0.));
#832=CARTESIAN_POINT('Origin',(-20.,-10.,0.));
#833=CARTESIAN_POINT('',(-20.,-10.,3.));
#834=CARTESIAN_POINT('',(-20.,-10.,3.));
#835=CARTESIAN_POINT('',(-20.,-10.,0.));
#836=CARTESIAN_POINT('Origin',(15.,-10.,0.));
#837=CARTESIAN_POINT('',(15.,-10.,3.));
#838=CARTESIAN_POINT('Origin',(4.44089209850063E-15,10.,3.));
#839=UNCERTAINTY_MEASURE_WITH_UNIT(LENGTH_MEASURE(0.01),#843,
'DISTANCE_ACCURACY_VALUE',
'Maximum model space distance between geometric entities at asserted c
onnectivities');
#840=UNCERTAINTY_MEASURE_WITH_UNIT(LENGTH_MEASURE(0.01),#843,
'DISTANCE_ACCURACY_VALUE',
'Maximum model space distance between geometric entities at asserted c
onnectivities');
#841=(
GEOMETRIC_REPRESENTATION_CONTEXT(3)
GLOBAL_UNCERTAINTY_ASSIGNED_CONTEXT((#839))
GLOBAL_UNIT_ASSIGNED_CONTEXT((#843,#845,#846))
REPRESENTATION_CONTEXT('','3D')
);
#842=(
GEOMETRIC_REPRESENTATION_CONTEXT(3)
GLOBAL_UNCERTAINTY_ASSIGNED_CONTEXT((#840))
GLOBAL_UNIT_ASSIGNED_CONTEXT((#843,#845,#846))
REPRESENTATION_CONTEXT('','3D')
);
#843=(
LENGTH_UNIT()
NAMED_UNIT(*)
SI_UNIT(.MILLI.,.METRE.)
);
#844=(
LENGTH_UNIT()
NAMED_UNIT(*)
SI_UNIT($,.METRE.)
);
#845=(
NAMED_UNIT(*)
PLANE_ANGLE_UNIT()
SI_UNIT($,.RADIAN.)
);
#846=(
NAMED_UNIT(*)
SI_UNIT($,.STERADIAN.)
SOLID_ANGLE_UNIT()
);
#847=SHAPE_DEFINITION_REPRESENTATION(#848,#849);
#848=PRODUCT_DEFINITION_SHAPE('',$,#851);
#849=SHAPE_REPRESENTATION('',(#496),#841);
#850=PRODUCT_DEFINITION_CONTEXT('part definition',#855,'design');
#851=PRODUCT_DEFINITION('20250217-TestRight','20250217-TestRight v2',#852,
#850);
#852=PRODUCT_DEFINITION_FORMATION('',$,#857);
#853=PRODUCT_RELATED_PRODUCT_CATEGORY('20250217-TestRight v2',
'20250217-TestRight v2',(#857));
#854=APPLICATION_PROTOCOL_DEFINITION('international standard',
'ap242_managed_model_based_3d_engineering',2011,#855);
#855=APPLICATION_CONTEXT('Managed model based 3d engineering');
#856=PRODUCT_CONTEXT('part definition',#855,'mechanical');
#857=PRODUCT('20250217-TestRight','20250217-TestRight v2',$,(#856));
#858=PRESENTATION_STYLE_ASSIGNMENT((#859));
#859=SURFACE_STYLE_USAGE(.BOTH.,#860);
#860=SURFACE_SIDE_STYLE('',(#861));
#861=SURFACE_STYLE_FILL_AREA(#862);
#862=FILL_AREA_STYLE('Steel - Satin',(#863));
#863=FILL_AREA_STYLE_COLOUR('Steel - Satin',#864);
#864=COLOUR_RGB('Steel - Satin',0.627450980392157,0.627450980392157,0.627450980392157);
ENDSEC;
END-ISO-10303-21;
