%TF.GenerationSoftware,KiCad,Pcbnew,8.0.2*%
%TF.CreationDate,2024-06-12T16:09:05-04:00*%
%TF.ProjectId,20240611-SMARTCAGE-PCB-V2,32303234-3036-4313-912d-534d41525443,rev?*%
%TF.SameCoordinates,Original*%
%TF.FileFunction,Drillmap*%
%TF.FilePolarity,Positive*%
%FSLAX45Y45*%
G04 Gerber Fmt 4.5, Leading zero omitted, Abs format (unit mm)*
G04 Created by KiCad (PCBNEW 8.0.2) date 2024-06-12 16:09:05*
%MOMM*%
%LPD*%
G01*
G04 APERTURE LIST*
%ADD10C,0.100000*%
%ADD11C,0.200000*%
G04 APERTURE END LIST*
D10*
X7623607Y-9400000D02*
G75*
G02*
X7176393Y-9400000I-223607J0D01*
G01*
X7176393Y-9400000D02*
G75*
G02*
X7623607Y-9400000I223607J0D01*
G01*
X15023607Y-13300000D02*
G75*
G02*
X14576393Y-13300000I-223607J0D01*
G01*
X14576393Y-13300000D02*
G75*
G02*
X15023607Y-13300000I223607J0D01*
G01*
X6850000Y-6100000D02*
X15850000Y-6100000D01*
X15850000Y-14600000D01*
X6850000Y-14600000D01*
X6850000Y-6100000D01*
D11*
D10*
X7712500Y-13802500D02*
X7787500Y-13877500D01*
X7787500Y-13802500D02*
X7712500Y-13877500D01*
X7912500Y-13802500D02*
X7987500Y-13877500D01*
X7987500Y-13802500D02*
X7912500Y-13877500D01*
X8112500Y-13802500D02*
X8187500Y-13877500D01*
X8187500Y-13802500D02*
X8112500Y-13877500D01*
X8312500Y-13802500D02*
X8387500Y-13877500D01*
X8387500Y-13802500D02*
X8312500Y-13877500D01*
X10062500Y-13812500D02*
X10137500Y-13887500D01*
X10137500Y-13812500D02*
X10062500Y-13887500D01*
X10262500Y-13812500D02*
X10337500Y-13887500D01*
X10337500Y-13812500D02*
X10262500Y-13887500D01*
X10462500Y-13812500D02*
X10537500Y-13887500D01*
X10537500Y-13812500D02*
X10462500Y-13887500D01*
X10662500Y-13812500D02*
X10737500Y-13887500D01*
X10737500Y-13812500D02*
X10662500Y-13887500D01*
X12312500Y-13812500D02*
X12387500Y-13887500D01*
X12387500Y-13812500D02*
X12312500Y-13887500D01*
X12512500Y-13812500D02*
X12587500Y-13887500D01*
X12587500Y-13812500D02*
X12512500Y-13887500D01*
X12712500Y-13812500D02*
X12787500Y-13887500D01*
X12787500Y-13812500D02*
X12712500Y-13887500D01*
X12912500Y-13812500D02*
X12987500Y-13887500D01*
X12987500Y-13812500D02*
X12912500Y-13887500D01*
X14988100Y-11258840D02*
G75*
G02*
X14911900Y-11258840I-38100J0D01*
G01*
X14911900Y-11258840D02*
G75*
G02*
X14988100Y-11258840I38100J0D01*
G01*
X14988100Y-12020840D02*
G75*
G02*
X14911900Y-12020840I-38100J0D01*
G01*
X14911900Y-12020840D02*
G75*
G02*
X14988100Y-12020840I38100J0D01*
G01*
X7623020Y-8598360D02*
X7623020Y-8698360D01*
X7573020Y-8648360D02*
X7673020Y-8648360D01*
X7641200Y-12743420D02*
X7641200Y-12843420D01*
X7591200Y-12793420D02*
X7691200Y-12793420D01*
X7877020Y-8598360D02*
X7877020Y-8698360D01*
X7827020Y-8648360D02*
X7927020Y-8648360D01*
X7897740Y-10198340D02*
X7897740Y-10298340D01*
X7847740Y-10248340D02*
X7947740Y-10248340D01*
X7897740Y-12743420D02*
X7897740Y-12843420D01*
X7847740Y-12793420D02*
X7947740Y-12793420D01*
X8131020Y-8598360D02*
X8131020Y-8698360D01*
X8081020Y-8648360D02*
X8181020Y-8648360D01*
X8149200Y-12743420D02*
X8149200Y-12843420D01*
X8099200Y-12793420D02*
X8199200Y-12793420D01*
X8151740Y-10198340D02*
X8151740Y-10298340D01*
X8101740Y-10248340D02*
X8201740Y-10248340D01*
X8385020Y-8598360D02*
X8385020Y-8698360D01*
X8335020Y-8648360D02*
X8435020Y-8648360D01*
X8403200Y-12743420D02*
X8403200Y-12843420D01*
X8353200Y-12793420D02*
X8453200Y-12793420D01*
X8405740Y-10198340D02*
X8405740Y-10298340D01*
X8355740Y-10248340D02*
X8455740Y-10248340D01*
X8639020Y-8598360D02*
X8639020Y-8698360D01*
X8589020Y-8648360D02*
X8689020Y-8648360D01*
X8657200Y-12743420D02*
X8657200Y-12843420D01*
X8607200Y-12793420D02*
X8707200Y-12793420D01*
X8659740Y-10198340D02*
X8659740Y-10298340D01*
X8609740Y-10248340D02*
X8709740Y-10248340D01*
X8893020Y-8598360D02*
X8893020Y-8698360D01*
X8843020Y-8648360D02*
X8943020Y-8648360D01*
X8913740Y-12743420D02*
X8913740Y-12843420D01*
X8863740Y-12793420D02*
X8963740Y-12793420D01*
X9991200Y-12743420D02*
X9991200Y-12843420D01*
X9941200Y-12793420D02*
X10041200Y-12793420D01*
X10247740Y-10198340D02*
X10247740Y-10298340D01*
X10197740Y-10248340D02*
X10297740Y-10248340D01*
X10247740Y-12743420D02*
X10247740Y-12843420D01*
X10197740Y-12793420D02*
X10297740Y-12793420D01*
X10382000Y-6650000D02*
X10382000Y-6750000D01*
X10332000Y-6700000D02*
X10432000Y-6700000D01*
X10382000Y-9190000D02*
X10382000Y-9290000D01*
X10332000Y-9240000D02*
X10432000Y-9240000D01*
X10499200Y-12743420D02*
X10499200Y-12843420D01*
X10449200Y-12793420D02*
X10549200Y-12793420D01*
X10501740Y-10198340D02*
X10501740Y-10298340D01*
X10451740Y-10248340D02*
X10551740Y-10248340D01*
X10636000Y-6650000D02*
X10636000Y-6750000D01*
X10586000Y-6700000D02*
X10686000Y-6700000D01*
X10636000Y-9190000D02*
X10636000Y-9290000D01*
X10586000Y-9240000D02*
X10686000Y-9240000D01*
X10753200Y-12743420D02*
X10753200Y-12843420D01*
X10703200Y-12793420D02*
X10803200Y-12793420D01*
X10755740Y-10198340D02*
X10755740Y-10298340D01*
X10705740Y-10248340D02*
X10805740Y-10248340D01*
X10890000Y-6650000D02*
X10890000Y-6750000D01*
X10840000Y-6700000D02*
X10940000Y-6700000D01*
X10890000Y-9190000D02*
X10890000Y-9290000D01*
X10840000Y-9240000D02*
X10940000Y-9240000D01*
X11007200Y-12743420D02*
X11007200Y-12843420D01*
X10957200Y-12793420D02*
X11057200Y-12793420D01*
X11009740Y-10198340D02*
X11009740Y-10298340D01*
X10959740Y-10248340D02*
X11059740Y-10248340D01*
X11144000Y-6650000D02*
X11144000Y-6750000D01*
X11094000Y-6700000D02*
X11194000Y-6700000D01*
X11144000Y-9190000D02*
X11144000Y-9290000D01*
X11094000Y-9240000D02*
X11194000Y-9240000D01*
X11263740Y-12743420D02*
X11263740Y-12843420D01*
X11213740Y-12793420D02*
X11313740Y-12793420D01*
X11398000Y-6650000D02*
X11398000Y-6750000D01*
X11348000Y-6700000D02*
X11448000Y-6700000D01*
X11398000Y-9190000D02*
X11398000Y-9290000D01*
X11348000Y-9240000D02*
X11448000Y-9240000D01*
X11652000Y-6650000D02*
X11652000Y-6750000D01*
X11602000Y-6700000D02*
X11702000Y-6700000D01*
X11652000Y-9190000D02*
X11652000Y-9290000D01*
X11602000Y-9240000D02*
X11702000Y-9240000D01*
X11906000Y-6650000D02*
X11906000Y-6750000D01*
X11856000Y-6700000D02*
X11956000Y-6700000D01*
X11906000Y-9190000D02*
X11906000Y-9290000D01*
X11856000Y-9240000D02*
X11956000Y-9240000D01*
X12160000Y-6650000D02*
X12160000Y-6750000D01*
X12110000Y-6700000D02*
X12210000Y-6700000D01*
X12160000Y-9190000D02*
X12160000Y-9290000D01*
X12110000Y-9240000D02*
X12210000Y-9240000D01*
X12241200Y-12743420D02*
X12241200Y-12843420D01*
X12191200Y-12793420D02*
X12291200Y-12793420D01*
X12414000Y-6650000D02*
X12414000Y-6750000D01*
X12364000Y-6700000D02*
X12464000Y-6700000D01*
X12414000Y-9190000D02*
X12414000Y-9290000D01*
X12364000Y-9240000D02*
X12464000Y-9240000D01*
X12497740Y-10198340D02*
X12497740Y-10298340D01*
X12447740Y-10248340D02*
X12547740Y-10248340D01*
X12497740Y-12743420D02*
X12497740Y-12843420D01*
X12447740Y-12793420D02*
X12547740Y-12793420D01*
X12668000Y-6650000D02*
X12668000Y-6750000D01*
X12618000Y-6700000D02*
X12718000Y-6700000D01*
X12668000Y-9190000D02*
X12668000Y-9290000D01*
X12618000Y-9240000D02*
X12718000Y-9240000D01*
X12749200Y-12743420D02*
X12749200Y-12843420D01*
X12699200Y-12793420D02*
X12799200Y-12793420D01*
X12751740Y-10198340D02*
X12751740Y-10298340D01*
X12701740Y-10248340D02*
X12801740Y-10248340D01*
X12922000Y-6650000D02*
X12922000Y-6750000D01*
X12872000Y-6700000D02*
X12972000Y-6700000D01*
X12922000Y-9190000D02*
X12922000Y-9290000D01*
X12872000Y-9240000D02*
X12972000Y-9240000D01*
X13003200Y-12743420D02*
X13003200Y-12843420D01*
X12953200Y-12793420D02*
X13053200Y-12793420D01*
X13005740Y-10198340D02*
X13005740Y-10298340D01*
X12955740Y-10248340D02*
X13055740Y-10248340D01*
X13176000Y-6650000D02*
X13176000Y-6750000D01*
X13126000Y-6700000D02*
X13226000Y-6700000D01*
X13176000Y-9190000D02*
X13176000Y-9290000D01*
X13126000Y-9240000D02*
X13226000Y-9240000D01*
X13257200Y-12743420D02*
X13257200Y-12843420D01*
X13207200Y-12793420D02*
X13307200Y-12793420D01*
X13259740Y-10198340D02*
X13259740Y-10298340D01*
X13209740Y-10248340D02*
X13309740Y-10248340D01*
X13430000Y-6650000D02*
X13430000Y-6750000D01*
X13380000Y-6700000D02*
X13480000Y-6700000D01*
X13430000Y-9190000D02*
X13430000Y-9290000D01*
X13380000Y-9240000D02*
X13480000Y-9240000D01*
X13513740Y-12743420D02*
X13513740Y-12843420D01*
X13463740Y-12793420D02*
X13563740Y-12793420D01*
X13684000Y-6650000D02*
X13684000Y-6750000D01*
X13634000Y-6700000D02*
X13734000Y-6700000D01*
X13684000Y-9190000D02*
X13684000Y-9290000D01*
X13634000Y-9240000D02*
X13734000Y-9240000D01*
X13938000Y-6650000D02*
X13938000Y-6750000D01*
X13888000Y-6700000D02*
X13988000Y-6700000D01*
X13938000Y-9190000D02*
X13938000Y-9290000D01*
X13888000Y-9240000D02*
X13988000Y-9240000D01*
X14192000Y-6650000D02*
X14192000Y-6750000D01*
X14142000Y-6700000D02*
X14242000Y-6700000D01*
X14192000Y-9190000D02*
X14192000Y-9290000D01*
X14142000Y-9240000D02*
X14242000Y-9240000D01*
X14446000Y-6650000D02*
X14446000Y-6750000D01*
X14396000Y-6700000D02*
X14496000Y-6700000D01*
X14446000Y-9190000D02*
X14446000Y-9290000D01*
X14396000Y-9240000D02*
X14496000Y-9240000D01*
X14700000Y-6650000D02*
X14700000Y-6750000D01*
X14650000Y-6700000D02*
X14750000Y-6700000D01*
X14700000Y-9190000D02*
X14700000Y-9290000D01*
X14650000Y-9240000D02*
X14750000Y-9240000D01*
D11*
X7105777Y-14916484D02*
X7105777Y-14716484D01*
X7105777Y-14716484D02*
X7153396Y-14716484D01*
X7153396Y-14716484D02*
X7181967Y-14726008D01*
X7181967Y-14726008D02*
X7201015Y-14745055D01*
X7201015Y-14745055D02*
X7210539Y-14764103D01*
X7210539Y-14764103D02*
X7220062Y-14802198D01*
X7220062Y-14802198D02*
X7220062Y-14830769D01*
X7220062Y-14830769D02*
X7210539Y-14868865D01*
X7210539Y-14868865D02*
X7201015Y-14887912D01*
X7201015Y-14887912D02*
X7181967Y-14906960D01*
X7181967Y-14906960D02*
X7153396Y-14916484D01*
X7153396Y-14916484D02*
X7105777Y-14916484D01*
X7305777Y-14916484D02*
X7305777Y-14783150D01*
X7305777Y-14821246D02*
X7315301Y-14802198D01*
X7315301Y-14802198D02*
X7324824Y-14792674D01*
X7324824Y-14792674D02*
X7343872Y-14783150D01*
X7343872Y-14783150D02*
X7362920Y-14783150D01*
X7429586Y-14916484D02*
X7429586Y-14783150D01*
X7429586Y-14716484D02*
X7420062Y-14726008D01*
X7420062Y-14726008D02*
X7429586Y-14735531D01*
X7429586Y-14735531D02*
X7439110Y-14726008D01*
X7439110Y-14726008D02*
X7429586Y-14716484D01*
X7429586Y-14716484D02*
X7429586Y-14735531D01*
X7553396Y-14916484D02*
X7534348Y-14906960D01*
X7534348Y-14906960D02*
X7524824Y-14887912D01*
X7524824Y-14887912D02*
X7524824Y-14716484D01*
X7658158Y-14916484D02*
X7639110Y-14906960D01*
X7639110Y-14906960D02*
X7629586Y-14887912D01*
X7629586Y-14887912D02*
X7629586Y-14716484D01*
X7886729Y-14916484D02*
X7886729Y-14716484D01*
X7886729Y-14716484D02*
X7953396Y-14859341D01*
X7953396Y-14859341D02*
X8020062Y-14716484D01*
X8020062Y-14716484D02*
X8020062Y-14916484D01*
X8201015Y-14916484D02*
X8201015Y-14811722D01*
X8201015Y-14811722D02*
X8191491Y-14792674D01*
X8191491Y-14792674D02*
X8172443Y-14783150D01*
X8172443Y-14783150D02*
X8134348Y-14783150D01*
X8134348Y-14783150D02*
X8115301Y-14792674D01*
X8201015Y-14906960D02*
X8181967Y-14916484D01*
X8181967Y-14916484D02*
X8134348Y-14916484D01*
X8134348Y-14916484D02*
X8115301Y-14906960D01*
X8115301Y-14906960D02*
X8105777Y-14887912D01*
X8105777Y-14887912D02*
X8105777Y-14868865D01*
X8105777Y-14868865D02*
X8115301Y-14849817D01*
X8115301Y-14849817D02*
X8134348Y-14840293D01*
X8134348Y-14840293D02*
X8181967Y-14840293D01*
X8181967Y-14840293D02*
X8201015Y-14830769D01*
X8296253Y-14783150D02*
X8296253Y-14983150D01*
X8296253Y-14792674D02*
X8315301Y-14783150D01*
X8315301Y-14783150D02*
X8353396Y-14783150D01*
X8353396Y-14783150D02*
X8372443Y-14792674D01*
X8372443Y-14792674D02*
X8381967Y-14802198D01*
X8381967Y-14802198D02*
X8391491Y-14821246D01*
X8391491Y-14821246D02*
X8391491Y-14878388D01*
X8391491Y-14878388D02*
X8381967Y-14897436D01*
X8381967Y-14897436D02*
X8372443Y-14906960D01*
X8372443Y-14906960D02*
X8353396Y-14916484D01*
X8353396Y-14916484D02*
X8315301Y-14916484D01*
X8315301Y-14916484D02*
X8296253Y-14906960D01*
X8477205Y-14897436D02*
X8486729Y-14906960D01*
X8486729Y-14906960D02*
X8477205Y-14916484D01*
X8477205Y-14916484D02*
X8467682Y-14906960D01*
X8467682Y-14906960D02*
X8477205Y-14897436D01*
X8477205Y-14897436D02*
X8477205Y-14916484D01*
X8477205Y-14792674D02*
X8486729Y-14802198D01*
X8486729Y-14802198D02*
X8477205Y-14811722D01*
X8477205Y-14811722D02*
X8467682Y-14802198D01*
X8467682Y-14802198D02*
X8477205Y-14792674D01*
X8477205Y-14792674D02*
X8477205Y-14811722D01*
D10*
X6770000Y-15207500D02*
X6845000Y-15282500D01*
X6845000Y-15207500D02*
X6770000Y-15282500D01*
D11*
X7143872Y-15136484D02*
X7162920Y-15136484D01*
X7162920Y-15136484D02*
X7181967Y-15146008D01*
X7181967Y-15146008D02*
X7191491Y-15155531D01*
X7191491Y-15155531D02*
X7201015Y-15174579D01*
X7201015Y-15174579D02*
X7210539Y-15212674D01*
X7210539Y-15212674D02*
X7210539Y-15260293D01*
X7210539Y-15260293D02*
X7201015Y-15298388D01*
X7201015Y-15298388D02*
X7191491Y-15317436D01*
X7191491Y-15317436D02*
X7181967Y-15326960D01*
X7181967Y-15326960D02*
X7162920Y-15336484D01*
X7162920Y-15336484D02*
X7143872Y-15336484D01*
X7143872Y-15336484D02*
X7124824Y-15326960D01*
X7124824Y-15326960D02*
X7115301Y-15317436D01*
X7115301Y-15317436D02*
X7105777Y-15298388D01*
X7105777Y-15298388D02*
X7096253Y-15260293D01*
X7096253Y-15260293D02*
X7096253Y-15212674D01*
X7096253Y-15212674D02*
X7105777Y-15174579D01*
X7105777Y-15174579D02*
X7115301Y-15155531D01*
X7115301Y-15155531D02*
X7124824Y-15146008D01*
X7124824Y-15146008D02*
X7143872Y-15136484D01*
X7296253Y-15317436D02*
X7305777Y-15326960D01*
X7305777Y-15326960D02*
X7296253Y-15336484D01*
X7296253Y-15336484D02*
X7286729Y-15326960D01*
X7286729Y-15326960D02*
X7296253Y-15317436D01*
X7296253Y-15317436D02*
X7296253Y-15336484D01*
X7372443Y-15136484D02*
X7505777Y-15136484D01*
X7505777Y-15136484D02*
X7420062Y-15336484D01*
X7677205Y-15136484D02*
X7581967Y-15136484D01*
X7581967Y-15136484D02*
X7572443Y-15231722D01*
X7572443Y-15231722D02*
X7581967Y-15222198D01*
X7581967Y-15222198D02*
X7601015Y-15212674D01*
X7601015Y-15212674D02*
X7648634Y-15212674D01*
X7648634Y-15212674D02*
X7667682Y-15222198D01*
X7667682Y-15222198D02*
X7677205Y-15231722D01*
X7677205Y-15231722D02*
X7686729Y-15250769D01*
X7686729Y-15250769D02*
X7686729Y-15298388D01*
X7686729Y-15298388D02*
X7677205Y-15317436D01*
X7677205Y-15317436D02*
X7667682Y-15326960D01*
X7667682Y-15326960D02*
X7648634Y-15336484D01*
X7648634Y-15336484D02*
X7601015Y-15336484D01*
X7601015Y-15336484D02*
X7581967Y-15326960D01*
X7581967Y-15326960D02*
X7572443Y-15317436D01*
X7810539Y-15136484D02*
X7829586Y-15136484D01*
X7829586Y-15136484D02*
X7848634Y-15146008D01*
X7848634Y-15146008D02*
X7858158Y-15155531D01*
X7858158Y-15155531D02*
X7867682Y-15174579D01*
X7867682Y-15174579D02*
X7877205Y-15212674D01*
X7877205Y-15212674D02*
X7877205Y-15260293D01*
X7877205Y-15260293D02*
X7867682Y-15298388D01*
X7867682Y-15298388D02*
X7858158Y-15317436D01*
X7858158Y-15317436D02*
X7848634Y-15326960D01*
X7848634Y-15326960D02*
X7829586Y-15336484D01*
X7829586Y-15336484D02*
X7810539Y-15336484D01*
X7810539Y-15336484D02*
X7791491Y-15326960D01*
X7791491Y-15326960D02*
X7781967Y-15317436D01*
X7781967Y-15317436D02*
X7772443Y-15298388D01*
X7772443Y-15298388D02*
X7762920Y-15260293D01*
X7762920Y-15260293D02*
X7762920Y-15212674D01*
X7762920Y-15212674D02*
X7772443Y-15174579D01*
X7772443Y-15174579D02*
X7781967Y-15155531D01*
X7781967Y-15155531D02*
X7791491Y-15146008D01*
X7791491Y-15146008D02*
X7810539Y-15136484D01*
X7962920Y-15336484D02*
X7962920Y-15203150D01*
X7962920Y-15222198D02*
X7972443Y-15212674D01*
X7972443Y-15212674D02*
X7991491Y-15203150D01*
X7991491Y-15203150D02*
X8020063Y-15203150D01*
X8020063Y-15203150D02*
X8039110Y-15212674D01*
X8039110Y-15212674D02*
X8048634Y-15231722D01*
X8048634Y-15231722D02*
X8048634Y-15336484D01*
X8048634Y-15231722D02*
X8058158Y-15212674D01*
X8058158Y-15212674D02*
X8077205Y-15203150D01*
X8077205Y-15203150D02*
X8105777Y-15203150D01*
X8105777Y-15203150D02*
X8124824Y-15212674D01*
X8124824Y-15212674D02*
X8134348Y-15231722D01*
X8134348Y-15231722D02*
X8134348Y-15336484D01*
X8229586Y-15336484D02*
X8229586Y-15203150D01*
X8229586Y-15222198D02*
X8239110Y-15212674D01*
X8239110Y-15212674D02*
X8258158Y-15203150D01*
X8258158Y-15203150D02*
X8286729Y-15203150D01*
X8286729Y-15203150D02*
X8305777Y-15212674D01*
X8305777Y-15212674D02*
X8315301Y-15231722D01*
X8315301Y-15231722D02*
X8315301Y-15336484D01*
X8315301Y-15231722D02*
X8324824Y-15212674D01*
X8324824Y-15212674D02*
X8343872Y-15203150D01*
X8343872Y-15203150D02*
X8372443Y-15203150D01*
X8372443Y-15203150D02*
X8391491Y-15212674D01*
X8391491Y-15212674D02*
X8401015Y-15231722D01*
X8401015Y-15231722D02*
X8401015Y-15336484D01*
X8791491Y-15126960D02*
X8620063Y-15384103D01*
X9048634Y-15136484D02*
X9067682Y-15136484D01*
X9067682Y-15136484D02*
X9086729Y-15146008D01*
X9086729Y-15146008D02*
X9096253Y-15155531D01*
X9096253Y-15155531D02*
X9105777Y-15174579D01*
X9105777Y-15174579D02*
X9115301Y-15212674D01*
X9115301Y-15212674D02*
X9115301Y-15260293D01*
X9115301Y-15260293D02*
X9105777Y-15298388D01*
X9105777Y-15298388D02*
X9096253Y-15317436D01*
X9096253Y-15317436D02*
X9086729Y-15326960D01*
X9086729Y-15326960D02*
X9067682Y-15336484D01*
X9067682Y-15336484D02*
X9048634Y-15336484D01*
X9048634Y-15336484D02*
X9029587Y-15326960D01*
X9029587Y-15326960D02*
X9020063Y-15317436D01*
X9020063Y-15317436D02*
X9010539Y-15298388D01*
X9010539Y-15298388D02*
X9001015Y-15260293D01*
X9001015Y-15260293D02*
X9001015Y-15212674D01*
X9001015Y-15212674D02*
X9010539Y-15174579D01*
X9010539Y-15174579D02*
X9020063Y-15155531D01*
X9020063Y-15155531D02*
X9029587Y-15146008D01*
X9029587Y-15146008D02*
X9048634Y-15136484D01*
X9201015Y-15317436D02*
X9210539Y-15326960D01*
X9210539Y-15326960D02*
X9201015Y-15336484D01*
X9201015Y-15336484D02*
X9191491Y-15326960D01*
X9191491Y-15326960D02*
X9201015Y-15317436D01*
X9201015Y-15317436D02*
X9201015Y-15336484D01*
X9334348Y-15136484D02*
X9353396Y-15136484D01*
X9353396Y-15136484D02*
X9372444Y-15146008D01*
X9372444Y-15146008D02*
X9381968Y-15155531D01*
X9381968Y-15155531D02*
X9391491Y-15174579D01*
X9391491Y-15174579D02*
X9401015Y-15212674D01*
X9401015Y-15212674D02*
X9401015Y-15260293D01*
X9401015Y-15260293D02*
X9391491Y-15298388D01*
X9391491Y-15298388D02*
X9381968Y-15317436D01*
X9381968Y-15317436D02*
X9372444Y-15326960D01*
X9372444Y-15326960D02*
X9353396Y-15336484D01*
X9353396Y-15336484D02*
X9334348Y-15336484D01*
X9334348Y-15336484D02*
X9315301Y-15326960D01*
X9315301Y-15326960D02*
X9305777Y-15317436D01*
X9305777Y-15317436D02*
X9296253Y-15298388D01*
X9296253Y-15298388D02*
X9286729Y-15260293D01*
X9286729Y-15260293D02*
X9286729Y-15212674D01*
X9286729Y-15212674D02*
X9296253Y-15174579D01*
X9296253Y-15174579D02*
X9305777Y-15155531D01*
X9305777Y-15155531D02*
X9315301Y-15146008D01*
X9315301Y-15146008D02*
X9334348Y-15136484D01*
X9477206Y-15155531D02*
X9486729Y-15146008D01*
X9486729Y-15146008D02*
X9505777Y-15136484D01*
X9505777Y-15136484D02*
X9553396Y-15136484D01*
X9553396Y-15136484D02*
X9572444Y-15146008D01*
X9572444Y-15146008D02*
X9581968Y-15155531D01*
X9581968Y-15155531D02*
X9591491Y-15174579D01*
X9591491Y-15174579D02*
X9591491Y-15193627D01*
X9591491Y-15193627D02*
X9581968Y-15222198D01*
X9581968Y-15222198D02*
X9467682Y-15336484D01*
X9467682Y-15336484D02*
X9591491Y-15336484D01*
X9686729Y-15336484D02*
X9724825Y-15336484D01*
X9724825Y-15336484D02*
X9743872Y-15326960D01*
X9743872Y-15326960D02*
X9753396Y-15317436D01*
X9753396Y-15317436D02*
X9772444Y-15288865D01*
X9772444Y-15288865D02*
X9781968Y-15250769D01*
X9781968Y-15250769D02*
X9781968Y-15174579D01*
X9781968Y-15174579D02*
X9772444Y-15155531D01*
X9772444Y-15155531D02*
X9762920Y-15146008D01*
X9762920Y-15146008D02*
X9743872Y-15136484D01*
X9743872Y-15136484D02*
X9705777Y-15136484D01*
X9705777Y-15136484D02*
X9686729Y-15146008D01*
X9686729Y-15146008D02*
X9677206Y-15155531D01*
X9677206Y-15155531D02*
X9667682Y-15174579D01*
X9667682Y-15174579D02*
X9667682Y-15222198D01*
X9667682Y-15222198D02*
X9677206Y-15241246D01*
X9677206Y-15241246D02*
X9686729Y-15250769D01*
X9686729Y-15250769D02*
X9705777Y-15260293D01*
X9705777Y-15260293D02*
X9743872Y-15260293D01*
X9743872Y-15260293D02*
X9762920Y-15250769D01*
X9762920Y-15250769D02*
X9772444Y-15241246D01*
X9772444Y-15241246D02*
X9781968Y-15222198D01*
X9962920Y-15136484D02*
X9867682Y-15136484D01*
X9867682Y-15136484D02*
X9858158Y-15231722D01*
X9858158Y-15231722D02*
X9867682Y-15222198D01*
X9867682Y-15222198D02*
X9886729Y-15212674D01*
X9886729Y-15212674D02*
X9934349Y-15212674D01*
X9934349Y-15212674D02*
X9953396Y-15222198D01*
X9953396Y-15222198D02*
X9962920Y-15231722D01*
X9962920Y-15231722D02*
X9972444Y-15250769D01*
X9972444Y-15250769D02*
X9972444Y-15298388D01*
X9972444Y-15298388D02*
X9962920Y-15317436D01*
X9962920Y-15317436D02*
X9953396Y-15326960D01*
X9953396Y-15326960D02*
X9934349Y-15336484D01*
X9934349Y-15336484D02*
X9886729Y-15336484D01*
X9886729Y-15336484D02*
X9867682Y-15326960D01*
X9867682Y-15326960D02*
X9858158Y-15317436D01*
X10048634Y-15136484D02*
X10048634Y-15174579D01*
X10124825Y-15136484D02*
X10124825Y-15174579D01*
X10420063Y-15412674D02*
X10410539Y-15403150D01*
X10410539Y-15403150D02*
X10391491Y-15374579D01*
X10391491Y-15374579D02*
X10381968Y-15355531D01*
X10381968Y-15355531D02*
X10372444Y-15326960D01*
X10372444Y-15326960D02*
X10362920Y-15279341D01*
X10362920Y-15279341D02*
X10362920Y-15241246D01*
X10362920Y-15241246D02*
X10372444Y-15193627D01*
X10372444Y-15193627D02*
X10381968Y-15165055D01*
X10381968Y-15165055D02*
X10391491Y-15146008D01*
X10391491Y-15146008D02*
X10410539Y-15117436D01*
X10410539Y-15117436D02*
X10420063Y-15107912D01*
X10601015Y-15336484D02*
X10486730Y-15336484D01*
X10543872Y-15336484D02*
X10543872Y-15136484D01*
X10543872Y-15136484D02*
X10524825Y-15165055D01*
X10524825Y-15165055D02*
X10505777Y-15184103D01*
X10505777Y-15184103D02*
X10486730Y-15193627D01*
X10677206Y-15155531D02*
X10686730Y-15146008D01*
X10686730Y-15146008D02*
X10705777Y-15136484D01*
X10705777Y-15136484D02*
X10753396Y-15136484D01*
X10753396Y-15136484D02*
X10772444Y-15146008D01*
X10772444Y-15146008D02*
X10781968Y-15155531D01*
X10781968Y-15155531D02*
X10791491Y-15174579D01*
X10791491Y-15174579D02*
X10791491Y-15193627D01*
X10791491Y-15193627D02*
X10781968Y-15222198D01*
X10781968Y-15222198D02*
X10667682Y-15336484D01*
X10667682Y-15336484D02*
X10791491Y-15336484D01*
X11029587Y-15336484D02*
X11029587Y-15136484D01*
X11115301Y-15336484D02*
X11115301Y-15231722D01*
X11115301Y-15231722D02*
X11105777Y-15212674D01*
X11105777Y-15212674D02*
X11086730Y-15203150D01*
X11086730Y-15203150D02*
X11058158Y-15203150D01*
X11058158Y-15203150D02*
X11039111Y-15212674D01*
X11039111Y-15212674D02*
X11029587Y-15222198D01*
X11239110Y-15336484D02*
X11220063Y-15326960D01*
X11220063Y-15326960D02*
X11210539Y-15317436D01*
X11210539Y-15317436D02*
X11201015Y-15298388D01*
X11201015Y-15298388D02*
X11201015Y-15241246D01*
X11201015Y-15241246D02*
X11210539Y-15222198D01*
X11210539Y-15222198D02*
X11220063Y-15212674D01*
X11220063Y-15212674D02*
X11239110Y-15203150D01*
X11239110Y-15203150D02*
X11267682Y-15203150D01*
X11267682Y-15203150D02*
X11286730Y-15212674D01*
X11286730Y-15212674D02*
X11296253Y-15222198D01*
X11296253Y-15222198D02*
X11305777Y-15241246D01*
X11305777Y-15241246D02*
X11305777Y-15298388D01*
X11305777Y-15298388D02*
X11296253Y-15317436D01*
X11296253Y-15317436D02*
X11286730Y-15326960D01*
X11286730Y-15326960D02*
X11267682Y-15336484D01*
X11267682Y-15336484D02*
X11239110Y-15336484D01*
X11420063Y-15336484D02*
X11401015Y-15326960D01*
X11401015Y-15326960D02*
X11391491Y-15307912D01*
X11391491Y-15307912D02*
X11391491Y-15136484D01*
X11572444Y-15326960D02*
X11553396Y-15336484D01*
X11553396Y-15336484D02*
X11515301Y-15336484D01*
X11515301Y-15336484D02*
X11496253Y-15326960D01*
X11496253Y-15326960D02*
X11486730Y-15307912D01*
X11486730Y-15307912D02*
X11486730Y-15231722D01*
X11486730Y-15231722D02*
X11496253Y-15212674D01*
X11496253Y-15212674D02*
X11515301Y-15203150D01*
X11515301Y-15203150D02*
X11553396Y-15203150D01*
X11553396Y-15203150D02*
X11572444Y-15212674D01*
X11572444Y-15212674D02*
X11581968Y-15231722D01*
X11581968Y-15231722D02*
X11581968Y-15250769D01*
X11581968Y-15250769D02*
X11486730Y-15269817D01*
X11658158Y-15326960D02*
X11677206Y-15336484D01*
X11677206Y-15336484D02*
X11715301Y-15336484D01*
X11715301Y-15336484D02*
X11734349Y-15326960D01*
X11734349Y-15326960D02*
X11743872Y-15307912D01*
X11743872Y-15307912D02*
X11743872Y-15298388D01*
X11743872Y-15298388D02*
X11734349Y-15279341D01*
X11734349Y-15279341D02*
X11715301Y-15269817D01*
X11715301Y-15269817D02*
X11686730Y-15269817D01*
X11686730Y-15269817D02*
X11667682Y-15260293D01*
X11667682Y-15260293D02*
X11658158Y-15241246D01*
X11658158Y-15241246D02*
X11658158Y-15231722D01*
X11658158Y-15231722D02*
X11667682Y-15212674D01*
X11667682Y-15212674D02*
X11686730Y-15203150D01*
X11686730Y-15203150D02*
X11715301Y-15203150D01*
X11715301Y-15203150D02*
X11734349Y-15212674D01*
X11810539Y-15412674D02*
X11820063Y-15403150D01*
X11820063Y-15403150D02*
X11839111Y-15374579D01*
X11839111Y-15374579D02*
X11848634Y-15355531D01*
X11848634Y-15355531D02*
X11858158Y-15326960D01*
X11858158Y-15326960D02*
X11867682Y-15279341D01*
X11867682Y-15279341D02*
X11867682Y-15241246D01*
X11867682Y-15241246D02*
X11858158Y-15193627D01*
X11858158Y-15193627D02*
X11848634Y-15165055D01*
X11848634Y-15165055D02*
X11839111Y-15146008D01*
X11839111Y-15146008D02*
X11820063Y-15117436D01*
X11820063Y-15117436D02*
X11810539Y-15107912D01*
D10*
X6845000Y-15509000D02*
G75*
G02*
X6768800Y-15509000I-38100J0D01*
G01*
X6768800Y-15509000D02*
G75*
G02*
X6845000Y-15509000I38100J0D01*
G01*
D11*
X7143872Y-15400484D02*
X7162920Y-15400484D01*
X7162920Y-15400484D02*
X7181967Y-15410008D01*
X7181967Y-15410008D02*
X7191491Y-15419531D01*
X7191491Y-15419531D02*
X7201015Y-15438579D01*
X7201015Y-15438579D02*
X7210539Y-15476674D01*
X7210539Y-15476674D02*
X7210539Y-15524293D01*
X7210539Y-15524293D02*
X7201015Y-15562388D01*
X7201015Y-15562388D02*
X7191491Y-15581436D01*
X7191491Y-15581436D02*
X7181967Y-15590960D01*
X7181967Y-15590960D02*
X7162920Y-15600484D01*
X7162920Y-15600484D02*
X7143872Y-15600484D01*
X7143872Y-15600484D02*
X7124824Y-15590960D01*
X7124824Y-15590960D02*
X7115301Y-15581436D01*
X7115301Y-15581436D02*
X7105777Y-15562388D01*
X7105777Y-15562388D02*
X7096253Y-15524293D01*
X7096253Y-15524293D02*
X7096253Y-15476674D01*
X7096253Y-15476674D02*
X7105777Y-15438579D01*
X7105777Y-15438579D02*
X7115301Y-15419531D01*
X7115301Y-15419531D02*
X7124824Y-15410008D01*
X7124824Y-15410008D02*
X7143872Y-15400484D01*
X7296253Y-15581436D02*
X7305777Y-15590960D01*
X7305777Y-15590960D02*
X7296253Y-15600484D01*
X7296253Y-15600484D02*
X7286729Y-15590960D01*
X7286729Y-15590960D02*
X7296253Y-15581436D01*
X7296253Y-15581436D02*
X7296253Y-15600484D01*
X7372443Y-15400484D02*
X7505777Y-15400484D01*
X7505777Y-15400484D02*
X7420062Y-15600484D01*
X7667682Y-15400484D02*
X7629586Y-15400484D01*
X7629586Y-15400484D02*
X7610539Y-15410008D01*
X7610539Y-15410008D02*
X7601015Y-15419531D01*
X7601015Y-15419531D02*
X7581967Y-15448103D01*
X7581967Y-15448103D02*
X7572443Y-15486198D01*
X7572443Y-15486198D02*
X7572443Y-15562388D01*
X7572443Y-15562388D02*
X7581967Y-15581436D01*
X7581967Y-15581436D02*
X7591491Y-15590960D01*
X7591491Y-15590960D02*
X7610539Y-15600484D01*
X7610539Y-15600484D02*
X7648634Y-15600484D01*
X7648634Y-15600484D02*
X7667682Y-15590960D01*
X7667682Y-15590960D02*
X7677205Y-15581436D01*
X7677205Y-15581436D02*
X7686729Y-15562388D01*
X7686729Y-15562388D02*
X7686729Y-15514769D01*
X7686729Y-15514769D02*
X7677205Y-15495722D01*
X7677205Y-15495722D02*
X7667682Y-15486198D01*
X7667682Y-15486198D02*
X7648634Y-15476674D01*
X7648634Y-15476674D02*
X7610539Y-15476674D01*
X7610539Y-15476674D02*
X7591491Y-15486198D01*
X7591491Y-15486198D02*
X7581967Y-15495722D01*
X7581967Y-15495722D02*
X7572443Y-15514769D01*
X7762920Y-15419531D02*
X7772443Y-15410008D01*
X7772443Y-15410008D02*
X7791491Y-15400484D01*
X7791491Y-15400484D02*
X7839110Y-15400484D01*
X7839110Y-15400484D02*
X7858158Y-15410008D01*
X7858158Y-15410008D02*
X7867682Y-15419531D01*
X7867682Y-15419531D02*
X7877205Y-15438579D01*
X7877205Y-15438579D02*
X7877205Y-15457627D01*
X7877205Y-15457627D02*
X7867682Y-15486198D01*
X7867682Y-15486198D02*
X7753396Y-15600484D01*
X7753396Y-15600484D02*
X7877205Y-15600484D01*
X7962920Y-15600484D02*
X7962920Y-15467150D01*
X7962920Y-15486198D02*
X7972443Y-15476674D01*
X7972443Y-15476674D02*
X7991491Y-15467150D01*
X7991491Y-15467150D02*
X8020063Y-15467150D01*
X8020063Y-15467150D02*
X8039110Y-15476674D01*
X8039110Y-15476674D02*
X8048634Y-15495722D01*
X8048634Y-15495722D02*
X8048634Y-15600484D01*
X8048634Y-15495722D02*
X8058158Y-15476674D01*
X8058158Y-15476674D02*
X8077205Y-15467150D01*
X8077205Y-15467150D02*
X8105777Y-15467150D01*
X8105777Y-15467150D02*
X8124824Y-15476674D01*
X8124824Y-15476674D02*
X8134348Y-15495722D01*
X8134348Y-15495722D02*
X8134348Y-15600484D01*
X8229586Y-15600484D02*
X8229586Y-15467150D01*
X8229586Y-15486198D02*
X8239110Y-15476674D01*
X8239110Y-15476674D02*
X8258158Y-15467150D01*
X8258158Y-15467150D02*
X8286729Y-15467150D01*
X8286729Y-15467150D02*
X8305777Y-15476674D01*
X8305777Y-15476674D02*
X8315301Y-15495722D01*
X8315301Y-15495722D02*
X8315301Y-15600484D01*
X8315301Y-15495722D02*
X8324824Y-15476674D01*
X8324824Y-15476674D02*
X8343872Y-15467150D01*
X8343872Y-15467150D02*
X8372443Y-15467150D01*
X8372443Y-15467150D02*
X8391491Y-15476674D01*
X8391491Y-15476674D02*
X8401015Y-15495722D01*
X8401015Y-15495722D02*
X8401015Y-15600484D01*
X8791491Y-15390960D02*
X8620063Y-15648103D01*
X9048634Y-15400484D02*
X9067682Y-15400484D01*
X9067682Y-15400484D02*
X9086729Y-15410008D01*
X9086729Y-15410008D02*
X9096253Y-15419531D01*
X9096253Y-15419531D02*
X9105777Y-15438579D01*
X9105777Y-15438579D02*
X9115301Y-15476674D01*
X9115301Y-15476674D02*
X9115301Y-15524293D01*
X9115301Y-15524293D02*
X9105777Y-15562388D01*
X9105777Y-15562388D02*
X9096253Y-15581436D01*
X9096253Y-15581436D02*
X9086729Y-15590960D01*
X9086729Y-15590960D02*
X9067682Y-15600484D01*
X9067682Y-15600484D02*
X9048634Y-15600484D01*
X9048634Y-15600484D02*
X9029587Y-15590960D01*
X9029587Y-15590960D02*
X9020063Y-15581436D01*
X9020063Y-15581436D02*
X9010539Y-15562388D01*
X9010539Y-15562388D02*
X9001015Y-15524293D01*
X9001015Y-15524293D02*
X9001015Y-15476674D01*
X9001015Y-15476674D02*
X9010539Y-15438579D01*
X9010539Y-15438579D02*
X9020063Y-15419531D01*
X9020063Y-15419531D02*
X9029587Y-15410008D01*
X9029587Y-15410008D02*
X9048634Y-15400484D01*
X9201015Y-15581436D02*
X9210539Y-15590960D01*
X9210539Y-15590960D02*
X9201015Y-15600484D01*
X9201015Y-15600484D02*
X9191491Y-15590960D01*
X9191491Y-15590960D02*
X9201015Y-15581436D01*
X9201015Y-15581436D02*
X9201015Y-15600484D01*
X9334348Y-15400484D02*
X9353396Y-15400484D01*
X9353396Y-15400484D02*
X9372444Y-15410008D01*
X9372444Y-15410008D02*
X9381968Y-15419531D01*
X9381968Y-15419531D02*
X9391491Y-15438579D01*
X9391491Y-15438579D02*
X9401015Y-15476674D01*
X9401015Y-15476674D02*
X9401015Y-15524293D01*
X9401015Y-15524293D02*
X9391491Y-15562388D01*
X9391491Y-15562388D02*
X9381968Y-15581436D01*
X9381968Y-15581436D02*
X9372444Y-15590960D01*
X9372444Y-15590960D02*
X9353396Y-15600484D01*
X9353396Y-15600484D02*
X9334348Y-15600484D01*
X9334348Y-15600484D02*
X9315301Y-15590960D01*
X9315301Y-15590960D02*
X9305777Y-15581436D01*
X9305777Y-15581436D02*
X9296253Y-15562388D01*
X9296253Y-15562388D02*
X9286729Y-15524293D01*
X9286729Y-15524293D02*
X9286729Y-15476674D01*
X9286729Y-15476674D02*
X9296253Y-15438579D01*
X9296253Y-15438579D02*
X9305777Y-15419531D01*
X9305777Y-15419531D02*
X9315301Y-15410008D01*
X9315301Y-15410008D02*
X9334348Y-15400484D01*
X9467682Y-15400484D02*
X9591491Y-15400484D01*
X9591491Y-15400484D02*
X9524825Y-15476674D01*
X9524825Y-15476674D02*
X9553396Y-15476674D01*
X9553396Y-15476674D02*
X9572444Y-15486198D01*
X9572444Y-15486198D02*
X9581968Y-15495722D01*
X9581968Y-15495722D02*
X9591491Y-15514769D01*
X9591491Y-15514769D02*
X9591491Y-15562388D01*
X9591491Y-15562388D02*
X9581968Y-15581436D01*
X9581968Y-15581436D02*
X9572444Y-15590960D01*
X9572444Y-15590960D02*
X9553396Y-15600484D01*
X9553396Y-15600484D02*
X9496253Y-15600484D01*
X9496253Y-15600484D02*
X9477206Y-15590960D01*
X9477206Y-15590960D02*
X9467682Y-15581436D01*
X9715301Y-15400484D02*
X9734349Y-15400484D01*
X9734349Y-15400484D02*
X9753396Y-15410008D01*
X9753396Y-15410008D02*
X9762920Y-15419531D01*
X9762920Y-15419531D02*
X9772444Y-15438579D01*
X9772444Y-15438579D02*
X9781968Y-15476674D01*
X9781968Y-15476674D02*
X9781968Y-15524293D01*
X9781968Y-15524293D02*
X9772444Y-15562388D01*
X9772444Y-15562388D02*
X9762920Y-15581436D01*
X9762920Y-15581436D02*
X9753396Y-15590960D01*
X9753396Y-15590960D02*
X9734349Y-15600484D01*
X9734349Y-15600484D02*
X9715301Y-15600484D01*
X9715301Y-15600484D02*
X9696253Y-15590960D01*
X9696253Y-15590960D02*
X9686729Y-15581436D01*
X9686729Y-15581436D02*
X9677206Y-15562388D01*
X9677206Y-15562388D02*
X9667682Y-15524293D01*
X9667682Y-15524293D02*
X9667682Y-15476674D01*
X9667682Y-15476674D02*
X9677206Y-15438579D01*
X9677206Y-15438579D02*
X9686729Y-15419531D01*
X9686729Y-15419531D02*
X9696253Y-15410008D01*
X9696253Y-15410008D02*
X9715301Y-15400484D01*
X9905777Y-15400484D02*
X9924825Y-15400484D01*
X9924825Y-15400484D02*
X9943872Y-15410008D01*
X9943872Y-15410008D02*
X9953396Y-15419531D01*
X9953396Y-15419531D02*
X9962920Y-15438579D01*
X9962920Y-15438579D02*
X9972444Y-15476674D01*
X9972444Y-15476674D02*
X9972444Y-15524293D01*
X9972444Y-15524293D02*
X9962920Y-15562388D01*
X9962920Y-15562388D02*
X9953396Y-15581436D01*
X9953396Y-15581436D02*
X9943872Y-15590960D01*
X9943872Y-15590960D02*
X9924825Y-15600484D01*
X9924825Y-15600484D02*
X9905777Y-15600484D01*
X9905777Y-15600484D02*
X9886729Y-15590960D01*
X9886729Y-15590960D02*
X9877206Y-15581436D01*
X9877206Y-15581436D02*
X9867682Y-15562388D01*
X9867682Y-15562388D02*
X9858158Y-15524293D01*
X9858158Y-15524293D02*
X9858158Y-15476674D01*
X9858158Y-15476674D02*
X9867682Y-15438579D01*
X9867682Y-15438579D02*
X9877206Y-15419531D01*
X9877206Y-15419531D02*
X9886729Y-15410008D01*
X9886729Y-15410008D02*
X9905777Y-15400484D01*
X10048634Y-15400484D02*
X10048634Y-15438579D01*
X10124825Y-15400484D02*
X10124825Y-15438579D01*
X10420063Y-15676674D02*
X10410539Y-15667150D01*
X10410539Y-15667150D02*
X10391491Y-15638579D01*
X10391491Y-15638579D02*
X10381968Y-15619531D01*
X10381968Y-15619531D02*
X10372444Y-15590960D01*
X10372444Y-15590960D02*
X10362920Y-15543341D01*
X10362920Y-15543341D02*
X10362920Y-15505246D01*
X10362920Y-15505246D02*
X10372444Y-15457627D01*
X10372444Y-15457627D02*
X10381968Y-15429055D01*
X10381968Y-15429055D02*
X10391491Y-15410008D01*
X10391491Y-15410008D02*
X10410539Y-15381436D01*
X10410539Y-15381436D02*
X10420063Y-15371912D01*
X10486730Y-15419531D02*
X10496253Y-15410008D01*
X10496253Y-15410008D02*
X10515301Y-15400484D01*
X10515301Y-15400484D02*
X10562920Y-15400484D01*
X10562920Y-15400484D02*
X10581968Y-15410008D01*
X10581968Y-15410008D02*
X10591491Y-15419531D01*
X10591491Y-15419531D02*
X10601015Y-15438579D01*
X10601015Y-15438579D02*
X10601015Y-15457627D01*
X10601015Y-15457627D02*
X10591491Y-15486198D01*
X10591491Y-15486198D02*
X10477206Y-15600484D01*
X10477206Y-15600484D02*
X10601015Y-15600484D01*
X10839111Y-15600484D02*
X10839111Y-15400484D01*
X10924825Y-15600484D02*
X10924825Y-15495722D01*
X10924825Y-15495722D02*
X10915301Y-15476674D01*
X10915301Y-15476674D02*
X10896253Y-15467150D01*
X10896253Y-15467150D02*
X10867682Y-15467150D01*
X10867682Y-15467150D02*
X10848634Y-15476674D01*
X10848634Y-15476674D02*
X10839111Y-15486198D01*
X11048634Y-15600484D02*
X11029587Y-15590960D01*
X11029587Y-15590960D02*
X11020063Y-15581436D01*
X11020063Y-15581436D02*
X11010539Y-15562388D01*
X11010539Y-15562388D02*
X11010539Y-15505246D01*
X11010539Y-15505246D02*
X11020063Y-15486198D01*
X11020063Y-15486198D02*
X11029587Y-15476674D01*
X11029587Y-15476674D02*
X11048634Y-15467150D01*
X11048634Y-15467150D02*
X11077206Y-15467150D01*
X11077206Y-15467150D02*
X11096253Y-15476674D01*
X11096253Y-15476674D02*
X11105777Y-15486198D01*
X11105777Y-15486198D02*
X11115301Y-15505246D01*
X11115301Y-15505246D02*
X11115301Y-15562388D01*
X11115301Y-15562388D02*
X11105777Y-15581436D01*
X11105777Y-15581436D02*
X11096253Y-15590960D01*
X11096253Y-15590960D02*
X11077206Y-15600484D01*
X11077206Y-15600484D02*
X11048634Y-15600484D01*
X11229587Y-15600484D02*
X11210539Y-15590960D01*
X11210539Y-15590960D02*
X11201015Y-15571912D01*
X11201015Y-15571912D02*
X11201015Y-15400484D01*
X11381968Y-15590960D02*
X11362920Y-15600484D01*
X11362920Y-15600484D02*
X11324825Y-15600484D01*
X11324825Y-15600484D02*
X11305777Y-15590960D01*
X11305777Y-15590960D02*
X11296253Y-15571912D01*
X11296253Y-15571912D02*
X11296253Y-15495722D01*
X11296253Y-15495722D02*
X11305777Y-15476674D01*
X11305777Y-15476674D02*
X11324825Y-15467150D01*
X11324825Y-15467150D02*
X11362920Y-15467150D01*
X11362920Y-15467150D02*
X11381968Y-15476674D01*
X11381968Y-15476674D02*
X11391491Y-15495722D01*
X11391491Y-15495722D02*
X11391491Y-15514769D01*
X11391491Y-15514769D02*
X11296253Y-15533817D01*
X11467682Y-15590960D02*
X11486730Y-15600484D01*
X11486730Y-15600484D02*
X11524825Y-15600484D01*
X11524825Y-15600484D02*
X11543872Y-15590960D01*
X11543872Y-15590960D02*
X11553396Y-15571912D01*
X11553396Y-15571912D02*
X11553396Y-15562388D01*
X11553396Y-15562388D02*
X11543872Y-15543341D01*
X11543872Y-15543341D02*
X11524825Y-15533817D01*
X11524825Y-15533817D02*
X11496253Y-15533817D01*
X11496253Y-15533817D02*
X11477206Y-15524293D01*
X11477206Y-15524293D02*
X11467682Y-15505246D01*
X11467682Y-15505246D02*
X11467682Y-15495722D01*
X11467682Y-15495722D02*
X11477206Y-15476674D01*
X11477206Y-15476674D02*
X11496253Y-15467150D01*
X11496253Y-15467150D02*
X11524825Y-15467150D01*
X11524825Y-15467150D02*
X11543872Y-15476674D01*
X11620063Y-15676674D02*
X11629587Y-15667150D01*
X11629587Y-15667150D02*
X11648634Y-15638579D01*
X11648634Y-15638579D02*
X11658158Y-15619531D01*
X11658158Y-15619531D02*
X11667682Y-15590960D01*
X11667682Y-15590960D02*
X11677206Y-15543341D01*
X11677206Y-15543341D02*
X11677206Y-15505246D01*
X11677206Y-15505246D02*
X11667682Y-15457627D01*
X11667682Y-15457627D02*
X11658158Y-15429055D01*
X11658158Y-15429055D02*
X11648634Y-15410008D01*
X11648634Y-15410008D02*
X11629587Y-15381436D01*
X11629587Y-15381436D02*
X11620063Y-15371912D01*
D10*
X6795000Y-15723000D02*
X6795000Y-15823000D01*
X6745000Y-15773000D02*
X6845000Y-15773000D01*
D11*
X7210539Y-15864484D02*
X7096253Y-15864484D01*
X7153396Y-15864484D02*
X7153396Y-15664484D01*
X7153396Y-15664484D02*
X7134348Y-15693055D01*
X7134348Y-15693055D02*
X7115301Y-15712103D01*
X7115301Y-15712103D02*
X7096253Y-15721627D01*
X7296253Y-15845436D02*
X7305777Y-15854960D01*
X7305777Y-15854960D02*
X7296253Y-15864484D01*
X7296253Y-15864484D02*
X7286729Y-15854960D01*
X7286729Y-15854960D02*
X7296253Y-15845436D01*
X7296253Y-15845436D02*
X7296253Y-15864484D01*
X7429586Y-15664484D02*
X7448634Y-15664484D01*
X7448634Y-15664484D02*
X7467682Y-15674008D01*
X7467682Y-15674008D02*
X7477205Y-15683531D01*
X7477205Y-15683531D02*
X7486729Y-15702579D01*
X7486729Y-15702579D02*
X7496253Y-15740674D01*
X7496253Y-15740674D02*
X7496253Y-15788293D01*
X7496253Y-15788293D02*
X7486729Y-15826388D01*
X7486729Y-15826388D02*
X7477205Y-15845436D01*
X7477205Y-15845436D02*
X7467682Y-15854960D01*
X7467682Y-15854960D02*
X7448634Y-15864484D01*
X7448634Y-15864484D02*
X7429586Y-15864484D01*
X7429586Y-15864484D02*
X7410539Y-15854960D01*
X7410539Y-15854960D02*
X7401015Y-15845436D01*
X7401015Y-15845436D02*
X7391491Y-15826388D01*
X7391491Y-15826388D02*
X7381967Y-15788293D01*
X7381967Y-15788293D02*
X7381967Y-15740674D01*
X7381967Y-15740674D02*
X7391491Y-15702579D01*
X7391491Y-15702579D02*
X7401015Y-15683531D01*
X7401015Y-15683531D02*
X7410539Y-15674008D01*
X7410539Y-15674008D02*
X7429586Y-15664484D01*
X7620062Y-15664484D02*
X7639110Y-15664484D01*
X7639110Y-15664484D02*
X7658158Y-15674008D01*
X7658158Y-15674008D02*
X7667682Y-15683531D01*
X7667682Y-15683531D02*
X7677205Y-15702579D01*
X7677205Y-15702579D02*
X7686729Y-15740674D01*
X7686729Y-15740674D02*
X7686729Y-15788293D01*
X7686729Y-15788293D02*
X7677205Y-15826388D01*
X7677205Y-15826388D02*
X7667682Y-15845436D01*
X7667682Y-15845436D02*
X7658158Y-15854960D01*
X7658158Y-15854960D02*
X7639110Y-15864484D01*
X7639110Y-15864484D02*
X7620062Y-15864484D01*
X7620062Y-15864484D02*
X7601015Y-15854960D01*
X7601015Y-15854960D02*
X7591491Y-15845436D01*
X7591491Y-15845436D02*
X7581967Y-15826388D01*
X7581967Y-15826388D02*
X7572443Y-15788293D01*
X7572443Y-15788293D02*
X7572443Y-15740674D01*
X7572443Y-15740674D02*
X7581967Y-15702579D01*
X7581967Y-15702579D02*
X7591491Y-15683531D01*
X7591491Y-15683531D02*
X7601015Y-15674008D01*
X7601015Y-15674008D02*
X7620062Y-15664484D01*
X7810539Y-15664484D02*
X7829586Y-15664484D01*
X7829586Y-15664484D02*
X7848634Y-15674008D01*
X7848634Y-15674008D02*
X7858158Y-15683531D01*
X7858158Y-15683531D02*
X7867682Y-15702579D01*
X7867682Y-15702579D02*
X7877205Y-15740674D01*
X7877205Y-15740674D02*
X7877205Y-15788293D01*
X7877205Y-15788293D02*
X7867682Y-15826388D01*
X7867682Y-15826388D02*
X7858158Y-15845436D01*
X7858158Y-15845436D02*
X7848634Y-15854960D01*
X7848634Y-15854960D02*
X7829586Y-15864484D01*
X7829586Y-15864484D02*
X7810539Y-15864484D01*
X7810539Y-15864484D02*
X7791491Y-15854960D01*
X7791491Y-15854960D02*
X7781967Y-15845436D01*
X7781967Y-15845436D02*
X7772443Y-15826388D01*
X7772443Y-15826388D02*
X7762920Y-15788293D01*
X7762920Y-15788293D02*
X7762920Y-15740674D01*
X7762920Y-15740674D02*
X7772443Y-15702579D01*
X7772443Y-15702579D02*
X7781967Y-15683531D01*
X7781967Y-15683531D02*
X7791491Y-15674008D01*
X7791491Y-15674008D02*
X7810539Y-15664484D01*
X7962920Y-15864484D02*
X7962920Y-15731150D01*
X7962920Y-15750198D02*
X7972443Y-15740674D01*
X7972443Y-15740674D02*
X7991491Y-15731150D01*
X7991491Y-15731150D02*
X8020063Y-15731150D01*
X8020063Y-15731150D02*
X8039110Y-15740674D01*
X8039110Y-15740674D02*
X8048634Y-15759722D01*
X8048634Y-15759722D02*
X8048634Y-15864484D01*
X8048634Y-15759722D02*
X8058158Y-15740674D01*
X8058158Y-15740674D02*
X8077205Y-15731150D01*
X8077205Y-15731150D02*
X8105777Y-15731150D01*
X8105777Y-15731150D02*
X8124824Y-15740674D01*
X8124824Y-15740674D02*
X8134348Y-15759722D01*
X8134348Y-15759722D02*
X8134348Y-15864484D01*
X8229586Y-15864484D02*
X8229586Y-15731150D01*
X8229586Y-15750198D02*
X8239110Y-15740674D01*
X8239110Y-15740674D02*
X8258158Y-15731150D01*
X8258158Y-15731150D02*
X8286729Y-15731150D01*
X8286729Y-15731150D02*
X8305777Y-15740674D01*
X8305777Y-15740674D02*
X8315301Y-15759722D01*
X8315301Y-15759722D02*
X8315301Y-15864484D01*
X8315301Y-15759722D02*
X8324824Y-15740674D01*
X8324824Y-15740674D02*
X8343872Y-15731150D01*
X8343872Y-15731150D02*
X8372443Y-15731150D01*
X8372443Y-15731150D02*
X8391491Y-15740674D01*
X8391491Y-15740674D02*
X8401015Y-15759722D01*
X8401015Y-15759722D02*
X8401015Y-15864484D01*
X8791491Y-15654960D02*
X8620063Y-15912103D01*
X9048634Y-15664484D02*
X9067682Y-15664484D01*
X9067682Y-15664484D02*
X9086729Y-15674008D01*
X9086729Y-15674008D02*
X9096253Y-15683531D01*
X9096253Y-15683531D02*
X9105777Y-15702579D01*
X9105777Y-15702579D02*
X9115301Y-15740674D01*
X9115301Y-15740674D02*
X9115301Y-15788293D01*
X9115301Y-15788293D02*
X9105777Y-15826388D01*
X9105777Y-15826388D02*
X9096253Y-15845436D01*
X9096253Y-15845436D02*
X9086729Y-15854960D01*
X9086729Y-15854960D02*
X9067682Y-15864484D01*
X9067682Y-15864484D02*
X9048634Y-15864484D01*
X9048634Y-15864484D02*
X9029587Y-15854960D01*
X9029587Y-15854960D02*
X9020063Y-15845436D01*
X9020063Y-15845436D02*
X9010539Y-15826388D01*
X9010539Y-15826388D02*
X9001015Y-15788293D01*
X9001015Y-15788293D02*
X9001015Y-15740674D01*
X9001015Y-15740674D02*
X9010539Y-15702579D01*
X9010539Y-15702579D02*
X9020063Y-15683531D01*
X9020063Y-15683531D02*
X9029587Y-15674008D01*
X9029587Y-15674008D02*
X9048634Y-15664484D01*
X9201015Y-15845436D02*
X9210539Y-15854960D01*
X9210539Y-15854960D02*
X9201015Y-15864484D01*
X9201015Y-15864484D02*
X9191491Y-15854960D01*
X9191491Y-15854960D02*
X9201015Y-15845436D01*
X9201015Y-15845436D02*
X9201015Y-15864484D01*
X9334348Y-15664484D02*
X9353396Y-15664484D01*
X9353396Y-15664484D02*
X9372444Y-15674008D01*
X9372444Y-15674008D02*
X9381968Y-15683531D01*
X9381968Y-15683531D02*
X9391491Y-15702579D01*
X9391491Y-15702579D02*
X9401015Y-15740674D01*
X9401015Y-15740674D02*
X9401015Y-15788293D01*
X9401015Y-15788293D02*
X9391491Y-15826388D01*
X9391491Y-15826388D02*
X9381968Y-15845436D01*
X9381968Y-15845436D02*
X9372444Y-15854960D01*
X9372444Y-15854960D02*
X9353396Y-15864484D01*
X9353396Y-15864484D02*
X9334348Y-15864484D01*
X9334348Y-15864484D02*
X9315301Y-15854960D01*
X9315301Y-15854960D02*
X9305777Y-15845436D01*
X9305777Y-15845436D02*
X9296253Y-15826388D01*
X9296253Y-15826388D02*
X9286729Y-15788293D01*
X9286729Y-15788293D02*
X9286729Y-15740674D01*
X9286729Y-15740674D02*
X9296253Y-15702579D01*
X9296253Y-15702579D02*
X9305777Y-15683531D01*
X9305777Y-15683531D02*
X9315301Y-15674008D01*
X9315301Y-15674008D02*
X9334348Y-15664484D01*
X9467682Y-15664484D02*
X9591491Y-15664484D01*
X9591491Y-15664484D02*
X9524825Y-15740674D01*
X9524825Y-15740674D02*
X9553396Y-15740674D01*
X9553396Y-15740674D02*
X9572444Y-15750198D01*
X9572444Y-15750198D02*
X9581968Y-15759722D01*
X9581968Y-15759722D02*
X9591491Y-15778769D01*
X9591491Y-15778769D02*
X9591491Y-15826388D01*
X9591491Y-15826388D02*
X9581968Y-15845436D01*
X9581968Y-15845436D02*
X9572444Y-15854960D01*
X9572444Y-15854960D02*
X9553396Y-15864484D01*
X9553396Y-15864484D02*
X9496253Y-15864484D01*
X9496253Y-15864484D02*
X9477206Y-15854960D01*
X9477206Y-15854960D02*
X9467682Y-15845436D01*
X9686729Y-15864484D02*
X9724825Y-15864484D01*
X9724825Y-15864484D02*
X9743872Y-15854960D01*
X9743872Y-15854960D02*
X9753396Y-15845436D01*
X9753396Y-15845436D02*
X9772444Y-15816865D01*
X9772444Y-15816865D02*
X9781968Y-15778769D01*
X9781968Y-15778769D02*
X9781968Y-15702579D01*
X9781968Y-15702579D02*
X9772444Y-15683531D01*
X9772444Y-15683531D02*
X9762920Y-15674008D01*
X9762920Y-15674008D02*
X9743872Y-15664484D01*
X9743872Y-15664484D02*
X9705777Y-15664484D01*
X9705777Y-15664484D02*
X9686729Y-15674008D01*
X9686729Y-15674008D02*
X9677206Y-15683531D01*
X9677206Y-15683531D02*
X9667682Y-15702579D01*
X9667682Y-15702579D02*
X9667682Y-15750198D01*
X9667682Y-15750198D02*
X9677206Y-15769246D01*
X9677206Y-15769246D02*
X9686729Y-15778769D01*
X9686729Y-15778769D02*
X9705777Y-15788293D01*
X9705777Y-15788293D02*
X9743872Y-15788293D01*
X9743872Y-15788293D02*
X9762920Y-15778769D01*
X9762920Y-15778769D02*
X9772444Y-15769246D01*
X9772444Y-15769246D02*
X9781968Y-15750198D01*
X9953396Y-15731150D02*
X9953396Y-15864484D01*
X9905777Y-15654960D02*
X9858158Y-15797817D01*
X9858158Y-15797817D02*
X9981968Y-15797817D01*
X10048634Y-15664484D02*
X10048634Y-15702579D01*
X10124825Y-15664484D02*
X10124825Y-15702579D01*
X10420063Y-15940674D02*
X10410539Y-15931150D01*
X10410539Y-15931150D02*
X10391491Y-15902579D01*
X10391491Y-15902579D02*
X10381968Y-15883531D01*
X10381968Y-15883531D02*
X10372444Y-15854960D01*
X10372444Y-15854960D02*
X10362920Y-15807341D01*
X10362920Y-15807341D02*
X10362920Y-15769246D01*
X10362920Y-15769246D02*
X10372444Y-15721627D01*
X10372444Y-15721627D02*
X10381968Y-15693055D01*
X10381968Y-15693055D02*
X10391491Y-15674008D01*
X10391491Y-15674008D02*
X10410539Y-15645436D01*
X10410539Y-15645436D02*
X10420063Y-15635912D01*
X10477206Y-15664484D02*
X10610539Y-15664484D01*
X10610539Y-15664484D02*
X10524825Y-15864484D01*
X10677206Y-15683531D02*
X10686730Y-15674008D01*
X10686730Y-15674008D02*
X10705777Y-15664484D01*
X10705777Y-15664484D02*
X10753396Y-15664484D01*
X10753396Y-15664484D02*
X10772444Y-15674008D01*
X10772444Y-15674008D02*
X10781968Y-15683531D01*
X10781968Y-15683531D02*
X10791491Y-15702579D01*
X10791491Y-15702579D02*
X10791491Y-15721627D01*
X10791491Y-15721627D02*
X10781968Y-15750198D01*
X10781968Y-15750198D02*
X10667682Y-15864484D01*
X10667682Y-15864484D02*
X10791491Y-15864484D01*
X11029587Y-15864484D02*
X11029587Y-15664484D01*
X11115301Y-15864484D02*
X11115301Y-15759722D01*
X11115301Y-15759722D02*
X11105777Y-15740674D01*
X11105777Y-15740674D02*
X11086730Y-15731150D01*
X11086730Y-15731150D02*
X11058158Y-15731150D01*
X11058158Y-15731150D02*
X11039111Y-15740674D01*
X11039111Y-15740674D02*
X11029587Y-15750198D01*
X11239110Y-15864484D02*
X11220063Y-15854960D01*
X11220063Y-15854960D02*
X11210539Y-15845436D01*
X11210539Y-15845436D02*
X11201015Y-15826388D01*
X11201015Y-15826388D02*
X11201015Y-15769246D01*
X11201015Y-15769246D02*
X11210539Y-15750198D01*
X11210539Y-15750198D02*
X11220063Y-15740674D01*
X11220063Y-15740674D02*
X11239110Y-15731150D01*
X11239110Y-15731150D02*
X11267682Y-15731150D01*
X11267682Y-15731150D02*
X11286730Y-15740674D01*
X11286730Y-15740674D02*
X11296253Y-15750198D01*
X11296253Y-15750198D02*
X11305777Y-15769246D01*
X11305777Y-15769246D02*
X11305777Y-15826388D01*
X11305777Y-15826388D02*
X11296253Y-15845436D01*
X11296253Y-15845436D02*
X11286730Y-15854960D01*
X11286730Y-15854960D02*
X11267682Y-15864484D01*
X11267682Y-15864484D02*
X11239110Y-15864484D01*
X11420063Y-15864484D02*
X11401015Y-15854960D01*
X11401015Y-15854960D02*
X11391491Y-15835912D01*
X11391491Y-15835912D02*
X11391491Y-15664484D01*
X11572444Y-15854960D02*
X11553396Y-15864484D01*
X11553396Y-15864484D02*
X11515301Y-15864484D01*
X11515301Y-15864484D02*
X11496253Y-15854960D01*
X11496253Y-15854960D02*
X11486730Y-15835912D01*
X11486730Y-15835912D02*
X11486730Y-15759722D01*
X11486730Y-15759722D02*
X11496253Y-15740674D01*
X11496253Y-15740674D02*
X11515301Y-15731150D01*
X11515301Y-15731150D02*
X11553396Y-15731150D01*
X11553396Y-15731150D02*
X11572444Y-15740674D01*
X11572444Y-15740674D02*
X11581968Y-15759722D01*
X11581968Y-15759722D02*
X11581968Y-15778769D01*
X11581968Y-15778769D02*
X11486730Y-15797817D01*
X11658158Y-15854960D02*
X11677206Y-15864484D01*
X11677206Y-15864484D02*
X11715301Y-15864484D01*
X11715301Y-15864484D02*
X11734349Y-15854960D01*
X11734349Y-15854960D02*
X11743872Y-15835912D01*
X11743872Y-15835912D02*
X11743872Y-15826388D01*
X11743872Y-15826388D02*
X11734349Y-15807341D01*
X11734349Y-15807341D02*
X11715301Y-15797817D01*
X11715301Y-15797817D02*
X11686730Y-15797817D01*
X11686730Y-15797817D02*
X11667682Y-15788293D01*
X11667682Y-15788293D02*
X11658158Y-15769246D01*
X11658158Y-15769246D02*
X11658158Y-15759722D01*
X11658158Y-15759722D02*
X11667682Y-15740674D01*
X11667682Y-15740674D02*
X11686730Y-15731150D01*
X11686730Y-15731150D02*
X11715301Y-15731150D01*
X11715301Y-15731150D02*
X11734349Y-15740674D01*
X11810539Y-15940674D02*
X11820063Y-15931150D01*
X11820063Y-15931150D02*
X11839111Y-15902579D01*
X11839111Y-15902579D02*
X11848634Y-15883531D01*
X11848634Y-15883531D02*
X11858158Y-15854960D01*
X11858158Y-15854960D02*
X11867682Y-15807341D01*
X11867682Y-15807341D02*
X11867682Y-15769246D01*
X11867682Y-15769246D02*
X11858158Y-15721627D01*
X11858158Y-15721627D02*
X11848634Y-15693055D01*
X11848634Y-15693055D02*
X11839111Y-15674008D01*
X11839111Y-15674008D02*
X11820063Y-15645436D01*
X11820063Y-15645436D02*
X11810539Y-15635912D01*
M02*
