%TF.GenerationSoftware,KiCad,Pcbnew,8.0.2*%
%TF.CreationDate,2024-06-12T16:09:08-04:00*%
%TF.ProjectId,20240611-SMARTCAGE-PCB-V2,32303234-3036-4313-912d-534d41525443,rev?*%
%TF.SameCoordinates,Original*%
%TF.FileFunction,Soldermask,Bot*%
%TF.FilePolarity,Negative*%
%FSLAX46Y46*%
G04 Gerber Fmt 4.6, Leading zero omitted, Abs format (unit mm)*
G04 Created by KiCad (PCBNEW 8.0.2) date 2024-06-12 16:09:08*
%MOMM*%
%LPD*%
G01*
G04 APERTURE LIST*
G04 Aperture macros list*
%AMRoundRect*
0 Rectangle with rounded corners*
0 $1 Rounding radius*
0 $2 $3 $4 $5 $6 $7 $8 $9 X,Y pos of 4 corners*
0 Add a 4 corners polygon primitive as box body*
4,1,4,$2,$3,$4,$5,$6,$7,$8,$9,$2,$3,0*
0 Add four circle primitives for the rounded corners*
1,1,$1+$1,$2,$3*
1,1,$1+$1,$4,$5*
1,1,$1+$1,$6,$7*
1,1,$1+$1,$8,$9*
0 Add four rect primitives between the rounded corners*
20,1,$1+$1,$2,$3,$4,$5,0*
20,1,$1+$1,$4,$5,$6,$7,0*
20,1,$1+$1,$6,$7,$8,$9,0*
20,1,$1+$1,$8,$9,$2,$3,0*%
G04 Aperture macros list end*
%ADD10R,2.000000X2.000000*%
%ADD11C,2.000000*%
%ADD12RoundRect,0.250000X-0.350000X-0.625000X0.350000X-0.625000X0.350000X0.625000X-0.350000X0.625000X0*%
%ADD13O,1.200000X1.750000*%
%ADD14C,1.524000*%
G04 APERTURE END LIST*
D10*
%TO.C,U2*%
X102477400Y-102483400D03*
D11*
X105017400Y-102483400D03*
X107557400Y-102483400D03*
X110097400Y-102483400D03*
D10*
X99912000Y-127934200D03*
D11*
X102477400Y-127934200D03*
X104992000Y-127934200D03*
X107532000Y-127934200D03*
X110072000Y-127934200D03*
X112637400Y-127934200D03*
%TD*%
%TO.C,U4*%
X119060000Y-67000000D03*
X106360000Y-92400000D03*
X126680000Y-92400000D03*
D10*
X103820000Y-92400000D03*
D11*
X139380000Y-67000000D03*
X124140000Y-92400000D03*
X129220000Y-92400000D03*
X131760000Y-92400000D03*
X134300000Y-92400000D03*
X116520000Y-92400000D03*
X119060000Y-92400000D03*
X136840000Y-92400000D03*
X136840000Y-67000000D03*
X121600000Y-92400000D03*
X134300000Y-67000000D03*
X113980000Y-67000000D03*
X141920000Y-67000000D03*
X144460000Y-67000000D03*
X121600000Y-67000000D03*
X126680000Y-67000000D03*
X129220000Y-67000000D03*
X131760000Y-67000000D03*
X124140000Y-67000000D03*
X108900000Y-92400000D03*
X111440000Y-92400000D03*
X113980000Y-92400000D03*
X108900000Y-67000000D03*
X111440000Y-67000000D03*
D10*
X103820000Y-67000000D03*
D11*
X106360000Y-67000000D03*
X116520000Y-67000000D03*
X147000000Y-67000000D03*
X139380000Y-92400000D03*
X141920000Y-92400000D03*
X144460000Y-92400000D03*
X147000000Y-92400000D03*
%TD*%
D12*
%TO.C,J2*%
X101000000Y-138500000D03*
D13*
X103000000Y-138500000D03*
X105000000Y-138500000D03*
X107000000Y-138500000D03*
%TD*%
D12*
%TO.C,J1*%
X77500000Y-138400000D03*
D13*
X79500000Y-138400000D03*
X81500000Y-138400000D03*
X83500000Y-138400000D03*
%TD*%
D12*
%TO.C,J3*%
X123500000Y-138500000D03*
D13*
X125500000Y-138500000D03*
X127500000Y-138500000D03*
X129500000Y-138500000D03*
%TD*%
D14*
%TO.C,SW1*%
X149500000Y-112588400D03*
X149500000Y-120208400D03*
%TD*%
D10*
%TO.C,U3*%
X124977400Y-102483400D03*
D11*
X127517400Y-102483400D03*
X130057400Y-102483400D03*
X132597400Y-102483400D03*
D10*
X122412000Y-127934200D03*
D11*
X124977400Y-127934200D03*
X127492000Y-127934200D03*
X130032000Y-127934200D03*
X132572000Y-127934200D03*
X135137400Y-127934200D03*
%TD*%
D10*
%TO.C,U5*%
X76230200Y-86483600D03*
D11*
X78770200Y-86483600D03*
X81310200Y-86483600D03*
X83850200Y-86483600D03*
X86390200Y-86483600D03*
X88930200Y-86483600D03*
%TD*%
D10*
%TO.C,U1*%
X78977400Y-102483400D03*
D11*
X81517400Y-102483400D03*
X84057400Y-102483400D03*
X86597400Y-102483400D03*
D10*
X76412000Y-127934200D03*
D11*
X78977400Y-127934200D03*
X81492000Y-127934200D03*
X84032000Y-127934200D03*
X86572000Y-127934200D03*
X89137400Y-127934200D03*
%TD*%
M02*
