M48
; DRILL file {KiCad 8.0.2} date 2024-06-12T16:09:04-0400
; FORMAT={-:-/ absolute / inch / decimal}
; #@! TF.CreationDate,2024-06-12T16:09:04-04:00
; #@! TF.GenerationSoftware,Kicad,Pcbnew,8.0.2
; #@! TF.FileFunction,Plated,1,2,PTH
FMAT,2
INCH
; #@! TA.AperFunction,Plated,PTH,ComponentDrill
T1C0.0295
; #@! TA.AperFunction,Plated,PTH,ComponentDrill
T2C0.0300
; #@! TA.AperFunction,Plated,PTH,ComponentDrill
T3C0.0394
%
G90
G05
T1
X3.0512Y-5.4488
X3.1299Y-5.4488
X3.2087Y-5.4488
X3.2874Y-5.4488
X3.9764Y-5.4528
X4.0551Y-5.4528
X4.1339Y-5.4528
X4.2126Y-5.4528
X4.8622Y-5.4528
X4.9409Y-5.4528
X5.0197Y-5.4528
X5.0984Y-5.4528
T2
X5.8858Y-4.4326
X5.8858Y-4.7326
T3
X3.0012Y-3.4049
X3.0083Y-5.0368
X3.1012Y-3.4049
X3.1093Y-4.0348
X3.1093Y-5.0368
X3.2012Y-3.4049
X3.2083Y-5.0368
X3.2093Y-4.0348
X3.3012Y-3.4049
X3.3083Y-5.0368
X3.3093Y-4.0348
X3.4012Y-3.4049
X3.4083Y-5.0368
X3.4093Y-4.0348
X3.5012Y-3.4049
X3.5093Y-5.0368
X3.9335Y-5.0368
X4.0345Y-4.0348
X4.0345Y-5.0368
X4.0874Y-2.6378
X4.0874Y-3.6378
X4.1335Y-5.0368
X4.1345Y-4.0348
X4.1874Y-2.6378
X4.1874Y-3.6378
X4.2335Y-5.0368
X4.2345Y-4.0348
X4.2874Y-2.6378
X4.2874Y-3.6378
X4.3335Y-5.0368
X4.3345Y-4.0348
X4.3874Y-2.6378
X4.3874Y-3.6378
X4.4345Y-5.0368
X4.4874Y-2.6378
X4.4874Y-3.6378
X4.5874Y-2.6378
X4.5874Y-3.6378
X4.6874Y-2.6378
X4.6874Y-3.6378
X4.7874Y-2.6378
X4.7874Y-3.6378
X4.8194Y-5.0368
X4.8874Y-2.6378
X4.8874Y-3.6378
X4.9204Y-4.0348
X4.9204Y-5.0368
X4.9874Y-2.6378
X4.9874Y-3.6378
X5.0194Y-5.0368
X5.0204Y-4.0348
X5.0874Y-2.6378
X5.0874Y-3.6378
X5.1194Y-5.0368
X5.1204Y-4.0348
X5.1874Y-2.6378
X5.1874Y-3.6378
X5.2194Y-5.0368
X5.2204Y-4.0348
X5.2874Y-2.6378
X5.2874Y-3.6378
X5.3204Y-5.0368
X5.3874Y-2.6378
X5.3874Y-3.6378
X5.4874Y-2.6378
X5.4874Y-3.6378
X5.5874Y-2.6378
X5.5874Y-3.6378
X5.6874Y-2.6378
X5.6874Y-3.6378
X5.7874Y-2.6378
X5.7874Y-3.6378
M30
