%TF.GenerationSoftware,KiCad,Pcbnew,8.0.2*%
%TF.CreationDate,2024-06-12T16:09:05-04:00*%
%TF.ProjectId,20240611-SMARTCAGE-PCB-V2,32303234-3036-4313-912d-534d41525443,rev?*%
%TF.SameCoordinates,Original*%
%TF.FileFunction,Drillmap*%
%TF.FilePolarity,Positive*%
%FSLAX45Y45*%
G04 Gerber Fmt 4.5, Leading zero omitted, Abs format (unit mm)*
G04 Created by KiCad (PCBNEW 8.0.2) date 2024-06-12 16:09:05*
%MOMM*%
%LPD*%
G01*
G04 APERTURE LIST*
%ADD10C,0.100000*%
%ADD11C,0.200000*%
G04 APERTURE END LIST*
D10*
X7623607Y-9400000D02*
G75*
G02*
X7176393Y-9400000I-223607J0D01*
G01*
X7176393Y-9400000D02*
G75*
G02*
X7623607Y-9400000I223607J0D01*
G01*
X15023607Y-13300000D02*
G75*
G02*
X14576393Y-13300000I-223607J0D01*
G01*
X14576393Y-13300000D02*
G75*
G02*
X15023607Y-13300000I223607J0D01*
G01*
X6850000Y-6100000D02*
X15850000Y-6100000D01*
X15850000Y-14600000D01*
X6850000Y-14600000D01*
X6850000Y-6100000D01*
D11*
X7105777Y-14916484D02*
X7105777Y-14716484D01*
X7105777Y-14716484D02*
X7153396Y-14716484D01*
X7153396Y-14716484D02*
X7181967Y-14726008D01*
X7181967Y-14726008D02*
X7201015Y-14745055D01*
X7201015Y-14745055D02*
X7210539Y-14764103D01*
X7210539Y-14764103D02*
X7220062Y-14802198D01*
X7220062Y-14802198D02*
X7220062Y-14830769D01*
X7220062Y-14830769D02*
X7210539Y-14868865D01*
X7210539Y-14868865D02*
X7201015Y-14887912D01*
X7201015Y-14887912D02*
X7181967Y-14906960D01*
X7181967Y-14906960D02*
X7153396Y-14916484D01*
X7153396Y-14916484D02*
X7105777Y-14916484D01*
X7305777Y-14916484D02*
X7305777Y-14783150D01*
X7305777Y-14821246D02*
X7315301Y-14802198D01*
X7315301Y-14802198D02*
X7324824Y-14792674D01*
X7324824Y-14792674D02*
X7343872Y-14783150D01*
X7343872Y-14783150D02*
X7362920Y-14783150D01*
X7429586Y-14916484D02*
X7429586Y-14783150D01*
X7429586Y-14716484D02*
X7420062Y-14726008D01*
X7420062Y-14726008D02*
X7429586Y-14735531D01*
X7429586Y-14735531D02*
X7439110Y-14726008D01*
X7439110Y-14726008D02*
X7429586Y-14716484D01*
X7429586Y-14716484D02*
X7429586Y-14735531D01*
X7553396Y-14916484D02*
X7534348Y-14906960D01*
X7534348Y-14906960D02*
X7524824Y-14887912D01*
X7524824Y-14887912D02*
X7524824Y-14716484D01*
X7658158Y-14916484D02*
X7639110Y-14906960D01*
X7639110Y-14906960D02*
X7629586Y-14887912D01*
X7629586Y-14887912D02*
X7629586Y-14716484D01*
X7886729Y-14916484D02*
X7886729Y-14716484D01*
X7886729Y-14716484D02*
X7953396Y-14859341D01*
X7953396Y-14859341D02*
X8020062Y-14716484D01*
X8020062Y-14716484D02*
X8020062Y-14916484D01*
X8201015Y-14916484D02*
X8201015Y-14811722D01*
X8201015Y-14811722D02*
X8191491Y-14792674D01*
X8191491Y-14792674D02*
X8172443Y-14783150D01*
X8172443Y-14783150D02*
X8134348Y-14783150D01*
X8134348Y-14783150D02*
X8115301Y-14792674D01*
X8201015Y-14906960D02*
X8181967Y-14916484D01*
X8181967Y-14916484D02*
X8134348Y-14916484D01*
X8134348Y-14916484D02*
X8115301Y-14906960D01*
X8115301Y-14906960D02*
X8105777Y-14887912D01*
X8105777Y-14887912D02*
X8105777Y-14868865D01*
X8105777Y-14868865D02*
X8115301Y-14849817D01*
X8115301Y-14849817D02*
X8134348Y-14840293D01*
X8134348Y-14840293D02*
X8181967Y-14840293D01*
X8181967Y-14840293D02*
X8201015Y-14830769D01*
X8296253Y-14783150D02*
X8296253Y-14983150D01*
X8296253Y-14792674D02*
X8315301Y-14783150D01*
X8315301Y-14783150D02*
X8353396Y-14783150D01*
X8353396Y-14783150D02*
X8372443Y-14792674D01*
X8372443Y-14792674D02*
X8381967Y-14802198D01*
X8381967Y-14802198D02*
X8391491Y-14821246D01*
X8391491Y-14821246D02*
X8391491Y-14878388D01*
X8391491Y-14878388D02*
X8381967Y-14897436D01*
X8381967Y-14897436D02*
X8372443Y-14906960D01*
X8372443Y-14906960D02*
X8353396Y-14916484D01*
X8353396Y-14916484D02*
X8315301Y-14916484D01*
X8315301Y-14916484D02*
X8296253Y-14906960D01*
X8477205Y-14897436D02*
X8486729Y-14906960D01*
X8486729Y-14906960D02*
X8477205Y-14916484D01*
X8477205Y-14916484D02*
X8467682Y-14906960D01*
X8467682Y-14906960D02*
X8477205Y-14897436D01*
X8477205Y-14897436D02*
X8477205Y-14916484D01*
X8477205Y-14792674D02*
X8486729Y-14802198D01*
X8486729Y-14802198D02*
X8477205Y-14811722D01*
X8477205Y-14811722D02*
X8467682Y-14802198D01*
X8467682Y-14802198D02*
X8477205Y-14792674D01*
X8477205Y-14792674D02*
X8477205Y-14811722D01*
M02*
