%TF.GenerationSoftware,KiCad,Pcbnew,8.0.2*%
%TF.CreationDate,2024-06-12T16:09:08-04:00*%
%TF.ProjectId,20240611-SMARTCAGE-PCB-V2,32303234-3036-4313-912d-534d41525443,rev?*%
%TF.SameCoordinates,Original*%
%TF.FileFunction,Copper,L2,Bot*%
%TF.FilePolarity,Positive*%
%FSLAX46Y46*%
G04 Gerber Fmt 4.6, Leading zero omitted, Abs format (unit mm)*
G04 Created by KiCad (PCBNEW 8.0.2) date 2024-06-12 16:09:08*
%MOMM*%
%LPD*%
G01*
G04 APERTURE LIST*
G04 Aperture macros list*
%AMRoundRect*
0 Rectangle with rounded corners*
0 $1 Rounding radius*
0 $2 $3 $4 $5 $6 $7 $8 $9 X,Y pos of 4 corners*
0 Add a 4 corners polygon primitive as box body*
4,1,4,$2,$3,$4,$5,$6,$7,$8,$9,$2,$3,0*
0 Add four circle primitives for the rounded corners*
1,1,$1+$1,$2,$3*
1,1,$1+$1,$4,$5*
1,1,$1+$1,$6,$7*
1,1,$1+$1,$8,$9*
0 Add four rect primitives between the rounded corners*
20,1,$1+$1,$2,$3,$4,$5,0*
20,1,$1+$1,$4,$5,$6,$7,0*
20,1,$1+$1,$6,$7,$8,$9,0*
20,1,$1+$1,$8,$9,$2,$3,0*%
G04 Aperture macros list end*
%TA.AperFunction,ComponentPad*%
%ADD10R,2.000000X2.000000*%
%TD*%
%TA.AperFunction,ComponentPad*%
%ADD11C,2.000000*%
%TD*%
%TA.AperFunction,ComponentPad*%
%ADD12RoundRect,0.250000X-0.350000X-0.625000X0.350000X-0.625000X0.350000X0.625000X-0.350000X0.625000X0*%
%TD*%
%TA.AperFunction,ComponentPad*%
%ADD13O,1.200000X1.750000*%
%TD*%
%TA.AperFunction,ComponentPad*%
%ADD14C,1.524000*%
%TD*%
%TA.AperFunction,Conductor*%
%ADD15C,0.250000*%
%TD*%
G04 APERTURE END LIST*
D10*
%TO.P,U2,1,GND*%
%TO.N,/GND*%
X102477400Y-102483400D03*
D11*
%TO.P,U2,2,DT*%
%TO.N,Net-(U2-DT)*%
X105017400Y-102483400D03*
%TO.P,U2,3,SCK*%
%TO.N,Net-(U1-SCK)*%
X107557400Y-102483400D03*
%TO.P,U2,4,VCC*%
%TO.N,Net-(U1-VCC)*%
X110097400Y-102483400D03*
D10*
%TO.P,U2,5,INE+*%
%TO.N,Net-(J2-Pin_1)*%
X99912000Y-127934200D03*
D11*
%TO.P,U2,6,INE-*%
%TO.N,/GND*%
X102477400Y-127934200D03*
%TO.P,U2,7,INA-*%
%TO.N,Net-(J2-Pin_3)*%
X104992000Y-127934200D03*
%TO.P,U2,8,INA+*%
%TO.N,Net-(J2-Pin_4)*%
X107532000Y-127934200D03*
%TO.P,U2,9,INB+*%
%TO.N,unconnected-(U2-INB+-Pad9)*%
X110072000Y-127934200D03*
%TO.P,U2,10,INB-*%
%TO.N,unconnected-(U2-INB--Pad10)*%
X112637400Y-127934200D03*
%TD*%
%TO.P,U4,0,IO0*%
%TO.N,unconnected-(U4-IO0-Pad0)*%
X119060000Y-67000000D03*
%TO.P,U4,1,IO1/TXD*%
%TO.N,unconnected-(U4-IO1{slash}TXD-Pad1)*%
X106360000Y-92400000D03*
%TO.P,U4,2,IO2/D9*%
%TO.N,unconnected-(U4-IO2{slash}D9-Pad2)*%
X126680000Y-92400000D03*
D10*
%TO.P,U4,3,IO3/RXD*%
%TO.N,unconnected-(U4-IO3{slash}RXD-Pad3)*%
X103820000Y-92400000D03*
D11*
%TO.P,U4,4,D0/IO4*%
%TO.N,unconnected-(U4-D0{slash}IO4-Pad4)*%
X139380000Y-67000000D03*
%TO.P,U4,5,IO5/D8*%
%TO.N,Net-(U3-DT)*%
X124140000Y-92400000D03*
%TO.P,U4,6,IO6/CLK*%
%TO.N,unconnected-(U4-IO6{slash}CLK-Pad6)*%
X129220000Y-92400000D03*
%TO.P,U4,7,IO7/SD0*%
%TO.N,unconnected-(U4-IO7{slash}SD0-Pad7)*%
X131760000Y-92400000D03*
%TO.P,U4,8,IO8/SD1*%
%TO.N,unconnected-(U4-IO8{slash}SD1-Pad8)*%
X134300000Y-92400000D03*
%TO.P,U4,9,IO9/D5*%
%TO.N,Net-(U2-DT)*%
X116520000Y-92400000D03*
%TO.P,U4,10,IO10/D6*%
%TO.N,unconnected-(U4-IO10{slash}D6-Pad10)*%
X119060000Y-92400000D03*
%TO.P,U4,11,IO11/CMD*%
%TO.N,unconnected-(U4-IO11{slash}CMD-Pad11)*%
X136840000Y-92400000D03*
%TO.P,U4,12,MCLK/IO12*%
%TO.N,unconnected-(U4-MCLK{slash}IO12-Pad12)*%
X136840000Y-67000000D03*
%TO.P,U4,13,IO13/D7*%
%TO.N,Net-(U4-IO13{slash}D7)*%
X121600000Y-92400000D03*
%TO.P,U4,14,BCLK/IO14*%
%TO.N,unconnected-(U4-BCLK{slash}IO14-Pad14)*%
X134300000Y-67000000D03*
%TO.P,U4,15,A4/IO15*%
%TO.N,unconnected-(U4-A4{slash}IO15-Pad15)*%
X113980000Y-67000000D03*
%TO.P,U4,16,D1/IO16*%
%TO.N,unconnected-(U4-D1{slash}IO16-Pad16)*%
X141920000Y-67000000D03*
%TO.P,U4,17,LRCK/IO17*%
%TO.N,Net-(U1-SCK)*%
X144460000Y-67000000D03*
%TO.P,U4,18,SCK/IO18*%
%TO.N,Net-(U4-SCK{slash}IO18)*%
X121600000Y-67000000D03*
%TO.P,U4,19,MISO/IO19*%
%TO.N,Net-(U4-MISO{slash}IO19)*%
X126680000Y-67000000D03*
%TO.P,U4,21,SDA/IO21*%
%TO.N,Net-(U4-SDA{slash}IO21)*%
X129220000Y-67000000D03*
%TO.P,U4,22,SCL/IO22*%
%TO.N,unconnected-(U4-SCL{slash}IO22-Pad22)*%
X131760000Y-67000000D03*
%TO.P,U4,23,MOSI/IO23*%
%TO.N,Net-(U4-MOSI{slash}IO23)*%
X124140000Y-67000000D03*
%TO.P,U4,25,IO25/D2*%
%TO.N,unconnected-(U4-IO25{slash}D2-Pad25)*%
X108900000Y-92400000D03*
%TO.P,U4,26,IO26/D3*%
%TO.N,unconnected-(U4-IO26{slash}D3-Pad26)*%
X111440000Y-92400000D03*
%TO.P,U4,27,IO27/D4*%
%TO.N,Net-(U1-DT)*%
X113980000Y-92400000D03*
%TO.P,U4,34,A2/IO34*%
%TO.N,unconnected-(U4-A2{slash}IO34-Pad34)*%
X108900000Y-67000000D03*
%TO.P,U4,35,A3/1035*%
%TO.N,unconnected-(U4-A3{slash}1035-Pad35)*%
X111440000Y-67000000D03*
D10*
%TO.P,U4,36,A0/IO36*%
%TO.N,unconnected-(U4-A0{slash}IO36-Pad36)*%
X103820000Y-67000000D03*
D11*
%TO.P,U4,39,A1/IO39*%
%TO.N,unconnected-(U4-A1{slash}IO39-Pad39)*%
X106360000Y-67000000D03*
%TO.P,U4,40,NC*%
%TO.N,unconnected-(U4-NC-Pad40)*%
X116520000Y-67000000D03*
%TO.P,U4,41,RST*%
%TO.N,unconnected-(U4-RST-Pad41)*%
X147000000Y-67000000D03*
%TO.P,U4,42,GND*%
%TO.N,/GND*%
X139380000Y-92400000D03*
%TO.P,U4,43,AREF*%
%TO.N,unconnected-(U4-AREF-Pad43)*%
X141920000Y-92400000D03*
%TO.P,U4,44,3V3*%
%TO.N,unconnected-(U4-3V3-Pad44)*%
X144460000Y-92400000D03*
%TO.P,U4,45,VCC*%
%TO.N,Net-(U1-VCC)*%
X147000000Y-92400000D03*
%TD*%
D12*
%TO.P,J2,1,Pin_1*%
%TO.N,Net-(J2-Pin_1)*%
X101000000Y-138500000D03*
D13*
%TO.P,J2,2,Pin_2*%
%TO.N,/GND*%
X103000000Y-138500000D03*
%TO.P,J2,3,Pin_3*%
%TO.N,Net-(J2-Pin_3)*%
X105000000Y-138500000D03*
%TO.P,J2,4,Pin_4*%
%TO.N,Net-(J2-Pin_4)*%
X107000000Y-138500000D03*
%TD*%
D12*
%TO.P,J1,1,Pin_1*%
%TO.N,Net-(J1-Pin_1)*%
X77500000Y-138400000D03*
D13*
%TO.P,J1,2,Pin_2*%
%TO.N,/GND*%
X79500000Y-138400000D03*
%TO.P,J1,3,Pin_3*%
%TO.N,Net-(J1-Pin_3)*%
X81500000Y-138400000D03*
%TO.P,J1,4,Pin_4*%
%TO.N,Net-(J1-Pin_4)*%
X83500000Y-138400000D03*
%TD*%
D12*
%TO.P,J3,1,Pin_1*%
%TO.N,Net-(J3-Pin_1)*%
X123500000Y-138500000D03*
D13*
%TO.P,J3,2,Pin_2*%
%TO.N,/GND*%
X125500000Y-138500000D03*
%TO.P,J3,3,Pin_3*%
%TO.N,Net-(J3-Pin_3)*%
X127500000Y-138500000D03*
%TO.P,J3,4,Pin_4*%
%TO.N,Net-(J3-Pin_4)*%
X129500000Y-138500000D03*
%TD*%
D14*
%TO.P,SW1,1*%
%TO.N,Net-(U1-VCC)*%
X149500000Y-112588400D03*
%TO.P,SW1,2*%
%TO.N,Net-(U4-IO13{slash}D7)*%
X149500000Y-120208400D03*
%TD*%
D10*
%TO.P,U3,1,GND*%
%TO.N,/GND*%
X124977400Y-102483400D03*
D11*
%TO.P,U3,2,DT*%
%TO.N,Net-(U3-DT)*%
X127517400Y-102483400D03*
%TO.P,U3,3,SCK*%
%TO.N,Net-(U1-SCK)*%
X130057400Y-102483400D03*
%TO.P,U3,4,VCC*%
%TO.N,Net-(U1-VCC)*%
X132597400Y-102483400D03*
D10*
%TO.P,U3,5,INE+*%
%TO.N,Net-(J3-Pin_1)*%
X122412000Y-127934200D03*
D11*
%TO.P,U3,6,INE-*%
%TO.N,/GND*%
X124977400Y-127934200D03*
%TO.P,U3,7,INA-*%
%TO.N,Net-(J3-Pin_3)*%
X127492000Y-127934200D03*
%TO.P,U3,8,INA+*%
%TO.N,Net-(J3-Pin_4)*%
X130032000Y-127934200D03*
%TO.P,U3,9,INB+*%
%TO.N,unconnected-(U3-INB+-Pad9)*%
X132572000Y-127934200D03*
%TO.P,U3,10,INB-*%
%TO.N,unconnected-(U3-INB--Pad10)*%
X135137400Y-127934200D03*
%TD*%
D10*
%TO.P,U5,1,MISO*%
%TO.N,Net-(U4-MISO{slash}IO19)*%
X76230200Y-86483600D03*
D11*
%TO.P,U5,2,SCK*%
%TO.N,Net-(U4-SCK{slash}IO18)*%
X78770200Y-86483600D03*
%TO.P,U5,3,SS*%
%TO.N,Net-(U4-SDA{slash}IO21)*%
X81310200Y-86483600D03*
%TO.P,U5,4,MOSI*%
%TO.N,Net-(U4-MOSI{slash}IO23)*%
X83850200Y-86483600D03*
%TO.P,U5,5,GND*%
%TO.N,/GND*%
X86390200Y-86483600D03*
%TO.P,U5,6,VCC*%
%TO.N,Net-(U1-VCC)*%
X88930200Y-86483600D03*
%TD*%
D10*
%TO.P,U1,1,GND*%
%TO.N,/GND*%
X78977400Y-102483400D03*
D11*
%TO.P,U1,2,DT*%
%TO.N,Net-(U1-DT)*%
X81517400Y-102483400D03*
%TO.P,U1,3,SCK*%
%TO.N,Net-(U1-SCK)*%
X84057400Y-102483400D03*
%TO.P,U1,4,VCC*%
%TO.N,Net-(U1-VCC)*%
X86597400Y-102483400D03*
D10*
%TO.P,U1,5,INE+*%
%TO.N,Net-(J1-Pin_1)*%
X76412000Y-127934200D03*
D11*
%TO.P,U1,6,INE-*%
%TO.N,/GND*%
X78977400Y-127934200D03*
%TO.P,U1,7,INA-*%
%TO.N,Net-(J1-Pin_3)*%
X81492000Y-127934200D03*
%TO.P,U1,8,INA+*%
%TO.N,Net-(J1-Pin_4)*%
X84032000Y-127934200D03*
%TO.P,U1,9,INB+*%
%TO.N,unconnected-(U1-INB+-Pad9)*%
X86572000Y-127934200D03*
%TO.P,U1,10,INB-*%
%TO.N,unconnected-(U1-INB--Pad10)*%
X89137400Y-127934200D03*
%TD*%
D15*
%TO.N,Net-(U1-VCC)*%
X86500000Y-96000000D02*
X86597400Y-96097400D01*
X86500000Y-95500000D02*
X86500000Y-96000000D01*
X86597400Y-96097400D02*
X86597400Y-102483400D01*
X88930200Y-93069800D02*
X88930200Y-86483600D01*
X88930200Y-93069800D02*
X86500000Y-95500000D01*
%TO.N,Net-(U1-SCK)*%
X130057400Y-113557400D02*
X130057400Y-102483400D01*
X155000000Y-86000000D02*
X155000000Y-123000000D01*
X155000000Y-123000000D02*
X153000000Y-125000000D01*
X153000000Y-125000000D02*
X141500000Y-125000000D01*
X141500000Y-125000000D02*
X130057400Y-113557400D01*
X144460000Y-75460000D02*
X155000000Y-86000000D01*
X144460000Y-67000000D02*
X144460000Y-75460000D01*
%TD*%
%TA.AperFunction,Conductor*%
%TO.N,/GND*%
G36*
X158443039Y-61019685D02*
G01*
X158488794Y-61072489D01*
X158500000Y-61124000D01*
X158500000Y-145876000D01*
X158480315Y-145943039D01*
X158427511Y-145988794D01*
X158376000Y-146000000D01*
X68624000Y-146000000D01*
X68556961Y-145980315D01*
X68511206Y-145927511D01*
X68500000Y-145876000D01*
X68500000Y-137724983D01*
X76399500Y-137724983D01*
X76399500Y-139075001D01*
X76399501Y-139075018D01*
X76410000Y-139177796D01*
X76410001Y-139177799D01*
X76465185Y-139344331D01*
X76465187Y-139344336D01*
X76478479Y-139365886D01*
X76557288Y-139493656D01*
X76681344Y-139617712D01*
X76830666Y-139709814D01*
X76997203Y-139764999D01*
X77099991Y-139775500D01*
X77900008Y-139775499D01*
X77900016Y-139775498D01*
X77900019Y-139775498D01*
X77956302Y-139769748D01*
X78002797Y-139764999D01*
X78169334Y-139709814D01*
X78318656Y-139617712D01*
X78442712Y-139493656D01*
X78482581Y-139429016D01*
X78534525Y-139382294D01*
X78603488Y-139371071D01*
X78667570Y-139398914D01*
X78675799Y-139406434D01*
X78783397Y-139514032D01*
X78923475Y-139615804D01*
X79077744Y-139694408D01*
X79242415Y-139747914D01*
X79242414Y-139747914D01*
X79249999Y-139749115D01*
X79250000Y-139749114D01*
X79250000Y-138680330D01*
X79269745Y-138700075D01*
X79355255Y-138749444D01*
X79450630Y-138775000D01*
X79549370Y-138775000D01*
X79644745Y-138749444D01*
X79730255Y-138700075D01*
X79750000Y-138680330D01*
X79750000Y-139749115D01*
X79757584Y-139747914D01*
X79922255Y-139694408D01*
X80076524Y-139615804D01*
X80216602Y-139514032D01*
X80339036Y-139391598D01*
X80399371Y-139308552D01*
X80454700Y-139265886D01*
X80524313Y-139259905D01*
X80586109Y-139292510D01*
X80600008Y-139308550D01*
X80600318Y-139308976D01*
X80660586Y-139391928D01*
X80783072Y-139514414D01*
X80923212Y-139616232D01*
X81077555Y-139694873D01*
X81242299Y-139748402D01*
X81413389Y-139775500D01*
X81413390Y-139775500D01*
X81586610Y-139775500D01*
X81586611Y-139775500D01*
X81757701Y-139748402D01*
X81922445Y-139694873D01*
X82076788Y-139616232D01*
X82216928Y-139514414D01*
X82339414Y-139391928D01*
X82399682Y-139308975D01*
X82455012Y-139266311D01*
X82524626Y-139260332D01*
X82586421Y-139292938D01*
X82600315Y-139308973D01*
X82660586Y-139391928D01*
X82783072Y-139514414D01*
X82923212Y-139616232D01*
X83077555Y-139694873D01*
X83242299Y-139748402D01*
X83413389Y-139775500D01*
X83413390Y-139775500D01*
X83586610Y-139775500D01*
X83586611Y-139775500D01*
X83757701Y-139748402D01*
X83922445Y-139694873D01*
X84076788Y-139616232D01*
X84216928Y-139514414D01*
X84339414Y-139391928D01*
X84441232Y-139251788D01*
X84519873Y-139097445D01*
X84573402Y-138932701D01*
X84600500Y-138761611D01*
X84600500Y-138038389D01*
X84573402Y-137867299D01*
X84559653Y-137824983D01*
X99899500Y-137824983D01*
X99899500Y-139175001D01*
X99899501Y-139175018D01*
X99910000Y-139277796D01*
X99910001Y-139277799D01*
X99947821Y-139391930D01*
X99965186Y-139444334D01*
X100057288Y-139593656D01*
X100181344Y-139717712D01*
X100330666Y-139809814D01*
X100497203Y-139864999D01*
X100599991Y-139875500D01*
X101400008Y-139875499D01*
X101400016Y-139875498D01*
X101400019Y-139875498D01*
X101456302Y-139869748D01*
X101502797Y-139864999D01*
X101669334Y-139809814D01*
X101818656Y-139717712D01*
X101942712Y-139593656D01*
X101982581Y-139529016D01*
X102034525Y-139482294D01*
X102103488Y-139471071D01*
X102167570Y-139498914D01*
X102175799Y-139506434D01*
X102283397Y-139614032D01*
X102423475Y-139715804D01*
X102577744Y-139794408D01*
X102742415Y-139847914D01*
X102742414Y-139847914D01*
X102749999Y-139849115D01*
X102750000Y-139849114D01*
X102750000Y-138780330D01*
X102769745Y-138800075D01*
X102855255Y-138849444D01*
X102950630Y-138875000D01*
X103049370Y-138875000D01*
X103144745Y-138849444D01*
X103230255Y-138800075D01*
X103250000Y-138780330D01*
X103250000Y-139849115D01*
X103257584Y-139847914D01*
X103422255Y-139794408D01*
X103576524Y-139715804D01*
X103716602Y-139614032D01*
X103839036Y-139491598D01*
X103899371Y-139408552D01*
X103954700Y-139365886D01*
X104024313Y-139359905D01*
X104086109Y-139392510D01*
X104100008Y-139408550D01*
X104120587Y-139436874D01*
X104160586Y-139491928D01*
X104283072Y-139614414D01*
X104423212Y-139716232D01*
X104577555Y-139794873D01*
X104742299Y-139848402D01*
X104913389Y-139875500D01*
X104913390Y-139875500D01*
X105086610Y-139875500D01*
X105086611Y-139875500D01*
X105257701Y-139848402D01*
X105422445Y-139794873D01*
X105576788Y-139716232D01*
X105716928Y-139614414D01*
X105839414Y-139491928D01*
X105899682Y-139408975D01*
X105955012Y-139366311D01*
X106024626Y-139360332D01*
X106086421Y-139392938D01*
X106100315Y-139408973D01*
X106160586Y-139491928D01*
X106283072Y-139614414D01*
X106423212Y-139716232D01*
X106577555Y-139794873D01*
X106742299Y-139848402D01*
X106913389Y-139875500D01*
X106913390Y-139875500D01*
X107086610Y-139875500D01*
X107086611Y-139875500D01*
X107257701Y-139848402D01*
X107422445Y-139794873D01*
X107576788Y-139716232D01*
X107716928Y-139614414D01*
X107839414Y-139491928D01*
X107941232Y-139351788D01*
X108019873Y-139197445D01*
X108073402Y-139032701D01*
X108100500Y-138861611D01*
X108100500Y-138138389D01*
X108073402Y-137967299D01*
X108027160Y-137824983D01*
X122399500Y-137824983D01*
X122399500Y-139175001D01*
X122399501Y-139175018D01*
X122410000Y-139277796D01*
X122410001Y-139277799D01*
X122447821Y-139391930D01*
X122465186Y-139444334D01*
X122557288Y-139593656D01*
X122681344Y-139717712D01*
X122830666Y-139809814D01*
X122997203Y-139864999D01*
X123099991Y-139875500D01*
X123900008Y-139875499D01*
X123900016Y-139875498D01*
X123900019Y-139875498D01*
X123956302Y-139869748D01*
X124002797Y-139864999D01*
X124169334Y-139809814D01*
X124318656Y-139717712D01*
X124442712Y-139593656D01*
X124482581Y-139529016D01*
X124534525Y-139482294D01*
X124603488Y-139471071D01*
X124667570Y-139498914D01*
X124675799Y-139506434D01*
X124783397Y-139614032D01*
X124923475Y-139715804D01*
X125077744Y-139794408D01*
X125242415Y-139847914D01*
X125242414Y-139847914D01*
X125249999Y-139849115D01*
X125250000Y-139849114D01*
X125250000Y-138780330D01*
X125269745Y-138800075D01*
X125355255Y-138849444D01*
X125450630Y-138875000D01*
X125549370Y-138875000D01*
X125644745Y-138849444D01*
X125730255Y-138800075D01*
X125750000Y-138780330D01*
X125750000Y-139849115D01*
X125757584Y-139847914D01*
X125922255Y-139794408D01*
X126076524Y-139715804D01*
X126216602Y-139614032D01*
X126339036Y-139491598D01*
X126399371Y-139408552D01*
X126454700Y-139365886D01*
X126524313Y-139359905D01*
X126586109Y-139392510D01*
X126600008Y-139408550D01*
X126620587Y-139436874D01*
X126660586Y-139491928D01*
X126783072Y-139614414D01*
X126923212Y-139716232D01*
X127077555Y-139794873D01*
X127242299Y-139848402D01*
X127413389Y-139875500D01*
X127413390Y-139875500D01*
X127586610Y-139875500D01*
X127586611Y-139875500D01*
X127757701Y-139848402D01*
X127922445Y-139794873D01*
X128076788Y-139716232D01*
X128216928Y-139614414D01*
X128339414Y-139491928D01*
X128399682Y-139408975D01*
X128455012Y-139366311D01*
X128524626Y-139360332D01*
X128586421Y-139392938D01*
X128600315Y-139408973D01*
X128660586Y-139491928D01*
X128783072Y-139614414D01*
X128923212Y-139716232D01*
X129077555Y-139794873D01*
X129242299Y-139848402D01*
X129413389Y-139875500D01*
X129413390Y-139875500D01*
X129586610Y-139875500D01*
X129586611Y-139875500D01*
X129757701Y-139848402D01*
X129922445Y-139794873D01*
X130076788Y-139716232D01*
X130216928Y-139614414D01*
X130339414Y-139491928D01*
X130441232Y-139351788D01*
X130519873Y-139197445D01*
X130573402Y-139032701D01*
X130600500Y-138861611D01*
X130600500Y-138138389D01*
X130573402Y-137967299D01*
X130519873Y-137802555D01*
X130441232Y-137648212D01*
X130339414Y-137508072D01*
X130216928Y-137385586D01*
X130076788Y-137283768D01*
X129922445Y-137205127D01*
X129757701Y-137151598D01*
X129757699Y-137151597D01*
X129757698Y-137151597D01*
X129626271Y-137130781D01*
X129586611Y-137124500D01*
X129413389Y-137124500D01*
X129373728Y-137130781D01*
X129242302Y-137151597D01*
X129077552Y-137205128D01*
X128923211Y-137283768D01*
X128843256Y-137341859D01*
X128783072Y-137385586D01*
X128783070Y-137385588D01*
X128783069Y-137385588D01*
X128660588Y-137508069D01*
X128660581Y-137508078D01*
X128600317Y-137591023D01*
X128544987Y-137633689D01*
X128475374Y-137639667D01*
X128413579Y-137607061D01*
X128399683Y-137591023D01*
X128339418Y-137508078D01*
X128339414Y-137508072D01*
X128216928Y-137385586D01*
X128076788Y-137283768D01*
X127922445Y-137205127D01*
X127757701Y-137151598D01*
X127757699Y-137151597D01*
X127757698Y-137151597D01*
X127626271Y-137130781D01*
X127586611Y-137124500D01*
X127413389Y-137124500D01*
X127373728Y-137130781D01*
X127242302Y-137151597D01*
X127077552Y-137205128D01*
X126923211Y-137283768D01*
X126843256Y-137341859D01*
X126783072Y-137385586D01*
X126783070Y-137385588D01*
X126783069Y-137385588D01*
X126660585Y-137508072D01*
X126600007Y-137591450D01*
X126544677Y-137634115D01*
X126475063Y-137640093D01*
X126413269Y-137607486D01*
X126399371Y-137591447D01*
X126339036Y-137508401D01*
X126216602Y-137385967D01*
X126076524Y-137284195D01*
X125922257Y-137205591D01*
X125757589Y-137152087D01*
X125757581Y-137152085D01*
X125750000Y-137150884D01*
X125750000Y-138219670D01*
X125730255Y-138199925D01*
X125644745Y-138150556D01*
X125549370Y-138125000D01*
X125450630Y-138125000D01*
X125355255Y-138150556D01*
X125269745Y-138199925D01*
X125250000Y-138219670D01*
X125250000Y-137150884D01*
X125249999Y-137150884D01*
X125242418Y-137152085D01*
X125242410Y-137152087D01*
X125077742Y-137205591D01*
X124923475Y-137284195D01*
X124783401Y-137385964D01*
X124675799Y-137493566D01*
X124614476Y-137527050D01*
X124544784Y-137522066D01*
X124488851Y-137480194D01*
X124482585Y-137470988D01*
X124442712Y-137406344D01*
X124318656Y-137282288D01*
X124193559Y-137205128D01*
X124169336Y-137190187D01*
X124169331Y-137190185D01*
X124145499Y-137182288D01*
X124002797Y-137135001D01*
X124002795Y-137135000D01*
X123900010Y-137124500D01*
X123099998Y-137124500D01*
X123099980Y-137124501D01*
X122997203Y-137135000D01*
X122997200Y-137135001D01*
X122830668Y-137190185D01*
X122830663Y-137190187D01*
X122681342Y-137282289D01*
X122557289Y-137406342D01*
X122465187Y-137555663D01*
X122465185Y-137555668D01*
X122443138Y-137622203D01*
X122410001Y-137722203D01*
X122410001Y-137722204D01*
X122410000Y-137722204D01*
X122399500Y-137824983D01*
X108027160Y-137824983D01*
X108019873Y-137802555D01*
X107941232Y-137648212D01*
X107839414Y-137508072D01*
X107716928Y-137385586D01*
X107576788Y-137283768D01*
X107422445Y-137205127D01*
X107257701Y-137151598D01*
X107257699Y-137151597D01*
X107257698Y-137151597D01*
X107126271Y-137130781D01*
X107086611Y-137124500D01*
X106913389Y-137124500D01*
X106873728Y-137130781D01*
X106742302Y-137151597D01*
X106577552Y-137205128D01*
X106423211Y-137283768D01*
X106343256Y-137341859D01*
X106283072Y-137385586D01*
X106283070Y-137385588D01*
X106283069Y-137385588D01*
X106160588Y-137508069D01*
X106160581Y-137508078D01*
X106100317Y-137591023D01*
X106044987Y-137633689D01*
X105975374Y-137639667D01*
X105913579Y-137607061D01*
X105899683Y-137591023D01*
X105839418Y-137508078D01*
X105839414Y-137508072D01*
X105716928Y-137385586D01*
X105576788Y-137283768D01*
X105422445Y-137205127D01*
X105257701Y-137151598D01*
X105257699Y-137151597D01*
X105257698Y-137151597D01*
X105126271Y-137130781D01*
X105086611Y-137124500D01*
X104913389Y-137124500D01*
X104873728Y-137130781D01*
X104742302Y-137151597D01*
X104577552Y-137205128D01*
X104423211Y-137283768D01*
X104343256Y-137341859D01*
X104283072Y-137385586D01*
X104283070Y-137385588D01*
X104283069Y-137385588D01*
X104160585Y-137508072D01*
X104100007Y-137591450D01*
X104044677Y-137634115D01*
X103975063Y-137640093D01*
X103913269Y-137607486D01*
X103899371Y-137591447D01*
X103839036Y-137508401D01*
X103716602Y-137385967D01*
X103576524Y-137284195D01*
X103422257Y-137205591D01*
X103257589Y-137152087D01*
X103257581Y-137152085D01*
X103250000Y-137150884D01*
X103250000Y-138219670D01*
X103230255Y-138199925D01*
X103144745Y-138150556D01*
X103049370Y-138125000D01*
X102950630Y-138125000D01*
X102855255Y-138150556D01*
X102769745Y-138199925D01*
X102750000Y-138219670D01*
X102750000Y-137150884D01*
X102749999Y-137150884D01*
X102742418Y-137152085D01*
X102742410Y-137152087D01*
X102577742Y-137205591D01*
X102423475Y-137284195D01*
X102283401Y-137385964D01*
X102175799Y-137493566D01*
X102114476Y-137527050D01*
X102044784Y-137522066D01*
X101988851Y-137480194D01*
X101982585Y-137470988D01*
X101942712Y-137406344D01*
X101818656Y-137282288D01*
X101693559Y-137205128D01*
X101669336Y-137190187D01*
X101669331Y-137190185D01*
X101645499Y-137182288D01*
X101502797Y-137135001D01*
X101502795Y-137135000D01*
X101400010Y-137124500D01*
X100599998Y-137124500D01*
X100599980Y-137124501D01*
X100497203Y-137135000D01*
X100497200Y-137135001D01*
X100330668Y-137190185D01*
X100330663Y-137190187D01*
X100181342Y-137282289D01*
X100057289Y-137406342D01*
X99965187Y-137555663D01*
X99965185Y-137555668D01*
X99943138Y-137622203D01*
X99910001Y-137722203D01*
X99910001Y-137722204D01*
X99910000Y-137722204D01*
X99899500Y-137824983D01*
X84559653Y-137824983D01*
X84519873Y-137702555D01*
X84441232Y-137548212D01*
X84339414Y-137408072D01*
X84216928Y-137285586D01*
X84076788Y-137183768D01*
X83922445Y-137105127D01*
X83757701Y-137051598D01*
X83757699Y-137051597D01*
X83757698Y-137051597D01*
X83626271Y-137030781D01*
X83586611Y-137024500D01*
X83413389Y-137024500D01*
X83373728Y-137030781D01*
X83242302Y-137051597D01*
X83077552Y-137105128D01*
X82923211Y-137183768D01*
X82893175Y-137205591D01*
X82783072Y-137285586D01*
X82783070Y-137285588D01*
X82783069Y-137285588D01*
X82660588Y-137408069D01*
X82660581Y-137408078D01*
X82600317Y-137491023D01*
X82544987Y-137533689D01*
X82475374Y-137539667D01*
X82413579Y-137507061D01*
X82399683Y-137491023D01*
X82339418Y-137408078D01*
X82339414Y-137408072D01*
X82216928Y-137285586D01*
X82076788Y-137183768D01*
X81922445Y-137105127D01*
X81757701Y-137051598D01*
X81757699Y-137051597D01*
X81757698Y-137051597D01*
X81626271Y-137030781D01*
X81586611Y-137024500D01*
X81413389Y-137024500D01*
X81373728Y-137030781D01*
X81242302Y-137051597D01*
X81077552Y-137105128D01*
X80923211Y-137183768D01*
X80893175Y-137205591D01*
X80783072Y-137285586D01*
X80783070Y-137285588D01*
X80783069Y-137285588D01*
X80660585Y-137408072D01*
X80600007Y-137491450D01*
X80544677Y-137534115D01*
X80475063Y-137540093D01*
X80413269Y-137507486D01*
X80399371Y-137491447D01*
X80339036Y-137408401D01*
X80216602Y-137285967D01*
X80076524Y-137184195D01*
X79922257Y-137105591D01*
X79757589Y-137052087D01*
X79757581Y-137052085D01*
X79750000Y-137050884D01*
X79750000Y-138119670D01*
X79730255Y-138099925D01*
X79644745Y-138050556D01*
X79549370Y-138025000D01*
X79450630Y-138025000D01*
X79355255Y-138050556D01*
X79269745Y-138099925D01*
X79250000Y-138119670D01*
X79250000Y-137050884D01*
X79249999Y-137050884D01*
X79242418Y-137052085D01*
X79242410Y-137052087D01*
X79077742Y-137105591D01*
X78923475Y-137184195D01*
X78783401Y-137285964D01*
X78675799Y-137393566D01*
X78614476Y-137427050D01*
X78544784Y-137422066D01*
X78488851Y-137380194D01*
X78482585Y-137370988D01*
X78442712Y-137306344D01*
X78318656Y-137182288D01*
X78193559Y-137105128D01*
X78169336Y-137090187D01*
X78169331Y-137090185D01*
X78167862Y-137089698D01*
X78002797Y-137035001D01*
X78002795Y-137035000D01*
X77900010Y-137024500D01*
X77099998Y-137024500D01*
X77099980Y-137024501D01*
X76997203Y-137035000D01*
X76997200Y-137035001D01*
X76830668Y-137090185D01*
X76830663Y-137090187D01*
X76681342Y-137182289D01*
X76557289Y-137306342D01*
X76465187Y-137455663D01*
X76465185Y-137455668D01*
X76447821Y-137508069D01*
X76410001Y-137622203D01*
X76410001Y-137622204D01*
X76410000Y-137622204D01*
X76399500Y-137724983D01*
X68500000Y-137724983D01*
X68500000Y-132999998D01*
X145761430Y-132999998D01*
X145761430Y-133000000D01*
X145781402Y-133298368D01*
X145781404Y-133298378D01*
X145840968Y-133591422D01*
X145939060Y-133873915D01*
X145939062Y-133873918D01*
X146073926Y-134140807D01*
X146073929Y-134140812D01*
X146073930Y-134140813D01*
X146243171Y-134387354D01*
X146243173Y-134387356D01*
X146243175Y-134387359D01*
X146346494Y-134501592D01*
X146443763Y-134609137D01*
X146672125Y-134802206D01*
X146924184Y-134963114D01*
X146924187Y-134963115D01*
X146924188Y-134963116D01*
X147069588Y-135030589D01*
X147195440Y-135088991D01*
X147481054Y-135177589D01*
X147775929Y-135227328D01*
X148074802Y-135237320D01*
X148372340Y-135207388D01*
X148663234Y-135138064D01*
X148942292Y-135030587D01*
X149204535Y-134886874D01*
X149445283Y-134709489D01*
X149660241Y-134501599D01*
X149845571Y-134266912D01*
X149997966Y-134009618D01*
X150114708Y-133734307D01*
X150193713Y-133445892D01*
X150233572Y-133149520D01*
X150236068Y-133000000D01*
X150233572Y-132850480D01*
X150193713Y-132554108D01*
X150114708Y-132265693D01*
X149997966Y-131990382D01*
X149845571Y-131733088D01*
X149750459Y-131612646D01*
X149660246Y-131498407D01*
X149660240Y-131498400D01*
X149445290Y-131290518D01*
X149445283Y-131290511D01*
X149204535Y-131113126D01*
X148942292Y-130969413D01*
X148942290Y-130969412D01*
X148942285Y-130969410D01*
X148663239Y-130861938D01*
X148663241Y-130861938D01*
X148663234Y-130861936D01*
X148663232Y-130861935D01*
X148663225Y-130861933D01*
X148372340Y-130792612D01*
X148372338Y-130792611D01*
X148074806Y-130762680D01*
X148074802Y-130762680D01*
X147775929Y-130772672D01*
X147481053Y-130822411D01*
X147195443Y-130911008D01*
X147195427Y-130911014D01*
X146924188Y-131036883D01*
X146672128Y-131197791D01*
X146443764Y-131390861D01*
X146243175Y-131612640D01*
X146073926Y-131859192D01*
X145939062Y-132126081D01*
X145939060Y-132126084D01*
X145840968Y-132408577D01*
X145781404Y-132701621D01*
X145781402Y-132701631D01*
X145761430Y-132999998D01*
X68500000Y-132999998D01*
X68500000Y-126886335D01*
X74911500Y-126886335D01*
X74911500Y-128982070D01*
X74911501Y-128982076D01*
X74917908Y-129041683D01*
X74968202Y-129176528D01*
X74968206Y-129176535D01*
X75054452Y-129291744D01*
X75054455Y-129291747D01*
X75169664Y-129377993D01*
X75169671Y-129377997D01*
X75304517Y-129428291D01*
X75304516Y-129428291D01*
X75311444Y-129429035D01*
X75364127Y-129434700D01*
X77459872Y-129434699D01*
X77519483Y-129428291D01*
X77654331Y-129377996D01*
X77769546Y-129291746D01*
X77855796Y-129176531D01*
X77858765Y-129168568D01*
X77900631Y-129112634D01*
X77966094Y-129088213D01*
X78034368Y-129103059D01*
X78051111Y-129114043D01*
X78154162Y-129194251D01*
X78154171Y-129194257D01*
X78372785Y-129312564D01*
X78372796Y-129312569D01*
X78607906Y-129393283D01*
X78853107Y-129434200D01*
X79101693Y-129434200D01*
X79346893Y-129393283D01*
X79582003Y-129312569D01*
X79582014Y-129312564D01*
X79800628Y-129194257D01*
X79800631Y-129194255D01*
X79847456Y-129157809D01*
X79106809Y-128417162D01*
X79170393Y-128400125D01*
X79284407Y-128334299D01*
X79377499Y-128241207D01*
X79443325Y-128127193D01*
X79460362Y-128063609D01*
X80205198Y-128808446D01*
X80257186Y-128818027D01*
X80299488Y-128855877D01*
X80300690Y-128854942D01*
X80303834Y-128858982D01*
X80303836Y-128858985D01*
X80472256Y-129041938D01*
X80668491Y-129194674D01*
X80668493Y-129194675D01*
X80886332Y-129312564D01*
X80887190Y-129313028D01*
X81076426Y-129377993D01*
X81120964Y-129393283D01*
X81122386Y-129393771D01*
X81367665Y-129434700D01*
X81616335Y-129434700D01*
X81861614Y-129393771D01*
X82096810Y-129313028D01*
X82315509Y-129194674D01*
X82511744Y-129041938D01*
X82670771Y-128869188D01*
X82730657Y-128833199D01*
X82800495Y-128835299D01*
X82853228Y-128869188D01*
X83012256Y-129041938D01*
X83208491Y-129194674D01*
X83208493Y-129194675D01*
X83426332Y-129312564D01*
X83427190Y-129313028D01*
X83616426Y-129377993D01*
X83660964Y-129393283D01*
X83662386Y-129393771D01*
X83907665Y-129434700D01*
X84156335Y-129434700D01*
X84401614Y-129393771D01*
X84636810Y-129313028D01*
X84855509Y-129194674D01*
X85051744Y-129041938D01*
X85210771Y-128869188D01*
X85270657Y-128833199D01*
X85340495Y-128835299D01*
X85393228Y-128869188D01*
X85552256Y-129041938D01*
X85748491Y-129194674D01*
X85748493Y-129194675D01*
X85966332Y-129312564D01*
X85967190Y-129313028D01*
X86156426Y-129377993D01*
X86200964Y-129393283D01*
X86202386Y-129393771D01*
X86447665Y-129434700D01*
X86696335Y-129434700D01*
X86941614Y-129393771D01*
X87176810Y-129313028D01*
X87395509Y-129194674D01*
X87591744Y-129041938D01*
X87760164Y-128858985D01*
X87760165Y-128858982D01*
X87763470Y-128855393D01*
X87823357Y-128819403D01*
X87893195Y-128821503D01*
X87945930Y-128855393D01*
X87949234Y-128858982D01*
X87949236Y-128858985D01*
X88117656Y-129041938D01*
X88313891Y-129194674D01*
X88313893Y-129194675D01*
X88531732Y-129312564D01*
X88532590Y-129313028D01*
X88721826Y-129377993D01*
X88766364Y-129393283D01*
X88767786Y-129393771D01*
X89013065Y-129434700D01*
X89261735Y-129434700D01*
X89507014Y-129393771D01*
X89742210Y-129313028D01*
X89960909Y-129194674D01*
X90157144Y-129041938D01*
X90325564Y-128858985D01*
X90461573Y-128650807D01*
X90561463Y-128423081D01*
X90622508Y-128182021D01*
X90643043Y-127934200D01*
X90639452Y-127890866D01*
X90622509Y-127686387D01*
X90622507Y-127686375D01*
X90561463Y-127445318D01*
X90461573Y-127217593D01*
X90325566Y-127009417D01*
X90303957Y-126985944D01*
X90212261Y-126886335D01*
X98411500Y-126886335D01*
X98411500Y-128982070D01*
X98411501Y-128982076D01*
X98417908Y-129041683D01*
X98468202Y-129176528D01*
X98468206Y-129176535D01*
X98554452Y-129291744D01*
X98554455Y-129291747D01*
X98669664Y-129377993D01*
X98669671Y-129377997D01*
X98804517Y-129428291D01*
X98804516Y-129428291D01*
X98811444Y-129429035D01*
X98864127Y-129434700D01*
X100959872Y-129434699D01*
X101019483Y-129428291D01*
X101154331Y-129377996D01*
X101269546Y-129291746D01*
X101355796Y-129176531D01*
X101358765Y-129168568D01*
X101400631Y-129112634D01*
X101466094Y-129088213D01*
X101534368Y-129103059D01*
X101551111Y-129114043D01*
X101654162Y-129194251D01*
X101654171Y-129194257D01*
X101872785Y-129312564D01*
X101872796Y-129312569D01*
X102107906Y-129393283D01*
X102353107Y-129434200D01*
X102601693Y-129434200D01*
X102846893Y-129393283D01*
X103082003Y-129312569D01*
X103082014Y-129312564D01*
X103300628Y-129194257D01*
X103300631Y-129194255D01*
X103347456Y-129157809D01*
X102606809Y-128417162D01*
X102670393Y-128400125D01*
X102784407Y-128334299D01*
X102877499Y-128241207D01*
X102943325Y-128127193D01*
X102960362Y-128063610D01*
X103705198Y-128808446D01*
X103757186Y-128818027D01*
X103799488Y-128855877D01*
X103800690Y-128854942D01*
X103803834Y-128858982D01*
X103803836Y-128858985D01*
X103972256Y-129041938D01*
X104168491Y-129194674D01*
X104168493Y-129194675D01*
X104386332Y-129312564D01*
X104387190Y-129313028D01*
X104576426Y-129377993D01*
X104620964Y-129393283D01*
X104622386Y-129393771D01*
X104867665Y-129434700D01*
X105116335Y-129434700D01*
X105361614Y-129393771D01*
X105596810Y-129313028D01*
X105815509Y-129194674D01*
X106011744Y-129041938D01*
X106170771Y-128869188D01*
X106230657Y-128833199D01*
X106300495Y-128835299D01*
X106353228Y-128869188D01*
X106512256Y-129041938D01*
X106708491Y-129194674D01*
X106708493Y-129194675D01*
X106926332Y-129312564D01*
X106927190Y-129313028D01*
X107116426Y-129377993D01*
X107160964Y-129393283D01*
X107162386Y-129393771D01*
X107407665Y-129434700D01*
X107656335Y-129434700D01*
X107901614Y-129393771D01*
X108136810Y-129313028D01*
X108355509Y-129194674D01*
X108551744Y-129041938D01*
X108710771Y-128869188D01*
X108770657Y-128833199D01*
X108840495Y-128835299D01*
X108893228Y-128869188D01*
X109052256Y-129041938D01*
X109248491Y-129194674D01*
X109248493Y-129194675D01*
X109466332Y-129312564D01*
X109467190Y-129313028D01*
X109656426Y-129377993D01*
X109700964Y-129393283D01*
X109702386Y-129393771D01*
X109947665Y-129434700D01*
X110196335Y-129434700D01*
X110441614Y-129393771D01*
X110676810Y-129313028D01*
X110895509Y-129194674D01*
X111091744Y-129041938D01*
X111260164Y-128858985D01*
X111260165Y-128858982D01*
X111263470Y-128855393D01*
X111323357Y-128819403D01*
X111393195Y-128821503D01*
X111445930Y-128855393D01*
X111449234Y-128858982D01*
X111449236Y-128858985D01*
X111617656Y-129041938D01*
X111813891Y-129194674D01*
X111813893Y-129194675D01*
X112031732Y-129312564D01*
X112032590Y-129313028D01*
X112221826Y-129377993D01*
X112266364Y-129393283D01*
X112267786Y-129393771D01*
X112513065Y-129434700D01*
X112761735Y-129434700D01*
X113007014Y-129393771D01*
X113242210Y-129313028D01*
X113460909Y-129194674D01*
X113657144Y-129041938D01*
X113825564Y-128858985D01*
X113961573Y-128650807D01*
X114061463Y-128423081D01*
X114122508Y-128182021D01*
X114143043Y-127934200D01*
X114139452Y-127890866D01*
X114122509Y-127686387D01*
X114122507Y-127686375D01*
X114061463Y-127445318D01*
X113961573Y-127217593D01*
X113825566Y-127009417D01*
X113803957Y-126985944D01*
X113712261Y-126886335D01*
X120911500Y-126886335D01*
X120911500Y-128982070D01*
X120911501Y-128982076D01*
X120917908Y-129041683D01*
X120968202Y-129176528D01*
X120968206Y-129176535D01*
X121054452Y-129291744D01*
X121054455Y-129291747D01*
X121169664Y-129377993D01*
X121169671Y-129377997D01*
X121304517Y-129428291D01*
X121304516Y-129428291D01*
X121311444Y-129429035D01*
X121364127Y-129434700D01*
X123459872Y-129434699D01*
X123519483Y-129428291D01*
X123654331Y-129377996D01*
X123769546Y-129291746D01*
X123855796Y-129176531D01*
X123858765Y-129168568D01*
X123900631Y-129112634D01*
X123966094Y-129088213D01*
X124034368Y-129103059D01*
X124051111Y-129114043D01*
X124154162Y-129194251D01*
X124154171Y-129194257D01*
X124372785Y-129312564D01*
X124372796Y-129312569D01*
X124607906Y-129393283D01*
X124853107Y-129434200D01*
X125101693Y-129434200D01*
X125346893Y-129393283D01*
X125582003Y-129312569D01*
X125582014Y-129312564D01*
X125800628Y-129194257D01*
X125800631Y-129194255D01*
X125847456Y-129157809D01*
X125106809Y-128417162D01*
X125170393Y-128400125D01*
X125284407Y-128334299D01*
X125377499Y-128241207D01*
X125443325Y-128127193D01*
X125460362Y-128063610D01*
X126205198Y-128808446D01*
X126257186Y-128818027D01*
X126299488Y-128855877D01*
X126300690Y-128854942D01*
X126303834Y-128858982D01*
X126303836Y-128858985D01*
X126472256Y-129041938D01*
X126668491Y-129194674D01*
X126668493Y-129194675D01*
X126886332Y-129312564D01*
X126887190Y-129313028D01*
X127076426Y-129377993D01*
X127120964Y-129393283D01*
X127122386Y-129393771D01*
X127367665Y-129434700D01*
X127616335Y-129434700D01*
X127861614Y-129393771D01*
X128096810Y-129313028D01*
X128315509Y-129194674D01*
X128511744Y-129041938D01*
X128670771Y-128869188D01*
X128730657Y-128833199D01*
X128800495Y-128835299D01*
X128853228Y-128869188D01*
X129012256Y-129041938D01*
X129208491Y-129194674D01*
X129208493Y-129194675D01*
X129426332Y-129312564D01*
X129427190Y-129313028D01*
X129616426Y-129377993D01*
X129660964Y-129393283D01*
X129662386Y-129393771D01*
X129907665Y-129434700D01*
X130156335Y-129434700D01*
X130401614Y-129393771D01*
X130636810Y-129313028D01*
X130855509Y-129194674D01*
X131051744Y-129041938D01*
X131210771Y-128869188D01*
X131270657Y-128833199D01*
X131340495Y-128835299D01*
X131393228Y-128869188D01*
X131552256Y-129041938D01*
X131748491Y-129194674D01*
X131748493Y-129194675D01*
X131966332Y-129312564D01*
X131967190Y-129313028D01*
X132156426Y-129377993D01*
X132200964Y-129393283D01*
X132202386Y-129393771D01*
X132447665Y-129434700D01*
X132696335Y-129434700D01*
X132941614Y-129393771D01*
X133176810Y-129313028D01*
X133395509Y-129194674D01*
X133591744Y-129041938D01*
X133760164Y-128858985D01*
X133760165Y-128858982D01*
X133763470Y-128855393D01*
X133823357Y-128819403D01*
X133893195Y-128821503D01*
X133945930Y-128855393D01*
X133949234Y-128858982D01*
X133949236Y-128858985D01*
X134117656Y-129041938D01*
X134313891Y-129194674D01*
X134313893Y-129194675D01*
X134531732Y-129312564D01*
X134532590Y-129313028D01*
X134721826Y-129377993D01*
X134766364Y-129393283D01*
X134767786Y-129393771D01*
X135013065Y-129434700D01*
X135261735Y-129434700D01*
X135507014Y-129393771D01*
X135742210Y-129313028D01*
X135960909Y-129194674D01*
X136157144Y-129041938D01*
X136325564Y-128858985D01*
X136461573Y-128650807D01*
X136561463Y-128423081D01*
X136622508Y-128182021D01*
X136643043Y-127934200D01*
X136639452Y-127890866D01*
X136622509Y-127686387D01*
X136622507Y-127686375D01*
X136561463Y-127445318D01*
X136461573Y-127217593D01*
X136325566Y-127009417D01*
X136303957Y-126985944D01*
X136157144Y-126826462D01*
X135960909Y-126673726D01*
X135960907Y-126673725D01*
X135960906Y-126673724D01*
X135742211Y-126555372D01*
X135742202Y-126555369D01*
X135507016Y-126474629D01*
X135261735Y-126433700D01*
X135013065Y-126433700D01*
X134767783Y-126474629D01*
X134532597Y-126555369D01*
X134532588Y-126555372D01*
X134313893Y-126673724D01*
X134117657Y-126826461D01*
X133945930Y-127013006D01*
X133886042Y-127048997D01*
X133816204Y-127046896D01*
X133763470Y-127013006D01*
X133730799Y-126977516D01*
X133591744Y-126826462D01*
X133395509Y-126673726D01*
X133395507Y-126673725D01*
X133395506Y-126673724D01*
X133176811Y-126555372D01*
X133176802Y-126555369D01*
X132941616Y-126474629D01*
X132696335Y-126433700D01*
X132447665Y-126433700D01*
X132202383Y-126474629D01*
X131967197Y-126555369D01*
X131967188Y-126555372D01*
X131748493Y-126673724D01*
X131552257Y-126826461D01*
X131393230Y-126999210D01*
X131333342Y-127035201D01*
X131263504Y-127033100D01*
X131210770Y-126999210D01*
X131171108Y-126956126D01*
X131051744Y-126826462D01*
X130855509Y-126673726D01*
X130855507Y-126673725D01*
X130855506Y-126673724D01*
X130636811Y-126555372D01*
X130636802Y-126555369D01*
X130401616Y-126474629D01*
X130156335Y-126433700D01*
X129907665Y-126433700D01*
X129662383Y-126474629D01*
X129427197Y-126555369D01*
X129427188Y-126555372D01*
X129208493Y-126673724D01*
X129012257Y-126826461D01*
X128853230Y-126999210D01*
X128793342Y-127035201D01*
X128723504Y-127033100D01*
X128670770Y-126999210D01*
X128631108Y-126956126D01*
X128511744Y-126826462D01*
X128315509Y-126673726D01*
X128315507Y-126673725D01*
X128315506Y-126673724D01*
X128096811Y-126555372D01*
X128096802Y-126555369D01*
X127861616Y-126474629D01*
X127616335Y-126433700D01*
X127367665Y-126433700D01*
X127122383Y-126474629D01*
X126887197Y-126555369D01*
X126887188Y-126555372D01*
X126668493Y-126673724D01*
X126472257Y-126826461D01*
X126303832Y-127009418D01*
X126300685Y-127013463D01*
X126299343Y-127012419D01*
X126251896Y-127052889D01*
X126204713Y-127060437D01*
X125460362Y-127804789D01*
X125443325Y-127741207D01*
X125377499Y-127627193D01*
X125284407Y-127534101D01*
X125170393Y-127468275D01*
X125106809Y-127451237D01*
X125847457Y-126710589D01*
X125800629Y-126674143D01*
X125582014Y-126555835D01*
X125582003Y-126555830D01*
X125346893Y-126475116D01*
X125101693Y-126434200D01*
X124853107Y-126434200D01*
X124607906Y-126475116D01*
X124372796Y-126555830D01*
X124372785Y-126555835D01*
X124154171Y-126674142D01*
X124154162Y-126674148D01*
X124051112Y-126754356D01*
X123986118Y-126779999D01*
X123917578Y-126766432D01*
X123867254Y-126717964D01*
X123858768Y-126699837D01*
X123855796Y-126691869D01*
X123855793Y-126691864D01*
X123769547Y-126576655D01*
X123769544Y-126576652D01*
X123654335Y-126490406D01*
X123654328Y-126490402D01*
X123519482Y-126440108D01*
X123519483Y-126440108D01*
X123459883Y-126433701D01*
X123459881Y-126433700D01*
X123459873Y-126433700D01*
X123459864Y-126433700D01*
X121364129Y-126433700D01*
X121364123Y-126433701D01*
X121304516Y-126440108D01*
X121169671Y-126490402D01*
X121169664Y-126490406D01*
X121054455Y-126576652D01*
X121054452Y-126576655D01*
X120968206Y-126691864D01*
X120968202Y-126691871D01*
X120917908Y-126826717D01*
X120911501Y-126886316D01*
X120911500Y-126886335D01*
X113712261Y-126886335D01*
X113657144Y-126826462D01*
X113460909Y-126673726D01*
X113460907Y-126673725D01*
X113460906Y-126673724D01*
X113242211Y-126555372D01*
X113242202Y-126555369D01*
X113007016Y-126474629D01*
X112761735Y-126433700D01*
X112513065Y-126433700D01*
X112267783Y-126474629D01*
X112032597Y-126555369D01*
X112032588Y-126555372D01*
X111813893Y-126673724D01*
X111617657Y-126826461D01*
X111445930Y-127013006D01*
X111386042Y-127048997D01*
X111316204Y-127046896D01*
X111263470Y-127013006D01*
X111230799Y-126977516D01*
X111091744Y-126826462D01*
X110895509Y-126673726D01*
X110895507Y-126673725D01*
X110895506Y-126673724D01*
X110676811Y-126555372D01*
X110676802Y-126555369D01*
X110441616Y-126474629D01*
X110196335Y-126433700D01*
X109947665Y-126433700D01*
X109702383Y-126474629D01*
X109467197Y-126555369D01*
X109467188Y-126555372D01*
X109248493Y-126673724D01*
X109052257Y-126826461D01*
X108893230Y-126999210D01*
X108833342Y-127035201D01*
X108763504Y-127033100D01*
X108710770Y-126999210D01*
X108671108Y-126956126D01*
X108551744Y-126826462D01*
X108355509Y-126673726D01*
X108355507Y-126673725D01*
X108355506Y-126673724D01*
X108136811Y-126555372D01*
X108136802Y-126555369D01*
X107901616Y-126474629D01*
X107656335Y-126433700D01*
X107407665Y-126433700D01*
X107162383Y-126474629D01*
X106927197Y-126555369D01*
X106927188Y-126555372D01*
X106708493Y-126673724D01*
X106512257Y-126826461D01*
X106353230Y-126999210D01*
X106293342Y-127035201D01*
X106223504Y-127033100D01*
X106170770Y-126999210D01*
X106131108Y-126956126D01*
X106011744Y-126826462D01*
X105815509Y-126673726D01*
X105815507Y-126673725D01*
X105815506Y-126673724D01*
X105596811Y-126555372D01*
X105596802Y-126555369D01*
X105361616Y-126474629D01*
X105116335Y-126433700D01*
X104867665Y-126433700D01*
X104622383Y-126474629D01*
X104387197Y-126555369D01*
X104387188Y-126555372D01*
X104168493Y-126673724D01*
X103972257Y-126826461D01*
X103803832Y-127009418D01*
X103800685Y-127013463D01*
X103799343Y-127012419D01*
X103751896Y-127052889D01*
X103704713Y-127060437D01*
X102960362Y-127804789D01*
X102943325Y-127741207D01*
X102877499Y-127627193D01*
X102784407Y-127534101D01*
X102670393Y-127468275D01*
X102606809Y-127451237D01*
X103347457Y-126710589D01*
X103300629Y-126674143D01*
X103082014Y-126555835D01*
X103082003Y-126555830D01*
X102846893Y-126475116D01*
X102601693Y-126434200D01*
X102353107Y-126434200D01*
X102107906Y-126475116D01*
X101872796Y-126555830D01*
X101872785Y-126555835D01*
X101654171Y-126674142D01*
X101654162Y-126674148D01*
X101551112Y-126754356D01*
X101486118Y-126779999D01*
X101417578Y-126766432D01*
X101367254Y-126717964D01*
X101358768Y-126699837D01*
X101355796Y-126691869D01*
X101355793Y-126691864D01*
X101269547Y-126576655D01*
X101269544Y-126576652D01*
X101154335Y-126490406D01*
X101154328Y-126490402D01*
X101019482Y-126440108D01*
X101019483Y-126440108D01*
X100959883Y-126433701D01*
X100959881Y-126433700D01*
X100959873Y-126433700D01*
X100959864Y-126433700D01*
X98864129Y-126433700D01*
X98864123Y-126433701D01*
X98804516Y-126440108D01*
X98669671Y-126490402D01*
X98669664Y-126490406D01*
X98554455Y-126576652D01*
X98554452Y-126576655D01*
X98468206Y-126691864D01*
X98468202Y-126691871D01*
X98417908Y-126826717D01*
X98411501Y-126886316D01*
X98411500Y-126886335D01*
X90212261Y-126886335D01*
X90157144Y-126826462D01*
X89960909Y-126673726D01*
X89960907Y-126673725D01*
X89960906Y-126673724D01*
X89742211Y-126555372D01*
X89742202Y-126555369D01*
X89507016Y-126474629D01*
X89261735Y-126433700D01*
X89013065Y-126433700D01*
X88767783Y-126474629D01*
X88532597Y-126555369D01*
X88532588Y-126555372D01*
X88313893Y-126673724D01*
X88117657Y-126826461D01*
X87945930Y-127013006D01*
X87886042Y-127048997D01*
X87816204Y-127046896D01*
X87763470Y-127013006D01*
X87730799Y-126977516D01*
X87591744Y-126826462D01*
X87395509Y-126673726D01*
X87395507Y-126673725D01*
X87395506Y-126673724D01*
X87176811Y-126555372D01*
X87176802Y-126555369D01*
X86941616Y-126474629D01*
X86696335Y-126433700D01*
X86447665Y-126433700D01*
X86202383Y-126474629D01*
X85967197Y-126555369D01*
X85967188Y-126555372D01*
X85748493Y-126673724D01*
X85552257Y-126826461D01*
X85393230Y-126999210D01*
X85333342Y-127035201D01*
X85263504Y-127033100D01*
X85210770Y-126999210D01*
X85171108Y-126956126D01*
X85051744Y-126826462D01*
X84855509Y-126673726D01*
X84855507Y-126673725D01*
X84855506Y-126673724D01*
X84636811Y-126555372D01*
X84636802Y-126555369D01*
X84401616Y-126474629D01*
X84156335Y-126433700D01*
X83907665Y-126433700D01*
X83662383Y-126474629D01*
X83427197Y-126555369D01*
X83427188Y-126555372D01*
X83208493Y-126673724D01*
X83012257Y-126826461D01*
X82853230Y-126999210D01*
X82793342Y-127035201D01*
X82723504Y-127033100D01*
X82670770Y-126999210D01*
X82631108Y-126956126D01*
X82511744Y-126826462D01*
X82315509Y-126673726D01*
X82315507Y-126673725D01*
X82315506Y-126673724D01*
X82096811Y-126555372D01*
X82096802Y-126555369D01*
X81861616Y-126474629D01*
X81616335Y-126433700D01*
X81367665Y-126433700D01*
X81122383Y-126474629D01*
X80887197Y-126555369D01*
X80887188Y-126555372D01*
X80668493Y-126673724D01*
X80472257Y-126826461D01*
X80303832Y-127009418D01*
X80300685Y-127013463D01*
X80299343Y-127012419D01*
X80251896Y-127052889D01*
X80204713Y-127060437D01*
X79460362Y-127804789D01*
X79443325Y-127741207D01*
X79377499Y-127627193D01*
X79284407Y-127534101D01*
X79170393Y-127468275D01*
X79106809Y-127451237D01*
X79847457Y-126710589D01*
X79800629Y-126674143D01*
X79582014Y-126555835D01*
X79582003Y-126555830D01*
X79346893Y-126475116D01*
X79101693Y-126434200D01*
X78853107Y-126434200D01*
X78607906Y-126475116D01*
X78372796Y-126555830D01*
X78372785Y-126555835D01*
X78154171Y-126674142D01*
X78154162Y-126674148D01*
X78051112Y-126754356D01*
X77986118Y-126779999D01*
X77917578Y-126766432D01*
X77867254Y-126717964D01*
X77858768Y-126699837D01*
X77855796Y-126691869D01*
X77855793Y-126691864D01*
X77769547Y-126576655D01*
X77769544Y-126576652D01*
X77654335Y-126490406D01*
X77654328Y-126490402D01*
X77519482Y-126440108D01*
X77519483Y-126440108D01*
X77459883Y-126433701D01*
X77459881Y-126433700D01*
X77459873Y-126433700D01*
X77459864Y-126433700D01*
X75364129Y-126433700D01*
X75364123Y-126433701D01*
X75304516Y-126440108D01*
X75169671Y-126490402D01*
X75169664Y-126490406D01*
X75054455Y-126576652D01*
X75054452Y-126576655D01*
X74968206Y-126691864D01*
X74968202Y-126691871D01*
X74917908Y-126826717D01*
X74911501Y-126886316D01*
X74911500Y-126886335D01*
X68500000Y-126886335D01*
X68500000Y-93999998D01*
X71761430Y-93999998D01*
X71761430Y-94000000D01*
X71781402Y-94298368D01*
X71781404Y-94298378D01*
X71840968Y-94591422D01*
X71939060Y-94873915D01*
X71939062Y-94873918D01*
X72073926Y-95140807D01*
X72073929Y-95140812D01*
X72073930Y-95140813D01*
X72243171Y-95387354D01*
X72243173Y-95387356D01*
X72243175Y-95387359D01*
X72346494Y-95501592D01*
X72443763Y-95609137D01*
X72672125Y-95802206D01*
X72924184Y-95963114D01*
X72924187Y-95963115D01*
X72924188Y-95963116D01*
X73069588Y-96030589D01*
X73195440Y-96088991D01*
X73481054Y-96177589D01*
X73775929Y-96227328D01*
X74074802Y-96237320D01*
X74372340Y-96207388D01*
X74663234Y-96138064D01*
X74942292Y-96030587D01*
X75204535Y-95886874D01*
X75445283Y-95709489D01*
X75660241Y-95501599D01*
X75845571Y-95266912D01*
X75997966Y-95009618D01*
X76114708Y-94734307D01*
X76193713Y-94445892D01*
X76233572Y-94149520D01*
X76236068Y-94000000D01*
X76233572Y-93850480D01*
X76193713Y-93554108D01*
X76118315Y-93278860D01*
X76114710Y-93265700D01*
X76114710Y-93265699D01*
X76114708Y-93265696D01*
X76114708Y-93265693D01*
X75997966Y-92990382D01*
X75845571Y-92733088D01*
X75778239Y-92647824D01*
X75660246Y-92498407D01*
X75660240Y-92498400D01*
X75558500Y-92400005D01*
X75445283Y-92290511D01*
X75204535Y-92113126D01*
X74942292Y-91969413D01*
X74942290Y-91969412D01*
X74942285Y-91969410D01*
X74663239Y-91861938D01*
X74663241Y-91861938D01*
X74663234Y-91861936D01*
X74663232Y-91861935D01*
X74663225Y-91861933D01*
X74372340Y-91792612D01*
X74372338Y-91792611D01*
X74074806Y-91762680D01*
X74074802Y-91762680D01*
X73775929Y-91772672D01*
X73481053Y-91822411D01*
X73195443Y-91911008D01*
X73195427Y-91911014D01*
X72924188Y-92036883D01*
X72672128Y-92197791D01*
X72443764Y-92390861D01*
X72243175Y-92612640D01*
X72073926Y-92859192D01*
X71939062Y-93126081D01*
X71939060Y-93126084D01*
X71840968Y-93408577D01*
X71781404Y-93701621D01*
X71781402Y-93701631D01*
X71761430Y-93999998D01*
X68500000Y-93999998D01*
X68500000Y-85435735D01*
X74729700Y-85435735D01*
X74729700Y-87531470D01*
X74729701Y-87531476D01*
X74736108Y-87591083D01*
X74786402Y-87725928D01*
X74786406Y-87725935D01*
X74872652Y-87841144D01*
X74872655Y-87841147D01*
X74987864Y-87927393D01*
X74987871Y-87927397D01*
X75122717Y-87977691D01*
X75122716Y-87977691D01*
X75129644Y-87978435D01*
X75182327Y-87984100D01*
X77278072Y-87984099D01*
X77337683Y-87977691D01*
X77472531Y-87927396D01*
X77587746Y-87841146D01*
X77673996Y-87725931D01*
X77673997Y-87725926D01*
X77678247Y-87718146D01*
X77681488Y-87719916D01*
X77712741Y-87677993D01*
X77778156Y-87653444D01*
X77846459Y-87668158D01*
X77863412Y-87679255D01*
X77946691Y-87744074D01*
X78126066Y-87841147D01*
X78164532Y-87861964D01*
X78165390Y-87862428D01*
X78354626Y-87927393D01*
X78399164Y-87942683D01*
X78400586Y-87943171D01*
X78645865Y-87984100D01*
X78894535Y-87984100D01*
X79139814Y-87943171D01*
X79375010Y-87862428D01*
X79593709Y-87744074D01*
X79789944Y-87591338D01*
X79948971Y-87418588D01*
X80008857Y-87382599D01*
X80078695Y-87384699D01*
X80131428Y-87418588D01*
X80290456Y-87591338D01*
X80486691Y-87744074D01*
X80486693Y-87744075D01*
X80704532Y-87861964D01*
X80705390Y-87862428D01*
X80894626Y-87927393D01*
X80939164Y-87942683D01*
X80940586Y-87943171D01*
X81185865Y-87984100D01*
X81434535Y-87984100D01*
X81679814Y-87943171D01*
X81915010Y-87862428D01*
X82133709Y-87744074D01*
X82329944Y-87591338D01*
X82488971Y-87418588D01*
X82548857Y-87382599D01*
X82618695Y-87384699D01*
X82671428Y-87418588D01*
X82830456Y-87591338D01*
X83026691Y-87744074D01*
X83026693Y-87744075D01*
X83244532Y-87861964D01*
X83245390Y-87862428D01*
X83434626Y-87927393D01*
X83479164Y-87942683D01*
X83480586Y-87943171D01*
X83725865Y-87984100D01*
X83974535Y-87984100D01*
X84219814Y-87943171D01*
X84455010Y-87862428D01*
X84673709Y-87744074D01*
X84869944Y-87591338D01*
X85038364Y-87408385D01*
X85038733Y-87407819D01*
X85038945Y-87407638D01*
X85041522Y-87404329D01*
X85042202Y-87404858D01*
X85091876Y-87362460D01*
X85155338Y-87352297D01*
X85166764Y-87353482D01*
X85907237Y-86613009D01*
X85924275Y-86676593D01*
X85990101Y-86790607D01*
X86083193Y-86883699D01*
X86197207Y-86949525D01*
X86260790Y-86966562D01*
X85520142Y-87707209D01*
X85566968Y-87743655D01*
X85566970Y-87743656D01*
X85785585Y-87861964D01*
X85785596Y-87861969D01*
X86020706Y-87942683D01*
X86265907Y-87983600D01*
X86514493Y-87983600D01*
X86759693Y-87942683D01*
X86994803Y-87861969D01*
X86994814Y-87861964D01*
X87213428Y-87743657D01*
X87213431Y-87743655D01*
X87260256Y-87707209D01*
X86519609Y-86966562D01*
X86583193Y-86949525D01*
X86697207Y-86883699D01*
X86790299Y-86790607D01*
X86856125Y-86676593D01*
X86873162Y-86613010D01*
X87613634Y-87353482D01*
X87625061Y-87352297D01*
X87693773Y-87364960D01*
X87738292Y-87404794D01*
X87738883Y-87404335D01*
X87741418Y-87407592D01*
X87741656Y-87407805D01*
X87742031Y-87408380D01*
X87742036Y-87408385D01*
X87910456Y-87591338D01*
X87990250Y-87653444D01*
X88106688Y-87744072D01*
X88106693Y-87744075D01*
X88239717Y-87816064D01*
X88289308Y-87865283D01*
X88304700Y-87925119D01*
X88304700Y-92759347D01*
X88285015Y-92826386D01*
X88268381Y-92847028D01*
X86014144Y-95101264D01*
X86014138Y-95101272D01*
X85945692Y-95203705D01*
X85945684Y-95203719D01*
X85912347Y-95284207D01*
X85906823Y-95297543D01*
X85898537Y-95317545D01*
X85898535Y-95317553D01*
X85874500Y-95438389D01*
X85874500Y-95438394D01*
X85874500Y-96061606D01*
X85893873Y-96159006D01*
X85898537Y-96182451D01*
X85945688Y-96296286D01*
X85950999Y-96304234D01*
X85971880Y-96370909D01*
X85971900Y-96373129D01*
X85971900Y-101041879D01*
X85952215Y-101108918D01*
X85906919Y-101150933D01*
X85773896Y-101222922D01*
X85773894Y-101222923D01*
X85577657Y-101375661D01*
X85577656Y-101375662D01*
X85577320Y-101376027D01*
X85418630Y-101548410D01*
X85358742Y-101584401D01*
X85288904Y-101582300D01*
X85236170Y-101548410D01*
X85132279Y-101435555D01*
X85077144Y-101375662D01*
X84880909Y-101222926D01*
X84880907Y-101222925D01*
X84880906Y-101222924D01*
X84662211Y-101104572D01*
X84662202Y-101104569D01*
X84427016Y-101023829D01*
X84181735Y-100982900D01*
X83933065Y-100982900D01*
X83687783Y-101023829D01*
X83452597Y-101104569D01*
X83452588Y-101104572D01*
X83233893Y-101222924D01*
X83037657Y-101375661D01*
X83037656Y-101375662D01*
X83037320Y-101376027D01*
X82878630Y-101548410D01*
X82818742Y-101584401D01*
X82748904Y-101582300D01*
X82696170Y-101548410D01*
X82592279Y-101435555D01*
X82537144Y-101375662D01*
X82340909Y-101222926D01*
X82340907Y-101222925D01*
X82340906Y-101222924D01*
X82122211Y-101104572D01*
X82122202Y-101104569D01*
X81887016Y-101023829D01*
X81641735Y-100982900D01*
X81393065Y-100982900D01*
X81147783Y-101023829D01*
X80912597Y-101104569D01*
X80912588Y-101104572D01*
X80709355Y-101214557D01*
X80693891Y-101222926D01*
X80644779Y-101261151D01*
X80610200Y-101288065D01*
X80545205Y-101313707D01*
X80476665Y-101300140D01*
X80426341Y-101251671D01*
X80425109Y-101249038D01*
X80425004Y-101249096D01*
X80420750Y-101241306D01*
X80334590Y-101126212D01*
X80334587Y-101126209D01*
X80219493Y-101040049D01*
X80219486Y-101040045D01*
X80084779Y-100989803D01*
X80084772Y-100989801D01*
X80025244Y-100983400D01*
X79227400Y-100983400D01*
X79227400Y-102050388D01*
X79170393Y-102017475D01*
X79043226Y-101983400D01*
X78911574Y-101983400D01*
X78784407Y-102017475D01*
X78727400Y-102050388D01*
X78727400Y-100983400D01*
X77929555Y-100983400D01*
X77870027Y-100989801D01*
X77870020Y-100989803D01*
X77735313Y-101040045D01*
X77735306Y-101040049D01*
X77620212Y-101126209D01*
X77620209Y-101126212D01*
X77534049Y-101241306D01*
X77534045Y-101241313D01*
X77483803Y-101376020D01*
X77483801Y-101376027D01*
X77477400Y-101435555D01*
X77477400Y-102233400D01*
X78544388Y-102233400D01*
X78511475Y-102290407D01*
X78477400Y-102417574D01*
X78477400Y-102549226D01*
X78511475Y-102676393D01*
X78544388Y-102733400D01*
X77477400Y-102733400D01*
X77477400Y-103531244D01*
X77483801Y-103590772D01*
X77483803Y-103590779D01*
X77534045Y-103725486D01*
X77534049Y-103725493D01*
X77620209Y-103840587D01*
X77620212Y-103840590D01*
X77735306Y-103926750D01*
X77735313Y-103926754D01*
X77870020Y-103976996D01*
X77870027Y-103976998D01*
X77929555Y-103983399D01*
X77929572Y-103983400D01*
X78727400Y-103983400D01*
X78727400Y-102916412D01*
X78784407Y-102949325D01*
X78911574Y-102983400D01*
X79043226Y-102983400D01*
X79170393Y-102949325D01*
X79227400Y-102916412D01*
X79227400Y-103983400D01*
X80025228Y-103983400D01*
X80025244Y-103983399D01*
X80084772Y-103976998D01*
X80084779Y-103976996D01*
X80219486Y-103926754D01*
X80219493Y-103926750D01*
X80334587Y-103840590D01*
X80334590Y-103840587D01*
X80420750Y-103725493D01*
X80425004Y-103717704D01*
X80428216Y-103719457D01*
X80459583Y-103677429D01*
X80525012Y-103652917D01*
X80593306Y-103667669D01*
X80610195Y-103678730D01*
X80693891Y-103743874D01*
X80693893Y-103743875D01*
X80904555Y-103857880D01*
X80912590Y-103862228D01*
X81147786Y-103942971D01*
X81393065Y-103983900D01*
X81641735Y-103983900D01*
X81887014Y-103942971D01*
X82122210Y-103862228D01*
X82340909Y-103743874D01*
X82537144Y-103591138D01*
X82696171Y-103418388D01*
X82756057Y-103382399D01*
X82825895Y-103384499D01*
X82878628Y-103418388D01*
X83037656Y-103591138D01*
X83233891Y-103743874D01*
X83233893Y-103743875D01*
X83444555Y-103857880D01*
X83452590Y-103862228D01*
X83687786Y-103942971D01*
X83933065Y-103983900D01*
X84181735Y-103983900D01*
X84427014Y-103942971D01*
X84662210Y-103862228D01*
X84880909Y-103743874D01*
X85077144Y-103591138D01*
X85236171Y-103418388D01*
X85296057Y-103382399D01*
X85365895Y-103384499D01*
X85418628Y-103418388D01*
X85577656Y-103591138D01*
X85773891Y-103743874D01*
X85773893Y-103743875D01*
X85984555Y-103857880D01*
X85992590Y-103862228D01*
X86227786Y-103942971D01*
X86473065Y-103983900D01*
X86721735Y-103983900D01*
X86967014Y-103942971D01*
X87202210Y-103862228D01*
X87420909Y-103743874D01*
X87617144Y-103591138D01*
X87785564Y-103408185D01*
X87921573Y-103200007D01*
X88021463Y-102972281D01*
X88082508Y-102731221D01*
X88103043Y-102483400D01*
X88087051Y-102290407D01*
X88082509Y-102235587D01*
X88082507Y-102235575D01*
X88021463Y-101994518D01*
X87921573Y-101766793D01*
X87785566Y-101558617D01*
X87672279Y-101435555D01*
X100977400Y-101435555D01*
X100977400Y-102233400D01*
X102044388Y-102233400D01*
X102011475Y-102290407D01*
X101977400Y-102417574D01*
X101977400Y-102549226D01*
X102011475Y-102676393D01*
X102044388Y-102733400D01*
X100977400Y-102733400D01*
X100977400Y-103531244D01*
X100983801Y-103590772D01*
X100983803Y-103590779D01*
X101034045Y-103725486D01*
X101034049Y-103725493D01*
X101120209Y-103840587D01*
X101120212Y-103840590D01*
X101235306Y-103926750D01*
X101235313Y-103926754D01*
X101370020Y-103976996D01*
X101370027Y-103976998D01*
X101429555Y-103983399D01*
X101429572Y-103983400D01*
X102227400Y-103983400D01*
X102227400Y-102916412D01*
X102284407Y-102949325D01*
X102411574Y-102983400D01*
X102543226Y-102983400D01*
X102670393Y-102949325D01*
X102727400Y-102916412D01*
X102727400Y-103983400D01*
X103525228Y-103983400D01*
X103525244Y-103983399D01*
X103584772Y-103976998D01*
X103584779Y-103976996D01*
X103719486Y-103926754D01*
X103719493Y-103926750D01*
X103834587Y-103840590D01*
X103834590Y-103840587D01*
X103920750Y-103725493D01*
X103925004Y-103717704D01*
X103928216Y-103719457D01*
X103959583Y-103677429D01*
X104025012Y-103652917D01*
X104093306Y-103667669D01*
X104110195Y-103678730D01*
X104193891Y-103743874D01*
X104193893Y-103743875D01*
X104404555Y-103857880D01*
X104412590Y-103862228D01*
X104647786Y-103942971D01*
X104893065Y-103983900D01*
X105141735Y-103983900D01*
X105387014Y-103942971D01*
X105622210Y-103862228D01*
X105840909Y-103743874D01*
X106037144Y-103591138D01*
X106196171Y-103418388D01*
X106256057Y-103382399D01*
X106325895Y-103384499D01*
X106378628Y-103418388D01*
X106537656Y-103591138D01*
X106733891Y-103743874D01*
X106733893Y-103743875D01*
X106944555Y-103857880D01*
X106952590Y-103862228D01*
X107187786Y-103942971D01*
X107433065Y-103983900D01*
X107681735Y-103983900D01*
X107927014Y-103942971D01*
X108162210Y-103862228D01*
X108380909Y-103743874D01*
X108577144Y-103591138D01*
X108736171Y-103418388D01*
X108796057Y-103382399D01*
X108865895Y-103384499D01*
X108918628Y-103418388D01*
X109077656Y-103591138D01*
X109273891Y-103743874D01*
X109273893Y-103743875D01*
X109484555Y-103857880D01*
X109492590Y-103862228D01*
X109727786Y-103942971D01*
X109973065Y-103983900D01*
X110221735Y-103983900D01*
X110467014Y-103942971D01*
X110702210Y-103862228D01*
X110920909Y-103743874D01*
X111117144Y-103591138D01*
X111285564Y-103408185D01*
X111421573Y-103200007D01*
X111521463Y-102972281D01*
X111582508Y-102731221D01*
X111603043Y-102483400D01*
X111587051Y-102290407D01*
X111582509Y-102235587D01*
X111582507Y-102235575D01*
X111521463Y-101994518D01*
X111421573Y-101766793D01*
X111285566Y-101558617D01*
X111172279Y-101435555D01*
X111117144Y-101375662D01*
X110920909Y-101222926D01*
X110920907Y-101222925D01*
X110920906Y-101222924D01*
X110702211Y-101104572D01*
X110702202Y-101104569D01*
X110467016Y-101023829D01*
X110221735Y-100982900D01*
X109973065Y-100982900D01*
X109727783Y-101023829D01*
X109492597Y-101104569D01*
X109492588Y-101104572D01*
X109273893Y-101222924D01*
X109077657Y-101375661D01*
X109077656Y-101375662D01*
X109077320Y-101376027D01*
X108918630Y-101548410D01*
X108858742Y-101584401D01*
X108788904Y-101582300D01*
X108736170Y-101548410D01*
X108632279Y-101435555D01*
X108577144Y-101375662D01*
X108380909Y-101222926D01*
X108380907Y-101222925D01*
X108380906Y-101222924D01*
X108162211Y-101104572D01*
X108162202Y-101104569D01*
X107927016Y-101023829D01*
X107681735Y-100982900D01*
X107433065Y-100982900D01*
X107187783Y-101023829D01*
X106952597Y-101104569D01*
X106952588Y-101104572D01*
X106733893Y-101222924D01*
X106537657Y-101375661D01*
X106537656Y-101375662D01*
X106537320Y-101376027D01*
X106378630Y-101548410D01*
X106318742Y-101584401D01*
X106248904Y-101582300D01*
X106196170Y-101548410D01*
X106092279Y-101435555D01*
X106037144Y-101375662D01*
X105840909Y-101222926D01*
X105840907Y-101222925D01*
X105840906Y-101222924D01*
X105622211Y-101104572D01*
X105622202Y-101104569D01*
X105387016Y-101023829D01*
X105141735Y-100982900D01*
X104893065Y-100982900D01*
X104647783Y-101023829D01*
X104412597Y-101104569D01*
X104412588Y-101104572D01*
X104209355Y-101214557D01*
X104193891Y-101222926D01*
X104144779Y-101261151D01*
X104110200Y-101288065D01*
X104045205Y-101313707D01*
X103976665Y-101300140D01*
X103926341Y-101251671D01*
X103925109Y-101249038D01*
X103925004Y-101249096D01*
X103920750Y-101241306D01*
X103834590Y-101126212D01*
X103834587Y-101126209D01*
X103719493Y-101040049D01*
X103719486Y-101040045D01*
X103584779Y-100989803D01*
X103584772Y-100989801D01*
X103525244Y-100983400D01*
X102727400Y-100983400D01*
X102727400Y-102050388D01*
X102670393Y-102017475D01*
X102543226Y-101983400D01*
X102411574Y-101983400D01*
X102284407Y-102017475D01*
X102227400Y-102050388D01*
X102227400Y-100983400D01*
X101429555Y-100983400D01*
X101370027Y-100989801D01*
X101370020Y-100989803D01*
X101235313Y-101040045D01*
X101235306Y-101040049D01*
X101120212Y-101126209D01*
X101120209Y-101126212D01*
X101034049Y-101241306D01*
X101034045Y-101241313D01*
X100983803Y-101376020D01*
X100983801Y-101376027D01*
X100977400Y-101435555D01*
X87672279Y-101435555D01*
X87617144Y-101375662D01*
X87420909Y-101222926D01*
X87420908Y-101222925D01*
X87420905Y-101222923D01*
X87420903Y-101222922D01*
X87287881Y-101150933D01*
X87238291Y-101101713D01*
X87222900Y-101041879D01*
X87222900Y-96035793D01*
X87222899Y-96035789D01*
X87208444Y-95963116D01*
X87198863Y-95914948D01*
X87163431Y-95829410D01*
X87155963Y-95759942D01*
X87187238Y-95697462D01*
X87190285Y-95694304D01*
X89328929Y-93555660D01*
X89328933Y-93555658D01*
X89416058Y-93468533D01*
X89484511Y-93366086D01*
X89484512Y-93366085D01*
X89484513Y-93366082D01*
X89484515Y-93366079D01*
X89497392Y-93334989D01*
X89531663Y-93252251D01*
X89555700Y-93131407D01*
X89555700Y-93008193D01*
X89555700Y-91352135D01*
X102319500Y-91352135D01*
X102319500Y-93447870D01*
X102319501Y-93447876D01*
X102325908Y-93507483D01*
X102376202Y-93642328D01*
X102376206Y-93642335D01*
X102462452Y-93757544D01*
X102462455Y-93757547D01*
X102577664Y-93843793D01*
X102577671Y-93843797D01*
X102712517Y-93894091D01*
X102712516Y-93894091D01*
X102719444Y-93894835D01*
X102772127Y-93900500D01*
X104867872Y-93900499D01*
X104927483Y-93894091D01*
X105062331Y-93843796D01*
X105177546Y-93757546D01*
X105263796Y-93642331D01*
X105263797Y-93642326D01*
X105268047Y-93634546D01*
X105271288Y-93636316D01*
X105302541Y-93594393D01*
X105367956Y-93569844D01*
X105436259Y-93584558D01*
X105453212Y-93595655D01*
X105536491Y-93660474D01*
X105715866Y-93757547D01*
X105754332Y-93778364D01*
X105755190Y-93778828D01*
X105944426Y-93843793D01*
X105988964Y-93859083D01*
X105990386Y-93859571D01*
X106235665Y-93900500D01*
X106484335Y-93900500D01*
X106729614Y-93859571D01*
X106964810Y-93778828D01*
X107183509Y-93660474D01*
X107379744Y-93507738D01*
X107538771Y-93334988D01*
X107598657Y-93298999D01*
X107668495Y-93301099D01*
X107721228Y-93334988D01*
X107880256Y-93507738D01*
X108076491Y-93660474D01*
X108185840Y-93719651D01*
X108294332Y-93778364D01*
X108295190Y-93778828D01*
X108484426Y-93843793D01*
X108528964Y-93859083D01*
X108530386Y-93859571D01*
X108775665Y-93900500D01*
X109024335Y-93900500D01*
X109269614Y-93859571D01*
X109504810Y-93778828D01*
X109723509Y-93660474D01*
X109919744Y-93507738D01*
X110078771Y-93334988D01*
X110138657Y-93298999D01*
X110208495Y-93301099D01*
X110261228Y-93334988D01*
X110420256Y-93507738D01*
X110616491Y-93660474D01*
X110725840Y-93719651D01*
X110834332Y-93778364D01*
X110835190Y-93778828D01*
X111024426Y-93843793D01*
X111068964Y-93859083D01*
X111070386Y-93859571D01*
X111315665Y-93900500D01*
X111564335Y-93900500D01*
X111809614Y-93859571D01*
X112044810Y-93778828D01*
X112263509Y-93660474D01*
X112459744Y-93507738D01*
X112618771Y-93334988D01*
X112678657Y-93298999D01*
X112748495Y-93301099D01*
X112801228Y-93334988D01*
X112960256Y-93507738D01*
X113156491Y-93660474D01*
X113265840Y-93719651D01*
X113374332Y-93778364D01*
X113375190Y-93778828D01*
X113564426Y-93843793D01*
X113608964Y-93859083D01*
X113610386Y-93859571D01*
X113855665Y-93900500D01*
X114104335Y-93900500D01*
X114349614Y-93859571D01*
X114584810Y-93778828D01*
X114803509Y-93660474D01*
X114999744Y-93507738D01*
X115158771Y-93334988D01*
X115218657Y-93298999D01*
X115288495Y-93301099D01*
X115341228Y-93334988D01*
X115500256Y-93507738D01*
X115696491Y-93660474D01*
X115805840Y-93719651D01*
X115914332Y-93778364D01*
X115915190Y-93778828D01*
X116104426Y-93843793D01*
X116148964Y-93859083D01*
X116150386Y-93859571D01*
X116395665Y-93900500D01*
X116644335Y-93900500D01*
X116889614Y-93859571D01*
X117124810Y-93778828D01*
X117343509Y-93660474D01*
X117539744Y-93507738D01*
X117698771Y-93334988D01*
X117758657Y-93298999D01*
X117828495Y-93301099D01*
X117881228Y-93334988D01*
X118040256Y-93507738D01*
X118236491Y-93660474D01*
X118345840Y-93719651D01*
X118454332Y-93778364D01*
X118455190Y-93778828D01*
X118644426Y-93843793D01*
X118688964Y-93859083D01*
X118690386Y-93859571D01*
X118935665Y-93900500D01*
X119184335Y-93900500D01*
X119429614Y-93859571D01*
X119664810Y-93778828D01*
X119883509Y-93660474D01*
X120079744Y-93507738D01*
X120238771Y-93334988D01*
X120298657Y-93298999D01*
X120368495Y-93301099D01*
X120421228Y-93334988D01*
X120580256Y-93507738D01*
X120776491Y-93660474D01*
X120885840Y-93719651D01*
X120994332Y-93778364D01*
X120995190Y-93778828D01*
X121184426Y-93843793D01*
X121228964Y-93859083D01*
X121230386Y-93859571D01*
X121475665Y-93900500D01*
X121724335Y-93900500D01*
X121969614Y-93859571D01*
X122204810Y-93778828D01*
X122423509Y-93660474D01*
X122619744Y-93507738D01*
X122778771Y-93334988D01*
X122838657Y-93298999D01*
X122908495Y-93301099D01*
X122961228Y-93334988D01*
X123120256Y-93507738D01*
X123316491Y-93660474D01*
X123425840Y-93719651D01*
X123534332Y-93778364D01*
X123535190Y-93778828D01*
X123724426Y-93843793D01*
X123768964Y-93859083D01*
X123770386Y-93859571D01*
X124015665Y-93900500D01*
X124264335Y-93900500D01*
X124509614Y-93859571D01*
X124744810Y-93778828D01*
X124963509Y-93660474D01*
X125159744Y-93507738D01*
X125318771Y-93334988D01*
X125378657Y-93298999D01*
X125448495Y-93301099D01*
X125501228Y-93334988D01*
X125660256Y-93507738D01*
X125856491Y-93660474D01*
X125965840Y-93719651D01*
X126074332Y-93778364D01*
X126075190Y-93778828D01*
X126264426Y-93843793D01*
X126308964Y-93859083D01*
X126310386Y-93859571D01*
X126555665Y-93900500D01*
X126804335Y-93900500D01*
X127049614Y-93859571D01*
X127284810Y-93778828D01*
X127503509Y-93660474D01*
X127699744Y-93507738D01*
X127858771Y-93334988D01*
X127918657Y-93298999D01*
X127988495Y-93301099D01*
X128041228Y-93334988D01*
X128200256Y-93507738D01*
X128396491Y-93660474D01*
X128505840Y-93719651D01*
X128614332Y-93778364D01*
X128615190Y-93778828D01*
X128804426Y-93843793D01*
X128848964Y-93859083D01*
X128850386Y-93859571D01*
X129095665Y-93900500D01*
X129344335Y-93900500D01*
X129589614Y-93859571D01*
X129824810Y-93778828D01*
X130043509Y-93660474D01*
X130239744Y-93507738D01*
X130398771Y-93334988D01*
X130458657Y-93298999D01*
X130528495Y-93301099D01*
X130581228Y-93334988D01*
X130740256Y-93507738D01*
X130936491Y-93660474D01*
X131045840Y-93719651D01*
X131154332Y-93778364D01*
X131155190Y-93778828D01*
X131344426Y-93843793D01*
X131388964Y-93859083D01*
X131390386Y-93859571D01*
X131635665Y-93900500D01*
X131884335Y-93900500D01*
X132129614Y-93859571D01*
X132364810Y-93778828D01*
X132583509Y-93660474D01*
X132779744Y-93507738D01*
X132938771Y-93334988D01*
X132998657Y-93298999D01*
X133068495Y-93301099D01*
X133121228Y-93334988D01*
X133280256Y-93507738D01*
X133476491Y-93660474D01*
X133585840Y-93719651D01*
X133694332Y-93778364D01*
X133695190Y-93778828D01*
X133884426Y-93843793D01*
X133928964Y-93859083D01*
X133930386Y-93859571D01*
X134175665Y-93900500D01*
X134424335Y-93900500D01*
X134669614Y-93859571D01*
X134904810Y-93778828D01*
X135123509Y-93660474D01*
X135319744Y-93507738D01*
X135478771Y-93334988D01*
X135538657Y-93298999D01*
X135608495Y-93301099D01*
X135661228Y-93334988D01*
X135820256Y-93507738D01*
X136016491Y-93660474D01*
X136125840Y-93719651D01*
X136234332Y-93778364D01*
X136235190Y-93778828D01*
X136424426Y-93843793D01*
X136468964Y-93859083D01*
X136470386Y-93859571D01*
X136715665Y-93900500D01*
X136964335Y-93900500D01*
X137209614Y-93859571D01*
X137444810Y-93778828D01*
X137663509Y-93660474D01*
X137859744Y-93507738D01*
X138028164Y-93324785D01*
X138028533Y-93324219D01*
X138028745Y-93324038D01*
X138031322Y-93320729D01*
X138032002Y-93321258D01*
X138081676Y-93278860D01*
X138145138Y-93268697D01*
X138156564Y-93269882D01*
X138897037Y-92529409D01*
X138914075Y-92592993D01*
X138979901Y-92707007D01*
X139072993Y-92800099D01*
X139187007Y-92865925D01*
X139250590Y-92882962D01*
X138509942Y-93623609D01*
X138556768Y-93660055D01*
X138556770Y-93660056D01*
X138775385Y-93778364D01*
X138775396Y-93778369D01*
X139010506Y-93859083D01*
X139255707Y-93900000D01*
X139504293Y-93900000D01*
X139749493Y-93859083D01*
X139984603Y-93778369D01*
X139984614Y-93778364D01*
X140203228Y-93660057D01*
X140203231Y-93660055D01*
X140250056Y-93623609D01*
X139509409Y-92882962D01*
X139572993Y-92865925D01*
X139687007Y-92800099D01*
X139780099Y-92707007D01*
X139845925Y-92592993D01*
X139862962Y-92529410D01*
X140603434Y-93269882D01*
X140614861Y-93268697D01*
X140683573Y-93281360D01*
X140728092Y-93321194D01*
X140728683Y-93320735D01*
X140731218Y-93323992D01*
X140731456Y-93324205D01*
X140731831Y-93324780D01*
X140731836Y-93324785D01*
X140900256Y-93507738D01*
X141096491Y-93660474D01*
X141205840Y-93719651D01*
X141314332Y-93778364D01*
X141315190Y-93778828D01*
X141504426Y-93843793D01*
X141548964Y-93859083D01*
X141550386Y-93859571D01*
X141795665Y-93900500D01*
X142044335Y-93900500D01*
X142289614Y-93859571D01*
X142524810Y-93778828D01*
X142743509Y-93660474D01*
X142939744Y-93507738D01*
X143098771Y-93334988D01*
X143158657Y-93298999D01*
X143228495Y-93301099D01*
X143281228Y-93334988D01*
X143440256Y-93507738D01*
X143636491Y-93660474D01*
X143745840Y-93719651D01*
X143854332Y-93778364D01*
X143855190Y-93778828D01*
X144044426Y-93843793D01*
X144088964Y-93859083D01*
X144090386Y-93859571D01*
X144335665Y-93900500D01*
X144584335Y-93900500D01*
X144829614Y-93859571D01*
X145064810Y-93778828D01*
X145283509Y-93660474D01*
X145479744Y-93507738D01*
X145638771Y-93334988D01*
X145698657Y-93298999D01*
X145768495Y-93301099D01*
X145821228Y-93334988D01*
X145980256Y-93507738D01*
X146176491Y-93660474D01*
X146285840Y-93719651D01*
X146394332Y-93778364D01*
X146395190Y-93778828D01*
X146584426Y-93843793D01*
X146628964Y-93859083D01*
X146630386Y-93859571D01*
X146875665Y-93900500D01*
X147124335Y-93900500D01*
X147369614Y-93859571D01*
X147604810Y-93778828D01*
X147823509Y-93660474D01*
X148019744Y-93507738D01*
X148188164Y-93324785D01*
X148324173Y-93116607D01*
X148424063Y-92888881D01*
X148485108Y-92647821D01*
X148497489Y-92498407D01*
X148505643Y-92400005D01*
X148505643Y-92399994D01*
X148485109Y-92152187D01*
X148485107Y-92152175D01*
X148424063Y-91911118D01*
X148324173Y-91683393D01*
X148188166Y-91475217D01*
X148166557Y-91451744D01*
X148019744Y-91292262D01*
X147823509Y-91139526D01*
X147823507Y-91139525D01*
X147823506Y-91139524D01*
X147604811Y-91021172D01*
X147604802Y-91021169D01*
X147369616Y-90940429D01*
X147124335Y-90899500D01*
X146875665Y-90899500D01*
X146630383Y-90940429D01*
X146395197Y-91021169D01*
X146395188Y-91021172D01*
X146176493Y-91139524D01*
X145980257Y-91292261D01*
X145821230Y-91465010D01*
X145761342Y-91501001D01*
X145691504Y-91498900D01*
X145638770Y-91465010D01*
X145599108Y-91421926D01*
X145479744Y-91292262D01*
X145283509Y-91139526D01*
X145283507Y-91139525D01*
X145283506Y-91139524D01*
X145064811Y-91021172D01*
X145064802Y-91021169D01*
X144829616Y-90940429D01*
X144584335Y-90899500D01*
X144335665Y-90899500D01*
X144090383Y-90940429D01*
X143855197Y-91021169D01*
X143855188Y-91021172D01*
X143636493Y-91139524D01*
X143440257Y-91292261D01*
X143281230Y-91465010D01*
X143221342Y-91501001D01*
X143151504Y-91498900D01*
X143098770Y-91465010D01*
X143059108Y-91421926D01*
X142939744Y-91292262D01*
X142743509Y-91139526D01*
X142743507Y-91139525D01*
X142743506Y-91139524D01*
X142524811Y-91021172D01*
X142524802Y-91021169D01*
X142289616Y-90940429D01*
X142044335Y-90899500D01*
X141795665Y-90899500D01*
X141550383Y-90940429D01*
X141315197Y-91021169D01*
X141315188Y-91021172D01*
X141096493Y-91139524D01*
X140900257Y-91292261D01*
X140731837Y-91475213D01*
X140731829Y-91475224D01*
X140731455Y-91475797D01*
X140731242Y-91475978D01*
X140728690Y-91479258D01*
X140728014Y-91478732D01*
X140678304Y-91521147D01*
X140614865Y-91531302D01*
X140603434Y-91530116D01*
X139862962Y-92270589D01*
X139845925Y-92207007D01*
X139780099Y-92092993D01*
X139687007Y-91999901D01*
X139572993Y-91934075D01*
X139509410Y-91917037D01*
X140250057Y-91176390D01*
X140250056Y-91176389D01*
X140203229Y-91139943D01*
X139984614Y-91021635D01*
X139984603Y-91021630D01*
X139749493Y-90940916D01*
X139504293Y-90900000D01*
X139255707Y-90900000D01*
X139010506Y-90940916D01*
X138775396Y-91021630D01*
X138775390Y-91021632D01*
X138556761Y-91139949D01*
X138509942Y-91176388D01*
X138509942Y-91176390D01*
X139250590Y-91917037D01*
X139187007Y-91934075D01*
X139072993Y-91999901D01*
X138979901Y-92092993D01*
X138914075Y-92207007D01*
X138897037Y-92270589D01*
X138156564Y-91530116D01*
X138145135Y-91531302D01*
X138076423Y-91518637D01*
X138031910Y-91478802D01*
X138031317Y-91479265D01*
X138028768Y-91475991D01*
X138028535Y-91475782D01*
X138028166Y-91475218D01*
X138028165Y-91475217D01*
X138028164Y-91475215D01*
X137859744Y-91292262D01*
X137663509Y-91139526D01*
X137663507Y-91139525D01*
X137663506Y-91139524D01*
X137444811Y-91021172D01*
X137444802Y-91021169D01*
X137209616Y-90940429D01*
X136964335Y-90899500D01*
X136715665Y-90899500D01*
X136470383Y-90940429D01*
X136235197Y-91021169D01*
X136235188Y-91021172D01*
X136016493Y-91139524D01*
X135820257Y-91292261D01*
X135661230Y-91465010D01*
X135601342Y-91501001D01*
X135531504Y-91498900D01*
X135478770Y-91465010D01*
X135439108Y-91421926D01*
X135319744Y-91292262D01*
X135123509Y-91139526D01*
X135123507Y-91139525D01*
X135123506Y-91139524D01*
X134904811Y-91021172D01*
X134904802Y-91021169D01*
X134669616Y-90940429D01*
X134424335Y-90899500D01*
X134175665Y-90899500D01*
X133930383Y-90940429D01*
X133695197Y-91021169D01*
X133695188Y-91021172D01*
X133476493Y-91139524D01*
X133280257Y-91292261D01*
X133121230Y-91465010D01*
X133061342Y-91501001D01*
X132991504Y-91498900D01*
X132938770Y-91465010D01*
X132899108Y-91421926D01*
X132779744Y-91292262D01*
X132583509Y-91139526D01*
X132583507Y-91139525D01*
X132583506Y-91139524D01*
X132364811Y-91021172D01*
X132364802Y-91021169D01*
X132129616Y-90940429D01*
X131884335Y-90899500D01*
X131635665Y-90899500D01*
X131390383Y-90940429D01*
X131155197Y-91021169D01*
X131155188Y-91021172D01*
X130936493Y-91139524D01*
X130740257Y-91292261D01*
X130581230Y-91465010D01*
X130521342Y-91501001D01*
X130451504Y-91498900D01*
X130398770Y-91465010D01*
X130359108Y-91421926D01*
X130239744Y-91292262D01*
X130043509Y-91139526D01*
X130043507Y-91139525D01*
X130043506Y-91139524D01*
X129824811Y-91021172D01*
X129824802Y-91021169D01*
X129589616Y-90940429D01*
X129344335Y-90899500D01*
X129095665Y-90899500D01*
X128850383Y-90940429D01*
X128615197Y-91021169D01*
X128615188Y-91021172D01*
X128396493Y-91139524D01*
X128200257Y-91292261D01*
X128041230Y-91465010D01*
X127981342Y-91501001D01*
X127911504Y-91498900D01*
X127858770Y-91465010D01*
X127819108Y-91421926D01*
X127699744Y-91292262D01*
X127503509Y-91139526D01*
X127503507Y-91139525D01*
X127503506Y-91139524D01*
X127284811Y-91021172D01*
X127284802Y-91021169D01*
X127049616Y-90940429D01*
X126804335Y-90899500D01*
X126555665Y-90899500D01*
X126310383Y-90940429D01*
X126075197Y-91021169D01*
X126075188Y-91021172D01*
X125856493Y-91139524D01*
X125660257Y-91292261D01*
X125501230Y-91465010D01*
X125441342Y-91501001D01*
X125371504Y-91498900D01*
X125318770Y-91465010D01*
X125279108Y-91421926D01*
X125159744Y-91292262D01*
X124963509Y-91139526D01*
X124963507Y-91139525D01*
X124963506Y-91139524D01*
X124744811Y-91021172D01*
X124744802Y-91021169D01*
X124509616Y-90940429D01*
X124264335Y-90899500D01*
X124015665Y-90899500D01*
X123770383Y-90940429D01*
X123535197Y-91021169D01*
X123535188Y-91021172D01*
X123316493Y-91139524D01*
X123120257Y-91292261D01*
X122961230Y-91465010D01*
X122901342Y-91501001D01*
X122831504Y-91498900D01*
X122778770Y-91465010D01*
X122739108Y-91421926D01*
X122619744Y-91292262D01*
X122423509Y-91139526D01*
X122423507Y-91139525D01*
X122423506Y-91139524D01*
X122204811Y-91021172D01*
X122204802Y-91021169D01*
X121969616Y-90940429D01*
X121724335Y-90899500D01*
X121475665Y-90899500D01*
X121230383Y-90940429D01*
X120995197Y-91021169D01*
X120995188Y-91021172D01*
X120776493Y-91139524D01*
X120580257Y-91292261D01*
X120421230Y-91465010D01*
X120361342Y-91501001D01*
X120291504Y-91498900D01*
X120238770Y-91465010D01*
X120199108Y-91421926D01*
X120079744Y-91292262D01*
X119883509Y-91139526D01*
X119883507Y-91139525D01*
X119883506Y-91139524D01*
X119664811Y-91021172D01*
X119664802Y-91021169D01*
X119429616Y-90940429D01*
X119184335Y-90899500D01*
X118935665Y-90899500D01*
X118690383Y-90940429D01*
X118455197Y-91021169D01*
X118455188Y-91021172D01*
X118236493Y-91139524D01*
X118040257Y-91292261D01*
X117881230Y-91465010D01*
X117821342Y-91501001D01*
X117751504Y-91498900D01*
X117698770Y-91465010D01*
X117659108Y-91421926D01*
X117539744Y-91292262D01*
X117343509Y-91139526D01*
X117343507Y-91139525D01*
X117343506Y-91139524D01*
X117124811Y-91021172D01*
X117124802Y-91021169D01*
X116889616Y-90940429D01*
X116644335Y-90899500D01*
X116395665Y-90899500D01*
X116150383Y-90940429D01*
X115915197Y-91021169D01*
X115915188Y-91021172D01*
X115696493Y-91139524D01*
X115500257Y-91292261D01*
X115341230Y-91465010D01*
X115281342Y-91501001D01*
X115211504Y-91498900D01*
X115158770Y-91465010D01*
X115119108Y-91421926D01*
X114999744Y-91292262D01*
X114803509Y-91139526D01*
X114803507Y-91139525D01*
X114803506Y-91139524D01*
X114584811Y-91021172D01*
X114584802Y-91021169D01*
X114349616Y-90940429D01*
X114104335Y-90899500D01*
X113855665Y-90899500D01*
X113610383Y-90940429D01*
X113375197Y-91021169D01*
X113375188Y-91021172D01*
X113156493Y-91139524D01*
X112960257Y-91292261D01*
X112801230Y-91465010D01*
X112741342Y-91501001D01*
X112671504Y-91498900D01*
X112618770Y-91465010D01*
X112579108Y-91421926D01*
X112459744Y-91292262D01*
X112263509Y-91139526D01*
X112263507Y-91139525D01*
X112263506Y-91139524D01*
X112044811Y-91021172D01*
X112044802Y-91021169D01*
X111809616Y-90940429D01*
X111564335Y-90899500D01*
X111315665Y-90899500D01*
X111070383Y-90940429D01*
X110835197Y-91021169D01*
X110835188Y-91021172D01*
X110616493Y-91139524D01*
X110420257Y-91292261D01*
X110261230Y-91465010D01*
X110201342Y-91501001D01*
X110131504Y-91498900D01*
X110078770Y-91465010D01*
X110039108Y-91421926D01*
X109919744Y-91292262D01*
X109723509Y-91139526D01*
X109723507Y-91139525D01*
X109723506Y-91139524D01*
X109504811Y-91021172D01*
X109504802Y-91021169D01*
X109269616Y-90940429D01*
X109024335Y-90899500D01*
X108775665Y-90899500D01*
X108530383Y-90940429D01*
X108295197Y-91021169D01*
X108295188Y-91021172D01*
X108076493Y-91139524D01*
X107880257Y-91292261D01*
X107721230Y-91465010D01*
X107661342Y-91501001D01*
X107591504Y-91498900D01*
X107538770Y-91465010D01*
X107499108Y-91421926D01*
X107379744Y-91292262D01*
X107183509Y-91139526D01*
X107183507Y-91139525D01*
X107183506Y-91139524D01*
X106964811Y-91021172D01*
X106964802Y-91021169D01*
X106729616Y-90940429D01*
X106484335Y-90899500D01*
X106235665Y-90899500D01*
X105990383Y-90940429D01*
X105755197Y-91021169D01*
X105755188Y-91021172D01*
X105536491Y-91139525D01*
X105536488Y-91139528D01*
X105453212Y-91204343D01*
X105388218Y-91229985D01*
X105319678Y-91216418D01*
X105269354Y-91167949D01*
X105268159Y-91165392D01*
X105268047Y-91165454D01*
X105263793Y-91157664D01*
X105177547Y-91042455D01*
X105177544Y-91042452D01*
X105062335Y-90956206D01*
X105062328Y-90956202D01*
X104927482Y-90905908D01*
X104927483Y-90905908D01*
X104867883Y-90899501D01*
X104867881Y-90899500D01*
X104867873Y-90899500D01*
X104867864Y-90899500D01*
X102772129Y-90899500D01*
X102772123Y-90899501D01*
X102712516Y-90905908D01*
X102577671Y-90956202D01*
X102577664Y-90956206D01*
X102462455Y-91042452D01*
X102462452Y-91042455D01*
X102376206Y-91157664D01*
X102376202Y-91157671D01*
X102325908Y-91292517D01*
X102319501Y-91352116D01*
X102319500Y-91352135D01*
X89555700Y-91352135D01*
X89555700Y-87925119D01*
X89575385Y-87858080D01*
X89620683Y-87816064D01*
X89621569Y-87815584D01*
X89753709Y-87744074D01*
X89949944Y-87591338D01*
X90118364Y-87408385D01*
X90254373Y-87200207D01*
X90354263Y-86972481D01*
X90415308Y-86731421D01*
X90435843Y-86483600D01*
X90419851Y-86290607D01*
X90415309Y-86235787D01*
X90415307Y-86235775D01*
X90354263Y-85994718D01*
X90254373Y-85766993D01*
X90118366Y-85558817D01*
X90096757Y-85535344D01*
X89949944Y-85375862D01*
X89753709Y-85223126D01*
X89753707Y-85223125D01*
X89753706Y-85223124D01*
X89535011Y-85104772D01*
X89535002Y-85104769D01*
X89299816Y-85024029D01*
X89054535Y-84983100D01*
X88805865Y-84983100D01*
X88560583Y-85024029D01*
X88325397Y-85104769D01*
X88325388Y-85104772D01*
X88106693Y-85223124D01*
X87910457Y-85375861D01*
X87742037Y-85558813D01*
X87742029Y-85558824D01*
X87741655Y-85559397D01*
X87741442Y-85559578D01*
X87738890Y-85562858D01*
X87738214Y-85562332D01*
X87688504Y-85604747D01*
X87625065Y-85614902D01*
X87613634Y-85613716D01*
X86873162Y-86354189D01*
X86856125Y-86290607D01*
X86790299Y-86176593D01*
X86697207Y-86083501D01*
X86583193Y-86017675D01*
X86519610Y-86000637D01*
X87260257Y-85259990D01*
X87260256Y-85259989D01*
X87213429Y-85223543D01*
X86994814Y-85105235D01*
X86994803Y-85105230D01*
X86759693Y-85024516D01*
X86514493Y-84983600D01*
X86265907Y-84983600D01*
X86020706Y-85024516D01*
X85785596Y-85105230D01*
X85785590Y-85105232D01*
X85566961Y-85223549D01*
X85520142Y-85259988D01*
X85520142Y-85259990D01*
X86260790Y-86000637D01*
X86197207Y-86017675D01*
X86083193Y-86083501D01*
X85990101Y-86176593D01*
X85924275Y-86290607D01*
X85907237Y-86354189D01*
X85166764Y-85613716D01*
X85155335Y-85614902D01*
X85086623Y-85602237D01*
X85042110Y-85562402D01*
X85041517Y-85562865D01*
X85038968Y-85559591D01*
X85038735Y-85559382D01*
X85038366Y-85558818D01*
X85038365Y-85558817D01*
X85038364Y-85558815D01*
X84869944Y-85375862D01*
X84673709Y-85223126D01*
X84673707Y-85223125D01*
X84673706Y-85223124D01*
X84455011Y-85104772D01*
X84455002Y-85104769D01*
X84219816Y-85024029D01*
X83974535Y-84983100D01*
X83725865Y-84983100D01*
X83480583Y-85024029D01*
X83245397Y-85104769D01*
X83245388Y-85104772D01*
X83026693Y-85223124D01*
X82830457Y-85375861D01*
X82671430Y-85548610D01*
X82611542Y-85584601D01*
X82541704Y-85582500D01*
X82488970Y-85548610D01*
X82449308Y-85505526D01*
X82329944Y-85375862D01*
X82133709Y-85223126D01*
X82133707Y-85223125D01*
X82133706Y-85223124D01*
X81915011Y-85104772D01*
X81915002Y-85104769D01*
X81679816Y-85024029D01*
X81434535Y-84983100D01*
X81185865Y-84983100D01*
X80940583Y-85024029D01*
X80705397Y-85104769D01*
X80705388Y-85104772D01*
X80486693Y-85223124D01*
X80290457Y-85375861D01*
X80131430Y-85548610D01*
X80071542Y-85584601D01*
X80001704Y-85582500D01*
X79948970Y-85548610D01*
X79909308Y-85505526D01*
X79789944Y-85375862D01*
X79593709Y-85223126D01*
X79593707Y-85223125D01*
X79593706Y-85223124D01*
X79375011Y-85104772D01*
X79375002Y-85104769D01*
X79139816Y-85024029D01*
X78894535Y-84983100D01*
X78645865Y-84983100D01*
X78400583Y-85024029D01*
X78165397Y-85104769D01*
X78165388Y-85104772D01*
X77946691Y-85223125D01*
X77946688Y-85223128D01*
X77863412Y-85287943D01*
X77798418Y-85313585D01*
X77729878Y-85300018D01*
X77679554Y-85251549D01*
X77678359Y-85248992D01*
X77678247Y-85249054D01*
X77673993Y-85241264D01*
X77587747Y-85126055D01*
X77587744Y-85126052D01*
X77472535Y-85039806D01*
X77472528Y-85039802D01*
X77337682Y-84989508D01*
X77337683Y-84989508D01*
X77278083Y-84983101D01*
X77278081Y-84983100D01*
X77278073Y-84983100D01*
X77278064Y-84983100D01*
X75182329Y-84983100D01*
X75182323Y-84983101D01*
X75122716Y-84989508D01*
X74987871Y-85039802D01*
X74987864Y-85039806D01*
X74872655Y-85126052D01*
X74872652Y-85126055D01*
X74786406Y-85241264D01*
X74786402Y-85241271D01*
X74736108Y-85376117D01*
X74729701Y-85435716D01*
X74729700Y-85435735D01*
X68500000Y-85435735D01*
X68500000Y-65952135D01*
X102319500Y-65952135D01*
X102319500Y-68047870D01*
X102319501Y-68047876D01*
X102325908Y-68107483D01*
X102376202Y-68242328D01*
X102376206Y-68242335D01*
X102462452Y-68357544D01*
X102462455Y-68357547D01*
X102577664Y-68443793D01*
X102577671Y-68443797D01*
X102712517Y-68494091D01*
X102712516Y-68494091D01*
X102719444Y-68494835D01*
X102772127Y-68500500D01*
X104867872Y-68500499D01*
X104927483Y-68494091D01*
X105062331Y-68443796D01*
X105177546Y-68357546D01*
X105263796Y-68242331D01*
X105263797Y-68242326D01*
X105268047Y-68234546D01*
X105271288Y-68236316D01*
X105302541Y-68194393D01*
X105367956Y-68169844D01*
X105436259Y-68184558D01*
X105453212Y-68195655D01*
X105536491Y-68260474D01*
X105755190Y-68378828D01*
X105990386Y-68459571D01*
X106235665Y-68500500D01*
X106484335Y-68500500D01*
X106729614Y-68459571D01*
X106964810Y-68378828D01*
X107183509Y-68260474D01*
X107379744Y-68107738D01*
X107538771Y-67934988D01*
X107598657Y-67898999D01*
X107668495Y-67901099D01*
X107721228Y-67934988D01*
X107880256Y-68107738D01*
X108076491Y-68260474D01*
X108076493Y-68260475D01*
X108287155Y-68374480D01*
X108295190Y-68378828D01*
X108530386Y-68459571D01*
X108775665Y-68500500D01*
X109024335Y-68500500D01*
X109269614Y-68459571D01*
X109504810Y-68378828D01*
X109723509Y-68260474D01*
X109919744Y-68107738D01*
X110078771Y-67934988D01*
X110138657Y-67898999D01*
X110208495Y-67901099D01*
X110261228Y-67934988D01*
X110420256Y-68107738D01*
X110616491Y-68260474D01*
X110616493Y-68260475D01*
X110827155Y-68374480D01*
X110835190Y-68378828D01*
X111070386Y-68459571D01*
X111315665Y-68500500D01*
X111564335Y-68500500D01*
X111809614Y-68459571D01*
X112044810Y-68378828D01*
X112263509Y-68260474D01*
X112459744Y-68107738D01*
X112618771Y-67934988D01*
X112678657Y-67898999D01*
X112748495Y-67901099D01*
X112801228Y-67934988D01*
X112960256Y-68107738D01*
X113156491Y-68260474D01*
X113156493Y-68260475D01*
X113367155Y-68374480D01*
X113375190Y-68378828D01*
X113610386Y-68459571D01*
X113855665Y-68500500D01*
X114104335Y-68500500D01*
X114349614Y-68459571D01*
X114584810Y-68378828D01*
X114803509Y-68260474D01*
X114999744Y-68107738D01*
X115158771Y-67934988D01*
X115218657Y-67898999D01*
X115288495Y-67901099D01*
X115341228Y-67934988D01*
X115500256Y-68107738D01*
X115696491Y-68260474D01*
X115696493Y-68260475D01*
X115907155Y-68374480D01*
X115915190Y-68378828D01*
X116150386Y-68459571D01*
X116395665Y-68500500D01*
X116644335Y-68500500D01*
X116889614Y-68459571D01*
X117124810Y-68378828D01*
X117343509Y-68260474D01*
X117539744Y-68107738D01*
X117698771Y-67934988D01*
X117758657Y-67898999D01*
X117828495Y-67901099D01*
X117881228Y-67934988D01*
X118040256Y-68107738D01*
X118236491Y-68260474D01*
X118236493Y-68260475D01*
X118447155Y-68374480D01*
X118455190Y-68378828D01*
X118690386Y-68459571D01*
X118935665Y-68500500D01*
X119184335Y-68500500D01*
X119429614Y-68459571D01*
X119664810Y-68378828D01*
X119883509Y-68260474D01*
X120079744Y-68107738D01*
X120238771Y-67934988D01*
X120298657Y-67898999D01*
X120368495Y-67901099D01*
X120421228Y-67934988D01*
X120580256Y-68107738D01*
X120776491Y-68260474D01*
X120776493Y-68260475D01*
X120987155Y-68374480D01*
X120995190Y-68378828D01*
X121230386Y-68459571D01*
X121475665Y-68500500D01*
X121724335Y-68500500D01*
X121969614Y-68459571D01*
X122204810Y-68378828D01*
X122423509Y-68260474D01*
X122619744Y-68107738D01*
X122778771Y-67934988D01*
X122838657Y-67898999D01*
X122908495Y-67901099D01*
X122961228Y-67934988D01*
X123120256Y-68107738D01*
X123316491Y-68260474D01*
X123316493Y-68260475D01*
X123527155Y-68374480D01*
X123535190Y-68378828D01*
X123770386Y-68459571D01*
X124015665Y-68500500D01*
X124264335Y-68500500D01*
X124509614Y-68459571D01*
X124744810Y-68378828D01*
X124963509Y-68260474D01*
X125159744Y-68107738D01*
X125318771Y-67934988D01*
X125378657Y-67898999D01*
X125448495Y-67901099D01*
X125501228Y-67934988D01*
X125660256Y-68107738D01*
X125856491Y-68260474D01*
X125856493Y-68260475D01*
X126067155Y-68374480D01*
X126075190Y-68378828D01*
X126310386Y-68459571D01*
X126555665Y-68500500D01*
X126804335Y-68500500D01*
X127049614Y-68459571D01*
X127284810Y-68378828D01*
X127503509Y-68260474D01*
X127699744Y-68107738D01*
X127858771Y-67934988D01*
X127918657Y-67898999D01*
X127988495Y-67901099D01*
X128041228Y-67934988D01*
X128200256Y-68107738D01*
X128396491Y-68260474D01*
X128396493Y-68260475D01*
X128607155Y-68374480D01*
X128615190Y-68378828D01*
X128850386Y-68459571D01*
X129095665Y-68500500D01*
X129344335Y-68500500D01*
X129589614Y-68459571D01*
X129824810Y-68378828D01*
X130043509Y-68260474D01*
X130239744Y-68107738D01*
X130398771Y-67934988D01*
X130458657Y-67898999D01*
X130528495Y-67901099D01*
X130581228Y-67934988D01*
X130740256Y-68107738D01*
X130936491Y-68260474D01*
X130936493Y-68260475D01*
X131147155Y-68374480D01*
X131155190Y-68378828D01*
X131390386Y-68459571D01*
X131635665Y-68500500D01*
X131884335Y-68500500D01*
X132129614Y-68459571D01*
X132364810Y-68378828D01*
X132583509Y-68260474D01*
X132779744Y-68107738D01*
X132938771Y-67934988D01*
X132998657Y-67898999D01*
X133068495Y-67901099D01*
X133121228Y-67934988D01*
X133280256Y-68107738D01*
X133476491Y-68260474D01*
X133476493Y-68260475D01*
X133687155Y-68374480D01*
X133695190Y-68378828D01*
X133930386Y-68459571D01*
X134175665Y-68500500D01*
X134424335Y-68500500D01*
X134669614Y-68459571D01*
X134904810Y-68378828D01*
X135123509Y-68260474D01*
X135319744Y-68107738D01*
X135478771Y-67934988D01*
X135538657Y-67898999D01*
X135608495Y-67901099D01*
X135661228Y-67934988D01*
X135820256Y-68107738D01*
X136016491Y-68260474D01*
X136016493Y-68260475D01*
X136227155Y-68374480D01*
X136235190Y-68378828D01*
X136470386Y-68459571D01*
X136715665Y-68500500D01*
X136964335Y-68500500D01*
X137209614Y-68459571D01*
X137444810Y-68378828D01*
X137663509Y-68260474D01*
X137859744Y-68107738D01*
X138018771Y-67934988D01*
X138078657Y-67898999D01*
X138148495Y-67901099D01*
X138201228Y-67934988D01*
X138360256Y-68107738D01*
X138556491Y-68260474D01*
X138556493Y-68260475D01*
X138767155Y-68374480D01*
X138775190Y-68378828D01*
X139010386Y-68459571D01*
X139255665Y-68500500D01*
X139504335Y-68500500D01*
X139749614Y-68459571D01*
X139984810Y-68378828D01*
X140203509Y-68260474D01*
X140399744Y-68107738D01*
X140558771Y-67934988D01*
X140618657Y-67898999D01*
X140688495Y-67901099D01*
X140741228Y-67934988D01*
X140900256Y-68107738D01*
X141096491Y-68260474D01*
X141096493Y-68260475D01*
X141307155Y-68374480D01*
X141315190Y-68378828D01*
X141550386Y-68459571D01*
X141795665Y-68500500D01*
X142044335Y-68500500D01*
X142289614Y-68459571D01*
X142524810Y-68378828D01*
X142743509Y-68260474D01*
X142939744Y-68107738D01*
X143098771Y-67934988D01*
X143158657Y-67898999D01*
X143228495Y-67901099D01*
X143281228Y-67934988D01*
X143440256Y-68107738D01*
X143520050Y-68169844D01*
X143636488Y-68260472D01*
X143636493Y-68260475D01*
X143769517Y-68332464D01*
X143819108Y-68381683D01*
X143834500Y-68441519D01*
X143834500Y-75521611D01*
X143858535Y-75642444D01*
X143858540Y-75642461D01*
X143905685Y-75756280D01*
X143905690Y-75756289D01*
X143939914Y-75807507D01*
X143939915Y-75807509D01*
X143974141Y-75858733D01*
X144065586Y-75950178D01*
X144065608Y-75950198D01*
X154338181Y-86222771D01*
X154371666Y-86284094D01*
X154374500Y-86310452D01*
X154374500Y-122689548D01*
X154354815Y-122756587D01*
X154338181Y-122777229D01*
X152777229Y-124338181D01*
X152715906Y-124371666D01*
X152689548Y-124374500D01*
X141810452Y-124374500D01*
X141743413Y-124354815D01*
X141722771Y-124338181D01*
X137592987Y-120208397D01*
X148232677Y-120208397D01*
X148232677Y-120208402D01*
X148251929Y-120428462D01*
X148251930Y-120428470D01*
X148309104Y-120641845D01*
X148309105Y-120641847D01*
X148309106Y-120641850D01*
X148402466Y-120842062D01*
X148402468Y-120842066D01*
X148529170Y-121023015D01*
X148529175Y-121023021D01*
X148685378Y-121179224D01*
X148685384Y-121179229D01*
X148866333Y-121305931D01*
X148866335Y-121305932D01*
X148866338Y-121305934D01*
X149066550Y-121399294D01*
X149279932Y-121456470D01*
X149437123Y-121470222D01*
X149499998Y-121475723D01*
X149500000Y-121475723D01*
X149500002Y-121475723D01*
X149555017Y-121470909D01*
X149720068Y-121456470D01*
X149933450Y-121399294D01*
X150133662Y-121305934D01*
X150314620Y-121179226D01*
X150470826Y-121023020D01*
X150597534Y-120842062D01*
X150690894Y-120641850D01*
X150748070Y-120428468D01*
X150767323Y-120208400D01*
X150748070Y-119988332D01*
X150690894Y-119774950D01*
X150597534Y-119574739D01*
X150470826Y-119393780D01*
X150314620Y-119237574D01*
X150314616Y-119237571D01*
X150314615Y-119237570D01*
X150133666Y-119110868D01*
X150133662Y-119110866D01*
X150133660Y-119110865D01*
X149933450Y-119017506D01*
X149933447Y-119017505D01*
X149933445Y-119017504D01*
X149720070Y-118960330D01*
X149720062Y-118960329D01*
X149500002Y-118941077D01*
X149499998Y-118941077D01*
X149279937Y-118960329D01*
X149279929Y-118960330D01*
X149066554Y-119017504D01*
X149066548Y-119017507D01*
X148866340Y-119110865D01*
X148866338Y-119110866D01*
X148685377Y-119237575D01*
X148529175Y-119393777D01*
X148402466Y-119574738D01*
X148402465Y-119574740D01*
X148309107Y-119774948D01*
X148309104Y-119774954D01*
X148251930Y-119988329D01*
X148251929Y-119988337D01*
X148232677Y-120208397D01*
X137592987Y-120208397D01*
X130719219Y-113334629D01*
X130685734Y-113273306D01*
X130682900Y-113246948D01*
X130682900Y-112588397D01*
X148232677Y-112588397D01*
X148232677Y-112588402D01*
X148251929Y-112808462D01*
X148251930Y-112808470D01*
X148309104Y-113021845D01*
X148309105Y-113021847D01*
X148309106Y-113021850D01*
X148402466Y-113222062D01*
X148402468Y-113222066D01*
X148529170Y-113403015D01*
X148529175Y-113403021D01*
X148685378Y-113559224D01*
X148685384Y-113559229D01*
X148866333Y-113685931D01*
X148866335Y-113685932D01*
X148866338Y-113685934D01*
X149066550Y-113779294D01*
X149279932Y-113836470D01*
X149437123Y-113850222D01*
X149499998Y-113855723D01*
X149500000Y-113855723D01*
X149500002Y-113855723D01*
X149555017Y-113850909D01*
X149720068Y-113836470D01*
X149933450Y-113779294D01*
X150133662Y-113685934D01*
X150314620Y-113559226D01*
X150470826Y-113403020D01*
X150597534Y-113222062D01*
X150690894Y-113021850D01*
X150748070Y-112808468D01*
X150767323Y-112588400D01*
X150748070Y-112368332D01*
X150690894Y-112154950D01*
X150597534Y-111954739D01*
X150470826Y-111773780D01*
X150314620Y-111617574D01*
X150314616Y-111617571D01*
X150314615Y-111617570D01*
X150133666Y-111490868D01*
X150133662Y-111490866D01*
X150133660Y-111490865D01*
X149933450Y-111397506D01*
X149933447Y-111397505D01*
X149933445Y-111397504D01*
X149720070Y-111340330D01*
X149720062Y-111340329D01*
X149500002Y-111321077D01*
X149499998Y-111321077D01*
X149279937Y-111340329D01*
X149279929Y-111340330D01*
X149066554Y-111397504D01*
X149066548Y-111397507D01*
X148866340Y-111490865D01*
X148866338Y-111490866D01*
X148685377Y-111617575D01*
X148529175Y-111773777D01*
X148402466Y-111954738D01*
X148402465Y-111954740D01*
X148309107Y-112154948D01*
X148309104Y-112154954D01*
X148251930Y-112368329D01*
X148251929Y-112368337D01*
X148232677Y-112588397D01*
X130682900Y-112588397D01*
X130682900Y-103924919D01*
X130702585Y-103857880D01*
X130747883Y-103815864D01*
X130748769Y-103815384D01*
X130880909Y-103743874D01*
X131077144Y-103591138D01*
X131236171Y-103418388D01*
X131296057Y-103382399D01*
X131365895Y-103384499D01*
X131418628Y-103418388D01*
X131577656Y-103591138D01*
X131773891Y-103743874D01*
X131773893Y-103743875D01*
X131984555Y-103857880D01*
X131992590Y-103862228D01*
X132227786Y-103942971D01*
X132473065Y-103983900D01*
X132721735Y-103983900D01*
X132967014Y-103942971D01*
X133202210Y-103862228D01*
X133420909Y-103743874D01*
X133617144Y-103591138D01*
X133785564Y-103408185D01*
X133921573Y-103200007D01*
X134021463Y-102972281D01*
X134082508Y-102731221D01*
X134103043Y-102483400D01*
X134087051Y-102290407D01*
X134082509Y-102235587D01*
X134082507Y-102235575D01*
X134021463Y-101994518D01*
X133921573Y-101766793D01*
X133785566Y-101558617D01*
X133672279Y-101435555D01*
X133617144Y-101375662D01*
X133420909Y-101222926D01*
X133420907Y-101222925D01*
X133420906Y-101222924D01*
X133202211Y-101104572D01*
X133202202Y-101104569D01*
X132967016Y-101023829D01*
X132721735Y-100982900D01*
X132473065Y-100982900D01*
X132227783Y-101023829D01*
X131992597Y-101104569D01*
X131992588Y-101104572D01*
X131773893Y-101222924D01*
X131577657Y-101375661D01*
X131577656Y-101375662D01*
X131577320Y-101376027D01*
X131418630Y-101548410D01*
X131358742Y-101584401D01*
X131288904Y-101582300D01*
X131236170Y-101548410D01*
X131132279Y-101435555D01*
X131077144Y-101375662D01*
X130880909Y-101222926D01*
X130880907Y-101222925D01*
X130880906Y-101222924D01*
X130662211Y-101104572D01*
X130662202Y-101104569D01*
X130427016Y-101023829D01*
X130181735Y-100982900D01*
X129933065Y-100982900D01*
X129687783Y-101023829D01*
X129452597Y-101104569D01*
X129452588Y-101104572D01*
X129233893Y-101222924D01*
X129037657Y-101375661D01*
X129037656Y-101375662D01*
X129037320Y-101376027D01*
X128878630Y-101548410D01*
X128818742Y-101584401D01*
X128748904Y-101582300D01*
X128696170Y-101548410D01*
X128592279Y-101435555D01*
X128537144Y-101375662D01*
X128340909Y-101222926D01*
X128340907Y-101222925D01*
X128340906Y-101222924D01*
X128122211Y-101104572D01*
X128122202Y-101104569D01*
X127887016Y-101023829D01*
X127641735Y-100982900D01*
X127393065Y-100982900D01*
X127147783Y-101023829D01*
X126912597Y-101104569D01*
X126912588Y-101104572D01*
X126709355Y-101214557D01*
X126693891Y-101222926D01*
X126644779Y-101261151D01*
X126610200Y-101288065D01*
X126545205Y-101313707D01*
X126476665Y-101300140D01*
X126426341Y-101251671D01*
X126425109Y-101249038D01*
X126425004Y-101249096D01*
X126420750Y-101241306D01*
X126334590Y-101126212D01*
X126334587Y-101126209D01*
X126219493Y-101040049D01*
X126219486Y-101040045D01*
X126084779Y-100989803D01*
X126084772Y-100989801D01*
X126025244Y-100983400D01*
X125227400Y-100983400D01*
X125227400Y-102050388D01*
X125170393Y-102017475D01*
X125043226Y-101983400D01*
X124911574Y-101983400D01*
X124784407Y-102017475D01*
X124727400Y-102050388D01*
X124727400Y-100983400D01*
X123929555Y-100983400D01*
X123870027Y-100989801D01*
X123870020Y-100989803D01*
X123735313Y-101040045D01*
X123735306Y-101040049D01*
X123620212Y-101126209D01*
X123620209Y-101126212D01*
X123534049Y-101241306D01*
X123534045Y-101241313D01*
X123483803Y-101376020D01*
X123483801Y-101376027D01*
X123477400Y-101435555D01*
X123477400Y-102233400D01*
X124544388Y-102233400D01*
X124511475Y-102290407D01*
X124477400Y-102417574D01*
X124477400Y-102549226D01*
X124511475Y-102676393D01*
X124544388Y-102733400D01*
X123477400Y-102733400D01*
X123477400Y-103531244D01*
X123483801Y-103590772D01*
X123483803Y-103590779D01*
X123534045Y-103725486D01*
X123534049Y-103725493D01*
X123620209Y-103840587D01*
X123620212Y-103840590D01*
X123735306Y-103926750D01*
X123735313Y-103926754D01*
X123870020Y-103976996D01*
X123870027Y-103976998D01*
X123929555Y-103983399D01*
X123929572Y-103983400D01*
X124727400Y-103983400D01*
X124727400Y-102916412D01*
X124784407Y-102949325D01*
X124911574Y-102983400D01*
X125043226Y-102983400D01*
X125170393Y-102949325D01*
X125227400Y-102916412D01*
X125227400Y-103983400D01*
X126025228Y-103983400D01*
X126025244Y-103983399D01*
X126084772Y-103976998D01*
X126084779Y-103976996D01*
X126219486Y-103926754D01*
X126219493Y-103926750D01*
X126334587Y-103840590D01*
X126334590Y-103840587D01*
X126420750Y-103725493D01*
X126425004Y-103717704D01*
X126428216Y-103719457D01*
X126459583Y-103677429D01*
X126525012Y-103652917D01*
X126593306Y-103667669D01*
X126610195Y-103678730D01*
X126693891Y-103743874D01*
X126693893Y-103743875D01*
X126904555Y-103857880D01*
X126912590Y-103862228D01*
X127147786Y-103942971D01*
X127393065Y-103983900D01*
X127641735Y-103983900D01*
X127887014Y-103942971D01*
X128122210Y-103862228D01*
X128340909Y-103743874D01*
X128537144Y-103591138D01*
X128696171Y-103418388D01*
X128756057Y-103382399D01*
X128825895Y-103384499D01*
X128878628Y-103418388D01*
X129037656Y-103591138D01*
X129117030Y-103652917D01*
X129233888Y-103743872D01*
X129233893Y-103743875D01*
X129366917Y-103815864D01*
X129416508Y-103865083D01*
X129431900Y-103924919D01*
X129431900Y-113619011D01*
X129455935Y-113739844D01*
X129455940Y-113739861D01*
X129503085Y-113853680D01*
X129503090Y-113853689D01*
X129537314Y-113904907D01*
X129537315Y-113904909D01*
X129571541Y-113956133D01*
X129662986Y-114047578D01*
X129663008Y-114047598D01*
X141011016Y-125395606D01*
X141011045Y-125395637D01*
X141101264Y-125485856D01*
X141101267Y-125485858D01*
X141152490Y-125520084D01*
X141203714Y-125554312D01*
X141284207Y-125587652D01*
X141317548Y-125601463D01*
X141377971Y-125613481D01*
X141438393Y-125625500D01*
X153061607Y-125625500D01*
X153122029Y-125613481D01*
X153182452Y-125601463D01*
X153182455Y-125601461D01*
X153182458Y-125601461D01*
X153215787Y-125587654D01*
X153215786Y-125587654D01*
X153215792Y-125587652D01*
X153296286Y-125554312D01*
X153347509Y-125520084D01*
X153347511Y-125520083D01*
X153360271Y-125511556D01*
X153398733Y-125485858D01*
X153485858Y-125398733D01*
X153485859Y-125398731D01*
X153492925Y-125391665D01*
X153492928Y-125391661D01*
X155398729Y-123485860D01*
X155398733Y-123485858D01*
X155485858Y-123398733D01*
X155520084Y-123347509D01*
X155554312Y-123296286D01*
X155601463Y-123182451D01*
X155625500Y-123061607D01*
X155625500Y-122938393D01*
X155625500Y-85938394D01*
X155601463Y-85817548D01*
X155555449Y-85706461D01*
X155554312Y-85703715D01*
X155537256Y-85678190D01*
X155485858Y-85601267D01*
X155485856Y-85601264D01*
X155395637Y-85511045D01*
X155395606Y-85511016D01*
X145121819Y-75237229D01*
X145088334Y-75175906D01*
X145085500Y-75149548D01*
X145085500Y-68441519D01*
X145105185Y-68374480D01*
X145150483Y-68332464D01*
X145151369Y-68331984D01*
X145283509Y-68260474D01*
X145479744Y-68107738D01*
X145638771Y-67934988D01*
X145698657Y-67898999D01*
X145768495Y-67901099D01*
X145821228Y-67934988D01*
X145980256Y-68107738D01*
X146176491Y-68260474D01*
X146176493Y-68260475D01*
X146387155Y-68374480D01*
X146395190Y-68378828D01*
X146630386Y-68459571D01*
X146875665Y-68500500D01*
X147124335Y-68500500D01*
X147369614Y-68459571D01*
X147604810Y-68378828D01*
X147823509Y-68260474D01*
X148019744Y-68107738D01*
X148188164Y-67924785D01*
X148324173Y-67716607D01*
X148424063Y-67488881D01*
X148485108Y-67247821D01*
X148505643Y-67000000D01*
X148485108Y-66752179D01*
X148424063Y-66511119D01*
X148324173Y-66283393D01*
X148205011Y-66101001D01*
X148188166Y-66075217D01*
X148166557Y-66051744D01*
X148019744Y-65892262D01*
X147823509Y-65739526D01*
X147823507Y-65739525D01*
X147823506Y-65739524D01*
X147604811Y-65621172D01*
X147604802Y-65621169D01*
X147369616Y-65540429D01*
X147124335Y-65499500D01*
X146875665Y-65499500D01*
X146630383Y-65540429D01*
X146395197Y-65621169D01*
X146395188Y-65621172D01*
X146176493Y-65739524D01*
X145980257Y-65892261D01*
X145821230Y-66065010D01*
X145761342Y-66101001D01*
X145691504Y-66098900D01*
X145638770Y-66065010D01*
X145599108Y-66021926D01*
X145479744Y-65892262D01*
X145283509Y-65739526D01*
X145283507Y-65739525D01*
X145283506Y-65739524D01*
X145064811Y-65621172D01*
X145064802Y-65621169D01*
X144829616Y-65540429D01*
X144584335Y-65499500D01*
X144335665Y-65499500D01*
X144090383Y-65540429D01*
X143855197Y-65621169D01*
X143855188Y-65621172D01*
X143636493Y-65739524D01*
X143440257Y-65892261D01*
X143281230Y-66065010D01*
X143221342Y-66101001D01*
X143151504Y-66098900D01*
X143098770Y-66065010D01*
X143059108Y-66021926D01*
X142939744Y-65892262D01*
X142743509Y-65739526D01*
X142743507Y-65739525D01*
X142743506Y-65739524D01*
X142524811Y-65621172D01*
X142524802Y-65621169D01*
X142289616Y-65540429D01*
X142044335Y-65499500D01*
X141795665Y-65499500D01*
X141550383Y-65540429D01*
X141315197Y-65621169D01*
X141315188Y-65621172D01*
X141096493Y-65739524D01*
X140900257Y-65892261D01*
X140741230Y-66065010D01*
X140681342Y-66101001D01*
X140611504Y-66098900D01*
X140558770Y-66065010D01*
X140519108Y-66021926D01*
X140399744Y-65892262D01*
X140203509Y-65739526D01*
X140203507Y-65739525D01*
X140203506Y-65739524D01*
X139984811Y-65621172D01*
X139984802Y-65621169D01*
X139749616Y-65540429D01*
X139504335Y-65499500D01*
X139255665Y-65499500D01*
X139010383Y-65540429D01*
X138775197Y-65621169D01*
X138775188Y-65621172D01*
X138556493Y-65739524D01*
X138360257Y-65892261D01*
X138201230Y-66065010D01*
X138141342Y-66101001D01*
X138071504Y-66098900D01*
X138018770Y-66065010D01*
X137979108Y-66021926D01*
X137859744Y-65892262D01*
X137663509Y-65739526D01*
X137663507Y-65739525D01*
X137663506Y-65739524D01*
X137444811Y-65621172D01*
X137444802Y-65621169D01*
X137209616Y-65540429D01*
X136964335Y-65499500D01*
X136715665Y-65499500D01*
X136470383Y-65540429D01*
X136235197Y-65621169D01*
X136235188Y-65621172D01*
X136016493Y-65739524D01*
X135820257Y-65892261D01*
X135661230Y-66065010D01*
X135601342Y-66101001D01*
X135531504Y-66098900D01*
X135478770Y-66065010D01*
X135439108Y-66021926D01*
X135319744Y-65892262D01*
X135123509Y-65739526D01*
X135123507Y-65739525D01*
X135123506Y-65739524D01*
X134904811Y-65621172D01*
X134904802Y-65621169D01*
X134669616Y-65540429D01*
X134424335Y-65499500D01*
X134175665Y-65499500D01*
X133930383Y-65540429D01*
X133695197Y-65621169D01*
X133695188Y-65621172D01*
X133476493Y-65739524D01*
X133280257Y-65892261D01*
X133121230Y-66065010D01*
X133061342Y-66101001D01*
X132991504Y-66098900D01*
X132938770Y-66065010D01*
X132899108Y-66021926D01*
X132779744Y-65892262D01*
X132583509Y-65739526D01*
X132583507Y-65739525D01*
X132583506Y-65739524D01*
X132364811Y-65621172D01*
X132364802Y-65621169D01*
X132129616Y-65540429D01*
X131884335Y-65499500D01*
X131635665Y-65499500D01*
X131390383Y-65540429D01*
X131155197Y-65621169D01*
X131155188Y-65621172D01*
X130936493Y-65739524D01*
X130740257Y-65892261D01*
X130581230Y-66065010D01*
X130521342Y-66101001D01*
X130451504Y-66098900D01*
X130398770Y-66065010D01*
X130359108Y-66021926D01*
X130239744Y-65892262D01*
X130043509Y-65739526D01*
X130043507Y-65739525D01*
X130043506Y-65739524D01*
X129824811Y-65621172D01*
X129824802Y-65621169D01*
X129589616Y-65540429D01*
X129344335Y-65499500D01*
X129095665Y-65499500D01*
X128850383Y-65540429D01*
X128615197Y-65621169D01*
X128615188Y-65621172D01*
X128396493Y-65739524D01*
X128200257Y-65892261D01*
X128041230Y-66065010D01*
X127981342Y-66101001D01*
X127911504Y-66098900D01*
X127858770Y-66065010D01*
X127819108Y-66021926D01*
X127699744Y-65892262D01*
X127503509Y-65739526D01*
X127503507Y-65739525D01*
X127503506Y-65739524D01*
X127284811Y-65621172D01*
X127284802Y-65621169D01*
X127049616Y-65540429D01*
X126804335Y-65499500D01*
X126555665Y-65499500D01*
X126310383Y-65540429D01*
X126075197Y-65621169D01*
X126075188Y-65621172D01*
X125856493Y-65739524D01*
X125660257Y-65892261D01*
X125501230Y-66065010D01*
X125441342Y-66101001D01*
X125371504Y-66098900D01*
X125318770Y-66065010D01*
X125279108Y-66021926D01*
X125159744Y-65892262D01*
X124963509Y-65739526D01*
X124963507Y-65739525D01*
X124963506Y-65739524D01*
X124744811Y-65621172D01*
X124744802Y-65621169D01*
X124509616Y-65540429D01*
X124264335Y-65499500D01*
X124015665Y-65499500D01*
X123770383Y-65540429D01*
X123535197Y-65621169D01*
X123535188Y-65621172D01*
X123316493Y-65739524D01*
X123120257Y-65892261D01*
X122961230Y-66065010D01*
X122901342Y-66101001D01*
X122831504Y-66098900D01*
X122778770Y-66065010D01*
X122739108Y-66021926D01*
X122619744Y-65892262D01*
X122423509Y-65739526D01*
X122423507Y-65739525D01*
X122423506Y-65739524D01*
X122204811Y-65621172D01*
X122204802Y-65621169D01*
X121969616Y-65540429D01*
X121724335Y-65499500D01*
X121475665Y-65499500D01*
X121230383Y-65540429D01*
X120995197Y-65621169D01*
X120995188Y-65621172D01*
X120776493Y-65739524D01*
X120580257Y-65892261D01*
X120421230Y-66065010D01*
X120361342Y-66101001D01*
X120291504Y-66098900D01*
X120238770Y-66065010D01*
X120199108Y-66021926D01*
X120079744Y-65892262D01*
X119883509Y-65739526D01*
X119883507Y-65739525D01*
X119883506Y-65739524D01*
X119664811Y-65621172D01*
X119664802Y-65621169D01*
X119429616Y-65540429D01*
X119184335Y-65499500D01*
X118935665Y-65499500D01*
X118690383Y-65540429D01*
X118455197Y-65621169D01*
X118455188Y-65621172D01*
X118236493Y-65739524D01*
X118040257Y-65892261D01*
X117881230Y-66065010D01*
X117821342Y-66101001D01*
X117751504Y-66098900D01*
X117698770Y-66065010D01*
X117659108Y-66021926D01*
X117539744Y-65892262D01*
X117343509Y-65739526D01*
X117343507Y-65739525D01*
X117343506Y-65739524D01*
X117124811Y-65621172D01*
X117124802Y-65621169D01*
X116889616Y-65540429D01*
X116644335Y-65499500D01*
X116395665Y-65499500D01*
X116150383Y-65540429D01*
X115915197Y-65621169D01*
X115915188Y-65621172D01*
X115696493Y-65739524D01*
X115500257Y-65892261D01*
X115341230Y-66065010D01*
X115281342Y-66101001D01*
X115211504Y-66098900D01*
X115158770Y-66065010D01*
X115119108Y-66021926D01*
X114999744Y-65892262D01*
X114803509Y-65739526D01*
X114803507Y-65739525D01*
X114803506Y-65739524D01*
X114584811Y-65621172D01*
X114584802Y-65621169D01*
X114349616Y-65540429D01*
X114104335Y-65499500D01*
X113855665Y-65499500D01*
X113610383Y-65540429D01*
X113375197Y-65621169D01*
X113375188Y-65621172D01*
X113156493Y-65739524D01*
X112960257Y-65892261D01*
X112801230Y-66065010D01*
X112741342Y-66101001D01*
X112671504Y-66098900D01*
X112618770Y-66065010D01*
X112579108Y-66021926D01*
X112459744Y-65892262D01*
X112263509Y-65739526D01*
X112263507Y-65739525D01*
X112263506Y-65739524D01*
X112044811Y-65621172D01*
X112044802Y-65621169D01*
X111809616Y-65540429D01*
X111564335Y-65499500D01*
X111315665Y-65499500D01*
X111070383Y-65540429D01*
X110835197Y-65621169D01*
X110835188Y-65621172D01*
X110616493Y-65739524D01*
X110420257Y-65892261D01*
X110261230Y-66065010D01*
X110201342Y-66101001D01*
X110131504Y-66098900D01*
X110078770Y-66065010D01*
X110039108Y-66021926D01*
X109919744Y-65892262D01*
X109723509Y-65739526D01*
X109723507Y-65739525D01*
X109723506Y-65739524D01*
X109504811Y-65621172D01*
X109504802Y-65621169D01*
X109269616Y-65540429D01*
X109024335Y-65499500D01*
X108775665Y-65499500D01*
X108530383Y-65540429D01*
X108295197Y-65621169D01*
X108295188Y-65621172D01*
X108076493Y-65739524D01*
X107880257Y-65892261D01*
X107721230Y-66065010D01*
X107661342Y-66101001D01*
X107591504Y-66098900D01*
X107538770Y-66065010D01*
X107499108Y-66021926D01*
X107379744Y-65892262D01*
X107183509Y-65739526D01*
X107183507Y-65739525D01*
X107183506Y-65739524D01*
X106964811Y-65621172D01*
X106964802Y-65621169D01*
X106729616Y-65540429D01*
X106484335Y-65499500D01*
X106235665Y-65499500D01*
X105990383Y-65540429D01*
X105755197Y-65621169D01*
X105755188Y-65621172D01*
X105536491Y-65739525D01*
X105536488Y-65739528D01*
X105453212Y-65804343D01*
X105388218Y-65829985D01*
X105319678Y-65816418D01*
X105269354Y-65767949D01*
X105268159Y-65765392D01*
X105268047Y-65765454D01*
X105263793Y-65757664D01*
X105177547Y-65642455D01*
X105177544Y-65642452D01*
X105062335Y-65556206D01*
X105062328Y-65556202D01*
X104927482Y-65505908D01*
X104927483Y-65505908D01*
X104867883Y-65499501D01*
X104867881Y-65499500D01*
X104867873Y-65499500D01*
X104867864Y-65499500D01*
X102772129Y-65499500D01*
X102772123Y-65499501D01*
X102712516Y-65505908D01*
X102577671Y-65556202D01*
X102577664Y-65556206D01*
X102462455Y-65642452D01*
X102462452Y-65642455D01*
X102376206Y-65757664D01*
X102376202Y-65757671D01*
X102325908Y-65892517D01*
X102319501Y-65952116D01*
X102319500Y-65952135D01*
X68500000Y-65952135D01*
X68500000Y-61124000D01*
X68519685Y-61056961D01*
X68572489Y-61011206D01*
X68624000Y-61000000D01*
X158376000Y-61000000D01*
X158443039Y-61019685D01*
G37*
%TD.AperFunction*%
%TD*%
M02*
