ISO-10303-21;
HEADER;
/* Generated by software containing ST-Developer
 * from STEP Tools, Inc. (www.steptools.com) 
 */

FILE_DESCRIPTION(
/* description */ ('',
'CAx-IF Rec.Pracs.---Representation and Presentation of Product Manufa
cturing Information (PMI)---4.0---2014-10-13'),
/* implementation_level */ '2;1');

FILE_NAME(
/* name */ '20231115-PlaquetteDeBalanceBottomLeftEnBol-Version1.step',
/* time_stamp */ '2025-02-17T13:40:16-05:00',
/* author */ (''),
/* organization */ (''),
/* preprocessor_version */ 'ST-DEVELOPER v20',
/* originating_system */ 'Autodesk Translation Framework v13.20.0.188',

/* authorisation */ '');

FILE_SCHEMA (('AP242_MANAGED_MODEL_BASED_3D_ENGINEERING_MIM_LF { 1 0 10303 442 1 1 4 }'));
ENDSEC;

DATA;
#10=MECHANICAL_DESIGN_GEOMETRIC_PRESENTATION_REPRESENTATION('',(#13,#14,
#15),#2126);
#11=SHAPE_REPRESENTATION_RELATIONSHIP('SRR','None',#2133,#12);
#12=ADVANCED_BREP_SHAPE_REPRESENTATION('',(#16,#17,#18),#2125);
#13=STYLED_ITEM('',(#2142),#16);
#14=STYLED_ITEM('',(#2142),#17);
#15=STYLED_ITEM('',(#2142),#18);
#16=MANIFOLD_SOLID_BREP('Body3',#1258);
#17=MANIFOLD_SOLID_BREP('Body5',#1259);
#18=MANIFOLD_SOLID_BREP('Body4',#1260);
#19=(
BOUNDED_SURFACE()
B_SPLINE_SURFACE(2,2,((#1981,#1982,#1983),(#1984,#1985,#1986),(#1987,#1988,
#1989)),.UNSPECIFIED.,.F.,.F.,.F.)
B_SPLINE_SURFACE_WITH_KNOTS((3,3),(3,3),(0.622826585412003,1.46920542026332),
(-3.14159265358979,-1.5707963267949),.UNSPECIFIED.)
GEOMETRIC_REPRESENTATION_ITEM()
RATIONAL_B_SPLINE_SURFACE(((1.,0.707106781186547,1.),(0.911783780081213,
0.644728493871329,0.911783780081213),(1.,0.707106781186547,1.)))
REPRESENTATION_ITEM('')
SURFACE()
);
#20=(
BOUNDED_SURFACE()
B_SPLINE_SURFACE(2,2,((#1999,#2000,#2001),(#2002,#2003,#2004),(#2005,#2006,
#2007)),.UNSPECIFIED.,.F.,.F.,.F.)
B_SPLINE_SURFACE_WITH_KNOTS((3,3),(3,3),(-1.5707963267949,-0.787134277997099),
(-3.14159265358979,-1.5707963267949),.UNSPECIFIED.)
GEOMETRIC_REPRESENTATION_ITEM()
RATIONAL_B_SPLINE_SURFACE(((1.,0.707106781186548,1.),(0.924211375534118,
0.653516130889922,0.924211375534118),(1.,0.707106781186548,1.)))
REPRESENTATION_ITEM('')
SURFACE()
);
#21=B_SPLINE_CURVE_WITH_KNOTS('',3,(#1941,#1942,#1943,#1944),
 .UNSPECIFIED.,.F.,.F.,(4,4),(7.74398447596777,7.74464270387259),
 .UNSPECIFIED.);
#22=B_SPLINE_CURVE_WITH_KNOTS('',3,(#1949,#1950,#1951,#1952),
 .UNSPECIFIED.,.F.,.F.,(4,4),(2.13869787163084,2.14464906153834),
 .UNSPECIFIED.);
#23=B_SPLINE_CURVE_WITH_KNOTS('',3,(#1953,#1954,#1955,#1956,#1957,#1958,
#1959,#1960,#1961,#1962),.UNSPECIFIED.,.F.,.F.,(4,2,2,2,4),(-1.09706221425755,
-0.819157566796369,-0.546026655093657,-0.272995511773915,-2.16011697862228E-7),
 .UNSPECIFIED.);
#24=FACE_BOUND('',#186,.T.);
#25=FACE_BOUND('',#187,.T.);
#26=FACE_BOUND('',#199,.T.);
#27=FACE_BOUND('',#200,.T.);
#28=FACE_BOUND('',#201,.T.);
#29=FACE_BOUND('',#202,.T.);
#30=FACE_BOUND('',#227,.T.);
#31=FACE_BOUND('',#228,.T.);
#32=FACE_BOUND('',#230,.T.);
#33=FACE_BOUND('',#231,.T.);
#34=FACE_BOUND('',#246,.T.);
#35=FACE_BOUND('',#247,.T.);
#36=FACE_BOUND('',#249,.T.);
#37=FACE_BOUND('',#250,.T.);
#38=CIRCLE('',#1276,0.999999999999996);
#39=CIRCLE('',#1277,0.999999999999996);
#40=CIRCLE('',#1280,0.999999999999996);
#41=CIRCLE('',#1281,0.999999999999996);
#42=CIRCLE('',#1284,0.999999999999996);
#43=CIRCLE('',#1285,0.999999999999996);
#44=CIRCLE('',#1288,0.999999999999996);
#45=CIRCLE('',#1289,0.999999999999996);
#46=CIRCLE('',#1291,24.);
#47=CIRCLE('',#1294,24.);
#48=CIRCLE('',#1303,24.);
#49=CIRCLE('',#1306,24.);
#50=CIRCLE('',#1309,24.);
#51=CIRCLE('',#1310,24.);
#52=CIRCLE('',#1311,24.);
#53=CIRCLE('',#1313,7.05892565390259);
#54=CIRCLE('',#1314,7.00000000000001);
#55=CIRCLE('',#1317,24.);
#56=CIRCLE('',#1322,24.);
#57=CIRCLE('',#1323,24.);
#58=CIRCLE('',#1325,24.);
#59=CIRCLE('',#1327,24.);
#60=CIRCLE('',#1329,24.);
#61=CIRCLE('',#1330,24.);
#62=CIRCLE('',#1333,24.);
#63=CIRCLE('',#1334,24.);
#64=CIRCLE('',#1335,24.);
#65=CIRCLE('',#1337,24.);
#66=CIRCLE('',#1339,24.);
#67=CIRCLE('',#1341,24.);
#68=CIRCLE('',#1347,1.985);
#69=CIRCLE('',#1348,1.985);
#70=CIRCLE('',#1350,1.98499999999999);
#71=CIRCLE('',#1351,1.98499999999999);
#72=CIRCLE('',#1353,24.);
#73=CIRCLE('',#1354,24.);
#74=CIRCLE('',#1361,1.96315777364079);
#75=CIRCLE('',#1362,1.96315777364079);
#76=CIRCLE('',#1364,1.99823327649724);
#77=CIRCLE('',#1365,1.99823327649724);
#78=CIRCLE('',#1368,0.999999999999996);
#79=CIRCLE('',#1369,0.999999999999996);
#80=CIRCLE('',#1372,0.999999999999996);
#81=CIRCLE('',#1373,0.999999999999996);
#82=CIRCLE('',#1376,0.999999999999996);
#83=CIRCLE('',#1377,0.999999999999996);
#84=CIRCLE('',#1380,0.999999999999996);
#85=CIRCLE('',#1381,0.999999999999996);
#86=CYLINDRICAL_SURFACE('',#1275,0.999999999999996);
#87=CYLINDRICAL_SURFACE('',#1279,0.999999999999996);
#88=CYLINDRICAL_SURFACE('',#1283,0.999999999999996);
#89=CYLINDRICAL_SURFACE('',#1287,0.999999999999996);
#90=CYLINDRICAL_SURFACE('',#1308,24.);
#91=CYLINDRICAL_SURFACE('',#1320,7.00000000000001);
#92=CYLINDRICAL_SURFACE('',#1321,24.);
#93=CYLINDRICAL_SURFACE('',#1324,24.);
#94=CYLINDRICAL_SURFACE('',#1326,24.);
#95=CYLINDRICAL_SURFACE('',#1328,24.);
#96=CYLINDRICAL_SURFACE('',#1332,24.);
#97=CYLINDRICAL_SURFACE('',#1336,24.);
#98=CYLINDRICAL_SURFACE('',#1338,24.);
#99=CYLINDRICAL_SURFACE('',#1340,24.);
#100=CYLINDRICAL_SURFACE('',#1346,1.985);
#101=CYLINDRICAL_SURFACE('',#1349,1.98499999999999);
#102=CYLINDRICAL_SURFACE('',#1352,24.);
#103=CYLINDRICAL_SURFACE('',#1360,1.96315777364079);
#104=CYLINDRICAL_SURFACE('',#1363,1.99823327649724);
#105=CYLINDRICAL_SURFACE('',#1367,0.999999999999996);
#106=CYLINDRICAL_SURFACE('',#1371,0.999999999999996);
#107=CYLINDRICAL_SURFACE('',#1375,0.999999999999996);
#108=CYLINDRICAL_SURFACE('',#1379,0.999999999999996);
#109=FACE_OUTER_BOUND('',#173,.T.);
#110=FACE_OUTER_BOUND('',#174,.T.);
#111=FACE_OUTER_BOUND('',#175,.T.);
#112=FACE_OUTER_BOUND('',#176,.T.);
#113=FACE_OUTER_BOUND('',#177,.T.);
#114=FACE_OUTER_BOUND('',#178,.T.);
#115=FACE_OUTER_BOUND('',#179,.T.);
#116=FACE_OUTER_BOUND('',#180,.T.);
#117=FACE_OUTER_BOUND('',#181,.T.);
#118=FACE_OUTER_BOUND('',#182,.T.);
#119=FACE_OUTER_BOUND('',#183,.T.);
#120=FACE_OUTER_BOUND('',#184,.T.);
#121=FACE_OUTER_BOUND('',#185,.T.);
#122=FACE_OUTER_BOUND('',#188,.T.);
#123=FACE_OUTER_BOUND('',#189,.T.);
#124=FACE_OUTER_BOUND('',#190,.T.);
#125=FACE_OUTER_BOUND('',#191,.T.);
#126=FACE_OUTER_BOUND('',#192,.T.);
#127=FACE_OUTER_BOUND('',#193,.T.);
#128=FACE_OUTER_BOUND('',#194,.T.);
#129=FACE_OUTER_BOUND('',#195,.T.);
#130=FACE_OUTER_BOUND('',#196,.T.);
#131=FACE_OUTER_BOUND('',#197,.T.);
#132=FACE_OUTER_BOUND('',#198,.T.);
#133=FACE_OUTER_BOUND('',#203,.T.);
#134=FACE_OUTER_BOUND('',#204,.T.);
#135=FACE_OUTER_BOUND('',#205,.T.);
#136=FACE_OUTER_BOUND('',#206,.T.);
#137=FACE_OUTER_BOUND('',#207,.T.);
#138=FACE_OUTER_BOUND('',#208,.T.);
#139=FACE_OUTER_BOUND('',#209,.T.);
#140=FACE_OUTER_BOUND('',#210,.T.);
#141=FACE_OUTER_BOUND('',#211,.T.);
#142=FACE_OUTER_BOUND('',#212,.T.);
#143=FACE_OUTER_BOUND('',#213,.T.);
#144=FACE_OUTER_BOUND('',#214,.T.);
#145=FACE_OUTER_BOUND('',#215,.T.);
#146=FACE_OUTER_BOUND('',#216,.T.);
#147=FACE_OUTER_BOUND('',#217,.T.);
#148=FACE_OUTER_BOUND('',#218,.T.);
#149=FACE_OUTER_BOUND('',#219,.T.);
#150=FACE_OUTER_BOUND('',#220,.T.);
#151=FACE_OUTER_BOUND('',#221,.T.);
#152=FACE_OUTER_BOUND('',#222,.T.);
#153=FACE_OUTER_BOUND('',#223,.T.);
#154=FACE_OUTER_BOUND('',#224,.T.);
#155=FACE_OUTER_BOUND('',#225,.T.);
#156=FACE_OUTER_BOUND('',#226,.T.);
#157=FACE_OUTER_BOUND('',#229,.T.);
#158=FACE_OUTER_BOUND('',#232,.T.);
#159=FACE_OUTER_BOUND('',#233,.T.);
#160=FACE_OUTER_BOUND('',#234,.T.);
#161=FACE_OUTER_BOUND('',#235,.T.);
#162=FACE_OUTER_BOUND('',#236,.T.);
#163=FACE_OUTER_BOUND('',#237,.T.);
#164=FACE_OUTER_BOUND('',#238,.T.);
#165=FACE_OUTER_BOUND('',#239,.T.);
#166=FACE_OUTER_BOUND('',#240,.T.);
#167=FACE_OUTER_BOUND('',#241,.T.);
#168=FACE_OUTER_BOUND('',#242,.T.);
#169=FACE_OUTER_BOUND('',#243,.T.);
#170=FACE_OUTER_BOUND('',#244,.T.);
#171=FACE_OUTER_BOUND('',#245,.T.);
#172=FACE_OUTER_BOUND('',#248,.T.);
#173=EDGE_LOOP('',(#799,#800,#801,#802));
#174=EDGE_LOOP('',(#803,#804,#805,#806));
#175=EDGE_LOOP('',(#807,#808,#809,#810));
#176=EDGE_LOOP('',(#811,#812,#813,#814));
#177=EDGE_LOOP('',(#815,#816,#817,#818));
#178=EDGE_LOOP('',(#819,#820,#821,#822));
#179=EDGE_LOOP('',(#823,#824,#825,#826));
#180=EDGE_LOOP('',(#827,#828,#829,#830));
#181=EDGE_LOOP('',(#831,#832,#833,#834,#835));
#182=EDGE_LOOP('',(#836,#837,#838,#839));
#183=EDGE_LOOP('',(#840,#841,#842,#843,#844));
#184=EDGE_LOOP('',(#845,#846,#847,#848));
#185=EDGE_LOOP('',(#849,#850,#851,#852,#853,#854,#855,#856,#857,#858,#859,
#860,#861,#862,#863));
#186=EDGE_LOOP('',(#864,#865,#866,#867,#868,#869,#870,#871));
#187=EDGE_LOOP('',(#872,#873,#874,#875));
#188=EDGE_LOOP('',(#876,#877,#878,#879));
#189=EDGE_LOOP('',(#880,#881,#882,#883));
#190=EDGE_LOOP('',(#884,#885,#886,#887));
#191=EDGE_LOOP('',(#888,#889,#890,#891));
#192=EDGE_LOOP('',(#892,#893,#894,#895));
#193=EDGE_LOOP('',(#896,#897,#898,#899,#900,#901));
#194=EDGE_LOOP('',(#902,#903,#904,#905));
#195=EDGE_LOOP('',(#906,#907,#908,#909,#910,#911));
#196=EDGE_LOOP('',(#912,#913,#914,#915));
#197=EDGE_LOOP('',(#916,#917,#918,#919,#920,#921,#922,#923,#924,#925));
#198=EDGE_LOOP('',(#926,#927,#928,#929,#930,#931,#932,#933,#934,#935,#936,
#937,#938));
#199=EDGE_LOOP('',(#939,#940,#941,#942,#943,#944,#945,#946));
#200=EDGE_LOOP('',(#947,#948,#949,#950));
#201=EDGE_LOOP('',(#951,#952,#953,#954));
#202=EDGE_LOOP('',(#955,#956,#957,#958,#959));
#203=EDGE_LOOP('',(#960,#961,#962,#963,#964));
#204=EDGE_LOOP('',(#965,#966,#967,#968,#969));
#205=EDGE_LOOP('',(#970,#971,#972,#973,#974));
#206=EDGE_LOOP('',(#975,#976,#977,#978,#979,#980));
#207=EDGE_LOOP('',(#981,#982,#983,#984,#985));
#208=EDGE_LOOP('',(#986,#987,#988,#989,#990));
#209=EDGE_LOOP('',(#991,#992,#993,#994,#995,#996,#997,#998,#999,#1000));
#210=EDGE_LOOP('',(#1001,#1002,#1003,#1004));
#211=EDGE_LOOP('',(#1005,#1006,#1007,#1008));
#212=EDGE_LOOP('',(#1009,#1010,#1011,#1012,#1013));
#213=EDGE_LOOP('',(#1014,#1015,#1016,#1017,#1018,#1019));
#214=EDGE_LOOP('',(#1020,#1021,#1022,#1023));
#215=EDGE_LOOP('',(#1024,#1025,#1026,#1027));
#216=EDGE_LOOP('',(#1028,#1029,#1030,#1031,#1032,#1033));
#217=EDGE_LOOP('',(#1034,#1035,#1036,#1037));
#218=EDGE_LOOP('',(#1038,#1039,#1040,#1041));
#219=EDGE_LOOP('',(#1042,#1043,#1044,#1045));
#220=EDGE_LOOP('',(#1046,#1047,#1048,#1049));
#221=EDGE_LOOP('',(#1050,#1051,#1052,#1053));
#222=EDGE_LOOP('',(#1054,#1055,#1056,#1057,#1058));
#223=EDGE_LOOP('',(#1059,#1060,#1061,#1062));
#224=EDGE_LOOP('',(#1063,#1064,#1065,#1066));
#225=EDGE_LOOP('',(#1067,#1068,#1069,#1070));
#226=EDGE_LOOP('',(#1071,#1072,#1073,#1074));
#227=EDGE_LOOP('',(#1075));
#228=EDGE_LOOP('',(#1076));
#229=EDGE_LOOP('',(#1077,#1078,#1079,#1080));
#230=EDGE_LOOP('',(#1081));
#231=EDGE_LOOP('',(#1082));
#232=EDGE_LOOP('',(#1083,#1084,#1085,#1086));
#233=EDGE_LOOP('',(#1087,#1088,#1089,#1090));
#234=EDGE_LOOP('',(#1091,#1092,#1093,#1094));
#235=EDGE_LOOP('',(#1095,#1096,#1097,#1098));
#236=EDGE_LOOP('',(#1099,#1100,#1101,#1102));
#237=EDGE_LOOP('',(#1103,#1104,#1105,#1106));
#238=EDGE_LOOP('',(#1107,#1108,#1109,#1110));
#239=EDGE_LOOP('',(#1111,#1112,#1113,#1114));
#240=EDGE_LOOP('',(#1115,#1116,#1117,#1118));
#241=EDGE_LOOP('',(#1119,#1120,#1121,#1122));
#242=EDGE_LOOP('',(#1123,#1124,#1125,#1126));
#243=EDGE_LOOP('',(#1127,#1128,#1129,#1130));
#244=EDGE_LOOP('',(#1131,#1132,#1133,#1134));
#245=EDGE_LOOP('',(#1135,#1136,#1137,#1138,#1139,#1140,#1141,#1142));
#246=EDGE_LOOP('',(#1143));
#247=EDGE_LOOP('',(#1144));
#248=EDGE_LOOP('',(#1145,#1146,#1147,#1148,#1149,#1150,#1151,#1152));
#249=EDGE_LOOP('',(#1153));
#250=EDGE_LOOP('',(#1154));
#251=LINE('',#1737,#378);
#252=LINE('',#1739,#379);
#253=LINE('',#1741,#380);
#254=LINE('',#1742,#381);
#255=LINE('',#1747,#382);
#256=LINE('',#1751,#383);
#257=LINE('',#1753,#384);
#258=LINE('',#1754,#385);
#259=LINE('',#1759,#386);
#260=LINE('',#1763,#387);
#261=LINE('',#1765,#388);
#262=LINE('',#1766,#389);
#263=LINE('',#1771,#390);
#264=LINE('',#1775,#391);
#265=LINE('',#1777,#392);
#266=LINE('',#1778,#393);
#267=LINE('',#1787,#394);
#268=LINE('',#1789,#395);
#269=LINE('',#1791,#396);
#270=LINE('',#1792,#397);
#271=LINE('',#1795,#398);
#272=LINE('',#1797,#399);
#273=LINE('',#1798,#400);
#274=LINE('',#1803,#401);
#275=LINE('',#1805,#402);
#276=LINE('',#1806,#403);
#277=LINE('',#1808,#404);
#278=LINE('',#1809,#405);
#279=LINE('',#1812,#406);
#280=LINE('',#1814,#407);
#281=LINE('',#1816,#408);
#282=LINE('',#1818,#409);
#283=LINE('',#1820,#410);
#284=LINE('',#1822,#411);
#285=LINE('',#1824,#412);
#286=LINE('',#1826,#413);
#287=LINE('',#1828,#414);
#288=LINE('',#1830,#415);
#289=LINE('',#1832,#416);
#290=LINE('',#1833,#417);
#291=LINE('',#1836,#418);
#292=LINE('',#1838,#419);
#293=LINE('',#1840,#420);
#294=LINE('',#1841,#421);
#295=LINE('',#1845,#422);
#296=LINE('',#1846,#423);
#297=LINE('',#1847,#424);
#298=LINE('',#1850,#425);
#299=LINE('',#1851,#426);
#300=LINE('',#1854,#427);
#301=LINE('',#1855,#428);
#302=LINE('',#1857,#429);
#303=LINE('',#1861,#430);
#304=LINE('',#1863,#431);
#305=LINE('',#1865,#432);
#306=LINE('',#1866,#433);
#307=LINE('',#1870,#434);
#308=LINE('',#1872,#435);
#309=LINE('',#1873,#436);
#310=LINE('',#1876,#437);
#311=LINE('',#1877,#438);
#312=LINE('',#1881,#439);
#313=LINE('',#1882,#440);
#314=LINE('',#1884,#441);
#315=LINE('',#1889,#442);
#316=LINE('',#1893,#443);
#317=LINE('',#1897,#444);
#318=LINE('',#1899,#445);
#319=LINE('',#1903,#446);
#320=LINE('',#1905,#447);
#321=LINE('',#1907,#448);
#322=LINE('',#1909,#449);
#323=LINE('',#1911,#450);
#324=LINE('',#1913,#451);
#325=LINE('',#1914,#452);
#326=LINE('',#1917,#453);
#327=LINE('',#1921,#454);
#328=LINE('',#1923,#455);
#329=LINE('',#1924,#456);
#330=LINE('',#1928,#457);
#331=LINE('',#1929,#458);
#332=LINE('',#1931,#459);
#333=LINE('',#1932,#460);
#334=LINE('',#1935,#461);
#335=LINE('',#1937,#462);
#336=LINE('',#1945,#463);
#337=LINE('',#1946,#464);
#338=LINE('',#1967,#465);
#339=LINE('',#1972,#466);
#340=LINE('',#1976,#467);
#341=LINE('',#1980,#468);
#342=LINE('',#1993,#469);
#343=LINE('',#1994,#470);
#344=LINE('',#1995,#471);
#345=LINE('',#2017,#472);
#346=LINE('',#2018,#473);
#347=LINE('',#2020,#474);
#348=LINE('',#2027,#475);
#349=LINE('',#2033,#476);
#350=LINE('',#2040,#477);
#351=LINE('',#2043,#478);
#352=LINE('',#2046,#479);
#353=LINE('',#2048,#480);
#354=LINE('',#2049,#481);
#355=LINE('',#2052,#482);
#356=LINE('',#2054,#483);
#357=LINE('',#2055,#484);
#358=LINE('',#2057,#485);
#359=LINE('',#2058,#486);
#360=LINE('',#2065,#487);
#361=LINE('',#2071,#488);
#362=LINE('',#2076,#489);
#363=LINE('',#2078,#490);
#364=LINE('',#2080,#491);
#365=LINE('',#2081,#492);
#366=LINE('',#2087,#493);
#367=LINE('',#2090,#494);
#368=LINE('',#2092,#495);
#369=LINE('',#2093,#496);
#370=LINE('',#2099,#497);
#371=LINE('',#2102,#498);
#372=LINE('',#2104,#499);
#373=LINE('',#2105,#500);
#374=LINE('',#2111,#501);
#375=LINE('',#2114,#502);
#376=LINE('',#2116,#503);
#377=LINE('',#2117,#504);
#378=VECTOR('',#1388,10.);
#379=VECTOR('',#1389,10.);
#380=VECTOR('',#1390,10.);
#381=VECTOR('',#1391,10.);
#382=VECTOR('',#1396,10.);
#383=VECTOR('',#1401,10.);
#384=VECTOR('',#1402,10.);
#385=VECTOR('',#1403,10.);
#386=VECTOR('',#1408,10.);
#387=VECTOR('',#1413,10.);
#388=VECTOR('',#1414,10.);
#389=VECTOR('',#1415,10.);
#390=VECTOR('',#1420,10.);
#391=VECTOR('',#1425,10.);
#392=VECTOR('',#1426,10.);
#393=VECTOR('',#1427,10.);
#394=VECTOR('',#1438,10.);
#395=VECTOR('',#1439,10.);
#396=VECTOR('',#1440,10.);
#397=VECTOR('',#1441,10.);
#398=VECTOR('',#1444,10.);
#399=VECTOR('',#1445,10.);
#400=VECTOR('',#1446,10.);
#401=VECTOR('',#1451,10.);
#402=VECTOR('',#1452,10.);
#403=VECTOR('',#1453,10.);
#404=VECTOR('',#1456,10.);
#405=VECTOR('',#1457,10.);
#406=VECTOR('',#1460,24.);
#407=VECTOR('',#1461,10.);
#408=VECTOR('',#1462,10.);
#409=VECTOR('',#1463,24.);
#410=VECTOR('',#1464,10.);
#411=VECTOR('',#1465,10.);
#412=VECTOR('',#1466,10.);
#413=VECTOR('',#1467,24.);
#414=VECTOR('',#1468,24.);
#415=VECTOR('',#1469,10.);
#416=VECTOR('',#1470,10.);
#417=VECTOR('',#1471,24.);
#418=VECTOR('',#1472,10.);
#419=VECTOR('',#1473,10.);
#420=VECTOR('',#1474,10.);
#421=VECTOR('',#1475,10.);
#422=VECTOR('',#1478,10.);
#423=VECTOR('',#1479,10.);
#424=VECTOR('',#1480,10.);
#425=VECTOR('',#1483,10.);
#426=VECTOR('',#1484,10.);
#427=VECTOR('',#1487,10.);
#428=VECTOR('',#1488,10.);
#429=VECTOR('',#1491,10.);
#430=VECTOR('',#1494,10.);
#431=VECTOR('',#1495,10.);
#432=VECTOR('',#1496,10.);
#433=VECTOR('',#1497,10.);
#434=VECTOR('',#1502,10.);
#435=VECTOR('',#1503,10.);
#436=VECTOR('',#1504,10.);
#437=VECTOR('',#1507,10.);
#438=VECTOR('',#1508,10.);
#439=VECTOR('',#1513,10.);
#440=VECTOR('',#1514,10.);
#441=VECTOR('',#1517,24.);
#442=VECTOR('',#1522,10.);
#443=VECTOR('',#1525,10.);
#444=VECTOR('',#1530,24.);
#445=VECTOR('',#1531,24.);
#446=VECTOR('',#1534,24.);
#447=VECTOR('',#1535,24.);
#448=VECTOR('',#1536,10.);
#449=VECTOR('',#1537,10.);
#450=VECTOR('',#1538,10.);
#451=VECTOR('',#1539,10.);
#452=VECTOR('',#1540,24.);
#453=VECTOR('',#1541,10.);
#454=VECTOR('',#1544,10.);
#455=VECTOR('',#1545,10.);
#456=VECTOR('',#1546,10.);
#457=VECTOR('',#1549,10.);
#458=VECTOR('',#1550,10.);
#459=VECTOR('',#1551,10.);
#460=VECTOR('',#1552,10.);
#461=VECTOR('',#1557,10.);
#462=VECTOR('',#1560,10.);
#463=VECTOR('',#1563,10.);
#464=VECTOR('',#1564,10.);
#465=VECTOR('',#1571,10.);
#466=VECTOR('',#1578,10.);
#467=VECTOR('',#1583,10.);
#468=VECTOR('',#1588,10.);
#469=VECTOR('',#1593,10.);
#470=VECTOR('',#1594,10.);
#471=VECTOR('',#1595,10.);
#472=VECTOR('',#1618,10.);
#473=VECTOR('',#1619,10.);
#474=VECTOR('',#1622,10.);
#475=VECTOR('',#1631,1.985);
#476=VECTOR('',#1638,1.98499999999999);
#477=VECTOR('',#1645,24.);
#478=VECTOR('',#1648,10.);
#479=VECTOR('',#1651,10.);
#480=VECTOR('',#1652,10.);
#481=VECTOR('',#1653,10.);
#482=VECTOR('',#1656,10.);
#483=VECTOR('',#1657,10.);
#484=VECTOR('',#1658,10.);
#485=VECTOR('',#1661,10.);
#486=VECTOR('',#1662,10.);
#487=VECTOR('',#1671,1.96315777364079);
#488=VECTOR('',#1678,1.99823327649724);
#489=VECTOR('',#1683,10.);
#490=VECTOR('',#1684,10.);
#491=VECTOR('',#1685,10.);
#492=VECTOR('',#1686,10.);
#493=VECTOR('',#1693,10.);
#494=VECTOR('',#1696,10.);
#495=VECTOR('',#1697,10.);
#496=VECTOR('',#1698,10.);
#497=VECTOR('',#1705,10.);
#498=VECTOR('',#1708,10.);
#499=VECTOR('',#1709,10.);
#500=VECTOR('',#1710,10.);
#501=VECTOR('',#1717,10.);
#502=VECTOR('',#1720,10.);
#503=VECTOR('',#1721,10.);
#504=VECTOR('',#1722,10.);
#505=VERTEX_POINT('',#1735);
#506=VERTEX_POINT('',#1736);
#507=VERTEX_POINT('',#1738);
#508=VERTEX_POINT('',#1740);
#509=VERTEX_POINT('',#1744);
#510=VERTEX_POINT('',#1746);
#511=VERTEX_POINT('',#1750);
#512=VERTEX_POINT('',#1752);
#513=VERTEX_POINT('',#1756);
#514=VERTEX_POINT('',#1758);
#515=VERTEX_POINT('',#1762);
#516=VERTEX_POINT('',#1764);
#517=VERTEX_POINT('',#1768);
#518=VERTEX_POINT('',#1770);
#519=VERTEX_POINT('',#1774);
#520=VERTEX_POINT('',#1776);
#521=VERTEX_POINT('',#1783);
#522=VERTEX_POINT('',#1784);
#523=VERTEX_POINT('',#1786);
#524=VERTEX_POINT('',#1788);
#525=VERTEX_POINT('',#1790);
#526=VERTEX_POINT('',#1794);
#527=VERTEX_POINT('',#1796);
#528=VERTEX_POINT('',#1800);
#529=VERTEX_POINT('',#1801);
#530=VERTEX_POINT('',#1804);
#531=VERTEX_POINT('',#1811);
#532=VERTEX_POINT('',#1813);
#533=VERTEX_POINT('',#1815);
#534=VERTEX_POINT('',#1817);
#535=VERTEX_POINT('',#1819);
#536=VERTEX_POINT('',#1821);
#537=VERTEX_POINT('',#1823);
#538=VERTEX_POINT('',#1825);
#539=VERTEX_POINT('',#1827);
#540=VERTEX_POINT('',#1829);
#541=VERTEX_POINT('',#1831);
#542=VERTEX_POINT('',#1834);
#543=VERTEX_POINT('',#1835);
#544=VERTEX_POINT('',#1837);
#545=VERTEX_POINT('',#1839);
#546=VERTEX_POINT('',#1843);
#547=VERTEX_POINT('',#1844);
#548=VERTEX_POINT('',#1849);
#549=VERTEX_POINT('',#1853);
#550=VERTEX_POINT('',#1859);
#551=VERTEX_POINT('',#1860);
#552=VERTEX_POINT('',#1862);
#553=VERTEX_POINT('',#1864);
#554=VERTEX_POINT('',#1869);
#555=VERTEX_POINT('',#1871);
#556=VERTEX_POINT('',#1875);
#557=VERTEX_POINT('',#1880);
#558=VERTEX_POINT('',#1886);
#559=VERTEX_POINT('',#1888);
#560=VERTEX_POINT('',#1890);
#561=VERTEX_POINT('',#1892);
#562=VERTEX_POINT('',#1896);
#563=VERTEX_POINT('',#1898);
#564=VERTEX_POINT('',#1900);
#565=VERTEX_POINT('',#1902);
#566=VERTEX_POINT('',#1904);
#567=VERTEX_POINT('',#1906);
#568=VERTEX_POINT('',#1908);
#569=VERTEX_POINT('',#1910);
#570=VERTEX_POINT('',#1912);
#571=VERTEX_POINT('',#1915);
#572=VERTEX_POINT('',#1916);
#573=VERTEX_POINT('',#1918);
#574=VERTEX_POINT('',#1920);
#575=VERTEX_POINT('',#1922);
#576=VERTEX_POINT('',#1926);
#577=VERTEX_POINT('',#1927);
#578=VERTEX_POINT('',#1930);
#579=VERTEX_POINT('',#1939);
#580=VERTEX_POINT('',#1940);
#581=VERTEX_POINT('',#1948);
#582=VERTEX_POINT('',#1964);
#583=VERTEX_POINT('',#1966);
#584=VERTEX_POINT('',#1970);
#585=VERTEX_POINT('',#1974);
#586=VERTEX_POINT('',#1978);
#587=VERTEX_POINT('',#1992);
#588=VERTEX_POINT('',#2016);
#589=VERTEX_POINT('',#2024);
#590=VERTEX_POINT('',#2026);
#591=VERTEX_POINT('',#2030);
#592=VERTEX_POINT('',#2032);
#593=VERTEX_POINT('',#2036);
#594=VERTEX_POINT('',#2037);
#595=VERTEX_POINT('',#2039);
#596=VERTEX_POINT('',#2041);
#597=VERTEX_POINT('',#2045);
#598=VERTEX_POINT('',#2047);
#599=VERTEX_POINT('',#2051);
#600=VERTEX_POINT('',#2053);
#601=VERTEX_POINT('',#2062);
#602=VERTEX_POINT('',#2064);
#603=VERTEX_POINT('',#2068);
#604=VERTEX_POINT('',#2070);
#605=VERTEX_POINT('',#2074);
#606=VERTEX_POINT('',#2075);
#607=VERTEX_POINT('',#2077);
#608=VERTEX_POINT('',#2079);
#609=VERTEX_POINT('',#2083);
#610=VERTEX_POINT('',#2085);
#611=VERTEX_POINT('',#2089);
#612=VERTEX_POINT('',#2091);
#613=VERTEX_POINT('',#2095);
#614=VERTEX_POINT('',#2097);
#615=VERTEX_POINT('',#2101);
#616=VERTEX_POINT('',#2103);
#617=VERTEX_POINT('',#2107);
#618=VERTEX_POINT('',#2109);
#619=VERTEX_POINT('',#2113);
#620=VERTEX_POINT('',#2115);
#621=EDGE_CURVE('',#505,#506,#251,.T.);
#622=EDGE_CURVE('',#505,#507,#252,.T.);
#623=EDGE_CURVE('',#508,#507,#253,.T.);
#624=EDGE_CURVE('',#506,#508,#254,.T.);
#625=EDGE_CURVE('',#509,#505,#38,.T.);
#626=EDGE_CURVE('',#509,#510,#255,.T.);
#627=EDGE_CURVE('',#507,#510,#39,.T.);
#628=EDGE_CURVE('',#511,#509,#256,.T.);
#629=EDGE_CURVE('',#511,#512,#257,.T.);
#630=EDGE_CURVE('',#510,#512,#258,.T.);
#631=EDGE_CURVE('',#513,#511,#40,.T.);
#632=EDGE_CURVE('',#513,#514,#259,.T.);
#633=EDGE_CURVE('',#512,#514,#41,.T.);
#634=EDGE_CURVE('',#515,#513,#260,.T.);
#635=EDGE_CURVE('',#515,#516,#261,.T.);
#636=EDGE_CURVE('',#514,#516,#262,.T.);
#637=EDGE_CURVE('',#517,#515,#42,.T.);
#638=EDGE_CURVE('',#517,#518,#263,.T.);
#639=EDGE_CURVE('',#516,#518,#43,.T.);
#640=EDGE_CURVE('',#519,#517,#264,.T.);
#641=EDGE_CURVE('',#519,#520,#265,.T.);
#642=EDGE_CURVE('',#518,#520,#266,.T.);
#643=EDGE_CURVE('',#506,#519,#44,.T.);
#644=EDGE_CURVE('',#520,#508,#45,.T.);
#645=EDGE_CURVE('',#521,#522,#46,.T.);
#646=EDGE_CURVE('',#523,#521,#267,.T.);
#647=EDGE_CURVE('',#524,#523,#268,.T.);
#648=EDGE_CURVE('',#524,#525,#269,.T.);
#649=EDGE_CURVE('',#522,#525,#270,.T.);
#650=EDGE_CURVE('',#526,#524,#271,.T.);
#651=EDGE_CURVE('',#526,#527,#272,.T.);
#652=EDGE_CURVE('',#525,#527,#273,.T.);
#653=EDGE_CURVE('',#528,#529,#47,.T.);
#654=EDGE_CURVE('',#527,#528,#274,.T.);
#655=EDGE_CURVE('',#530,#526,#275,.T.);
#656=EDGE_CURVE('',#530,#529,#276,.T.);
#657=EDGE_CURVE('',#529,#521,#277,.T.);
#658=EDGE_CURVE('',#523,#530,#278,.T.);
#659=EDGE_CURVE('',#531,#528,#279,.T.);
#660=EDGE_CURVE('',#531,#532,#280,.T.);
#661=EDGE_CURVE('',#532,#533,#281,.T.);
#662=EDGE_CURVE('',#534,#533,#282,.T.);
#663=EDGE_CURVE('',#534,#535,#283,.T.);
#664=EDGE_CURVE('',#535,#536,#284,.T.);
#665=EDGE_CURVE('',#536,#537,#285,.T.);
#666=EDGE_CURVE('',#538,#537,#286,.T.);
#667=EDGE_CURVE('',#539,#538,#287,.T.);
#668=EDGE_CURVE('',#540,#539,#288,.T.);
#669=EDGE_CURVE('',#540,#541,#289,.T.);
#670=EDGE_CURVE('',#522,#541,#290,.T.);
#671=EDGE_CURVE('',#542,#543,#291,.T.);
#672=EDGE_CURVE('',#543,#544,#292,.T.);
#673=EDGE_CURVE('',#544,#545,#293,.T.);
#674=EDGE_CURVE('',#545,#542,#294,.T.);
#675=EDGE_CURVE('',#546,#547,#295,.T.);
#676=EDGE_CURVE('',#546,#543,#296,.T.);
#677=EDGE_CURVE('',#547,#542,#297,.T.);
#678=EDGE_CURVE('',#548,#546,#298,.T.);
#679=EDGE_CURVE('',#548,#544,#299,.T.);
#680=EDGE_CURVE('',#549,#548,#300,.T.);
#681=EDGE_CURVE('',#549,#545,#301,.T.);
#682=EDGE_CURVE('',#547,#549,#302,.T.);
#683=EDGE_CURVE('',#550,#551,#303,.T.);
#684=EDGE_CURVE('',#552,#550,#304,.T.);
#685=EDGE_CURVE('',#553,#552,#305,.T.);
#686=EDGE_CURVE('',#553,#551,#306,.T.);
#687=EDGE_CURVE('',#551,#534,#48,.T.);
#688=EDGE_CURVE('',#554,#553,#307,.T.);
#689=EDGE_CURVE('',#555,#554,#308,.T.);
#690=EDGE_CURVE('',#555,#535,#309,.T.);
#691=EDGE_CURVE('',#556,#555,#310,.T.);
#692=EDGE_CURVE('',#556,#536,#311,.T.);
#693=EDGE_CURVE('',#537,#550,#49,.T.);
#694=EDGE_CURVE('',#557,#556,#312,.T.);
#695=EDGE_CURVE('',#552,#557,#313,.T.);
#696=EDGE_CURVE('',#554,#557,#314,.T.);
#697=EDGE_CURVE('',#533,#558,#50,.T.);
#698=EDGE_CURVE('',#558,#559,#315,.T.);
#699=EDGE_CURVE('',#559,#560,#51,.T.);
#700=EDGE_CURVE('',#561,#560,#316,.T.);
#701=EDGE_CURVE('',#561,#538,#52,.T.);
#702=EDGE_CURVE('',#562,#554,#317,.T.);
#703=EDGE_CURVE('',#563,#562,#318,.T.);
#704=EDGE_CURVE('',#564,#563,#53,.T.);
#705=EDGE_CURVE('',#565,#564,#319,.T.);
#706=EDGE_CURVE('',#566,#565,#320,.T.);
#707=EDGE_CURVE('',#566,#567,#321,.T.);
#708=EDGE_CURVE('',#567,#568,#322,.T.);
#709=EDGE_CURVE('',#569,#568,#323,.T.);
#710=EDGE_CURVE('',#570,#569,#324,.T.);
#711=EDGE_CURVE('',#557,#570,#325,.T.);
#712=EDGE_CURVE('',#571,#572,#326,.T.);
#713=EDGE_CURVE('',#572,#573,#54,.T.);
#714=EDGE_CURVE('',#573,#574,#327,.T.);
#715=EDGE_CURVE('',#574,#575,#328,.T.);
#716=EDGE_CURVE('',#575,#571,#329,.T.);
#717=EDGE_CURVE('',#576,#577,#330,.T.);
#718=EDGE_CURVE('',#572,#576,#331,.T.);
#719=EDGE_CURVE('',#571,#578,#332,.T.);
#720=EDGE_CURVE('',#577,#578,#333,.T.);
#721=EDGE_CURVE('',#578,#531,#55,.T.);
#722=EDGE_CURVE('',#575,#532,#334,.T.);
#723=EDGE_CURVE('',#574,#558,#335,.T.);
#724=EDGE_CURVE('',#579,#580,#21,.T.);
#725=EDGE_CURVE('',#559,#579,#336,.T.);
#726=EDGE_CURVE('',#573,#580,#337,.T.);
#727=EDGE_CURVE('',#581,#576,#22,.T.);
#728=EDGE_CURVE('',#580,#581,#23,.T.);
#729=EDGE_CURVE('',#577,#582,#56,.T.);
#730=EDGE_CURVE('',#583,#582,#338,.T.);
#731=EDGE_CURVE('',#581,#583,#57,.T.);
#732=EDGE_CURVE('',#541,#584,#58,.T.);
#733=EDGE_CURVE('',#582,#584,#339,.T.);
#734=EDGE_CURVE('',#579,#585,#59,.T.);
#735=EDGE_CURVE('',#560,#585,#340,.T.);
#736=EDGE_CURVE('',#586,#539,#60,.T.);
#737=EDGE_CURVE('',#586,#561,#341,.T.);
#738=EDGE_CURVE('',#585,#583,#61,.T.);
#739=EDGE_CURVE('',#587,#586,#342,.T.);
#740=EDGE_CURVE('',#568,#587,#343,.T.);
#741=EDGE_CURVE('',#540,#567,#344,.T.);
#742=EDGE_CURVE('',#585,#563,#62,.T.);
#743=EDGE_CURVE('',#562,#560,#63,.T.);
#744=EDGE_CURVE('',#583,#564,#64,.T.);
#745=EDGE_CURVE('',#561,#570,#65,.T.);
#746=EDGE_CURVE('',#582,#565,#66,.T.);
#747=EDGE_CURVE('',#566,#584,#67,.F.);
#748=EDGE_CURVE('',#569,#588,#345,.T.);
#749=EDGE_CURVE('',#561,#588,#346,.T.);
#750=EDGE_CURVE('',#588,#587,#347,.T.);
#751=EDGE_CURVE('',#589,#589,#68,.T.);
#752=EDGE_CURVE('',#589,#590,#348,.T.);
#753=EDGE_CURVE('',#590,#590,#69,.T.);
#754=EDGE_CURVE('',#591,#591,#70,.T.);
#755=EDGE_CURVE('',#591,#592,#349,.T.);
#756=EDGE_CURVE('',#592,#592,#71,.T.);
#757=EDGE_CURVE('',#593,#594,#72,.T.);
#758=EDGE_CURVE('',#594,#595,#350,.T.);
#759=EDGE_CURVE('',#595,#596,#73,.T.);
#760=EDGE_CURVE('',#593,#596,#351,.T.);
#761=EDGE_CURVE('',#597,#595,#352,.T.);
#762=EDGE_CURVE('',#597,#598,#353,.T.);
#763=EDGE_CURVE('',#596,#598,#354,.T.);
#764=EDGE_CURVE('',#599,#593,#355,.T.);
#765=EDGE_CURVE('',#600,#599,#356,.T.);
#766=EDGE_CURVE('',#594,#600,#357,.T.);
#767=EDGE_CURVE('',#597,#600,#358,.T.);
#768=EDGE_CURVE('',#598,#599,#359,.T.);
#769=EDGE_CURVE('',#601,#601,#74,.T.);
#770=EDGE_CURVE('',#601,#602,#360,.T.);
#771=EDGE_CURVE('',#602,#602,#75,.T.);
#772=EDGE_CURVE('',#603,#603,#76,.T.);
#773=EDGE_CURVE('',#603,#604,#361,.T.);
#774=EDGE_CURVE('',#604,#604,#77,.T.);
#775=EDGE_CURVE('',#605,#606,#362,.T.);
#776=EDGE_CURVE('',#605,#607,#363,.T.);
#777=EDGE_CURVE('',#608,#607,#364,.T.);
#778=EDGE_CURVE('',#606,#608,#365,.T.);
#779=EDGE_CURVE('',#609,#606,#78,.T.);
#780=EDGE_CURVE('',#610,#608,#79,.T.);
#781=EDGE_CURVE('',#609,#610,#366,.T.);
#782=EDGE_CURVE('',#609,#611,#367,.T.);
#783=EDGE_CURVE('',#612,#610,#368,.T.);
#784=EDGE_CURVE('',#611,#612,#369,.T.);
#785=EDGE_CURVE('',#613,#611,#80,.T.);
#786=EDGE_CURVE('',#614,#612,#81,.T.);
#787=EDGE_CURVE('',#613,#614,#370,.T.);
#788=EDGE_CURVE('',#613,#615,#371,.T.);
#789=EDGE_CURVE('',#616,#614,#372,.T.);
#790=EDGE_CURVE('',#615,#616,#373,.T.);
#791=EDGE_CURVE('',#617,#615,#82,.T.);
#792=EDGE_CURVE('',#618,#616,#83,.T.);
#793=EDGE_CURVE('',#617,#618,#374,.T.);
#794=EDGE_CURVE('',#617,#619,#375,.T.);
#795=EDGE_CURVE('',#620,#618,#376,.T.);
#796=EDGE_CURVE('',#619,#620,#377,.T.);
#797=EDGE_CURVE('',#605,#619,#84,.T.);
#798=EDGE_CURVE('',#607,#620,#85,.T.);
#799=ORIENTED_EDGE('',*,*,#621,.F.);
#800=ORIENTED_EDGE('',*,*,#622,.T.);
#801=ORIENTED_EDGE('',*,*,#623,.F.);
#802=ORIENTED_EDGE('',*,*,#624,.F.);
#803=ORIENTED_EDGE('',*,*,#625,.F.);
#804=ORIENTED_EDGE('',*,*,#626,.T.);
#805=ORIENTED_EDGE('',*,*,#627,.F.);
#806=ORIENTED_EDGE('',*,*,#622,.F.);
#807=ORIENTED_EDGE('',*,*,#628,.F.);
#808=ORIENTED_EDGE('',*,*,#629,.T.);
#809=ORIENTED_EDGE('',*,*,#630,.F.);
#810=ORIENTED_EDGE('',*,*,#626,.F.);
#811=ORIENTED_EDGE('',*,*,#631,.F.);
#812=ORIENTED_EDGE('',*,*,#632,.T.);
#813=ORIENTED_EDGE('',*,*,#633,.F.);
#814=ORIENTED_EDGE('',*,*,#629,.F.);
#815=ORIENTED_EDGE('',*,*,#634,.F.);
#816=ORIENTED_EDGE('',*,*,#635,.T.);
#817=ORIENTED_EDGE('',*,*,#636,.F.);
#818=ORIENTED_EDGE('',*,*,#632,.F.);
#819=ORIENTED_EDGE('',*,*,#637,.F.);
#820=ORIENTED_EDGE('',*,*,#638,.T.);
#821=ORIENTED_EDGE('',*,*,#639,.F.);
#822=ORIENTED_EDGE('',*,*,#635,.F.);
#823=ORIENTED_EDGE('',*,*,#640,.F.);
#824=ORIENTED_EDGE('',*,*,#641,.T.);
#825=ORIENTED_EDGE('',*,*,#642,.F.);
#826=ORIENTED_EDGE('',*,*,#638,.F.);
#827=ORIENTED_EDGE('',*,*,#643,.F.);
#828=ORIENTED_EDGE('',*,*,#624,.T.);
#829=ORIENTED_EDGE('',*,*,#644,.F.);
#830=ORIENTED_EDGE('',*,*,#641,.F.);
#831=ORIENTED_EDGE('',*,*,#645,.F.);
#832=ORIENTED_EDGE('',*,*,#646,.F.);
#833=ORIENTED_EDGE('',*,*,#647,.F.);
#834=ORIENTED_EDGE('',*,*,#648,.T.);
#835=ORIENTED_EDGE('',*,*,#649,.F.);
#836=ORIENTED_EDGE('',*,*,#650,.F.);
#837=ORIENTED_EDGE('',*,*,#651,.T.);
#838=ORIENTED_EDGE('',*,*,#652,.F.);
#839=ORIENTED_EDGE('',*,*,#648,.F.);
#840=ORIENTED_EDGE('',*,*,#653,.F.);
#841=ORIENTED_EDGE('',*,*,#654,.F.);
#842=ORIENTED_EDGE('',*,*,#651,.F.);
#843=ORIENTED_EDGE('',*,*,#655,.F.);
#844=ORIENTED_EDGE('',*,*,#656,.T.);
#845=ORIENTED_EDGE('',*,*,#657,.F.);
#846=ORIENTED_EDGE('',*,*,#656,.F.);
#847=ORIENTED_EDGE('',*,*,#658,.F.);
#848=ORIENTED_EDGE('',*,*,#646,.T.);
#849=ORIENTED_EDGE('',*,*,#649,.T.);
#850=ORIENTED_EDGE('',*,*,#652,.T.);
#851=ORIENTED_EDGE('',*,*,#654,.T.);
#852=ORIENTED_EDGE('',*,*,#659,.F.);
#853=ORIENTED_EDGE('',*,*,#660,.T.);
#854=ORIENTED_EDGE('',*,*,#661,.T.);
#855=ORIENTED_EDGE('',*,*,#662,.F.);
#856=ORIENTED_EDGE('',*,*,#663,.T.);
#857=ORIENTED_EDGE('',*,*,#664,.T.);
#858=ORIENTED_EDGE('',*,*,#665,.T.);
#859=ORIENTED_EDGE('',*,*,#666,.F.);
#860=ORIENTED_EDGE('',*,*,#667,.F.);
#861=ORIENTED_EDGE('',*,*,#668,.F.);
#862=ORIENTED_EDGE('',*,*,#669,.T.);
#863=ORIENTED_EDGE('',*,*,#670,.F.);
#864=ORIENTED_EDGE('',*,*,#621,.T.);
#865=ORIENTED_EDGE('',*,*,#643,.T.);
#866=ORIENTED_EDGE('',*,*,#640,.T.);
#867=ORIENTED_EDGE('',*,*,#637,.T.);
#868=ORIENTED_EDGE('',*,*,#634,.T.);
#869=ORIENTED_EDGE('',*,*,#631,.T.);
#870=ORIENTED_EDGE('',*,*,#628,.T.);
#871=ORIENTED_EDGE('',*,*,#625,.T.);
#872=ORIENTED_EDGE('',*,*,#671,.T.);
#873=ORIENTED_EDGE('',*,*,#672,.T.);
#874=ORIENTED_EDGE('',*,*,#673,.T.);
#875=ORIENTED_EDGE('',*,*,#674,.T.);
#876=ORIENTED_EDGE('',*,*,#675,.F.);
#877=ORIENTED_EDGE('',*,*,#676,.T.);
#878=ORIENTED_EDGE('',*,*,#671,.F.);
#879=ORIENTED_EDGE('',*,*,#677,.F.);
#880=ORIENTED_EDGE('',*,*,#678,.F.);
#881=ORIENTED_EDGE('',*,*,#679,.T.);
#882=ORIENTED_EDGE('',*,*,#672,.F.);
#883=ORIENTED_EDGE('',*,*,#676,.F.);
#884=ORIENTED_EDGE('',*,*,#680,.F.);
#885=ORIENTED_EDGE('',*,*,#681,.T.);
#886=ORIENTED_EDGE('',*,*,#673,.F.);
#887=ORIENTED_EDGE('',*,*,#679,.F.);
#888=ORIENTED_EDGE('',*,*,#682,.F.);
#889=ORIENTED_EDGE('',*,*,#677,.T.);
#890=ORIENTED_EDGE('',*,*,#674,.F.);
#891=ORIENTED_EDGE('',*,*,#681,.F.);
#892=ORIENTED_EDGE('',*,*,#683,.F.);
#893=ORIENTED_EDGE('',*,*,#684,.F.);
#894=ORIENTED_EDGE('',*,*,#685,.F.);
#895=ORIENTED_EDGE('',*,*,#686,.T.);
#896=ORIENTED_EDGE('',*,*,#687,.F.);
#897=ORIENTED_EDGE('',*,*,#686,.F.);
#898=ORIENTED_EDGE('',*,*,#688,.F.);
#899=ORIENTED_EDGE('',*,*,#689,.F.);
#900=ORIENTED_EDGE('',*,*,#690,.T.);
#901=ORIENTED_EDGE('',*,*,#663,.F.);
#902=ORIENTED_EDGE('',*,*,#691,.F.);
#903=ORIENTED_EDGE('',*,*,#692,.T.);
#904=ORIENTED_EDGE('',*,*,#664,.F.);
#905=ORIENTED_EDGE('',*,*,#690,.F.);
#906=ORIENTED_EDGE('',*,*,#693,.F.);
#907=ORIENTED_EDGE('',*,*,#665,.F.);
#908=ORIENTED_EDGE('',*,*,#692,.F.);
#909=ORIENTED_EDGE('',*,*,#694,.F.);
#910=ORIENTED_EDGE('',*,*,#695,.F.);
#911=ORIENTED_EDGE('',*,*,#684,.T.);
#912=ORIENTED_EDGE('',*,*,#696,.F.);
#913=ORIENTED_EDGE('',*,*,#688,.T.);
#914=ORIENTED_EDGE('',*,*,#685,.T.);
#915=ORIENTED_EDGE('',*,*,#695,.T.);
#916=ORIENTED_EDGE('',*,*,#693,.T.);
#917=ORIENTED_EDGE('',*,*,#683,.T.);
#918=ORIENTED_EDGE('',*,*,#687,.T.);
#919=ORIENTED_EDGE('',*,*,#662,.T.);
#920=ORIENTED_EDGE('',*,*,#697,.T.);
#921=ORIENTED_EDGE('',*,*,#698,.T.);
#922=ORIENTED_EDGE('',*,*,#699,.T.);
#923=ORIENTED_EDGE('',*,*,#700,.F.);
#924=ORIENTED_EDGE('',*,*,#701,.T.);
#925=ORIENTED_EDGE('',*,*,#666,.T.);
#926=ORIENTED_EDGE('',*,*,#694,.T.);
#927=ORIENTED_EDGE('',*,*,#691,.T.);
#928=ORIENTED_EDGE('',*,*,#689,.T.);
#929=ORIENTED_EDGE('',*,*,#702,.F.);
#930=ORIENTED_EDGE('',*,*,#703,.F.);
#931=ORIENTED_EDGE('',*,*,#704,.F.);
#932=ORIENTED_EDGE('',*,*,#705,.F.);
#933=ORIENTED_EDGE('',*,*,#706,.F.);
#934=ORIENTED_EDGE('',*,*,#707,.T.);
#935=ORIENTED_EDGE('',*,*,#708,.T.);
#936=ORIENTED_EDGE('',*,*,#709,.F.);
#937=ORIENTED_EDGE('',*,*,#710,.F.);
#938=ORIENTED_EDGE('',*,*,#711,.F.);
#939=ORIENTED_EDGE('',*,*,#623,.T.);
#940=ORIENTED_EDGE('',*,*,#627,.T.);
#941=ORIENTED_EDGE('',*,*,#630,.T.);
#942=ORIENTED_EDGE('',*,*,#633,.T.);
#943=ORIENTED_EDGE('',*,*,#636,.T.);
#944=ORIENTED_EDGE('',*,*,#639,.T.);
#945=ORIENTED_EDGE('',*,*,#642,.T.);
#946=ORIENTED_EDGE('',*,*,#644,.T.);
#947=ORIENTED_EDGE('',*,*,#647,.T.);
#948=ORIENTED_EDGE('',*,*,#658,.T.);
#949=ORIENTED_EDGE('',*,*,#655,.T.);
#950=ORIENTED_EDGE('',*,*,#650,.T.);
#951=ORIENTED_EDGE('',*,*,#675,.T.);
#952=ORIENTED_EDGE('',*,*,#682,.T.);
#953=ORIENTED_EDGE('',*,*,#680,.T.);
#954=ORIENTED_EDGE('',*,*,#678,.T.);
#955=ORIENTED_EDGE('',*,*,#712,.T.);
#956=ORIENTED_EDGE('',*,*,#713,.T.);
#957=ORIENTED_EDGE('',*,*,#714,.T.);
#958=ORIENTED_EDGE('',*,*,#715,.T.);
#959=ORIENTED_EDGE('',*,*,#716,.T.);
#960=ORIENTED_EDGE('',*,*,#717,.F.);
#961=ORIENTED_EDGE('',*,*,#718,.F.);
#962=ORIENTED_EDGE('',*,*,#712,.F.);
#963=ORIENTED_EDGE('',*,*,#719,.T.);
#964=ORIENTED_EDGE('',*,*,#720,.F.);
#965=ORIENTED_EDGE('',*,*,#721,.F.);
#966=ORIENTED_EDGE('',*,*,#719,.F.);
#967=ORIENTED_EDGE('',*,*,#716,.F.);
#968=ORIENTED_EDGE('',*,*,#722,.T.);
#969=ORIENTED_EDGE('',*,*,#660,.F.);
#970=ORIENTED_EDGE('',*,*,#697,.F.);
#971=ORIENTED_EDGE('',*,*,#661,.F.);
#972=ORIENTED_EDGE('',*,*,#722,.F.);
#973=ORIENTED_EDGE('',*,*,#715,.F.);
#974=ORIENTED_EDGE('',*,*,#723,.T.);
#975=ORIENTED_EDGE('',*,*,#724,.F.);
#976=ORIENTED_EDGE('',*,*,#725,.F.);
#977=ORIENTED_EDGE('',*,*,#698,.F.);
#978=ORIENTED_EDGE('',*,*,#723,.F.);
#979=ORIENTED_EDGE('',*,*,#714,.F.);
#980=ORIENTED_EDGE('',*,*,#726,.T.);
#981=ORIENTED_EDGE('',*,*,#727,.F.);
#982=ORIENTED_EDGE('',*,*,#728,.F.);
#983=ORIENTED_EDGE('',*,*,#726,.F.);
#984=ORIENTED_EDGE('',*,*,#713,.F.);
#985=ORIENTED_EDGE('',*,*,#718,.T.);
#986=ORIENTED_EDGE('',*,*,#727,.T.);
#987=ORIENTED_EDGE('',*,*,#717,.T.);
#988=ORIENTED_EDGE('',*,*,#729,.T.);
#989=ORIENTED_EDGE('',*,*,#730,.F.);
#990=ORIENTED_EDGE('',*,*,#731,.F.);
#991=ORIENTED_EDGE('',*,*,#645,.T.);
#992=ORIENTED_EDGE('',*,*,#670,.T.);
#993=ORIENTED_EDGE('',*,*,#732,.T.);
#994=ORIENTED_EDGE('',*,*,#733,.F.);
#995=ORIENTED_EDGE('',*,*,#729,.F.);
#996=ORIENTED_EDGE('',*,*,#720,.T.);
#997=ORIENTED_EDGE('',*,*,#721,.T.);
#998=ORIENTED_EDGE('',*,*,#659,.T.);
#999=ORIENTED_EDGE('',*,*,#653,.T.);
#1000=ORIENTED_EDGE('',*,*,#657,.T.);
#1001=ORIENTED_EDGE('',*,*,#725,.T.);
#1002=ORIENTED_EDGE('',*,*,#734,.T.);
#1003=ORIENTED_EDGE('',*,*,#735,.F.);
#1004=ORIENTED_EDGE('',*,*,#699,.F.);
#1005=ORIENTED_EDGE('',*,*,#736,.T.);
#1006=ORIENTED_EDGE('',*,*,#667,.T.);
#1007=ORIENTED_EDGE('',*,*,#701,.F.);
#1008=ORIENTED_EDGE('',*,*,#737,.F.);
#1009=ORIENTED_EDGE('',*,*,#728,.T.);
#1010=ORIENTED_EDGE('',*,*,#731,.T.);
#1011=ORIENTED_EDGE('',*,*,#738,.F.);
#1012=ORIENTED_EDGE('',*,*,#734,.F.);
#1013=ORIENTED_EDGE('',*,*,#724,.T.);
#1014=ORIENTED_EDGE('',*,*,#736,.F.);
#1015=ORIENTED_EDGE('',*,*,#739,.F.);
#1016=ORIENTED_EDGE('',*,*,#740,.F.);
#1017=ORIENTED_EDGE('',*,*,#708,.F.);
#1018=ORIENTED_EDGE('',*,*,#741,.F.);
#1019=ORIENTED_EDGE('',*,*,#668,.T.);
#1020=ORIENTED_EDGE('',*,*,#742,.T.);
#1021=ORIENTED_EDGE('',*,*,#703,.T.);
#1022=ORIENTED_EDGE('',*,*,#743,.T.);
#1023=ORIENTED_EDGE('',*,*,#735,.T.);
#1024=ORIENTED_EDGE('',*,*,#744,.T.);
#1025=ORIENTED_EDGE('',*,*,#704,.T.);
#1026=ORIENTED_EDGE('',*,*,#742,.F.);
#1027=ORIENTED_EDGE('',*,*,#738,.T.);
#1028=ORIENTED_EDGE('',*,*,#745,.F.);
#1029=ORIENTED_EDGE('',*,*,#700,.T.);
#1030=ORIENTED_EDGE('',*,*,#743,.F.);
#1031=ORIENTED_EDGE('',*,*,#702,.T.);
#1032=ORIENTED_EDGE('',*,*,#696,.T.);
#1033=ORIENTED_EDGE('',*,*,#711,.T.);
#1034=ORIENTED_EDGE('',*,*,#746,.T.);
#1035=ORIENTED_EDGE('',*,*,#705,.T.);
#1036=ORIENTED_EDGE('',*,*,#744,.F.);
#1037=ORIENTED_EDGE('',*,*,#730,.T.);
#1038=ORIENTED_EDGE('',*,*,#747,.F.);
#1039=ORIENTED_EDGE('',*,*,#706,.T.);
#1040=ORIENTED_EDGE('',*,*,#746,.F.);
#1041=ORIENTED_EDGE('',*,*,#733,.T.);
#1042=ORIENTED_EDGE('',*,*,#745,.T.);
#1043=ORIENTED_EDGE('',*,*,#710,.T.);
#1044=ORIENTED_EDGE('',*,*,#748,.T.);
#1045=ORIENTED_EDGE('',*,*,#749,.F.);
#1046=ORIENTED_EDGE('',*,*,#749,.T.);
#1047=ORIENTED_EDGE('',*,*,#750,.T.);
#1048=ORIENTED_EDGE('',*,*,#739,.T.);
#1049=ORIENTED_EDGE('',*,*,#737,.T.);
#1050=ORIENTED_EDGE('',*,*,#709,.T.);
#1051=ORIENTED_EDGE('',*,*,#740,.T.);
#1052=ORIENTED_EDGE('',*,*,#750,.F.);
#1053=ORIENTED_EDGE('',*,*,#748,.F.);
#1054=ORIENTED_EDGE('',*,*,#732,.F.);
#1055=ORIENTED_EDGE('',*,*,#669,.F.);
#1056=ORIENTED_EDGE('',*,*,#741,.T.);
#1057=ORIENTED_EDGE('',*,*,#707,.F.);
#1058=ORIENTED_EDGE('',*,*,#747,.T.);
#1059=ORIENTED_EDGE('',*,*,#751,.F.);
#1060=ORIENTED_EDGE('',*,*,#752,.T.);
#1061=ORIENTED_EDGE('',*,*,#753,.F.);
#1062=ORIENTED_EDGE('',*,*,#752,.F.);
#1063=ORIENTED_EDGE('',*,*,#754,.F.);
#1064=ORIENTED_EDGE('',*,*,#755,.T.);
#1065=ORIENTED_EDGE('',*,*,#756,.F.);
#1066=ORIENTED_EDGE('',*,*,#755,.F.);
#1067=ORIENTED_EDGE('',*,*,#757,.T.);
#1068=ORIENTED_EDGE('',*,*,#758,.T.);
#1069=ORIENTED_EDGE('',*,*,#759,.T.);
#1070=ORIENTED_EDGE('',*,*,#760,.F.);
#1071=ORIENTED_EDGE('',*,*,#759,.F.);
#1072=ORIENTED_EDGE('',*,*,#761,.F.);
#1073=ORIENTED_EDGE('',*,*,#762,.T.);
#1074=ORIENTED_EDGE('',*,*,#763,.F.);
#1075=ORIENTED_EDGE('',*,*,#753,.T.);
#1076=ORIENTED_EDGE('',*,*,#756,.T.);
#1077=ORIENTED_EDGE('',*,*,#757,.F.);
#1078=ORIENTED_EDGE('',*,*,#764,.F.);
#1079=ORIENTED_EDGE('',*,*,#765,.F.);
#1080=ORIENTED_EDGE('',*,*,#766,.F.);
#1081=ORIENTED_EDGE('',*,*,#751,.T.);
#1082=ORIENTED_EDGE('',*,*,#754,.T.);
#1083=ORIENTED_EDGE('',*,*,#767,.T.);
#1084=ORIENTED_EDGE('',*,*,#765,.T.);
#1085=ORIENTED_EDGE('',*,*,#768,.F.);
#1086=ORIENTED_EDGE('',*,*,#762,.F.);
#1087=ORIENTED_EDGE('',*,*,#768,.T.);
#1088=ORIENTED_EDGE('',*,*,#764,.T.);
#1089=ORIENTED_EDGE('',*,*,#760,.T.);
#1090=ORIENTED_EDGE('',*,*,#763,.T.);
#1091=ORIENTED_EDGE('',*,*,#758,.F.);
#1092=ORIENTED_EDGE('',*,*,#766,.T.);
#1093=ORIENTED_EDGE('',*,*,#767,.F.);
#1094=ORIENTED_EDGE('',*,*,#761,.T.);
#1095=ORIENTED_EDGE('',*,*,#769,.F.);
#1096=ORIENTED_EDGE('',*,*,#770,.T.);
#1097=ORIENTED_EDGE('',*,*,#771,.T.);
#1098=ORIENTED_EDGE('',*,*,#770,.F.);
#1099=ORIENTED_EDGE('',*,*,#772,.F.);
#1100=ORIENTED_EDGE('',*,*,#773,.T.);
#1101=ORIENTED_EDGE('',*,*,#774,.T.);
#1102=ORIENTED_EDGE('',*,*,#773,.F.);
#1103=ORIENTED_EDGE('',*,*,#775,.F.);
#1104=ORIENTED_EDGE('',*,*,#776,.T.);
#1105=ORIENTED_EDGE('',*,*,#777,.F.);
#1106=ORIENTED_EDGE('',*,*,#778,.F.);
#1107=ORIENTED_EDGE('',*,*,#779,.T.);
#1108=ORIENTED_EDGE('',*,*,#778,.T.);
#1109=ORIENTED_EDGE('',*,*,#780,.F.);
#1110=ORIENTED_EDGE('',*,*,#781,.F.);
#1111=ORIENTED_EDGE('',*,*,#782,.F.);
#1112=ORIENTED_EDGE('',*,*,#781,.T.);
#1113=ORIENTED_EDGE('',*,*,#783,.F.);
#1114=ORIENTED_EDGE('',*,*,#784,.F.);
#1115=ORIENTED_EDGE('',*,*,#785,.T.);
#1116=ORIENTED_EDGE('',*,*,#784,.T.);
#1117=ORIENTED_EDGE('',*,*,#786,.F.);
#1118=ORIENTED_EDGE('',*,*,#787,.F.);
#1119=ORIENTED_EDGE('',*,*,#788,.F.);
#1120=ORIENTED_EDGE('',*,*,#787,.T.);
#1121=ORIENTED_EDGE('',*,*,#789,.F.);
#1122=ORIENTED_EDGE('',*,*,#790,.F.);
#1123=ORIENTED_EDGE('',*,*,#791,.T.);
#1124=ORIENTED_EDGE('',*,*,#790,.T.);
#1125=ORIENTED_EDGE('',*,*,#792,.F.);
#1126=ORIENTED_EDGE('',*,*,#793,.F.);
#1127=ORIENTED_EDGE('',*,*,#794,.F.);
#1128=ORIENTED_EDGE('',*,*,#793,.T.);
#1129=ORIENTED_EDGE('',*,*,#795,.F.);
#1130=ORIENTED_EDGE('',*,*,#796,.F.);
#1131=ORIENTED_EDGE('',*,*,#797,.T.);
#1132=ORIENTED_EDGE('',*,*,#796,.T.);
#1133=ORIENTED_EDGE('',*,*,#798,.F.);
#1134=ORIENTED_EDGE('',*,*,#776,.F.);
#1135=ORIENTED_EDGE('',*,*,#798,.T.);
#1136=ORIENTED_EDGE('',*,*,#795,.T.);
#1137=ORIENTED_EDGE('',*,*,#792,.T.);
#1138=ORIENTED_EDGE('',*,*,#789,.T.);
#1139=ORIENTED_EDGE('',*,*,#786,.T.);
#1140=ORIENTED_EDGE('',*,*,#783,.T.);
#1141=ORIENTED_EDGE('',*,*,#780,.T.);
#1142=ORIENTED_EDGE('',*,*,#777,.T.);
#1143=ORIENTED_EDGE('',*,*,#772,.T.);
#1144=ORIENTED_EDGE('',*,*,#769,.T.);
#1145=ORIENTED_EDGE('',*,*,#797,.F.);
#1146=ORIENTED_EDGE('',*,*,#775,.T.);
#1147=ORIENTED_EDGE('',*,*,#779,.F.);
#1148=ORIENTED_EDGE('',*,*,#782,.T.);
#1149=ORIENTED_EDGE('',*,*,#785,.F.);
#1150=ORIENTED_EDGE('',*,*,#788,.T.);
#1151=ORIENTED_EDGE('',*,*,#791,.F.);
#1152=ORIENTED_EDGE('',*,*,#794,.T.);
#1153=ORIENTED_EDGE('',*,*,#774,.F.);
#1154=ORIENTED_EDGE('',*,*,#771,.F.);
#1155=PLANE('',#1274);
#1156=PLANE('',#1278);
#1157=PLANE('',#1282);
#1158=PLANE('',#1286);
#1159=PLANE('',#1290);
#1160=PLANE('',#1292);
#1161=PLANE('',#1293);
#1162=PLANE('',#1295);
#1163=PLANE('',#1296);
#1164=PLANE('',#1297);
#1165=PLANE('',#1298);
#1166=PLANE('',#1299);
#1167=PLANE('',#1300);
#1168=PLANE('',#1301);
#1169=PLANE('',#1302);
#1170=PLANE('',#1304);
#1171=PLANE('',#1305);
#1172=PLANE('',#1307);
#1173=PLANE('',#1312);
#1174=PLANE('',#1315);
#1175=PLANE('',#1316);
#1176=PLANE('',#1318);
#1177=PLANE('',#1319);
#1178=PLANE('',#1331);
#1179=PLANE('',#1342);
#1180=PLANE('',#1343);
#1181=PLANE('',#1344);
#1182=PLANE('',#1345);
#1183=PLANE('',#1355);
#1184=PLANE('',#1356);
#1185=PLANE('',#1357);
#1186=PLANE('',#1358);
#1187=PLANE('',#1359);
#1188=PLANE('',#1366);
#1189=PLANE('',#1370);
#1190=PLANE('',#1374);
#1191=PLANE('',#1378);
#1192=PLANE('',#1382);
#1193=PLANE('',#1383);
#1194=ADVANCED_FACE('',(#109),#1155,.F.);
#1195=ADVANCED_FACE('',(#110),#86,.F.);
#1196=ADVANCED_FACE('',(#111),#1156,.F.);
#1197=ADVANCED_FACE('',(#112),#87,.F.);
#1198=ADVANCED_FACE('',(#113),#1157,.F.);
#1199=ADVANCED_FACE('',(#114),#88,.F.);
#1200=ADVANCED_FACE('',(#115),#1158,.F.);
#1201=ADVANCED_FACE('',(#116),#89,.F.);
#1202=ADVANCED_FACE('',(#117),#1159,.F.);
#1203=ADVANCED_FACE('',(#118),#1160,.F.);
#1204=ADVANCED_FACE('',(#119),#1161,.F.);
#1205=ADVANCED_FACE('',(#120),#1162,.F.);
#1206=ADVANCED_FACE('',(#121,#24,#25),#1163,.F.);
#1207=ADVANCED_FACE('',(#122),#1164,.F.);
#1208=ADVANCED_FACE('',(#123),#1165,.F.);
#1209=ADVANCED_FACE('',(#124),#1166,.F.);
#1210=ADVANCED_FACE('',(#125),#1167,.F.);
#1211=ADVANCED_FACE('',(#126),#1168,.F.);
#1212=ADVANCED_FACE('',(#127),#1169,.F.);
#1213=ADVANCED_FACE('',(#128),#1170,.F.);
#1214=ADVANCED_FACE('',(#129),#1171,.F.);
#1215=ADVANCED_FACE('',(#130),#1172,.F.);
#1216=ADVANCED_FACE('',(#131),#90,.T.);
#1217=ADVANCED_FACE('',(#132,#26,#27,#28,#29),#1173,.T.);
#1218=ADVANCED_FACE('',(#133),#1174,.F.);
#1219=ADVANCED_FACE('',(#134),#1175,.F.);
#1220=ADVANCED_FACE('',(#135),#1176,.F.);
#1221=ADVANCED_FACE('',(#136),#1177,.F.);
#1222=ADVANCED_FACE('',(#137),#91,.F.);
#1223=ADVANCED_FACE('',(#138),#92,.T.);
#1224=ADVANCED_FACE('',(#139),#93,.T.);
#1225=ADVANCED_FACE('',(#140),#94,.T.);
#1226=ADVANCED_FACE('',(#141),#95,.T.);
#1227=ADVANCED_FACE('',(#142),#19,.T.);
#1228=ADVANCED_FACE('',(#143),#1178,.T.);
#1229=ADVANCED_FACE('',(#144),#96,.F.);
#1230=ADVANCED_FACE('',(#145),#20,.T.);
#1231=ADVANCED_FACE('',(#146),#97,.F.);
#1232=ADVANCED_FACE('',(#147),#98,.F.);
#1233=ADVANCED_FACE('',(#148),#99,.F.);
#1234=ADVANCED_FACE('',(#149),#1179,.T.);
#1235=ADVANCED_FACE('',(#150),#1180,.T.);
#1236=ADVANCED_FACE('',(#151),#1181,.T.);
#1237=ADVANCED_FACE('',(#152),#1182,.T.);
#1238=ADVANCED_FACE('',(#153),#100,.F.);
#1239=ADVANCED_FACE('',(#154),#101,.F.);
#1240=ADVANCED_FACE('',(#155),#102,.T.);
#1241=ADVANCED_FACE('',(#156,#30,#31),#1183,.T.);
#1242=ADVANCED_FACE('',(#157,#32,#33),#1184,.T.);
#1243=ADVANCED_FACE('',(#158),#1185,.T.);
#1244=ADVANCED_FACE('',(#159),#1186,.T.);
#1245=ADVANCED_FACE('',(#160),#1187,.F.);
#1246=ADVANCED_FACE('',(#161),#103,.F.);
#1247=ADVANCED_FACE('',(#162),#104,.F.);
#1248=ADVANCED_FACE('',(#163),#1188,.T.);
#1249=ADVANCED_FACE('',(#164),#105,.T.);
#1250=ADVANCED_FACE('',(#165),#1189,.T.);
#1251=ADVANCED_FACE('',(#166),#106,.T.);
#1252=ADVANCED_FACE('',(#167),#1190,.T.);
#1253=ADVANCED_FACE('',(#168),#107,.T.);
#1254=ADVANCED_FACE('',(#169),#1191,.T.);
#1255=ADVANCED_FACE('',(#170),#108,.T.);
#1256=ADVANCED_FACE('',(#171,#34,#35),#1192,.T.);
#1257=ADVANCED_FACE('',(#172,#36,#37),#1193,.F.);
#1258=CLOSED_SHELL('',(#1194,#1195,#1196,#1197,#1198,#1199,#1200,#1201,
#1202,#1203,#1204,#1205,#1206,#1207,#1208,#1209,#1210,#1211,#1212,#1213,
#1214,#1215,#1216,#1217,#1218,#1219,#1220,#1221,#1222,#1223,#1224,#1225,
#1226,#1227,#1228,#1229,#1230,#1231,#1232,#1233,#1234,#1235,#1236,#1237));
#1259=CLOSED_SHELL('',(#1238,#1239,#1240,#1241,#1242,#1243,#1244,#1245));
#1260=CLOSED_SHELL('',(#1246,#1247,#1248,#1249,#1250,#1251,#1252,#1253,
#1254,#1255,#1256,#1257));
#1261=DERIVED_UNIT_ELEMENT(#1263,1.);
#1262=DERIVED_UNIT_ELEMENT(#2128,-3.);
#1263=(
MASS_UNIT()
NAMED_UNIT(*)
SI_UNIT(.KILO.,.GRAM.)
);
#1264=DERIVED_UNIT((#1261,#1262));
#1265=MEASURE_REPRESENTATION_ITEM('density measure',
POSITIVE_RATIO_MEASURE(7850.),#1264);
#1266=PROPERTY_DEFINITION_REPRESENTATION(#1271,#1268);
#1267=PROPERTY_DEFINITION_REPRESENTATION(#1272,#1269);
#1268=REPRESENTATION('material name',(#1270),#2125);
#1269=REPRESENTATION('density',(#1265),#2125);
#1270=DESCRIPTIVE_REPRESENTATION_ITEM('Steel','Steel');
#1271=PROPERTY_DEFINITION('material property','material name',#2135);
#1272=PROPERTY_DEFINITION('material property','density of part',#2135);
#1273=AXIS2_PLACEMENT_3D('',#1733,#1384,#1385);
#1274=AXIS2_PLACEMENT_3D('',#1734,#1386,#1387);
#1275=AXIS2_PLACEMENT_3D('',#1743,#1392,#1393);
#1276=AXIS2_PLACEMENT_3D('',#1745,#1394,#1395);
#1277=AXIS2_PLACEMENT_3D('',#1748,#1397,#1398);
#1278=AXIS2_PLACEMENT_3D('',#1749,#1399,#1400);
#1279=AXIS2_PLACEMENT_3D('',#1755,#1404,#1405);
#1280=AXIS2_PLACEMENT_3D('',#1757,#1406,#1407);
#1281=AXIS2_PLACEMENT_3D('',#1760,#1409,#1410);
#1282=AXIS2_PLACEMENT_3D('',#1761,#1411,#1412);
#1283=AXIS2_PLACEMENT_3D('',#1767,#1416,#1417);
#1284=AXIS2_PLACEMENT_3D('',#1769,#1418,#1419);
#1285=AXIS2_PLACEMENT_3D('',#1772,#1421,#1422);
#1286=AXIS2_PLACEMENT_3D('',#1773,#1423,#1424);
#1287=AXIS2_PLACEMENT_3D('',#1779,#1428,#1429);
#1288=AXIS2_PLACEMENT_3D('',#1780,#1430,#1431);
#1289=AXIS2_PLACEMENT_3D('',#1781,#1432,#1433);
#1290=AXIS2_PLACEMENT_3D('',#1782,#1434,#1435);
#1291=AXIS2_PLACEMENT_3D('',#1785,#1436,#1437);
#1292=AXIS2_PLACEMENT_3D('',#1793,#1442,#1443);
#1293=AXIS2_PLACEMENT_3D('',#1799,#1447,#1448);
#1294=AXIS2_PLACEMENT_3D('',#1802,#1449,#1450);
#1295=AXIS2_PLACEMENT_3D('',#1807,#1454,#1455);
#1296=AXIS2_PLACEMENT_3D('',#1810,#1458,#1459);
#1297=AXIS2_PLACEMENT_3D('',#1842,#1476,#1477);
#1298=AXIS2_PLACEMENT_3D('',#1848,#1481,#1482);
#1299=AXIS2_PLACEMENT_3D('',#1852,#1485,#1486);
#1300=AXIS2_PLACEMENT_3D('',#1856,#1489,#1490);
#1301=AXIS2_PLACEMENT_3D('',#1858,#1492,#1493);
#1302=AXIS2_PLACEMENT_3D('',#1867,#1498,#1499);
#1303=AXIS2_PLACEMENT_3D('',#1868,#1500,#1501);
#1304=AXIS2_PLACEMENT_3D('',#1874,#1505,#1506);
#1305=AXIS2_PLACEMENT_3D('',#1878,#1509,#1510);
#1306=AXIS2_PLACEMENT_3D('',#1879,#1511,#1512);
#1307=AXIS2_PLACEMENT_3D('',#1883,#1515,#1516);
#1308=AXIS2_PLACEMENT_3D('',#1885,#1518,#1519);
#1309=AXIS2_PLACEMENT_3D('',#1887,#1520,#1521);
#1310=AXIS2_PLACEMENT_3D('',#1891,#1523,#1524);
#1311=AXIS2_PLACEMENT_3D('',#1894,#1526,#1527);
#1312=AXIS2_PLACEMENT_3D('',#1895,#1528,#1529);
#1313=AXIS2_PLACEMENT_3D('',#1901,#1532,#1533);
#1314=AXIS2_PLACEMENT_3D('',#1919,#1542,#1543);
#1315=AXIS2_PLACEMENT_3D('',#1925,#1547,#1548);
#1316=AXIS2_PLACEMENT_3D('',#1933,#1553,#1554);
#1317=AXIS2_PLACEMENT_3D('',#1934,#1555,#1556);
#1318=AXIS2_PLACEMENT_3D('',#1936,#1558,#1559);
#1319=AXIS2_PLACEMENT_3D('',#1938,#1561,#1562);
#1320=AXIS2_PLACEMENT_3D('',#1947,#1565,#1566);
#1321=AXIS2_PLACEMENT_3D('',#1963,#1567,#1568);
#1322=AXIS2_PLACEMENT_3D('',#1965,#1569,#1570);
#1323=AXIS2_PLACEMENT_3D('',#1968,#1572,#1573);
#1324=AXIS2_PLACEMENT_3D('',#1969,#1574,#1575);
#1325=AXIS2_PLACEMENT_3D('',#1971,#1576,#1577);
#1326=AXIS2_PLACEMENT_3D('',#1973,#1579,#1580);
#1327=AXIS2_PLACEMENT_3D('',#1975,#1581,#1582);
#1328=AXIS2_PLACEMENT_3D('',#1977,#1584,#1585);
#1329=AXIS2_PLACEMENT_3D('',#1979,#1586,#1587);
#1330=AXIS2_PLACEMENT_3D('',#1990,#1589,#1590);
#1331=AXIS2_PLACEMENT_3D('',#1991,#1591,#1592);
#1332=AXIS2_PLACEMENT_3D('',#1996,#1596,#1597);
#1333=AXIS2_PLACEMENT_3D('',#1997,#1598,#1599);
#1334=AXIS2_PLACEMENT_3D('',#1998,#1600,#1601);
#1335=AXIS2_PLACEMENT_3D('',#2008,#1602,#1603);
#1336=AXIS2_PLACEMENT_3D('',#2009,#1604,#1605);
#1337=AXIS2_PLACEMENT_3D('',#2010,#1606,#1607);
#1338=AXIS2_PLACEMENT_3D('',#2011,#1608,#1609);
#1339=AXIS2_PLACEMENT_3D('',#2012,#1610,#1611);
#1340=AXIS2_PLACEMENT_3D('',#2013,#1612,#1613);
#1341=AXIS2_PLACEMENT_3D('',#2014,#1614,#1615);
#1342=AXIS2_PLACEMENT_3D('',#2015,#1616,#1617);
#1343=AXIS2_PLACEMENT_3D('',#2019,#1620,#1621);
#1344=AXIS2_PLACEMENT_3D('',#2021,#1623,#1624);
#1345=AXIS2_PLACEMENT_3D('',#2022,#1625,#1626);
#1346=AXIS2_PLACEMENT_3D('',#2023,#1627,#1628);
#1347=AXIS2_PLACEMENT_3D('',#2025,#1629,#1630);
#1348=AXIS2_PLACEMENT_3D('',#2028,#1632,#1633);
#1349=AXIS2_PLACEMENT_3D('',#2029,#1634,#1635);
#1350=AXIS2_PLACEMENT_3D('',#2031,#1636,#1637);
#1351=AXIS2_PLACEMENT_3D('',#2034,#1639,#1640);
#1352=AXIS2_PLACEMENT_3D('',#2035,#1641,#1642);
#1353=AXIS2_PLACEMENT_3D('',#2038,#1643,#1644);
#1354=AXIS2_PLACEMENT_3D('',#2042,#1646,#1647);
#1355=AXIS2_PLACEMENT_3D('',#2044,#1649,#1650);
#1356=AXIS2_PLACEMENT_3D('',#2050,#1654,#1655);
#1357=AXIS2_PLACEMENT_3D('',#2056,#1659,#1660);
#1358=AXIS2_PLACEMENT_3D('',#2059,#1663,#1664);
#1359=AXIS2_PLACEMENT_3D('',#2060,#1665,#1666);
#1360=AXIS2_PLACEMENT_3D('',#2061,#1667,#1668);
#1361=AXIS2_PLACEMENT_3D('',#2063,#1669,#1670);
#1362=AXIS2_PLACEMENT_3D('',#2066,#1672,#1673);
#1363=AXIS2_PLACEMENT_3D('',#2067,#1674,#1675);
#1364=AXIS2_PLACEMENT_3D('',#2069,#1676,#1677);
#1365=AXIS2_PLACEMENT_3D('',#2072,#1679,#1680);
#1366=AXIS2_PLACEMENT_3D('',#2073,#1681,#1682);
#1367=AXIS2_PLACEMENT_3D('',#2082,#1687,#1688);
#1368=AXIS2_PLACEMENT_3D('',#2084,#1689,#1690);
#1369=AXIS2_PLACEMENT_3D('',#2086,#1691,#1692);
#1370=AXIS2_PLACEMENT_3D('',#2088,#1694,#1695);
#1371=AXIS2_PLACEMENT_3D('',#2094,#1699,#1700);
#1372=AXIS2_PLACEMENT_3D('',#2096,#1701,#1702);
#1373=AXIS2_PLACEMENT_3D('',#2098,#1703,#1704);
#1374=AXIS2_PLACEMENT_3D('',#2100,#1706,#1707);
#1375=AXIS2_PLACEMENT_3D('',#2106,#1711,#1712);
#1376=AXIS2_PLACEMENT_3D('',#2108,#1713,#1714);
#1377=AXIS2_PLACEMENT_3D('',#2110,#1715,#1716);
#1378=AXIS2_PLACEMENT_3D('',#2112,#1718,#1719);
#1379=AXIS2_PLACEMENT_3D('',#2118,#1723,#1724);
#1380=AXIS2_PLACEMENT_3D('',#2119,#1725,#1726);
#1381=AXIS2_PLACEMENT_3D('',#2120,#1727,#1728);
#1382=AXIS2_PLACEMENT_3D('',#2121,#1729,#1730);
#1383=AXIS2_PLACEMENT_3D('',#2122,#1731,#1732);
#1384=DIRECTION('axis',(0.,0.,1.));
#1385=DIRECTION('refdir',(1.,0.,0.));
#1386=DIRECTION('center_axis',(0.,-1.,0.));
#1387=DIRECTION('ref_axis',(1.,0.,0.));
#1388=DIRECTION('',(1.,0.,0.));
#1389=DIRECTION('',(0.,0.,1.));
#1390=DIRECTION('',(-1.,0.,0.));
#1391=DIRECTION('',(0.,0.,1.));
#1392=DIRECTION('center_axis',(0.,0.,1.));
#1393=DIRECTION('ref_axis',(-1.,0.,0.));
#1394=DIRECTION('center_axis',(0.,0.,1.));
#1395=DIRECTION('ref_axis',(-1.,0.,0.));
#1396=DIRECTION('',(0.,0.,1.));
#1397=DIRECTION('center_axis',(0.,0.,-1.));
#1398=DIRECTION('ref_axis',(-1.,0.,0.));
#1399=DIRECTION('center_axis',(-1.,0.,0.));
#1400=DIRECTION('ref_axis',(0.,-1.,0.));
#1401=DIRECTION('',(0.,-1.,0.));
#1402=DIRECTION('',(0.,0.,1.));
#1403=DIRECTION('',(0.,1.,0.));
#1404=DIRECTION('center_axis',(0.,0.,1.));
#1405=DIRECTION('ref_axis',(0.,1.,0.));
#1406=DIRECTION('center_axis',(0.,0.,1.));
#1407=DIRECTION('ref_axis',(0.,1.,0.));
#1408=DIRECTION('',(0.,0.,1.));
#1409=DIRECTION('center_axis',(0.,0.,-1.));
#1410=DIRECTION('ref_axis',(0.,1.,0.));
#1411=DIRECTION('center_axis',(0.,1.,0.));
#1412=DIRECTION('ref_axis',(-1.,0.,0.));
#1413=DIRECTION('',(-1.,0.,0.));
#1414=DIRECTION('',(0.,0.,1.));
#1415=DIRECTION('',(1.,0.,0.));
#1416=DIRECTION('center_axis',(0.,0.,1.));
#1417=DIRECTION('ref_axis',(1.,0.,0.));
#1418=DIRECTION('center_axis',(0.,0.,1.));
#1419=DIRECTION('ref_axis',(1.,0.,0.));
#1420=DIRECTION('',(0.,0.,1.));
#1421=DIRECTION('center_axis',(0.,0.,-1.));
#1422=DIRECTION('ref_axis',(1.,0.,0.));
#1423=DIRECTION('center_axis',(1.,0.,0.));
#1424=DIRECTION('ref_axis',(0.,1.,0.));
#1425=DIRECTION('',(0.,1.,0.));
#1426=DIRECTION('',(0.,0.,1.));
#1427=DIRECTION('',(0.,-1.,0.));
#1428=DIRECTION('center_axis',(0.,0.,1.));
#1429=DIRECTION('ref_axis',(0.,-1.,0.));
#1430=DIRECTION('center_axis',(0.,0.,1.));
#1431=DIRECTION('ref_axis',(0.,-1.,0.));
#1432=DIRECTION('center_axis',(0.,0.,-1.));
#1433=DIRECTION('ref_axis',(0.,-1.,0.));
#1434=DIRECTION('center_axis',(1.,0.,0.));
#1435=DIRECTION('ref_axis',(0.,-1.,0.));
#1436=DIRECTION('center_axis',(1.,0.,0.));
#1437=DIRECTION('ref_axis',(0.,-0.812232862067414,-0.583333333333333));
#1438=DIRECTION('',(0.,0.,-1.));
#1439=DIRECTION('',(0.,-1.,0.));
#1440=DIRECTION('',(0.,0.,-1.));
#1441=DIRECTION('',(0.,1.,0.));
#1442=DIRECTION('center_axis',(0.,1.,0.));
#1443=DIRECTION('ref_axis',(1.,0.,0.));
#1444=DIRECTION('',(1.,0.,0.));
#1445=DIRECTION('',(0.,0.,-1.));
#1446=DIRECTION('',(-1.,0.,0.));
#1447=DIRECTION('center_axis',(-1.,0.,0.));
#1448=DIRECTION('ref_axis',(0.,1.,0.));
#1449=DIRECTION('center_axis',(-1.,0.,0.));
#1450=DIRECTION('ref_axis',(0.,-0.812232862067414,-0.583333333333333));
#1451=DIRECTION('',(0.,-1.,0.));
#1452=DIRECTION('',(0.,1.,0.));
#1453=DIRECTION('',(0.,0.,-1.));
#1454=DIRECTION('center_axis',(0.,-1.,0.));
#1455=DIRECTION('ref_axis',(-1.,0.,0.));
#1456=DIRECTION('',(1.,1.14838058795761E-33,0.));
#1457=DIRECTION('',(-1.,0.,0.));
#1458=DIRECTION('center_axis',(0.,0.,1.));
#1459=DIRECTION('ref_axis',(1.,0.,0.));
#1460=DIRECTION('',(1.,1.14838058795761E-33,0.));
#1461=DIRECTION('',(0.,1.,0.));
#1462=DIRECTION('',(-1.,0.,0.));
#1463=DIRECTION('',(-5.4747247150094E-33,-1.,0.));
#1464=DIRECTION('',(1.,0.,0.));
#1465=DIRECTION('',(0.,1.,0.));
#1466=DIRECTION('',(-1.,0.,0.));
#1467=DIRECTION('',(-5.4747247150094E-33,-1.,0.));
#1468=DIRECTION('',(-5.4747247150094E-33,-1.,0.));
#1469=DIRECTION('',(-1.,0.,0.));
#1470=DIRECTION('',(0.,-1.,0.));
#1471=DIRECTION('',(1.,1.14838058795761E-33,0.));
#1472=DIRECTION('',(1.,0.,0.));
#1473=DIRECTION('',(0.,1.,0.));
#1474=DIRECTION('',(-1.,0.,0.));
#1475=DIRECTION('',(0.,-1.,0.));
#1476=DIRECTION('center_axis',(0.,-1.,0.));
#1477=DIRECTION('ref_axis',(-1.,0.,0.));
#1478=DIRECTION('',(-1.,0.,0.));
#1479=DIRECTION('',(0.,0.,-1.));
#1480=DIRECTION('',(0.,0.,-1.));
#1481=DIRECTION('center_axis',(1.,0.,0.));
#1482=DIRECTION('ref_axis',(0.,-1.,0.));
#1483=DIRECTION('',(0.,-1.,0.));
#1484=DIRECTION('',(0.,0.,-1.));
#1485=DIRECTION('center_axis',(0.,1.,0.));
#1486=DIRECTION('ref_axis',(1.,0.,0.));
#1487=DIRECTION('',(1.,0.,0.));
#1488=DIRECTION('',(0.,0.,-1.));
#1489=DIRECTION('center_axis',(-1.,0.,0.));
#1490=DIRECTION('ref_axis',(0.,1.,0.));
#1491=DIRECTION('',(0.,1.,0.));
#1492=DIRECTION('center_axis',(-1.,0.,0.));
#1493=DIRECTION('ref_axis',(0.,1.,0.));
#1494=DIRECTION('',(-5.4747247150094E-33,-1.,0.));
#1495=DIRECTION('',(0.,0.,-1.));
#1496=DIRECTION('',(0.,1.,0.));
#1497=DIRECTION('',(0.,0.,-1.));
#1498=DIRECTION('center_axis',(0.,-1.,0.));
#1499=DIRECTION('ref_axis',(-1.,0.,0.));
#1500=DIRECTION('center_axis',(0.,-1.,0.));
#1501=DIRECTION('ref_axis',(-0.812232862067414,4.44675132430329E-33,-0.583333333333333));
#1502=DIRECTION('',(-1.,0.,0.));
#1503=DIRECTION('',(-1.,0.,0.));
#1504=DIRECTION('',(0.,0.,-1.));
#1505=DIRECTION('center_axis',(1.,0.,0.));
#1506=DIRECTION('ref_axis',(0.,-1.,0.));
#1507=DIRECTION('',(0.,-1.,0.));
#1508=DIRECTION('',(0.,0.,-1.));
#1509=DIRECTION('center_axis',(0.,1.,0.));
#1510=DIRECTION('ref_axis',(1.,0.,0.));
#1511=DIRECTION('center_axis',(0.,1.,0.));
#1512=DIRECTION('ref_axis',(-0.812232862067414,4.44675132430329E-33,-0.583333333333333));
#1513=DIRECTION('',(1.,0.,0.));
#1514=DIRECTION('',(1.,0.,0.));
#1515=DIRECTION('center_axis',(0.,0.,1.));
#1516=DIRECTION('ref_axis',(-1.,0.,0.));
#1517=DIRECTION('',(5.4747247150094E-33,1.,0.));
#1518=DIRECTION('center_axis',(-5.4747247150094E-33,-1.,0.));
#1519=DIRECTION('ref_axis',(-0.812232862067414,4.44675132430329E-33,-0.583333333333333));
#1520=DIRECTION('center_axis',(0.,1.,0.));
#1521=DIRECTION('ref_axis',(-0.812232862067414,4.44675132430329E-33,-0.583333333333333));
#1522=DIRECTION('',(-5.4747247150094E-33,-1.,0.));
#1523=DIRECTION('center_axis',(0.,1.,0.));
#1524=DIRECTION('ref_axis',(0.,0.,-1.));
#1525=DIRECTION('',(-5.4747247150094E-33,-1.,0.));
#1526=DIRECTION('center_axis',(0.,-1.,0.));
#1527=DIRECTION('ref_axis',(-0.812232862067414,0.,-0.583333333333333));
#1528=DIRECTION('center_axis',(0.,0.,1.));
#1529=DIRECTION('ref_axis',(1.,0.,0.));
#1530=DIRECTION('',(5.4747247150094E-33,1.,0.));
#1531=DIRECTION('',(5.4747247150094E-33,1.,0.));
#1532=DIRECTION('center_axis',(0.,0.,-1.));
#1533=DIRECTION('ref_axis',(1.,1.25823455756201E-15,0.));
#1534=DIRECTION('',(-1.,-1.14838058795761E-33,0.));
#1535=DIRECTION('',(-1.,-1.14838058795761E-33,0.));
#1536=DIRECTION('',(0.,1.,0.));
#1537=DIRECTION('',(-1.,0.,0.));
#1538=DIRECTION('',(0.,1.,0.));
#1539=DIRECTION('',(1.,0.,0.));
#1540=DIRECTION('',(5.4747247150094E-33,1.,0.));
#1541=DIRECTION('',(-1.,0.,0.));
#1542=DIRECTION('center_axis',(0.,0.,-1.));
#1543=DIRECTION('ref_axis',(-1.,-1.26882631385732E-15,0.));
#1544=DIRECTION('',(0.,1.,0.));
#1545=DIRECTION('',(1.,0.,0.));
#1546=DIRECTION('',(0.,-1.,0.));
#1547=DIRECTION('center_axis',(0.,-1.,0.));
#1548=DIRECTION('ref_axis',(-1.,0.,0.));
#1549=DIRECTION('',(1.,1.14838058795761E-33,0.));
#1550=DIRECTION('',(0.,0.,-1.));
#1551=DIRECTION('',(0.,0.,-1.));
#1552=DIRECTION('',(1.,1.14838058795761E-33,0.));
#1553=DIRECTION('center_axis',(1.,0.,0.));
#1554=DIRECTION('ref_axis',(0.,-1.,0.));
#1555=DIRECTION('center_axis',(1.,0.,0.));
#1556=DIRECTION('ref_axis',(0.,-0.812232862067414,-0.583333333333333));
#1557=DIRECTION('',(0.,0.,-1.));
#1558=DIRECTION('center_axis',(0.,1.,0.));
#1559=DIRECTION('ref_axis',(1.,0.,0.));
#1560=DIRECTION('',(0.,0.,-1.));
#1561=DIRECTION('center_axis',(-1.,0.,0.));
#1562=DIRECTION('ref_axis',(0.,1.,0.));
#1563=DIRECTION('',(-5.4747247150094E-33,-1.,0.));
#1564=DIRECTION('',(0.,0.,-1.));
#1565=DIRECTION('center_axis',(0.,0.,-1.));
#1566=DIRECTION('ref_axis',(-1.,-1.26882631385732E-15,0.));
#1567=DIRECTION('center_axis',(1.,1.14838058795761E-33,0.));
#1568=DIRECTION('ref_axis',(0.,-0.812232862067414,-0.583333333333333));
#1569=DIRECTION('center_axis',(-1.,0.,0.));
#1570=DIRECTION('ref_axis',(0.,0.,-1.));
#1571=DIRECTION('',(1.,1.14838058795761E-33,0.));
#1572=DIRECTION('center_axis',(-1.,4.55625915700765E-16,0.));
#1573=DIRECTION('ref_axis',(0.,0.,-1.));
#1574=DIRECTION('center_axis',(1.,1.14838058795761E-33,0.));
#1575=DIRECTION('ref_axis',(0.,-0.812232862067414,-0.583333333333333));
#1576=DIRECTION('center_axis',(-1.,0.,0.));
#1577=DIRECTION('ref_axis',(0.,-0.812232862067414,-0.583333333333333));
#1578=DIRECTION('',(1.,1.14838058795761E-33,0.));
#1579=DIRECTION('center_axis',(-5.4747247150094E-33,-1.,0.));
#1580=DIRECTION('ref_axis',(-0.812232862067414,4.44675132430329E-33,-0.583333333333333));
#1581=DIRECTION('center_axis',(0.,1.,0.));
#1582=DIRECTION('ref_axis',(0.,0.,-1.));
#1583=DIRECTION('',(-5.4747247150094E-33,-1.,0.));
#1584=DIRECTION('center_axis',(-5.4747247150094E-33,-1.,0.));
#1585=DIRECTION('ref_axis',(-0.812232862067414,4.44675132430329E-33,-0.583333333333333));
#1586=DIRECTION('center_axis',(0.,-1.,0.));
#1587=DIRECTION('ref_axis',(-0.812232862067414,4.44675132430329E-33,-0.583333333333333));
#1588=DIRECTION('',(-5.4747247150094E-33,-1.,0.));
#1589=DIRECTION('center_axis',(0.,0.,1.));
#1590=DIRECTION('ref_axis',(-1.,-3.70074341541719E-16,0.));
#1591=DIRECTION('center_axis',(0.,1.,0.));
#1592=DIRECTION('ref_axis',(-1.,0.,0.));
#1593=DIRECTION('',(-1.,0.,0.));
#1594=DIRECTION('',(0.,0.,1.));
#1595=DIRECTION('',(0.,0.,1.));
#1596=DIRECTION('center_axis',(-5.4747247150094E-33,-1.,0.));
#1597=DIRECTION('ref_axis',(-0.705878097754059,3.86448826755797E-33,-0.708333333333333));
#1598=DIRECTION('center_axis',(0.,-1.,0.));
#1599=DIRECTION('ref_axis',(-0.705878097754059,0.,-0.708333333333333));
#1600=DIRECTION('center_axis',(0.,1.,0.));
#1601=DIRECTION('ref_axis',(0.,0.,-1.));
#1602=DIRECTION('center_axis',(1.,-5.24275144276625E-16,0.));
#1603=DIRECTION('ref_axis',(-3.70074341541719E-16,-0.705878097754059,-0.708333333333333));
#1604=DIRECTION('center_axis',(-5.4747247150094E-33,-1.,0.));
#1605=DIRECTION('ref_axis',(-0.705878097754059,3.86448826755797E-33,-0.708333333333333));
#1606=DIRECTION('center_axis',(0.,-1.,0.));
#1607=DIRECTION('ref_axis',(-0.705878097754059,3.86448826755797E-33,-0.708333333333333));
#1608=DIRECTION('center_axis',(1.,1.14838058795761E-33,0.));
#1609=DIRECTION('ref_axis',(0.,-0.705878097754059,-0.708333333333333));
#1610=DIRECTION('center_axis',(1.,0.,0.));
#1611=DIRECTION('ref_axis',(0.,-0.705878097754059,-0.708333333333333));
#1612=DIRECTION('center_axis',(1.,1.14838058795761E-33,0.));
#1613=DIRECTION('ref_axis',(0.,-0.705878097754059,-0.708333333333333));
#1614=DIRECTION('center_axis',(1.,0.,0.));
#1615=DIRECTION('ref_axis',(0.,-0.705878097754059,-0.708333333333333));
#1616=DIRECTION('center_axis',(0.,-1.,0.));
#1617=DIRECTION('ref_axis',(1.,0.,0.));
#1618=DIRECTION('',(0.,0.,1.));
#1619=DIRECTION('',(1.,0.,0.));
#1620=DIRECTION('center_axis',(0.,0.,1.));
#1621=DIRECTION('ref_axis',(1.,0.,0.));
#1622=DIRECTION('',(0.,1.,0.));
#1623=DIRECTION('center_axis',(1.,0.,0.));
#1624=DIRECTION('ref_axis',(0.,1.,0.));
#1625=DIRECTION('center_axis',(1.,0.,0.));
#1626=DIRECTION('ref_axis',(0.,1.,0.));
#1627=DIRECTION('center_axis',(1.,0.,0.));
#1628=DIRECTION('ref_axis',(0.,-1.,0.));
#1629=DIRECTION('center_axis',(1.,0.,0.));
#1630=DIRECTION('ref_axis',(0.,-1.,0.));
#1631=DIRECTION('',(1.,0.,0.));
#1632=DIRECTION('center_axis',(-1.,0.,0.));
#1633=DIRECTION('ref_axis',(0.,-1.,0.));
#1634=DIRECTION('center_axis',(1.,0.,0.));
#1635=DIRECTION('ref_axis',(0.,-1.,0.));
#1636=DIRECTION('center_axis',(1.,0.,0.));
#1637=DIRECTION('ref_axis',(0.,-1.,0.));
#1638=DIRECTION('',(1.,0.,0.));
#1639=DIRECTION('center_axis',(-1.,0.,0.));
#1640=DIRECTION('ref_axis',(0.,-1.,0.));
#1641=DIRECTION('center_axis',(1.,1.44361821273278E-31,0.));
#1642=DIRECTION('ref_axis',(0.,-0.812232862067414,-0.583333333333333));
#1643=DIRECTION('center_axis',(1.,0.,0.));
#1644=DIRECTION('ref_axis',(0.,-0.812232862067414,-0.583333333333333));
#1645=DIRECTION('',(1.,1.44361821273278E-31,0.));
#1646=DIRECTION('center_axis',(-1.,0.,0.));
#1647=DIRECTION('ref_axis',(0.,-0.812232862067414,-0.583333333333333));
#1648=DIRECTION('',(1.,1.44361821273278E-31,0.));
#1649=DIRECTION('center_axis',(1.,0.,0.));
#1650=DIRECTION('ref_axis',(0.,1.,0.));
#1651=DIRECTION('',(0.,-1.,0.));
#1652=DIRECTION('',(0.,0.,1.));
#1653=DIRECTION('',(0.,1.,0.));
#1654=DIRECTION('center_axis',(-1.,0.,0.));
#1655=DIRECTION('ref_axis',(0.,-1.,0.));
#1656=DIRECTION('',(0.,-1.,0.));
#1657=DIRECTION('',(0.,0.,1.));
#1658=DIRECTION('',(0.,1.,0.));
#1659=DIRECTION('center_axis',(0.,1.,0.));
#1660=DIRECTION('ref_axis',(-1.,0.,0.));
#1661=DIRECTION('',(-1.,0.,0.));
#1662=DIRECTION('',(-1.,0.,0.));
#1663=DIRECTION('center_axis',(0.,0.,1.));
#1664=DIRECTION('ref_axis',(1.,0.,0.));
#1665=DIRECTION('center_axis',(0.,0.,1.));
#1666=DIRECTION('ref_axis',(1.,0.,0.));
#1667=DIRECTION('center_axis',(0.,0.,1.));
#1668=DIRECTION('ref_axis',(-1.,0.,0.));
#1669=DIRECTION('center_axis',(0.,0.,-1.));
#1670=DIRECTION('ref_axis',(-1.,0.,0.));
#1671=DIRECTION('',(0.,0.,-1.));
#1672=DIRECTION('center_axis',(0.,0.,-1.));
#1673=DIRECTION('ref_axis',(-1.,0.,0.));
#1674=DIRECTION('center_axis',(0.,0.,1.));
#1675=DIRECTION('ref_axis',(-1.,0.,0.));
#1676=DIRECTION('center_axis',(0.,0.,-1.));
#1677=DIRECTION('ref_axis',(-1.,0.,0.));
#1678=DIRECTION('',(0.,0.,-1.));
#1679=DIRECTION('center_axis',(0.,0.,-1.));
#1680=DIRECTION('ref_axis',(-1.,0.,0.));
#1681=DIRECTION('center_axis',(0.,-1.,0.));
#1682=DIRECTION('ref_axis',(1.,0.,0.));
#1683=DIRECTION('',(-1.,0.,0.));
#1684=DIRECTION('',(0.,0.,1.));
#1685=DIRECTION('',(1.,0.,0.));
#1686=DIRECTION('',(0.,0.,1.));
#1687=DIRECTION('center_axis',(0.,0.,1.));
#1688=DIRECTION('ref_axis',(-1.,0.,0.));
#1689=DIRECTION('center_axis',(0.,0.,1.));
#1690=DIRECTION('ref_axis',(-1.,0.,0.));
#1691=DIRECTION('center_axis',(0.,0.,1.));
#1692=DIRECTION('ref_axis',(-1.,0.,0.));
#1693=DIRECTION('',(0.,0.,1.));
#1694=DIRECTION('center_axis',(-1.,0.,0.));
#1695=DIRECTION('ref_axis',(0.,-1.,0.));
#1696=DIRECTION('',(0.,1.,0.));
#1697=DIRECTION('',(0.,-1.,0.));
#1698=DIRECTION('',(0.,0.,1.));
#1699=DIRECTION('center_axis',(0.,0.,1.));
#1700=DIRECTION('ref_axis',(0.,1.,0.));
#1701=DIRECTION('center_axis',(0.,0.,1.));
#1702=DIRECTION('ref_axis',(0.,1.,0.));
#1703=DIRECTION('center_axis',(0.,0.,1.));
#1704=DIRECTION('ref_axis',(0.,1.,0.));
#1705=DIRECTION('',(0.,0.,1.));
#1706=DIRECTION('center_axis',(0.,1.,0.));
#1707=DIRECTION('ref_axis',(-1.,0.,0.));
#1708=DIRECTION('',(1.,0.,0.));
#1709=DIRECTION('',(-1.,0.,0.));
#1710=DIRECTION('',(0.,0.,1.));
#1711=DIRECTION('center_axis',(0.,0.,1.));
#1712=DIRECTION('ref_axis',(1.,0.,0.));
#1713=DIRECTION('center_axis',(0.,0.,1.));
#1714=DIRECTION('ref_axis',(1.,0.,0.));
#1715=DIRECTION('center_axis',(0.,0.,1.));
#1716=DIRECTION('ref_axis',(1.,0.,0.));
#1717=DIRECTION('',(0.,0.,1.));
#1718=DIRECTION('center_axis',(1.,0.,0.));
#1719=DIRECTION('ref_axis',(0.,1.,0.));
#1720=DIRECTION('',(0.,-1.,0.));
#1721=DIRECTION('',(0.,1.,0.));
#1722=DIRECTION('',(0.,0.,1.));
#1723=DIRECTION('center_axis',(0.,0.,1.));
#1724=DIRECTION('ref_axis',(0.,-1.,0.));
#1725=DIRECTION('center_axis',(0.,0.,1.));
#1726=DIRECTION('ref_axis',(0.,-1.,0.));
#1727=DIRECTION('center_axis',(0.,0.,1.));
#1728=DIRECTION('ref_axis',(0.,-1.,0.));
#1729=DIRECTION('center_axis',(0.,0.,1.));
#1730=DIRECTION('ref_axis',(-1.,0.,0.));
#1731=DIRECTION('center_axis',(0.,0.,1.));
#1732=DIRECTION('ref_axis',(-1.,0.,0.));
#1733=CARTESIAN_POINT('',(0.,0.,0.));
#1734=CARTESIAN_POINT('Origin',(62.999999910593,69.0000010281801,0.));
#1735=CARTESIAN_POINT('',(62.999999910593,69.0000010281801,0.));
#1736=CARTESIAN_POINT('',(67.,69.0000010281801,0.));
#1737=CARTESIAN_POINT('',(71.7499999552965,69.0000010281801,0.));
#1738=CARTESIAN_POINT('',(62.999999910593,69.0000010281801,3.));
#1739=CARTESIAN_POINT('',(62.999999910593,69.0000010281801,0.));
#1740=CARTESIAN_POINT('',(67.,69.0000010281801,3.));
#1741=CARTESIAN_POINT('',(72.2499999552965,69.0000010281801,3.));
#1742=CARTESIAN_POINT('',(67.,69.0000010281801,0.));
#1743=CARTESIAN_POINT('Origin',(62.999999910593,70.0000010281801,0.));
#1744=CARTESIAN_POINT('',(61.999999910593,70.0000010281801,0.));
#1745=CARTESIAN_POINT('Origin',(62.999999910593,70.0000010281801,0.));
#1746=CARTESIAN_POINT('',(61.999999910593,70.0000010281801,3.));
#1747=CARTESIAN_POINT('',(61.999999910593,70.0000010281801,0.));
#1748=CARTESIAN_POINT('Origin',(62.999999910593,70.0000010281801,3.));
#1749=CARTESIAN_POINT('Origin',(61.999999910593,80.0000012069941,0.));
#1750=CARTESIAN_POINT('',(61.999999910593,80.0000012069941,0.));
#1751=CARTESIAN_POINT('',(61.999999910593,79.400000603497,0.));
#1752=CARTESIAN_POINT('',(61.999999910593,80.0000012069941,3.));
#1753=CARTESIAN_POINT('',(61.999999910593,80.0000012069941,0.));
#1754=CARTESIAN_POINT('',(61.999999910593,79.900000603497,3.));
#1755=CARTESIAN_POINT('Origin',(62.999999910593,80.0000012069941,0.));
#1756=CARTESIAN_POINT('',(62.999999910593,81.0000012069941,0.));
#1757=CARTESIAN_POINT('Origin',(62.999999910593,80.0000012069941,0.));
#1758=CARTESIAN_POINT('',(62.999999910593,81.0000012069941,3.));
#1759=CARTESIAN_POINT('',(62.999999910593,81.0000012069941,0.));
#1760=CARTESIAN_POINT('Origin',(62.999999910593,80.0000012069941,3.));
#1761=CARTESIAN_POINT('Origin',(67.,81.0000012069941,0.));
#1762=CARTESIAN_POINT('',(67.,81.0000012069941,0.));
#1763=CARTESIAN_POINT('',(73.75,81.0000012069941,0.));
#1764=CARTESIAN_POINT('',(67.,81.0000012069941,3.));
#1765=CARTESIAN_POINT('',(67.,81.0000012069941,0.));
#1766=CARTESIAN_POINT('',(74.25,81.0000012069941,3.));
#1767=CARTESIAN_POINT('Origin',(67.,80.0000012069941,0.));
#1768=CARTESIAN_POINT('',(68.,80.0000012069941,0.));
#1769=CARTESIAN_POINT('Origin',(67.,80.0000012069941,0.));
#1770=CARTESIAN_POINT('',(68.,80.0000012069941,3.));
#1771=CARTESIAN_POINT('',(68.,80.0000012069941,0.));
#1772=CARTESIAN_POINT('Origin',(67.,80.0000012069941,3.));
#1773=CARTESIAN_POINT('Origin',(68.,70.0000010281801,0.));
#1774=CARTESIAN_POINT('',(68.,70.0000010281801,0.));
#1775=CARTESIAN_POINT('',(68.,74.4000005140901,0.));
#1776=CARTESIAN_POINT('',(68.,70.0000010281801,3.));
#1777=CARTESIAN_POINT('',(68.,70.0000010281801,0.));
#1778=CARTESIAN_POINT('',(68.,74.9000005140901,3.));
#1779=CARTESIAN_POINT('Origin',(67.,70.0000010281801,0.));
#1780=CARTESIAN_POINT('Origin',(67.,70.0000010281801,0.));
#1781=CARTESIAN_POINT('Origin',(67.,70.0000010281801,3.));
#1782=CARTESIAN_POINT('Origin',(159.,67.0000009983778,3.));
#1783=CARTESIAN_POINT('',(159.,16.9934171056529,0.130581447158509));
#1784=CARTESIAN_POINT('',(159.,19.4935886896179,0.));
#1785=CARTESIAN_POINT('Origin',(159.,19.4935886896179,24.));
#1786=CARTESIAN_POINT('',(159.,16.9934171056529,3.));
#1787=CARTESIAN_POINT('',(159.,16.9934171056529,3.));
#1788=CARTESIAN_POINT('',(159.,67.0000009983778,3.));
#1789=CARTESIAN_POINT('',(159.,73.4000004991889,3.));
#1790=CARTESIAN_POINT('',(159.,67.0000009983778,0.));
#1791=CARTESIAN_POINT('',(159.,67.0000009983778,3.));
#1792=CARTESIAN_POINT('',(159.,72.9000004991889,0.));
#1793=CARTESIAN_POINT('Origin',(70.,67.0000009983778,3.));
#1794=CARTESIAN_POINT('',(70.,67.0000009983778,3.));
#1795=CARTESIAN_POINT('',(75.75,67.0000009983778,3.));
#1796=CARTESIAN_POINT('',(70.,67.0000009983778,0.));
#1797=CARTESIAN_POINT('',(70.,67.0000009983778,3.));
#1798=CARTESIAN_POINT('',(75.25,67.0000009983778,0.));
#1799=CARTESIAN_POINT('Origin',(70.,16.9934171056529,3.));
#1800=CARTESIAN_POINT('',(70.,19.4935886896179,0.));
#1801=CARTESIAN_POINT('',(70.,16.9934171056529,0.130581447158509));
#1802=CARTESIAN_POINT('Origin',(70.,19.4935886896179,24.));
#1803=CARTESIAN_POINT('',(70.,47.8967085528264,0.));
#1804=CARTESIAN_POINT('',(70.,16.9934171056529,3.));
#1805=CARTESIAN_POINT('',(70.,48.3967085528264,3.));
#1806=CARTESIAN_POINT('',(70.,16.9934171056529,3.));
#1807=CARTESIAN_POINT('Origin',(159.,16.9934171056529,3.));
#1808=CARTESIAN_POINT('',(161.,16.9934171056529,0.130581447158509));
#1809=CARTESIAN_POINT('',(120.25,16.9934171056529,3.));
#1810=CARTESIAN_POINT('Origin',(80.5,78.8,0.));
#1811=CARTESIAN_POINT('',(50.9999998509884,19.4935886896179,0.));
#1812=CARTESIAN_POINT('',(161.,19.4935886896179,0.));
#1813=CARTESIAN_POINT('',(50.9999998509884,67.0000009983778,0.));
#1814=CARTESIAN_POINT('',(50.9999998509884,72.9000004991889,0.));
#1815=CARTESIAN_POINT('',(19.4935886896179,67.0000009983778,0.));
#1816=CARTESIAN_POINT('',(48.7797993656142,67.0000009983778,0.));
#1817=CARTESIAN_POINT('',(19.4935886896179,83.0000012367964,0.));
#1818=CARTESIAN_POINT('',(19.4935886896179,-1.06722031783279E-31,0.));
#1819=CARTESIAN_POINT('',(50.9999998509884,83.0000012367964,0.));
#1820=CARTESIAN_POINT('',(65.7499999254942,83.0000012367964,0.));
#1821=CARTESIAN_POINT('',(50.9999998509884,147.110016966254,0.));
#1822=CARTESIAN_POINT('',(50.9999998509884,112.955008483127,0.));
#1823=CARTESIAN_POINT('',(19.4935886896179,147.110016966254,0.));
#1824=CARTESIAN_POINT('',(48.6938250950728,147.110016966254,0.));
#1825=CARTESIAN_POINT('',(19.4935886896179,155.6,0.));
#1826=CARTESIAN_POINT('',(19.4935886896179,-1.06722031783279E-31,0.));
#1827=CARTESIAN_POINT('',(19.4935886896179,157.6,0.));
#1828=CARTESIAN_POINT('',(19.4935886896179,-1.06722031783279E-31,0.));
#1829=CARTESIAN_POINT('',(161.,157.6,0.));
#1830=CARTESIAN_POINT('',(161.,157.6,0.));
#1831=CARTESIAN_POINT('',(161.,19.4935886896179,0.));
#1832=CARTESIAN_POINT('',(161.,2.,0.));
#1833=CARTESIAN_POINT('',(161.,19.4935886896179,0.));
#1834=CARTESIAN_POINT('',(69.,83.0000012367964,0.));
#1835=CARTESIAN_POINT('',(159.,83.0000012367964,0.));
#1836=CARTESIAN_POINT('',(119.75,83.0000012367964,0.));
#1837=CARTESIAN_POINT('',(159.,147.110016966254,0.));
#1838=CARTESIAN_POINT('',(159.,112.955008483127,0.));
#1839=CARTESIAN_POINT('',(69.,147.110016966254,0.));
#1840=CARTESIAN_POINT('',(74.75,147.110016966254,0.));
#1841=CARTESIAN_POINT('',(69.,80.9000006183982,0.));
#1842=CARTESIAN_POINT('Origin',(159.,83.0000012367964,3.));
#1843=CARTESIAN_POINT('',(159.,83.0000012367964,3.));
#1844=CARTESIAN_POINT('',(69.,83.0000012367964,3.));
#1845=CARTESIAN_POINT('',(120.25,83.0000012367964,3.));
#1846=CARTESIAN_POINT('',(159.,83.0000012367964,3.));
#1847=CARTESIAN_POINT('',(69.,83.0000012367964,3.));
#1848=CARTESIAN_POINT('Origin',(159.,147.110016966254,3.));
#1849=CARTESIAN_POINT('',(159.,147.110016966254,3.));
#1850=CARTESIAN_POINT('',(159.,113.455008483127,3.));
#1851=CARTESIAN_POINT('',(159.,147.110016966254,3.));
#1852=CARTESIAN_POINT('Origin',(69.,147.110016966254,3.));
#1853=CARTESIAN_POINT('',(69.,147.110016966254,3.));
#1854=CARTESIAN_POINT('',(75.25,147.110016966254,3.));
#1855=CARTESIAN_POINT('',(69.,147.110016966254,3.));
#1856=CARTESIAN_POINT('Origin',(69.,83.0000012367964,3.));
#1857=CARTESIAN_POINT('',(69.,81.4000006183982,3.));
#1858=CARTESIAN_POINT('Origin',(16.8876501901456,83.0000012367964,3.));
#1859=CARTESIAN_POINT('',(16.8876501901456,147.110016966254,0.141896878901546));
#1860=CARTESIAN_POINT('',(16.8876501901456,83.0000012367964,0.141896878901546));
#1861=CARTESIAN_POINT('',(16.8876501901456,7.13339795442792E-33,0.141896878901546));
#1862=CARTESIAN_POINT('',(16.8876501901456,147.110016966254,3.));
#1863=CARTESIAN_POINT('',(16.8876501901456,147.110016966254,3.));
#1864=CARTESIAN_POINT('',(16.8876501901456,83.0000012367964,3.));
#1865=CARTESIAN_POINT('',(16.8876501901456,83.0000012367964,3.));
#1866=CARTESIAN_POINT('',(16.8876501901456,83.0000012367964,3.));
#1867=CARTESIAN_POINT('Origin',(50.9999998509884,83.0000012367964,3.));
#1868=CARTESIAN_POINT('Origin',(19.4935886896179,83.0000012367964,24.));
#1869=CARTESIAN_POINT('',(16.9410743460974,83.0000012367964,3.));
#1870=CARTESIAN_POINT('',(50.9999998509884,83.0000012367964,3.));
#1871=CARTESIAN_POINT('',(50.9999998509884,83.0000012367964,3.));
#1872=CARTESIAN_POINT('',(66.2499999254942,83.0000012367964,3.));
#1873=CARTESIAN_POINT('',(50.9999998509884,83.0000012367964,3.));
#1874=CARTESIAN_POINT('Origin',(50.9999998509884,147.110016966254,3.));
#1875=CARTESIAN_POINT('',(50.9999998509884,147.110016966254,3.));
#1876=CARTESIAN_POINT('',(50.9999998509884,113.455008483127,3.));
#1877=CARTESIAN_POINT('',(50.9999998509884,147.110016966254,3.));
#1878=CARTESIAN_POINT('Origin',(16.8876501901456,147.110016966254,3.));
#1879=CARTESIAN_POINT('Origin',(19.4935886896179,147.110016966254,24.));
#1880=CARTESIAN_POINT('',(16.9410743460974,147.110016966254,3.));
#1881=CARTESIAN_POINT('',(49.1938250950728,147.110016966254,3.));
#1882=CARTESIAN_POINT('',(16.8876501901456,147.110016966254,3.));
#1883=CARTESIAN_POINT('Origin',(33.943825020567,115.055009101525,3.));
#1884=CARTESIAN_POINT('',(16.9410743460974,-9.27477184213913E-32,3.));
#1885=CARTESIAN_POINT('Origin',(19.4935886896179,-1.06722031783279E-31,
24.));
#1886=CARTESIAN_POINT('',(17.0595987312283,67.0000009983778,0.123742067014385));
#1887=CARTESIAN_POINT('Origin',(19.4935886896179,67.0000009983778,24.));
#1888=CARTESIAN_POINT('',(17.0595987312283,26.,0.123742067014385));
#1889=CARTESIAN_POINT('',(17.0595987312283,6.66271249064018E-33,0.123742067014385));
#1890=CARTESIAN_POINT('',(1.31599986545698E-31,26.,10.));
#1891=CARTESIAN_POINT('Origin',(19.4935886896179,26.,24.));
#1892=CARTESIAN_POINT('',(7.8757530409656E-31,155.6,10.));
#1893=CARTESIAN_POINT('',(-1.84889274661175E-31,0.,10.));
#1894=CARTESIAN_POINT('Origin',(19.4935886896179,155.6,24.));
#1895=CARTESIAN_POINT('Origin',(81.5,79.8,3.));
#1896=CARTESIAN_POINT('',(16.9410743460974,26.,3.));
#1897=CARTESIAN_POINT('',(16.9410743460974,-9.27477184213913E-32,3.));
#1898=CARTESIAN_POINT('',(16.9410743460974,24.,3.));
#1899=CARTESIAN_POINT('',(16.9410743460974,-9.27477184213913E-32,3.));
#1900=CARTESIAN_POINT('',(24.,16.9410743460974,3.));
#1901=CARTESIAN_POINT('Origin',(24.,24.,3.));
#1902=CARTESIAN_POINT('',(26.,16.9410743460974,3.));
#1903=CARTESIAN_POINT('',(161.,16.9410743460974,3.));
#1904=CARTESIAN_POINT('',(161.,16.9410743460974,3.));
#1905=CARTESIAN_POINT('',(161.,16.9410743460974,3.));
#1906=CARTESIAN_POINT('',(161.,157.6,3.));
#1907=CARTESIAN_POINT('',(161.,4.93038065763132E-31,3.));
#1908=CARTESIAN_POINT('',(159.,157.6,3.));
#1909=CARTESIAN_POINT('',(161.,157.6,3.));
#1910=CARTESIAN_POINT('',(159.,155.6,3.));
#1911=CARTESIAN_POINT('',(159.,117.7,3.));
#1912=CARTESIAN_POINT('',(16.9410743460974,155.6,3.));
#1913=CARTESIAN_POINT('',(41.75,155.6,3.));
#1914=CARTESIAN_POINT('',(16.9410743460974,-9.27477184213913E-32,3.));
#1915=CARTESIAN_POINT('',(50.9999998509884,16.9934171056529,3.));
#1916=CARTESIAN_POINT('',(24.0595987312283,16.9934171056529,3.));
#1917=CARTESIAN_POINT('',(66.2499999254942,16.9934171056529,3.));
#1918=CARTESIAN_POINT('',(17.0595987312283,23.9934171056529,3.));
#1919=CARTESIAN_POINT('Origin',(24.0595987312283,23.9934171056529,3.));
#1920=CARTESIAN_POINT('',(17.0595987312283,67.0000009983778,3.));
#1921=CARTESIAN_POINT('',(17.0595987312283,51.8967085528264,3.));
#1922=CARTESIAN_POINT('',(50.9999998509884,67.0000009983778,3.));
#1923=CARTESIAN_POINT('',(49.2797993656142,67.0000009983778,3.));
#1924=CARTESIAN_POINT('',(50.9999998509884,73.4000004991889,3.));
#1925=CARTESIAN_POINT('Origin',(50.9999998509884,16.9934171056529,3.));
#1926=CARTESIAN_POINT('',(24.0595987312283,16.9934171056529,0.130581447158509));
#1927=CARTESIAN_POINT('',(26.,16.9934171056529,0.130581447158509));
#1928=CARTESIAN_POINT('',(161.,16.9934171056529,0.130581447158509));
#1929=CARTESIAN_POINT('',(24.0595987312283,16.9934171056529,3.));
#1930=CARTESIAN_POINT('',(50.9999998509884,16.9934171056529,0.130581447158509));
#1931=CARTESIAN_POINT('',(50.9999998509884,16.9934171056529,3.));
#1932=CARTESIAN_POINT('',(161.,16.9934171056529,0.130581447158509));
#1933=CARTESIAN_POINT('Origin',(50.9999998509884,67.0000009983778,3.));
#1934=CARTESIAN_POINT('Origin',(50.9999998509884,19.4935886896179,24.));
#1935=CARTESIAN_POINT('',(50.9999998509884,67.0000009983778,3.));
#1936=CARTESIAN_POINT('Origin',(17.0595987312283,67.0000009983778,3.));
#1937=CARTESIAN_POINT('',(17.0595987312283,67.0000009983778,3.));
#1938=CARTESIAN_POINT('Origin',(17.0595987312283,23.9934171056529,3.));
#1939=CARTESIAN_POINT('',(17.0595987312283,24.,0.123742067014385));
#1940=CARTESIAN_POINT('',(17.0595987312283,23.9934171056529,0.123742385266938));
#1941=CARTESIAN_POINT('Ctrl Pts',(17.0595987312283,24.,0.123742067014385));
#1942=CARTESIAN_POINT('Ctrl Pts',(17.0595987312283,23.9978059069839,0.123742067014385));
#1943=CARTESIAN_POINT('Ctrl Pts',(17.0595987312283,23.9956116087842,0.123742173078656));
#1944=CARTESIAN_POINT('Ctrl Pts',(17.0595987312283,23.9934171056529,0.123742385266938));
#1945=CARTESIAN_POINT('',(17.0595987312283,6.66271249064018E-33,0.123742067014385));
#1946=CARTESIAN_POINT('',(17.0595987312283,23.9934171056529,3.));
#1947=CARTESIAN_POINT('Origin',(24.0595987312283,23.9934171056529,3.));
#1948=CARTESIAN_POINT('',(24.,16.9936708251627,0.13055487299762));
#1949=CARTESIAN_POINT('Ctrl Pts',(24.,16.9936708251627,0.13055487299762));
#1950=CARTESIAN_POINT('Ctrl Pts',(24.0198946745221,16.9935014336859,0.130572613869965));
#1951=CARTESIAN_POINT('Ctrl Pts',(24.0397614315366,16.9934171056529,0.130581447158509));
#1952=CARTESIAN_POINT('Ctrl Pts',(24.0595987312283,16.9934171056529,0.130581447158509));
#1953=CARTESIAN_POINT('Ctrl Pts',(17.0595987312283,23.9934171056529,0.123742385266939));
#1954=CARTESIAN_POINT('Ctrl Pts',(17.0595987312283,23.0670681179229,0.123831954699611));
#1955=CARTESIAN_POINT('Ctrl Pts',(17.2434821119193,22.1498671234816,0.124081556413154));
#1956=CARTESIAN_POINT('Ctrl Pts',(17.9515129870987,20.455030031793,0.124866768107811));
#1957=CARTESIAN_POINT('Ctrl Pts',(18.4630077196934,19.6914334518549,0.125389959732533));
#1958=CARTESIAN_POINT('Ctrl Pts',(19.7494060507151,18.4031999431734,0.126648143469912));
#1959=CARTESIAN_POINT('Ctrl Pts',(20.5119525273793,17.8907541558614,0.127371127983354));
#1960=CARTESIAN_POINT('Ctrl Pts',(22.1902811302658,17.186529205332,0.12892617356778));
#1961=CARTESIAN_POINT('Ctrl Pts',(23.0900488463612,17.0014185251598,0.129743433371437));
#1962=CARTESIAN_POINT('Ctrl Pts',(24.,16.9936708251627,0.130554872997619));
#1963=CARTESIAN_POINT('Origin',(161.,19.4935886896179,24.));
#1964=CARTESIAN_POINT('',(26.,3.38006686388856E-31,10.));
#1965=CARTESIAN_POINT('Origin',(26.,19.4935886896179,24.));
#1966=CARTESIAN_POINT('',(24.,0.,10.));
#1967=CARTESIAN_POINT('',(161.,4.93038065763132E-31,10.));
#1968=CARTESIAN_POINT('Origin',(24.,19.4935886896179,24.));
#1969=CARTESIAN_POINT('Origin',(161.,19.4935886896179,24.));
#1970=CARTESIAN_POINT('',(161.,0.,10.));
#1971=CARTESIAN_POINT('Origin',(161.,19.4935886896179,24.));
#1972=CARTESIAN_POINT('',(161.,4.93038065763132E-31,10.));
#1973=CARTESIAN_POINT('Origin',(19.4935886896179,-1.06722031783279E-31,
24.));
#1974=CARTESIAN_POINT('',(0.,24.,10.));
#1975=CARTESIAN_POINT('Origin',(19.4935886896179,24.,24.));
#1976=CARTESIAN_POINT('',(-1.84889274661175E-31,0.,10.));
#1977=CARTESIAN_POINT('Origin',(19.4935886896179,-1.06722031783279E-31,
24.));
#1978=CARTESIAN_POINT('',(6.77927340424307E-31,157.6,10.));
#1979=CARTESIAN_POINT('Origin',(19.4935886896179,157.6,24.));
#1980=CARTESIAN_POINT('',(-1.84889274661175E-31,0.,10.));
#1981=CARTESIAN_POINT('Ctrl Pts',(0.,24.,10.));
#1982=CARTESIAN_POINT('Ctrl Pts',(4.88498130835069E-14,-4.88498130835069E-14,
10.));
#1983=CARTESIAN_POINT('Ctrl Pts',(24.0000000000001,0.,10.));
#1984=CARTESIAN_POINT('Ctrl Pts',(6.30564884893765,24.,1.22001963697477));
#1985=CARTESIAN_POINT('Ctrl Pts',(6.30564884893769,6.30564884893762,1.22001963697477));
#1986=CARTESIAN_POINT('Ctrl Pts',(24.,6.30564884893765,1.22001963697477));
#1987=CARTESIAN_POINT('Ctrl Pts',(17.0595987312283,24.,0.123742067014385));
#1988=CARTESIAN_POINT('Ctrl Pts',(17.0595987312283,17.0595987312283,0.123742067014385));
#1989=CARTESIAN_POINT('Ctrl Pts',(24.,17.0595987312283,0.123742067014385));
#1990=CARTESIAN_POINT('Origin',(24.,24.,10.));
#1991=CARTESIAN_POINT('Origin',(2.,157.6,0.));
#1992=CARTESIAN_POINT('',(159.,157.6,10.));
#1993=CARTESIAN_POINT('',(6.77927340424307E-31,157.6,10.));
#1994=CARTESIAN_POINT('',(159.,157.6,0.));
#1995=CARTESIAN_POINT('',(161.,157.6,0.));
#1996=CARTESIAN_POINT('Origin',(16.9410743460974,-9.27477184213913E-32,
27.));
#1997=CARTESIAN_POINT('Origin',(16.9410743460974,24.,27.));
#1998=CARTESIAN_POINT('Origin',(16.9410743460974,26.,27.));
#1999=CARTESIAN_POINT('Ctrl Pts',(16.9410743460974,24.,3.));
#2000=CARTESIAN_POINT('Ctrl Pts',(16.9410743460974,16.9410743460974,3.));
#2001=CARTESIAN_POINT('Ctrl Pts',(24.,16.9410743460974,3.));
#2002=CARTESIAN_POINT('Ctrl Pts',(7.02434789960137,24.,3.));
#2003=CARTESIAN_POINT('Ctrl Pts',(7.0243478996014,7.02434789960136,3.));
#2004=CARTESIAN_POINT('Ctrl Pts',(24.,7.02434789960137,3.));
#2005=CARTESIAN_POINT('Ctrl Pts',(0.,24.,10.));
#2006=CARTESIAN_POINT('Ctrl Pts',(4.88498130835069E-14,-1.33226762955019E-14,
10.));
#2007=CARTESIAN_POINT('Ctrl Pts',(24.,0.,10.));
#2008=CARTESIAN_POINT('Origin',(24.,16.9410743460974,27.));
#2009=CARTESIAN_POINT('Origin',(16.9410743460974,-9.27477184213913E-32,
27.));
#2010=CARTESIAN_POINT('Origin',(16.9410743460974,155.6,27.));
#2011=CARTESIAN_POINT('Origin',(161.,16.9410743460974,27.));
#2012=CARTESIAN_POINT('Origin',(26.,16.9410743460974,27.));
#2013=CARTESIAN_POINT('Origin',(161.,16.9410743460974,27.));
#2014=CARTESIAN_POINT('Origin',(161.,16.9410743460974,27.));
#2015=CARTESIAN_POINT('Origin',(1.99999999999999,155.6,0.));
#2016=CARTESIAN_POINT('',(159.,155.6,10.));
#2017=CARTESIAN_POINT('',(159.,155.6,0.));
#2018=CARTESIAN_POINT('',(161.,155.6,10.));
#2019=CARTESIAN_POINT('Origin',(80.5,78.8,10.));
#2020=CARTESIAN_POINT('',(159.,2.04314423216577E-31,10.));
#2021=CARTESIAN_POINT('Origin',(159.,155.6,0.));
#2022=CARTESIAN_POINT('Origin',(161.,0.,0.));
#2023=CARTESIAN_POINT('Origin',(159.,45.,4.5));
#2024=CARTESIAN_POINT('',(159.,46.985,4.5));
#2025=CARTESIAN_POINT('Origin',(159.,45.,4.5));
#2026=CARTESIAN_POINT('',(161.,46.985,4.5));
#2027=CARTESIAN_POINT('',(159.,46.985,4.5));
#2028=CARTESIAN_POINT('Origin',(161.,45.,4.5));
#2029=CARTESIAN_POINT('Origin',(159.,120.,4.5));
#2030=CARTESIAN_POINT('',(159.,121.985,4.5));
#2031=CARTESIAN_POINT('Origin',(159.,120.,4.5));
#2032=CARTESIAN_POINT('',(161.,121.985,4.5));
#2033=CARTESIAN_POINT('',(159.,121.985,4.5));
#2034=CARTESIAN_POINT('Origin',(161.,120.,4.5));
#2035=CARTESIAN_POINT('Origin',(161.,19.4935886896179,24.));
#2036=CARTESIAN_POINT('',(159.,0.,10.));
#2037=CARTESIAN_POINT('',(159.,19.4935886896179,0.));
#2038=CARTESIAN_POINT('Origin',(159.,19.4935886896179,24.));
#2039=CARTESIAN_POINT('',(161.,19.4935886896179,0.));
#2040=CARTESIAN_POINT('',(161.,19.4935886896179,0.));
#2041=CARTESIAN_POINT('',(161.,0.,10.));
#2042=CARTESIAN_POINT('Origin',(161.,19.4935886896179,24.));
#2043=CARTESIAN_POINT('',(161.,4.93038065763132E-31,10.));
#2044=CARTESIAN_POINT('Origin',(161.,0.,0.));
#2045=CARTESIAN_POINT('',(161.,155.6,0.));
#2046=CARTESIAN_POINT('',(161.,157.6,0.));
#2047=CARTESIAN_POINT('',(161.,155.6,10.));
#2048=CARTESIAN_POINT('',(161.,155.6,0.));
#2049=CARTESIAN_POINT('',(161.,157.6,10.));
#2050=CARTESIAN_POINT('Origin',(159.,155.6,0.));
#2051=CARTESIAN_POINT('',(159.,155.6,10.));
#2052=CARTESIAN_POINT('',(159.,2.04314423216577E-31,10.));
#2053=CARTESIAN_POINT('',(159.,155.6,0.));
#2054=CARTESIAN_POINT('',(159.,155.6,0.));
#2055=CARTESIAN_POINT('',(159.,2.04314423216577E-31,0.));
#2056=CARTESIAN_POINT('Origin',(161.,155.6,0.));
#2057=CARTESIAN_POINT('',(161.,155.6,0.));
#2058=CARTESIAN_POINT('',(161.,155.6,10.));
#2059=CARTESIAN_POINT('Origin',(160.,77.8,10.));
#2060=CARTESIAN_POINT('Origin',(160.,77.8,0.));
#2061=CARTESIAN_POINT('Origin',(65.,78.,3.));
#2062=CARTESIAN_POINT('',(66.9631577736408,78.,8.));
#2063=CARTESIAN_POINT('Origin',(65.,78.,8.));
#2064=CARTESIAN_POINT('',(66.9631577736408,78.,3.));
#2065=CARTESIAN_POINT('',(66.9631577736408,78.,3.));
#2066=CARTESIAN_POINT('Origin',(65.,78.,3.));
#2067=CARTESIAN_POINT('Origin',(65.,72.,3.));
#2068=CARTESIAN_POINT('',(66.9982332764972,72.,8.));
#2069=CARTESIAN_POINT('Origin',(65.,72.,8.));
#2070=CARTESIAN_POINT('',(66.9982332764972,72.,3.));
#2071=CARTESIAN_POINT('',(66.9982332764972,72.,3.));
#2072=CARTESIAN_POINT('Origin',(65.,72.,3.));
#2073=CARTESIAN_POINT('Origin',(51.9999998509884,67.0000009983778,3.));
#2074=CARTESIAN_POINT('',(69.,67.0000009983778,3.));
#2075=CARTESIAN_POINT('',(51.9999998509884,67.0000009983778,3.));
#2076=CARTESIAN_POINT('',(69.,67.0000009983778,3.));
#2077=CARTESIAN_POINT('',(69.,67.0000009983778,8.));
#2078=CARTESIAN_POINT('',(69.,67.0000009983778,3.));
#2079=CARTESIAN_POINT('',(51.9999998509884,67.0000009983778,8.));
#2080=CARTESIAN_POINT('',(69.,67.0000009983778,8.));
#2081=CARTESIAN_POINT('',(51.9999998509884,67.0000009983778,3.));
#2082=CARTESIAN_POINT('Origin',(51.9999998509884,68.0000009983778,3.));
#2083=CARTESIAN_POINT('',(50.9999998509884,68.0000009983778,3.));
#2084=CARTESIAN_POINT('Origin',(51.9999998509884,68.0000009983778,3.));
#2085=CARTESIAN_POINT('',(50.9999998509884,68.0000009983778,8.));
#2086=CARTESIAN_POINT('Origin',(51.9999998509884,68.0000009983778,8.));
#2087=CARTESIAN_POINT('',(50.9999998509884,68.0000009983778,3.));
#2088=CARTESIAN_POINT('Origin',(50.9999998509884,82.0000012367964,3.));
#2089=CARTESIAN_POINT('',(50.9999998509884,82.0000012367964,3.));
#2090=CARTESIAN_POINT('',(50.9999998509884,68.0000009983778,3.));
#2091=CARTESIAN_POINT('',(50.9999998509884,82.0000012367964,8.));
#2092=CARTESIAN_POINT('',(50.9999998509884,68.0000009983778,8.));
#2093=CARTESIAN_POINT('',(50.9999998509884,82.0000012367964,3.));
#2094=CARTESIAN_POINT('Origin',(51.9999998509884,82.0000012367964,3.));
#2095=CARTESIAN_POINT('',(51.9999998509884,83.0000012367964,3.));
#2096=CARTESIAN_POINT('Origin',(51.9999998509884,82.0000012367964,3.));
#2097=CARTESIAN_POINT('',(51.9999998509884,83.0000012367964,8.));
#2098=CARTESIAN_POINT('Origin',(51.9999998509884,82.0000012367964,8.));
#2099=CARTESIAN_POINT('',(51.9999998509884,83.0000012367964,3.));
#2100=CARTESIAN_POINT('Origin',(69.,83.0000012367964,3.));
#2101=CARTESIAN_POINT('',(69.,83.0000012367964,3.));
#2102=CARTESIAN_POINT('',(50.9999998509884,83.0000012367964,3.));
#2103=CARTESIAN_POINT('',(69.,83.0000012367964,8.));
#2104=CARTESIAN_POINT('',(50.9999998509884,83.0000012367964,8.));
#2105=CARTESIAN_POINT('',(69.,83.0000012367964,3.));
#2106=CARTESIAN_POINT('Origin',(69.,82.0000012367964,3.));
#2107=CARTESIAN_POINT('',(70.,82.0000012367964,3.));
#2108=CARTESIAN_POINT('Origin',(69.,82.0000012367964,3.));
#2109=CARTESIAN_POINT('',(70.,82.0000012367964,8.));
#2110=CARTESIAN_POINT('Origin',(69.,82.0000012367964,8.));
#2111=CARTESIAN_POINT('',(70.,82.0000012367964,3.));
#2112=CARTESIAN_POINT('Origin',(70.,68.0000009983778,3.));
#2113=CARTESIAN_POINT('',(70.,68.0000009983778,3.));
#2114=CARTESIAN_POINT('',(70.,82.0000012367964,3.));
#2115=CARTESIAN_POINT('',(70.,68.0000009983778,8.));
#2116=CARTESIAN_POINT('',(70.,82.0000012367964,8.));
#2117=CARTESIAN_POINT('',(70.,68.0000009983778,3.));
#2118=CARTESIAN_POINT('Origin',(69.,68.0000009983778,3.));
#2119=CARTESIAN_POINT('Origin',(69.,68.0000009983778,3.));
#2120=CARTESIAN_POINT('Origin',(69.,68.0000009983778,8.));
#2121=CARTESIAN_POINT('Origin',(60.4999999254942,75.0000011175871,8.));
#2122=CARTESIAN_POINT('Origin',(60.4999999254942,75.0000011175871,3.));
#2123=UNCERTAINTY_MEASURE_WITH_UNIT(LENGTH_MEASURE(0.01),#2127,
'DISTANCE_ACCURACY_VALUE',
'Maximum model space distance between geometric entities at asserted c
onnectivities');
#2124=UNCERTAINTY_MEASURE_WITH_UNIT(LENGTH_MEASURE(0.01),#2127,
'DISTANCE_ACCURACY_VALUE',
'Maximum model space distance between geometric entities at asserted c
onnectivities');
#2125=(
GEOMETRIC_REPRESENTATION_CONTEXT(3)
GLOBAL_UNCERTAINTY_ASSIGNED_CONTEXT((#2123))
GLOBAL_UNIT_ASSIGNED_CONTEXT((#2127,#2129,#2130))
REPRESENTATION_CONTEXT('','3D')
);
#2126=(
GEOMETRIC_REPRESENTATION_CONTEXT(3)
GLOBAL_UNCERTAINTY_ASSIGNED_CONTEXT((#2124))
GLOBAL_UNIT_ASSIGNED_CONTEXT((#2127,#2129,#2130))
REPRESENTATION_CONTEXT('','3D')
);
#2127=(
LENGTH_UNIT()
NAMED_UNIT(*)
SI_UNIT(.MILLI.,.METRE.)
);
#2128=(
LENGTH_UNIT()
NAMED_UNIT(*)
SI_UNIT($,.METRE.)
);
#2129=(
NAMED_UNIT(*)
PLANE_ANGLE_UNIT()
SI_UNIT($,.RADIAN.)
);
#2130=(
NAMED_UNIT(*)
SI_UNIT($,.STERADIAN.)
SOLID_ANGLE_UNIT()
);
#2131=SHAPE_DEFINITION_REPRESENTATION(#2132,#2133);
#2132=PRODUCT_DEFINITION_SHAPE('',$,#2135);
#2133=SHAPE_REPRESENTATION('',(#1273),#2125);
#2134=PRODUCT_DEFINITION_CONTEXT('part definition',#2139,'design');
#2135=PRODUCT_DEFINITION('20231115-PlaquetteDeBalanceBottomLeftEnBol',
'20231115-PlaquetteDeBalanceBottomLeftEnBol v9',#2136,#2134);
#2136=PRODUCT_DEFINITION_FORMATION('',$,#2141);
#2137=PRODUCT_RELATED_PRODUCT_CATEGORY(
'20231115-PlaquetteDeBalanceBottomLeftEnBol v9',
'20231115-PlaquetteDeBalanceBottomLeftEnBol v9',(#2141));
#2138=APPLICATION_PROTOCOL_DEFINITION('international standard',
'ap242_managed_model_based_3d_engineering',2011,#2139);
#2139=APPLICATION_CONTEXT('Managed model based 3d engineering');
#2140=PRODUCT_CONTEXT('part definition',#2139,'mechanical');
#2141=PRODUCT('20231115-PlaquetteDeBalanceBottomLeftEnBol',
'20231115-PlaquetteDeBalanceBottomLeftEnBol v9',$,(#2140));
#2142=PRESENTATION_STYLE_ASSIGNMENT((#2143));
#2143=SURFACE_STYLE_USAGE(.BOTH.,#2144);
#2144=SURFACE_SIDE_STYLE('',(#2145));
#2145=SURFACE_STYLE_FILL_AREA(#2146);
#2146=FILL_AREA_STYLE('Steel - Satin',(#2147));
#2147=FILL_AREA_STYLE_COLOUR('Steel - Satin',#2148);
#2148=COLOUR_RGB('Steel - Satin',0.627450980392157,0.627450980392157,0.627450980392157);
ENDSEC;
END-ISO-10303-21;
